<?xml version="1.0" encoding="UTF-8"?>
<svg id="Layer_1" data-name="Layer 1" xmlns="http://www.w3.org/2000/svg" version="1.1" viewBox="0 0 460 431">
  <defs>
    <style>
      .cls-1 {
        fill: #f0f2ef;
      }

      .cls-1, .cls-2, .cls-3, .cls-4, .cls-5, .cls-6, .cls-7, .cls-8, .cls-9, .cls-10 {
        stroke-width: 0px;
      }

      .cls-2 {
        fill: #e3acce;
      }

      .cls-3 {
        fill: #c9e0f2;
      }

      .cls-4 {
        fill: #699baf;
      }

      .cls-5 {
        fill: #8ab2c3;
      }

      .cls-11 {
        stroke: #292a2a;
      }

      .cls-11, .cls-12 {
        fill: none;
        stroke-linecap: round;
        stroke-miterlimit: 10;
      }

      .cls-6 {
        fill: #86c3db;
      }

      .cls-7 {
        fill: #292a2a;
      }

      .cls-12 {
        stroke: #3a404c;
        stroke-width: 4px;
      }

      .cls-8 {
        fill: #ebc0da;
      }

      .cls-9 {
        fill: #fff;
      }

      .cls-10 {
        fill: #e1e6e7;
      }
    </style>
  </defs>
  <circle class="cls-5" cx="228.3" cy="192.6" r="133"/>
  <g>
    <path class="cls-3" d="M140.2,228.7s-.2-37.1,9.6-48.3c0,0-8.7-11.7-6.1-36.8,0,0-6.2-9.3-1.9-13.2,4.3-3.9,7.3,4.6,7.3,4.6,0,0,3.2-4.6,4.8-3.1,1.6,1.5,1.1,4.7-2.3,13.8-3.5,9.1,5.1,24.6,5.1,24.6,0,0,8.5-8.8,19.6-11.2,0,0,4.1-3.5,1.5-18.5,0,0-18.8-12.6-.4-26.6,0,0,12.6-6.6,19.8,5.7,7.2,12.4-4.3,19-4.3,19,0,0-1.8,15.3,2.6,18.9,0,0,13.9,4.8,18.9,13.4,0,0,5.9.3,9.1-20.5,0,0-3.5-17-.5-16.7s4.6,2.7,4.6,2.7c0,0,2.8-7.2,6.9-5.3,4.1,1.9,1.4,7-3.1,14.4,0,0-1.2,8.2-1.3,11.2,0,3-1.2,16.3-9.2,24.8,0,0,14.1,26.1,13.2,50.7,0,0-62.5,22.8-94-3.8Z"/>
    <circle class="cls-1" cx="184.5" cy="125.7" r="11.4"/>
    <ellipse class="cls-7" cx="185.7" cy="128" rx="2.7" ry="4.5"/>
    <polygon class="cls-9" points="175.4 188.7 177.5 196.1 183.1 190.5 175.4 188.7"/>
    <path class="cls-11" d="M173.1,187.6s20.2,9.1,28.9-3.2"/>
  </g>
  <g>
    <path class="cls-8" d="M230.2,231.9s-5.5-38.6,26.4-58.5c0,0-.9-8-2.3-8.6-1.4-.6-11.1-1.5-5.5-12.7,5.6-11.2,15.7-2,16,1.5.3,3.5-2.3,9.3-2.3,9.3,0,0-.2,5.3,3.3,4.6,0,0,4.5-3.9,10.4-5.4,0,0,1.9-.1,1.5-4,0,0-13.2-4.9-5-15.7,8.1-10.8,20.6,1.8,18.7,7.5-1.9,5.7-4,7.2-4,7.2,0,0-.7,3.8,1.7,3.9s22.5-3.8,41.9,13.5c19.5,17.3,18.3,20.9,18.3,20.9,0,0-55.5,56.3-119.2,36.4Z"/>
    <circle class="cls-1" cx="256.5" cy="155.9" r="7.2"/>
    <ellipse class="cls-1" cx="280.6" cy="148.2" rx="8" ry="7.6"/>
    <ellipse class="cls-7" cx="256.5" cy="156.8" rx="2.3" ry="3.8" transform="translate(-38.3 97.7) rotate(-20.1)"/>
    <ellipse class="cls-7" cx="280.6" cy="149.3" rx="2.3" ry="3.8" transform="translate(-29.3 78.6) rotate(-15.2)"/>
    <path class="cls-9" d="M275.9,197.3l13.8-3.6s.4,5.5-3.5,7.9c-4,2.5-10.2-4.4-10.2-4.4Z"/>
    <path class="cls-11" d="M250.1,215.8s-3,17,0,19.9"/>
    <path class="cls-11" d="M257.5,214.1s.9,21.3,2.6,22"/>
    <path class="cls-11" d="M321.2,196.1s11.1,13.2,10,17.2"/>
    <path class="cls-11" d="M314,198.3s9.8,18.9,8.7,20.3"/>
  </g>
  <path class="cls-2" d="M214.4,337.6l75.2-7.5s-23.3,43.9-75.2,7.5Z"/>
  <g>
    <path class="cls-10" d="M292,98.4s-14.5-7-22.5-8.6h0c-.4,0-15.6-2.7-22.5-2.8,0,0-5.1-.2-7.4,0-1.9.2-4.7.6-4.4,2.9.3,2.2,18.8,3.2,27.8,5.5,2.9.7,15.3,4.7,22.2,7.8,6.2,2.7,25.1,10.3,26.2,9.3,2.8-2.6-15.4-12.1-19.5-14.1Z"/>
    <ellipse class="cls-10" cx="319" cy="117.1" rx="3" ry="5.2" transform="translate(36.8 306.4) rotate(-54)"/>
  </g>
  <path class="cls-4" d="M46.5,271.7s27,56.5,112.3,63.2c124.6,9.7,219.2-4.1,272.4-97.3,0,0-81.9,79.9-188.3,78.4-106.3-1.5-147.8-14.7-196.4-44.3Z"/>
  <path class="cls-6" d="M95.6,211.2s31.5,31.4,125.4,22c93.9-9.4,139.2-46.2,139.2-46.2,0,0,58.6-5.8,73.2,29.2,12.9,31-57.4,74.7-105.3,88.9-69.6,20.5-200.2,26-249.8-5.4-46.8-29.7-46.5-50.1-6.7-79,0,0,19.2-11,23.1-9"/>
  <path class="cls-12" d="M147.8,234.2s-31.9,27.8-30.3,78.1"/>
  <path class="cls-12" d="M383.8,277.7s-13.3-44-64-65.3"/>
  <circle class="cls-10" cx="343" cy="213.2" r="5.1"/>
  <circle class="cls-10" cx="152.9" cy="245.8" r="5.1"/>
  <circle class="cls-10" cx="364.5" cy="224.6" r="6.2"/>
  <circle class="cls-10" cx="142.8" cy="263.2" r="6.2"/>
  <circle class="cls-10" cx="382.9" cy="242.9" r="7.6"/>
  <circle class="cls-10" cx="132.6" cy="286.6" r="7.6"/>
</svg>