<?xml version="1.0" encoding="UTF-8"?>
<svg id="Layer_1" data-name="Layer 1" xmlns="http://www.w3.org/2000/svg" version="1.1" xmlns:xlink="http://www.w3.org/1999/xlink" viewBox="0 0 246.3 446.2">
  <defs>
    <style>
      .cls-1, .cls-2, .cls-3, .cls-4, .cls-5, .cls-6, .cls-7, .cls-8, .cls-9, .cls-10, .cls-11, .cls-12 {
        stroke-width: 0px;
      }

      .cls-1, .cls-4, .cls-9 {
        fill: #feffff;
      }

      .cls-2 {
        fill: #cbd1d1;
      }

      .cls-3 {
        fill: #e3e8e8;
      }

      .cls-4, .cls-13 {
        opacity: .2;
      }

      .cls-5 {
        fill: none;
      }

      .cls-6 {
        fill: #d78142;
      }

      .cls-7 {
        fill: #1f2f6e;
      }

      .cls-8 {
        fill: #d88773;
      }

      .cls-9 {
        opacity: .2;
      }

      .cls-14 {
        clip-path: url(#clippath);
      }

      .cls-10 {
        fill: #0c112c;
      }

      .cls-11 {
        fill: #e7bc90;
      }

      .cls-12 {
        fill: #a0a8a8;
      }
    </style>
    <clipPath id="clippath">
      <path class="cls-5" d="M226.9,87.9c-12.9,22.1-41.4,29.6-63.5,16.7-22.1-12.9-29.6-41.4-16.7-63.5,12.9-22.1,41.4-29.6,63.5-16.7,22.1,12.9,29.6,41.4,16.7,63.5Z"/>
    </clipPath>
  </defs>
  <path class="cls-12" d="M183.9,120.4c4.1-5.9,17.8-4.6,23.2.1,5.4,4.7,7.1,12.7,5.9,19.8-1.1,7.1-4.6,13.6-8.1,19.9-12.8,23.6-25.6,47.1-38.4,70.7-1.8,3.3-3.8,6.9-7.1,8.7-4.6,2.6-10.7,1.2-14.9-2.1-4.2-3.3-7-8-9.6-12.6"/>
  <path class="cls-12" d="M160.7,108.4c4-5.8,17.5-4.5,22.8.1,5.3,4.7,6.9,12.5,5.8,19.5-1.1,7-4.6,13.4-7.9,19.6-12.6,23.1-25.2,46.3-37.7,69.4-1.8,3.3-3.7,6.7-7,8.6-4.5,2.6-10.5,1.1-14.6-2.1-4.1-3.2-6.8-7.8-9.4-12.4"/>
  <g>
    <g class="cls-14">
      <path class="cls-4" d="M226.9,87.9c-12.9,22.1-41.4,29.6-63.5,16.7-22.1-12.9-29.6-41.4-16.7-63.5,12.9-22.1,41.4-29.6,63.5-16.7,22.1,12.9,29.6,41.4,16.7,63.5Z"/>
      <path class="cls-3" d="M181.1,20.6s-.7,8.5,4.9,15c5.6,6.5,22.9,2.7,31,10,0,0,17.8,17.2,3.5,40.4-14.3,23.2-48,24.7-49.5,24.1-1.5-.5,27.6,18.4,43.5,7.4,15.9-11,43.4-73.5,4.8-91.7-38.6-18.2-38.1-5.1-38.1-5.1Z"/>
      <g>
        <path class="cls-11" d="M194.9,87.9l-19.3,30.4c-7.9.3-14.9-3.1-20.3-11.9l17.9-30.6,21.7,12.1Z"/>
        <path class="cls-11" d="M174.3,36.6s-17,28.7-20.3,36.2c-4.1,9.4,0,19.2,7,23.1,8.6,4.8,20.1,7.5,27.6.6,7.5-7,21.8-38.7,21.8-38.7l-36.2-21.2Z"/>
        <path class="cls-8" d="M181.7,98.5c-7.1,3-15.1,2.1-21.4-2.3-.5-.3,0-1.1.4-.8,6.4,4,13.6,5,20.9,2.9.1,0,.2.2,0,.2h0Z"/>
        <path class="cls-10" d="M175.4,65.5c-.6,1.8-1.4,3.4-2.8,4.6-.7.6-1.5.9-2.2,1.4-2.7,1.8-2.9,3.3-2.4,6.3.1.7-.9.9-1,.3-.4-2-.6-4.4,1-6,.7-.7,1.6-1,2.3-1.4,2.2-1.3,3.7-2.8,4.5-5.3.1-.4.8-.2.6.2h0Z"/>
        <path class="cls-10" d="M169.3,62.6c-.8-.5,0-1.8.8-1.3.8.5,0,1.8-.8,1.3h0Z"/>
        <path class="cls-10" d="M185.1,72.2c-.8-.5,0-1.8.8-1.3.8.5,0,1.8-.8,1.3h0Z"/>
        <g class="cls-13">
          <path class="cls-8" d="M177.8,77.6c-1.2,1.6,0,4.4,2.6,6,2.7,1.6,5.6,1.2,6.5-.6.9-1.8-.4-4.3-2.8-5.7-2.4-1.4-5.1-1.4-6.3.2Z"/>
        </g>
        <g class="cls-13">
          <path class="cls-8" d="M158.5,66.2c-.6.8-.8,1.8-.6,2.8.2,1,.9,1.9,1.9,2.5,1,.6,2.1.7,3.1.5,1-.2,1.8-.9,2.2-1.8.4-.9.4-1.9.2-2.8-.3-.9-.9-1.7-1.7-2.2-.8-.5-1.8-.6-2.7-.5-.9.2-1.8.6-2.4,1.4Z"/>
        </g>
        <g>
          <path class="cls-11" d="M200.3,77.2s10.1,3.2,5.1,12.3c-5,9.1-14.3,3.4-14.3,3.4l9.2-15.7Z"/>
          <path class="cls-8" d="M201.5,83.6c1.3,1.5,1.2,3.7,0,5.2-1.1,1.3-3.5,2.2-5,1-.5-.4-.2-1.3.4-1.4,1.1-.3,2,0,2.9-.8,1-.9,1-2.3.7-3.5-.2-.6.6-1.1,1-.6h0Z"/>
        </g>
        <path class="cls-6" d="M209.7,69.6c.8-1.6,2.1-4.7,2.2-8.3,0,0,0,0,0,0,0-.4.2-.9.2-1.5,0-.6.2-1.2.2-1.9,0-.7,0-1.5,0-2.4,0-.9,0-1.8-.1-2.7-.2-1.9-.6-4-1.1-6.1-.6-2.1-1.4-4.1-2.2-5.8-.4-.9-.8-1.7-1.3-2.4-.4-.7-.9-1.4-1.3-2-.4-.6-.8-1.1-1.2-1.6-.3-.5-.7-.8-1-1.1-.5-.6-.9-.9-.9-.9,0,0,.3.4.8,1,.3.3.6.7.9,1.2.3.5.7,1,1.1,1.6.4.6.8,1.3,1.2,2,.4.7.8,1.5,1.3,2.4.8,1.7,1.6,3.7,2.2,5.8.6,2.1.9,4.2,1.2,6.1,0,.9.2,1.8.2,2.7,0,.8,0,1.6,0,2.4,0,.2,0,.3,0,.5.1-7.9-2.7-15.8-7.8-22-1.2-1.4-2.9-4.5-5.3-3.5-1.3.5-2.7,3-1.4,4.4-1.3-1.3-3.1-3.7-4.5-5.7-1.4-2-3.2-3.9-5.6-4.4-2.4-.5-5.8,1.8-4.3,5-.9-.7-2-1.3-3.3-1.6-1.1-.4-2.3-.7-3.5-.8-1.4,0-2.9.1-4.2.8-1.4.6-2.5,1.7-3,3-.6,1.3-.6,2.7-.3,4,.3,1.3.8,2.4,1.5,3.3.7.9,1.4,1.7,2.2,2.3.3.2.6.5.9.7,2.9,3.1,7,4.9,10.9,7.1,5.2,2.9,10.7,5.3,15.3,9.1,1.9,1.6,3.6,3.5,3.9,6,0,.4,0,.9,0,1.3l-7.8,15.3,6.8-.2,2.8-4.8c1.9-2.4,3.4-5.1,4.6-7.9ZM170.5,40.6c-.6-.9-1.1-2-1.4-3.2-.2-1.2-.2-2.6.3-3.8.5-1.2,1.6-2.2,2.9-2.8,1.3-.6,2.7-.8,4.1-.7,0,0,0,0,.1,0-1.4,0-2.8.6-3.8,1.4-2.3,2.1-3,5.7-1.8,8.6,0,0,0,.1,0,.2.4.9.9,1.6,1.5,2.4-.6-.6-1.3-1.2-1.8-2.1Z"/>
        <path class="cls-10" d="M164.9,82.5c-.7.5-.8,1.5-.4,2.3.5.8,1.5,1,2.3.5.8-.4,1.1-1.4.7-2.2-.4-.8-1.4-1.3-2.3-.9-.3.2,0,.6.2.6,1.2-.2,2.2,1.3.9,2-1.2.6-2-1.1-1.1-1.9.2-.2-.1-.6-.4-.4h0Z"/>
        <path class="cls-10" d="M186.6,63.4c1.4.3,2.3,1.3,3,2.4.3.4,1,.2.8-.4-.6-1.5-2.1-2.5-3.6-2.8-.5,0-.7.6-.2.7h0Z"/>
        <path class="cls-10" d="M169.8,53.3c1.1-.3,2.2.3,2.7,1.3.3.5.9,0,.7-.4-.6-1.3-2.2-1.9-3.6-1.6-.4.1-.2.7.2.6h0Z"/>
      </g>
    </g>
    <path class="cls-1" d="M187.8,187.9c10.1-19.5,10-31.9,9.9-34.8,0-2.1-.3-3.7-.3-3.7-.7-4.1-4.7-24.5-18.2-34.8l-24.1-14.1s-19.1-7.7-36.7.3c-20.3,9.8-47.6,38.1-49.1,39-1.1.6-11.4-23.9-11.4-23.9l-13.8,5.4s13.4,35.6,16.2,39.7c3,4.3,6.1,4.2,6.1,4.2,8,.6,25.2-11.3,36.1-19.6l-30.9,53.5,61,39.3,28.6-56.8c4.8,1.9,26.6,6.3,26.6,6.3Z"/>
    <path class="cls-1" d="M145.5,225.7c-4-3.1-27.5-32.9-27.5-32.9l11.5-9.3s17.3,20.2,18.2,19.2c1.1-1.2,16.7-23.2,15.7-20.6l24.5,5.8s-23.4,37-35.3,39.9c0,0-2.9,1.1-7-2.1Z"/>
    <path class="cls-2" d="M136.1,186.5s-7.2-7.2-7.8-7.9c-.5-.7,3.1-9.4,1.3-8.9-1.8.5-4.4,5.3-4.4,5.3,0,0-7.5-11-8.7-9.2-1.2,1.8,3.4,7.3,3.4,7.3,0,0-7.5-8.7-8.4-7-.9,1.7,5.7,8.3,5.7,8.3,0,0-6.2-5.7-8.2-5.4-1.9.3,5.4,7.6,5.4,7.6,0,0-7-5.1-8-4.6-1.1.5,14.8,24.6,14.8,24.6l14.9-10.1Z"/>
    <path class="cls-1" d="M72,198s-53.1,74-48.6,117.9c4.4,43.3,15.5,67.1,15.5,67.1,0,0-10.6,10.4-11.6,16.8-.9,5.7,36.5-19.7,36.5-19.7,0,0-18.9-51.7-3.2-85.6,15.8-33.9,34-58.4,34-58.4,0,0-32.6,57.6-22.6,95.8,10,38.2,15,72.2,15,72.2,0,0-12.3,23.1-9.6,22.2,4.7-1.7,28.4-17.8,36.5-22.8,2.4-1.4-9.2-71.4-9-85.7.3-15.3,30.2-84.7,30.2-84.7l-63.2-35.1Z"/>
    <path class="cls-2" d="M62.8,122.4s-4.9-9.4-5.1-10.3c-.3-.9,6-8.3,4.1-8.4-1.9-.1-6,3.8-6,3.8,0,0-4-13.2-5.7-11.8-1.7,1.4,1,8.3,1,8.3,0,0-4.7-10.9-6.1-9.5-1.4,1.4,3,10,3,10,0,0-4.3-7.6-6.3-7.9-2-.3,2.9,9.2,2.9,9.2,0,0-5.3-7.2-6.5-7-1.2.1,6.9,28.9,6.9,28.9l17.8-5.2Z"/>
    <path class="cls-3" d="M155.1,100.5c0-1.7.7-3,2.1-3.6l24.3,13.7c.1,1.9-.7,3.2-2.3,4l-24.1-14.1Z"/>
    <path class="cls-3" d="M179.8,114.9c0,0,0,.6-.6,1.3-.6.7-1.9,1.4-3.7,1.4-1.7,0-3.6-.9-5.4-1.7-1.9-.9-3.9-2-5.9-3.3-4.1-2.6-7.4-5.4-9.6-7.7-.6-.6-1.1-1.1-1.4-1.8-.3-.6-.3-1.3-.1-1.8.3-1,1.1-1.1,1.1-1,0,.1-.4.4-.5,1.1-.1.8.5,1.7,1.7,2.6,2.4,2,5.7,4.7,9.7,7.2,2,1.3,3.9,2.4,5.7,3.3,1.8,1,3.4,1.8,4.8,1.9,1.4.2,2.5-.3,3.2-.7.7-.5.9-.9,1-.9Z"/>
    <path class="cls-2" d="M155.9,211c-.3,0-.5-1.9-1.6-4.6-1.1-2.8-3.2-6.4-6.7-9.3-7.2-5.9-12.8-11-12.5-11.4.3-.3,6.3,4.2,13.5,10.2,3.7,3.1,5.9,7.1,6.7,10.1.9,3,.7,5,.6,5Z"/>
    <path class="cls-2" d="M161.4,203.7c-.1.2-1-.2-2-1.3-1-1-2.1-2.7-3.5-4-.7-.7-1.5-1.2-2.2-1.5-.7-.3-1.5-.3-2.1-.3-1.2.1-1.8.8-2,.6-.2,0,.2-1.2,1.8-1.7.8-.2,1.7-.3,2.8,0,1,.3,2,.9,2.8,1.7,1.6,1.6,2.5,3.4,3.3,4.5.7,1.1,1.3,1.8,1.1,2Z"/>
    <path class="cls-2" d="M174.9,164.6c.2.1-1,1.9-2.9,4.9-1.9,2.9-4.6,6.9-7.7,11.2-3,4.4-5.8,8.3-7.9,11.1-2.1,2.8-3.4,4.5-3.5,4.4-.4-.3,4-7.7,10.2-16.4,6.1-8.8,11.5-15.5,11.9-15.2Z"/>
    <path class="cls-2" d="M145.9,226.1c-.3.3-6.8-5.6-13.5-14.1-6.7-8.5-11-16.1-10.6-16.4.4-.2,5.2,7,11.9,15.4,6.6,8.4,12.6,14.8,12.3,15.1Z"/>
    <path class="cls-2" d="M195,159.6c0,.5-5.7-.5-12.1,1.5-6.5,1.9-10.6,5.9-10.9,5.5-.1-.1.7-1.3,2.5-2.8,1.8-1.5,4.6-3.2,7.9-4.2,3.4-1,6.7-1.2,9-1,2.3.2,3.7.7,3.6.9Z"/>
    <path class="cls-2" d="M197.6,151.1c0,.3-1.9.1-4.7.6-1.4.2-3,.7-4.8,1.4-1.7.8-3.5,1.8-5.3,3.1-3.5,2.6-6.1,5.7-7.9,8-1.8,2.3-2.8,3.8-3,3.7-.2,0,.5-1.8,2.1-4.3,1.6-2.5,4.1-5.8,7.9-8.6,1.9-1.4,3.8-2.4,5.7-3.1,1.9-.7,3.7-1.1,5.2-1.1,3-.2,4.8.4,4.8.5Z"/>
    <path class="cls-2" d="M195,139.6c0,.3-2.2.5-5.6,1.8-3.3,1.3-7.7,3.9-11.4,7.9-1.8,1.9-3,4.3-3.7,6.5-.8,2.2-1.2,4.3-1.4,6.1-.5,3.6-.6,5.9-.8,5.9-.2,0-.5-2.3-.3-6,.1-1.9.4-4.1,1.1-6.5.7-2.4,2-5,4-7.1,3.9-4.2,8.6-6.8,12.2-7.9,3.6-1.2,6-1,6-.8Z"/>
    <path class="cls-2" d="M130.3,98c.2.1-1.3,2.9-3.8,7.5-2.5,4.5-6,10.7-9.9,17.6-3.9,6.9-7.6,13-10.3,17.4-2.8,4.4-4.6,7-4.8,6.9-.2-.1,1.3-2.9,3.8-7.5,2.6-4.6,6.1-10.8,9.9-17.6,3.9-6.9,7.6-13,10.3-17.4,2.8-4.4,4.6-7,4.8-6.9Z"/>
    <path class="cls-2" d="M114.6,123c-.4,0-.2-5.4,1.2-11.8,1.4-6.4,3.4-11.4,3.8-11.3.4.1-.9,5.2-2.2,11.6-1.4,6.3-2.3,11.5-2.8,11.5Z"/>
    <path class="cls-2" d="M108.3,134.1c-.4,0-.5-6.7.2-14.9.7-8.2,1.9-14.8,2.4-14.7.4,0-.1,6.7-.8,14.9-.7,8.2-1.3,14.8-1.7,14.8Z"/>
    <path class="cls-2" d="M64.8,152.1c-.4,0-1.1-3.2.1-7,1.3-3.8,3.8-6,4.1-5.7.3.3-1.5,2.7-2.6,6.2-1.2,3.5-1.2,6.5-1.6,6.5Z"/>
    <path class="cls-2" d="M72.3,152.6c-.2.1-.8-.3-1.6-1.4-.8-1-1.7-2.6-2.2-4.6-.5-1.9-.5-3.8-.4-5,.2-1.3.5-2,.7-2,.5,0,.2,3.1,1.1,6.6.9,3.5,2.7,6,2.3,6.3Z"/>
    <polygon class="cls-7" points="178.6 170.6 176 176.1 189.9 184.2 192.2 178.2 178.6 170.6"/>
    <path class="cls-7" d="M188.7,186.2c0,.2-3.4-1.3-7.2-3.5-3.8-2.2-6.7-4.3-6.6-4.5.1-.2,3.2,1.6,6.9,3.8,3.8,2.2,6.9,3.9,6.8,4.1Z"/>
    <rect class="cls-2" x="116.4" y="135.4" width="46.2" height="31.6" transform="translate(95.4 -49.7) rotate(30.3)"/>
    <path class="cls-7" d="M139.2,147.9c0,0,.3-.7.6-1.9.3-1.2.5-3.1-.4-5.2-.8-2-2.9-4.1-5.8-4.6-2.8-.6-6.3.8-8,3.7-1.7,2.9-1.2,6.6.7,8.8,1.9,2.3,4.7,3.1,6.9,2.8,2.2-.2,3.8-1.3,4.7-2.2.9-.9,1.3-1.5,1.3-1.5,0,0,0,.2-.2.5-.2.3-.4.7-.9,1.2-.9,1-2.5,2.2-4.8,2.5-2.3.4-5.4-.4-7.5-2.9-1-1.2-1.7-2.8-1.9-4.5-.2-1.7.2-3.6,1.1-5.1.9-1.6,2.3-2.8,3.9-3.5,1.6-.7,3.3-.8,4.9-.5,3.2.6,5.4,2.9,6.2,5.1.9,2.2.6,4.2.2,5.5-.2.6-.4,1.1-.6,1.4-.2.3-.3.4-.3.4Z"/>
    <path class="cls-7" d="M160.8,155.6c-.1.2-3.5-1.6-7.5-3.9-4-2.4-7.2-4.4-7.1-4.6.1-.2,3.5,1.6,7.5,3.9,4,2.4,7.2,4.4,7.1,4.6Z"/>
    <path class="cls-7" d="M157,161.5c-.1.2-3.3-1.5-7.2-3.8-3.9-2.3-6.9-4.3-6.8-4.5.1-.2,3.3,1.5,7.2,3.8,3.8,2.3,6.9,4.3,6.8,4.5Z"/>
    <path class="cls-7" d="M119.4,154.1c-.2-.1,0-.8.4-1.6.4-.8.9-1.3,1.1-1.2.2.1,0,.8-.4,1.6-.4.8-.9,1.3-1.1,1.2Z"/>
    <path class="cls-7" d="M126.6,157.8c-.2,0-.3-.7,0-1.5.3-.8.9-1.2,1-1.1.2.1,0,.7-.3,1.3-.3.6-.5,1.2-.7,1.2Z"/>
    <path class="cls-7" d="M133.6,161.9c-.2,0-.3-.7,0-1.5.3-.8.9-1.2,1-1.1.2.1,0,.7-.3,1.3-.3.6-.5,1.2-.7,1.2Z"/>
    <path class="cls-7" d="M141.2,166.3c-.2,0-.3-.7,0-1.5.3-.8.9-1.2,1-1.1.2.1,0,.7-.3,1.3-.3.6-.5,1.2-.7,1.2Z"/>
    <path class="cls-7" d="M148.5,170.6c-.2,0-.3-.7,0-1.5.3-.8.9-1.2,1-1.1.2.1,0,.7-.3,1.3-.3.6-.5,1.2-.7,1.2Z"/>
    <path class="cls-2" d="M93.9,237c-.2.1-1.7-1.8-4-5.1-2.3-3.3-5.3-7.9-8.6-13.1-3.2-5.2-6-10-7.9-13.5-1.9-3.5-3-5.7-2.8-5.9.2-.1,1.6,1.9,3.8,5.3,2.2,3.4,5.1,8,8.3,13.2,3.2,5.2,6.1,9.9,8.2,13.3,2.1,3.4,3.3,5.6,3.1,5.7Z"/>
    <path class="cls-2" d="M131.7,240.8c0,.4-8.5,0-19-1.1-10.5-1-18.9-2.2-18.8-2.6,0-.4,8.5,0,19,1.1,10.4,1,18.9,2.2,18.8,2.6Z"/>
    <path class="cls-2" d="M75.3,190.5c7.7,9.1,18.8,16.7,28.7,23.4,10.3,7,21.3,12.5,32.9,17.3,3.2,1.3,4.6-3.9,1.4-5.2-11.5-4.7-22.5-10.3-33-16.9-10-6.2-18.5-14.3-28.1-20.8-1.4-.9-2.7,1.1-1.7,2.2h0Z"/>
    <path class="cls-2" d="M104.7,315.5c0,.4-2.3.4-5.1.5-2.7,0-5,.3-5.1-.1-.1-.4,2.1-1.3,5-1.4,2.9-.1,5.2.6,5.1,1Z"/>
    <path class="cls-2" d="M105.6,316.5c.2.4-2,1.7-4.5,3.4-2.5,1.7-4.6,3.2-4.9,2.9-.3-.3,1.3-2.4,4-4.2,2.7-1.8,5.2-2.5,5.4-2.1Z"/>
    <path class="cls-2" d="M81.9,310.1s.2-.2.7-.4c.5-.2,1.3-.3,2.3,0,1,.3,2.1,1,2.9,2.2.8,1.2,1.3,2.7,1.7,4.4.7,3.3,1.4,7.3,1.3,11.9,0,2.3-.4,4.8-1.9,7.1-.7,1.1-1.8,2.1-3,2.7-1.3.6-2.8.8-4.2.6-2.8-.4-5.2-2-6.8-4.1-1.5-2.1-2.3-4.5-2.6-6.8-.3-2.3-.4-4.4-.3-6.4,0-2,.3-3.9.9-5.6.5-1.7,1.4-3.1,2.5-4.1,1-1,2.1-1.6,3.1-1.8,1.9-.6,3,0,3,0,0,.2-1.1-.1-2.8.5-1.7.6-3.8,2.5-4.7,5.6-.4,1.6-.6,3.4-.6,5.3,0,2,0,4.1.4,6.2.4,2.1,1.1,4.3,2.4,6.1,1.3,1.8,3.5,3.1,5.8,3.4,2.3.3,4.5-.8,5.7-2.6,1.2-1.9,1.6-4.2,1.7-6.3.1-4.4-.4-8.4-1-11.6-.3-1.6-.7-3.1-1.3-4.1-.6-1.1-1.5-1.7-2.4-2.1-1.7-.6-2.7,0-2.7,0Z"/>
    <path class="cls-2" d="M77.6,426.7c12.9-6.5,25.3-14.2,36.9-22.8.9-.7,0-2.2-.9-1.6-11.7,8.6-24.5,15.4-36.5,23.4-.5.4,0,1.2.5.9h0Z"/>
    <path class="cls-2" d="M85.7,404.7c9.8-2.1,20.1-6.6,29.3-10.5.8-.4.3-1.8-.6-1.5-9.5,3.1-20.2,6.4-29,11.2-.4.2-.1.9.3.8h0Z"/>
    <path class="cls-2" d="M28.1,401.4c13.4-3.5,25.1-13.5,36.3-21.3.9-.6,0-2.2-.9-1.6-11.7,8-23,15.8-35.8,21.9-.5.2-.2,1,.4.9h0Z"/>
    <path class="cls-2" d="M38.2,383.3c7.7-1.7,15.9-5.3,23-8.8.8-.4.3-1.8-.6-1.5-7.6,2.8-15.7,5.6-22.8,9.4-.5.2-.2.9.3.8h0Z"/>
    <path class="cls-2" d="M42.7,296.4c0-.4,3.9-.4,8,1.7,4.1,2.1,6.4,5.3,6,5.5-.3.3-2.9-2.2-6.7-4.1-3.8-2-7.3-2.6-7.3-3.1Z"/>
    <path class="cls-2" d="M45.1,304.7c-.1-.2.4-.8,1.4-1.4,1-.6,2.7-1.2,4.5-1.3,1.9,0,3.5.4,4.6.9,1.1.5,1.6,1.1,1.5,1.3-.2.4-2.8-.8-6.1-.6-3.3.1-5.7,1.5-6,1.1Z"/>
    <path class="cls-2" d="M29.4,292.8s.2-.2.6-.6c.4-.3,1.2-.6,2.2-.8,1-.2,2.3-.1,3.7.3,1.4.4,2.9,1.4,4.1,2.8,2.4,2.8,3.4,7.3,3.4,12,0,2.4-.3,4.8-.9,7.3-.6,2.4-1.5,5.3-3.9,7.2-1.2.9-2.9,1.3-4.4.9-1.5-.4-2.7-1.2-3.6-2.3-.9-1-1.5-2.2-2-3.4-.5-1.2-.8-2.3-1.2-3.4-1.4-4.5-1.8-8.9-1.1-12.4.7-3.6,2.3-6.1,3.7-7.6,1.4-1.5,2.4-1.9,2.4-1.9,0,.1-.8.7-2,2.3-1.2,1.5-2.5,4-3,7.4-.5,3.4,0,7.5,1.4,11.8.7,2.1,1.5,4.5,3,6.2.7.8,1.7,1.5,2.8,1.8,1.1.3,2.2,0,3.1-.7.9-.7,1.6-1.7,2.2-2.8.5-1.1.9-2.3,1.2-3.5.6-2.4.9-4.7.9-7,.1-4.5-.7-8.7-2.8-11.3-2-2.7-5-3.4-6.8-3.2-1.9.1-2.8.9-2.8.8Z"/>
    <path class="cls-2" d="M96.8,237.7c0,.4-4.1-.1-8.8-1.3-4.8-1.1-8.6-2.4-8.5-2.8,0-.4,4.1.1,8.8,1.3,4.8,1.1,8.6,2.4,8.5,2.8Z"/>
    <path class="cls-2" d="M102,248.9c-.4.2-2.3-2.2-4.6-5.2-2.3-3.1-4.1-5.6-3.8-5.9.3-.3,2.7,1.8,5,4.9,2.4,3.1,3.8,6,3.4,6.2Z"/>
    <path class="cls-3" d="M181.6,17.9c-1.4,4.6,0,9.7,2.9,13.5,2.9,3.8,7.2,6.3,11.7,7.9,4.5,1.6,9.3,2.3,14,3,1.7.2,3.7.3,4.7-1.1.7-1,.4-2.4,0-3.6-2-6.2-7.1-11.2-13-14.1-5.9-2.9-12.5-4.1-19-4.8"/>
    <path class="cls-9" d="M223.6,56s-31.3,26.2-81.6-3.5c0,0-2.7,11.2-1.1,18.4,0,0,57.2,25.7,85.6-.5,0,0-2-12.6-2.9-14.4Z"/>
  </g>
</svg>