<?xml version="1.0" encoding="UTF-8"?>
<svg id="Layer_1" data-name="Layer 1" xmlns="http://www.w3.org/2000/svg" version="1.1" viewBox="0 0 460 431">
  <defs>
    <style>
      .cls-1 {
        fill: #f0f1f1;
      }

      .cls-1, .cls-2, .cls-3, .cls-4, .cls-5, .cls-6, .cls-7, .cls-8, .cls-9, .cls-10, .cls-11, .cls-12, .cls-13, .cls-14, .cls-15, .cls-16, .cls-17, .cls-18, .cls-19, .cls-20, .cls-21, .cls-22, .cls-23, .cls-24, .cls-25, .cls-26, .cls-27, .cls-28, .cls-29, .cls-30, .cls-31, .cls-32, .cls-33, .cls-34, .cls-35, .cls-36, .cls-37, .cls-38, .cls-39, .cls-40, .cls-41, .cls-42, .cls-43, .cls-44, .cls-45, .cls-46, .cls-47, .cls-48, .cls-49 {
        stroke-width: 0px;
      }

      .cls-2 {
        fill: #3b4856;
      }

      .cls-3 {
        fill: #c8c8d2;
      }

      .cls-4 {
        fill: #f9f9f8;
      }

      .cls-5 {
        fill: #954445;
      }

      .cls-6 {
        fill: #b3baca;
      }

      .cls-7 {
        fill: #fcfcfb;
      }

      .cls-8 {
        fill: #c7c8d0;
      }

      .cls-9 {
        fill: #bec4d5;
      }

      .cls-10 {
        fill: #4e6c8a;
      }

      .cls-11 {
        fill: #a14240;
      }

      .cls-12 {
        fill: #b1b8c9;
      }

      .cls-13 {
        fill: #f8f8f7;
      }

      .cls-14 {
        fill: #cbc9d2;
      }

      .cls-15 {
        fill: #c9c8cf;
      }

      .cls-16 {
        fill: #c9c7d2;
      }

      .cls-17 {
        fill: #a3a7b6;
      }

      .cls-18 {
        fill: #934544;
      }

      .cls-19 {
        fill: #573333;
      }

      .cls-20 {
        fill: #c7c5cd;
      }

      .cls-21 {
        fill: #abb5c8;
      }

      .cls-22 {
        fill: #c9c8d3;
      }

      .cls-23 {
        fill: #5b3737;
      }

      .cls-24 {
        fill: #525c7d;
      }

      .cls-25 {
        fill: #fdfdfd;
      }

      .cls-26 {
        fill: #e9c573;
      }

      .cls-27 {
        fill: #f5f5f6;
      }

      .cls-28 {
        fill: #f9e97b;
      }

      .cls-29 {
        fill: #acb3c9;
      }

      .cls-30 {
        fill: #4c6b8a;
      }

      .cls-31 {
        fill: #412a32;
      }

      .cls-32 {
        fill: #c6c7ce;
      }

      .cls-33 {
        fill: #c9c9d2;
      }

      .cls-34 {
        fill: #2c3543;
      }

      .cls-35 {
        fill: #4a6f92;
      }

      .cls-36 {
        fill: #f6f5f2;
      }

      .cls-37 {
        fill: #4b6b8e;
      }

      .cls-38 {
        fill: #272d38;
      }

      .cls-39 {
        fill: #263041;
      }

      .cls-40 {
        fill: #516880;
      }

      .cls-41 {
        fill: #626265;
      }

      .cls-42 {
        fill: #66666c;
      }

      .cls-43 {
        fill: #9f4241;
      }

      .cls-44 {
        fill: #a7aec8;
      }

      .cls-45 {
        fill: #c2c1c8;
      }

      .cls-46 {
        fill: #101731;
      }

      .cls-47 {
        fill: #f6f7f6;
      }

      .cls-48 {
        fill: #593534;
      }

      .cls-49 {
        fill: #aeb6ca;
      }
    </style>
  </defs>
  <path class="cls-46" d="M77,212.5c-1.5-4.1,2-3.5,3.9-3.7,3.5-.3,7.1,0,12,0-7.6-12.2-15.2-23-18.8-35.8-.5-1.8-2.6-2.4-4.5-2.6-.9-2.2.8-4.6-.5-6.7-1.5-3.6-1.9-7.3-1.9-11.1-.6-5.6,1.8-11.6-1.7-16.9-.7-.4-1.2-.9-1.8-1.5-.3-.8-.2-1.4.4-2,4.9-4.7,3.9-11.3,5.1-17,8.1-38.4,29-68.1,65-83.1,11.8-4.9,27-5.9,30.8-5.9,8.8-.1,26.3,2,33,5,1.9,3.3,11.5,3.6,15,5,20,8,24.3,24.9,35.6,43.4,2.5,4.2,5.1,7.5,10.6,6.3,2.6,1,5,2.1,5.9,5.1-1.2,3.2-4.1,3.1-6.8,3.4-10.7,1.3-18.3,7.1-21.1,17.1-3.1,11.2-1.7,22.1,7.3,30.9,3.6,3.6,9,5,11.6,9.8.6,3.9-1.4,7.1-3.3,10.1-1.5,2.4-3.4,4.5-6.7,2.6-6.4-3.8-10.5.4-13.8,4.7-3.7,4.8-7.6,11.1-3.3,16.7,4.9,6.4,1.9,10.1-2.4,13.7-15.1,12.4-31.5,22.8-50.8,27.5-16.7,4-33.6,5.2-50.6,2.6-2.4-.4-4.8,0-7.3.2-10-1.7-14.7-10.9-22.3-15.9-5.3-2.4-10.7-1.1-16.1-.9-.9,0-1.7-.2-2.4-.8Z"/>
  <path class="cls-13" d="M266.5,90.1h-.9s-.8.3-.8.3c-3,.3-4.3-1.9-5.7-3.9-7.2-5.7-10.7-14.3-17-20.8-11.7-11.9-42.9-29.4-45-31.7-6.8-2.9-13-5-44-7,20-5,78,5,95.2,23.1,10.9,8.6,18,19.8,22.2,32.9,1.8,5.6,1.3,6.1-4,7.1Z"/>
  <path class="cls-34" d="M290.1,128.3c.1-1.8.3-3.6.4-5.4,4,5.5,2.5,6.1,3.3,18.1-1.5,14.7-2.9,29.4-10.5,42.4-3,5.1-2.2,7.3,3.7,8.8,6,1.5,12.5,2,18,5.3.2,3.3.9,6.8-3.7,7.7-5-4.3-11.3-10.1-17.1-6.7-5.4,3.2-2,11.4-1.6,17.5.1,1.8.7,3.5,1,5.3,1.2,9.7,4.1,18.9,6.7,28.3.9,2.8,2.1,5.5,1.4,8.5-.3,1-.9,1.7-1.7,2.3-9,1.7-12.3-5.2-15.4-11.1-6-11.3-8.4-23.8-8.8-36.6-.3-1.9-1.7-3.4-2-5.3-.2-1.9.4-3.7,1.6-5.1,16.9-20.2,21.6-44.6,24.1-69.8.1-1.5-.1-3,.8-4.4Z"/>
  <path class="cls-20" d="M266.5,90.1c14.5.9-16.5-70.1-113.5-63.1,7-2,104.3-19.1,133,71,1.5,4.8,2,12,2,12-5.8-6.6-12.8-17-21.5-19.9Z"/>
  <path class="cls-17" d="M69,80.6c0-13.4,24-39.6,38-45.6-17,12-28.8,28.6-38,45.6Z"/>
  <path class="cls-25" d="M76,212c.6,0,2.2.3,2.7,0,6-.9,12.1-1,18.1,0,6.8,5.5,12.3,12.6,20.4,16.5,5,1.3,9.2,4.4,14,6.2,1.4,2.3,4.3,0,5.8,1.9,4.7,3.2,9.8,5.4,15.2,7,3.6,1.3,6.9,3.2,7,7.5.2,11.4-1.2,22.4-11.1,30.2-7.7,2.1-15.1-.1-22.4-1.7-7.4-1.6-7.3-8-8.1-13.6-6.8-13.1-12.7-14.2-23.6-4.4-1.4,1.2-2.5,2.6-4.4,3-11.3-1.5-18-10-25.5-17.1-4.3-10-4.4-19.5,3.8-27.8,3-2.4,5-5.3,8.1-7.7Z"/>
  <path class="cls-7" d="M344.9,354.4c-13.1,6.7-25.7,2.7-38.2-1.8-2.6-4.1,1-5.5,3.4-6.8,15.2-8.5,26.8-20.3,33.9-36.3,1-2.2,2.4-4.2,4.8-5.2,12.7,2.1,14.9,12.6,17.9,22.5-1.7,7.3-5.1,13.5-11,18.3-3.6,3.1-7.2,6.3-10.8,9.4Z"/>
  <path class="cls-46" d="M355.6,345c3.2-5.9,8-10.9,9.4-17.8.6-12.8-4.6-22.7-15.1-29.9-.8-.3-1.4-.7-2.1-1.2-1.6-2.2-2.8-4.8-5.7-5.8-.7-.4-1.4-.9-2-1.5-4.9-6-11.6-9.5-17.9-13.5-3-1.9-6.6-3.3-7-7.6.8-2,2.5-2.6,4.3-2.9,4.9-.7,9.5,1.2,14.3,1.4,17.3.7,26.5-9.6,24.2-27.2-2.9-6.4-7.2-11.7-12.9-15.9-2.6-1.9-5.7-3.6-6.6-7.1,0-.9.4-1.7,1-2.3,7,3.1,13,7.6,17.7,13.8,6.8,9.1,10.2,18.4,3.8,29.3-5.9,10.2-13.4,17.2-26.2,15.5-.9-.1-1.8.2-3.9.4,6.4,5.1,12,9.7,17.8,14.1,7.4,5.6,13.1,12.6,17.4,20.6,6.7,12.4,2.9,29.5-8.3,38.2-.3.2-1.4-.5-2.1-.8Z"/>
  <path class="cls-31" d="M339.5,213.9c0,.8-.1,1.5-.2,2.3-3.7,10.9-10.2,16.2-19.9,16.2-9.6,0-16.8-5.6-20.4-15.7,0-4.1-1.5-8.6,2.7-11.7,2.2-1.9.2-5.7,3.2-7.3,11.9,4.6,24.3,8.2,34.6,16.3Z"/>
  <path class="cls-9" d="M61,206.1c-11.1,15.1-5.7,31.2-2.9,48.3-10.6-12.9-8.8-38.9,2.9-48.3Z"/>
  <path class="cls-29" d="M255.6,418.1c-13.2-9.7-38.5-30.4-38-31,13.6,9.1,38.5,30.3,38,31Z"/>
  <path class="cls-44" d="M127.3,324.3c13,12.4,26,24.8,39,37.2-.6.6-28.2-22.3-39-37.2Z"/>
  <path class="cls-46" d="M57.4,140.4c.6-3.1,2.6-5.9,5.4-7.3s1.5-.3,2.2,0c1.6,1.6-2.4,7.7-2.8,9.4-2.3,9.7.8,17.2,9.4,22.4,3.4,3.3-1.6,3.5-2,5.5-11.7-5.4-14.8-16.5-12.3-29.9Z"/>
  <path class="cls-12" d="M339.4,195.4c10.6,3.6,23,20.4,22.3,21.2-7.4-7.1-14.9-14.1-22.3-21.2Z"/>
  <path class="cls-6" d="M449,284c-4.1-3.4-29-20-34.3-27.2,9.3.2,30.6,23.4,34.3,27.2Z"/>
  <path class="cls-49" d="M373.8,286.4c7.7,3.2,14.2,7.8,19.2,14.4-7.7-3-14-8.1-19.2-14.4Z"/>
  <path class="cls-21" d="M70.3,269.3c-5.3-1.3-8.2-2.6-9.4-7.4,4.4.8,7,2.4,9.4,7.4Z"/>
  <path class="cls-38" d="M132,237.5c-5.2-2.5-10.7-4.5-14.8-8.9,3.7-2.1,7.4-1.2,11.4-.7,39.7,4.6,73.7-7.6,103.4-36.5-8.2-1.5-8.1-6.7-7.1-11.9,1.8-10,6.1-16.4,16.8-19.6s5.5.9,6.7,6.2c2.9-5.6,5-9.8,7.1-14,5.5,1.4,10.9-2.8,16.4-.4-6.5,6-10.8,13.6-14.9,21.3-.9,1-2,1.6-3.4,1.5-5.9-6.1-8.7,1.3-12.8,2.9-4.7,1.8-2,4.7-1,7.4,1.2,3.4,0,6.6-.8,9.8-.5,1.8-1.3,3.4-2.2,5-16.3,17.7-37.4,27.1-60.1,32.9-10.2,2.6-20.6,4.3-31.2,4.3-4.4,1.5-9.2-3.6-13.5.7Z"/>
  <path class="cls-47" d="M80.2,115.8c3.2-22,12.8-42.7,32.1-58.1,1.4-1.1,3-2,4.6-2.8,3-1.5,6.1-1.7,8.1,1.3,2.1,3.2.2,5.8-2.4,7.8-7.2,5.7-13.6,12-18.7,19.7-7,10.7-10.1,22.6-11.7,35-.6,4.5-1.7,9-7.4,8.3-5.2-.6-5.2-5.1-4.8-11.2Z"/>
  <path class="cls-39" d="M195,33c29.6,7.1,50.5,25.8,64.1,53.5-4.3,3.9-7.1,3.7-10.2-2-10.9-20.2-27.6-34-48.9-42.6-2.5-1-6.9-2.8-5-8.9Z"/>
  <path class="cls-37" d="M71.6,164.8c-1.9,2.8-3.5,1.1-5.1-.3-7.1-6-8.8-16.1-4.6-27.2.8-1.1,1.5-2.2,2.3-3.2.6-.2,1.2-.4,1.8-.7,4.7,1.6,3.2,4.4,2.5,8.4-1.6,9.2,2.3,18.9,3,23Z"/>
  <path class="cls-1" d="M94.5,146.4c-.7,4.6-3.3,7.7-8.3,7.7-5.4,0-8.5-3.2-8.4-8.5.1-4.9,3.3-8,8.1-8,5.3,0,8.2,3.3,8.6,8.8Z"/>
  <path class="cls-14" d="M132,237.5c3.2-7.5,9.3-2.9,14.2-3.3,19.8,3.4,39,0,57.8-6.1,18.7-6,35.5-15.4,49.8-29,3.1-2,4.7-5.1,6.4-8.1,7.3-9.1,11.1-19.7,13.7-30.8.8-3.4.9-7.2,3.5-10,6.6-5.9,10-13.6,12.7-21.7,2,29.3-5.8,55.4-25.1,77.9-.6.7-.8,1.6-1.1,2.5-1.1,6.6-6.7,9.7-11.1,13.5-8.5,7.3-18.2,12.8-28.4,17.3-2.7.9-5.3,2.1-8,3.3-13.2,4.5-26.9,5.5-40.7,5-3.4-.1-6.5-.7-9.5-2.4-5.5,0-10.8-3.5-16.5-1.2-4.9-2.3-10.1-4-14.6-7.3-.9.7-1.8,1.9-3.1.7Z"/>
  <path class="cls-36" d="M277.4,150c-1.1,15.7-5,30.3-16.1,42.1-2.9-1.8-3.7-4.7-1.7-6.9,4.9-5.4,3.4-8.6-2.7-11.2-.7-.3-.9-1.5-1-2.4,1.3-2.4,3-4.6,3.8-7.2,2-6.4,5.5-11,12.2-12.7,1.8-.6,3.6-1.1,5.4-1.7Z"/>
  <path class="cls-25" d="M157.2,289.1c6.6-10.5,10.8-21.9,11.1-34.4,1-3.2.1-8,5.6-7.5,15.1,1.3,29.6-2.6,44.3-4.5,2.8,2.5,0,4.3-.8,6.3-.8,2.1-1.2,4.1.6,5.8,1.7,1.6,3.8,1.4,5.9.7,8.7-2.6,10.7-8.4,5.5-16-.2-2.1,1-3.5,2.7-4.3,11.4-5.9,21.2-13.8,30.1-22.9,1.4-1.4,3.2-4.2,5.8-1.2,0,13.5,2.7,26.3,8.8,38.4,2.8,5.5,6.3,10.3,13.3,10.9,5.2-1.1,10.2-.1,12.7,4.5,2.4,4.4-1.5,8.1-4,11.3-19.5,25.9-43.9,45.9-72.5,60.9-3,1.6-6.3,1.8-9.5,2.7-3.5,1.3-7,2.6-10.5,3.9-4.3,2.2-7.5,0-10.5-2.7-13.5-12.6-25.7-26.4-37-41.1-2.5-3.2-4.3-6.6-1.7-10.7Z"/>
  <path class="cls-25" d="M300.9,217.7c2.8,8.9,10,12,18.2,12.3,8.1.3,14.5-3.5,17.6-11.6.4-.9,1.7-1.5,2.6-2.2,7.7,6.3,16.7,11.3,20.2,21.6,1.4,9-5.2,13.2-11.5,14.9-19.9,5.6-40,5.5-59.6-2.2-4.2-9.3-6.2-19-7-29.1,2-6.5,7.9-9.5,12.8-13.2,4.3-3.3,6.4-1.9,6.1,3.5,0,2-.5,4.2.7,6.1Z"/>
  <path class="cls-33" d="M288.4,250.5c7.1-1.1,14.1.6,20.6,2.3,11.7,3,22.9-.2,34.2-1.1,7.8-.6,13.7-6,16.2-13.9,5,16.9-6.4,32.2-23.6,31.3-5.4-.3-10.7-1.5-16-2.3-10.9.4-20.6-3.3-29.6-9-.6-2.4-1.3-4.7-1.9-7.1Z"/>
  <path class="cls-2" d="M290.3,257.6c9.9,3,19.8,6,29.6,9-1.6.3-3.4.4-4.3,2.2-1.1,2.2-3.1,3.7-4.3,5.8-23.4,32.2-52.1,58.1-88.6,74.9-2.9,1.3-5.7,3.9-9.2,1.3,0-.6,0-1.2,0-1.8-.8-3.6,2.4-3.8,4.3-4.7,34.6-15.9,62.7-39.8,79.9-62.7-9.8,13.9-28.9,31.3-50.4,46.2-6.5,4.5-13.7,7.8-20.4,12-2.6,1.6-5.6,2.7-8.4,0h-.9s-.9-.2-.9-.2c26.5-13.7,50.7-30.5,70.4-53.2,3.6-4.1,7-8.3,10.3-12.6,6.6-8.6,6.5-8.6-3.5-11.9-1.4-.5-2.7-1.2-4-1.8,0-.9.2-1.7.2-2.6Z"/>
  <path class="cls-16" d="M300.9,217.7c-2.9-2.6-1-6.3-2.4-10.4-6,4.9-11.6,9.5-17.2,14-1.8-4.3-2.1-8.8-1.8-13.3.3-4.6-2.4-12.1,1.5-13.1,6.7-1.7,13.9,2,20.1,5.6.7.4.3,2.8.4,4.3-.3,4.3-.5,8.6-.8,12.9Z"/>
  <path class="cls-10" d="M275.5,199.7c-.1,17.7,4.2,33.4,7.7,50.3-10.7-10.4-15.9-41.6-7.7-50.3Z"/>
  <path class="cls-42" d="M268,211c-1.1.2-2.7,0-3.3.8-9.5,11.6-23,18.2-34.3,27.6-3,2.2-5,.9-6.5-2,15.1-7.1,28.2-17,39.9-28.8,1.8,0,4.1-.7,4.2,2.4Z"/>
  <path class="cls-3" d="M148.1,279.8c-8.1,13.6-8.7,13.9-23,8.7-2.8-1-5.5-2.2-8.3-3.4-2.6-7.6-1.6-14.9,2.2-21.9,2,1.9,1.7,4.5,1.5,6.9-.4,5.1,2.5,7.2,6.9,7.6,6.9.6,13.6,2.9,20.7,2.1Z"/>
  <path class="cls-23" d="M119,263.2c.4,7.4-1.1,14.6-2.2,21.9-2.4-1.2-4.8-2.4-7.2-3.5,3-4.5,3.9-9.4,3-14.7-1.2-7.7-6.5-9.8-13-5.4-3.4,2.3-4.9,7.1-9.7,7.5-.6-.6-1.2-1.3-1.9-1.9-1.4-2,.6-2.7,1.4-3.9,1.3-1.3,2.5-2.6,3.8-3.9,10.4-10.3,18.5-9.1,25.8,3.9Z"/>
  <path class="cls-45" d="M89.4,263.2c-.5,1.3-.9,2.6-1.4,3.9-6.4,2.4-8.8-3.6-12.4-6.4-4.4-3.5-8.4-7.8-10.1-13.5,7.9,5.5,14,13.5,23.8,16.1Z"/>
  <g>
    <path class="cls-46" d="M118.7,283.5s-.2,0,0,0h0Z"/>
    <path class="cls-46" d="M307,351.5c-1.5.3-2.5,1.1-3.1,2.5-.1,5,4.1,7.9,6,11.9,1.8,4,3,7.7,1,12-4.8,10.7-17.3,17.7-28.9,15.7-4.8-.8-9.2-2.7-13.8-4.4-1.5-.6-3-1.2-4.6-1.7-1.9-.6-3.7-1.2-5.4-2.2-1.7-1-3.3-2.3-5-3.3-12.2-6.1-22.9-14.4-34.2-21.7-3.7-2.3-5.7-5.2-4.5-9.7-.1-.9-.5-1.6-1.1-2.2-1.3-.6-2.6-.8-3.9-.3,3-3.1,9.4-2.3,9.8-8.4-.6-.6-1.4-1-2.2-1.2-4.2-.4-7.5,4.1-11.1,5.5-5,2.9-9-.7-13.1-4.1-11.1-9.4-22.1-19-32.2-29.5-11.7-12.2-11.3-10-1.8-22.4,7.8-10.4,9.9-21.2,10-34-.2-3.6.1-6.6-3-9-4.7-2.1-27.4-6.4-30.9-8.2,2.2,3.6,8.8,5.9,14.7,7.4,0,0,0,0,0,.1,8.8,1.9,8.3,8.4,6.9,14.9-1.6,7.3-3.5,14.7-8.6,20.6-8.4,11-18.4,9.7-29.1,3.9-.2,0-.3-.2-.4-.2,0,0,0,0-.5-.2-2.6-1.2-5.4-2-7.9-3.6-6.1-4.3-13.9-5.7-19-11.6-.8-1-1.8-1.8-3.1-2.2-10.6-2.7-15.9-11.6-22.7-18.9-5.9-9.4-2.8-27.1,11.2-33.6.9-.4,1.5-1.3,1.4-2.2-.4-4.9-13,8-13.7,9.2-6.3,10.6-6.5,21.3.2,31.6,9.2,14.2,23.5,22.1,38,29.9,16.6,9,35.7,12.1,49.9,27.6,16.4,17.9,34.9,34.2,54.8,48.8,22.5,16.5,45.1,32.3,72.3,40.5,16.1,4.9,33.5-9.2,37.7-22.2,2.1-6.6-2.5-11.8-4.4-18.2,5.1,1.3,8.9,2.5,12.7,3.1,7.2,1.3,30.1-11.2,32.4-16.6s-1.3-.5-2,0c-31.9,22.8-36.7,9.4-49,6.5Z"/>
  </g>
  <path class="cls-25" d="M213.6,350.9c37.5-14.7,67-39.6,91.5-71.1,1.9-2.4,3.7-4.8,5.5-7.3.2-.2.5-.5.7-.5,9.8.4,27.4,16.3,28.5,25.6-7.8,23.9-23.9,39.6-47.1,48.5-6-2.6-11.2-6.6-15-11.5-3.3-4.2-5.4-3.5-7.5-1.6,9,0,13.6,9.2,21.2,13.3,2.3,2.2,1.1,4.5,0,6.6-7.3,14.8-19.7,23.9-34.1,30.8-1.1.5-2.4.2-3.5-.3-15.7-6.1-28.6-16.7-42-26.3-5-3.6.7-4.4,1.9-6.4Z"/>
  <path class="cls-19" d="M253.8,383.6c12.1-6.2,23.5-13.3,31.6-24.5,2.5-3.5,5.8-6.9,4.9-11.9-.3-1.8.3-2.8,2.3-2.2,20.8-10.1,37.3-24.3,45.1-47,2.2-2.7-1.1-7.5,3.5-9.3.7,0,1.4.1,2.1.2,2.9,3.9.8,7.4-.6,11.1-7.3,19.9-21,34.3-38.7,45.2,18.1-8.7,31.6-21.6,38.9-40.8,1.1-3,.7-7.5,5.5-8.4.7,0,1.3,0,2,0,3.1,3.7.9,6.5-1.8,9.1-7.5,19.4-20.9,33.6-38.9,43.7-1.5.9-3.5,1.2-3,3.7-.7.7-1.3,1.3-2,2-3.2,5.2-5.3,11.1-9.7,15.5-6.9,6.5-12.8,14.1-21.6,18.2-2,1.6-4.4,1.9-6.7,2.5-1.4-.6-2.7-1.3-4.1-1.9,1.7-6.1,7.8-7.1,12.1-10.1,10-7.3,15.8-13.3,20.9-24.7-11.1,15-22.2,26.7-37.9,33-2-.4-3.2-1.7-3.9-3.5Z"/>
  <path class="cls-22" d="M266.7,390.8c1.3-1.8,3.1-3,5.3-3.5,2.1,0,4.1.6,6.2.8,11.2.9,16.7-5.8,15.6-19.1,4.5-4.1,4.9-11.4,11-14.3.3.5.6,1.1.9,1.5,10.5,12.9,11.4,17.3,5.5,26.3-7.9,11.9-19.5,16.4-32.6,12.6-4-1.2-7.9-2.8-11.8-4.2Z"/>
  <path class="cls-8" d="M157.2,289.1c-.4,3.5,1,6.5,3.1,9.1,11.7,14.5,23.9,28.6,37.4,41.5,2.5,2.4,5.2,4,8.7,3.9-5.2,3.9-9.6,3.1-14.3-1.4-12.5-11.9-25.2-23.7-38.1-35.1-5.7-5-7.3-9.1-.2-14,1.4-1,2.4-2.7,3.5-4Z"/>
  <path class="cls-40" d="M218.6,339.9c10.8-.9,18.9-7.9,27.3-13.5,22.1-14.6,41.3-32.5,56.7-54.3,1.1-1.6,1.8-4,4.3-4.3.8,15-44.6,54.5-93.2,81.3-3.4-.5-6.5,3.7-10.6.1,4.7-4.2,11.6-4.5,15.6-9.3Z"/>
  <path class="cls-43" d="M89.9,269c3.1-4,6-8.2,10.4-11,4.9-3,9-2.4,12.6,2.2,4.7,5.9,2.9,18-3.3,21.4-6.4-4.5-15.5-4.7-19.7-12.6Z"/>
  <path class="cls-18" d="M257.7,387.1c5.4-6.7,14.1-9.1,19.9-15.3,4.5-4.9,9.5-9.3,13.2-15,1.5-2.3,2.3-8,6.8-4.4,3.5,2.8-.4,5.9-2.1,8.6-8,12.8-20.3,20.4-32.8,27.9-2,.3-3.4-.8-4.9-1.8Z"/>
  <path class="cls-30" d="M165.9,254c-2.3,14.9-6,28.4-16.6,39-1.5,1.5-3.1,3.9-5.1,2.4-3-2.1-.2-4.6,1.1-6.1,9-10.1,12.7-22.4,15.3-35.2.4-2.1-.5-5.6,3.4-4.9,2.8.5,1.8,4.7,1.9,4.7Z"/>
  <path class="cls-42" d="M218.5,244.8c-1.9-2-3.8-.7-5.8-.1-12,3.2-24.1,5.1-36.5,4.1-4.8-.4-6.7.5-7.2,5.3-1.1-3-.2-6.1-2.8-8.7,17.3.2,34.6.4,51.2-5.4,2,.6,5.2-.6,5.3,2.8,0,2.2-1.6,3.6-4.1,2.2Z"/>
  <path class="cls-32" d="M348.5,305.2c.6-3,1.2-6.1,1.8-9.1,10.9,2.1,18.8,18.8,14.8,31.2-3.4-8.9-6-18.4-16.5-22Z"/>
  <path class="cls-5" d="M348.3,296c-6.9,23.1-20.4,40.7-42.5,51.2-2.3,1.1-4.9,2.9-6.4.4-2.3-3.9,2.3-4.1,4.2-5.2,20.6-12.4,34.9-29.3,39.6-53.5,4.6.3,5.3,3.4,5,7.1Z"/>
  <path class="cls-15" d="M341.2,288.8c-2.6,2.6-.5,6.9-3.5,9.3.3-4.1-.5-7.4-4.5-9.8-7.9-4.7-13.5-12.6-22.6-15.7.7-2.6,2.4-3.9,5.1-3.7,6.6,4.1,13.3,8.2,19.9,12.5,2.7,1.8,5.9,3.4,5.6,7.5Z"/>
  <path class="cls-43" d="M304.6,212.2c0-9.8,1.8-11,10.2-7.5,4.7,2,9.2,4.6,13.9,6.6,6.9,3,5.3,7.1,1.4,11.1-4.7,4.9-10.5,5.6-16.6,3.1-6.3-2.5-9.7-6.9-8.8-13.4Z"/>
  <path class="cls-4" d="M257,198c-19.9,21.2-47,32.8-74.7,37.8-12,2.2-24.4,4.5-36.1-1.7,34.1-1.4,64.6-12,89.5-36.2,10.4-5.4,15.1-6.9,21.3,0Z"/>
  <path class="cls-26" d="M237.5,193.8c.3-4.5,2.7-9.5-2.6-12.9-.6-.4-1.3-2-1.1-2.3,3.9-4.7,10.2,1.3,14.4-11.1s3.5,4.1,5.6,6.3c2.3.9,4.8.5,7,1.5,2.9,1.4,4.3,3.8,1.9,6.5-2.8,3.1-4.6,6.1-3.7,10.4.3,1.8-1.2,4.7-2.5,4.1-6.1-2.9-13,1-18.9-2.5Z"/>
  <path class="cls-38" d="M237.4,194.1c0-.1.2-.2.4-.1,5.5,2,11.6-4.1,17.2,1.2,1.3,1.2,2.5-1.3,2.3-2.7-.6-4.5.6-8,4.1-11.1,2.2-1.9.9-3.6-1.4-4.8-1.6-.8-4.5-1.4-5.9-2.6,1.3-1.9.7-1.1,2-3,1.3.6,3.5,2.2,4.9,2.6,6.1,1.9,7,5.4,2.7,9.9-2.3,2.4-3.7,4.5-2.8,7.5s.4,1.8.2,2.6-.1.5-.2.8c-.9,3.4-4.8,5.1-7.9,3.4-5.4-2.9-11.3.8-16.9.2s-.3-.2-.2-.4c.5-1.2,1.1-2.3,1.6-3.5Z"/>
  <path class="cls-24" d="M218.5,244.8c3.7-1.9,3.7-2,1.7-3.3-.9-.6-1.9-1.1-2.8-1.7,1.7-2,4-2.5,6.5-2.5,2.1.9,4,2.4,6.5,2,7.2,4.1,8.1,8.7,2.3,13.6-2.3,1.9-4.9,3.5-7.6,4.9-4,2.1-8,1.8-10.2-2.4-2.3-4.4-1.9-8.6,3.7-10.7Z"/>
  <path class="cls-11" d="M230,260.9c1.3-1.6,2.5-3.2,3.8-4.7,10.8-9,10.8-8.9,20.1,2.1,5.5,6.5,11,12.9,16.8,19.1,3.3,3.5,3.8,6.8.5,10.3-12.5,13.3-26,25.2-42.7,33.3-7.5,3.6-13.2,2.4-18.7-3.3-6.6-6.7-12.5-13.9-18.5-21.2-4.1-5-3-7.7,2.7-10.2,13.7-6,25.5-14.9,36.1-25.4Z"/>
  <path class="cls-48" d="M237,255c-7.9,12.1-26.8,25.2-39.6,30.9-7.6,3.4-9,6-2.7,12.8,5.7,6.2,11.5,12.4,17.2,18.7,3.7,4.1,7.7,5.4,13,3.3,18.6-7.3,32.4-20.9,45.6-35.2,2.4-2.6,1-4.9-1-7.2-7.6-8.6-15.1-17.3-22.6-26.1-2.3-2.7-4.1-3-6.5-.2-1.7,2.1-3.6,4.2-6.7,4.1,0-.3-.2-.7,0-.9q9.6-11.7,19.6-.2c7,8,13.8,16.1,20.9,24,2.3,2.6,3.3,4.4.4,7.5-14.2,15.1-29.3,29-48.7,37.4-5.5,2.4-9.6,1.8-14-2.1-9.5-8.6-17.5-18.5-25.3-28.6-1.6-2.1-4.1-4.9.4-6.3,15.9-4.8,28.2-15.1,40.5-25.5.6-.5,6.7-8.5,9.7-6.5Z"/>
  <path class="cls-41" d="M292.6,345c-.8.7-1.6,1.4-2.3,2.2-2.7-1.8-5.7-3.4-8.2-5.5-5.5-4.5-10.5-10.2-19.2-6,5.1-3.4,10.2-6.7,15.7-10.4-3.6,12.7,9.3,13.2,14,19.7Z"/>
  <path class="cls-27" d="M293.7,369c7.2,4.3,2.6,10.3.6,14.1-3,5.7-9.4,8.2-16.3,7.6-2.4-.2-4.7-1.1-6.1-3.4,7.9-5.3,15.3-11.3,21.8-18.3Z"/>
  <path class="cls-28" d="M230.6,297.6c-3.9-1.3-9-1.3-10.4-6.1-1.3-4.7,5.2-4.3,8.7-5.6,1.2-.5,1-2,.7-4.6-.4-3.9,4.7-5.1,8.2-3.1,3.8,2.2,3.1,5.3,3.4,10,.6,9.6-3.8,10-10.7,9.3Z"/>
  <path class="cls-35" d="M255.5,152.1c-33-13-26.3-52.6,1.4-61.1,7.9-2.4,16.6-.8,22.6,4.7,21,19.1,10.8,70.1-24.1,56.4Z"/>
</svg>