<?xml version="1.0" encoding="UTF-8"?>
<svg id="Layer_1" data-name="Layer 1" xmlns="http://www.w3.org/2000/svg" version="1.1" viewBox="0 0 537.6 446.2">
  <defs>
    <style>
      .cls-1 {
        fill: #f0f2ef;
      }

      .cls-1, .cls-2, .cls-3, .cls-4, .cls-5, .cls-6, .cls-7, .cls-8, .cls-9, .cls-10 {
        stroke-width: 0px;
      }

      .cls-2 {
        fill: #e3acce;
      }

      .cls-3 {
        fill: #c9e0f2;
      }

      .cls-4 {
        fill: #699baf;
      }

      .cls-5 {
        fill: #8ab2c3;
      }

      .cls-6 {
        fill: #86c3db;
      }

      .cls-11 {
        stroke: #292a2a;
        stroke-width: 2px;
      }

      .cls-11, .cls-12 {
        fill: none;
        stroke-linecap: round;
        stroke-miterlimit: 10;
      }

      .cls-7 {
        fill: #292a2a;
      }

      .cls-12 {
        stroke: #3a404c;
        stroke-width: 4px;
      }

      .cls-8 {
        fill: #ebc0da;
      }

      .cls-9 {
        fill: #fff;
      }

      .cls-10 {
        fill: #e1e6e7;
      }
    </style>
  </defs>
  <circle class="cls-5" cx="258.4" cy="190.5" r="133"/>
  <g>
    <path class="cls-3" d="M375.5,158.2c9.1.2,10.5,6.1,8.3,7.8s-8.4-2.8-8.4-2.8c1.2,1.8.2,1.8,1.3,3.9s-.8,2.6-2,1.7c-2-1.4-4.2-3.9-5.6-5.4s-8.3-5.3-19.7-5.5-5.5,3.1-3.2,6.2c9.4,13.1,16.1,37.5,16.1,37.5v-.2c-23,34.2-89.4,29.2-89.4,29.2-7.6-23.4-1.1-52.4-1.1-52.4-10-6-14.8-18.5-15.6-21.4-.9-2.9-4.3-10.4-4.3-10.4-6.3-5.9-10.3-10.1-6.9-13,3.4-2.9,8.1,3.2,8.1,3.2,0,0,.9-2.7,3.7-3.8s4.1,16.2,4.1,16.2c8.7,19.1,14.3,17.3,14.3,17.3,2.5-9.6,14.5-18,14.5-18,3.3-4.7-2.6-18.9-2.6-18.9,0,0-12.9-3.2-9.3-17.1,3.6-13.8,17.5-10.9,17.5-10.9,21.5,8.5,6.9,25.7,6.9,25.7,1.6,15.1,6.5,17.4,6.5,17.4,5.2-.3,10,1.8,14.2,2.1,6.8.5,12.2,1.3,18.6,2,9.7,1.1,21.3,4.2,28.3,8.1s4,1.5,5.7,1.5Z"/>
    <circle class="cls-1" cx="291.8" cy="114.6" r="11.4" transform="translate(-20.2 83.7) rotate(-15.8)"/>
    <path class="cls-7" d="M300,114.7c.2.7-5.1-2.8-9.5-1.6s-6.1,6.8-6.3,6,1.2-7.4,5.6-8.7,10.1,3.5,10.3,4.2Z"/>
    <path class="cls-9" d="M304.8,189.4c-11.5,3.9-13.9-13.5-13.9-13.5,11.7,9.5,28.7-4.8,28.7-4.8,0,0-3.3,14.4-14.8,18.3Z"/>
  </g>
  <g>
    <path class="cls-10" d="M322.1,96.3s-14.5-7-22.5-8.6h0c-.4,0-15.6-2.7-22.5-2.8,0,0-5.1-.2-7.4,0-1.9.2-4.7.6-4.4,2.9.3,2.2,18.8,3.2,27.8,5.5,2.9.7,15.3,4.7,22.2,7.8,6.2,2.7,25.1,10.3,26.2,9.3,2.8-2.6-15.4-12.1-19.5-14.1h.1Z"/>
    <ellipse class="cls-10" cx="349.5" cy="115.1" rx="3" ry="5.2" transform="translate(50.9 330.2) rotate(-54)"/>
  </g>
  <g>
    <g>
      <path class="cls-8" d="M266.4,231.5c-57,34.7-124.5-6.6-124.5-6.6,0,0-2-3.2,12.7-24.7,14.7-21.5,35.1-22.5,37.4-23.2s.7-4.2.7-4.2c0,0-2.4-1-5.6-6-3.2-5.1,5.9-20.3,16.3-11.8,10.6,8.5-1.1,16.4-1.1,16.4.6,3.9,2.4,3.5,2.4,3.5,6.1,0,11.4,2.7,11.4,2.7,3.6-.2,2.1-5.3,2.1-5.3,0,0-3.9-5-4.5-8.5s7-14.8,15.2-5.3c8.1,9.5-1.1,12.7-2.3,13.7s-.2,8.9-.2,8.9c35.8,11.6,39.7,50.4,39.7,50.4h0Z"/>
      <circle class="cls-1" cx="222.7" cy="164.6" r="7.2" transform="translate(-33.1 58.4) rotate(-13.9)"/>
      <ellipse class="cls-1" cx="197.4" cy="162.9" rx="8" ry="7.6" transform="translate(-33.4 52.3) rotate(-13.9)"/>
      <ellipse class="cls-7" cx="198" cy="163" rx="3.8" ry="2.3" transform="translate(30.6 357.4) rotate(-88.7)"/>
      <path class="cls-7" d="M227.4,167c-.1.6-1.9-3.5-4.4-4-2.6-.5-5,2.9-4.9,2.3s2.7-4.9,5.3-4.4,4.2,5.5,4.1,6.1Z"/>
    </g>
    <path class="cls-11" d="M219.9,205.5s-15.8,11.1-25.9-3.4"/>
    <polygon class="cls-1" points="199.4 208.7 195.1 205.1 194.5 210.4 199.4 208.7"/>
    <path class="cls-8" d="M166.2,191.6s-8.6-5.2-10.9-14.1c-2.2-9,2.6-24.7-5.8-23.3s-10.6,6.4-10.4,11.8,9.4-3.7,9.4-3.7c0,0-6.2,36,10.3,41.6,16.5,5.6,7.3-12.3,7.3-12.3Z"/>
    <path class="cls-8" d="M188.3,177.3s-8.6-5.2-10.9-14.1c-2.2-9,2.6-24.7-5.8-23.3s-10.6,6.4-10.4,11.8,9.4-3.7,9.4-3.7c0,0-6.2,36,10.3,41.6,16.5,5.6,7.3-12.3,7.3-12.3Z"/>
    <path class="cls-8" d="M234.8,183.9s8.6-5.2,10.9-14.1c2.2-9-2.6-24.7,5.8-23.3s10.6,6.4,10.4,11.8c-.2,5.5-9.4-3.7-9.4-3.7,0,0,6.2,36-10.3,41.6s-7.3-12.3-7.3-12.3Z"/>
    <path class="cls-8" d="M250.8,196.3s9.5-3.2,13.6-11.5,2.8-24.6,10.6-21.6,9,8.5,7.6,13.8c-1.4,5.3-8.4-5.6-8.4-5.6,0,0-1.6,36.5-18.9,38.5s-4.5-13.6-4.5-13.6Z"/>
  </g>
  <path class="cls-2" d="M244.5,335.5l75.2-7.5s-23.3,43.9-75.2,7.5Z"/>
  <path class="cls-4" d="M76.6,269.6s27,56.5,112.3,63.2c124.6,9.7,219.2-4.1,272.4-97.3,0,0-81.9,79.9-188.3,78.4-106.3-1.5-147.8-14.7-196.4-44.3h0Z"/>
  <path class="cls-6" d="M125.7,209.1s31.5,31.4,125.4,22c93.9-9.4,139.2-46.2,139.2-46.2,0,0,58.6-5.8,73.2,29.2,12.9,31-57.4,74.7-105.3,88.9-69.6,20.5-200.2,26-249.8-5.4-46.8-29.7-46.5-50.1-6.7-79,0,0,19.2-11,23.1-9"/>
  <path class="cls-12" d="M177.9,232.1s-31.9,27.8-30.3,78.1"/>
  <path class="cls-12" d="M413.9,275.6s-13.3-44-64-65.3"/>
  <circle class="cls-10" cx="373.1" cy="211.1" r="5.1"/>
  <circle class="cls-10" cx="183" cy="243.7" r="5.1"/>
  <circle class="cls-10" cx="394.6" cy="222.5" r="6.2"/>
  <circle class="cls-10" cx="172.9" cy="261.1" r="6.2"/>
  <circle class="cls-10" cx="413" cy="240.8" r="7.6"/>
  <circle class="cls-10" cx="162.7" cy="284.5" r="7.6"/>
</svg>