<?xml version="1.0" encoding="UTF-8"?>
<svg id="Layer_1" data-name="Layer 1" xmlns="http://www.w3.org/2000/svg" version="1.1" xmlns:xlink="http://www.w3.org/1999/xlink" viewBox="0 0 1538 952">
  <defs>
    <style>
      .cls-1 {
        fill: #f0f2ef;
      }

      .cls-1, .cls-2, .cls-3, .cls-4, .cls-5, .cls-6, .cls-7, .cls-8, .cls-9, .cls-10, .cls-11, .cls-12, .cls-13, .cls-14 {
        stroke-width: 0px;
      }

      .cls-15 {
        fill: #375b6d;
        stroke: #f2f1ec;
        stroke-miterlimit: 10;
        stroke-width: 20px;
      }

      .cls-2 {
        fill: #b3baca;
      }

      .cls-3 {
        fill: #3c37b2;
      }

      .cls-4 {
        fill: #b1b8c9;
      }

      .cls-16 {
        stroke: #5c8a95;
        stroke-miterlimit: 10;
        stroke-width: 4px;
      }

      .cls-16, .cls-5 {
        fill: none;
      }

      .cls-17 {
        clip-path: url(#clippath-1);
      }

      .cls-6 {
        fill: #86c3db;
      }

      .cls-18 {
        opacity: .3;
      }

      .cls-7 {
        fill: #fdc164;
      }

      .cls-8 {
        fill: #382d7c;
      }

      .cls-19 {
        clip-path: url(#clippath);
      }

      .cls-9 {
        fill: #fdc165;
      }

      .cls-20 {
        opacity: .2;
      }

      .cls-10 {
        fill: #5665c7;
      }

      .cls-11 {
        fill: #ebbb2c;
      }

      .cls-12 {
        fill: #f2f1ec;
      }

      .cls-13 {
        fill: #ececea;
      }

      .cls-14 {
        fill: #aeb6ca;
      }
    </style>
    <clipPath id="clippath">
      <rect class="cls-5" x="1309.2" y="760" width="116" height="116" transform="translate(85 1763.7) rotate(-67.3)"/>
    </clipPath>
    <clipPath id="clippath-1">
      <path class="cls-5" d="M523.1,656.1c.5-.3-2.7,58.1,74.6,123.5l51.4-53s-66.5-76.8-126-70.5Z"/>
    </clipPath>
  </defs>
  <path class="cls-15" d="M1449.2,19.5h-772.6c-42,0-76.1,34.1-76.1,76.1v263.1c0,73.9-59.9,133.8-133.8,133.8H112.7c-44.9,0-81.2,36.4-81.2,81.2v267.6c0,37.7,30.5,68.2,68.2,68.2h1349.5c37.7,0,68.2-30.5,68.2-68.2V87.7c0-37.7-30.5-68.2-68.2-68.2Z"/>
  <path class="cls-4" d="M625,655.7c10.6,3.6,23,20.5,22.3,21.2-7.4-7.1-14.9-14.1-22.3-21.2Z"/>
  <path class="cls-4" d="M601.2,828c-.6.8-18.6-10.1-23.1-20.3,7.7,6.7,15.4,13.6,23.1,20.3Z"/>
  <path class="cls-4" d="M677.2,847.7c-.9,1.1-23.7-16.9-33.3-29.8,5.8,3.6,20.3,14.9,33.3,29.8Z"/>
  <path class="cls-2" d="M518.7,729.6c7.8,4.4,27.2,27.1,31.1,30.8-4.2-3.2-29.8-21.6-31.1-30.8Z"/>
  <path class="cls-14" d="M697.2,756.6c8.3,6.8,14.4,13.8,22,22.6-8.7-6.8-14.2-13.4-22-22.6Z"/>
  <path class="cls-14" d="M671.3,692.2c4.8,2.4,8.8,5.8,11.9,10.7-4.8-2.2-8.7-6-11.9-10.7Z"/>
  <g id="Layer_39" data-name="Layer 39">
    <g>
      <ellipse class="cls-16" cx="189.2" cy="728.9" rx="36.5" ry="15.8" transform="translate(-563.8 721.8) rotate(-74.9)"/>
      <ellipse class="cls-16" cx="188.3" cy="734.7" rx="58.7" ry="29.4" transform="translate(-570.1 725.1) rotate(-74.9)"/>
      <ellipse class="cls-16" cx="201.3" cy="727.9" rx="103.8" ry="52.1" transform="translate(-553.9 732.6) rotate(-74.9)"/>
      <ellipse class="cls-16" cx="209.4" cy="734.2" rx="142.2" ry="73.5" transform="translate(-554 745.1) rotate(-74.9)"/>
    </g>
  </g>
  <g id="Layer_34" data-name="Layer 34">
    <path class="cls-1" d="M295.5,554c1.3,3.2,1.7,5.9,1.8,8.4,0,3.8,1.8,5.9,5.3,6.8.6.2,1.2.6,1.8.9,0,.2-.1.5-.2.5-6.8,1.1-6.8,7-8.2,11.8-.3,1.1-.5,2.2-.7,3.4-1.6-.6-1.4-2-1.7-3.2-.2-.9-.6-1.8-.6-2.7,0-4.7-1.9-7.7-6.6-8.9-.9-.2-1.8-.6-2.4-1.4,1.5-1.1,3.4-.9,5.1-1.2,2.1-.3,3.3-1.3,3.8-3.5.8-3.4,1.7-6.7,2.9-10.9h-.3,0Z"/>
  </g>
  <g id="Layer_33" data-name="Layer 33">
    <path class="cls-1" d="M727.3,124c1.3,3.2,1.7,5.9,1.8,8.4,0,3.8,1.8,5.9,5.3,6.8.6.2,1.2.6,1.8.9,0,.2,0,.5-.2.5-6.8,1.1-6.8,7-8.2,11.8-.3,1.1-.5,2.2-.7,3.4-1.6-.6-1.4-2-1.7-3.2-.2-.9-.6-1.8-.6-2.7,0-4.7-1.9-7.7-6.6-8.9-.9-.2-1.8-.6-2.4-1.4,1.5-1.1,3.4-.9,5.1-1.2,2.1-.3,3.3-1.3,3.8-3.5.8-3.4,1.7-6.7,2.9-10.9h-.3,0Z"/>
  </g>
  <g id="Layer_32" data-name="Layer 32">
    <path class="cls-1" d="M1236.5,831.9c1.3,3.2,1.7,5.9,1.8,8.4,0,3.8,1.8,5.9,5.3,6.8.6.2,1.2.6,1.8.8,0,.2,0,.5-.2.5-6.8,1.1-6.8,7-8.2,11.8-.3,1.1-.5,2.2-.7,3.4-1.6-.6-1.4-2-1.7-3.2-.2-.9-.7-1.8-.6-2.7,0-4.7-1.9-7.7-6.6-8.9-.9-.2-1.8-.6-2.4-1.4,1.5-1.1,3.4-.9,5.1-1.2,2.1-.3,3.3-1.3,3.8-3.5.8-3.4,1.7-6.7,2.9-10.9h-.3Z"/>
  </g>
  <g id="Layer_32-2" data-name="Layer 32-2">
    <path class="cls-1" d="M638.5,516c1.3,3.2,1.7,5.9,1.8,8.4,0,3.8,1.8,5.9,5.3,6.8.6.2,1.2.6,1.8.8,0,.2,0,.5-.2.5-6.8,1.1-6.8,7-8.2,11.8-.3,1.1-.5,2.2-.7,3.4-1.6-.6-1.4-2-1.7-3.2-.2-.9-.7-1.8-.6-2.7,0-4.7-1.9-7.7-6.6-8.9-.9-.2-1.8-.6-2.4-1.4,1.5-1.1,3.4-.9,5.1-1.2,2.1-.3,3.3-1.3,3.8-3.5.8-3.4,1.7-6.7,2.9-10.9h-.3,0Z"/>
  </g>
  <g id="Layer_28" data-name="Layer 28">
    <path class="cls-1" d="M411.4,776c1.3,3.2,1.7,5.9,1.8,8.4,0,3.8,1.8,5.9,5.3,6.8.6.2,1.2.6,1.8.8,0,.2-.1.5-.2.5-6.8,1.1-6.8,7-8.2,11.8-.3,1.1-.5,2.2-.7,3.4-1.6-.6-1.5-2-1.7-3.2-.2-.9-.6-1.8-.6-2.7,0-4.7-2-7.7-6.6-8.9-.9-.2-1.8-.6-2.4-1.4,1.5-1.1,3.4-.9,5.1-1.2,2.1-.3,3.3-1.3,3.8-3.5.8-3.4,1.7-6.7,2.9-10.9h-.3,0Z"/>
  </g>
  <g id="Layer_27" data-name="Layer 27">
    <path class="cls-1" d="M1390.4,515.8c1.3,3.2,1.7,5.9,1.8,8.4,0,3.8,1.8,5.9,5.3,6.8.6.2,1.2.6,1.8.8,0,.2,0,.5-.2.5-6.8,1.1-6.8,7-8.2,11.8-.3,1.1-.5,2.2-.7,3.4-1.6-.6-1.4-2-1.7-3.2-.2-.9-.7-1.8-.6-2.7,0-4.7-1.9-7.7-6.6-8.9-.9-.2-1.8-.6-2.4-1.4,1.5-1.1,3.4-.9,5.1-1.2,2.1-.3,3.3-1.3,3.8-3.5.8-3.4,1.7-6.7,2.9-10.9h-.3Z"/>
  </g>
  <g id="Layer_24" data-name="Layer 24">
    <path class="cls-1" d="M1226.2,54.8c1.3,3.2,1.7,5.9,1.8,8.4,0,3.8,1.8,5.9,5.3,6.8.6.2,1.2.6,1.8.9,0,.2,0,.5-.2.5-6.8,1.1-6.8,7-8.2,11.8-.3,1.1-.5,2.2-.7,3.4-1.6-.6-1.4-2-1.7-3.2-.2-.9-.7-1.8-.6-2.7,0-4.7-1.9-7.7-6.6-8.9-.9-.2-1.8-.6-2.4-1.4,1.5-1.1,3.4-.9,5.1-1.2,2.1-.3,3.3-1.3,3.8-3.5.8-3.4,1.7-6.7,2.9-10.9h-.3Z"/>
  </g>
  <g id="Layer_23" data-name="Layer 23">
    <path class="cls-1" d="M1455.2,264.6c1.3,3.2,1.7,5.9,1.8,8.4,0,3.8,1.8,5.9,5.3,6.8.6.2,1.2.6,1.8.9,0,.2,0,.5-.2.5-6.8,1.1-6.8,7-8.2,11.8-.3,1.1-.5,2.2-.7,3.4-1.6-.6-1.4-2-1.7-3.2-.2-.9-.7-1.8-.6-2.7,0-4.7-1.9-7.7-6.6-8.9s-1.8-.6-2.4-1.4c1.5-1.1,3.4-.9,5.1-1.2,2.1-.3,3.3-1.3,3.8-3.5.8-3.4,1.7-6.7,2.9-10.9h-.3Z"/>
  </g>
  <g id="Layer_22" data-name="Layer 22">
    <path class="cls-1" d="M1356.4,123.3c1.7,4.1,2.2,7.5,2.3,10.7,0,4.9,2.2,7.5,6.8,8.8.8.2,1.5.7,2.3,1.1,0,.3,0,.6-.2.7-8.7,1.4-8.7,8.9-10.5,15.1-.4,1.4-.6,2.8-.9,4.4-2-.8-1.9-2.6-2.2-4.1-.3-1.2-.8-2.3-.8-3.5,0-6-2.5-9.9-8.5-11.4-1.1-.3-2.3-.7-3.1-1.8,2-1.4,4.3-1.2,6.6-1.5,2.7-.4,4.2-1.7,4.8-4.4,1-4.3,2.2-8.6,3.7-14h-.3Z"/>
  </g>
  <g id="Layer_15" data-name="Layer 15">
    <circle class="cls-1" cx="122.1" cy="615.8" r="4.4"/>
  </g>
  <g id="Layer_14" data-name="Layer 14">
    <circle class="cls-1" cx="1453.8" cy="619.8" r="4.4"/>
  </g>
  <g id="Layer_13" data-name="Layer 13">
    <circle class="cls-1" cx="1363.7" cy="345.5" r="4.4"/>
  </g>
  <g id="Layer_12" data-name="Layer 12">
    <circle class="cls-1" cx="1393.8" cy="721.9" r="4.4"/>
  </g>
  <g id="Layer_12-2" data-name="Layer 12-2">
    <circle class="cls-1" cx="939.8" cy="112.9" r="4.4"/>
  </g>
  <g id="Layer_12-3" data-name="Layer 12-3">
    <circle class="cls-1" cx="688.8" cy="283.9" r="4.4"/>
  </g>
  <g id="Layer_11" data-name="Layer 11">
    <circle class="cls-1" cx="450.1" cy="611.2" r="4.4"/>
  </g>
  <g id="Layer_9" data-name="Layer 9">
    <g>
      <g class="cls-20">
        <g class="cls-19">
          <path class="cls-12" d="M1420.9,840.6c-12.4,29.6-46.4,43.5-75.9,31.1s-43.5-46.4-31.1-75.9,46.4-43.5,75.9-31.1,43.5,46.4,31.1,75.9"/>
        </g>
      </g>
      <path class="cls-7" d="M1426,842.1c11.8-31.9-3.6-67.2-35-80.4-29.2-12.2-63.1-.9-79.1,26.4h0c-.4.7-1.1,1.7-1.4,2.4l-.2.4c-12.7,25.3-6.4,56.8,15.6,75.1,32.4,27.1,82.9,14.8,99-21.4l1.1-2.5h0ZM1387.9,769.2c26.6,11.1,40,40.5,31.4,67.7-45.5,6.9-88.8-27.7-99.3-46.4,14.3-22.5,43.1-31.7,68-21.3"/>
    </g>
  </g>
  <g>
    <path class="cls-11" d="M622.9,748.5c-4.8,7.7-6.1,17.5-3.6,26.2s8.9,16.3,17.1,20.2c-.6-2.8-1.2-5.6-1.8-8.4,2.7,2.1,5.5,4.2,8.9,5,3.3.7,7.3-.4,8.8-3.4,1.2-2.5.6-5.4-.4-8-.9-2.6-2.2-5.2-2-7.9s2.4-5.6,5.2-5.2c4.5.6,5.3,8.6,9.8,8.6s4.3-2.8,4.8-5.4c1.7-9.2-5.5-18.3-14.3-21.7-8.7-3.4-18.5-2.4-27.8-1"/>
    <path class="cls-11" d="M669.3,781.2c-1.9-.8-3.6,1.6-3.7,3.2,0,2.2,1.6,4.1,3.8,4.1s3.9-2.3,3.4-4.5c-.5-2.4-3.1-3.5-5.2-2.7-.6.2-1,1-1,1.6,0,1.2,1.2,2.1,2.3,1.9,0,0,.3,0,.2,0h0q0,0,0,.1h0c0,0-.3-.4-.2-.7,0-.8.8-1.3,1-2,0-.5,0-.9-.6-1.1h0Z"/>
    <path class="cls-11" d="M677.2,771.8c.9,0,.9-1.3,0-1.4-.9,0-.9,1.3,0,1.4h0Z"/>
    <path class="cls-6" d="M626.3,707.6s49.9-15.1,52.7,39.4c0,0-14.5-24.6-30.8-19.1l-21.9-20.3h0Z"/>
    <path class="cls-13" d="M523.4,656.1s-2.3,57.1,75.5,122.2l50.2-51.7s-66.3-76.9-125.7-70.5Z"/>
    <polygon class="cls-8" points="649.1 726.5 597.7 779.5 600.3 782.9 652.6 728.7 649.1 726.5"/>
    <path class="cls-6" d="M602.3,734.8l15,19.7,34,26.4s-14.9-22.8-25.9-32.8c-3.4-3.1-14.7-11.2-23-13.3h0Z"/>
    <path class="cls-6" d="M578.7,759.8s-9.1,52.5,45.3,47.5c0,0-26.4-10.9-23.3-27.8l-22-19.7Z"/>
    <g class="cls-18">
      <path class="cls-10" d="M602.3,734.8s4.1,29.7,6.7,33.1l12.8-13.2-19.5-19.8h0Z"/>
    </g>
    <g class="cls-17">
      <path class="cls-9" d="M532.2,695.5s25-16.2,33-32.4l-25.3-21-31.3,21.2,22.8,32.1"/>
    </g>
    <path class="cls-9" d="M556.5,704.5c0,9.7,9.7,14.3,18.4,12.9,8.3-1.3,13.8-10.3,11.6-18.3-2.4-8.3-10.8-13.4-19.3-10.9-8.8,2.5-15.2,12.8-10.9,21.6,1.1,2.3,4.6,1.5,4.3-1.1-.5-5.8,0-10.8,5-14.6,5.3-4,13.1-1.3,16,4.2,8.1,15.2-20.9,22.7-23.2,6-.2-1.2-1.8-.9-1.8.2h0Z"/>
    <g class="cls-18">
      <path class="cls-3" d="M557.4,704.4c0,4.9,4,9.1,8.6,10.7,3.3,1.1,7.1,1.1,10.3,0,3.3-1.3,6.1-3.8,7.5-7,2.4-5.4.3-12.3-4.6-15.7-4.8-3.4-11.9-3-16.5.7s-6.4,10.4-4.5,16"/>
    </g>
  </g>
</svg>