<?xml version="1.0" encoding="UTF-8"?>
<svg id="Layer_1" data-name="Layer 1" xmlns="http://www.w3.org/2000/svg" version="1.1" xmlns:xlink="http://www.w3.org/1999/xlink" viewBox="0 0 1538 758">
  <defs>
    <style>
      .cls-1 {
        fill: #f0f2ef;
      }

      .cls-1, .cls-2, .cls-3, .cls-4, .cls-5, .cls-6 {
        stroke-width: 0px;
      }

      .cls-7 {
        stroke: #5c8a95;
        stroke-miterlimit: 10;
        stroke-width: 4px;
      }

      .cls-7, .cls-8, .cls-4, .cls-9 {
        fill: none;
      }

      .cls-8 {
        stroke: #f2f1ec;
        stroke-width: 20px;
      }

      .cls-8, .cls-9 {
        stroke-miterlimit: 10;
      }

      .cls-2 {
        fill: #c9e0f2;
      }

      .cls-3 {
        fill: #edeeeb;
      }

      .cls-10 {
        clip-path: url(#clippath-1);
      }

      .cls-5 {
        fill: #375b6d;
      }

      .cls-11 {
        clip-path: url(#clippath);
      }

      .cls-12 {
        opacity: .2;
      }

      .cls-9 {
        stroke: #f9c7cb;
        stroke-width: 9px;
      }

      .cls-6 {
        fill: #f2f1ec;
      }
    </style>
    <clipPath id="clippath">
      <rect class="cls-4" x="463.5" y="41.5" width="1054.1" height="684" rx="68.2" ry="68.2"/>
    </clipPath>
    <clipPath id="clippath-1">
      <rect class="cls-4" x="1279.6" y="447" width="315.3" height="315.3"/>
    </clipPath>
  </defs>
  <g>
    <rect class="cls-5" x="31.4" y="40.5" width="1486" height="684" rx="68.2" ry="68.2"/>
    <g id="Layer_30" data-name="Layer 30">
      <path class="cls-1" d="M170.2,322.5c2.4,5.9,3.1,10.6,3.2,15.2.1,6.9,3.2,10.7,9.6,12.4,1.1.3,2.1,1,3.2,1.5-.1.4-.2.9-.3.9-12.3,2-12.3,12.7-14.9,21.4-.6,1.9-.9,4-1.3,6.2-2.9-1.1-2.6-3.7-3.1-5.8-.4-1.7-1.2-3.3-1.2-5,.1-8.5-3.5-14-12-16.2-1.6-.4-3.3-1-4.4-2.5,2.8-2,6.2-1.7,9.3-2.2,3.8-.6,6-2.4,6.8-6.3,1.4-6.2,3.2-12.2,5.2-19.8h0v.2Z"/>
    </g>
    <g id="Layer_29" data-name="Layer 29">
      <path class="cls-1" d="M484,591.5c1.9,4.6,2.4,8.3,2.5,11.9.1,5.4,2.5,8.4,7.5,9.7.9.2,1.7.8,2.5,1.2,0,.3-.1.7-.2.7-9.6,1.6-9.6,9.9-11.7,16.7-.5,1.5-.7,3.1-1,4.9-2.3-.9-2.1-2.9-2.5-4.6-.3-1.3-.9-2.6-.9-3.9,0-6.7-2.8-11-9.4-12.6-1.2-.3-2.6-.8-3.4-1.9,2.2-1.5,4.8-1.3,7.3-1.7,3-.5,4.7-1.9,5.4-4.9,1.1-4.8,2.5-9.5,4.1-15.5h-.2Z"/>
    </g>
    <g id="Layer_20" data-name="Layer 20">
      <circle class="cls-1" cx="1300.2" cy="378.4" r="8"/>
    </g>
    <g id="Layer_17" data-name="Layer 17">
      <circle class="cls-1" cx="312.4" cy="454.7" r="8"/>
    </g>
    <g id="Layer_16" data-name="Layer 16">
      <circle class="cls-1" cx="938.3" cy="124.8" r="8"/>
    </g>
    <g id="Layer_6" data-name="Layer 6">
      <path class="cls-3" d="M121.5,592.1c3.8-2.6,6.5-5.8,8.2-10.5,2.1,4.6,4,8.3,9.2,9.1-2.9,3.8-5.5,7.2-8.3,10.8-2.4-3.8-4.7-7.3-9.1-9.5h0Z"/>
    </g>
    <g class="cls-11">
      <g>
        <g id="Layer_7" data-name="Layer 7">
          <g>
            <ellipse class="cls-7" cx="1466.3" cy="169.3" rx="23.1" ry="53.3" transform="translate(80.3 676.9) rotate(-26.7)"/>
            <ellipse class="cls-7" cx="1469.6" cy="177" rx="43" ry="85.7" transform="translate(77.2 679.2) rotate(-26.7)"/>
            <ellipse class="cls-7" cx="1448.6" cy="171.3" rx="76.1" ry="151.6" transform="translate(77.5 669.1) rotate(-26.7)"/>
            <ellipse class="cls-7" cx="1439.1" cy="182.7" rx="107.4" ry="207.8" transform="translate(71.4 666.1) rotate(-26.7)"/>
          </g>
        </g>
        <g id="Layer_19" data-name="Layer 19">
          <g>
            <g class="cls-12">
              <g class="cls-10">
                <path class="cls-6" d="M1595,604.7c0,87.1-70.6,157.7-157.7,157.7s-157.7-70.6-157.7-157.7,70.6-157.7,157.7-157.7,157.7,70.6,157.7,157.7"/>
              </g>
            </g>
            <path class="cls-2" d="M1591.8,652.3c23.6-87.4-25.7-177.2-112-204.5-80.4-25.4-167.4,12.8-203.1,88.9,0,0,0,0,0,0-.2.4.2-.4,0,0-.9,2-2.4,4.8-3.2,6.7l-.4,1c-27.6,70.2-3.2,152,59.3,195.2,92.4,64,223.2,19.2,257.2-80.6l2.3-6.7h-.1ZM1473.3,468.3c73.1,23.1,115.7,97.6,99.4,171.7-118.8,29.2-241.9-51.8-274.3-98.9,32.5-63.2,106.5-94.4,174.9-72.8"/>
            <path class="cls-9" d="M1292.9,506.4c-75.9-31.2-168-29.6-173.3-12.8-19.1,60.2,425.3,290.7,611.3,263,41.8-6.2-58.7-84.2-138-120.6"/>
          </g>
        </g>
      </g>
    </g>
  </g>
  <rect class="cls-8" x="31.5" y="36.6" width="1486" height="684" rx="68.2" ry="68.2"/>
</svg>