<?xml version="1.0" encoding="UTF-8"?>
<svg id="Layer_1" data-name="Layer 1" xmlns="http://www.w3.org/2000/svg" version="1.1" xmlns:xlink="http://www.w3.org/1999/xlink" viewBox="0 0 1538 459">
  <defs>
    <style>
      .cls-1 {
        fill: #f0f2ef;
      }

      .cls-1, .cls-2, .cls-3, .cls-4, .cls-5, .cls-6, .cls-7 {
        stroke-width: 0px;
      }

      .cls-8 {
        stroke: #f2f1ec;
        stroke-miterlimit: 10;
        stroke-width: 20px;
      }

      .cls-8, .cls-5 {
        fill: none;
      }

      .cls-2 {
        fill: #c9e0f2;
      }

      .cls-9 {
        clip-path: url(#clippath-2);
      }

      .cls-3 {
        fill: #f7fafb;
      }

      .cls-4 {
        fill: #365b60;
      }

      .cls-10 {
        clip-path: url(#clippath-1);
      }

      .cls-11 {
        clip-path: url(#clippath);
      }

      .cls-6 {
        fill: #ebc0da;
      }

      .cls-12 {
        opacity: .2;
      }

      .cls-7 {
        fill: #f2f1ec;
      }
    </style>
    <clipPath id="clippath">
      <rect class="cls-5" x="26" y="33" width="1486" height="391" rx="68.2" ry="68.2"/>
    </clipPath>
    <clipPath id="clippath-1">
      <rect class="cls-5" x="160.8" y="205.1" width="104.4" height="104.4" transform="translate(-109.1 346.2) rotate(-65.8)"/>
    </clipPath>
    <clipPath id="clippath-2">
      <rect class="cls-5" x="1307.9" y="309.8" width="61.4" height="61.5" transform="translate(47.9 832.3) rotate(-35.1)"/>
    </clipPath>
  </defs>
  <rect class="cls-4" x="26" y="33" width="1486" height="391" rx="68.2" ry="68.2"/>
  <g id="Layer_30" data-name="Layer 30">
    <path class="cls-1" d="M98.8,103c2.4,5.9,3.1,10.6,3.2,15.2.1,6.9,3.2,10.7,9.6,12.4,1.1.3,2.1,1,3.2,1.5-.1.4-.2.9-.3.9-12.3,2-12.3,12.7-14.9,21.4-.6,1.9-.9,4-1.3,6.2-2.9-1.1-2.6-3.7-3.1-5.8-.4-1.7-1.2-3.3-1.2-5,.1-8.5-3.5-14-12-16.2-1.6-.4-3.3-1-4.4-2.5,2.8-2,6.2-1.7,9.3-2.2,3.8-.6,6-2.4,6.8-6.3,1.4-6.2,3.2-12.2,5.2-19.8h0Z"/>
  </g>
  <g id="Layer_29" data-name="Layer 29">
    <path class="cls-1" d="M1297.6,227c1.9,4.6,2.4,8.3,2.5,11.9.1,5.4,2.5,8.4,7.5,9.7.9.2,1.7.8,2.5,1.2,0,.3-.1.7-.2.7-9.6,1.6-9.6,9.9-11.7,16.7-.5,1.5-.7,3.1-1,4.9-2.3-.9-2.1-2.9-2.5-4.6-.3-1.3-.9-2.6-.9-3.9,0-6.7-2.8-11-9.4-12.6-1.2-.3-2.6-.8-3.4-1.9,2.2-1.5,4.8-1.3,7.3-1.7,3-.5,4.7-1.9,5.4-4.9,1.1-4.8,2.5-9.5,4.1-15.5h0Z"/>
  </g>
  <g id="Layer_17" data-name="Layer 17">
    <circle class="cls-1" cx="1446" cy="348.2" r="8"/>
  </g>
  <g id="Layer_16" data-name="Layer 16">
    <circle class="cls-1" cx="320.8" cy="381.3" r="8"/>
  </g>
  <g class="cls-11">
    <path class="cls-3" d="M1146.2,98.8c13,19,33.4,35.3,64.8,34.1,7.3-.3,13.7,4.7,15.4,11.8,4.9,20.8,22.7,57.9,87.3,49.5,8.2-1.1,16.5,1.4,22.8,6.6,12.1,10,34.4,24.4,59.6,19.9s13.4-1,19.8.9c11,3.2,29.3,5.8,44.6-5s17.3-4.5,23.7,1.8,16,12.2,27.9,10l14-89.5-9-90-38-32-348-6-1,4.7c-6,28.8-.4,58.9,16.2,83.1Z"/>
    <path class="cls-3" d="M286.5,398.2c-13-19-33.4-35.3-64.8-34.1-7.3.3-13.7-4.7-15.4-11.8-4.9-20.8-22.7-57.9-87.3-49.5-8.2,1.1-16.5-1.4-22.8-6.6-12.1-10-34.4-24.4-59.6-19.9-6.6,1.2-13.4,1-19.8-.9-11-3.2-29.3-5.8-44.6,5-7.3,5.2-17.3,4.5-23.7-1.8-6.6-6.5-16-12.2-27.9-10l-14,89.5,9,90,38,32,348,6,1-4.7c6-28.8.4-58.9-16.2-83.1Z"/>
  </g>
  <g id="Layer_10" data-name="Layer 10">
    <g>
      <g class="cls-12">
        <g class="cls-10">
          <path class="cls-7" d="M260.6,278.8c-11.8,26.3-42.7,38-69,26.2-26.3-11.8-38-42.7-26.2-69,11.8-26.3,42.7-38,69-26.2,26.3,11.8,38,42.7,26.2,69"/>
        </g>
      </g>
      <path class="cls-2" d="M265.2,280.2c11.4-28.4-1.7-60.6-29.6-73.1-26-11.7-56.7-2.3-71.8,21.9,0,0,0,0,0,0,0,.1,0-.1,0,0-.4.6-1,1.5-1.3,2.1l-.2.3c-12,22.5-7,50.9,12.2,67.9,28.5,25.1,74.2,15.2,89.6-17l1-2.2h0ZM232.6,213.7c23.7,10.6,35.1,37.4,26.6,61.6-41.1,5.2-79.3-26.9-88.3-44,13.4-20,39.5-27.5,61.6-17.6"/>
    </g>
  </g>
  <g id="Layer_8" data-name="Layer 8">
    <g>
      <g class="cls-12">
        <g class="cls-9">
          <path class="cls-7" d="M1363.8,323c9.8,13.9,6.4,33-7.4,42.8s-33.1,6.4-42.8-7.5-6.4-33,7.4-42.8,33.1-6.4,42.8,7.5"/>
        </g>
      </g>
      <path class="cls-6" d="M1365.9,321.1c-11-14.3-31.2-17.4-45.9-7-13.7,9.7-18.2,28-10.5,42.9,0,0,0,0,0,0,0,0,0,0,0,0,.2.4.5,1,.7,1.3v.2c7.9,12.8,23.8,18.9,38.2,14.2,21.3-6.9,30-33,18.3-50.4l-.8-1.2h0ZM1322.5,317.6c12.5-8.8,29.4-6.5,39.2,5-9.7,22.3-37.4,32-48.8,31.5-6.1-12.8-2.1-28.2,9.6-36.5"/>
    </g>
  </g>
  <rect class="cls-8" x="32" y="34" width="1486" height="391" rx="68.2" ry="68.2"/>
</svg>