<?xml version="1.0" encoding="UTF-8"?>
<svg id="_圖層_1" data-name="圖層 1" xmlns="http://www.w3.org/2000/svg" viewBox="0 0 117.86 141.73">
  <defs>
    <style>
      .cls-1 {
        fill: #edb866;
      }

      .cls-2 {
        fill: #ef8993;
      }
    </style>
  </defs>
  <path class="cls-1" d="M65.49,45.53v12.29h34.5c2.17,0,6.88,1.14,11.38,5.64,7.4,7.4,9.76,29.03-.18,34.86-12.8,7.51-20.72-8.18-29.29-14.91-1.71-.3-11.99,11.71-14.6,13.55-13.93,9.83-21.29-5.93-30.76-13.55-9.43,5.75-16.09,22.11-29.36,15.24-10.71-5.54-8-27.97-.31-35.66,3.19-3.19,8.98-5.17,10.9-5.17h34.5v-12.29h13.23Z"/>
  <path class="cls-1" d="M117.84,105.84v30.72c0,.89-.22,5.15-3.24,5.15l-108.43.1c-2.88,0-6.1-4.1-6.1-5.25v-30.72c8.01,4.81,17.4,5.37,25.42.23,2.22-1.42,9.54-9.86,10.98-9.61,8.67,9.19,16.33,16.32,29.87,11.72,7.06-2.4,9.58-7.96,15.49-11.72,9.44,11.14,22.03,18.21,36,9.38Z"/>
  <path class="cls-2" d="M58.48.17c2.6,0,12.11,14.23,12.11,25.4,0,14.22-6.37,14.63-12.67,14.63s-12.32-1.76-12.32-14.95S55.88.17,58.48.17Z"/>
</svg>