<?xml version="1.0" encoding="UTF-8"?>
<svg id="_圖層_1" data-name="圖層 1" xmlns="http://www.w3.org/2000/svg" xmlns:xlink="http://www.w3.org/1999/xlink" viewBox="0 0 1920 237.11">
  <defs>
    <style>
      .cls-1 {
        fill: #fac859;
      }

      .cls-2 {
        fill: #35595e;
      }

      .cls-3 {
        opacity: .5;
      }

      .cls-3, .cls-4 {
        fill: #f6bd65;
      }

      .cls-5 {
        fill: none;
      }

      .cls-6 {
        fill: #f2f1ec;
      }

      .cls-7 {
        opacity: .15;
      }

      .cls-8 {
        fill: #f7f8f3;
      }

      .cls-9 {
        fill: #375b6d;
      }

      .cls-10 {
        clip-path: url(#clippath);
      }
    </style>
    <clipPath id="clippath">
      <rect class="cls-5" x="342.42" y="73.4" width="44.25" height="44.26"/>
    </clipPath>
  </defs>
  <path class="cls-4" d="M1920,89.58v135.37H-.34v-127.27S145.88-23.57,374.23,6.75c194.5,25.82,265.54,98.21,393.57,105.94,128.02,8.03,257.8-61.63,385.69-66.84,132-5.38,243.79,29.12,374.88,46.01,113.99,14.68,249.98,18.51,316.63,12.54,35.63-3.19,75-14.8,75-14.8Z"/>
  <path class="cls-6" d="M1920,89.62v147.06H-.34V97.68S116.45,2.07,375.27,22.08c.12,0,.25.01.37.02,2.99.23,6,.47,9.03.72,128.02,11.26,254.3,69.47,382.33,76.86,128.02,7.68,262.98-45.8,391-42,128.02,4.09,254.12,46.93,382.15,54.82,128.02,7.89,251.71,5.76,315.84-5.9,31.93-5.8,64.01-16.98,64.01-16.98Z"/>
  <g>
    <path class="cls-9" d="M758.05,223.63c-.09-.04-.17-.11-.24-.2s-.1-.19-.1-.29c0-.14.05-.26.14-.36s.21-.15.35-.15c.09,0,.16.02.22.05.73.32,1.5.48,2.31.48,1.36,0,2.04-.45,2.04-1.34,0-.23-.09-.43-.26-.57-.16-.15-.35-.27-.59-.35s-.62-.2-1.16-.34c-.62-.16-1.13-.32-1.54-.48-.48-.18-.84-.43-1.08-.76s-.36-.71-.36-1.15.12-.86.35-1.23c.24-.38.6-.68,1.07-.88s1.01-.3,1.62-.3c.87,0,1.64.13,2.33.39.23.09.34.25.34.48,0,.12-.05.24-.14.35s-.21.16-.34.16c-.05,0-.12-.02-.19-.05-.61-.21-1.24-.32-1.89-.32s-1.13.12-1.51.35-.57.56-.57.97c0,.28.09.5.28.67.17.16.39.3.64.4s.64.21,1.16.33c.66.16,1.16.3,1.5.45.41.16.75.4,1,.73s.38.74.38,1.24c0,.43-.12.82-.38,1.18-.26.36-.62.63-1.07.83s-.98.29-1.56.29c-.99,0-1.92-.19-2.79-.56Z"/>
    <path class="cls-9" d="M765.7,223.38c-.54-.55-.8-1.31-.8-2.3,0-.53.1-1.04.3-1.54.21-.49.53-.88.96-1.16s.95-.42,1.55-.42,1.08.13,1.51.4c.41.27.72.62.95,1.07s.34.95.34,1.49c0,.15-.05.28-.15.38s-.23.16-.4.16h-3.96c.07.55.28.98.63,1.27s.82.44,1.41.44c.31,0,.59-.03.84-.09s.49-.15.74-.28c.05-.03.12-.05.21-.05.12,0,.24.04.33.13s.15.2.15.33c0,.18-.11.33-.32.45-.33.18-.64.31-.94.39s-.67.12-1.11.12c-.96,0-1.71-.27-2.24-.82ZM769.42,220.42c-.03-.31-.12-.57-.28-.79-.17-.25-.38-.44-.64-.56s-.52-.19-.79-.19c-.25,0-.51.06-.79.18-.27.13-.49.33-.65.59s-.25.57-.28.92h3.28c.1,0,.15-.05.14-.15Z"/>
    <path class="cls-9" d="M772.05,223.98c-.11-.11-.16-.23-.16-.38v-5.03c0-.15.05-.28.16-.39s.23-.16.38-.16.28.05.39.16.16.24.16.39v.47c.54-.72,1.15-1.08,1.83-1.08h.06c.15,0,.27.05.38.16s.15.23.15.38-.05.27-.16.37-.24.15-.39.15h-.06c-.37,0-.71.09-1.01.26s-.57.43-.79.76v3.56c0,.15-.05.28-.16.38s-.24.16-.39.16-.28-.05-.38-.16Z"/>
    <path class="cls-9" d="M778.12,224.01c-.12-.08-.21-.19-.26-.32l-2.04-4.88c-.04-.1-.06-.18-.06-.25,0-.15.05-.28.16-.39s.23-.16.38-.16c.1,0,.2.03.29.09s.16.13.2.23l1.69,4.29c.02.05.05.08.09.08s.07-.03.09-.08l1.69-4.29c.04-.09.11-.17.2-.23s.19-.09.29-.09c.15,0,.28.05.38.16s.16.24.16.39c0,.06-.02.14-.06.25l-2.04,4.88c-.05.13-.14.24-.26.32s-.25.12-.39.12h-.12c-.14,0-.27-.04-.39-.12Z"/>
    <path class="cls-9" d="M782.68,216.7c-.12-.12-.18-.26-.18-.43v-.05c0-.16.06-.31.18-.43s.26-.18.43-.18h.07c.16,0,.31.06.43.18s.18.26.18.43v.05c0,.16-.06.31-.18.43s-.26.18-.43.18h-.07c-.16,0-.31-.06-.43-.18ZM782.75,223.98c-.11-.11-.16-.23-.16-.38v-5.03c0-.15.05-.28.16-.39s.23-.16.38-.16c.16,0,.29.05.39.16s.16.24.16.39v5.03c0,.15-.05.28-.16.38s-.24.16-.39.16-.28-.05-.38-.16Z"/>
    <path class="cls-9" d="M786.73,223.82c-.49-.26-.88-.62-1.16-1.1s-.42-1.02-.42-1.64.14-1.19.43-1.66c.28-.46.66-.82,1.13-1.07s1-.38,1.58-.38c.39,0,.73.05,1.03.15s.59.24.89.42c.16.11.23.25.23.42,0,.12-.05.23-.14.33s-.2.15-.32.15c-.08,0-.16-.02-.26-.07-.27-.14-.5-.24-.68-.29s-.4-.08-.67-.08c-.66,0-1.18.19-1.56.57s-.58.89-.58,1.53.19,1.15.58,1.53.91.57,1.56.57c.27,0,.49-.03.67-.08s.41-.15.68-.29c.09-.05.18-.07.26-.07.12,0,.22.05.32.15s.14.21.14.33c0,.17-.08.31-.23.42-.3.18-.59.32-.89.42s-.64.15-1.03.15c-.55,0-1.07-.12-1.56-.38Z"/>
    <path class="cls-9" d="M792.15,223.38c-.54-.55-.8-1.31-.8-2.3,0-.53.1-1.04.3-1.54.21-.49.53-.88.96-1.16s.95-.42,1.55-.42,1.08.13,1.51.4c.41.27.72.62.95,1.07s.34.95.34,1.49c0,.15-.05.28-.15.38s-.23.16-.4.16h-3.96c.07.55.28.98.63,1.27s.82.44,1.41.44c.31,0,.59-.03.84-.09s.49-.15.74-.28c.05-.03.12-.05.21-.05.12,0,.24.04.33.13s.15.2.15.33c0,.18-.11.33-.32.45-.33.18-.64.31-.94.39s-.67.12-1.11.12c-.96,0-1.71-.27-2.24-.82ZM795.87,220.42c-.03-.31-.12-.57-.28-.79-.17-.25-.38-.44-.64-.56s-.52-.19-.79-.19c-.25,0-.51.06-.79.18-.27.13-.49.33-.65.59s-.25.57-.28.92h3.28c.1,0,.15-.05.14-.15Z"/>
    <path class="cls-9" d="M802.22,223.98c-.11-.11-.16-.23-.16-.38v-7.23c0-.15.05-.28.16-.39s.23-.16.38-.16.28.05.39.16.16.24.16.39v3.11h4.42v-3.11c0-.15.05-.28.16-.39s.23-.16.38-.16.28.05.39.16.16.24.16.39v7.23c0,.15-.05.28-.16.38s-.24.16-.39.16-.28-.05-.38-.16-.16-.23-.16-.38v-3.11h-4.42v3.11c0,.15-.05.28-.16.38s-.24.16-.39.16-.28-.05-.38-.16Z"/>
    <path class="cls-9" d="M811.6,223.81c-.45-.27-.8-.64-1.05-1.11s-.38-1.02-.38-1.62.12-1.15.38-1.63.6-.84,1.06-1.1.98-.39,1.58-.39,1.12.13,1.57.39c.46.27.82.63,1.07,1.11s.38,1.01.38,1.62-.12,1.15-.38,1.62c-.26.48-.62.86-1.07,1.11s-.98.39-1.56.39-1.12-.13-1.58-.39ZM814.11,222.98c.3-.16.55-.4.73-.72s.27-.72.27-1.19c0-.49-.09-.89-.28-1.2-.17-.3-.4-.52-.69-.68s-.6-.23-.96-.23c-.32,0-.63.07-.93.21-.3.16-.55.39-.73.71s-.27.71-.27,1.18c0,.5.09.9.28,1.21.17.3.4.54.69.69s.6.23.96.23c.32,0,.63-.07.93-.22Z"/>
    <path class="cls-9" d="M818.59,223.89c-.31-.2-.55-.48-.73-.83s-.26-.74-.26-1.17v-3.33c0-.15.05-.28.16-.38s.24-.16.39-.16.28.05.38.16.16.23.16.38v3.21c0,.95.43,1.42,1.28,1.42.38,0,.71-.09,1.01-.28s.6-.46.9-.83v-3.52c0-.15.05-.28.16-.38s.24-.16.39-.16.28.05.38.16.16.23.16.38v5.03c0,.15-.05.28-.16.39s-.23.16-.38.16-.28-.05-.39-.16-.16-.24-.16-.39v-.45c-.32.34-.65.61-1,.79s-.73.27-1.17.27-.8-.1-1.12-.3Z"/>
    <path class="cls-9" d="M824.96,223.98c-.11-.11-.16-.23-.16-.38v-5.03c0-.15.05-.28.16-.39s.23-.16.38-.16.28.05.39.16.16.24.16.39v.47c.54-.72,1.15-1.08,1.83-1.08h.06c.15,0,.27.05.38.16s.15.23.15.38-.05.27-.16.37-.24.15-.39.15h-.06c-.37,0-.71.09-1.01.26s-.57.43-.79.76v3.56c0,.15-.05.28-.16.38s-.24.16-.39.16-.28-.05-.38-.16Z"/>
    <path class="cls-9" d="M829.09,223.67c-.13-.09-.2-.23-.2-.4,0-.12.04-.24.13-.33s.2-.15.33-.15c.08,0,.15.02.21.05.27.12.52.21.77.26s.52.09.82.09c.86,0,1.29-.27,1.29-.82,0-.17-.09-.3-.28-.4-.2-.09-.52-.2-.98-.32-.45-.1-.83-.21-1.14-.34-.34-.12-.61-.31-.81-.56s-.3-.56-.3-.93c0-.55.2-1,.61-1.35s.97-.52,1.69-.52c.62,0,1.19.1,1.7.29.11.03.2.09.26.18s.09.18.09.28c0,.12-.05.24-.14.33s-.21.15-.34.15l-.15-.02c-.47-.14-.91-.21-1.34-.21s-.73.07-.97.22-.36.34-.36.59c0,.23.11.39.32.5.23.1.57.21,1.02.32.42.11.8.22,1.12.34.32.12.58.31.77.57s.29.57.29.96c0,.51-.2.93-.61,1.25s-.96.49-1.66.49c-.77,0-1.49-.18-2.14-.53Z"/>
    <path class="cls-9" d="M835,219.25c-.13-.13-.2-.29-.2-.47v-.07c0-.18.07-.34.2-.47s.29-.2.47-.2h.12c.18,0,.34.07.47.2s.2.29.2.47v.07c0,.18-.07.34-.2.47s-.29.2-.47.2h-.12c-.18,0-.34-.07-.47-.2ZM835,223.91c-.13-.13-.2-.29-.2-.47v-.07c0-.18.07-.34.2-.47s.29-.2.47-.2h.12c.18,0,.34.07.47.2s.2.29.2.47v.07c0,.18-.07.34-.2.47s-.29.2-.47.2h-.12c-.18,0-.34-.07-.47-.2Z"/>
    <path class="cls-9" d="M841.84,223.98c-.11-.11-.16-.23-.16-.38v-7c0-.21.08-.39.23-.55s.33-.23.54-.23h.39c.15,0,.29.04.42.13s.23.21.3.37l2.55,6.38c.02.05.05.08.09.08s.07-.03.09-.08l2.55-6.38c.07-.16.17-.28.3-.37s.27-.13.42-.13h.39c.21,0,.39.08.54.23s.23.34.23.55v7c0,.15-.05.28-.16.38s-.23.16-.38.16-.28-.05-.39-.16-.16-.23-.16-.38v-6.19c0-.07-.02-.11-.07-.11-.03,0-.06.02-.08.07l-2.53,6.26c-.06.15-.16.27-.3.36s-.29.14-.46.14-.32-.05-.46-.14-.24-.21-.3-.36l-2.53-6.26s-.05-.07-.08-.07c-.05,0-.07.04-.07.11v6.19c0,.15-.05.28-.16.38s-.24.16-.39.16-.28-.05-.38-.16Z"/>
    <path class="cls-9" d="M853.7,223.81c-.45-.27-.8-.64-1.05-1.11s-.38-1.02-.38-1.62.12-1.15.38-1.63.6-.84,1.06-1.1.98-.39,1.58-.39,1.12.13,1.57.39c.46.27.82.63,1.07,1.11s.38,1.01.38,1.62-.12,1.15-.38,1.62c-.26.48-.62.86-1.07,1.11s-.98.39-1.56.39-1.12-.13-1.58-.39ZM856.21,222.98c.3-.16.55-.4.73-.72s.27-.72.27-1.19c0-.49-.09-.89-.28-1.2-.17-.3-.4-.52-.69-.68s-.6-.23-.96-.23c-.32,0-.63.07-.93.21-.3.16-.55.39-.73.71s-.27.71-.27,1.18c0,.5.09.9.28,1.21.17.3.4.54.69.69s.6.23.96.23c.32,0,.63-.07.93-.22Z"/>
    <path class="cls-9" d="M859.92,223.98c-.11-.11-.16-.23-.16-.38v-5.03c0-.15.05-.28.16-.39s.23-.16.38-.16.28.05.39.16.16.24.16.39v.45c.32-.34.65-.61,1-.79s.73-.27,1.17-.27.81.1,1.14.3c.31.2.55.48.72.83s.25.74.25,1.17v3.33c0,.15-.05.28-.16.38s-.24.16-.39.16-.28-.05-.38-.16-.16-.23-.16-.38v-3.21c0-.95-.43-1.42-1.28-1.42-.38,0-.71.09-1.01.28s-.6.46-.9.83v3.52c0,.15-.05.28-.16.38s-.24.16-.39.16-.28-.05-.38-.16Z"/>
    <path class="cls-9" d="M866.98,223.91c-.13-.13-.2-.29-.2-.47v-.07c0-.18.07-.34.2-.47s.29-.2.47-.2h.12c.18,0,.34.07.47.2s.2.29.2.47v.07c0,.18-.07.34-.2.47s-.29.2-.47.2h-.12c-.18,0-.34-.07-.47-.2Z"/>
    <path class="cls-9" d="M869.96,221.13c-.09-.09-.14-.21-.14-.34,0-.14.04-.26.13-.35s.21-.14.35-.14h2.21c.13,0,.25.05.35.15s.15.21.15.35c0,.14-.05.26-.14.35s-.21.13-.35.13h-2.21c-.13,0-.25-.05-.34-.14Z"/>
    <path class="cls-9" d="M878.61,223.98c-.11-.11-.16-.23-.16-.38v-7.17c0-.15.05-.28.16-.39s.23-.16.38-.16h4.56c.14,0,.26.05.36.15s.15.22.15.36-.05.26-.15.36-.22.15-.36.15h-3.87c-.09,0-.14.05-.14.14v2.43h3.6c.14,0,.26.05.36.15s.15.22.15.36-.05.26-.15.36-.22.15-.36.15h-3.6v3.12c0,.15-.05.28-.16.38s-.24.16-.39.16-.28-.05-.38-.16Z"/>
    <path class="cls-9" d="M885.2,223.98c-.11-.11-.16-.23-.16-.38v-5.03c0-.15.05-.28.16-.39s.23-.16.38-.16.28.05.39.16.16.24.16.39v.47c.54-.72,1.15-1.08,1.83-1.08h.06c.15,0,.27.05.38.16s.15.23.15.38-.05.27-.16.37-.24.15-.39.15h-.06c-.37,0-.71.09-1.01.26s-.57.43-.79.76v3.56c0,.15-.05.28-.16.38s-.24.16-.39.16-.28-.05-.38-.16Z"/>
    <path class="cls-9" d="M889.62,216.7c-.12-.12-.18-.26-.18-.43v-.05c0-.16.06-.31.18-.43s.26-.18.43-.18h.07c.16,0,.31.06.43.18s.18.26.18.43v.05c0,.16-.06.31-.18.43s-.26.18-.43.18h-.07c-.16,0-.31-.06-.43-.18ZM889.69,223.98c-.11-.11-.16-.23-.16-.38v-5.03c0-.15.05-.28.16-.39s.23-.16.38-.16c.16,0,.29.05.39.16s.16.24.16.39v5.03c0,.15-.05.28-.16.38s-.24.16-.39.16-.28-.05-.38-.16Z"/>
    <path class="cls-9" d="M892.53,223.91c-.13-.13-.2-.29-.2-.47v-.07c0-.18.07-.34.2-.47s.29-.2.47-.2h.12c.18,0,.34.07.47.2s.2.29.2.47v.07c0,.18-.07.34-.2.47s-.29.2-.47.2h-.12c-.18,0-.34-.07-.47-.2Z"/>
    <path class="cls-9" d="M901.52,217.22s-.07-.01-.12.02l-1.02.49c-.1.05-.19.07-.27.07-.15,0-.27-.05-.37-.15s-.15-.22-.15-.37c0-.23.11-.39.32-.49l1.59-.83c.09-.05.2-.08.33-.08h.25c.16,0,.29.06.4.17s.17.25.17.4v6.8h-1.09v-5.92c0-.05-.01-.09-.04-.11ZM899.82,223.93c-.1-.1-.15-.22-.15-.36s.05-.26.15-.36.22-.15.36-.15h3.62c.14,0,.26.05.36.15s.15.22.15.36-.05.26-.15.36-.22.15-.36.15h-3.62c-.14,0-.26-.05-.36-.15Z"/>
    <path class="cls-9" d="M906.78,223.07c-.55-.75-.83-1.78-.83-3.09s.28-2.34.83-3.09,1.34-1.12,2.36-1.12,1.79.37,2.35,1.11.84,1.78.84,3.11-.28,2.36-.84,3.11-1.34,1.11-2.35,1.11-1.81-.38-2.36-1.12ZM910.69,222.35c.37-.56.55-1.35.55-2.37s-.18-1.8-.55-2.36-.88-.84-1.55-.84-1.18.28-1.55.84-.55,1.35-.55,2.36.18,1.81.55,2.37.88.84,1.55.84,1.18-.28,1.55-.84Z"/>
    <path class="cls-9" d="M913.82,219.25c-.13-.13-.2-.29-.2-.47v-.07c0-.18.07-.34.2-.47s.29-.2.47-.2h.12c.18,0,.34.07.47.2s.2.29.2.47v.07c0,.18-.07.34-.2.47s-.29.2-.47.2h-.12c-.18,0-.34-.07-.47-.2ZM913.82,223.91c-.13-.13-.2-.29-.2-.47v-.07c0-.18.07-.34.2-.47s.29-.2.47-.2h.12c.18,0,.34.07.47.2s.2.29.2.47v.07c0,.18-.07.34-.2.47s-.29.2-.47.2h-.12c-.18,0-.34-.07-.47-.2Z"/>
    <path class="cls-9" d="M917.18,223.07c-.55-.75-.83-1.78-.83-3.09s.28-2.34.83-3.09,1.34-1.12,2.36-1.12,1.79.37,2.35,1.11.84,1.78.84,3.11-.28,2.36-.84,3.11-1.34,1.11-2.35,1.11-1.81-.38-2.36-1.12ZM921.09,222.35c.37-.56.55-1.35.55-2.37s-.18-1.8-.55-2.36-.88-.84-1.55-.84-1.18.28-1.55.84-.55,1.35-.55,2.36.18,1.81.55,2.37.88.84,1.55.84,1.18-.28,1.55-.84Z"/>
    <path class="cls-9" d="M924.54,223.07c-.55-.75-.83-1.78-.83-3.09s.28-2.34.83-3.09,1.34-1.12,2.36-1.12,1.79.37,2.35,1.11.84,1.78.84,3.11-.28,2.36-.84,3.11-1.34,1.11-2.35,1.11-1.81-.38-2.36-1.12ZM928.45,222.35c.37-.56.55-1.35.55-2.37s-.18-1.8-.55-2.36-.88-.84-1.55-.84-1.18.28-1.55.84-.55,1.35-.55,2.36.18,1.81.55,2.37.88.84,1.55.84,1.18-.28,1.55-.84Z"/>
    <path class="cls-9" d="M931.52,221.13c-.09-.09-.14-.21-.14-.34,0-.14.04-.26.13-.35s.21-.14.35-.14h2.21c.13,0,.25.05.35.15s.15.21.15.35c0,.14-.05.26-.14.35s-.21.13-.35.13h-2.21c-.13,0-.25-.05-.34-.14Z"/>
    <path class="cls-9" d="M938.78,217.22s-.07-.01-.12.02l-1.02.49c-.1.05-.19.07-.27.07-.15,0-.27-.05-.37-.15s-.15-.22-.15-.37c0-.23.11-.39.32-.49l1.59-.83c.09-.05.2-.08.33-.08h.25c.16,0,.29.06.4.17s.17.25.17.4v6.8h-1.09v-5.92c0-.05-.01-.09-.04-.11ZM937.08,223.93c-.1-.1-.15-.22-.15-.36s.05-.26.15-.36.22-.15.36-.15h3.62c.14,0,.26.05.36.15s.15.22.15.36-.05.26-.15.36-.22.15-.36.15h-3.62c-.14,0-.26-.05-.36-.15Z"/>
    <path class="cls-9" d="M944.61,223.86c-.45-.22-.79-.5-1.01-.84s-.33-.71-.33-1.11c0-1.09.57-1.82,1.72-2.21-.41-.15-.73-.38-.97-.68s-.36-.67-.36-1.1c0-.35.09-.68.28-1,.19-.35.49-.63.91-.84s.94-.31,1.56-.31c.65,0,1.18.11,1.58.32.39.2.68.47.88.8s.29.67.29,1.03c0,.43-.12.8-.36,1.1s-.57.53-.97.68c1.15.39,1.72,1.13,1.72,2.21,0,.39-.11.76-.32,1.1-.22.37-.57.66-1.05.87s-1.07.32-1.78.32-1.32-.11-1.79-.34ZM947.6,222.99c.28-.15.49-.33.64-.55s.22-.44.22-.66c0-.48-.19-.87-.58-1.15s-.88-.42-1.47-.42-1.08.14-1.47.42-.58.66-.58,1.15c0,.2.07.41.21.63.15.24.38.44.69.59s.69.23,1.15.23c.48,0,.88-.08,1.2-.25ZM947.65,218.87c.28-.24.42-.54.42-.9,0-.39-.15-.7-.45-.92s-.7-.33-1.22-.33-.92.11-1.22.33-.45.53-.45.92c0,.36.14.66.42.9s.7.36,1.24.36.96-.12,1.24-.36Z"/>
    <path class="cls-9" d="M951.08,219.25c-.13-.13-.2-.29-.2-.47v-.07c0-.18.07-.34.2-.47s.29-.2.47-.2h.12c.18,0,.34.07.47.2s.2.29.2.47v.07c0,.18-.07.34-.2.47s-.29.2-.47.2h-.12c-.18,0-.34-.07-.47-.2ZM951.08,223.91c-.13-.13-.2-.29-.2-.47v-.07c0-.18.07-.34.2-.47s.29-.2.47-.2h.12c.18,0,.34.07.47.2s.2.29.2.47v.07c0,.18-.07.34-.2.47s-.29.2-.47.2h-.12c-.18,0-.34-.07-.47-.2Z"/>
    <path class="cls-9" d="M954.13,223.73c-.21-.09-.32-.24-.32-.46,0-.14.04-.26.13-.36s.21-.15.35-.15c.07,0,.14.02.22.05.57.23,1.19.34,1.86.34s1.17-.11,1.56-.32.59-.54.59-.97c0-.98-.86-1.46-2.58-1.46h-.19c-.13,0-.25-.05-.35-.15s-.15-.22-.15-.35.05-.25.15-.35.22-.15.35-.15h.07c.79,0,1.39-.12,1.79-.36s.61-.59.61-1.05c0-.38-.16-.68-.48-.89s-.77-.32-1.36-.32c-.66,0-1.26.13-1.82.39-.08.03-.15.05-.21.05-.12,0-.22-.04-.31-.13s-.13-.19-.13-.32c0-.18.08-.32.25-.41.74-.4,1.52-.6,2.32-.6.9,0,1.6.18,2.09.55s.74.89.74,1.57c0,.51-.13.92-.38,1.25s-.6.56-1.05.72v-.02c.5.11.91.34,1.24.68s.49.82.49,1.42c0,.71-.28,1.27-.84,1.67s-1.29.6-2.21.6-1.71-.16-2.45-.47Z"/>
    <path class="cls-9" d="M961.81,223.07c-.55-.75-.83-1.78-.83-3.09s.28-2.34.83-3.09,1.34-1.12,2.36-1.12,1.79.37,2.35,1.11.84,1.78.84,3.11-.28,2.36-.84,3.11-1.34,1.11-2.35,1.11-1.81-.38-2.36-1.12ZM965.72,222.35c.37-.56.55-1.35.55-2.37s-.18-1.8-.55-2.36-.88-.84-1.55-.84-1.18.28-1.55.84-.55,1.35-.55,2.36.18,1.81.55,2.37.88.84,1.55.84,1.18-.28,1.55-.84Z"/>
    <path class="cls-9" d="M984.61,223.61c-.65-.38-1.16-.89-1.54-1.54s-.57-1.35-.57-2.1.19-1.46.57-2.11c.38-.64.89-1.15,1.54-1.53s1.35-.57,2.1-.57,1.46.19,2.12.56c.65.38,1.16.9,1.54,1.55s.56,1.35.56,2.1-.19,1.45-.56,2.11c-.38.64-.9,1.15-1.55,1.53s-1.35.57-2.1.57-1.46-.19-2.11-.57ZM988.51,223.06c.55-.33.99-.76,1.31-1.31s.48-1.13.48-1.78-.16-1.23-.48-1.78c-.34-.55-.78-.99-1.32-1.31s-1.14-.48-1.79-.48-1.23.16-1.78.48c-.55.34-.99.78-1.31,1.32s-.48,1.13-.48,1.78.16,1.24.49,1.78c.33.55.76.99,1.31,1.31s1.13.48,1.78.48,1.27-.16,1.8-.49ZM985.6,222.08c-.34-.2-.61-.48-.8-.85s-.29-.79-.29-1.25.1-.89.29-1.25c.2-.37.46-.65.8-.84s.73-.29,1.18-.29.85.11,1.19.32.61.52.8.92c.02.05.04.1.04.15,0,.1-.04.19-.11.27s-.17.12-.28.12c-.16,0-.28-.09-.38-.27-.29-.52-.71-.77-1.27-.77-.45,0-.81.15-1.07.46s-.39.71-.39,1.19.13.88.39,1.19.62.46,1.07.46c.55,0,.98-.26,1.27-.77.09-.18.22-.27.38-.27.11,0,.2.04.28.11s.11.16.11.28c0,.05-.01.11-.04.15-.2.4-.46.71-.8.92s-.74.32-1.19.32-.84-.1-1.18-.29Z"/>
    <path class="cls-9" d="M995.95,223.91c-.12-.11-.18-.26-.18-.45,0-.41.12-.79.36-1.14.22-.32.48-.61.8-.86s.78-.58,1.41-.98c.45-.29.83-.55,1.14-.77.66-.49.98-.98.98-1.48s-.15-.83-.46-1.07-.77-.37-1.38-.37c-.7,0-1.37.14-2,.42-.09.04-.17.06-.22.06-.12,0-.23-.04-.32-.13s-.13-.2-.13-.33c0-.2.09-.34.27-.45.8-.4,1.66-.6,2.6-.6.52,0,.97.1,1.37.29.42.2.75.49.98.85s.35.78.35,1.25-.13.91-.4,1.29c-.25.37-.55.7-.9.98s-.86.65-1.54,1.09c-.59.41-1.02.71-1.27.92s-.43.42-.53.63h4.05c.14,0,.26.05.36.15s.15.22.15.36-.05.26-.15.36-.22.15-.36.15h-4.52c-.19,0-.34-.06-.46-.17Z"/>
    <path class="cls-9" d="M1003.7,223.07c-.55-.75-.83-1.78-.83-3.09s.28-2.34.83-3.09,1.34-1.12,2.36-1.12,1.79.37,2.35,1.11.84,1.78.84,3.11-.28,2.36-.84,3.11-1.34,1.11-2.35,1.11-1.81-.38-2.36-1.12ZM1007.61,222.35c.37-.56.55-1.35.55-2.37s-.18-1.8-.55-2.36-.88-.84-1.55-.84-1.18.28-1.55.84-.55,1.35-.55,2.36.18,1.81.55,2.37.88.84,1.55.84,1.18-.28,1.55-.84Z"/>
    <path class="cls-9" d="M1010.67,223.91c-.12-.11-.18-.26-.18-.45,0-.41.12-.79.36-1.14.22-.32.48-.61.8-.86s.78-.58,1.41-.98c.45-.29.83-.55,1.14-.77.66-.49.98-.98.98-1.48s-.15-.83-.46-1.07-.77-.37-1.38-.37c-.7,0-1.37.14-2,.42-.09.04-.17.06-.22.06-.12,0-.23-.04-.32-.13s-.13-.2-.13-.33c0-.2.09-.34.27-.45.8-.4,1.66-.6,2.6-.6.52,0,.97.1,1.37.29.42.2.75.49.98.85s.35.78.35,1.25-.13.91-.4,1.29c-.25.37-.55.7-.9.98s-.86.65-1.54,1.09c-.59.41-1.02.71-1.27.92s-.43.42-.53.63h4.05c.14,0,.26.05.36.15s.15.22.15.36-.05.26-.15.36-.22.15-.36.15h-4.52c-.19,0-.34-.06-.46-.17Z"/>
    <path class="cls-9" d="M1021.8,223.98c-.11-.11-.16-.23-.16-.38v-1.58h-3.56c-.19,0-.35-.07-.49-.2s-.21-.29-.21-.48v-.11c0-.16.05-.31.14-.43l3.68-4.7c.07-.09.16-.15.26-.21s.22-.08.33-.08h.23c.2,0,.37.07.5.2s.19.3.19.49v4.54h.88c.13,0,.25.05.35.15s.15.21.15.35c0,.14-.05.26-.14.35s-.21.13-.35.13h-.88v1.58c0,.15-.05.28-.16.38s-.24.16-.39.16-.28-.05-.38-.16ZM1021.64,221.04v-3.7s0-.06-.02-.08-.03-.04-.05-.04c-.02,0-.05.02-.09.07l-2.79,3.59s-.05.06-.05.08c0,.05.04.08.13.08h2.87Z"/>
    <path class="cls-9" d="M1030.59,223.66c-.63-.36-1.12-.86-1.46-1.49s-.52-1.36-.52-2.17.18-1.56.54-2.2.85-1.14,1.48-1.49,1.32-.53,2.07-.53c.58,0,1.1.07,1.55.21s.91.35,1.37.63c.07.03.13.09.18.17s.07.17.07.26c0,.13-.05.25-.14.35s-.21.15-.36.15c-.07,0-.15-.02-.25-.06-.38-.22-.75-.38-1.11-.49s-.76-.16-1.18-.16c-.57,0-1.11.12-1.61.38-.48.26-.86.63-1.12,1.11s-.39,1.05-.39,1.69c0,.6.13,1.14.39,1.63.26.49.63.87,1.11,1.14s1.04.4,1.68.4c.72,0,1.4-.17,2.04-.52v-1.96c0-.09-.05-.14-.14-.14h-1.78c-.13,0-.25-.05-.35-.15s-.15-.21-.15-.35.05-.25.15-.35.21-.15.35-.15h2.31c.16,0,.29.06.4.17s.17.25.17.4v2.66c0,.16-.04.31-.12.44s-.19.23-.34.3c-.89.44-1.79.66-2.68.66-.81,0-1.53-.18-2.14-.54Z"/>
    <path class="cls-9" d="M1038.35,223.99c-.3-.14-.54-.35-.71-.62s-.26-.59-.26-.94c0-.61.24-1.08.71-1.41s1.14-.5,2-.5h1.41v-.08c0-.5-.12-.87-.37-1.1s-.64-.35-1.19-.35c-.28,0-.54.02-.76.06s-.49.12-.8.22l-.15.02c-.12,0-.22-.04-.31-.13s-.13-.2-.13-.32c0-.22.11-.37.32-.46.66-.28,1.33-.42,2.03-.42.54,0,1,.11,1.38.33.36.21.63.49.81.84s.27.73.27,1.15v3.32c0,.15-.05.28-.16.38s-.24.16-.39.16-.28-.05-.38-.16-.16-.23-.16-.38v-.28c-.56.59-1.29.88-2.19.88-.34,0-.65-.07-.95-.21ZM1040.68,223c.32-.16.59-.37.81-.63v-.97h-1.27c-1.17,0-1.76.3-1.76.91s.41.93,1.23.93c.34,0,.66-.08.98-.24Z"/>
    <path class="cls-9" d="M1045.57,223.82c-.49-.26-.88-.62-1.16-1.1s-.42-1.02-.42-1.64.14-1.19.43-1.66c.28-.46.66-.82,1.13-1.07s1-.38,1.58-.38c.39,0,.73.05,1.03.15s.59.24.89.42c.16.11.23.25.23.42,0,.12-.05.23-.14.33s-.2.15-.32.15c-.08,0-.16-.02-.26-.07-.27-.14-.5-.24-.68-.29s-.4-.08-.67-.08c-.66,0-1.18.19-1.56.57s-.58.89-.58,1.53.19,1.15.58,1.53.91.57,1.56.57c.27,0,.49-.03.67-.08s.41-.15.68-.29c.09-.05.18-.07.26-.07.12,0,.22.05.32.15s.14.21.14.33c0,.17-.08.31-.23.42-.3.18-.59.32-.89.42s-.64.15-1.03.15c-.55,0-1.07-.12-1.56-.38Z"/>
    <path class="cls-9" d="M1050.75,223.98c-.11-.11-.16-.23-.16-.38v-7.61c0-.15.05-.28.16-.39s.23-.16.38-.16.28.05.39.16.16.24.16.39v3.02c.32-.34.65-.61,1-.79s.73-.27,1.17-.27.81.1,1.14.3c.31.2.55.48.72.83s.25.74.25,1.17v3.33c0,.15-.05.28-.16.38s-.24.16-.39.16-.28-.05-.38-.16-.16-.23-.16-.38v-3.21c0-.95-.43-1.42-1.28-1.42-.38,0-.71.09-1.01.28s-.6.46-.9.83v3.52c0,.15-.05.28-.16.38s-.24.16-.39.16-.28-.05-.38-.16Z"/>
    <path class="cls-9" d="M1058.8,223.81c-.45-.27-.8-.64-1.05-1.11s-.38-1.02-.38-1.62.12-1.15.38-1.63.6-.84,1.06-1.1.98-.39,1.58-.39,1.12.13,1.57.39c.46.27.82.63,1.07,1.11s.38,1.01.38,1.62-.12,1.15-.38,1.62c-.26.48-.62.86-1.07,1.11s-.98.39-1.56.39-1.12-.13-1.58-.39ZM1061.31,222.98c.3-.16.55-.4.73-.72s.27-.72.27-1.19c0-.49-.09-.89-.28-1.2-.17-.3-.4-.52-.69-.68s-.6-.23-.96-.23c-.32,0-.63.07-.93.21-.3.16-.55.39-.73.71s-.27.71-.27,1.18c0,.5.09.9.28,1.21.17.3.4.54.69.69s.6.23.96.23c.32,0,.63-.07.93-.22Z"/>
    <path class="cls-9" d="M1065.02,223.98c-.11-.11-.16-.23-.16-.38v-5.03c0-.15.05-.28.16-.39s.23-.16.38-.16.28.05.39.16.16.24.16.39v.47c.54-.72,1.15-1.08,1.83-1.08h.06c.15,0,.27.05.38.16s.15.23.15.38-.05.27-.16.37-.24.15-.39.15h-.06c-.37,0-.71.09-1.01.26s-.57.43-.79.76v3.56c0,.15-.05.28-.16.38s-.24.16-.39.16-.28-.05-.38-.16Z"/>
    <path class="cls-9" d="M1069.93,223.99c-.3-.14-.54-.35-.71-.62s-.26-.59-.26-.94c0-.61.24-1.08.71-1.41s1.14-.5,2-.5h1.41v-.08c0-.5-.12-.87-.37-1.1s-.64-.35-1.19-.35c-.28,0-.54.02-.76.06s-.49.12-.8.22l-.15.02c-.12,0-.22-.04-.31-.13s-.13-.2-.13-.32c0-.22.11-.37.32-.46.66-.28,1.33-.42,2.03-.42.54,0,1,.11,1.38.33.36.21.63.49.81.84s.27.73.27,1.15v3.32c0,.15-.05.28-.16.38s-.24.16-.39.16-.28-.05-.38-.16-.16-.23-.16-.38v-.28c-.56.59-1.29.88-2.19.88-.34,0-.65-.07-.95-.21ZM1072.26,223c.32-.16.59-.37.81-.63v-.97h-1.27c-1.17,0-1.76.3-1.76.91s.41.93,1.23.93c.34,0,.66-.08.98-.24Z"/>
    <path class="cls-9" d="M1080.64,224.66v-5.5c-.48.97-.84,1.45-1.05,1.45-.27,0-.41-.18-.41-.54,0-.14.12-.41.38-.82.74-1.25,1.35-2.64,1.83-4.16.07-.2.14-.35.22-.45s.18-.14.32-.14c.36,0,.54.15.54.46,0,.18-.2.73-.61,1.64l-.28.64v7.32c0,.42-.15.63-.46.63s-.47-.18-.47-.55ZM1085.46,224.68v-3.21c-.47.78-1.03,1.45-1.68,1.99-.7.59-1.18.88-1.45.88s-.42-.17-.42-.5c0-.21.16-.39.47-.54.54-.26,1.09-.65,1.64-1.18.55-.52.96-1.01,1.23-1.46h-2.53c-.36,0-.54-.14-.54-.43s.18-.43.54-.43h2.74v-1.31h.9v1.31h2.91c.36,0,.54.14.54.43s-.18.43-.54.43h-2.71c.69,1.1,1.59,1.94,2.7,2.51.42.21.63.41.63.61,0,.35-.16.53-.47.53-.36,0-.85-.3-1.48-.89-.64-.61-1.17-1.26-1.58-1.96v3.23c0,.36-.15.54-.46.54s-.45-.18-.45-.54ZM1083.13,218.42c-.16-.16-.23-.4-.21-.73v-1.73c0-.34.08-.59.23-.75s.39-.23.72-.21h4.18c.36,0,.62.08.77.23s.22.4.2.74v1.71c0,.35-.08.61-.23.76s-.4.23-.74.21h-4.18c-.34,0-.58-.08-.74-.23ZM1088.08,217.39v-1.12c0-.26-.14-.39-.41-.41h-3.46c-.26,0-.39.13-.39.4v1.15c0,.25.13.38.39.4h3.46c.26,0,.39-.14.41-.41Z"/>
    <path class="cls-9" d="M1091.18,219.29c0-.3.26-.5.79-.6l-.11-2.74c0-.16.03-.3.12-.42s.21-.21.38-.27l1.95-.43.83-.25c.12-.04.24-.06.34-.06.32,0,.48.16.48.49,0,.15-.05.25-.14.32-.06.05-.46.16-1.18.34-1.01.19-1.56.31-1.66.38-.09.05-.14.19-.15.4l.07,2.04,2.04-.56-.48-.74c-.1-.16-.15-.28-.15-.35,0-.25.14-.38.41-.38.09,0,.2.07.34.22s.32.38.54.69c.42.61.63,1.01.63,1.2,0,.3-.15.45-.46.45-.19,0-.35-.14-.49-.42l-3.2,1.12c-.14.05-.29.08-.45.08-.29,0-.43-.17-.43-.5ZM1092.33,224.57c-.18-.17-.26-.45-.23-.83v-2.59c0-.39.09-.68.26-.86s.45-.26.83-.23h6.69c.39,0,.68.09.86.26s.26.45.23.83v2.59c0,.4-.09.69-.26.87s-.45.25-.83.22h-6.69c-.39,0-.68-.09-.86-.26ZM1096.01,222.04v-1.16h-2.5c-.28,0-.43.15-.45.45v.71h2.94ZM1096.01,224.01v-1.2h-2.94v.76c0,.27.15.42.45.43h2.5ZM1095.84,219.38c0-.2.12-.36.35-.47.67-.32,1.14-.79,1.41-1.39.13-.31.22-.86.26-1.63h-1.1c-.36,0-.54-.15-.54-.45s.18-.43.54-.43h3.82c.67,0,1.01.27,1.01.81l-.07,1.01c-.05.6-.11,1.1-.18,1.49s-.15.66-.23.8c-.27.45-.85.67-1.76.67-.38,0-.57-.18-.57-.55,0-.31.18-.47.55-.48.52-.02.84-.11.95-.29.13-.21.24-.86.32-1.93l.02-.32c0-.22-.12-.33-.39-.33h-1.42c-.07,1.74-.67,2.97-1.8,3.69-.29.18-.53.27-.71.27-.3,0-.45-.16-.45-.47ZM1099.99,222.04v-.71c0-.28-.14-.43-.43-.45h-2.62v1.16h3.06ZM1099.99,223.58v-.76h-3.06v1.2h2.62c.29,0,.43-.14.43-.43Z"/>
    <path class="cls-9" d="M1103.2,224.48c0-.1.06-.28.18-.54.35-.74.53-2.33.53-4.76v-.8c-.02-.36.06-.63.22-.82s.4-.28.72-.28h2.34c.34,0,.6.08.76.23s.23.4.21.73v1.93c0,.34-.08.59-.23.74s-.4.22-.73.19h-2.34c-.03.98-.18,1.89-.43,2.73-.22.72-.46,1.08-.74,1.08-.31,0-.47-.15-.47-.45ZM1103.42,215.5c0-.3.16-.46.47-.46h4.11c.31,0,.47.16.47.47s-.16.46-.47.46h-4.11c-.31,0-.47-.16-.47-.47ZM1107.21,219.85v-1.3c0-.25-.13-.38-.4-.4h-1.55c-.27,0-.41.16-.41.47v1.63h1.96c.25,0,.38-.13.4-.4ZM1111.67,224.59v-5.32h-1.91c-.05,1.5-.19,2.57-.42,3.22-.23.63-.59,1.21-1.05,1.72-.47.51-.83.76-1.08.76-.34,0-.5-.18-.5-.55,0-.15.13-.32.4-.52.88-.66,1.42-1.58,1.61-2.78.11-.67.16-1.53.16-2.58v-1.38c0-.88.06-1.4.19-1.55.07-.08.18-.14.32-.2s.35-.11.6-.15c1.35-.25,2.19-.44,2.52-.56.16-.06.3-.09.43-.09.35,0,.53.18.53.53,0,.22-.16.37-.47.46-.73.21-1.58.38-2.54.49-.2.02-.35.08-.45.16s-.17.18-.18.3l-.04,1.79h3.69c.27,0,.4.16.4.47s-.13.46-.4.46h-.84v5.32c0,.38-.16.57-.48.57s-.48-.19-.48-.57Z"/>
    <path class="cls-9" d="M1117.58,224.57v-5.16h-.04c-.93,1.24-1.56,1.86-1.89,1.86-.3,0-.46-.17-.46-.52,0-.17.11-.36.33-.55,1.2-1.06,2.09-2.3,2.66-3.7l.23-.59.23-.86c.09-.36.27-.54.53-.54.37,0,.55.15.55.46,0,.13-.02.27-.07.4s-.14.35-.28.66l-.86,1.83h4.77c.41,0,.71.09.9.27s.27.47.25.88v4.88c.06.88-.34,1.29-1.22,1.24h-1.02c-.37,0-.55-.16-.55-.49s.18-.5.55-.5h.74c.18,0,.32-.05.41-.15s.14-.24.14-.44v-.84h-4.96v1.86c0,.38-.16.57-.48.57s-.48-.19-.48-.57ZM1115.35,216.2c0-.3.19-.45.56-.45h2.73l-.35.9h-2.38c-.38,0-.56-.15-.56-.46ZM1123.5,219.85v-.6c0-.16-.04-.28-.13-.37s-.21-.13-.38-.13h-4.16c-.2,0-.29.1-.29.3v.8h4.96ZM1123.5,221.84v-1.12h-4.96v1.12h4.96ZM1119.33,215.76h5.96c.38,0,.56.15.56.46s-.19.45-.56.45h-6.34l.38-.9Z"/>
    <path class="cls-9" d="M1127.18,221.97c0-.15.05-.31.15-.48.33-.55.61-1.16.84-1.8s.44-1.38.63-2.2l.2,1.34c-.08.52-.21,1.05-.38,1.61s-.36,1.03-.56,1.4-.35.56-.47.56c-.27,0-.41-.13-.41-.42ZM1127.23,217.34c0-.27.16-.41.47-.41h1.3v.86h-1.3c-.31,0-.47-.15-.47-.45ZM1128.8,224.74v-9.75c0-.33.14-.49.43-.49.16,0,.27.04.34.12s.11.2.11.38v9.75c0,.17-.04.3-.11.38s-.18.12-.34.12c-.29,0-.43-.16-.43-.49ZM1129.48,216.93h.82c.27,0,.4.14.4.42s-.13.43-.4.43h-.82v-.86ZM1130.1,220.22l-.52-1.02c.04-.08.09-.14.15-.18s.13-.06.2-.06c.09,0,.27.2.53.6s.39.66.39.79c0,.21-.12.32-.36.32-.11,0-.24-.14-.39-.43ZM1131.27,223.94v-2.55c-.48.52-.8.79-.98.79-.13,0-.23-.04-.29-.11s-.09-.18-.09-.33c0-.13.09-.28.28-.45.65-.55,1.18-1.12,1.61-1.71.12-.17.27-.26.42-.26.29,0,.43.11.43.32,0,.12-.09.3-.28.52h1.72l.07-.2c.07-.21.16-.37.27-.47s.23-.16.35-.16c.28,0,.42.11.42.33,0,.05-.02.11-.06.19s-.1.19-.18.31h2.47c.25,0,.38.12.38.35s-.12.35-.38.35h-2.41v.63h2.05c.25,0,.38.11.38.34s-.12.33-.38.33h-2.05v.62h2.05c.25,0,.38.11.38.33s-.12.34-.38.34h-2.05v.7h2.5c.26,0,.39.12.39.35s-.13.35-.39.35h-5.32c-.62,0-.93-.3-.93-.91ZM1130.39,215.75c0-.25.14-.38.41-.38h1.77v.75h-1.77c-.27,0-.41-.12-.41-.38ZM1130.86,218.49v-.63c0-.53.27-.8.8-.8h1.44c.54,0,.81.27.81.8v.61c0,.53-.27.8-.81.8h-1.44c-.53,0-.8-.26-.8-.77ZM1133.1,218.34v-.36c0-.15-.07-.23-.22-.23h-.98c-.14,0-.22.08-.23.23v.36c0,.15.08.23.23.25h.98c.15,0,.22-.08.22-.25ZM1134.13,221.49v-.63h-1.73c-.14,0-.21.07-.21.21v.42h1.95ZM1134.13,222.78v-.62h-1.95v.62h1.95ZM1134.13,224.15v-.7h-1.95v.39c0,.2.1.31.3.32h1.64ZM1132.36,216.44v-1.44c0-.3.14-.45.43-.45s.42.15.42.45v1.44c0,.3-.14.45-.43.45s-.42-.15-.42-.45ZM1133,215.37h2.1v.75h-2.1v-.75ZM1134.32,218.47v-.61c0-.53.27-.8.8-.8h1.61c.52,0,.79.27.79.8v.61c0,.52-.26.79-.79.79h-1.61c-.53,0-.8-.26-.8-.79ZM1134.89,216.44v-1.44c0-.3.14-.45.43-.45s.43.15.43.45v1.44c0,.3-.14.45-.43.45s-.43-.15-.43-.45ZM1136.68,218.33v-.35c0-.14-.08-.22-.25-.23h-1.09c-.14,0-.22.08-.23.23v.35c0,.16.08.25.23.25h1.09c.16,0,.24-.08.25-.25ZM1135.56,215.37h1.86c.28,0,.42.12.42.38s-.14.38-.42.38h-1.86v-.75Z"/>
    <path class="cls-9" d="M1141.76,224.69v-4.48c-.3.78-.68,1.5-1.14,2.16-.47.69-.79,1.03-.97,1.03-.31,0-.47-.18-.47-.54,0-.16.12-.36.35-.62.94-1.05,1.66-2.27,2.16-3.63h-1.83c-.38,0-.57-.16-.57-.47s.19-.47.57-.47h1.9v-1.66l-1.79.18c-.16.02-.29-.02-.37-.11s-.12-.21-.12-.38c0-.15.05-.26.16-.33.09-.06.34-.11.76-.13,1.09-.05,2.18-.24,3.27-.55l.26-.05c.35,0,.53.17.53.5,0,.16-.09.28-.28.38-.17.08-.66.19-1.46.34v1.8h1.48c.38,0,.56.16.56.47s-.19.47-.56.47h-1.48v1.35c.08-.1.19-.15.34-.15.05,0,.17.08.34.23s.37.37.59.64c.51.63.76,1.02.76,1.16,0,.3-.15.46-.46.46-.17,0-.36-.17-.55-.5-.09-.17-.36-.54-.81-1.11l-.21-.29v4.31c0,.35-.16.53-.47.53s-.48-.18-.48-.53ZM1145.48,222.1v-5.88c0-.37.16-.55.48-.55s.48.18.48.55v5.88c0,.36-.16.54-.48.54s-.48-.18-.48-.54ZM1146.53,224.63c0-.34.2-.5.59-.5h.61c.19,0,.33-.05.43-.16s.15-.26.15-.45v-8.27c0-.36.16-.54.47-.54s.48.18.48.54v8.53c0,.48-.11.84-.33,1.06s-.56.32-1.03.3h-.79c-.39,0-.59-.17-.59-.5Z"/>
    <path class="cls-9" d="M1155.22,221.17c-.35-.36-.53-.8-.53-1.31s.18-.94.54-1.29c.38-.36.82-.54,1.34-.54s.91.18,1.27.55c.36.37.54.8.54,1.29,0,.52-.18.96-.55,1.31-.36.35-.79.53-1.29.53s-.96-.18-1.31-.54ZM1157.31,220.58c.2-.21.29-.45.29-.71,0-.29-.11-.54-.32-.74-.23-.21-.48-.32-.77-.32-.3,0-.56.12-.76.35-.19.21-.28.45-.28.71,0,.32.11.57.32.76.23.2.48.3.75.3.29,0,.55-.12.77-.36Z"/>
  </g>
  <g>
    <rect class="cls-9" x="251.34" y="151.05" width="635.82" height="33.63" rx="16.81" ry="16.81"/>
    <g>
      <path class="cls-6" d="M313.15,162.63l-.53-3.66-.02-.23c0-.88.46-1.33,1.38-1.33.38,0,.73.15,1.03.45.27.28.38.57.35.85l-.05.25-.53,3.66c-.08.55-.35.83-.8.83s-.74-.28-.83-.83ZM317.81,162.63l-.55-3.66-.02-.25c0-.87.46-1.3,1.38-1.3s1.38.45,1.38,1.35l-.02.2-.53,3.66c-.08.55-.36.83-.83.83s-.72-.28-.8-.83Z"/>
      <path class="cls-6" d="M327.12,176.17c-1.35-.73-2.41-1.79-3.17-3.15-.76-1.37-1.14-2.95-1.14-4.76s.38-3.41,1.15-4.78c.75-1.35,1.79-2.39,3.12-3.13s2.83-1.1,4.52-1.1c1.1,0,2.09.12,2.98.38.88.25,1.79.64,2.73,1.18.38.18.58.51.58.98,0,.25-.1.48-.29.68s-.44.3-.74.3c-.18,0-.33-.03-.45-.1-.77-.4-1.5-.7-2.2-.89-.7-.19-1.49-.29-2.38-.29-1.44,0-2.65.29-3.63.88s-1.74,1.38-2.27,2.39c-.53,1.01-.79,2.18-.79,3.52s.26,2.5.78,3.48c.52,1.05,1.29,1.86,2.3,2.44,1.02.58,2.22.86,3.6.86.88,0,1.68-.1,2.38-.29.7-.19,1.44-.49,2.2-.89.12-.07.27-.1.45-.1.3,0,.55.1.74.29.19.19.29.42.29.69,0,.45-.19.78-.58.98-.94.53-1.84.93-2.73,1.18-.88.25-1.88.38-2.98.38-1.67,0-3.16-.37-4.48-1.1Z"/>
      <path class="cls-6" d="M342.06,176.82c-.65-.3-1.16-.74-1.53-1.33-.37-.58-.55-1.25-.55-2,0-1.3.5-2.31,1.51-3.02,1.01-.71,2.43-1.06,4.27-1.06h3v-.18c0-1.07-.26-1.85-.79-2.34-.53-.49-1.37-.74-2.54-.74-.6,0-1.14.05-1.63.14s-1.05.25-1.7.46l-.33.05c-.25,0-.47-.1-.66-.29-.19-.19-.29-.42-.29-.69,0-.47.23-.79.68-.98,1.4-.6,2.85-.9,4.33-.9,1.15,0,2.14.23,2.95.7.77.45,1.34,1.05,1.73,1.79.38.74.58,1.56.58,2.47v7.08c0,.32-.12.59-.35.81-.23.22-.51.34-.83.34s-.59-.11-.81-.34c-.23-.23-.34-.5-.34-.81v-.6c-1.2,1.25-2.76,1.88-4.68,1.88-.72,0-1.39-.15-2.03-.45ZM347.03,174.71c.68-.34,1.26-.79,1.74-1.34v-2.08h-2.7c-2.5,0-3.76.65-3.76,1.95s.88,1.98,2.63,1.98c.72,0,1.41-.17,2.09-.51Z"/>
      <path class="cls-6" d="M355.22,182.55c-.23-.23-.34-.51-.34-.83v-16.5c0-.32.11-.59.34-.81.23-.23.5-.34.81-.34s.59.11.83.34c.23.22.35.5.35.81v.6c1.2-1.25,2.62-1.88,4.26-1.88,1.08,0,2.07.26,2.95.78.97.53,1.73,1.32,2.29,2.35.56,1.03.84,2.21.84,3.53s-.28,2.54-.85,3.53c-.57,1-1.31,1.77-2.24,2.32s-1.92.81-2.99.81c-1.64,0-3.05-.63-4.26-1.88v6.33c0,.33-.11.61-.34.84-.23.22-.5.34-.84.34s-.59-.12-.81-.35ZM364.13,173.91c.73-.79,1.09-1.89,1.09-3.29s-.36-2.5-1.09-3.29c-.73-.79-1.72-1.19-2.99-1.19-.73,0-1.44.17-2.12.5-.68.33-1.28.79-1.81,1.35v5.26c.53.57,1.14,1.02,1.81,1.35s1.38.5,2.12.5c1.27,0,2.27-.4,2.99-1.19Z"/>
      <path class="cls-6" d="M370.25,176.15c-.28-.2-.43-.48-.43-.85,0-.27.1-.5.29-.71.19-.21.43-.31.71-.31.17,0,.32.03.45.1.57.25,1.12.44,1.65.56s1.12.19,1.75.19c1.84,0,2.75-.58,2.75-1.75,0-.37-.2-.65-.6-.85-.42-.2-1.12-.42-2.1-.68-.97-.22-1.78-.46-2.43-.73-.72-.27-1.29-.67-1.73-1.2-.43-.53-.65-1.19-.65-1.98,0-1.18.43-2.14,1.3-2.88.87-.73,2.07-1.1,3.6-1.1,1.33,0,2.54.21,3.63.63.23.07.42.19.55.38.13.18.2.38.2.6,0,.27-.1.5-.3.71-.2.21-.44.31-.73.31l-.33-.05c-1-.3-1.95-.45-2.85-.45s-1.56.16-2.08.48c-.52.32-.78.74-.78,1.25,0,.48.23.84.68,1.08.48.22,1.21.44,2.18.68.9.23,1.7.48,2.4.73.68.27,1.23.67,1.65,1.21.42.54.63,1.22.63,2.04,0,1.09-.43,1.98-1.3,2.68-.87.7-2.05,1.05-3.55,1.05-1.65,0-3.18-.38-4.58-1.13Z"/>
      <path class="cls-6" d="M384.67,176.62c-.67-.43-1.19-1.03-1.55-1.78-.37-.75-.55-1.58-.55-2.5v-7.11c0-.32.12-.59.35-.81.23-.23.51-.34.83-.34s.59.11.81.34c.23.22.34.5.34.81v6.86c0,2.02.91,3.03,2.73,3.03.8,0,1.52-.2,2.17-.6.64-.4,1.28-.99,1.92-1.78v-7.51c0-.32.12-.59.35-.81.23-.23.51-.34.83-.34s.59.11.81.34c.23.22.34.5.34.81v10.74c0,.32-.11.59-.34.83s-.5.35-.81.35-.59-.12-.83-.35c-.23-.23-.35-.51-.35-.83v-.95c-.68.73-1.39,1.29-2.13,1.68s-1.57.58-2.5.58-1.7-.22-2.4-.65Z"/>
      <path class="cls-6" d="M398.28,176.81c-.23-.23-.34-.5-.34-.81v-16.25c0-.32.11-.59.34-.83.23-.23.5-.35.81-.35.33,0,.61.11.84.34s.34.5.34.84v16.25c0,.32-.12.59-.35.81-.23.22-.51.34-.83.34s-.59-.11-.81-.34Z"/>
      <path class="cls-6" d="M405.11,175.52c-1.14-1.17-1.71-2.8-1.71-4.91,0-1.13.22-2.23.65-3.28.45-1.05,1.13-1.88,2.05-2.48.92-.6,2.02-.9,3.3-.9s2.31.28,3.23.85c.87.57,1.54,1.33,2.03,2.29.48.96.73,2.02.73,3.19,0,.32-.11.59-.33.81s-.5.34-.85.34h-8.46c.15,1.19.6,2.09,1.34,2.72.74.63,1.75.94,3.02.94.67,0,1.26-.06,1.79-.19.53-.12,1.06-.32,1.59-.59.12-.07.27-.1.45-.1.27,0,.5.1.71.29.21.19.31.43.31.71,0,.38-.23.7-.68.95-.7.38-1.37.66-2,.84-.63.17-1.43.26-2.38.26-2.05,0-3.65-.58-4.79-1.75ZM413.06,169.21c-.07-.67-.27-1.23-.6-1.68-.37-.53-.82-.93-1.36-1.2-.54-.27-1.11-.4-1.69-.4-.53,0-1.09.13-1.68.38-.58.28-1.05.71-1.39,1.26-.34.56-.54,1.21-.59,1.96h7.01c.22,0,.32-.11.3-.33Z"/>
      <path class="cls-6" d="M424.61,166.07c-.18-.17-.26-.42-.26-.74s.09-.56.26-.74.42-.26.74-.26h6.38c.28,0,.52.1.71.29s.29.43.29.71c0,.27-.1.5-.29.7-.19.2-.43.3-.71.3h-6.38c-.32,0-.56-.09-.74-.26ZM426.6,173.94v-11.39c0-.38.1-.68.31-.88.21-.2.5-.3.86-.3s.65.1.85.31c.2.21.3.5.3.86v11.19c0,.58.13.98.4,1.18s.67.3,1.2.3c.35,0,.68-.05,1-.15.03,0,.06,0,.08-.03.17-.03.31-.05.43-.05.25,0,.47.09.65.28.18.18.28.4.28.65,0,.38-.2.68-.6.9-.65.3-1.34.45-2.08.45-2.45,0-3.68-1.11-3.68-3.33Z"/>
      <path class="cls-6" d="M437.52,176.45c-.97-.57-1.72-1.36-2.25-2.38s-.8-2.17-.8-3.46.27-2.46.8-3.48c.53-1.02,1.29-1.8,2.27-2.35.98-.55,2.1-.83,3.37-.83s2.39.28,3.35.83c.98.57,1.74,1.36,2.28,2.37.53,1.01.8,2.17.8,3.47s-.27,2.45-.8,3.46c-.55,1.04-1.31,1.83-2.29,2.38-.98.55-2.09.83-3.34.83s-2.4-.28-3.38-.83ZM442.88,174.67c.65-.33,1.17-.85,1.55-1.54.38-.69.58-1.54.58-2.54,0-1.05-.2-1.9-.6-2.55-.37-.63-.86-1.12-1.46-1.45s-1.29-.5-2.04-.5c-.68,0-1.34.15-1.98.45-.65.33-1.17.84-1.55,1.53-.38.68-.58,1.53-.58,2.53,0,1.07.2,1.93.6,2.58.37.65.85,1.14,1.46,1.48.61.33,1.29.5,2.04.5.68,0,1.34-.16,1.98-.48Z"/>
      <path class="cls-6" d="M452.46,182.57c-.22-.23-.33-.49-.33-.79,0-.13.02-.27.08-.4l1.63-4.18-4.71-11.47c-.07-.17-.1-.33-.1-.48,0-.32.11-.59.34-.83.23-.23.5-.35.81-.35.23,0,.45.07.65.2s.34.31.43.53l3.83,9.49,3.91-9.44c.23-.52.59-.78,1.08-.78.32,0,.59.12.81.35.23.23.34.51.34.83,0,.15-.02.29-.08.43l-6.83,16.42c-.23.53-.59.8-1.08.8-.3,0-.56-.11-.78-.34Z"/>
      <path class="cls-6" d="M463.38,176.15c-.28-.2-.43-.48-.43-.85,0-.27.1-.5.29-.71.19-.21.43-.31.71-.31.17,0,.32.03.45.1.57.25,1.12.44,1.65.56s1.12.19,1.75.19c1.84,0,2.75-.58,2.75-1.75,0-.37-.2-.65-.6-.85-.42-.2-1.12-.42-2.1-.68-.97-.22-1.78-.46-2.43-.73-.72-.27-1.29-.67-1.73-1.2-.43-.53-.65-1.19-.65-1.98,0-1.18.43-2.14,1.3-2.88.87-.73,2.07-1.1,3.6-1.1,1.33,0,2.54.21,3.63.63.23.07.42.19.55.38.13.18.2.38.2.6,0,.27-.1.5-.3.71-.2.21-.44.31-.73.31l-.33-.05c-1-.3-1.95-.45-2.85-.45s-1.56.16-2.08.48c-.52.32-.78.74-.78,1.25,0,.48.23.84.68,1.08.48.22,1.21.44,2.18.68.9.23,1.7.48,2.4.73.68.27,1.23.67,1.65,1.21.42.54.63,1.22.63,2.04,0,1.09-.43,1.98-1.3,2.68-.87.7-2.05,1.05-3.55,1.05-1.65,0-3.18-.38-4.58-1.13Z"/>
      <path class="cls-6" d="M485.61,176.45c-.97-.57-1.72-1.36-2.25-2.38s-.8-2.17-.8-3.46.27-2.46.8-3.48c.53-1.02,1.29-1.8,2.27-2.35.98-.55,2.1-.83,3.37-.83s2.39.28,3.35.83c.98.57,1.74,1.36,2.28,2.37.53,1.01.8,2.17.8,3.47s-.27,2.45-.8,3.46c-.55,1.04-1.31,1.83-2.29,2.38-.98.55-2.09.83-3.34.83s-2.4-.28-3.38-.83ZM490.97,174.67c.65-.33,1.17-.85,1.55-1.54.38-.69.58-1.54.58-2.54,0-1.05-.2-1.9-.6-2.55-.37-.63-.86-1.12-1.46-1.45s-1.29-.5-2.04-.5c-.68,0-1.34.15-1.98.45-.65.33-1.17.84-1.55,1.53-.38.68-.58,1.53-.58,2.53,0,1.07.2,1.93.6,2.58.37.65.85,1.14,1.46,1.48.61.33,1.29.5,2.04.5.68,0,1.34-.16,1.98-.48Z"/>
      <path class="cls-6" d="M499.72,176.81c-.23-.23-.34-.5-.34-.81v-9.79h-1.45c-.27,0-.5-.1-.7-.3s-.3-.43-.3-.7c0-.28.1-.52.3-.71.2-.19.43-.29.7-.29h1.45v-1.43c0-1.02.18-1.84.55-2.48.33-.62.79-1.08,1.36-1.39.58-.31,1.2-.46,1.87-.46.75,0,1.48.17,2.18.5.4.23.6.53.6.9,0,.25-.1.48-.29.68s-.41.3-.66.3c-.18,0-.38-.03-.58-.08l-.68-.08c-.73,0-1.26.17-1.56.5-.31.33-.46.89-.46,1.68v1.35h3.1c.28,0,.52.1.71.29.19.19.29.43.29.71,0,.27-.1.5-.29.7-.19.2-.43.3-.71.3h-3.1v9.79c0,.32-.12.59-.35.81-.23.22-.51.34-.83.34s-.59-.11-.81-.34Z"/>
      <path class="cls-6" d="M519.79,176.85c-.26-.2-.46-.48-.59-.85l-4.91-15.07c-.05-.2-.08-.36-.08-.48,0-.3.11-.55.33-.76.22-.21.48-.31.8-.31.27,0,.5.08.71.25.21.17.35.39.44.68l4.01,13.14c.05.13.11.2.18.2s.12-.07.18-.2l4.03-13.09c.08-.3.25-.54.5-.71.25-.17.53-.26.83-.26s.58.09.83.26c.25.18.42.41.5.71l4.03,13.09c.05.13.11.2.18.2s.12-.07.18-.2l4.01-13.14c.08-.28.23-.51.44-.68.21-.17.45-.25.71-.25.32,0,.58.1.8.31.22.21.33.46.33.76,0,.12-.02.28-.07.48l-4.91,15.07c-.13.37-.33.65-.59.85-.26.2-.56.3-.91.3s-.66-.11-.94-.33c-.28-.22-.46-.49-.56-.83l-3.83-12.12c-.05-.13-.11-.2-.18-.2s-.12.07-.18.2l-3.83,12.12c-.1.33-.29.61-.56.83-.28.22-.59.33-.94.33s-.66-.1-.91-.3Z"/>
      <path class="cls-6" d="M541.96,176.45c-.97-.57-1.72-1.36-2.25-2.38s-.8-2.17-.8-3.46.27-2.46.8-3.48c.53-1.02,1.29-1.8,2.27-2.35.98-.55,2.1-.83,3.37-.83s2.39.28,3.35.83c.98.57,1.74,1.36,2.28,2.37.53,1.01.8,2.17.8,3.47s-.27,2.45-.8,3.46c-.55,1.04-1.31,1.83-2.29,2.38-.98.55-2.09.83-3.34.83s-2.4-.28-3.38-.83ZM547.32,174.67c.65-.33,1.17-.85,1.55-1.54.38-.69.58-1.54.58-2.54,0-1.05-.2-1.9-.6-2.55-.37-.63-.86-1.12-1.46-1.45s-1.29-.5-2.04-.5c-.68,0-1.34.15-1.98.45-.65.33-1.17.84-1.55,1.53-.38.68-.58,1.53-.58,2.53,0,1.07.2,1.93.6,2.58.37.65.85,1.14,1.46,1.48.61.33,1.29.5,2.04.5.68,0,1.34-.16,1.98-.48Z"/>
      <path class="cls-6" d="M555.24,176.81c-.23-.23-.34-.5-.34-.81v-10.74c0-.32.11-.59.34-.83.23-.23.5-.35.81-.35s.59.12.83.35c.23.23.35.51.35.83v.95c.68-.73,1.39-1.29,2.13-1.68s1.57-.58,2.5-.58,1.73.22,2.43.65c.67.43,1.18,1.03,1.54,1.78s.54,1.59.54,2.5v7.11c0,.32-.12.59-.35.81-.23.22-.51.34-.83.34s-.59-.11-.81-.34c-.23-.23-.34-.5-.34-.81v-6.86c0-2.02-.91-3.03-2.73-3.03-.8,0-1.52.2-2.17.6s-1.28.99-1.92,1.78v7.51c0,.32-.12.59-.35.81-.23.22-.51.34-.83.34s-.59-.11-.81-.34Z"/>
      <path class="cls-6" d="M572.53,176.47c-.97-.53-1.74-1.31-2.3-2.34-.57-1.03-.85-2.2-.85-3.52s.29-2.54.88-3.55c.57-1,1.31-1.77,2.23-2.3.92-.53,1.91-.8,2.98-.8,1.64,0,3.05.63,4.26,1.88v-6.08c0-.33.12-.61.35-.84.23-.23.51-.34.83-.34s.59.12.81.35c.23.23.34.51.34.83v16.25c0,.32-.11.59-.34.81-.23.22-.5.34-.81.34s-.59-.11-.83-.34c-.23-.23-.35-.5-.35-.81v-.6c-1.2,1.25-2.62,1.88-4.26,1.88-1.02,0-1.99-.27-2.93-.8ZM577.9,174.59c.68-.33,1.28-.78,1.81-1.35v-5.26c-.53-.57-1.14-1.02-1.81-1.35-.68-.33-1.38-.5-2.12-.5-1.27,0-2.27.4-2.99,1.19-.73.79-1.09,1.89-1.09,3.29s.36,2.5,1.09,3.29c.73.79,1.72,1.19,2.99,1.19.73,0,1.44-.17,2.12-.5Z"/>
      <path class="cls-6" d="M586.88,175.52c-1.14-1.17-1.71-2.8-1.71-4.91,0-1.13.22-2.23.65-3.28.45-1.05,1.13-1.88,2.05-2.48.92-.6,2.02-.9,3.3-.9s2.31.28,3.23.85c.87.57,1.54,1.33,2.03,2.29.48.96.73,2.02.73,3.19,0,.32-.11.59-.33.81s-.5.34-.85.34h-8.46c.15,1.19.6,2.09,1.34,2.72.74.63,1.75.94,3.02.94.67,0,1.26-.06,1.79-.19.53-.12,1.06-.32,1.59-.59.12-.07.27-.1.45-.1.27,0,.5.1.71.29.21.19.31.43.31.71,0,.38-.23.7-.68.95-.7.38-1.37.66-2,.84-.63.17-1.43.26-2.38.26-2.05,0-3.65-.58-4.79-1.75ZM594.83,169.21c-.07-.67-.27-1.23-.6-1.68-.37-.53-.82-.93-1.36-1.2-.54-.27-1.11-.4-1.69-.4-.53,0-1.09.13-1.68.38-.58.28-1.05.71-1.39,1.26-.34.56-.54,1.21-.59,1.96h7.01c.22,0,.32-.11.3-.33Z"/>
      <path class="cls-6" d="M600.45,176.81c-.23-.23-.34-.5-.34-.81v-10.74c0-.32.11-.59.34-.83.23-.23.5-.35.81-.35s.59.12.83.35c.23.23.35.51.35.83v1c1.15-1.54,2.45-2.3,3.91-2.3h.12c.32,0,.58.11.8.34.22.23.33.5.33.81s-.11.58-.34.79c-.23.21-.5.31-.84.31h-.12c-.78,0-1.51.19-2.17.56-.66.38-1.22.91-1.69,1.62v7.61c0,.32-.12.59-.35.81-.23.22-.51.34-.83.34s-.59-.11-.81-.34Z"/>
      <path class="cls-6" d="M608.78,180.56c-.15-.16-.23-.34-.23-.54,0-.27.12-.48.38-.65.45-.27.78-.57.98-.9s.3-.79.3-1.38h-.07c-.38,0-.72-.14-1-.43-.28-.28-.43-.62-.43-1v-.15c0-.38.14-.72.43-1,.28-.28.62-.43,1-.43h.25c.37,0,.68.14.94.41s.42.61.49,1.01c.03.17.05.42.05.75,0,.32-.02.56-.05.73-.13.9-.35,1.64-.65,2.23-.3.58-.77,1.07-1.4,1.45-.13.08-.28.12-.45.12-.2,0-.38-.08-.53-.24Z"/>
      <path class="cls-6" d="M623.76,176.81c-.23-.23-.34-.5-.34-.81v-14.95c0-.45.16-.84.49-1.18.33-.33.71-.5,1.16-.5h.83c.32,0,.62.1.9.29.28.19.5.46.65.79l5.46,13.62c.05.12.12.17.2.17s.15-.06.2-.17l5.46-13.62c.15-.33.37-.6.65-.79.28-.19.58-.29.9-.29h.83c.45,0,.84.17,1.16.5.33.33.49.73.49,1.18v14.95c0,.32-.11.59-.34.81-.23.22-.5.34-.81.34s-.59-.11-.83-.34c-.23-.23-.35-.5-.35-.81v-13.22c0-.15-.05-.22-.15-.22-.07,0-.13.05-.18.15l-5.41,13.37c-.13.32-.35.58-.65.78-.3.2-.63.3-.98.3s-.68-.1-.98-.3c-.3-.2-.52-.46-.65-.78l-5.41-13.37c-.05-.1-.11-.15-.17-.15-.1,0-.15.08-.15.22v13.22c0,.32-.12.59-.35.81-.23.22-.51.34-.83.34s-.59-.11-.81-.34Z"/>
      <path class="cls-6" d="M649.08,176.45c-.97-.57-1.72-1.36-2.25-2.38s-.8-2.17-.8-3.46.27-2.46.8-3.48c.53-1.02,1.29-1.8,2.27-2.35.98-.55,2.1-.83,3.37-.83s2.39.28,3.35.83c.98.57,1.74,1.36,2.28,2.37.53,1.01.8,2.17.8,3.47s-.27,2.45-.8,3.46c-.55,1.04-1.31,1.83-2.29,2.38-.98.55-2.09.83-3.34.83s-2.4-.28-3.38-.83ZM654.44,174.67c.65-.33,1.17-.85,1.55-1.54.38-.69.58-1.54.58-2.54,0-1.05-.2-1.9-.6-2.55-.37-.63-.86-1.12-1.46-1.45s-1.29-.5-2.04-.5c-.68,0-1.34.15-1.98.45-.65.33-1.17.84-1.55,1.53-.38.68-.58,1.53-.58,2.53,0,1.07.2,1.93.6,2.58.37.65.85,1.14,1.46,1.48.61.33,1.29.5,2.04.5.68,0,1.34-.16,1.98-.48Z"/>
      <path class="cls-6" d="M662.36,176.81c-.23-.23-.34-.5-.34-.81v-10.74c0-.32.11-.59.34-.83.23-.23.5-.35.81-.35s.59.12.83.35c.23.23.35.51.35.83v1.03l-.05-.02c.52-.73,1.11-1.3,1.79-1.7.68-.4,1.51-.6,2.49-.6.9,0,1.69.24,2.37.71.68.48,1.16,1.09,1.46,1.84,1.03-1.7,2.57-2.55,4.61-2.55.97,0,1.76.23,2.38.7.6.45,1.06,1.04,1.36,1.78.31.73.46,1.52.46,2.35v7.21c0,.32-.12.59-.35.81-.23.22-.51.34-.83.34s-.59-.11-.81-.34c-.23-.23-.34-.5-.34-.81v-6.76c0-1.12-.2-1.92-.59-2.4-.39-.48-1.04-.73-1.94-.73-.8,0-1.48.2-2.03.61s-1.07,1-1.55,1.76v7.51c0,.32-.12.59-.35.81-.23.22-.51.34-.83.34s-.59-.11-.81-.34c-.23-.23-.34-.5-.34-.81v-6.76c0-1.12-.2-1.92-.59-2.4-.39-.48-1.04-.73-1.94-.73-.8,0-1.48.2-2.03.61s-1.07,1-1.55,1.76v7.51c0,.32-.12.59-.35.81-.23.22-.51.34-.83.34s-.59-.11-.81-.34Z"/>
      <path class="cls-6" d="M685.94,175.52c-1.14-1.17-1.71-2.8-1.71-4.91,0-1.13.22-2.23.65-3.28.45-1.05,1.13-1.88,2.05-2.48.92-.6,2.02-.9,3.3-.9s2.31.28,3.23.85c.87.57,1.54,1.33,2.03,2.29.48.96.73,2.02.73,3.19,0,.32-.11.59-.33.81s-.5.34-.85.34h-8.46c.15,1.19.6,2.09,1.34,2.72.74.63,1.75.94,3.02.94.67,0,1.26-.06,1.79-.19.53-.12,1.06-.32,1.59-.59.12-.07.27-.1.45-.1.27,0,.5.1.71.29.21.19.31.43.31.71,0,.38-.23.7-.68.95-.7.38-1.37.66-2,.84-.63.17-1.43.26-2.38.26-2.05,0-3.65-.58-4.79-1.75ZM693.89,169.21c-.07-.67-.27-1.23-.6-1.68-.37-.53-.82-.93-1.36-1.2-.54-.27-1.11-.4-1.69-.4-.53,0-1.09.13-1.68.38-.58.28-1.05.71-1.39,1.26-.34.56-.54,1.21-.59,1.96h7.01c.22,0,.32-.11.3-.33Z"/>
      <path class="cls-6" d="M699.51,176.81c-.23-.23-.34-.5-.34-.81v-10.74c0-.32.11-.59.34-.83.23-.23.5-.35.81-.35s.59.12.83.35c.23.23.35.51.35.83v.95c.68-.73,1.39-1.29,2.13-1.68s1.57-.58,2.5-.58,1.73.22,2.43.65c.67.43,1.18,1.03,1.54,1.78s.54,1.59.54,2.5v7.11c0,.32-.12.59-.35.81-.23.22-.51.34-.83.34s-.59-.11-.81-.34c-.23-.23-.34-.5-.34-.81v-6.86c0-2.02-.91-3.03-2.73-3.03-.8,0-1.52.2-2.17.6s-1.28.99-1.92,1.78v7.51c0,.32-.12.59-.35.81-.23.22-.51.34-.83.34s-.59-.11-.81-.34Z"/>
      <path class="cls-6" d="M712.88,166.07c-.18-.17-.26-.42-.26-.74s.09-.56.26-.74.42-.26.74-.26h6.38c.28,0,.52.1.71.29s.29.43.29.71c0,.27-.1.5-.29.7-.19.2-.43.3-.71.3h-6.38c-.32,0-.56-.09-.74-.26ZM714.87,173.94v-11.39c0-.38.1-.68.31-.88.21-.2.5-.3.86-.3s.65.1.85.31c.2.21.3.5.3.86v11.19c0,.58.13.98.4,1.18s.67.3,1.2.3c.35,0,.68-.05,1-.15.03,0,.06,0,.08-.03.17-.03.31-.05.43-.05.25,0,.47.09.65.28.18.18.28.4.28.65,0,.38-.2.68-.6.9-.65.3-1.34.45-2.08.45-2.45,0-3.68-1.11-3.68-3.33Z"/>
      <path class="cls-6" d="M723.26,176.15c-.28-.2-.43-.48-.43-.85,0-.27.1-.5.29-.71.19-.21.43-.31.71-.31.17,0,.32.03.45.1.57.25,1.12.44,1.65.56s1.12.19,1.75.19c1.84,0,2.75-.58,2.75-1.75,0-.37-.2-.65-.6-.85-.42-.2-1.12-.42-2.1-.68-.97-.22-1.78-.46-2.43-.73-.72-.27-1.29-.67-1.73-1.2-.43-.53-.65-1.19-.65-1.98,0-1.18.43-2.14,1.3-2.88.87-.73,2.07-1.1,3.6-1.1,1.33,0,2.54.21,3.63.63.23.07.42.19.55.38.13.18.2.38.2.6,0,.27-.1.5-.3.71-.2.21-.44.31-.73.31l-.33-.05c-1-.3-1.95-.45-2.85-.45s-1.56.16-2.08.48c-.52.32-.78.74-.78,1.25,0,.48.23.84.68,1.08.48.22,1.21.44,2.18.68.9.23,1.7.48,2.4.73.68.27,1.23.67,1.65,1.21.42.54.63,1.22.63,2.04,0,1.09-.43,1.98-1.3,2.68-.87.7-2.05,1.05-3.55,1.05-1.65,0-3.18-.38-4.58-1.13Z"/>
      <path class="cls-6" d="M745.49,176.45c-.97-.57-1.72-1.36-2.25-2.38s-.8-2.17-.8-3.46.27-2.46.8-3.48c.53-1.02,1.29-1.8,2.27-2.35.98-.55,2.1-.83,3.37-.83s2.39.28,3.35.83c.98.57,1.74,1.36,2.28,2.37.53,1.01.8,2.17.8,3.47s-.27,2.45-.8,3.46c-.55,1.04-1.31,1.83-2.29,2.38-.98.55-2.09.83-3.34.83s-2.4-.28-3.38-.83ZM750.84,174.67c.65-.33,1.17-.85,1.55-1.54.38-.69.58-1.54.58-2.54,0-1.05-.2-1.9-.6-2.55-.37-.63-.86-1.12-1.46-1.45s-1.29-.5-2.04-.5c-.68,0-1.34.15-1.98.45-.65.33-1.17.84-1.55,1.53-.38.68-.58,1.53-.58,2.53,0,1.07.2,1.93.6,2.58.37.65.85,1.14,1.46,1.48.61.33,1.29.5,2.04.5.68,0,1.34-.16,1.98-.48Z"/>
      <path class="cls-6" d="M759.59,176.81c-.23-.23-.34-.5-.34-.81v-9.79h-1.45c-.27,0-.5-.1-.7-.3s-.3-.43-.3-.7c0-.28.1-.52.3-.71.2-.19.43-.29.7-.29h1.45v-1.43c0-1.02.18-1.84.55-2.48.33-.62.79-1.08,1.36-1.39.58-.31,1.2-.46,1.87-.46.75,0,1.48.17,2.18.5.4.23.6.53.6.9,0,.25-.1.48-.29.68s-.41.3-.66.3c-.18,0-.38-.03-.58-.08l-.68-.08c-.73,0-1.26.17-1.56.5-.31.33-.46.89-.46,1.68v1.35h3.1c.28,0,.52.1.71.29.19.19.29.43.29.71,0,.27-.1.5-.29.7-.19.2-.43.3-.71.3h-3.1v9.79c0,.32-.12.59-.35.81-.23.22-.51.34-.83.34s-.59-.11-.81-.34Z"/>
      <path class="cls-6" d="M774.27,176.42c-.37-.23-.55-.55-.55-.95,0-.27.09-.51.28-.73s.42-.33.7-.33c.18,0,.33.03.45.1.75.37,1.53.55,2.33.55.97,0,1.71-.28,2.23-.83.52-.55.78-1.5.78-2.85v-10.84c0-.32.11-.59.34-.83.23-.23.5-.35.81-.35s.59.12.83.35c.23.23.35.51.35.83v10.69c0,1.99-.44,3.49-1.31,4.51-.88,1.02-2.17,1.53-3.87,1.53-1.22,0-2.34-.28-3.35-.85Z"/>
      <path class="cls-6" d="M789.32,176.45c-.97-.57-1.72-1.36-2.25-2.38s-.8-2.17-.8-3.46.27-2.46.8-3.48c.53-1.02,1.29-1.8,2.27-2.35.98-.55,2.1-.83,3.37-.83s2.39.28,3.35.83c.98.57,1.74,1.36,2.28,2.37.53,1.01.8,2.17.8,3.47s-.27,2.45-.8,3.46c-.55,1.04-1.31,1.83-2.29,2.38-.98.55-2.09.83-3.34.83s-2.4-.28-3.38-.83ZM794.68,174.67c.65-.33,1.17-.85,1.55-1.54.38-.69.58-1.54.58-2.54,0-1.05-.2-1.9-.6-2.55-.37-.63-.86-1.12-1.46-1.45s-1.29-.5-2.04-.5c-.68,0-1.34.15-1.98.45-.65.33-1.17.84-1.55,1.53-.38.68-.58,1.53-.58,2.53,0,1.07.2,1.93.6,2.58.37.65.85,1.14,1.46,1.48.61.33,1.29.5,2.04.5.68,0,1.34-.16,1.98-.48Z"/>
      <path class="cls-6" d="M804.27,182.57c-.22-.23-.33-.49-.33-.79,0-.13.02-.27.08-.4l1.63-4.18-4.71-11.47c-.07-.17-.1-.33-.1-.48,0-.32.11-.59.34-.83.23-.23.5-.35.81-.35.23,0,.45.07.65.2s.34.31.43.53l3.83,9.49,3.91-9.44c.23-.52.59-.78,1.08-.78.32,0,.59.12.81.35.23.23.34.51.34.83,0,.15-.02.29-.08.43l-6.83,16.42c-.23.53-.59.8-1.08.8-.3,0-.56-.11-.78-.34Z"/>
      <path class="cls-6" d="M815.78,176.67c-.28-.28-.43-.62-.43-1v-.15c0-.38.14-.72.43-1,.28-.28.62-.43,1-.43h.25c.38,0,.72.14,1,.43.28.28.43.62.43,1v.15c0,.38-.14.72-.43,1s-.62.43-1,.43h-.25c-.38,0-.72-.14-1-.43Z"/>
      <path class="cls-6" d="M819.06,162.63l-.53-3.66-.02-.23c0-.88.46-1.33,1.38-1.33.38,0,.73.15,1.03.45.27.28.38.57.35.85l-.05.25-.53,3.66c-.08.55-.35.83-.8.83s-.74-.28-.83-.83ZM823.72,162.63l-.55-3.66-.02-.25c0-.87.46-1.3,1.38-1.3s1.38.45,1.38,1.35l-.02.2-.53,3.66c-.08.55-.36.83-.83.83s-.72-.28-.8-.83Z"/>
    </g>
  </g>
  <g id="logo">
    <path class="cls-9" d="M247.38,73.24v45.18h-12.23v-5.07c-2.71,3.5-7.25,4.89-11.36,4.89-12.41.09-22.54-9.96-22.63-22.37-.09-12.41,9.96-22.54,22.37-22.63,4.28,0,8.91,1.57,11.62,4.98v-4.98h12.23ZM234.71,95.7c0-2.97-1.14-5.77-3.32-7.86-2.1-2.1-4.89-3.23-7.78-3.15-2.97,0-5.77,1.14-7.86,3.23-2.1,2.1-3.23,4.89-3.23,7.86s1.22,5.77,3.32,7.86c2.1,2.1,4.89,3.23,7.86,3.23,2.97-.09,5.77-1.22,7.78-3.32,2.1-2.1,3.23-4.89,3.23-7.86"/>
    <path class="cls-9" d="M288.62,113c-4.02,3.41-9.17,5.42-14.85,5.42-12.41-.09-22.46-10.22-22.37-22.63.09-12.41,10.22-22.46,22.63-22.37,5.59.09,10.75,2.18,14.68,5.59l-8.13,8.04c-1.92-1.4-4.19-2.18-6.64-2.18-2.97,0-5.77,1.14-7.86,3.15-2.1,2.1-3.23,4.89-3.23,7.86-.09,2.97,1.05,5.77,3.15,7.86,2.1,2.1,4.89,3.23,7.86,3.32,2.45,0,4.72-.79,6.64-2.18l8.13,8.13Z"/>
    <path class="cls-9" d="M338.51,97.01v21.41h-11.36v-22.19h-.09v-.26c0-2.88-1.14-5.68-3.23-7.78-2.1-2.1-4.89-3.23-7.86-3.23s-5.77,1.22-7.86,3.32c-2.1,2.1-3.23,4.89-3.15,7.86v.09h-.09v22.19h-12.23v-56.8h12.23v17.48c3.67-4.37,6.99-5.16,11.01-5.51,12.32-1.05,22.63,6.9,22.63,22.37v1.05Z"/>
    <path class="cls-9" d="M418.02,72.63v12.5c-9.44,0-15.2,7.6-15.2,13.37v19.92h-12.23v-45h12.23v6.73c2.01-5.59,6.12-7.51,15.2-7.51"/>
    <path class="cls-9" d="M465.64,73.24v45.18h-12.23v-5.07c-2.71,3.5-7.25,4.89-11.36,4.89-12.41.09-22.54-9.96-22.63-22.37-.09-12.41,9.96-22.54,22.37-22.63,4.28,0,8.91,1.57,11.62,4.98v-4.98h12.23ZM452.97,95.7c0-2.97-1.14-5.77-3.32-7.86-2.1-2.1-4.89-3.23-7.78-3.15-2.97,0-5.77,1.14-7.87,3.23-2.1,2.1-3.23,4.89-3.23,7.86s1.22,5.77,3.32,7.86c2.1,2.1,4.89,3.23,7.87,3.23,2.97-.09,5.77-1.22,7.78-3.32,2.1-2.1,3.23-4.89,3.23-7.86"/>
    <g>
      <g class="cls-7">
        <g class="cls-10">
          <path class="cls-8" d="M386.67,95.52c0,12.22-9.91,22.13-22.13,22.13s-22.13-9.91-22.13-22.13,9.91-22.13,22.13-22.13,22.13,9.91,22.13,22.13"/>
        </g>
      </g>
      <path class="cls-1" d="M388.69,95.29c-.55-12.97-11.16-23.13-24.15-23.13-12.09,0-22.33,8.98-23.94,20.93-.02-.01.02.01,0,0,0,.06,0-.06,0,0-.03.3-.12.75-.14,1.06v.16c-.75,10.78,6.11,20.92,16.52,24.13,15.39,4.76,31.35-7.01,31.69-22.12l.02-1.02ZM364.55,75.24c11,0,20.04,8.35,21,19.19-14.98,9.12-35.32,3.35-41.78-1.69,1.72-10.04,10.48-17.5,20.78-17.5"/>
    </g>
    <path class="cls-9" d="M186.33,85.41h-14.16v11.36h13.11c-.79,2.01-3.32,4.63-3.93,5.24-3.23,3.15-7.51,4.98-12.06,4.98s-8.83-1.83-11.97-4.98c-3.23-3.23-5.07-7.51-5.07-12.06s1.83-8.83,5.07-12.06c3.15-3.23,7.43-4.98,11.97-4.98,3.76,0,7.34,1.22,10.31,3.41l8.74-8.65c-5.16-4.37-11.8-6.99-19.05-6.99-16.17,0-29.27,13.11-29.27,29.27s13.11,29.27,29.27,29.27c6.38,0,12.23-2.01,17.04-5.42,0,0,.05-.04.14-.1l11.22,4.49v-32.79h-11.36Z"/>
  </g>
  <g>
    <rect class="cls-3" x="1499.87" y="134.68" width="291.77" height="30.54" rx="8.5" ry="8.5"/>
    <rect class="cls-4" x="1510.37" y="143.04" width="291.77" height="30.54" rx="8.5" ry="8.5"/>
    <g>
      <path class="cls-2" d="M1532.2,168.25c-.8-.2-1.47-.45-2-.75-.26-.16-.38-.41-.38-.73,0-.22.08-.41.24-.59.16-.17.36-.26.59-.26.11,0,.23.03.37.08,1.05.51,2.17.77,3.34.77,2.05,0,3.08-1.09,3.08-3.28v-1.3c-.93,1-2.08,1.5-3.44,1.5-.81,0-1.58-.2-2.31-.61-.8-.42-1.43-1.03-1.9-1.83s-.71-1.75-.71-2.85.24-2.11.73-2.92c.47-.77,1.08-1.36,1.83-1.76.75-.41,1.54-.61,2.36-.61,1.36,0,2.51.5,3.44,1.5v-.45c0-.26.09-.48.27-.67s.4-.28.66-.28.48.09.67.28c.19.19.28.41.28.67v9.06c0,1.7-.41,3.01-1.24,3.94-.82.92-2.01,1.39-3.55,1.39-.76,0-1.54-.1-2.34-.3ZM1535.99,161.6c.48-.25.96-.62,1.45-1.1v-4.17c-.49-.49-.97-.85-1.45-1.1-.48-.25-1.02-.38-1.61-.38-1.04,0-1.87.31-2.49.93s-.93,1.5-.93,2.63.31,2.01.93,2.63c.62.62,1.45.93,2.49.93.59,0,1.13-.12,1.61-.37Z"/>
      <path class="cls-2" d="M1543.5,163.53c-.53-.24-.94-.6-1.24-1.07-.3-.47-.45-1.01-.45-1.62,0-1.05.41-1.87,1.23-2.44.82-.57,1.97-.86,3.45-.86h2.43v-.14c0-.86-.21-1.5-.64-1.89-.43-.4-1.11-.6-2.06-.6-.49,0-.92.04-1.32.11-.39.08-.85.2-1.38.38l-.26.04c-.2,0-.38-.08-.54-.23s-.23-.34-.23-.56c0-.38.18-.64.55-.79,1.13-.49,2.3-.73,3.5-.73.93,0,1.73.19,2.39.57.62.36,1.09.85,1.4,1.45s.47,1.27.47,2v5.73c0,.26-.09.48-.28.66-.19.18-.41.27-.67.27s-.48-.09-.66-.27c-.18-.18-.27-.4-.27-.66v-.49c-.97,1.01-2.24,1.52-3.79,1.52-.58,0-1.13-.12-1.64-.36ZM1547.52,161.82c.55-.28,1.02-.64,1.41-1.08v-1.68h-2.19c-2.03,0-3.04.53-3.04,1.58s.71,1.6,2.13,1.6c.58,0,1.14-.14,1.69-.42Z"/>
      <path class="cls-2" d="M1555.98,163.25c-.85-.45-1.52-1.08-2.01-1.9-.49-.82-.73-1.77-.73-2.84s.25-2.05.75-2.88c.49-.8,1.14-1.41,1.96-1.85.82-.44,1.72-.66,2.72-.66.67,0,1.27.08,1.78.25.51.17,1.03.41,1.54.72.27.19.41.43.41.73,0,.2-.08.39-.24.57-.16.18-.34.26-.55.26-.14,0-.28-.04-.45-.12-.47-.24-.86-.41-1.17-.51s-.7-.14-1.15-.14c-1.13,0-2.04.33-2.71.98-.67.66-1,1.54-1,2.64s.33,1.99,1,2.64c.67.66,1.57.98,2.71.98.46,0,.84-.05,1.15-.14.31-.09.7-.26,1.17-.51.16-.08.31-.12.45-.12.2,0,.38.09.55.26s.24.36.24.57c0,.3-.14.54-.41.73-.51.31-1.03.55-1.54.72-.51.17-1.11.25-1.78.25-.96,0-1.86-.22-2.69-.65Z"/>
      <path class="cls-2" d="M1564.94,163.52c-.18-.18-.27-.4-.27-.66v-13.15c0-.26.09-.48.27-.67s.4-.28.66-.28.48.09.67.28.28.41.28.67v5.23c.55-.59,1.13-1.05,1.72-1.36.59-.31,1.27-.47,2.03-.47s1.4.18,1.97.53c.54.35.96.83,1.25,1.44.29.61.44,1.28.44,2.03v5.75c0,.26-.09.48-.28.66-.19.18-.41.27-.67.27s-.48-.09-.66-.27c-.18-.18-.27-.4-.27-.66v-5.55c0-1.63-.74-2.45-2.21-2.45-.65,0-1.23.16-1.75.49-.52.32-1.04.8-1.55,1.44v6.08c0,.26-.09.48-.28.66-.19.18-.41.27-.67.27s-.48-.09-.66-.27Z"/>
      <path class="cls-2" d="M1578.85,163.23c-.78-.46-1.39-1.1-1.82-1.92-.43-.82-.65-1.76-.65-2.8s.22-1.99.65-2.82c.43-.82,1.04-1.46,1.83-1.9.79-.45,1.7-.67,2.73-.67s1.93.22,2.71.67c.8.46,1.41,1.1,1.84,1.92s.65,1.75.65,2.81-.22,1.99-.65,2.8c-.45.84-1.06,1.48-1.85,1.92-.79.45-1.69.67-2.7.67s-1.94-.22-2.74-.67ZM1583.18,161.79c.53-.27.95-.69,1.26-1.25.31-.56.47-1.25.47-2.06,0-.85-.16-1.54-.49-2.07-.3-.51-.69-.9-1.19-1.17-.49-.27-1.04-.41-1.65-.41-.55,0-1.09.12-1.6.37-.53.27-.95.68-1.26,1.24s-.47,1.24-.47,2.05c0,.86.16,1.56.49,2.09.3.53.69.92,1.19,1.2.49.27,1.04.41,1.65.41.55,0,1.09-.13,1.6-.38Z"/>
      <path class="cls-2" d="M1589.59,163.52c-.18-.18-.27-.4-.27-.66v-8.69c0-.26.09-.48.27-.67s.4-.28.66-.28.48.09.67.28.28.41.28.67v.81c.93-1.24,1.99-1.86,3.16-1.86h.1c.26,0,.47.09.65.27s.26.4.26.66-.09.47-.27.64-.41.25-.68.25h-.1c-.63,0-1.22.15-1.75.46-.53.3-.99.74-1.37,1.31v6.16c0,.26-.09.48-.28.66-.19.18-.41.27-.67.27s-.48-.09-.66-.27Z"/>
      <path class="cls-2" d="M1598.09,163.53c-.53-.24-.94-.6-1.24-1.07-.3-.47-.45-1.01-.45-1.62,0-1.05.41-1.87,1.23-2.44.82-.57,1.97-.86,3.45-.86h2.43v-.14c0-.86-.21-1.5-.64-1.89-.43-.4-1.11-.6-2.06-.6-.49,0-.92.04-1.32.11-.39.08-.85.2-1.38.38l-.26.04c-.2,0-.38-.08-.54-.23s-.23-.34-.23-.56c0-.38.18-.64.55-.79,1.13-.49,2.3-.73,3.5-.73.93,0,1.73.19,2.39.57.62.36,1.09.85,1.4,1.45s.47,1.27.47,2v5.73c0,.26-.09.48-.28.66-.19.18-.41.27-.67.27s-.48-.09-.66-.27c-.18-.18-.27-.4-.27-.66v-.49c-.97,1.01-2.24,1.52-3.79,1.52-.58,0-1.13-.12-1.64-.36ZM1602.11,161.82c.55-.28,1.02-.64,1.41-1.08v-1.68h-2.19c-2.03,0-3.04.53-3.04,1.58s.71,1.6,2.13,1.6c.58,0,1.14-.14,1.69-.42Z"/>
      <path class="cls-2" d="M1608.61,163.41c-.23-.23-.34-.5-.34-.81v-.12c0-.31.11-.58.34-.81.23-.23.5-.34.81-.34h.2c.31,0,.58.11.81.34.23.23.34.5.34.81v.12c0,.31-.12.58-.34.81-.23.23-.5.34-.81.34h-.2c-.31,0-.58-.11-.81-.34Z"/>
      <path class="cls-2" d="M1615.38,163.23c-.78-.46-1.39-1.1-1.82-1.92-.43-.82-.65-1.76-.65-2.8s.22-1.99.65-2.82c.43-.82,1.04-1.46,1.83-1.9.79-.45,1.7-.67,2.73-.67s1.93.22,2.71.67c.8.46,1.41,1.1,1.84,1.92s.65,1.75.65,2.81-.22,1.99-.65,2.8c-.45.84-1.06,1.48-1.85,1.92-.79.45-1.69.67-2.7.67s-1.94-.22-2.74-.67ZM1619.71,161.79c.53-.27.95-.69,1.26-1.25.31-.56.47-1.25.47-2.06,0-.85-.16-1.54-.49-2.07-.3-.51-.69-.9-1.19-1.17-.49-.27-1.04-.41-1.65-.41-.55,0-1.09.12-1.6.37-.53.27-.95.68-1.26,1.24s-.47,1.24-.47,2.05c0,.86.16,1.56.49,2.09.3.53.69.92,1.19,1.2.49.27,1.04.41,1.65.41.55,0,1.09-.13,1.6-.38Z"/>
      <path class="cls-2" d="M1626.79,163.52c-.18-.18-.27-.4-.27-.66v-7.92h-1.17c-.22,0-.41-.08-.57-.24s-.24-.35-.24-.57c0-.23.08-.42.24-.58s.35-.23.57-.23h1.17v-1.15c0-.82.15-1.49.45-2.01.27-.5.64-.87,1.1-1.12.47-.25.97-.38,1.51-.38.61,0,1.2.13,1.76.41.32.19.49.43.49.73,0,.2-.08.38-.23.55s-.33.24-.54.24c-.15,0-.3-.02-.47-.06l-.55-.06c-.59,0-1.02.14-1.27.41-.25.27-.38.72-.38,1.36v1.09h6.1v-1.15c0-.82.15-1.49.45-2.01.27-.5.64-.87,1.1-1.12s.97-.38,1.51-.38c.61,0,1.2.13,1.76.41.32.19.49.43.49.73,0,.2-.08.38-.23.55s-.33.24-.54.24c-.15,0-.3-.02-.47-.06l-.55-.06c-.59,0-1.02.14-1.27.41-.25.27-.38.72-.38,1.36v1.09h6.14c.27,0,.5.09.68.27.18.18.27.41.27.68v8.59c0,.26-.09.48-.28.66-.19.18-.41.27-.67.27s-.48-.09-.66-.27c-.18-.18-.27-.4-.27-.66v-7.92h-5.21v7.92c0,.26-.09.48-.28.66-.19.18-.41.27-.67.27s-.48-.09-.66-.27c-.18-.18-.27-.4-.27-.66v-7.92h-6.1v7.92c0,.26-.09.48-.28.66-.19.18-.41.27-.67.27s-.48-.09-.66-.27ZM1641.74,150.94c-.21-.21-.31-.46-.31-.74v-.08c0-.28.1-.53.31-.74.21-.21.46-.31.74-.31h.12c.28,0,.53.1.74.31s.31.46.31.74v.08c0,.28-.1.53-.31.74s-.46.31-.74.31h-.12c-.28,0-.53-.1-.74-.31Z"/>
      <path class="cls-2" d="M1648.74,163.25c-.85-.45-1.52-1.08-2.01-1.9-.49-.82-.73-1.77-.73-2.84s.25-2.05.75-2.88c.49-.8,1.14-1.41,1.96-1.85.82-.44,1.72-.66,2.72-.66.67,0,1.27.08,1.78.25.51.17,1.03.41,1.54.72.27.19.41.43.41.73,0,.2-.08.39-.24.57-.16.18-.34.26-.55.26-.14,0-.28-.04-.45-.12-.47-.24-.86-.41-1.17-.51s-.7-.14-1.15-.14c-1.13,0-2.04.33-2.71.98-.67.66-1,1.54-1,2.64s.33,1.99,1,2.64c.67.66,1.57.98,2.71.98.46,0,.84-.05,1.15-.14.31-.09.7-.26,1.17-.51.16-.08.31-.12.45-.12.2,0,.38.09.55.26s.24.36.24.57c0,.3-.14.54-.41.73-.51.31-1.03.55-1.54.72-.51.17-1.11.25-1.78.25-.96,0-1.86-.22-2.69-.65Z"/>
      <path class="cls-2" d="M1658.44,163.53c-.53-.24-.94-.6-1.24-1.07-.3-.47-.45-1.01-.45-1.62,0-1.05.41-1.87,1.23-2.44.82-.57,1.97-.86,3.45-.86h2.43v-.14c0-.86-.21-1.5-.64-1.89-.43-.4-1.11-.6-2.06-.6-.49,0-.92.04-1.32.11-.39.08-.85.2-1.38.38l-.26.04c-.2,0-.38-.08-.54-.23s-.23-.34-.23-.56c0-.38.18-.64.55-.79,1.13-.49,2.3-.73,3.5-.73.93,0,1.73.19,2.39.57.62.36,1.09.85,1.4,1.45s.47,1.27.47,2v5.73c0,.26-.09.48-.28.66-.19.18-.41.27-.67.27s-.48-.09-.66-.27c-.18-.18-.27-.4-.27-.66v-.49c-.97,1.01-2.24,1.52-3.79,1.52-.58,0-1.13-.12-1.64-.36ZM1662.47,161.82c.55-.28,1.02-.64,1.41-1.08v-1.68h-2.19c-2.03,0-3.04.53-3.04,1.58s.71,1.6,2.13,1.6c.58,0,1.14-.14,1.69-.42Z"/>
      <path class="cls-2" d="M1669.09,163.52c-.18-.18-.27-.4-.27-.66v-13.15c0-.26.09-.48.27-.67s.4-.28.66-.28c.27,0,.5.09.68.27.18.18.27.41.27.68v13.15c0,.26-.09.48-.28.66-.19.18-.41.27-.67.27s-.48-.09-.66-.27Z"/>
      <path class="cls-2" d="M1676.64,164.42c-1.07-.64-1.9-1.49-2.49-2.57-.59-1.08-.89-2.24-.89-3.48,0-1.55.39-2.99,1.17-4.29.78-1.34,1.84-2.4,3.17-3.18,1.33-.78,2.75-1.17,4.26-1.17,1.39,0,2.68.3,3.87.89,1.2.62,2.15,1.47,2.84,2.54.69,1.07,1.03,2.27,1.03,3.6,0,.89-.13,1.7-.38,2.41-.27.8-.7,1.43-1.28,1.9s-1.29.71-2.13.71c-.63,0-1.15-.14-1.55-.42-.4-.28-.65-.63-.74-1.06-.41.5-.9.87-1.47,1.12-.57.25-1.19.38-1.85.38-1.07,0-1.91-.33-2.53-.99-.62-.66-.93-1.53-.93-2.59s.23-1.9.69-2.65c.43-.73,1.02-1.29,1.76-1.69s1.53-.6,2.37-.6c1.03,0,1.88.34,2.57,1.01l.06-.3c.03-.19.12-.34.26-.47.15-.12.32-.18.51-.18.22,0,.4.07.54.22.14.15.21.33.21.55l-.02.22-.67,3.85c-.09.47-.14.91-.14,1.32s.09.72.26.95.42.34.73.34c.81,0,1.45-.35,1.9-1.06s.69-1.7.69-2.97-.32-2.3-.95-3.2c-.62-.88-1.43-1.55-2.44-2.02-1.01-.47-2.08-.7-3.21-.7-1.31,0-2.55.34-3.71,1.03-1.16.7-2.09,1.63-2.78,2.79s-1.03,2.39-1.03,3.72c0,.97.24,1.92.73,2.86.5.93,1.21,1.67,2.12,2.23.91.55,1.97.83,3.19.83.78,0,1.48-.07,2.08-.21.6-.14,1.32-.38,2.16-.72.11-.03.18-.04.22-.04.15,0,.27.05.38.15s.15.22.15.35c0,.09-.03.19-.08.28-.05.09-.13.16-.22.2-1.43.72-2.99,1.07-4.68,1.07-1.39,0-2.64-.32-3.75-.95ZM1683.59,157.53l.32-1.88c-.58-.61-1.34-.91-2.27-.91-.61,0-1.15.13-1.62.39-.53.27-.94.66-1.24,1.15-.3.5-.45,1.07-.45,1.72,0,.74.21,1.32.62,1.73.41.41.98.62,1.69.62,1.63,0,2.61-.94,2.94-2.82Z"/>
      <path class="cls-2" d="M1694.56,168.25c-.8-.2-1.47-.45-2-.75-.26-.16-.38-.41-.38-.73,0-.22.08-.41.24-.59.16-.17.36-.26.59-.26.11,0,.23.03.37.08,1.05.51,2.17.77,3.34.77,2.05,0,3.08-1.09,3.08-3.28v-1.3c-.93,1-2.08,1.5-3.44,1.5-.81,0-1.58-.2-2.31-.61-.8-.42-1.43-1.03-1.9-1.83s-.71-1.75-.71-2.85.24-2.11.73-2.92c.47-.77,1.08-1.36,1.83-1.76.75-.41,1.54-.61,2.36-.61,1.36,0,2.51.5,3.44,1.5v-.45c0-.26.09-.48.27-.67s.4-.28.66-.28.48.09.67.28c.19.19.28.41.28.67v9.06c0,1.7-.41,3.01-1.24,3.94-.82.92-2.01,1.39-3.55,1.39-.76,0-1.54-.1-2.34-.3ZM1698.35,161.6c.48-.25.96-.62,1.45-1.1v-4.17c-.49-.49-.97-.85-1.45-1.1-.48-.25-1.02-.38-1.61-.38-1.04,0-1.87.31-2.49.93s-.93,1.5-.93,2.63.31,2.01.93,2.63c.62.62,1.45.93,2.49.93.59,0,1.13-.12,1.61-.37Z"/>
      <path class="cls-2" d="M1705.11,163.52c-.18-.18-.27-.4-.27-.66v-8.69c0-.26.09-.48.27-.67s.4-.28.66-.28.48.09.67.28.28.41.28.67v.83l-.04-.02c.42-.59.9-1.05,1.45-1.38s1.22-.49,2.02-.49c.73,0,1.37.19,1.92.58s.94.88,1.18,1.49c.84-1.38,2.08-2.07,3.73-2.07.78,0,1.42.19,1.92.57.49.36.85.84,1.1,1.44.25.59.38,1.23.38,1.9v5.83c0,.26-.09.48-.28.66-.19.18-.41.27-.67.27s-.48-.09-.66-.27-.27-.4-.27-.66v-5.47c0-.9-.16-1.55-.48-1.95-.32-.39-.84-.59-1.57-.59-.65,0-1.2.17-1.64.5-.45.33-.86.81-1.26,1.43v6.08c0,.26-.09.48-.28.66-.19.18-.41.27-.67.27s-.48-.09-.66-.27-.27-.4-.27-.66v-5.47c0-.9-.16-1.55-.48-1.95-.32-.39-.84-.59-1.57-.59-.65,0-1.2.17-1.64.5-.45.33-.87.81-1.26,1.43v6.08c0,.26-.09.48-.28.66-.19.18-.41.27-.67.27s-.48-.09-.66-.27Z"/>
      <path class="cls-2" d="M1724.45,163.53c-.53-.24-.94-.6-1.24-1.07-.3-.47-.45-1.01-.45-1.62,0-1.05.41-1.87,1.23-2.44.82-.57,1.97-.86,3.45-.86h2.43v-.14c0-.86-.21-1.5-.64-1.89-.43-.4-1.11-.6-2.06-.6-.49,0-.92.04-1.32.11-.39.08-.85.2-1.38.38l-.26.04c-.2,0-.38-.08-.54-.23s-.23-.34-.23-.56c0-.38.18-.64.55-.79,1.13-.49,2.3-.73,3.5-.73.93,0,1.73.19,2.39.57.62.36,1.09.85,1.4,1.45s.47,1.27.47,2v5.73c0,.26-.09.48-.28.66-.19.18-.41.27-.67.27s-.48-.09-.66-.27c-.18-.18-.27-.4-.27-.66v-.49c-.97,1.01-2.24,1.52-3.79,1.52-.58,0-1.13-.12-1.64-.36ZM1728.47,161.82c.55-.28,1.02-.64,1.41-1.08v-1.68h-2.19c-2.03,0-3.04.53-3.04,1.58s.71,1.6,2.13,1.6c.58,0,1.14-.14,1.69-.42Z"/>
      <path class="cls-2" d="M1734.97,150.94c-.21-.21-.31-.46-.31-.74v-.08c0-.28.1-.53.31-.74s.46-.31.74-.31h.12c.28,0,.53.1.74.31.21.21.31.46.31.74v.08c0,.28-.1.53-.31.74-.21.21-.46.31-.74.31h-.12c-.28,0-.53-.1-.74-.31ZM1735.09,163.52c-.18-.18-.27-.4-.27-.66v-8.69c0-.26.09-.48.27-.67s.4-.28.66-.28c.27,0,.5.09.68.27.18.18.27.41.27.68v8.69c0,.26-.09.48-.28.66-.19.18-.41.27-.67.27s-.48-.09-.66-.27Z"/>
      <path class="cls-2" d="M1740.14,163.52c-.18-.18-.27-.4-.27-.66v-13.15c0-.26.09-.48.27-.67s.4-.28.66-.28c.27,0,.5.09.68.27.18.18.27.41.27.68v13.15c0,.26-.09.48-.28.66-.19.18-.41.27-.67.27s-.48-.09-.66-.27Z"/>
      <path class="cls-2" d="M1745.05,163.41c-.23-.23-.34-.5-.34-.81v-.12c0-.31.11-.58.34-.81.23-.23.5-.34.81-.34h.2c.31,0,.58.11.81.34.23.23.34.5.34.81v.12c0,.31-.12.58-.34.81-.23.23-.5.34-.81.34h-.2c-.31,0-.58-.11-.81-.34Z"/>
      <path class="cls-2" d="M1752.08,163.25c-.85-.45-1.52-1.08-2.01-1.9-.49-.82-.73-1.77-.73-2.84s.25-2.05.75-2.88c.49-.8,1.14-1.41,1.96-1.85.82-.44,1.72-.66,2.72-.66.67,0,1.27.08,1.78.25.51.17,1.03.41,1.54.72.27.19.41.43.41.73,0,.2-.08.39-.24.57-.16.18-.34.26-.55.26-.14,0-.28-.04-.45-.12-.47-.24-.86-.41-1.17-.51s-.7-.14-1.15-.14c-1.13,0-2.04.33-2.71.98-.67.66-1,1.54-1,2.64s.33,1.99,1,2.64c.67.66,1.57.98,2.71.98.46,0,.84-.05,1.15-.14.31-.09.7-.26,1.17-.51.16-.08.31-.12.45-.12.2,0,.38.09.55.26s.24.36.24.57c0,.3-.14.54-.41.73-.51.31-1.03.55-1.54.72-.51.17-1.11.25-1.78.25-.96,0-1.86-.22-2.69-.65Z"/>
      <path class="cls-2" d="M1762.54,163.23c-.78-.46-1.39-1.1-1.82-1.92-.43-.82-.65-1.76-.65-2.8s.22-1.99.65-2.82c.43-.82,1.04-1.46,1.83-1.9.79-.45,1.7-.67,2.73-.67s1.93.22,2.71.67c.8.46,1.41,1.1,1.84,1.92s.65,1.75.65,2.81-.22,1.99-.65,2.8c-.45.84-1.06,1.48-1.85,1.92-.79.45-1.69.67-2.7.67s-1.94-.22-2.74-.67ZM1766.87,161.79c.53-.27.95-.69,1.26-1.25.31-.56.47-1.25.47-2.06,0-.85-.16-1.54-.49-2.07-.3-.51-.69-.9-1.19-1.17-.49-.27-1.04-.41-1.65-.41-.55,0-1.09.12-1.6.37-.53.27-.95.68-1.26,1.24s-.47,1.24-.47,2.05c0,.86.16,1.56.49,2.09.3.53.69.92,1.19,1.2.49.27,1.04.41,1.65.41.55,0,1.09-.13,1.6-.38Z"/>
      <path class="cls-2" d="M1773.28,163.52c-.18-.18-.27-.4-.27-.66v-8.69c0-.26.09-.48.27-.67s.4-.28.66-.28.48.09.67.28.28.41.28.67v.83l-.04-.02c.42-.59.9-1.05,1.45-1.38s1.22-.49,2.02-.49c.73,0,1.37.19,1.92.58s.94.88,1.18,1.49c.84-1.38,2.08-2.07,3.73-2.07.78,0,1.42.19,1.92.57.49.36.85.84,1.1,1.44.25.59.38,1.23.38,1.9v5.83c0,.26-.09.48-.28.66-.19.18-.41.27-.67.27s-.48-.09-.66-.27-.27-.4-.27-.66v-5.47c0-.9-.16-1.55-.48-1.95-.32-.39-.84-.59-1.57-.59-.65,0-1.2.17-1.64.5-.45.33-.86.81-1.26,1.43v6.08c0,.26-.09.48-.28.66-.19.18-.41.27-.67.27s-.48-.09-.66-.27-.27-.4-.27-.66v-5.47c0-.9-.16-1.55-.48-1.95-.32-.39-.84-.59-1.57-.59-.65,0-1.2.17-1.64.5-.45.33-.87.81-1.26,1.43v6.08c0,.26-.09.48-.28.66-.19.18-.41.27-.67.27s-.48-.09-.66-.27Z"/>
    </g>
    <rect class="cls-3" x="1499.87" y="184.64" width="174.26" height="30.54" rx="8.5" ry="8.5"/>
    <rect class="cls-4" x="1510.33" y="193" width="174.26" height="30.54" rx="8.5" ry="8.5"/>
    <g>
      <path class="cls-2" d="M1530.4,214.88c-.95-1.3-1.43-3.08-1.43-5.35s.48-4.05,1.43-5.35c.95-1.3,2.31-1.94,4.08-1.94s3.1.64,4.06,1.92c.97,1.28,1.45,3.07,1.45,5.37s-.48,4.09-1.45,5.37c-.97,1.28-2.32,1.92-4.06,1.92s-3.13-.65-4.08-1.94ZM1537.15,213.63c.63-.97.95-2.33.95-4.1s-.32-3.12-.95-4.08-1.53-1.45-2.67-1.45-2.04.48-2.67,1.45c-.64.97-.95,2.33-.95,4.08s.32,3.14.95,4.1c.63.97,1.53,1.45,2.67,1.45s2.04-.48,2.67-1.45Z"/>
      <path class="cls-2" d="M1548.96,216.45c-.18-.18-.27-.4-.27-.66v-2.73h-6.16c-.32,0-.6-.12-.84-.34s-.35-.51-.35-.83v-.18c0-.28.08-.53.24-.75l6.36-8.12c.12-.15.27-.27.46-.35.18-.09.37-.13.58-.13h.41c.35,0,.64.12.86.34.22.23.33.51.33.85v7.84h1.52c.23,0,.43.08.6.25.17.17.25.37.25.6,0,.24-.08.44-.24.6s-.36.23-.61.23h-1.52v2.73c0,.26-.09.48-.28.66-.19.18-.41.27-.67.27s-.48-.09-.66-.27ZM1548.68,211.37v-6.4c0-.05-.01-.1-.04-.14-.03-.04-.05-.06-.08-.06-.04,0-.09.04-.16.12l-4.82,6.2c-.05.05-.08.1-.08.14,0,.09.07.14.22.14h4.96Z"/>
      <path class="cls-2" d="M1561.26,211.52c-.16-.16-.24-.36-.24-.59,0-.24.08-.45.23-.61s.35-.24.6-.24h3.83c.23,0,.43.08.6.25.17.17.25.37.25.6,0,.24-.08.44-.24.6-.16.16-.36.23-.61.23h-3.83c-.23,0-.42-.08-.59-.24Z"/>
      <path class="cls-2" d="M1573.81,204.76s-.12-.02-.21.03l-1.76.85c-.18.08-.33.12-.47.12-.26,0-.47-.08-.64-.25s-.25-.38-.25-.64c0-.39.18-.68.55-.85l2.75-1.44c.15-.09.34-.14.57-.14h.43c.27,0,.5.1.7.29s.29.43.29.7v11.75h-1.88v-10.23c0-.09-.02-.16-.07-.19ZM1570.88,216.37c-.17-.17-.25-.37-.25-.62s.08-.45.25-.63.38-.26.62-.26h6.26c.24,0,.45.09.63.26s.26.38.26.63-.09.45-.26.62c-.18.17-.38.25-.63.25h-6.26c-.24,0-.45-.08-.62-.25Z"/>
      <path class="cls-2" d="M1582.23,216.33c-.2-.2-.3-.46-.3-.78,0-.72.21-1.37.63-1.96.38-.55.84-1.05,1.38-1.49.54-.44,1.35-1,2.43-1.69.78-.5,1.44-.95,1.96-1.34,1.13-.85,1.7-1.7,1.7-2.55s-.27-1.43-.8-1.85c-.53-.43-1.33-.64-2.38-.64-1.22,0-2.37.24-3.46.73-.16.07-.29.1-.38.1-.22,0-.4-.08-.56-.23s-.23-.35-.23-.58c0-.34.16-.59.47-.77,1.38-.69,2.88-1.03,4.5-1.03.89,0,1.68.17,2.37.51.73.35,1.3.84,1.7,1.47.41.63.61,1.35.61,2.16s-.23,1.57-.69,2.23c-.43.63-.95,1.2-1.55,1.7-.6.5-1.49,1.13-2.66,1.88-1.03.7-1.76,1.23-2.2,1.59-.44.36-.75.72-.92,1.08h7.01c.24,0,.45.09.63.26.17.18.26.38.26.63s-.09.45-.26.62c-.18.17-.38.25-.63.25h-7.82c-.32,0-.59-.1-.79-.29Z"/>
      <path class="cls-2" d="M1595.07,216.01c-.36-.15-.55-.41-.55-.79,0-.24.08-.45.23-.62s.35-.25.6-.25c.12,0,.25.03.38.08.99.39,2.06.59,3.22.59s2.02-.18,2.71-.55c.68-.37,1.02-.92,1.02-1.68,0-1.69-1.49-2.53-4.46-2.53h-.32c-.23,0-.43-.09-.61-.26s-.26-.38-.26-.61.09-.43.26-.61c.18-.17.38-.26.61-.26h.12c1.36,0,2.4-.21,3.1-.62s1.05-1.02,1.05-1.81c0-.66-.28-1.17-.83-1.54-.55-.37-1.34-.55-2.35-.55-1.13,0-2.18.22-3.14.67-.13.05-.26.08-.36.08-.2,0-.38-.07-.54-.22s-.23-.33-.23-.55c0-.31.14-.55.42-.71,1.28-.69,2.62-1.03,4.01-1.03,1.55,0,2.76.32,3.62.95.86.63,1.29,1.54,1.29,2.71,0,.88-.22,1.6-.66,2.16-.44.56-1.04.98-1.81,1.25v-.04c.86.19,1.58.58,2.14,1.17.56.59.84,1.41.84,2.45,0,1.23-.48,2.19-1.45,2.89-.97.7-2.24,1.04-3.82,1.04s-2.95-.27-4.23-.81Z"/>
      <path class="cls-2" d="M1607.7,211.52c-.16-.16-.24-.36-.24-.59,0-.24.08-.45.23-.61s.35-.24.6-.24h3.83c.23,0,.43.08.6.25.17.17.25.37.25.6,0,.24-.08.44-.24.6-.16.16-.36.23-.61.23h-3.83c-.23,0-.42-.08-.59-.24Z"/>
      <path class="cls-2" d="M1622.66,216.45c-.18-.18-.27-.4-.27-.66v-2.73h-6.16c-.32,0-.6-.12-.84-.34s-.35-.51-.35-.83v-.18c0-.28.08-.53.24-.75l6.36-8.12c.12-.15.27-.27.46-.35.18-.09.37-.13.58-.13h.41c.35,0,.64.12.86.34.22.23.33.51.33.85v7.84h1.52c.23,0,.43.08.6.25.17.17.25.37.25.6,0,.24-.08.44-.24.6s-.36.23-.61.23h-1.52v2.73c0,.26-.09.48-.28.66-.19.18-.41.27-.67.27s-.48-.09-.66-.27ZM1622.38,211.37v-6.4c0-.05-.01-.1-.04-.14-.03-.04-.05-.06-.08-.06-.04,0-.09.04-.16.12l-4.82,6.2c-.05.05-.08.1-.08.14,0,.09.07.14.22.14h4.96Z"/>
      <path class="cls-2" d="M1628.95,215.65c-.14-.09-.24-.2-.3-.3-.07-.11-.1-.26-.1-.45,0-.26.08-.47.23-.64.15-.17.35-.25.6-.25.12,0,.26.03.43.1,1.09.57,2.17.85,3.24.85,1.32,0,2.31-.22,2.96-.66.65-.44.97-1.16.97-2.18,0-.84-.28-1.5-.83-1.97s-1.32-.72-2.29-.72c-1.13,0-2.17.29-3.1.87l-.24.12c-.13.08-.3.12-.49.12-.39,0-.72-.11-.97-.33-.26-.22-.39-.51-.39-.86,0-.11.01-.27.04-.49l.91-5.39c.04-.31.16-.56.35-.75.2-.19.44-.28.74-.28h6.5c.24,0,.45.09.63.26s.26.38.26.63-.09.45-.26.62-.38.25-.63.25h-5.47c-.26,0-.41.12-.45.36l-.59,3.87c1.04-.54,2.17-.81,3.4-.81.97,0,1.83.2,2.57.59.7.39,1.24.93,1.61,1.62.37.69.56,1.49.56,2.39,0,1.41-.48,2.52-1.44,3.35-.96.83-2.34,1.25-4.13,1.25-1.65,0-3.09-.39-4.33-1.17Z"/>
      <path class="cls-2" d="M1641.16,209.55c0-1.15.2-2.29.59-3.42.41-1.17,1.06-2.12,1.96-2.83s2.02-1.06,3.34-1.06c.72,0,1.35.07,1.91.22s1.12.36,1.67.65c.13.07.24.17.32.31s.12.29.12.44c0,.22-.08.41-.24.59s-.36.26-.61.26c-.12,0-.24-.02-.34-.06-.85-.39-1.75-.59-2.69-.59-1.4,0-2.44.49-3.11,1.46-.67.97-1.04,2.21-1.12,3.71l-.04-.02c.95-1.19,2.34-1.78,4.17-1.78.92,0,1.73.2,2.43.59.72.42,1.27.99,1.65,1.71s.58,1.55.58,2.48c0,.84-.2,1.61-.61,2.33-.42.73-1.01,1.29-1.78,1.69s-1.65.6-2.63.6c-3.71,0-5.57-2.42-5.57-7.27ZM1648.42,214.66c.46-.26.82-.6,1.07-1.04.26-.44.39-.92.39-1.45,0-.95-.26-1.68-.79-2.22-.53-.53-1.26-.8-2.21-.8-1.74,0-3.01.74-3.81,2.21.37,2.47,1.59,3.71,3.69,3.71.61,0,1.16-.13,1.66-.41Z"/>
      <path class="cls-2" d="M1656.71,216.45c-.18-.18-.27-.4-.27-.66,0-.19.04-.35.12-.49l5.41-10.78c.03-.08.04-.13.04-.14,0-.09-.07-.14-.2-.14h-7.01c-.24,0-.45-.09-.63-.26-.18-.18-.26-.38-.26-.63s.09-.46.26-.64c.17-.18.38-.27.63-.27h8.27c.32,0,.6.1.82.3.22.2.33.47.33.79,0,.28-.07.58-.2.89l-5.75,11.77c-.08.16-.21.29-.38.38-.17.09-.34.14-.52.14-.26,0-.48-.09-.66-.27Z"/>
    </g>
    <path class="cls-9" d="M1481.88,144.79h-15.9c-4.77,0-7.95,2.39-7.95,7.95v11.13c0,5.57,3.18,7.95,7.95,7.95h15.9c4.77,0,7.95-2.39,7.95-7.95v-11.13c0-5.57-3.18-7.95-7.95-7.95ZM1482.62,154.48l-4.98,3.98c-1.05.84-2.39,1.26-3.72,1.26s-2.69-.41-3.72-1.26l-4.98-3.98c-.51-.41-.59-1.18-.19-1.69.41-.51,1.16-.6,1.67-.19l4.98,3.98c1.21.97,3.26.97,4.47,0l4.98-3.98c.51-.41,1.27-.33,1.67.19.41.51.33,1.27-.17,1.69Z"/>
    <g>
      <path class="cls-9" d="M1473.46,212.96l-2.94,2.94c-.62.62-1.61.62-2.24.02-.17-.17-.35-.33-.52-.51-1.64-1.65-3.12-3.39-4.44-5.2-1.3-1.81-2.35-3.63-3.12-5.42-.75-1.81-1.13-3.55-1.13-5.2,0-1.08.19-2.12.57-3.07.38-.97.99-1.86,1.83-2.66,1.02-1,2.13-1.49,3.31-1.49.45,0,.89.1,1.29.29.41.19.78.48,1.07.89l3.69,5.2c.29.4.49.76.64,1.11.14.33.22.67.22.97,0,.38-.11.76-.33,1.13-.21.37-.51.75-.89,1.13l-1.21,1.26c-.17.17-.25.38-.25.64,0,.13.02.24.05.37.05.13.1.22.13.32.29.52.78,1.21,1.48,2.04.72.83,1.48,1.67,2.31,2.51.16.16.33.32.49.48.64.62.65,1.64.02,2.27Z"/>
      <path class="cls-9" d="M1490.82,218.34c0,.45-.08.91-.24,1.35-.05.13-.1.25-.16.38-.27.57-.62,1.11-1.08,1.62-.78.86-1.64,1.48-2.61,1.88-.02,0-.03.02-.05.02-.94.38-1.96.59-3.05.59-1.62,0-3.36-.38-5.18-1.16-1.83-.78-3.66-1.83-5.47-3.15-.62-.46-1.24-.92-1.83-1.42l5.2-5.2c.45.33.84.59,1.18.76.08.03.17.08.29.13.13.05.25.06.4.06.27,0,.48-.1.65-.27l1.21-1.19c.4-.4.78-.7,1.15-.89.37-.22.73-.33,1.13-.33.3,0,.62.06.97.21.35.14.72.35,1.11.62l5.26,3.74c.41.29.7.62.87,1.02.16.4.25.8.25,1.24Z"/>
    </g>
  </g>
</svg>