<?xml version="1.0" encoding="UTF-8"?>
<svg id="_圖層_1" data-name="圖層 1" xmlns="http://www.w3.org/2000/svg" xmlns:xlink="http://www.w3.org/1999/xlink" viewBox="0 0 1920 322.89">
  <defs>
    <style>
      .cls-1 {
        fill: #fac859;
      }

      .cls-2 {
        fill: #35595e;
      }

      .cls-3 {
        opacity: .5;
      }

      .cls-3, .cls-4 {
        fill: #f6bd65;
      }

      .cls-5 {
        fill: none;
      }

      .cls-6 {
        fill: #f2f1ec;
      }

      .cls-7 {
        opacity: .15;
      }

      .cls-8 {
        fill: #f7f8f3;
      }

      .cls-9 {
        fill: #375b6d;
      }

      .cls-10 {
        clip-path: url(#clippath);
      }
    </style>
    <clipPath id="clippath">
      <rect class="cls-5" x="307.82" y="110.25" width="47.83" height="47.83"/>
    </clipPath>
  </defs>
  <path class="cls-4" d="M1920,125.47v183.69H-.04l.04-210.27S146.15-19.18,374.47,22.53c194.47,35.53,265.5,105.73,393.51,116.36,128,11.04,257.76-68.98,385.63-76.16,131.98-7.41,243.75,40.06,374.82,63.3,113.97,20.2,253.08,26.59,319.72,18.37,35.63-4.39,71.85-18.93,71.85-18.93Z"/>
  <path class="cls-9" d="M1920,125.47v196.84H-.04l.04-224.42S164.89,24.1,375,39.89s264.89,68.75,392.89,78.64c128,10.28,259.41-22.34,387.41-17.25,128,5.47,256.9,44.25,384.9,54.82,128,10.56,251.67,7.71,315.79-7.89,31.92-7.77,64-22.73,64-22.73Z"/>
  <g>
    <path class="cls-6" d="M563.85,297.67c-.11-.04-.2-.12-.28-.23s-.12-.22-.12-.34c0-.16.05-.3.16-.42.11-.11.25-.17.41-.17.1,0,.19.02.26.05.85.37,1.75.56,2.69.56,1.59,0,2.38-.52,2.38-1.56,0-.27-.1-.5-.3-.67-.18-.17-.41-.31-.68-.41-.27-.1-.72-.23-1.35-.4-.72-.18-1.32-.37-1.79-.56-.56-.21-.98-.5-1.26-.88-.28-.38-.42-.83-.42-1.35s.14-1,.41-1.44c.28-.45.7-.79,1.25-1.03.55-.24,1.18-.36,1.89-.36,1.01,0,1.92.15,2.72.45.26.1.4.29.4.56,0,.15-.05.28-.16.4s-.24.18-.4.18c-.06,0-.14-.02-.22-.05-.71-.25-1.44-.37-2.2-.37s-1.31.14-1.76.41-.66.65-.66,1.13c0,.33.11.59.33.78.2.19.45.35.75.46.3.12.75.25,1.35.38.77.18,1.35.36,1.75.52.48.18.87.46,1.17.85s.44.87.44,1.45c0,.5-.15.96-.44,1.38-.3.42-.72.74-1.25.96-.53.22-1.14.33-1.83.33-1.16,0-2.24-.22-3.25-.66Z"/>
    <path class="cls-6" d="M572.77,297.37c-.62-.64-.94-1.53-.94-2.68,0-.62.12-1.22.36-1.79.25-.57.62-1.03,1.12-1.35s1.1-.49,1.8-.49,1.26.16,1.76.46c.47.31.84.73,1.11,1.25.26.52.4,1.11.4,1.74,0,.17-.06.32-.18.44s-.27.18-.46.18h-4.62c.08.65.33,1.14.73,1.48s.96.51,1.65.51c.36,0,.69-.03.98-.1s.58-.17.87-.32c.06-.04.15-.05.25-.05.15,0,.28.05.39.16.11.11.17.24.17.39,0,.21-.12.38-.37.52-.38.21-.75.36-1.09.46s-.78.14-1.3.14c-1.12,0-1.99-.32-2.62-.96ZM577.11,293.93c-.04-.36-.15-.67-.33-.92-.2-.29-.45-.51-.75-.66-.3-.15-.6-.22-.92-.22-.29,0-.6.07-.92.21-.32.16-.57.39-.76.69-.19.31-.29.66-.32,1.07h3.83c.12,0,.17-.06.16-.18Z"/>
    <path class="cls-6" d="M580.18,298.08c-.12-.12-.18-.27-.18-.44v-5.87c0-.17.06-.32.18-.45.12-.13.27-.19.44-.19s.32.06.45.19c.13.13.19.28.19.45v.55c.63-.84,1.34-1.26,2.13-1.26h.07c.17,0,.32.06.44.18s.18.27.18.44-.06.32-.18.43c-.12.11-.28.17-.46.17h-.07c-.43,0-.82.1-1.18.31s-.67.5-.92.88v4.16c0,.17-.06.32-.19.44s-.28.18-.45.18-.32-.06-.44-.18Z"/>
    <path class="cls-6" d="M587.26,298.12c-.14-.1-.24-.22-.31-.38l-2.38-5.69c-.05-.12-.07-.21-.07-.29,0-.17.06-.32.18-.45.12-.13.27-.19.44-.19.12,0,.23.03.34.1s.19.16.23.27l1.97,5c.03.06.06.1.11.1s.08-.03.11-.1l1.97-5c.05-.11.12-.2.23-.27s.22-.1.34-.1c.17,0,.32.06.44.19.12.13.18.28.18.45,0,.07-.02.17-.07.29l-2.38,5.69c-.06.16-.17.28-.31.38s-.29.14-.46.14h-.14c-.16,0-.32-.05-.46-.14Z"/>
    <path class="cls-6" d="M592.58,289.59c-.14-.14-.21-.31-.21-.5v-.05c0-.19.07-.36.21-.5.14-.14.31-.21.5-.21h.08c.19,0,.36.07.5.21.14.14.21.31.21.5v.05c0,.19-.07.36-.21.5-.14.14-.31.21-.5.21h-.08c-.19,0-.36-.07-.5-.21ZM592.66,298.08c-.12-.12-.18-.27-.18-.44v-5.87c0-.17.06-.32.18-.45.12-.13.27-.19.44-.19.18,0,.33.06.46.18s.18.28.18.46v5.87c0,.17-.06.32-.19.44s-.28.18-.45.18-.32-.06-.44-.18Z"/>
    <path class="cls-6" d="M597.3,297.89c-.57-.3-1.03-.73-1.35-1.29-.33-.56-.49-1.19-.49-1.91s.17-1.38.51-1.94c.33-.54.77-.95,1.32-1.25.55-.3,1.16-.44,1.84-.44.46,0,.86.06,1.2.17.35.11.69.28,1.04.49.18.13.27.29.27.49,0,.14-.05.26-.16.38-.11.12-.23.18-.37.18-.09,0-.19-.03-.3-.08-.32-.16-.58-.28-.79-.34-.21-.06-.47-.1-.78-.1-.77,0-1.37.22-1.83.66-.45.44-.68,1.04-.68,1.78s.23,1.34.68,1.78c.45.44,1.06.66,1.83.66.31,0,.57-.03.78-.1.21-.06.47-.18.79-.34.11-.05.21-.08.3-.08.14,0,.26.06.37.18.11.12.16.25.16.38,0,.2-.09.37-.27.49-.35.21-.69.37-1.04.49-.35.11-.75.17-1.2.17-.65,0-1.25-.15-1.82-.44Z"/>
    <path class="cls-6" d="M603.62,297.37c-.62-.64-.94-1.53-.94-2.68,0-.62.12-1.22.36-1.79.25-.57.62-1.03,1.12-1.35s1.1-.49,1.8-.49,1.26.16,1.76.46c.47.31.84.73,1.11,1.25.26.52.4,1.11.4,1.74,0,.17-.06.32-.18.44s-.27.18-.46.18h-4.62c.08.65.33,1.14.73,1.48s.96.51,1.65.51c.36,0,.69-.03.98-.1s.58-.17.87-.32c.06-.04.15-.05.25-.05.15,0,.28.05.39.16.11.11.17.24.17.39,0,.21-.12.38-.37.52-.38.21-.75.36-1.09.46s-.78.14-1.3.14c-1.12,0-1.99-.32-2.62-.96ZM607.97,293.93c-.04-.36-.15-.67-.33-.92-.2-.29-.45-.51-.75-.66-.3-.15-.6-.22-.92-.22-.29,0-.6.07-.92.21-.32.16-.57.39-.76.69-.19.31-.29.66-.32,1.07h3.83c.12,0,.17-.06.16-.18Z"/>
    <path class="cls-6" d="M615.38,298.08c-.12-.12-.18-.27-.18-.44v-8.44c0-.17.06-.32.18-.45.12-.13.27-.19.44-.19s.32.06.45.19c.13.13.19.28.19.45v3.62h5.15v-3.62c0-.17.06-.32.18-.45.12-.13.27-.19.44-.19s.32.06.45.19c.13.13.19.28.19.45v8.44c0,.17-.06.32-.19.44s-.28.18-.45.18-.32-.06-.44-.18-.18-.27-.18-.44v-3.62h-5.15v3.62c0,.17-.06.32-.19.44s-.28.18-.45.18-.32-.06-.44-.18Z"/>
    <path class="cls-6" d="M626.33,297.88c-.53-.31-.94-.74-1.23-1.3-.29-.56-.44-1.18-.44-1.89s.15-1.34.44-1.9c.29-.56.7-.98,1.24-1.29s1.15-.45,1.84-.45,1.3.15,1.83.45c.54.31.95.74,1.24,1.29.29.55.44,1.18.44,1.89s-.15,1.34-.44,1.89c-.3.57-.72,1-1.25,1.3s-1.14.45-1.83.45-1.31-.15-1.85-.45ZM629.25,296.91c.36-.18.64-.46.85-.84.21-.38.31-.84.31-1.39,0-.57-.11-1.04-.33-1.39-.2-.35-.47-.61-.8-.79-.33-.18-.7-.27-1.11-.27-.37,0-.73.08-1.08.25-.36.18-.64.46-.85.83-.21.37-.31.83-.31,1.38,0,.58.11,1.05.33,1.41.2.36.47.62.8.81.33.18.7.27,1.11.27.37,0,.73-.09,1.08-.26Z"/>
    <path class="cls-6" d="M634.48,297.97c-.36-.24-.65-.56-.85-.97s-.3-.87-.3-1.37v-3.88c0-.17.06-.32.19-.44s.28-.18.45-.18.32.06.44.18.18.27.18.44v3.75c0,1.1.5,1.65,1.49,1.65.44,0,.83-.11,1.18-.33s.7-.54,1.05-.97v-4.1c0-.17.06-.32.19-.44s.28-.18.45-.18.32.06.44.18.18.27.18.44v5.87c0,.17-.06.32-.18.45-.12.13-.27.19-.44.19s-.32-.06-.45-.19c-.13-.13-.19-.28-.19-.45v-.52c-.37.4-.76.71-1.16.92-.4.21-.86.31-1.37.31s-.93-.12-1.31-.36Z"/>
    <path class="cls-6" d="M641.91,298.08c-.12-.12-.18-.27-.18-.44v-5.87c0-.17.06-.32.18-.45.12-.13.27-.19.44-.19s.32.06.45.19c.13.13.19.28.19.45v.55c.63-.84,1.34-1.26,2.13-1.26h.07c.17,0,.32.06.44.18s.18.27.18.44-.06.32-.18.43c-.12.11-.28.17-.46.17h-.07c-.43,0-.82.1-1.18.31s-.67.5-.92.88v4.16c0,.17-.06.32-.19.44s-.28.18-.45.18-.32-.06-.44-.18Z"/>
    <path class="cls-6" d="M646.73,297.71c-.16-.11-.23-.26-.23-.46,0-.15.05-.28.16-.39.1-.11.23-.17.39-.17.09,0,.17.02.25.05.31.14.61.24.9.31s.61.1.96.1c1,0,1.5-.32,1.5-.96,0-.2-.11-.36-.33-.46-.23-.11-.61-.23-1.15-.37-.53-.12-.97-.25-1.33-.4-.39-.15-.71-.36-.94-.66-.24-.29-.36-.65-.36-1.08,0-.65.24-1.17.71-1.57.47-.4,1.13-.6,1.97-.6.73,0,1.39.11,1.98.34.13.04.23.11.3.21.07.1.11.21.11.33,0,.15-.05.28-.16.39-.11.11-.24.17-.4.17l-.18-.03c-.55-.16-1.07-.25-1.56-.25s-.85.09-1.13.26c-.28.17-.42.4-.42.68,0,.26.12.46.37.59.26.12.66.24,1.19.37.49.13.93.26,1.31.4.37.15.67.37.9.66.23.3.34.67.34,1.11,0,.59-.24,1.08-.71,1.46s-1.12.57-1.94.57c-.9,0-1.74-.21-2.5-.62Z"/>
    <path class="cls-6" d="M653.62,292.56c-.16-.15-.23-.34-.23-.55v-.08c0-.21.08-.39.23-.55.16-.15.34-.23.55-.23h.14c.21,0,.39.08.55.23.16.16.23.34.23.55v.08c0,.21-.08.39-.23.55-.16.16-.34.23-.55.23h-.14c-.21,0-.39-.08-.55-.23ZM653.62,298c-.16-.15-.23-.34-.23-.55v-.08c0-.21.08-.39.23-.55.16-.15.34-.23.55-.23h.14c.21,0,.39.08.55.23.16.16.23.34.23.55v.08c0,.21-.08.39-.23.55-.16.16-.34.23-.55.23h-.14c-.21,0-.39-.08-.55-.23Z"/>
    <path class="cls-6" d="M661.61,298.08c-.12-.12-.18-.27-.18-.44v-8.16c0-.25.09-.46.27-.64.18-.18.39-.27.64-.27h.45c.17,0,.34.05.49.16.16.11.27.25.36.43l2.98,7.44c.03.06.06.1.11.1s.08-.03.11-.1l2.98-7.44c.08-.18.2-.33.36-.43.16-.1.32-.16.49-.16h.45c.25,0,.46.09.64.27.18.18.27.4.27.64v8.16c0,.17-.06.32-.18.44s-.27.18-.44.18-.32-.06-.45-.18-.19-.27-.19-.44v-7.22c0-.08-.03-.12-.08-.12-.04,0-.07.03-.1.08l-2.95,7.3c-.07.17-.19.31-.36.42s-.34.16-.53.16-.37-.05-.53-.16-.28-.25-.36-.42l-2.95-7.3c-.03-.05-.06-.08-.1-.08-.05,0-.08.04-.08.12v7.22c0,.17-.06.32-.19.44s-.28.18-.45.18-.32-.06-.44-.18Z"/>
    <path class="cls-6" d="M675.44,297.88c-.53-.31-.94-.74-1.23-1.3-.29-.56-.44-1.18-.44-1.89s.15-1.34.44-1.9c.29-.56.7-.98,1.24-1.29s1.15-.45,1.84-.45,1.3.15,1.83.45c.54.31.95.74,1.24,1.29.29.55.44,1.18.44,1.89s-.15,1.34-.44,1.89c-.3.57-.72,1-1.25,1.3s-1.14.45-1.83.45-1.31-.15-1.85-.45ZM678.36,296.91c.36-.18.64-.46.85-.84.21-.38.31-.84.31-1.39,0-.57-.11-1.04-.33-1.39-.2-.35-.47-.61-.8-.79-.33-.18-.7-.27-1.11-.27-.37,0-.73.08-1.08.25-.36.18-.64.46-.85.83-.21.37-.31.83-.31,1.38,0,.58.11,1.05.33,1.41.2.36.47.62.8.81.33.18.7.27,1.11.27.37,0,.73-.09,1.08-.26Z"/>
    <path class="cls-6" d="M682.69,298.08c-.12-.12-.18-.27-.18-.44v-5.87c0-.17.06-.32.18-.45.12-.13.27-.19.44-.19s.32.06.45.19c.13.13.19.28.19.45v.52c.37-.4.76-.71,1.16-.92.4-.21.86-.31,1.37-.31s.94.12,1.33.36c.36.24.64.56.84.97s.29.87.29,1.37v3.88c0,.17-.06.32-.19.44s-.28.18-.45.18-.32-.06-.44-.18-.18-.27-.18-.44v-3.75c0-1.1-.5-1.65-1.49-1.65-.44,0-.83.11-1.18.33s-.7.54-1.05.97v4.1c0,.17-.06.32-.19.44s-.28.18-.45.18-.32-.06-.44-.18Z"/>
    <path class="cls-6" d="M690.93,298c-.16-.15-.23-.34-.23-.55v-.08c0-.21.08-.39.23-.55.16-.15.34-.23.55-.23h.14c.21,0,.39.08.55.23.16.16.23.34.23.55v.08c0,.21-.08.39-.23.55-.16.16-.34.23-.55.23h-.14c-.21,0-.39-.08-.55-.23Z"/>
    <path class="cls-6" d="M694.41,294.75c-.11-.11-.16-.24-.16-.4,0-.16.05-.3.16-.41s.24-.16.4-.16h2.58c.16,0,.29.06.4.17.11.11.17.25.17.4,0,.16-.05.3-.16.4-.11.11-.25.16-.41.16h-2.58c-.16,0-.29-.05-.4-.16Z"/>
    <path class="cls-6" d="M704.5,298.08c-.12-.12-.18-.27-.18-.44v-8.37c0-.17.06-.32.18-.45.12-.13.27-.19.44-.19h5.32c.16,0,.31.06.42.18.12.12.18.26.18.42s-.06.3-.18.42c-.12.11-.26.17-.42.17h-4.51c-.11,0-.16.05-.16.16v2.83h4.2c.16,0,.31.06.42.18.12.12.18.26.18.42s-.06.3-.18.42c-.12.11-.26.17-.42.17h-4.2v3.64c0,.17-.06.32-.19.44s-.28.18-.45.18-.32-.06-.44-.18Z"/>
    <path class="cls-6" d="M712.19,298.08c-.12-.12-.18-.27-.18-.44v-5.87c0-.17.06-.32.18-.45.12-.13.27-.19.44-.19s.32.06.45.19c.13.13.19.28.19.45v.55c.63-.84,1.34-1.26,2.13-1.26h.07c.17,0,.32.06.44.18s.18.27.18.44-.06.32-.18.43c-.12.11-.28.17-.46.17h-.07c-.43,0-.82.1-1.18.31s-.67.5-.92.88v4.16c0,.17-.06.32-.19.44s-.28.18-.45.18-.32-.06-.44-.18Z"/>
    <path class="cls-6" d="M717.35,289.59c-.14-.14-.21-.31-.21-.5v-.05c0-.19.07-.36.21-.5.14-.14.31-.21.5-.21h.08c.19,0,.36.07.5.21.14.14.21.31.21.5v.05c0,.19-.07.36-.21.5-.14.14-.31.21-.5.21h-.08c-.19,0-.36-.07-.5-.21ZM717.43,298.08c-.12-.12-.18-.27-.18-.44v-5.87c0-.17.06-.32.18-.45.12-.13.27-.19.44-.19.18,0,.33.06.46.18s.18.28.18.46v5.87c0,.17-.06.32-.19.44s-.28.18-.45.18-.32-.06-.44-.18Z"/>
    <path class="cls-6" d="M720.74,298c-.16-.15-.23-.34-.23-.55v-.08c0-.21.08-.39.23-.55.16-.15.34-.23.55-.23h.14c.21,0,.39.08.55.23.16.16.23.34.23.55v.08c0,.21-.08.39-.23.55-.16.16-.34.23-.55.23h-.14c-.21,0-.39-.08-.55-.23Z"/>
    <path class="cls-6" d="M731.22,290.19s-.08-.02-.14.02l-1.19.57c-.12.05-.22.08-.31.08-.17,0-.32-.06-.43-.17-.11-.11-.17-.26-.17-.43,0-.26.12-.46.37-.57l1.86-.97c.1-.06.23-.1.38-.1h.29c.18,0,.34.07.47.2.13.13.2.29.2.47v7.93h-1.27v-6.9c0-.06-.02-.11-.05-.13ZM729.24,298.02c-.11-.11-.17-.25-.17-.42s.06-.3.17-.42c.11-.12.25-.18.42-.18h4.22c.16,0,.31.06.42.18.12.12.18.26.18.42s-.06.3-.18.42c-.12.11-.26.17-.42.17h-4.22c-.16,0-.3-.06-.42-.17Z"/>
    <path class="cls-6" d="M737.36,297.02c-.64-.88-.96-2.08-.96-3.61s.32-2.73.96-3.61,1.56-1.31,2.75-1.31,2.09.43,2.74,1.3c.65.87.98,2.07.98,3.62s-.33,2.76-.98,3.62c-.65.87-1.57,1.3-2.74,1.3s-2.11-.44-2.75-1.31ZM741.92,296.17c.43-.65.64-1.57.64-2.77s-.21-2.1-.64-2.75c-.43-.65-1.03-.98-1.8-.98s-1.38.33-1.8.98c-.43.65-.64,1.57-.64,2.75s.21,2.12.64,2.77c.43.65,1.03.98,1.8.98s1.38-.33,1.8-.98Z"/>
    <path class="cls-6" d="M745.57,292.56c-.16-.15-.23-.34-.23-.55v-.08c0-.21.08-.39.23-.55.16-.15.34-.23.55-.23h.14c.21,0,.39.08.55.23.16.16.23.34.23.55v.08c0,.21-.08.39-.23.55-.16.16-.34.23-.55.23h-.14c-.21,0-.39-.08-.55-.23ZM745.57,298c-.16-.15-.23-.34-.23-.55v-.08c0-.21.08-.39.23-.55.16-.15.34-.23.55-.23h.14c.21,0,.39.08.55.23.16.16.23.34.23.55v.08c0,.21-.08.39-.23.55-.16.16-.34.23-.55.23h-.14c-.21,0-.39-.08-.55-.23Z"/>
    <path class="cls-6" d="M749.5,297.02c-.64-.88-.96-2.08-.96-3.61s.32-2.73.96-3.61,1.56-1.31,2.75-1.31,2.09.43,2.74,1.3c.65.87.98,2.07.98,3.62s-.33,2.76-.98,3.62c-.65.87-1.57,1.3-2.74,1.3s-2.11-.44-2.75-1.31ZM754.06,296.17c.43-.65.64-1.57.64-2.77s-.21-2.1-.64-2.75c-.43-.65-1.03-.98-1.8-.98s-1.38.33-1.8.98c-.43.65-.64,1.57-.64,2.75s.21,2.12.64,2.77c.43.65,1.03.98,1.8.98s1.38-.33,1.8-.98Z"/>
    <path class="cls-6" d="M758.09,297.02c-.64-.88-.96-2.08-.96-3.61s.32-2.73.96-3.61,1.56-1.31,2.75-1.31,2.09.43,2.74,1.3c.65.87.98,2.07.98,3.62s-.33,2.76-.98,3.62c-.65.87-1.57,1.3-2.74,1.3s-2.11-.44-2.75-1.31ZM762.65,296.17c.43-.65.64-1.57.64-2.77s-.21-2.1-.64-2.75c-.43-.65-1.03-.98-1.8-.98s-1.38.33-1.8.98c-.43.65-.64,1.57-.64,2.75s.21,2.12.64,2.77c.43.65,1.03.98,1.8.98s1.38-.33,1.8-.98Z"/>
    <path class="cls-6" d="M766.23,294.75c-.11-.11-.16-.24-.16-.4,0-.16.05-.3.16-.41s.24-.16.4-.16h2.58c.16,0,.29.06.4.17.11.11.17.25.17.4,0,.16-.05.3-.16.4-.11.11-.25.16-.41.16h-2.58c-.16,0-.29-.05-.4-.16Z"/>
    <path class="cls-6" d="M774.7,290.19s-.08-.02-.14.02l-1.19.57c-.12.05-.22.08-.31.08-.17,0-.32-.06-.43-.17-.11-.11-.17-.26-.17-.43,0-.26.12-.46.37-.57l1.86-.97c.1-.06.23-.1.38-.1h.29c.18,0,.34.07.47.2.13.13.2.29.2.47v7.93h-1.27v-6.9c0-.06-.02-.11-.05-.13ZM772.72,298.02c-.11-.11-.17-.25-.17-.42s.06-.3.17-.42c.11-.12.25-.18.42-.18h4.22c.16,0,.31.06.42.18.12.12.18.26.18.42s-.06.3-.18.42c-.12.11-.26.17-.42.17h-4.22c-.16,0-.3-.06-.42-.17Z"/>
    <path class="cls-6" d="M781.5,297.93c-.53-.25-.92-.58-1.18-.98-.26-.4-.39-.83-.39-1.3,0-1.27.67-2.13,2.01-2.58-.47-.17-.85-.44-1.13-.79s-.42-.78-.42-1.29c0-.41.11-.8.33-1.16.22-.41.57-.74,1.07-.98.49-.24,1.1-.36,1.82-.36.76,0,1.37.12,1.85.37.46.24.8.55,1.03.93s.34.78.34,1.2c0,.5-.14.93-.42,1.29s-.66.62-1.13.79c1.34.46,2.01,1.32,2.01,2.58,0,.46-.12.88-.37,1.29-.25.43-.66.77-1.22,1.02-.56.25-1.25.38-2.07.38s-1.54-.13-2.09-.4ZM784.99,296.92c.33-.17.58-.39.75-.64.17-.25.25-.51.25-.77,0-.56-.23-1.01-.68-1.34s-1.02-.49-1.72-.49-1.26.16-1.72.49-.68.78-.68,1.34c0,.23.08.47.25.74.17.28.44.51.8.69s.81.27,1.35.27c.57,0,1.03-.1,1.39-.29ZM785.04,292.11c.33-.28.49-.63.49-1.05,0-.46-.17-.81-.52-1.07s-.82-.39-1.42-.39-1.08.13-1.42.39-.52.62-.52,1.07c0,.42.16.77.49,1.05.33.28.81.42,1.45.42s1.12-.14,1.45-.42Z"/>
    <path class="cls-6" d="M789.05,292.56c-.16-.15-.23-.34-.23-.55v-.08c0-.21.08-.39.23-.55.16-.15.34-.23.55-.23h.14c.21,0,.39.08.55.23.16.16.23.34.23.55v.08c0,.21-.08.39-.23.55-.16.16-.34.23-.55.23h-.14c-.21,0-.39-.08-.55-.23ZM789.05,298c-.16-.15-.23-.34-.23-.55v-.08c0-.21.08-.39.23-.55.16-.15.34-.23.55-.23h.14c.21,0,.39.08.55.23.16.16.23.34.23.55v.08c0,.21-.08.39-.23.55-.16.16-.34.23-.55.23h-.14c-.21,0-.39-.08-.55-.23Z"/>
    <path class="cls-6" d="M792.6,297.78c-.25-.1-.37-.28-.37-.53,0-.16.05-.3.16-.42.1-.11.24-.17.4-.17.08,0,.17.02.26.05.67.26,1.39.4,2.17.4s1.37-.12,1.83-.37.69-.62.69-1.13c0-1.14-1-1.71-3.01-1.71h-.22c-.16,0-.29-.06-.41-.18-.12-.12-.18-.25-.18-.41s.06-.29.18-.41c.12-.12.25-.18.41-.18h.08c.92,0,1.62-.14,2.09-.42.47-.28.71-.69.71-1.22,0-.45-.19-.79-.56-1.04s-.9-.37-1.59-.37c-.77,0-1.47.15-2.12.45-.09.04-.17.05-.25.05-.14,0-.26-.05-.36-.15-.1-.1-.16-.22-.16-.37,0-.21.1-.37.29-.48.87-.46,1.77-.7,2.71-.7,1.05,0,1.86.21,2.44.64.58.43.87,1.04.87,1.83,0,.59-.15,1.08-.44,1.46-.3.38-.7.66-1.22.84v-.03c.58.13,1.06.39,1.44.79.38.4.57.95.57,1.65,0,.83-.33,1.48-.98,1.95-.65.47-1.51.7-2.58.7s-1.99-.18-2.86-.55Z"/>
    <path class="cls-6" d="M801.57,297.02c-.64-.88-.96-2.08-.96-3.61s.32-2.73.96-3.61,1.56-1.31,2.75-1.31,2.09.43,2.74,1.3c.65.87.98,2.07.98,3.62s-.33,2.76-.98,3.62c-.65.87-1.57,1.3-2.74,1.3s-2.11-.44-2.75-1.31ZM806.13,296.17c.43-.65.64-1.57.64-2.77s-.21-2.1-.64-2.75c-.43-.65-1.03-.98-1.8-.98s-1.38.33-1.8.98c-.43.65-.64,1.57-.64,2.75s.21,2.12.64,2.77c.43.65,1.03.98,1.8.98s1.38-.33,1.8-.98Z"/>
    <path class="cls-6" d="M828.16,297.64c-.76-.44-1.36-1.03-1.8-1.79-.44-.76-.66-1.57-.66-2.45s.22-1.7.67-2.46c.44-.75,1.04-1.34,1.8-1.78.76-.44,1.58-.66,2.45-.66s1.71.22,2.47.66c.76.45,1.35,1.05,1.79,1.8.44.76.66,1.57.66,2.45s-.22,1.7-.66,2.46c-.45.75-1.05,1.34-1.81,1.78-.76.44-1.58.66-2.45.66s-1.7-.22-2.46-.67ZM832.72,297c.65-.38,1.16-.89,1.53-1.52.37-.63.56-1.32.56-2.07s-.19-1.44-.56-2.08c-.39-.65-.91-1.16-1.54-1.53-.64-.37-1.33-.56-2.09-.56s-1.44.19-2.08.56c-.65.39-1.16.91-1.53,1.54-.37.63-.56,1.32-.56,2.07s.19,1.45.57,2.08c.38.65.89,1.16,1.52,1.53.63.37,1.32.56,2.07.56s1.48-.19,2.11-.57ZM829.33,295.85c-.4-.23-.71-.56-.94-.99-.22-.43-.33-.92-.33-1.46s.11-1.04.34-1.46c.23-.43.54-.76.94-.98.4-.23.85-.34,1.37-.34s.99.13,1.39.38c.4.25.71.61.94,1.07.03.05.04.11.04.18,0,.12-.04.22-.13.31-.09.09-.19.14-.32.14-.18,0-.33-.1-.44-.31-.34-.6-.83-.9-1.48-.9-.53,0-.95.18-1.25.54-.31.36-.46.82-.46,1.39s.15,1.03.46,1.39c.31.36.72.54,1.25.54.65,0,1.14-.3,1.48-.9.11-.21.25-.31.44-.31.13,0,.23.04.32.12s.13.19.13.33c0,.06-.01.12-.04.18-.23.46-.54.82-.94,1.07-.4.25-.86.38-1.39.38s-.98-.11-1.38-.34Z"/>
    <path class="cls-6" d="M841.4,297.99c-.14-.13-.21-.31-.21-.53,0-.48.14-.92.42-1.33.25-.37.57-.71.93-1,.36-.3.91-.68,1.64-1.14.53-.34.97-.64,1.33-.9.77-.57,1.15-1.15,1.15-1.72s-.18-.96-.54-1.25-.9-.43-1.61-.43c-.82,0-1.6.16-2.34.49-.11.05-.2.07-.26.07-.15,0-.27-.05-.38-.16-.1-.1-.16-.23-.16-.39,0-.23.1-.4.31-.52.93-.46,1.94-.7,3.04-.7.6,0,1.13.11,1.6.34.49.24.88.57,1.15.99s.41.91.41,1.46-.16,1.06-.46,1.5c-.29.43-.64.81-1.05,1.15-.41.34-1,.76-1.8,1.27-.69.47-1.19.83-1.48,1.07-.3.24-.5.49-.62.73h4.73c.16,0,.31.06.42.18.12.12.18.26.18.42s-.06.3-.18.42c-.12.11-.26.17-.42.17h-5.28c-.22,0-.4-.07-.53-.2Z"/>
    <path class="cls-6" d="M850.44,297.02c-.64-.88-.96-2.08-.96-3.61s.32-2.73.96-3.61,1.56-1.31,2.75-1.31,2.09.43,2.74,1.3c.65.87.98,2.07.98,3.62s-.33,2.76-.98,3.62c-.65.87-1.57,1.3-2.74,1.3s-2.11-.44-2.75-1.31ZM855,296.17c.43-.65.64-1.57.64-2.77s-.21-2.1-.64-2.75c-.43-.65-1.03-.98-1.8-.98s-1.38.33-1.8.98c-.43.65-.64,1.57-.64,2.75s.21,2.12.64,2.77c.43.65,1.03.98,1.8.98s1.38-.33,1.8-.98Z"/>
    <path class="cls-6" d="M858.57,297.99c-.14-.13-.21-.31-.21-.53,0-.48.14-.92.42-1.33.25-.37.57-.71.93-1,.36-.3.91-.68,1.64-1.14.53-.34.97-.64,1.33-.9.77-.57,1.15-1.15,1.15-1.72s-.18-.96-.54-1.25-.9-.43-1.61-.43c-.82,0-1.6.16-2.34.49-.11.05-.2.07-.26.07-.15,0-.27-.05-.38-.16-.1-.1-.16-.23-.16-.39,0-.23.1-.4.31-.52.93-.46,1.94-.7,3.04-.7.6,0,1.13.11,1.6.34.49.24.88.57,1.15.99s.41.91.41,1.46-.16,1.06-.46,1.5c-.29.43-.64.81-1.05,1.15-.41.34-1,.76-1.8,1.27-.69.47-1.19.83-1.48,1.07-.3.24-.5.49-.62.73h4.73c.16,0,.31.06.42.18.12.12.18.26.18.42s-.06.3-.18.42c-.12.11-.26.17-.42.17h-5.28c-.22,0-.4-.07-.53-.2Z"/>
    <path class="cls-6" d="M871.55,298.08c-.12-.12-.18-.27-.18-.44v-1.85h-4.16c-.22,0-.41-.08-.57-.23-.16-.15-.24-.34-.24-.56v-.12c0-.19.05-.36.16-.51l4.29-5.48c.08-.1.18-.18.31-.24.12-.06.25-.09.39-.09h.27c.24,0,.43.08.58.23.15.16.23.35.23.57v5.29h1.03c.16,0,.29.06.4.17.11.11.17.25.17.4,0,.16-.05.3-.16.4-.11.11-.25.16-.41.16h-1.03v1.85c0,.17-.06.32-.19.44s-.28.18-.45.18-.32-.06-.44-.18ZM871.37,294.65v-4.32s0-.07-.03-.1-.04-.04-.05-.04c-.03,0-.06.03-.11.08l-3.25,4.18s-.05.07-.05.1c0,.06.05.1.15.1h3.35Z"/>
    <path class="cls-6" d="M881.81,297.7c-.74-.42-1.31-1-1.71-1.74-.4-.74-.6-1.59-.6-2.54s.21-1.82.63-2.57c.42-.75.99-1.33,1.72-1.74.73-.41,1.54-.62,2.42-.62.67,0,1.28.08,1.81.25s1.06.41,1.59.74c.08.04.15.1.21.2s.08.2.08.31c0,.16-.05.29-.16.4-.11.11-.25.17-.42.17-.08,0-.18-.02-.29-.07-.44-.25-.87-.45-1.3-.57-.43-.13-.89-.19-1.38-.19-.67,0-1.29.15-1.87.44-.57.3-1,.73-1.31,1.3-.31.57-.46,1.22-.46,1.97,0,.7.15,1.34.45,1.9.3.57.73,1.02,1.3,1.33s1.22.47,1.96.47c.84,0,1.63-.2,2.38-.6v-2.28c0-.11-.05-.16-.16-.16h-2.08c-.16,0-.29-.06-.4-.17-.11-.11-.17-.25-.17-.4s.06-.29.17-.4c.11-.11.25-.17.4-.17h2.69c.18,0,.34.07.47.2.13.13.2.29.2.47v3.1c0,.19-.05.36-.14.51s-.22.27-.4.35c-1.04.51-2.08.77-3.13.77-.95,0-1.78-.21-2.5-.63Z"/>
    <path class="cls-6" d="M891.42,297.88c-.53-.31-.94-.74-1.23-1.3-.29-.56-.44-1.18-.44-1.89s.15-1.34.44-1.9c.29-.56.7-.98,1.24-1.29s1.15-.45,1.84-.45,1.3.15,1.83.45c.54.31.95.74,1.24,1.29.29.55.44,1.18.44,1.89s-.15,1.34-.44,1.89c-.3.57-.72,1-1.25,1.3s-1.14.45-1.83.45-1.31-.15-1.85-.45ZM894.35,296.91c.36-.18.64-.46.85-.84.21-.38.31-.84.31-1.39,0-.57-.11-1.04-.33-1.39-.2-.35-.47-.61-.8-.79-.33-.18-.7-.27-1.11-.27-.37,0-.73.08-1.08.25-.36.18-.64.46-.85.83-.21.37-.31.83-.31,1.38,0,.58.11,1.05.33,1.41.2.36.47.62.8.81.33.18.7.27,1.11.27.37,0,.73-.09,1.08-.26Z"/>
    <path class="cls-6" d="M899.91,297.89c-.57-.3-1.03-.73-1.35-1.29-.33-.56-.49-1.19-.49-1.91s.17-1.38.51-1.94c.33-.54.77-.95,1.32-1.25.55-.3,1.16-.44,1.84-.44.46,0,.86.06,1.2.17.35.11.69.28,1.04.49.18.13.27.29.27.49,0,.14-.05.26-.16.38-.11.12-.23.18-.37.18-.09,0-.19-.03-.3-.08-.32-.16-.58-.28-.79-.34-.21-.06-.47-.1-.78-.1-.77,0-1.37.22-1.83.66-.45.44-.68,1.04-.68,1.78s.23,1.34.68,1.78c.45.44,1.06.66,1.83.66.31,0,.57-.03.78-.1.21-.06.47-.18.79-.34.11-.05.21-.08.3-.08.14,0,.26.06.37.18.11.12.16.25.16.38,0,.2-.09.37-.27.49-.35.21-.69.37-1.04.49-.35.11-.75.17-1.2.17-.65,0-1.25-.15-1.82-.44Z"/>
    <path class="cls-6" d="M905.96,298.08c-.12-.12-.18-.27-.18-.44v-8.87c0-.17.06-.32.18-.45.12-.13.27-.19.44-.19s.32.06.45.19c.13.13.19.28.19.45v3.53c.37-.4.76-.71,1.16-.92.4-.21.86-.31,1.37-.31s.94.12,1.33.36c.36.24.64.56.84.97s.29.87.29,1.37v3.88c0,.17-.06.32-.19.44s-.28.18-.45.18-.32-.06-.44-.18-.18-.27-.18-.44v-3.75c0-1.1-.5-1.65-1.49-1.65-.44,0-.83.11-1.18.33s-.7.54-1.05.97v4.1c0,.17-.06.32-.19.44s-.28.18-.45.18-.32-.06-.44-.18Z"/>
    <path class="cls-6" d="M914.79,298.08c-.36-.16-.63-.41-.83-.72-.2-.32-.3-.68-.3-1.09,0-.71.28-1.26.83-1.65.55-.39,1.33-.58,2.33-.58h1.64v-.1c0-.58-.14-1.01-.43-1.28-.29-.27-.75-.4-1.39-.4-.33,0-.62.03-.89.08-.26.05-.57.13-.93.25l-.18.03c-.14,0-.26-.05-.36-.16-.1-.1-.16-.23-.16-.38,0-.25.12-.43.37-.53.77-.33,1.55-.49,2.37-.49.63,0,1.17.13,1.61.38.42.25.73.57.94.98.21.41.31.85.31,1.35v3.87c0,.17-.06.32-.19.44s-.28.18-.45.18-.32-.06-.44-.18-.18-.27-.18-.44v-.33c-.66.68-1.51,1.03-2.56,1.03-.39,0-.76-.08-1.11-.25ZM917.5,296.93c.37-.19.69-.43.95-.73v-1.13h-1.48c-1.37,0-2.05.36-2.05,1.07s.48,1.08,1.44,1.08c.39,0,.77-.09,1.14-.28Z"/>
    <path class="cls-6" d="M921.97,298.08c-.12-.12-.18-.27-.18-.44v-5.87c0-.17.06-.32.18-.45.12-.13.27-.19.44-.19s.32.06.45.19c.13.13.19.28.19.45v.55c.63-.84,1.34-1.26,2.13-1.26h.07c.17,0,.32.06.44.18s.18.27.18.44-.06.32-.18.43c-.12.11-.28.17-.46.17h-.07c-.43,0-.82.1-1.18.31s-.67.5-.92.88v4.16c0,.17-.06.32-.19.44s-.28.18-.45.18-.32-.06-.44-.18Z"/>
    <path class="cls-6" d="M927.71,298.08c-.36-.16-.63-.41-.83-.72-.2-.32-.3-.68-.3-1.09,0-.71.28-1.26.83-1.65.55-.39,1.33-.58,2.33-.58h1.64v-.1c0-.58-.14-1.01-.43-1.28-.29-.27-.75-.4-1.39-.4-.33,0-.62.03-.89.08-.26.05-.57.13-.93.25l-.18.03c-.14,0-.26-.05-.36-.16-.1-.1-.16-.23-.16-.38,0-.25.12-.43.37-.53.77-.33,1.55-.49,2.37-.49.63,0,1.17.13,1.61.38.42.25.73.57.94.98.21.41.31.85.31,1.35v3.87c0,.17-.06.32-.19.44s-.28.18-.45.18-.32-.06-.44-.18-.18-.27-.18-.44v-.33c-.66.68-1.51,1.03-2.56,1.03-.39,0-.76-.08-1.11-.25ZM930.42,296.93c.37-.19.69-.43.95-.73v-1.13h-1.48c-1.37,0-2.05.36-2.05,1.07s.48,1.08,1.44,1.08c.39,0,.77-.09,1.14-.28Z"/>
    <path class="cls-6" d="M940.21,298.88v-6.41c-.57,1.13-.98,1.7-1.23,1.7-.32,0-.48-.21-.48-.63,0-.16.15-.48.44-.96.87-1.46,1.58-3.08,2.13-4.85.08-.24.17-.41.26-.52s.21-.16.37-.16c.42,0,.63.18.63.53,0,.21-.24.85-.71,1.91l-.33.75v8.54c0,.49-.18.74-.53.74s-.55-.21-.55-.64ZM945.82,298.89v-3.75c-.55.91-1.2,1.69-1.96,2.32-.81.68-1.38,1.03-1.7,1.03s-.49-.2-.49-.59c0-.25.18-.46.55-.63.63-.3,1.27-.76,1.91-1.38.64-.61,1.12-1.18,1.44-1.71h-2.95c-.42,0-.63-.17-.63-.51s.21-.51.63-.51h3.2v-1.53h1.05v1.53h3.39c.42,0,.63.17.63.51s-.21.51-.63.51h-3.16c.8,1.29,1.85,2.26,3.14,2.93.49.25.74.48.74.71,0,.41-.18.62-.55.62-.42,0-.99-.35-1.72-1.04-.75-.71-1.36-1.47-1.85-2.28v3.77c0,.42-.18.63-.53.63s-.52-.21-.52-.63ZM943.1,291.59c-.18-.18-.26-.46-.25-.85v-2.02c0-.4.09-.69.27-.88.18-.18.46-.26.84-.25h4.88c.42,0,.72.09.9.27s.26.47.23.87v2c0,.41-.09.71-.27.89-.18.18-.47.26-.87.25h-4.88c-.39,0-.68-.09-.86-.27ZM948.89,290.38v-1.31c0-.3-.16-.46-.48-.48h-4.03c-.3,0-.45.16-.45.46v1.34c0,.29.15.45.45.46h4.03c.3,0,.46-.16.48-.48Z"/>
    <path class="cls-6" d="M952.5,292.6c0-.35.31-.58.92-.7l-.12-3.2c0-.19.04-.36.14-.49s.25-.24.44-.31l2.27-.51.97-.29c.15-.04.28-.07.4-.07.37,0,.56.19.56.57,0,.17-.05.3-.16.37-.07.05-.53.19-1.38.4-1.18.22-1.82.37-1.94.44-.1.06-.16.22-.18.46l.08,2.38,2.38-.66-.56-.86c-.12-.19-.18-.33-.18-.41,0-.29.16-.44.48-.44.1,0,.23.09.4.26.16.17.37.44.63.81.49.71.74,1.18.74,1.39,0,.35-.18.52-.53.52-.22,0-.41-.16-.57-.49l-3.73,1.31c-.16.06-.34.1-.52.1-.34,0-.51-.2-.51-.59ZM953.84,298.77c-.21-.2-.3-.52-.27-.97v-3.02c0-.46.1-.79.31-1,.21-.21.53-.3.96-.27h7.81c.46,0,.79.1,1,.3.21.2.3.52.27.97v3.02c0,.46-.1.8-.3,1.01s-.52.3-.97.26h-7.81c-.46,0-.79-.1-1-.3ZM958.13,295.81v-1.35h-2.91c-.33,0-.5.17-.52.52v.83h3.43ZM958.13,298.11v-1.39h-3.43v.89c0,.32.17.49.52.51h2.91ZM957.94,292.71c0-.24.14-.42.41-.55.78-.37,1.33-.92,1.64-1.63.16-.36.25-1,.3-1.9h-1.29c-.42,0-.63-.17-.63-.52s.21-.51.63-.51h4.46c.78,0,1.18.31,1.18.94l-.08,1.18c-.05.7-.12,1.28-.21,1.74-.09.46-.18.77-.27.94-.31.52-.99.78-2.05.78-.45,0-.67-.21-.67-.64,0-.36.21-.55.64-.56.61-.02.98-.13,1.11-.34.16-.25.28-1,.37-2.26l.03-.37c0-.25-.14-.38-.45-.38h-1.65c-.08,2.03-.78,3.47-2.1,4.31-.34.21-.62.31-.83.31-.35,0-.52-.18-.52-.55ZM962.78,295.81v-.83c0-.33-.17-.5-.51-.52h-3.06v1.35h3.57ZM962.78,297.6v-.89h-3.57v1.39h3.06c.34,0,.51-.17.51-.51Z"/>
    <path class="cls-6" d="M966.52,298.66c0-.12.07-.33.21-.63.41-.87.62-2.72.62-5.55v-.93c-.02-.42.07-.74.25-.96s.47-.33.84-.33h2.73c.4,0,.7.09.88.27s.27.46.24.85v2.26c0,.4-.09.69-.27.87s-.46.25-.85.23h-2.73c-.04,1.14-.21,2.2-.51,3.19-.25.84-.54,1.26-.86,1.26-.36,0-.55-.17-.55-.52ZM966.78,288.18c0-.36.18-.53.55-.53h4.8c.36,0,.55.18.55.55s-.18.53-.55.53h-4.8c-.36,0-.55-.18-.55-.55ZM971.2,293.26v-1.52c0-.29-.16-.45-.46-.46h-1.8c-.32,0-.48.18-.48.55v1.9h2.28c.29,0,.45-.15.46-.46ZM976.41,298.79v-6.21h-2.23c-.05,1.75-.22,3-.49,3.76-.27.74-.68,1.41-1.23,2.01-.55.59-.97.89-1.26.89-.39,0-.59-.21-.59-.64,0-.17.16-.37.46-.6,1.03-.77,1.65-1.85,1.87-3.24.13-.78.19-1.79.19-3.01v-1.61c0-1.03.07-1.63.22-1.8.08-.09.21-.17.38-.23.17-.06.4-.12.7-.18,1.58-.29,2.56-.51,2.94-.66.18-.07.35-.11.51-.11.41,0,.62.21.62.62,0,.26-.18.43-.55.53-.86.25-1.85.44-2.97.57-.23.03-.4.09-.53.18s-.19.21-.21.35l-.04,2.09h4.31c.31,0,.46.18.46.55s-.16.53-.46.53h-.98v6.21c0,.45-.19.67-.56.67s-.56-.22-.56-.67Z"/>
    <path class="cls-6" d="M983.3,298.77v-6.02h-.04c-1.08,1.45-1.82,2.17-2.2,2.17-.36,0-.53-.2-.53-.6,0-.2.13-.41.38-.64,1.4-1.24,2.44-2.68,3.1-4.32l.27-.68.27-1c.11-.42.31-.63.62-.63.43,0,.64.18.64.53,0,.16-.03.31-.08.46-.05.16-.16.41-.33.77l-1,2.13h5.56c.48,0,.83.11,1.05.31.22.21.31.55.29,1.03v5.69c.07,1.02-.4,1.5-1.42,1.45h-1.19c-.43,0-.64-.19-.64-.57s.21-.59.64-.59h.86c.21,0,.37-.06.48-.17.11-.11.16-.28.16-.51v-.98h-5.78v2.17c0,.45-.19.67-.56.67s-.56-.22-.56-.67ZM980.7,289c0-.35.22-.52.66-.52h3.19l-.41,1.05h-2.78c-.44,0-.66-.18-.66-.53ZM990.2,293.26v-.7c0-.18-.05-.33-.15-.43-.1-.1-.25-.16-.44-.16h-4.85c-.23,0-.34.12-.34.36v.93h5.78ZM990.2,295.58v-1.31h-5.78v1.31h5.78ZM985.34,288.48h6.96c.44,0,.66.18.66.53s-.22.52-.66.52h-7.4l.44-1.05Z"/>
    <path class="cls-6" d="M994.5,295.73c0-.17.06-.36.18-.56.38-.65.71-1.35.98-2.11.27-.76.51-1.61.73-2.57l.23,1.56c-.09.6-.24,1.23-.44,1.88-.21.65-.42,1.2-.65,1.63s-.41.66-.55.66c-.32,0-.48-.15-.48-.49ZM994.55,290.33c0-.32.18-.48.55-.48h1.52v1h-1.52c-.36,0-.55-.17-.55-.52ZM996.38,298.96v-11.38c0-.38.17-.57.51-.57.18,0,.31.05.4.14.08.09.12.24.12.44v11.38c0,.2-.04.35-.12.44s-.21.14-.4.14c-.34,0-.51-.19-.51-.57ZM997.18,289.85h.96c.31,0,.46.16.46.49s-.16.51-.46.51h-.96v-1ZM997.9,293.69l-.6-1.19c.05-.09.1-.16.18-.21.07-.05.15-.08.23-.08.11,0,.31.23.62.7s.45.77.45.92c0,.25-.14.37-.42.37-.13,0-.28-.17-.45-.51ZM999.27,298.03v-2.98c-.56.61-.94.92-1.15.92-.16,0-.27-.04-.33-.12s-.1-.21-.1-.38c0-.15.11-.33.33-.52.76-.64,1.38-1.3,1.87-2,.15-.2.31-.3.49-.3.34,0,.51.12.51.37,0,.15-.11.35-.33.6h2.01l.08-.23c.08-.25.19-.43.31-.55s.26-.18.41-.18c.33,0,.49.13.49.38,0,.05-.03.13-.08.23s-.12.22-.21.36h2.88c.29,0,.44.14.44.41s-.15.41-.44.41h-2.82v.74h2.39c.29,0,.44.13.44.4s-.15.38-.44.38h-2.39v.72h2.39c.29,0,.44.13.44.38s-.15.4-.44.4h-2.39v.82h2.91c.3,0,.45.14.45.41s-.15.41-.45.41h-6.21c-.72,0-1.08-.36-1.08-1.07ZM998.24,288.47c0-.29.16-.44.48-.44h2.06v.88h-2.06c-.32,0-.48-.15-.48-.44ZM998.79,291.67v-.74c0-.62.31-.93.93-.93h1.68c.63,0,.94.31.94.93v.71c0,.62-.31.93-.94.93h-1.68c-.62,0-.93-.3-.93-.9ZM1001.4,291.49v-.42c0-.17-.09-.26-.26-.27h-1.15c-.16,0-.25.09-.27.27v.42c0,.17.09.27.27.29h1.15c.17,0,.26-.1.26-.29ZM1002.6,295.17v-.74h-2.02c-.16,0-.25.08-.25.25v.49h2.27ZM1002.6,296.67v-.72h-2.27v.72h2.27ZM1002.6,298.27v-.82h-2.27v.45c0,.24.12.36.36.37h1.91ZM1000.54,289.28v-1.68c0-.35.17-.52.51-.52s.49.17.49.52v1.68c0,.35-.17.52-.51.52s-.49-.17-.49-.52ZM1001.29,288.03h2.45v.88h-2.45v-.88ZM1002.82,291.64v-.71c0-.62.31-.93.93-.93h1.87c.61,0,.92.31.92.93v.71c0,.61-.31.92-.92.92h-1.87c-.62,0-.93-.3-.93-.92ZM1003.49,289.28v-1.68c0-.35.17-.52.51-.52s.51.17.51.52v1.68c0,.35-.17.52-.51.52s-.51-.17-.51-.52ZM1005.58,291.48v-.41c0-.16-.1-.25-.29-.27h-1.27c-.16,0-.25.09-.27.27v.41c0,.19.09.29.27.29h1.27c.18,0,.28-.1.29-.29ZM1004.27,288.03h2.17c.33,0,.49.15.49.44s-.16.44-.49.44h-2.17v-.88Z"/>
    <path class="cls-6" d="M1011.5,298.9v-5.22c-.36.91-.8,1.75-1.33,2.52-.55.8-.92,1.2-1.13,1.2-.36,0-.55-.21-.55-.63,0-.18.14-.42.41-.72,1.09-1.23,1.93-2.64,2.52-4.24h-2.13c-.45,0-.67-.18-.67-.55s.22-.55.67-.55h2.21v-1.94l-2.09.21c-.19.02-.33-.02-.43-.12-.1-.1-.14-.25-.14-.44,0-.17.06-.3.19-.38.1-.07.4-.12.89-.15,1.27-.06,2.54-.28,3.81-.64l.3-.05c.41,0,.62.2.62.59,0,.18-.11.33-.33.44-.2.09-.77.22-1.71.4v2.11h1.72c.44,0,.66.18.66.55s-.22.55-.66.55h-1.72v1.57c.09-.12.22-.18.4-.18.06,0,.2.09.4.27s.43.43.68.75c.59.74.89,1.19.89,1.35,0,.36-.18.53-.53.53-.2,0-.42-.2-.64-.59-.11-.2-.42-.63-.94-1.3l-.25-.34v5.03c0,.41-.18.62-.55.62s-.56-.21-.56-.62ZM1015.85,295.88v-6.86c0-.43.19-.64.56-.64s.56.21.56.64v6.86c0,.42-.19.63-.56.63s-.56-.21-.56-.63ZM1017.07,298.83c0-.39.23-.59.68-.59h.71c.22,0,.39-.06.51-.19.12-.13.18-.3.18-.52v-9.65c0-.42.18-.63.55-.63s.56.21.56.63v9.95c0,.57-.13.98-.38,1.24s-.66.38-1.2.35h-.92c-.46,0-.68-.2-.68-.59Z"/>
    <path class="cls-6" d="M1027.21,294.8c-.41-.42-.62-.93-.62-1.53s.21-1.09.63-1.5c.44-.42.96-.63,1.56-.63s1.07.21,1.48.64c.42.43.63.93.63,1.5,0,.61-.21,1.12-.64,1.53-.42.41-.92.62-1.5.62s-1.12-.21-1.53-.63ZM1029.65,294.1c.23-.25.34-.52.34-.83,0-.34-.12-.62-.37-.86-.26-.25-.57-.37-.9-.37-.36,0-.65.14-.89.41-.22.25-.33.52-.33.83,0,.37.12.67.37.89.26.24.56.36.88.36.34,0,.64-.14.9-.42Z"/>
  </g>
  <g>
    <rect class="cls-6" x="207.64" y="190.97" width="654.89" height="45.7" rx="20.74" ry="20.74"/>
    <g>
      <path class="cls-9" d="M294.72,208.43l-.54-3.77-.03-.23c0-.91.47-1.37,1.42-1.37.4,0,.75.15,1.06.46.27.29.4.58.36.88l-.05.26-.54,3.77c-.09.57-.36.85-.83.85s-.77-.28-.85-.85ZM299.52,208.43l-.57-3.77-.03-.26c0-.89.47-1.34,1.42-1.34s1.42.46,1.42,1.39l-.03.21-.54,3.77c-.09.57-.37.85-.85.85s-.74-.28-.83-.85Z"/>
      <path class="cls-9" d="M309.11,222.38c-1.39-.76-2.48-1.84-3.26-3.25-.78-1.41-1.17-3.04-1.17-4.9s.4-3.51,1.19-4.92c.77-1.39,1.84-2.47,3.21-3.22,1.37-.76,2.92-1.13,4.65-1.13,1.13,0,2.16.13,3.07.39.91.26,1.85.66,2.81,1.21.4.19.59.53.59,1.01,0,.26-.1.49-.3.7-.2.21-.45.31-.76.31-.19,0-.34-.04-.46-.1-.79-.41-1.55-.72-2.27-.92-.72-.2-1.54-.3-2.45-.3-1.48,0-2.72.3-3.74.9-1.01.6-1.79,1.42-2.33,2.46s-.81,2.25-.81,3.62.27,2.57.8,3.58c.53,1.08,1.32,1.92,2.37,2.51,1.05.59,2.29.89,3.71.89.91,0,1.73-.1,2.45-.3.72-.2,1.48-.5,2.27-.92.12-.07.27-.1.46-.1.31,0,.56.1.76.3.2.2.3.43.3.71,0,.46-.2.8-.59,1.01-.96.55-1.9.95-2.81,1.21s-1.93.39-3.07.39c-1.72,0-3.26-.38-4.62-1.13Z"/>
      <path class="cls-9" d="M324.5,223.05c-.67-.31-1.19-.76-1.57-1.37-.38-.6-.57-1.29-.57-2.06,0-1.34.52-2.38,1.56-3.11s2.51-1.1,4.4-1.1h3.09v-.18c0-1.1-.27-1.9-.81-2.41-.54-.51-1.41-.76-2.62-.76-.62,0-1.18.05-1.68.14-.5.09-1.08.25-1.75.48l-.33.05c-.26,0-.49-.1-.68-.3-.2-.2-.3-.43-.3-.71,0-.48.23-.82.7-1.01,1.44-.62,2.93-.93,4.46-.93,1.19,0,2.2.24,3.04.72.79.46,1.38,1.08,1.78,1.84.4.77.59,1.61.59,2.54v7.3c0,.33-.12.61-.36.84-.24.23-.52.35-.85.35s-.61-.12-.84-.35c-.23-.23-.35-.51-.35-.84v-.62c-1.24,1.29-2.85,1.93-4.82,1.93-.74,0-1.44-.15-2.09-.46ZM329.62,220.87c.7-.35,1.29-.81,1.79-1.38v-2.14h-2.78c-2.58,0-3.87.67-3.87,2.01s.9,2.04,2.71,2.04c.74,0,1.46-.18,2.15-.53Z"/>
      <path class="cls-9" d="M338.05,228.96c-.23-.24-.35-.52-.35-.85v-16.99c0-.33.12-.61.35-.84.23-.23.51-.35.84-.35s.61.12.85.35c.24.23.36.51.36.84v.62c1.24-1.29,2.7-1.93,4.38-1.93,1.12,0,2.13.27,3.04.8,1,.55,1.78,1.36,2.36,2.42.58,1.07.86,2.28.86,3.63s-.29,2.62-.88,3.64c-.58,1.03-1.35,1.83-2.31,2.38s-1.98.84-3.08.84c-1.68,0-3.15-.64-4.38-1.93v6.52c0,.34-.12.63-.35.86s-.52.35-.86.35-.61-.12-.84-.36ZM347.23,220.05c.75-.82,1.12-1.95,1.12-3.39s-.37-2.57-1.12-3.39c-.75-.82-1.77-1.22-3.08-1.22-.76,0-1.48.17-2.18.52-.7.34-1.32.81-1.87,1.39v5.42c.55.58,1.17,1.05,1.87,1.39.7.34,1.42.52,2.18.52,1.31,0,2.33-.41,3.08-1.23Z"/>
      <path class="cls-9" d="M353.54,222.35c-.29-.21-.44-.5-.44-.88,0-.28.1-.52.3-.73.2-.21.44-.32.73-.32.17,0,.33.03.46.1.58.26,1.15.45,1.7.58.55.13,1.15.19,1.8.19,1.89,0,2.84-.6,2.84-1.8,0-.38-.21-.67-.62-.88-.43-.21-1.15-.44-2.17-.7-1-.22-1.83-.47-2.5-.75-.74-.27-1.33-.69-1.78-1.24-.45-.55-.67-1.23-.67-2.04,0-1.22.45-2.21,1.34-2.97.89-.76,2.13-1.13,3.71-1.13,1.38,0,2.62.22,3.74.64.24.07.43.2.57.39.14.19.21.4.21.62,0,.27-.1.52-.31.74-.21.21-.46.32-.75.32l-.33-.05c-1.03-.31-2.01-.46-2.94-.46s-1.61.16-2.14.49c-.53.33-.8.76-.8,1.29,0,.5.23.87.7,1.11.5.22,1.25.46,2.24.7.93.24,1.75.49,2.48.75.7.27,1.27.69,1.7,1.25.43.56.64,1.26.64,2.1,0,1.12-.45,2.04-1.34,2.76-.89.72-2.11,1.08-3.66,1.08-1.7,0-3.27-.39-4.72-1.16Z"/>
      <path class="cls-9" d="M368.39,222.84c-.69-.45-1.22-1.06-1.6-1.83-.38-.77-.57-1.63-.57-2.58v-7.32c0-.33.12-.61.36-.84.24-.23.52-.35.85-.35s.61.12.84.35c.23.23.35.51.35.84v7.06c0,2.08.94,3.12,2.81,3.12.83,0,1.57-.21,2.23-.62.66-.41,1.32-1.02,1.97-1.83v-7.74c0-.33.12-.61.36-.84.24-.23.52-.35.85-.35s.61.12.84.35c.23.23.35.51.35.84v11.06c0,.33-.12.61-.35.85s-.51.36-.84.36-.61-.12-.85-.36-.36-.52-.36-.85v-.98c-.71.76-1.44,1.33-2.19,1.73-.76.4-1.62.59-2.58.59s-1.75-.22-2.48-.67Z"/>
      <path class="cls-9" d="M382.4,223.04c-.23-.23-.35-.51-.35-.84v-16.74c0-.33.12-.61.35-.85s.51-.36.84-.36c.34,0,.63.12.86.35.23.23.35.52.35.86v16.74c0,.33-.12.61-.36.84-.24.23-.52.35-.85.35s-.61-.12-.84-.35Z"/>
      <path class="cls-9" d="M389.44,221.71c-1.18-1.2-1.77-2.89-1.77-5.05,0-1.17.22-2.29.67-3.38.46-1.08,1.17-1.93,2.11-2.55s2.08-.93,3.4-.93,2.38.29,3.33.88c.89.58,1.59,1.37,2.09,2.36s.75,2.08.75,3.29c0,.33-.11.61-.34.84-.22.23-.52.35-.88.35h-8.72c.15,1.22.61,2.15,1.38,2.8.76.65,1.8.97,3.11.97.69,0,1.3-.06,1.84-.19s1.09-.33,1.64-.61c.12-.07.27-.1.46-.1.27,0,.52.1.73.3.21.2.32.44.32.74,0,.4-.23.72-.7.98-.72.4-1.41.68-2.06.86-.65.18-1.47.27-2.45.27-2.11,0-3.76-.6-4.94-1.8ZM397.63,215.21c-.07-.69-.28-1.26-.62-1.73-.38-.55-.85-.96-1.41-1.24-.56-.28-1.14-.41-1.74-.41-.55,0-1.13.13-1.73.39-.6.29-1.08.73-1.43,1.3-.35.58-.55,1.25-.61,2.02h7.22c.22,0,.33-.11.31-.33Z"/>
      <path class="cls-9" d="M402.63,222.35c-.29-.21-.44-.5-.44-.88,0-.28.1-.52.3-.73.2-.21.44-.32.73-.32.17,0,.33.03.46.1.58.26,1.15.45,1.7.58.55.13,1.15.19,1.8.19,1.89,0,2.84-.6,2.84-1.8,0-.38-.21-.67-.62-.88-.43-.21-1.15-.44-2.17-.7-1-.22-1.83-.47-2.5-.75-.74-.27-1.33-.69-1.78-1.24-.45-.55-.67-1.23-.67-2.04,0-1.22.45-2.21,1.34-2.97.89-.76,2.13-1.13,3.71-1.13,1.38,0,2.62.22,3.74.64.24.07.43.2.57.39.14.19.21.4.21.62,0,.27-.1.52-.31.74-.21.21-.46.32-.75.32l-.33-.05c-1.03-.31-2.01-.46-2.94-.46s-1.61.16-2.14.49c-.53.33-.8.76-.8,1.29,0,.5.23.87.7,1.11.5.22,1.25.46,2.24.7.93.24,1.75.49,2.48.75.7.27,1.27.69,1.7,1.25.43.56.64,1.26.64,2.1,0,1.12-.45,2.04-1.34,2.76-.89.72-2.11,1.08-3.66,1.08-1.7,0-3.27-.39-4.72-1.16Z"/>
      <path class="cls-9" d="M425.53,222.66c-1-.58-1.77-1.4-2.32-2.45-.55-1.05-.83-2.23-.83-3.56s.27-2.54.83-3.58c.55-1.05,1.33-1.86,2.33-2.42,1.01-.57,2.16-.85,3.47-.85s2.46.28,3.46.85c1.01.58,1.8,1.4,2.35,2.44s.83,2.23.83,3.57-.27,2.53-.83,3.56c-.57,1.07-1.35,1.88-2.36,2.45-1.01.57-2.15.85-3.44.85s-2.47-.28-3.48-.85ZM431.05,220.83c.67-.34,1.2-.87,1.6-1.59s.59-1.59.59-2.62c0-1.08-.21-1.96-.62-2.63-.38-.65-.88-1.15-1.51-1.5s-1.33-.52-2.1-.52c-.71,0-1.38.15-2.04.46-.67.34-1.2.87-1.6,1.57-.4.71-.59,1.57-.59,2.6,0,1.1.21,1.99.62,2.66.38.67.88,1.18,1.51,1.52.63.34,1.33.52,2.1.52.7,0,1.38-.16,2.04-.49Z"/>
      <path class="cls-9" d="M440.06,223.04c-.23-.23-.35-.51-.35-.84v-10.08h-1.5c-.28,0-.52-.1-.72-.31-.21-.21-.31-.45-.31-.72,0-.29.1-.54.31-.74.21-.2.45-.3.72-.3h1.5v-1.47c0-1.05.19-1.9.57-2.55.34-.64.81-1.11,1.41-1.43.59-.32,1.23-.48,1.92-.48.77,0,1.52.17,2.24.52.41.24.62.55.62.93,0,.26-.1.49-.3.7-.2.21-.43.31-.68.31-.19,0-.39-.03-.59-.08l-.7-.08c-.76,0-1.29.17-1.61.52-.32.34-.48.92-.48,1.73v1.39h3.2c.29,0,.54.1.73.3.2.2.3.44.3.74,0,.27-.1.52-.3.72-.2.21-.44.31-.73.31h-3.2v10.08c0,.33-.12.61-.36.84-.24.23-.52.35-.85.35s-.61-.12-.84-.35Z"/>
      <path class="cls-9" d="M460.74,223.08c-.27-.21-.47-.5-.61-.88l-5.05-15.52c-.05-.21-.08-.37-.08-.49,0-.31.11-.57.33-.79.22-.21.5-.32.83-.32.27,0,.52.09.73.26.21.17.37.4.45.7l4.13,13.54c.05.14.11.21.18.21s.13-.07.18-.21l4.15-13.49c.09-.31.26-.55.52-.74.26-.18.54-.27.85-.27s.59.09.85.27c.26.18.43.43.52.74l4.15,13.49c.05.14.11.21.18.21s.13-.07.18-.21l4.13-13.54c.09-.29.24-.52.45-.7.21-.17.46-.26.73-.26.33,0,.6.11.83.32.22.22.34.48.34.79,0,.12-.03.28-.08.49l-5.05,15.52c-.14.38-.34.67-.61.88-.27.21-.58.31-.94.31s-.68-.11-.97-.34c-.28-.22-.48-.51-.58-.85l-3.95-12.48c-.05-.14-.11-.21-.18-.21s-.13.07-.18.21l-3.95,12.48c-.1.34-.3.63-.58.85-.28.22-.61.34-.97.34s-.67-.1-.94-.31Z"/>
      <path class="cls-9" d="M483.57,222.66c-1-.58-1.77-1.4-2.32-2.45-.55-1.05-.83-2.23-.83-3.56s.27-2.54.83-3.58c.55-1.05,1.33-1.86,2.33-2.42,1.01-.57,2.16-.85,3.47-.85s2.46.28,3.46.85c1.01.58,1.8,1.4,2.35,2.44s.83,2.23.83,3.57-.27,2.53-.83,3.56c-.57,1.07-1.35,1.88-2.36,2.45-1.01.57-2.15.85-3.44.85s-2.47-.28-3.48-.85ZM489.09,220.83c.67-.34,1.2-.87,1.6-1.59s.59-1.59.59-2.62c0-1.08-.21-1.96-.62-2.63-.38-.65-.88-1.15-1.51-1.5s-1.33-.52-2.1-.52c-.71,0-1.38.15-2.04.46-.67.34-1.2.87-1.6,1.57-.4.71-.59,1.57-.59,2.6,0,1.1.21,1.99.62,2.66.38.67.88,1.18,1.51,1.52.63.34,1.33.52,2.1.52.7,0,1.38-.16,2.04-.49Z"/>
      <path class="cls-9" d="M497.25,223.04c-.23-.23-.35-.51-.35-.84v-11.06c0-.33.12-.61.35-.85s.51-.36.84-.36.61.12.85.36c.24.24.36.52.36.85v.98c.7-.76,1.44-1.33,2.19-1.73.76-.39,1.62-.59,2.58-.59s1.78.22,2.5.67c.69.45,1.22,1.06,1.59,1.83.37.77.55,1.63.55,2.58v7.32c0,.33-.12.61-.36.84-.24.23-.52.35-.85.35s-.61-.12-.84-.35c-.23-.23-.35-.51-.35-.84v-7.07c0-2.08-.94-3.12-2.81-3.12-.83,0-1.57.21-2.23.62-.66.41-1.32,1.02-1.97,1.83v7.74c0,.33-.12.61-.36.84-.24.23-.52.35-.85.35s-.61-.12-.84-.35Z"/>
      <path class="cls-9" d="M515.05,222.69c-1-.55-1.79-1.35-2.37-2.41-.58-1.06-.88-2.26-.88-3.62s.3-2.61.9-3.66c.58-1.03,1.35-1.82,2.29-2.37.95-.55,1.97-.83,3.07-.83,1.68,0,3.15.64,4.38,1.93v-6.27c0-.34.12-.63.36-.86.24-.23.52-.35.85-.35s.61.12.84.36.35.52.35.85v16.74c0,.33-.12.61-.35.84-.23.23-.51.35-.84.35s-.61-.12-.85-.35c-.24-.23-.36-.51-.36-.84v-.62c-1.24,1.29-2.7,1.93-4.38,1.93-1.05,0-2.05-.28-3.02-.83ZM520.58,220.75c.7-.34,1.32-.81,1.87-1.39v-5.42c-.55-.58-1.17-1.05-1.87-1.39s-1.42-.52-2.18-.52c-1.31,0-2.33.41-3.08,1.22-.75.82-1.12,1.95-1.12,3.39s.37,2.58,1.12,3.39c.75.82,1.77,1.23,3.08,1.23.76,0,1.48-.17,2.18-.52Z"/>
      <path class="cls-9" d="M529.84,221.71c-1.18-1.2-1.77-2.89-1.77-5.05,0-1.17.22-2.29.67-3.38.46-1.08,1.17-1.93,2.11-2.55s2.08-.93,3.4-.93,2.38.29,3.33.88c.89.58,1.59,1.37,2.09,2.36s.75,2.08.75,3.29c0,.33-.11.61-.34.84-.22.23-.52.35-.88.35h-8.72c.15,1.22.61,2.15,1.38,2.8.76.65,1.8.97,3.11.97.69,0,1.3-.06,1.84-.19s1.09-.33,1.64-.61c.12-.07.27-.1.46-.1.27,0,.52.1.73.3.21.2.32.44.32.74,0,.4-.23.72-.7.98-.72.4-1.41.68-2.06.86-.65.18-1.47.27-2.45.27-2.11,0-3.76-.6-4.94-1.8ZM538.03,215.21c-.07-.69-.28-1.26-.62-1.73-.38-.55-.85-.96-1.41-1.24-.56-.28-1.14-.41-1.74-.41-.55,0-1.13.13-1.73.39-.6.29-1.08.73-1.43,1.3-.35.58-.55,1.25-.61,2.02h7.22c.22,0,.33-.11.31-.33Z"/>
      <path class="cls-9" d="M543.82,223.04c-.23-.23-.35-.51-.35-.84v-11.06c0-.33.12-.61.35-.85s.51-.36.84-.36.61.12.85.36c.24.24.36.52.36.85v1.03c1.19-1.58,2.53-2.37,4.02-2.37h.13c.33,0,.6.12.83.35.22.23.34.51.34.84s-.12.6-.35.81c-.23.21-.52.32-.86.32h-.13c-.81,0-1.55.19-2.23.58-.68.39-1.26.94-1.74,1.66v7.84c0,.33-.12.61-.36.84-.24.23-.52.35-.85.35s-.61-.12-.84-.35Z"/>
      <path class="cls-9" d="M552.39,226.91c-.15-.16-.23-.35-.23-.55,0-.28.13-.5.39-.67.46-.28.8-.58,1.01-.93.21-.34.31-.82.31-1.42h-.08c-.4,0-.74-.15-1.03-.44-.29-.29-.44-.64-.44-1.03v-.15c0-.4.15-.74.44-1.03.29-.29.64-.44,1.03-.44h.26c.38,0,.7.14.97.43.27.28.43.63.5,1.04.03.17.05.43.05.77s-.02.58-.05.75c-.14.93-.36,1.69-.67,2.29-.31.6-.79,1.1-1.44,1.5-.14.08-.29.13-.46.13-.21,0-.39-.08-.54-.25Z"/>
      <path class="cls-9" d="M567.82,223.04c-.23-.23-.35-.51-.35-.84v-15.39c0-.46.17-.87.5-1.21.34-.34.73-.52,1.2-.52h.85c.33,0,.64.1.93.3.29.2.52.47.67.81l5.62,14.03c.05.12.12.18.21.18s.15-.06.21-.18l5.62-14.03c.15-.34.38-.61.67-.81.29-.2.6-.3.93-.3h.85c.46,0,.86.17,1.2.52.33.34.5.75.5,1.21v15.39c0,.33-.12.61-.35.84-.23.23-.51.35-.84.35s-.61-.12-.85-.35c-.24-.23-.36-.51-.36-.84v-13.62c0-.15-.05-.23-.15-.23-.07,0-.13.05-.18.16l-5.57,13.77c-.14.33-.36.59-.67.8-.31.21-.65.31-1.01.31s-.7-.1-1.01-.31c-.31-.21-.53-.47-.67-.8l-5.57-13.77c-.05-.1-.11-.16-.18-.16-.1,0-.15.08-.15.23v13.62c0,.33-.12.61-.36.84-.24.23-.52.35-.85.35s-.61-.12-.84-.35Z"/>
      <path class="cls-9" d="M593.9,222.66c-1-.58-1.77-1.4-2.32-2.45-.55-1.05-.83-2.23-.83-3.56s.27-2.54.83-3.58c.55-1.05,1.33-1.86,2.33-2.42,1.01-.57,2.16-.85,3.47-.85s2.46.28,3.46.85c1.01.58,1.8,1.4,2.35,2.44s.83,2.23.83,3.57-.27,2.53-.83,3.56c-.57,1.07-1.35,1.88-2.36,2.45-1.01.57-2.15.85-3.44.85s-2.47-.28-3.48-.85ZM599.42,220.83c.67-.34,1.2-.87,1.6-1.59s.59-1.59.59-2.62c0-1.08-.21-1.96-.62-2.63-.38-.65-.88-1.15-1.51-1.5s-1.33-.52-2.1-.52c-.71,0-1.38.15-2.04.46-.67.34-1.2.87-1.6,1.57-.4.71-.59,1.57-.59,2.6,0,1.1.21,1.99.62,2.66.38.67.88,1.18,1.51,1.52.63.34,1.33.52,2.1.52.7,0,1.38-.16,2.04-.49Z"/>
      <path class="cls-9" d="M607.58,223.04c-.23-.23-.35-.51-.35-.84v-11.06c0-.33.12-.61.35-.85s.51-.36.84-.36.61.12.85.36c.24.24.36.52.36.85v1.06l-.05-.03c.53-.76,1.15-1.34,1.84-1.75.7-.41,1.55-.62,2.57-.62.93,0,1.74.25,2.44.74s1.2,1.12,1.51,1.89c1.07-1.75,2.65-2.63,4.74-2.63,1,0,1.81.24,2.45.72.62.46,1.09,1.07,1.41,1.83.32.76.48,1.56.48,2.42v7.43c0,.33-.12.61-.36.84-.24.23-.52.35-.85.35s-.61-.12-.84-.35c-.23-.23-.35-.51-.35-.84v-6.96c0-1.15-.2-1.98-.61-2.47-.4-.5-1.07-.75-2-.75-.83,0-1.52.21-2.09.63-.57.42-1.1,1.03-1.6,1.82v7.74c0,.33-.12.61-.36.84-.24.23-.52.35-.85.35s-.61-.12-.84-.35c-.23-.23-.35-.51-.35-.84v-6.96c0-1.15-.2-1.98-.61-2.47-.4-.5-1.07-.75-2-.75-.83,0-1.52.21-2.09.63-.57.42-1.1,1.03-1.6,1.82v7.74c0,.33-.12.61-.36.84-.24.23-.52.35-.85.35s-.61-.12-.84-.35Z"/>
      <path class="cls-9" d="M631.87,221.71c-1.18-1.2-1.77-2.89-1.77-5.05,0-1.17.22-2.29.67-3.38.46-1.08,1.17-1.93,2.11-2.55s2.08-.93,3.4-.93,2.38.29,3.33.88c.89.58,1.59,1.37,2.09,2.36s.75,2.08.75,3.29c0,.33-.11.61-.34.84-.22.23-.52.35-.88.35h-8.72c.15,1.22.61,2.15,1.38,2.8.76.65,1.8.97,3.11.97.69,0,1.3-.06,1.84-.19s1.09-.33,1.64-.61c.12-.07.27-.1.46-.1.27,0,.52.1.73.3.21.2.32.44.32.74,0,.4-.23.72-.7.98-.72.4-1.41.68-2.06.86-.65.18-1.47.27-2.45.27-2.11,0-3.76-.6-4.94-1.8ZM640.06,215.21c-.07-.69-.28-1.26-.62-1.73-.38-.55-.85-.96-1.41-1.24-.56-.28-1.14-.41-1.74-.41-.55,0-1.13.13-1.73.39-.6.29-1.08.73-1.43,1.3-.35.58-.55,1.25-.61,2.02h7.22c.22,0,.33-.11.31-.33Z"/>
      <path class="cls-9" d="M645.85,223.04c-.23-.23-.35-.51-.35-.84v-11.06c0-.33.12-.61.35-.85s.51-.36.84-.36.61.12.85.36c.24.24.36.52.36.85v.98c.7-.76,1.44-1.33,2.19-1.73.76-.39,1.62-.59,2.58-.59s1.78.22,2.5.67c.69.45,1.22,1.06,1.59,1.83.37.77.55,1.63.55,2.58v7.32c0,.33-.12.61-.36.84-.24.23-.52.35-.85.35s-.61-.12-.84-.35c-.23-.23-.35-.51-.35-.84v-7.07c0-2.08-.94-3.12-2.81-3.12-.83,0-1.57.21-2.23.62-.66.41-1.32,1.02-1.97,1.83v7.74c0,.33-.12.61-.36.84-.24.23-.52.35-.85.35s-.61-.12-.84-.35Z"/>
      <path class="cls-9" d="M659.62,211.98c-.18-.18-.27-.43-.27-.76s.09-.58.27-.76c.18-.18.43-.27.76-.27h6.58c.29,0,.54.1.73.3.2.2.3.44.3.74,0,.27-.1.52-.3.72-.2.21-.44.31-.73.31h-6.58c-.33,0-.58-.09-.76-.27ZM661.67,220.09v-11.73c0-.39.11-.7.32-.9.21-.21.51-.31.89-.31s.67.11.88.32c.21.21.31.51.31.89v11.53c0,.6.14,1,.41,1.21.27.21.69.31,1.24.31.36,0,.7-.05,1.03-.16.03,0,.06,0,.08-.03.17-.03.32-.05.44-.05.26,0,.48.09.67.28.19.19.28.41.28.67,0,.4-.21.71-.62.93-.67.31-1.38.46-2.14.46-2.53,0-3.79-1.14-3.79-3.43Z"/>
      <path class="cls-9" d="M670.31,222.35c-.29-.21-.44-.5-.44-.88,0-.28.1-.52.3-.73.2-.21.44-.32.73-.32.17,0,.33.03.46.1.58.26,1.15.45,1.7.58.55.13,1.15.19,1.8.19,1.89,0,2.84-.6,2.84-1.8,0-.38-.21-.67-.62-.88-.43-.21-1.15-.44-2.17-.7-1-.22-1.83-.47-2.5-.75-.74-.27-1.33-.69-1.78-1.24-.45-.55-.67-1.23-.67-2.04,0-1.22.45-2.21,1.34-2.97.89-.76,2.13-1.13,3.71-1.13,1.38,0,2.62.22,3.74.64.24.07.43.2.57.39.14.19.21.4.21.62,0,.27-.1.52-.31.74-.21.21-.46.32-.75.32l-.33-.05c-1.03-.31-2.01-.46-2.94-.46s-1.61.16-2.14.49c-.53.33-.8.76-.8,1.29,0,.5.23.87.7,1.11.5.22,1.25.46,2.24.7.93.24,1.75.49,2.48.75.7.27,1.27.69,1.7,1.25.43.56.64,1.26.64,2.1,0,1.12-.45,2.04-1.34,2.76-.89.72-2.11,1.08-3.66,1.08-1.7,0-3.27-.39-4.72-1.16Z"/>
      <path class="cls-9" d="M693.2,222.66c-1-.58-1.77-1.4-2.32-2.45-.55-1.05-.83-2.23-.83-3.56s.27-2.54.83-3.58c.55-1.05,1.33-1.86,2.33-2.42,1.01-.57,2.16-.85,3.47-.85s2.46.28,3.46.85c1.01.58,1.8,1.4,2.35,2.44s.83,2.23.83,3.57-.27,2.53-.83,3.56c-.57,1.07-1.35,1.88-2.36,2.45-1.01.57-2.15.85-3.44.85s-2.47-.28-3.48-.85ZM698.72,220.83c.67-.34,1.2-.87,1.6-1.59s.59-1.59.59-2.62c0-1.08-.21-1.96-.62-2.63-.38-.65-.88-1.15-1.51-1.5s-1.33-.52-2.1-.52c-.71,0-1.38.15-2.04.46-.67.34-1.2.87-1.6,1.57-.4.71-.59,1.57-.59,2.6,0,1.1.21,1.99.62,2.66.38.67.88,1.18,1.51,1.52.63.34,1.33.52,2.1.52.7,0,1.38-.16,2.04-.49Z"/>
      <path class="cls-9" d="M707.73,223.04c-.23-.23-.35-.51-.35-.84v-10.08h-1.5c-.28,0-.52-.1-.72-.31-.21-.21-.31-.45-.31-.72,0-.29.1-.54.31-.74.21-.2.45-.3.72-.3h1.5v-1.47c0-1.05.19-1.9.57-2.55.34-.64.81-1.11,1.41-1.43.59-.32,1.23-.48,1.92-.48.77,0,1.52.17,2.24.52.41.24.62.55.62.93,0,.26-.1.49-.3.7-.2.21-.42.31-.68.31-.19,0-.39-.03-.59-.08l-.7-.08c-.76,0-1.29.17-1.61.52-.32.34-.48.92-.48,1.73v1.39h3.2c.29,0,.54.1.73.3s.3.44.3.74c0,.27-.1.52-.3.72-.2.21-.44.31-.73.31h-3.2v10.08c0,.33-.12.61-.36.84-.24.23-.52.35-.85.35s-.61-.12-.84-.35Z"/>
      <path class="cls-9" d="M722.86,222.64c-.38-.24-.57-.57-.57-.98,0-.27.09-.52.28-.75s.43-.33.72-.33c.19,0,.34.04.46.1.77.38,1.57.57,2.4.57,1,0,1.76-.28,2.29-.85.53-.57.8-1.55.8-2.94v-11.17c0-.33.12-.61.35-.85.23-.24.51-.36.84-.36s.61.12.85.36c.24.24.36.52.36.85v11.01c0,2.05-.45,3.59-1.35,4.64-.9,1.05-2.23,1.57-3.98,1.57-1.25,0-2.41-.29-3.46-.88Z"/>
      <path class="cls-9" d="M738.35,222.66c-1-.58-1.77-1.4-2.32-2.45-.55-1.05-.83-2.23-.83-3.56s.27-2.54.83-3.58c.55-1.05,1.33-1.86,2.33-2.42,1.01-.57,2.16-.85,3.47-.85s2.46.28,3.46.85c1.01.58,1.8,1.4,2.35,2.44.55,1.04.83,2.23.83,3.57s-.28,2.53-.83,3.56c-.57,1.07-1.35,1.88-2.36,2.45-1.01.57-2.15.85-3.44.85s-2.47-.28-3.48-.85ZM743.87,220.83c.67-.34,1.2-.87,1.6-1.59.39-.71.59-1.59.59-2.62,0-1.08-.21-1.96-.62-2.63-.38-.65-.88-1.15-1.51-1.5-.63-.34-1.33-.52-2.1-.52-.71,0-1.38.15-2.04.46-.67.34-1.2.87-1.6,1.57s-.59,1.57-.59,2.6c0,1.1.21,1.99.62,2.66.38.67.88,1.18,1.51,1.52.63.34,1.33.52,2.1.52.7,0,1.38-.16,2.04-.49Z"/>
      <path class="cls-9" d="M753.75,228.97c-.22-.23-.33-.5-.33-.81,0-.14.03-.27.08-.41l1.68-4.31-4.85-11.81c-.07-.17-.1-.34-.1-.49,0-.33.12-.61.35-.85.23-.24.51-.36.84-.36.24,0,.46.07.67.21.21.14.35.32.44.54l3.95,9.77,4.02-9.72c.24-.53.61-.8,1.11-.8.33,0,.61.12.84.36.23.24.35.52.35.85,0,.15-.03.3-.08.44l-7.04,16.92c-.24.55-.61.83-1.11.83-.31,0-.58-.12-.8-.35Z"/>
      <path class="cls-9" d="M765.61,222.9c-.29-.29-.44-.64-.44-1.03v-.15c0-.4.15-.74.44-1.03.29-.29.64-.44,1.03-.44h.26c.39,0,.74.15,1.03.44s.44.64.44,1.03v.15c0,.4-.15.74-.44,1.03s-.64.44-1.03.44h-.26c-.4,0-.74-.15-1.03-.44Z"/>
      <path class="cls-9" d="M768.99,208.43l-.54-3.77-.03-.23c0-.91.47-1.37,1.42-1.37.4,0,.75.15,1.06.46.27.29.39.58.36.88l-.05.26-.54,3.77c-.09.57-.36.85-.83.85s-.76-.28-.85-.85ZM773.78,208.43l-.57-3.77-.03-.26c0-.89.47-1.34,1.42-1.34s1.42.46,1.42,1.39l-.03.21-.54,3.77c-.09.57-.37.85-.85.85s-.74-.28-.83-.85Z"/>
    </g>
  </g>
  <g id="logo">
    <path class="cls-6" d="M205.1,110.08v48.83h-13.22v-5.48c-2.93,3.78-7.84,5.29-12.28,5.29-13.41.09-24.37-10.77-24.46-24.18-.09-13.41,10.77-24.37,24.18-24.46,4.63,0,9.63,1.7,12.56,5.38v-5.38h13.22ZM191.4,134.35c0-3.21-1.23-6.23-3.59-8.5-2.27-2.27-5.29-3.49-8.41-3.4-3.21,0-6.23,1.23-8.5,3.49-2.27,2.27-3.49,5.29-3.49,8.5s1.32,6.23,3.59,8.5c2.27,2.27,5.29,3.49,8.5,3.49,3.21-.09,6.23-1.32,8.41-3.59,2.27-2.27,3.49-5.29,3.49-8.5"/>
    <path class="cls-6" d="M249.67,153.05c-4.34,3.68-9.92,5.86-16.06,5.86-13.41-.09-24.27-11.05-24.18-24.46.09-13.41,11.05-24.27,24.46-24.18,6.04.09,11.62,2.36,15.87,6.04l-8.78,8.69c-2.08-1.51-4.53-2.36-7.18-2.36-3.21,0-6.23,1.23-8.5,3.4-2.27,2.27-3.49,5.29-3.49,8.5-.09,3.21,1.13,6.23,3.4,8.5,2.27,2.27,5.29,3.49,8.5,3.59,2.64,0,5.1-.85,7.18-2.36l8.78,8.78Z"/>
    <path class="cls-6" d="M303.59,135.77v23.14h-12.28v-23.99h-.09v-.28c0-3.12-1.23-6.14-3.49-8.41-2.27-2.27-5.29-3.49-8.5-3.49s-6.23,1.32-8.5,3.59c-2.27,2.27-3.49,5.29-3.4,8.5v.09h-.09v23.99h-13.22v-61.39h13.22v18.89c3.97-4.72,7.56-5.57,11.9-5.95,13.32-1.13,24.46,7.46,24.46,24.18v1.13Z"/>
    <path class="cls-6" d="M389.53,109.42v13.51c-10.2,0-16.43,8.22-16.43,14.45v21.53h-13.22v-48.64h13.22v7.27c2.17-6.04,6.61-8.12,16.43-8.12"/>
    <path class="cls-6" d="M441,110.08v48.83h-13.22v-5.48c-2.93,3.78-7.84,5.29-12.28,5.29-13.41.09-24.37-10.77-24.46-24.18-.1-13.41,10.77-24.37,24.18-24.46,4.63,0,9.63,1.7,12.56,5.38v-5.38h13.22ZM427.31,134.35c0-3.21-1.23-6.23-3.59-8.5-2.27-2.27-5.29-3.49-8.41-3.4-3.21,0-6.23,1.23-8.5,3.49-2.27,2.27-3.49,5.29-3.49,8.5s1.32,6.23,3.59,8.5c2.27,2.27,5.29,3.49,8.5,3.49,3.21-.09,6.23-1.32,8.41-3.59,2.27-2.27,3.49-5.29,3.49-8.5"/>
    <g>
      <g class="cls-7">
        <g class="cls-10">
          <path class="cls-8" d="M355.65,134.16c0,13.21-10.71,23.92-23.92,23.92s-23.92-10.71-23.92-23.92,10.71-23.92,23.92-23.92,23.92,10.71,23.92,23.92"/>
        </g>
      </g>
      <path class="cls-1" d="M357.83,133.91c-.6-14.02-12.06-25-26.1-25-13.07,0-24.14,9.71-25.87,22.62-.02-.01.02.01,0,0,0,.07,0-.07,0,0-.04.33-.13.81-.15,1.14v.17c-.81,11.66,6.61,22.61,17.85,26.09,16.64,5.15,33.88-7.58,34.25-23.91l.03-1.11ZM331.73,112.24c11.89,0,21.66,9.03,22.7,20.74-16.19,9.86-38.18,3.62-45.16-1.83,1.86-10.85,11.33-18.91,22.46-18.91"/>
    </g>
    <path class="cls-6" d="M139.11,123.23h-15.3v12.28h14.17c-.85,2.17-3.59,5.01-4.25,5.67-3.49,3.4-8.12,5.38-13.03,5.38s-9.54-1.98-12.94-5.38c-3.49-3.49-5.48-8.12-5.48-13.03s1.98-9.54,5.48-13.03c3.4-3.49,8.03-5.38,12.94-5.38,4.06,0,7.93,1.32,11.14,3.68l9.44-9.35c-5.57-4.72-12.75-7.56-20.59-7.56-17.47,0-31.64,14.17-31.64,31.64s14.17,31.64,31.64,31.64c6.89,0,13.22-2.17,18.42-5.86,0,0,.06-.04.15-.11l12.13,4.85v-35.44h-12.28Z"/>
  </g>
  <g>
    <rect class="cls-3" x="1532.35" y="206.67" width="295.24" height="30.9" rx="8.5" ry="8.5"/>
    <rect class="cls-4" x="1542.97" y="215.13" width="295.24" height="30.9" rx="8.5" ry="8.5"/>
    <g>
      <path class="cls-2" d="M1565.06,240.64c-.81-.21-1.49-.46-2.02-.76-.26-.16-.39-.41-.39-.74,0-.22.08-.42.25-.59s.36-.27.59-.27c.11,0,.23.03.37.08,1.07.52,2.19.78,3.38.78,2.08,0,3.12-1.11,3.12-3.32v-1.31c-.94,1.01-2.1,1.52-3.48,1.52-.82,0-1.6-.21-2.34-.62-.81-.42-1.45-1.04-1.93-1.86-.48-.81-.72-1.77-.72-2.88s.25-2.13.74-2.95c.48-.78,1.1-1.37,1.86-1.78s1.55-.62,2.39-.62c1.38,0,2.54.51,3.48,1.52v-.45c0-.26.09-.49.28-.68.18-.19.41-.29.67-.29s.48.1.68.29c.19.19.29.42.29.68v9.16c0,1.72-.42,3.05-1.25,3.99-.83.94-2.03,1.4-3.59,1.4-.77,0-1.55-.1-2.37-.31ZM1568.89,233.9c.49-.25.97-.62,1.47-1.12v-4.22c-.49-.49-.98-.86-1.47-1.12s-1.03-.38-1.63-.38c-1.05,0-1.89.31-2.52.94-.63.63-.94,1.52-.94,2.67s.31,2.04.94,2.67,1.47.94,2.52.94c.6,0,1.14-.13,1.63-.38Z"/>
      <path class="cls-2" d="M1576.49,235.86c-.53-.25-.95-.61-1.25-1.09-.3-.48-.45-1.02-.45-1.64,0-1.07.41-1.89,1.24-2.47.83-.58,1.99-.87,3.5-.87h2.46v-.14c0-.88-.22-1.51-.65-1.92-.43-.4-1.12-.6-2.08-.6-.49,0-.94.04-1.33.11s-.86.2-1.39.38l-.27.04c-.21,0-.39-.08-.54-.24-.16-.16-.24-.34-.24-.56,0-.38.18-.65.55-.8,1.15-.49,2.33-.74,3.55-.74.94,0,1.75.19,2.42.57.63.37,1.1.86,1.41,1.47s.47,1.28.47,2.02v5.8c0,.26-.1.48-.29.67-.19.18-.42.28-.68.28s-.48-.09-.67-.28c-.18-.18-.28-.41-.28-.67v-.49c-.98,1.02-2.26,1.54-3.83,1.54-.59,0-1.14-.12-1.66-.37ZM1580.56,234.13c.55-.28,1.03-.65,1.42-1.1v-1.7h-2.21c-2.05,0-3.08.53-3.08,1.6s.72,1.62,2.15,1.62c.59,0,1.16-.14,1.71-.42Z"/>
      <path class="cls-2" d="M1589.12,235.57c-.86-.45-1.54-1.09-2.03-1.93-.49-.83-.74-1.79-.74-2.87s.25-2.08.76-2.91c.49-.81,1.15-1.43,1.98-1.88.83-.44,1.75-.67,2.76-.67.68,0,1.29.09,1.8.26.52.17,1.04.41,1.56.73.27.19.41.44.41.74,0,.21-.08.4-.25.57-.16.18-.35.27-.55.27-.14,0-.29-.04-.45-.12-.48-.25-.87-.42-1.19-.51s-.7-.14-1.17-.14c-1.15,0-2.06.33-2.74.99s-1.01,1.55-1.01,2.67.34,2.01,1.01,2.68c.68.66,1.59.99,2.74.99.46,0,.85-.05,1.17-.14s.71-.27,1.19-.51c.16-.08.31-.12.45-.12.21,0,.39.09.55.27s.25.37.25.57c0,.3-.14.55-.41.74-.52.31-1.04.56-1.56.73-.52.17-1.12.26-1.8.26-.97,0-1.88-.22-2.73-.66Z"/>
      <path class="cls-2" d="M1598.19,235.85c-.18-.18-.28-.41-.28-.67v-13.3c0-.26.09-.49.28-.68s.41-.29.67-.29.49.1.68.29.29.42.29.68v5.29c.56-.6,1.14-1.06,1.74-1.37s1.28-.47,2.05-.47,1.41.18,1.99.53c.55.36.97.84,1.26,1.46.29.61.44,1.3.44,2.05v5.82c0,.26-.1.48-.29.67-.19.18-.42.28-.68.28s-.48-.09-.67-.28c-.18-.18-.28-.41-.28-.67v-5.62c0-1.65-.75-2.48-2.23-2.48-.66,0-1.25.16-1.77.49-.53.33-1.05.81-1.57,1.46v6.15c0,.26-.1.48-.29.67-.19.18-.42.28-.68.28s-.48-.09-.67-.28Z"/>
      <path class="cls-2" d="M1612.26,235.55c-.79-.46-1.41-1.11-1.85-1.95-.44-.83-.66-1.78-.66-2.83s.22-2.02.66-2.85c.44-.83,1.06-1.48,1.86-1.93s1.72-.68,2.76-.68,1.96.23,2.75.68c.81.46,1.43,1.11,1.87,1.94.44.83.66,1.77.66,2.84s-.22,2.01-.66,2.83c-.45.85-1.08,1.5-1.88,1.95s-1.71.68-2.74.68-1.96-.23-2.77-.68ZM1616.65,234.1c.53-.27.96-.69,1.27-1.26s.47-1.26.47-2.08c0-.86-.16-1.56-.49-2.09-.3-.52-.7-.92-1.2-1.19-.5-.27-1.06-.41-1.67-.41-.56,0-1.1.12-1.62.37-.53.27-.96.69-1.27,1.25-.31.56-.47,1.25-.47,2.07,0,.88.16,1.58.49,2.11.3.53.7.94,1.2,1.21.5.27,1.06.41,1.67.41.56,0,1.1-.13,1.62-.39Z"/>
      <path class="cls-2" d="M1623.14,235.85c-.18-.18-.28-.41-.28-.67v-8.79c0-.26.09-.49.28-.68s.41-.29.67-.29.49.1.68.29.29.42.29.68v.82c.94-1.26,2.01-1.89,3.2-1.89h.1c.26,0,.48.09.66.28s.27.41.27.67-.09.47-.28.65c-.18.17-.41.26-.69.26h-.1c-.64,0-1.23.15-1.77.46-.54.31-1,.75-1.38,1.32v6.23c0,.26-.1.48-.29.67-.19.18-.42.28-.68.28s-.48-.09-.67-.28Z"/>
      <path class="cls-2" d="M1631.74,235.86c-.53-.25-.95-.61-1.25-1.09-.3-.48-.45-1.02-.45-1.64,0-1.07.41-1.89,1.24-2.47.83-.58,1.99-.87,3.5-.87h2.46v-.14c0-.88-.22-1.51-.65-1.92-.43-.4-1.12-.6-2.08-.6-.49,0-.94.04-1.33.11s-.86.2-1.39.38l-.27.04c-.21,0-.39-.08-.54-.24-.16-.16-.24-.34-.24-.56,0-.38.18-.65.55-.8,1.15-.49,2.33-.74,3.55-.74.94,0,1.75.19,2.42.57.63.37,1.1.86,1.41,1.47s.47,1.28.47,2.02v5.8c0,.26-.1.48-.29.67-.19.18-.42.28-.68.28s-.48-.09-.67-.28c-.18-.18-.28-.41-.28-.67v-.49c-.98,1.02-2.26,1.54-3.83,1.54-.59,0-1.14-.12-1.66-.37ZM1635.81,234.13c.55-.28,1.03-.65,1.42-1.1v-1.7h-2.21c-2.05,0-3.08.53-3.08,1.6s.72,1.62,2.15,1.62c.59,0,1.16-.14,1.71-.42Z"/>
      <path class="cls-2" d="M1642.38,235.74c-.23-.23-.35-.5-.35-.82v-.12c0-.31.12-.59.35-.82s.51-.35.82-.35h.21c.31,0,.59.12.82.35.23.23.35.51.35.82v.12c0,.32-.12.59-.35.82-.23.23-.51.35-.82.35h-.21c-.31,0-.59-.12-.82-.35Z"/>
      <path class="cls-2" d="M1649.22,235.55c-.79-.46-1.41-1.11-1.85-1.95-.44-.83-.66-1.78-.66-2.83s.22-2.02.66-2.85c.44-.83,1.06-1.48,1.86-1.93s1.72-.68,2.76-.68,1.96.23,2.75.68c.81.46,1.43,1.11,1.87,1.94.44.83.66,1.77.66,2.84s-.22,2.01-.66,2.83c-.45.85-1.08,1.5-1.88,1.95s-1.71.68-2.74.68-1.96-.23-2.77-.68ZM1653.61,234.1c.53-.27.96-.69,1.27-1.26s.47-1.26.47-2.08c0-.86-.16-1.56-.49-2.09-.3-.52-.7-.92-1.2-1.19-.5-.27-1.06-.41-1.67-.41-.56,0-1.1.12-1.62.37-.53.27-.96.69-1.27,1.25-.31.56-.47,1.25-.47,2.07,0,.88.16,1.58.49,2.11.3.53.7.94,1.2,1.21.5.27,1.06.41,1.67.41.56,0,1.1-.13,1.62-.39Z"/>
      <path class="cls-2" d="M1660.77,235.85c-.18-.18-.28-.41-.28-.67v-8.01h-1.19c-.22,0-.41-.08-.57-.25s-.25-.36-.25-.57c0-.23.08-.43.25-.58s.35-.24.57-.24h1.19v-1.17c0-.83.15-1.51.45-2.03.27-.51.65-.88,1.12-1.14.47-.25.98-.38,1.53-.38.62,0,1.21.14,1.78.41.33.19.49.44.49.74,0,.21-.08.39-.24.55-.16.16-.34.25-.54.25-.15,0-.31-.02-.47-.06l-.55-.06c-.6,0-1.03.14-1.28.41-.25.27-.38.73-.38,1.37v1.11h6.17v-1.17c0-.83.15-1.51.45-2.03.27-.51.65-.88,1.12-1.14.47-.25.98-.38,1.53-.38.61,0,1.21.14,1.78.41.33.19.49.44.49.74,0,.21-.08.39-.24.55-.16.16-.34.25-.54.25-.15,0-.31-.02-.47-.06l-.55-.06c-.6,0-1.03.14-1.28.41s-.38.73-.38,1.37v1.11h6.21c.27,0,.5.09.69.28s.28.41.28.69v8.69c0,.26-.1.48-.29.67-.19.18-.42.28-.68.28s-.48-.09-.67-.28c-.18-.18-.28-.41-.28-.67v-8.01h-5.27v8.01c0,.26-.1.48-.29.67-.19.18-.42.28-.68.28s-.48-.09-.67-.28c-.18-.18-.28-.41-.28-.67v-8.01h-6.17v8.01c0,.26-.1.48-.29.67-.19.18-.42.28-.68.28s-.48-.09-.67-.28ZM1675.9,223.12c-.21-.21-.32-.46-.32-.75v-.08c0-.29.11-.54.32-.75.21-.21.46-.32.75-.32h.12c.29,0,.54.11.75.32.21.21.32.46.32.75v.08c0,.29-.11.54-.32.75-.21.21-.46.32-.75.32h-.12c-.29,0-.54-.11-.75-.32Z"/>
      <path class="cls-2" d="M1682.99,235.57c-.86-.45-1.54-1.09-2.03-1.93-.49-.83-.74-1.79-.74-2.87s.25-2.08.76-2.91c.49-.81,1.15-1.43,1.98-1.88.83-.44,1.75-.67,2.76-.67.68,0,1.29.09,1.8.26.52.17,1.04.41,1.56.73.27.19.41.44.41.74,0,.21-.08.4-.25.57-.16.18-.35.27-.55.27-.14,0-.29-.04-.45-.12-.48-.25-.87-.42-1.19-.51s-.7-.14-1.17-.14c-1.15,0-2.06.33-2.74.99s-1.01,1.55-1.01,2.67.34,2.01,1.01,2.68c.68.66,1.59.99,2.74.99.46,0,.85-.05,1.17-.14s.71-.27,1.19-.51c.16-.08.31-.12.45-.12.21,0,.39.09.55.27s.25.37.25.57c0,.3-.14.55-.41.74-.52.31-1.04.56-1.56.73-.52.17-1.12.26-1.8.26-.97,0-1.88-.22-2.73-.66Z"/>
      <path class="cls-2" d="M1692.81,235.86c-.53-.25-.95-.61-1.25-1.09-.3-.48-.45-1.02-.45-1.64,0-1.07.41-1.89,1.24-2.47.83-.58,1.99-.87,3.5-.87h2.46v-.14c0-.88-.22-1.51-.65-1.92-.43-.4-1.12-.6-2.08-.6-.49,0-.94.04-1.33.11s-.86.2-1.39.38l-.27.04c-.21,0-.39-.08-.54-.24-.16-.16-.24-.34-.24-.56,0-.38.18-.65.55-.8,1.15-.49,2.33-.74,3.55-.74.94,0,1.75.19,2.42.57.63.37,1.1.86,1.41,1.47s.47,1.28.47,2.02v5.8c0,.26-.1.48-.29.67-.19.18-.42.28-.68.28s-.48-.09-.67-.28c-.18-.18-.28-.41-.28-.67v-.49c-.98,1.02-2.26,1.54-3.83,1.54-.59,0-1.14-.12-1.66-.37ZM1696.88,234.13c.55-.28,1.03-.65,1.42-1.1v-1.7h-2.21c-2.05,0-3.08.53-3.08,1.6s.72,1.62,2.15,1.62c.59,0,1.16-.14,1.71-.42Z"/>
      <path class="cls-2" d="M1703.58,235.85c-.18-.18-.28-.41-.28-.67v-13.3c0-.26.09-.49.28-.68s.41-.29.67-.29c.27,0,.5.09.69.28.18.18.28.41.28.69v13.3c0,.26-.1.48-.29.67-.19.18-.42.28-.68.28s-.48-.09-.67-.28Z"/>
      <path class="cls-2" d="M1711.21,236.76c-1.08-.64-1.92-1.51-2.52-2.6s-.9-2.27-.9-3.53c0-1.57.4-3.02,1.19-4.35.79-1.35,1.86-2.43,3.21-3.22,1.35-.79,2.79-1.19,4.32-1.19,1.41,0,2.71.3,3.92.9,1.22.63,2.17,1.49,2.87,2.57.7,1.09,1.05,2.3,1.05,3.64,0,.9-.13,1.71-.39,2.44-.27.81-.7,1.45-1.29,1.93-.59.48-1.31.72-2.15.72-.64,0-1.17-.14-1.57-.42-.4-.28-.65-.64-.75-1.08-.41.51-.91.89-1.49,1.14-.58.25-1.21.38-1.88.38-1.08,0-1.93-.33-2.56-1-.63-.67-.94-1.54-.94-2.62,0-1.02.23-1.92.7-2.69.44-.74,1.03-1.31,1.78-1.71.75-.4,1.55-.61,2.4-.61,1.04,0,1.91.34,2.6,1.03l.06-.31c.03-.19.12-.35.27-.47s.32-.18.51-.18c.22,0,.4.08.54.23s.21.33.21.55l-.02.23-.68,3.89c-.1.48-.14.92-.14,1.33s.09.73.27.96c.18.23.42.35.74.35.82,0,1.46-.36,1.93-1.08.46-.72.7-1.72.7-3s-.32-2.32-.96-3.24c-.63-.89-1.45-1.57-2.47-2.04-1.02-.47-2.1-.71-3.25-.71-1.33,0-2.58.35-3.75,1.05-1.18.71-2.11,1.65-2.81,2.82-.7,1.17-1.05,2.42-1.05,3.76,0,.98.25,1.95.74,2.89.5.94,1.22,1.69,2.14,2.25.92.56,2,.84,3.23.84.79,0,1.49-.07,2.1-.22s1.34-.39,2.18-.73c.11-.03.18-.04.23-.04.15,0,.28.05.38.15s.15.22.15.36c0,.1-.03.19-.08.29-.05.1-.13.16-.23.21-1.45.72-3.03,1.09-4.74,1.09-1.41,0-2.67-.32-3.79-.96ZM1718.25,229.79l.33-1.91c-.59-.61-1.35-.92-2.3-.92-.62,0-1.16.13-1.64.39-.53.27-.95.66-1.25,1.17s-.45,1.09-.45,1.74c0,.75.21,1.34.62,1.75.42.42.99.62,1.71.62,1.65,0,2.64-.95,2.97-2.85Z"/>
      <path class="cls-2" d="M1729.35,240.64c-.81-.21-1.49-.46-2.02-.76-.26-.16-.39-.41-.39-.74,0-.22.08-.42.25-.59s.36-.27.59-.27c.11,0,.23.03.37.08,1.07.52,2.19.78,3.38.78,2.08,0,3.12-1.11,3.12-3.32v-1.31c-.94,1.01-2.1,1.52-3.48,1.52-.82,0-1.6-.21-2.34-.62-.81-.42-1.45-1.04-1.93-1.86-.48-.81-.72-1.77-.72-2.88s.25-2.13.74-2.95c.48-.78,1.1-1.37,1.86-1.78s1.55-.62,2.39-.62c1.38,0,2.54.51,3.48,1.52v-.45c0-.26.09-.49.28-.68.18-.19.41-.29.67-.29s.48.1.68.29c.19.19.29.42.29.68v9.16c0,1.72-.42,3.05-1.25,3.99-.83.94-2.03,1.4-3.59,1.4-.77,0-1.55-.1-2.37-.31ZM1733.18,233.9c.49-.25.97-.62,1.47-1.12v-4.22c-.49-.49-.98-.86-1.47-1.12s-1.03-.38-1.63-.38c-1.05,0-1.89.31-2.52.94-.63.63-.94,1.52-.94,2.67s.31,2.04.94,2.67,1.47.94,2.52.94c.6,0,1.14-.13,1.63-.38Z"/>
      <path class="cls-2" d="M1740.03,235.85c-.18-.18-.28-.41-.28-.67v-8.79c0-.26.09-.49.28-.68s.41-.29.67-.29.49.1.68.29.29.42.29.68v.84l-.04-.02c.42-.6.91-1.07,1.47-1.39.55-.33,1.23-.49,2.04-.49.74,0,1.38.2,1.94.58.55.39.95.89,1.2,1.51.85-1.39,2.1-2.09,3.77-2.09.79,0,1.44.19,1.95.57.49.37.86.85,1.12,1.46.25.6.38,1.24.38,1.93v5.9c0,.26-.1.48-.29.67-.19.18-.42.28-.68.28s-.48-.09-.67-.28c-.18-.18-.28-.41-.28-.67v-5.53c0-.92-.16-1.57-.48-1.97-.32-.4-.85-.59-1.59-.59-.66,0-1.21.17-1.66.5s-.87.82-1.27,1.45v6.15c0,.26-.1.48-.29.67-.19.18-.42.28-.68.28s-.48-.09-.67-.28c-.18-.18-.28-.41-.28-.67v-5.53c0-.92-.16-1.57-.48-1.97-.32-.4-.85-.59-1.59-.59-.66,0-1.21.17-1.66.5s-.88.82-1.27,1.45v6.15c0,.26-.1.48-.29.67-.19.18-.42.28-.68.28s-.48-.09-.67-.28Z"/>
      <path class="cls-2" d="M1759.59,235.86c-.53-.25-.95-.61-1.25-1.09-.3-.48-.45-1.02-.45-1.64,0-1.07.41-1.89,1.24-2.47.83-.58,1.99-.87,3.5-.87h2.46v-.14c0-.88-.22-1.51-.65-1.92-.43-.4-1.12-.6-2.08-.6-.49,0-.94.04-1.33.11s-.86.2-1.39.38l-.27.04c-.21,0-.39-.08-.54-.24-.16-.16-.24-.34-.24-.56,0-.38.18-.65.55-.8,1.15-.49,2.33-.74,3.55-.74.94,0,1.75.19,2.42.57.63.37,1.1.86,1.41,1.47s.47,1.28.47,2.02v5.8c0,.26-.1.48-.29.67-.19.18-.42.28-.68.28s-.48-.09-.67-.28c-.18-.18-.28-.41-.28-.67v-.49c-.98,1.02-2.26,1.54-3.83,1.54-.59,0-1.14-.12-1.66-.37ZM1763.66,234.13c.55-.28,1.03-.65,1.42-1.1v-1.7h-2.21c-2.05,0-3.08.53-3.08,1.6s.72,1.62,2.15,1.62c.59,0,1.16-.14,1.71-.42Z"/>
      <path class="cls-2" d="M1770.24,223.12c-.21-.21-.32-.46-.32-.75v-.08c0-.29.11-.54.32-.75.21-.21.46-.32.75-.32h.12c.29,0,.54.11.75.32.21.21.32.46.32.75v.08c0,.29-.11.54-.32.75s-.46.32-.75.32h-.12c-.29,0-.54-.11-.75-.32ZM1770.37,235.85c-.18-.18-.28-.41-.28-.67v-8.79c0-.26.09-.49.28-.68s.41-.29.67-.29c.27,0,.5.09.69.28s.28.41.28.69v8.79c0,.26-.1.48-.29.67-.19.18-.42.28-.68.28s-.48-.09-.67-.28Z"/>
      <path class="cls-2" d="M1775.47,235.85c-.18-.18-.28-.41-.28-.67v-13.3c0-.26.09-.49.28-.68s.41-.29.67-.29c.27,0,.5.09.69.28.18.18.28.41.28.69v13.3c0,.26-.1.48-.29.67-.19.18-.42.28-.68.28s-.48-.09-.67-.28Z"/>
      <path class="cls-2" d="M1780.44,235.74c-.23-.23-.35-.5-.35-.82v-.12c0-.31.12-.59.35-.82s.51-.35.82-.35h.21c.31,0,.59.12.82.35.23.23.35.51.35.82v.12c0,.32-.12.59-.35.82-.23.23-.51.35-.82.35h-.21c-.31,0-.59-.12-.82-.35Z"/>
      <path class="cls-2" d="M1787.55,235.57c-.86-.45-1.54-1.09-2.03-1.93-.49-.83-.74-1.79-.74-2.87s.25-2.08.76-2.91c.49-.81,1.15-1.43,1.98-1.88.83-.44,1.75-.67,2.76-.67.68,0,1.29.09,1.8.26.52.17,1.04.41,1.56.73.27.19.41.44.41.74,0,.21-.08.4-.25.57-.16.18-.35.27-.55.27-.14,0-.29-.04-.45-.12-.48-.25-.87-.42-1.19-.51s-.7-.14-1.17-.14c-1.15,0-2.06.33-2.74.99s-1.01,1.55-1.01,2.67.34,2.01,1.01,2.68c.68.66,1.59.99,2.74.99.46,0,.85-.05,1.17-.14s.71-.27,1.19-.51c.16-.08.31-.12.45-.12.21,0,.39.09.55.27s.25.37.25.57c0,.3-.14.55-.41.74-.52.31-1.04.56-1.56.73-.52.17-1.12.26-1.8.26-.97,0-1.88-.22-2.73-.66Z"/>
      <path class="cls-2" d="M1798.13,235.55c-.79-.46-1.41-1.11-1.85-1.95-.44-.83-.66-1.78-.66-2.83s.22-2.02.66-2.85c.44-.83,1.06-1.48,1.86-1.93s1.72-.68,2.76-.68,1.96.23,2.75.68c.81.46,1.43,1.11,1.87,1.94.44.83.66,1.77.66,2.84s-.22,2.01-.66,2.83c-.45.85-1.08,1.5-1.88,1.95s-1.71.68-2.74.68-1.96-.23-2.77-.68ZM1802.52,234.1c.53-.27.96-.69,1.27-1.26s.47-1.26.47-2.08c0-.86-.16-1.56-.49-2.09-.3-.52-.7-.92-1.2-1.19-.5-.27-1.06-.41-1.67-.41-.56,0-1.1.12-1.62.37-.53.27-.96.69-1.27,1.25-.31.56-.47,1.25-.47,2.07,0,.88.16,1.58.49,2.11.3.53.7.94,1.2,1.21.5.27,1.06.41,1.67.41.56,0,1.1-.13,1.62-.39Z"/>
      <path class="cls-2" d="M1809.01,235.85c-.18-.18-.28-.41-.28-.67v-8.79c0-.26.09-.49.28-.68s.41-.29.67-.29.49.1.68.29.29.42.29.68v.84l-.04-.02c.42-.6.91-1.07,1.47-1.39.55-.33,1.23-.49,2.04-.49.74,0,1.38.2,1.94.58.55.39.95.89,1.2,1.51.85-1.39,2.1-2.09,3.77-2.09.79,0,1.44.19,1.95.57.49.37.86.85,1.12,1.46.25.6.38,1.24.38,1.93v5.9c0,.26-.1.48-.29.67-.19.18-.42.28-.68.28s-.48-.09-.67-.28c-.18-.18-.28-.41-.28-.67v-5.53c0-.92-.16-1.57-.48-1.97-.32-.4-.85-.59-1.59-.59-.66,0-1.21.17-1.66.5s-.87.82-1.27,1.45v6.15c0,.26-.1.48-.29.67-.19.18-.42.28-.68.28s-.48-.09-.67-.28c-.18-.18-.28-.41-.28-.67v-5.53c0-.92-.16-1.57-.48-1.97-.32-.4-.85-.59-1.59-.59-.66,0-1.21.17-1.66.5s-.88.82-1.27,1.45v6.15c0,.26-.1.48-.29.67-.19.18-.42.28-.68.28s-.48-.09-.67-.28Z"/>
    </g>
    <rect class="cls-3" x="1532.35" y="257.22" width="176.33" height="30.9" rx="8.5" ry="8.5"/>
    <rect class="cls-4" x="1538.69" y="265.68" width="176.33" height="30.9" rx="8.5" ry="8.5"/>
    <g>
      <path class="cls-2" d="M1563.24,287.82c-.96-1.31-1.45-3.12-1.45-5.41s.48-4.1,1.45-5.41c.96-1.31,2.34-1.97,4.13-1.97s3.13.65,4.11,1.95c.98,1.3,1.47,3.11,1.47,5.43s-.49,4.13-1.47,5.43c-.98,1.3-2.35,1.95-4.11,1.95s-3.17-.66-4.13-1.97ZM1570.07,286.56c.64-.98.96-2.36.96-4.15s-.32-3.15-.96-4.13c-.64-.98-1.54-1.47-2.71-1.47s-2.06.49-2.71,1.47c-.64.98-.96,2.35-.96,4.13s.32,3.17.96,4.15c.64.98,1.54,1.47,2.71,1.47s2.06-.49,2.71-1.47Z"/>
      <path class="cls-2" d="M1582.01,289.41c-.18-.18-.28-.41-.28-.67v-2.77h-6.23c-.33,0-.61-.12-.85-.35s-.36-.51-.36-.84v-.18c0-.29.08-.54.25-.76l6.44-8.22c.12-.15.28-.27.46-.36s.38-.13.58-.13h.41c.35,0,.65.12.87.35s.34.52.34.86v7.93h1.54c.23,0,.43.09.61.26.17.17.26.37.26.6,0,.25-.08.45-.25.6s-.37.24-.62.24h-1.54v2.77c0,.26-.1.48-.29.67-.19.18-.42.28-.68.28s-.48-.09-.67-.28ZM1581.74,284.27v-6.48c0-.05-.01-.1-.04-.14s-.05-.06-.08-.06c-.04,0-.1.04-.16.12l-4.88,6.27c-.05.05-.08.1-.08.14,0,.1.08.14.23.14h5.02Z"/>
      <path class="cls-2" d="M1594.47,284.42c-.16-.16-.25-.36-.25-.59,0-.25.08-.45.24-.61s.36-.25.6-.25h3.88c.23,0,.43.08.6.26s.26.37.26.6c0,.25-.08.45-.25.61s-.37.24-.61.24h-3.88c-.23,0-.43-.08-.59-.25Z"/>
      <path class="cls-2" d="M1607.17,277.58s-.12-.02-.21.03l-1.78.86c-.18.08-.33.12-.47.12-.26,0-.48-.08-.65-.26s-.26-.39-.26-.65c0-.4.18-.68.55-.86l2.79-1.46c.15-.1.34-.14.57-.14h.43c.27,0,.51.1.71.3s.3.43.3.71v11.89h-1.91v-10.35c0-.1-.02-.16-.07-.2ZM1604.2,289.33c-.17-.17-.26-.38-.26-.63s.08-.46.26-.63.38-.27.63-.27h6.33c.25,0,.46.09.64.27.18.18.27.39.27.63s-.09.46-.27.63c-.18.17-.39.26-.64.26h-6.33c-.25,0-.46-.08-.63-.26Z"/>
      <path class="cls-2" d="M1615.68,289.29c-.21-.2-.31-.46-.31-.79,0-.72.21-1.39.64-1.99.38-.56.85-1.06,1.39-1.51.55-.44,1.37-1.01,2.46-1.71.79-.51,1.46-.96,1.99-1.35,1.15-.86,1.72-1.72,1.72-2.58s-.27-1.45-.81-1.88c-.54-.43-1.34-.65-2.41-.65-1.23,0-2.4.25-3.5.74-.16.07-.29.1-.39.1-.22,0-.41-.08-.56-.24-.16-.16-.24-.35-.24-.58,0-.34.16-.6.47-.78,1.39-.7,2.91-1.04,4.55-1.04.9,0,1.7.17,2.4.51.74.36,1.31.85,1.72,1.49.41.63.61,1.36.61,2.18s-.23,1.59-.7,2.25c-.44.64-.96,1.22-1.57,1.72-.61.5-1.51,1.14-2.7,1.91-1.04.71-1.78,1.25-2.22,1.61-.44.36-.76.73-.93,1.1h7.09c.25,0,.46.09.64.27.18.18.27.39.27.63s-.09.46-.27.63c-.18.17-.39.26-.64.26h-7.91c-.33,0-.59-.1-.8-.3Z"/>
      <path class="cls-2" d="M1628.68,288.97c-.37-.15-.55-.42-.55-.8,0-.25.08-.46.24-.63s.36-.26.6-.26c.12,0,.25.03.39.08,1,.4,2.08.59,3.26.59s2.05-.18,2.74-.55,1.04-.94,1.04-1.7c0-1.71-1.5-2.56-4.51-2.56h-.33c-.23,0-.44-.09-.62-.27s-.27-.38-.27-.62.09-.44.27-.62.38-.27.62-.27h.12c1.38,0,2.43-.21,3.14-.62.71-.42,1.07-1.03,1.07-1.83,0-.67-.28-1.19-.84-1.56-.56-.37-1.35-.55-2.38-.55-1.15,0-2.21.23-3.18.68-.14.05-.26.08-.37.08-.21,0-.39-.08-.54-.23s-.24-.33-.24-.55c0-.31.14-.55.43-.72,1.3-.7,2.65-1.04,4.06-1.04,1.57,0,2.79.32,3.66.96.87.64,1.3,1.56,1.3,2.75,0,.89-.22,1.62-.67,2.18s-1.06.99-1.83,1.26v-.04c.87.19,1.59.59,2.16,1.19.57.6.85,1.43.85,2.48,0,1.24-.49,2.22-1.47,2.92-.98.7-2.26,1.06-3.86,1.06s-2.99-.27-4.29-.82Z"/>
      <path class="cls-2" d="M1641.45,284.42c-.16-.16-.25-.36-.25-.59,0-.25.08-.45.24-.61s.36-.25.6-.25h3.88c.23,0,.43.08.6.26s.26.37.26.6c0,.25-.08.45-.25.61s-.37.24-.61.24h-3.88c-.23,0-.43-.08-.59-.25Z"/>
      <path class="cls-2" d="M1656.59,289.41c-.18-.18-.28-.41-.28-.67v-2.77h-6.23c-.33,0-.61-.12-.85-.35s-.36-.51-.36-.84v-.18c0-.29.08-.54.25-.76l6.44-8.22c.12-.15.28-.27.46-.36s.38-.13.58-.13h.41c.35,0,.65.12.87.35s.34.52.34.86v7.93h1.54c.23,0,.43.09.61.26.17.17.26.37.26.6,0,.25-.08.45-.25.6s-.37.24-.62.24h-1.54v2.77c0,.26-.1.48-.29.67-.19.18-.42.28-.68.28s-.48-.09-.67-.28ZM1656.32,284.27v-6.48c0-.05-.01-.1-.04-.14s-.05-.06-.08-.06c-.04,0-.1.04-.16.12l-4.88,6.27c-.05.05-.08.1-.08.14,0,.1.08.14.23.14h5.02Z"/>
      <path class="cls-2" d="M1662.96,288.6c-.14-.09-.24-.2-.31-.31s-.1-.26-.1-.45c0-.26.08-.47.24-.65.16-.17.36-.26.6-.26.12,0,.27.03.43.1,1.11.57,2.2.86,3.28.86,1.34,0,2.34-.22,2.99-.67.66-.44.98-1.18.98-2.2,0-.85-.28-1.51-.84-2-.56-.48-1.33-.73-2.32-.73-1.15,0-2.19.29-3.14.88l-.25.12c-.14.08-.3.12-.49.12-.4,0-.72-.11-.98-.34s-.39-.52-.39-.87c0-.11.01-.27.04-.49l.92-5.45c.04-.31.16-.57.36-.76s.45-.29.75-.29h6.58c.25,0,.46.09.64.27.18.18.27.39.27.63s-.09.46-.27.63c-.18.17-.39.26-.64.26h-5.54c-.26,0-.41.12-.45.37l-.59,3.92c1.05-.55,2.2-.82,3.44-.82.98,0,1.85.2,2.6.59.71.4,1.25.94,1.63,1.64.38.7.56,1.5.56,2.42,0,1.42-.49,2.55-1.46,3.39-.97.84-2.36,1.26-4.18,1.26-1.67,0-3.13-.4-4.39-1.19Z"/>
      <path class="cls-2" d="M1675.32,282.43c0-1.16.2-2.32.59-3.46.41-1.19,1.07-2.14,1.99-2.86.92-.72,2.04-1.08,3.38-1.08.72,0,1.37.08,1.94.23.57.15,1.13.37,1.69.66.14.07.25.17.33.32.08.14.12.29.12.44,0,.22-.08.42-.25.59-.16.18-.37.27-.62.27-.12,0-.24-.02-.35-.06-.86-.4-1.77-.59-2.73-.59-1.42,0-2.47.49-3.15,1.48-.68.98-1.06,2.23-1.14,3.75l-.04-.02c.96-1.2,2.36-1.8,4.22-1.8.93,0,1.75.2,2.46.59.72.42,1.28,1,1.67,1.73.39.73.58,1.57.58,2.51,0,.85-.21,1.63-.62,2.36-.42.74-1.02,1.31-1.8,1.71-.78.4-1.67.6-2.67.6-3.76,0-5.64-2.45-5.64-7.36ZM1682.66,287.59c.46-.26.83-.61,1.09-1.06s.39-.93.39-1.47c0-.96-.27-1.71-.8-2.25-.53-.54-1.28-.81-2.23-.81-1.76,0-3.05.75-3.85,2.23.37,2.5,1.61,3.75,3.73,3.75.62,0,1.18-.14,1.68-.41Z"/>
      <path class="cls-2" d="M1691.05,289.41c-.18-.18-.28-.41-.28-.67,0-.19.04-.35.12-.49l5.47-10.91c.03-.08.04-.13.04-.14,0-.1-.07-.14-.21-.14h-7.09c-.25,0-.46-.09-.64-.27s-.27-.39-.27-.64.09-.46.27-.65.39-.28.64-.28h8.36c.33,0,.6.1.83.31s.34.47.34.8c0,.29-.07.59-.21.9l-5.82,11.91c-.08.16-.21.29-.38.39s-.34.14-.52.14c-.26,0-.48-.09-.67-.28Z"/>
    </g>
    <path class="cls-9" d="M1514.14,216.9h-16.09c-4.83,0-8.05,2.41-8.05,8.05v11.26c0,5.63,3.22,8.05,8.05,8.05h16.09c4.83,0,8.05-2.41,8.05-8.05v-11.26c0-5.63-3.22-8.05-8.05-8.05ZM1514.9,226.7l-5.04,4.02c-1.06.85-2.41,1.27-3.77,1.27s-2.72-.42-3.77-1.27l-5.04-4.02c-.51-.42-.6-1.19-.19-1.71.42-.51,1.17-.61,1.69-.19l5.04,4.02c1.22.98,3.3.98,4.52,0l5.04-4.02c.51-.42,1.29-.34,1.69.19.42.51.34,1.29-.18,1.71Z"/>
    <g>
      <path class="cls-9" d="M1505.62,285.88l-2.98,2.98c-.63.63-1.63.63-2.27.02-.18-.18-.35-.34-.53-.51-1.66-1.67-3.15-3.43-4.49-5.26-1.32-1.83-2.38-3.67-3.15-5.49-.76-1.83-1.14-3.59-1.14-5.26,0-1.09.19-2.14.58-3.11.39-.98,1-1.88,1.85-2.69,1.03-1.01,2.16-1.51,3.35-1.51.45,0,.9.1,1.3.29.42.19.79.48,1.08.9l3.73,5.26c.29.4.5.77.64,1.13.14.34.23.68.23.98,0,.39-.11.77-.34,1.14-.21.37-.51.76-.9,1.14l-1.22,1.27c-.18.18-.26.39-.26.64,0,.13.02.24.05.37.05.13.1.23.13.32.29.53.79,1.22,1.5,2.06.72.84,1.5,1.69,2.33,2.54.16.16.34.32.5.48.64.63.66,1.66.02,2.3Z"/>
      <path class="cls-9" d="M1523.19,291.32c0,.45-.08.92-.24,1.37-.05.13-.1.26-.16.39-.27.58-.63,1.13-1.09,1.64-.79.87-1.66,1.5-2.64,1.9-.02,0-.03.02-.05.02-.95.39-1.98.6-3.09.6-1.64,0-3.4-.39-5.25-1.17s-3.7-1.85-5.54-3.19c-.63-.47-1.26-.93-1.85-1.43l5.26-5.26c.45.34.85.6,1.19.77.08.03.18.08.29.13.13.05.26.06.4.06.27,0,.48-.1.66-.27l1.22-1.21c.4-.4.79-.71,1.16-.9.37-.23.74-.34,1.14-.34.31,0,.63.06.98.21.35.14.72.35,1.13.63l5.33,3.78c.42.29.71.63.89,1.03.16.4.26.8.26,1.26Z"/>
    </g>
  </g>
</svg>