<?xml version="1.0" encoding="UTF-8"?>
<svg id="Layer_1" data-name="Layer 1" xmlns="http://www.w3.org/2000/svg" version="1.1" viewBox="0 0 219.06 221.36">
  <circle cx="109.5" cy="111.29" r="91.56" fill="#f3f2ed" opacity=".15" stroke-width="0"/>
  <path d="M209.37,107.85c-3.61-53.6-48.52-94.55-102.25-93.23C57.1,15.85,15.65,54.05,10.22,103.63c-.08-.05.07.04,0,0-.02.25.02-.25,0,0-.11,1.26-.42,3.12-.48,4.38l-.03.67c-1.96,44.69,27.46,85.89,70.84,98.15,64.16,18.13,128.96-32.19,128.82-94.74v-4.24ZM107.43,27.38c45.5-1.12,83.75,32.51,88.83,77.24-61.04,39.27-145.77,17.46-173-2.74C29.36,60.16,64.85,28.43,107.43,27.38Z" fill="#fec265" stroke-width="0"/>
</svg>