<?xml version="1.0" encoding="UTF-8"?>
<svg id="_圖層_1" data-name="圖層 1" xmlns="http://www.w3.org/2000/svg" viewBox="0 0 219.6 228.68">
  <defs>
    <style>
      .cls-1 {
        fill: #edb866;
      }

      .cls-2 {
        fill: #35575d;
      }

      .cls-3 {
        fill: #d7a159;
      }
    </style>
  </defs>
  <ellipse class="cls-3" cx="111.83" cy="116.45" rx="107.41" ry="112.23"/>
  <ellipse class="cls-1" cx="105.68" cy="110.03" rx="105.3" ry="110.03"/>
  <path class="cls-2" d="M73.39,180c-10.97-6.51-19.44-15.54-25.39-27.06-5.96-11.54-8.94-24.67-8.94-39.38s3.12-28.3,9.35-39.91c6.23-11.61,14.76-20.63,25.6-27.06,10.83-6.44,22.82-9.66,35.96-9.66,10.02,0,19,1.28,26.92,3.82,7.92,2.55,15.81,6.37,23.67,11.47,1.22.56,2.23,1.59,3.05,3.08.81,1.48,1.22,3.07,1.22,4.78,0,2.41-.82,4.49-2.44,6.26-1.63,1.77-3.73,2.65-6.3,2.65-1.22,0-2.64-.35-4.27-1.06-6.5-3.96-12.93-6.93-19.3-8.92-6.37-1.97-13.2-2.97-20.51-2.97-9.89,0-19.17,2.27-27.83,6.79-8.4,4.68-14.86,11.4-19.4,20.17-4.54,8.78-6.8,18.96-6.8,30.57,0,10.89,2.23,20.73,6.7,29.5,4.47,8.92,10.9,15.81,19.3,20.7,8.39,4.89,18.08,7.33,29.05,7.33,12.46,0,24.24-3.11,35.35-9.34v-35.45c0-1.7-.82-2.55-2.44-2.55h-30.88c-2.3,0-4.3-.89-5.99-2.66-1.7-1.76-2.54-3.85-2.54-6.26s.84-4.49,2.54-6.27c1.69-1.76,3.69-2.65,5.99-2.65h40.02c2.71,0,5.04,1.03,7.01,3.08,1.96,2.05,2.95,4.49,2.95,7.32v48.19c0,2.97-.68,5.62-2.03,7.96-1.36,2.33-3.32,4.14-5.89,5.41-15.44,7.93-30.95,11.89-46.52,11.89-14.09,0-26.48-3.25-37.18-9.76Z"/>
</svg>