<?xml version="1.0" encoding="UTF-8"?>
<svg id="Layer_1" data-name="Layer 1" xmlns="http://www.w3.org/2000/svg" version="1.1" viewBox="0 0 219.06 221.36">
  <defs>
    <style>
      .cls-1 {
        fill: #eac0da;
      }

      .cls-1, .cls-2, .cls-3, .cls-4, .cls-5 {
        stroke-width: 0px;
      }

      .cls-2 {
        fill: #fff;
      }

      .cls-3 {
        fill: #375b6d;
      }

      .cls-4 {
        fill: #f5bc71;
      }

      .cls-5 {
        fill: #cae1f2;
      }
    </style>
  </defs>
  <rect class="cls-2" x="4.84" y="44.43" width="207.32" height="127.32" rx="40" ry="40"/>
  <g>
    <path class="cls-5" d="M80.42,89.57c-.92-10.9-10.21-19.07-21.14-18.61-10.18.43-18.48,8.35-19.41,18.46-.02,0,.02,0,0,0,0,.05,0-.05,0,0-.02.26-.07.64-.08.89v.14c-.25,9.1,5.89,17.38,14.76,19.73,13.12,3.46,26.13-7,25.88-19.74l-.02-.86ZM59.39,73.55c9.26-.39,17.16,6.32,18.35,15.41-12.28,8.21-29.6,4.07-35.22.05,1.09-8.51,8.21-15.1,16.87-15.46"/>
    <path class="cls-4" d="M128.81,89.57c-.92-10.9-10.21-19.07-21.14-18.61-10.18.43-18.48,8.35-19.41,18.46-.02,0,.02,0,0,0,0,.05,0-.05,0,0-.02.26-.07.64-.08.89v.14c-.25,9.1,5.89,17.38,14.76,19.73,13.12,3.46,26.13-7,25.88-19.74l-.02-.86ZM107.78,73.55c9.26-.39,17.16,6.32,18.35,15.41-12.28,8.21-29.6,4.07-35.22.05,1.09-8.51,8.21-15.1,16.87-15.46"/>
    <path class="cls-1" d="M177.19,89.57c-.92-10.9-10.21-19.07-21.14-18.61-10.18.43-18.48,8.35-19.41,18.46-.02,0,.02,0,0,0,0,.05,0-.05,0,0-.02.26-.07.64-.08.89v.14c-.25,9.1,5.89,17.38,14.76,19.73,13.12,3.46,26.13-7,25.88-19.74l-.02-.86ZM156.17,73.55c9.26-.39,17.16,6.32,18.35,15.41-12.28,8.21-29.6,4.07-35.22.05,1.09-8.51,8.21-15.1,16.87-15.46"/>
  </g>
  <g>
    <path class="cls-3" d="M60.28,150.3c-.33-.33-.49-.72-.49-1.17v-15.5c0-.46.16-.85.49-1.19.33-.34.72-.51,1.17-.51s.85.17,1.19.51c.34.34.51.73.51,1.19v1.48l-.07-.04c.75-1.06,1.61-1.88,2.58-2.46s2.17-.87,3.6-.87c1.3,0,2.44.34,3.41,1.03s1.68,1.57,2.11,2.66c1.49-2.46,3.71-3.69,6.65-3.69,1.4,0,2.54.34,3.43,1.01.87.65,1.52,1.51,1.97,2.57.45,1.06.67,2.19.67,3.4v10.41c0,.46-.17.85-.51,1.17-.34.33-.73.49-1.19.49s-.85-.16-1.17-.49-.49-.72-.49-1.17v-9.76c0-1.61-.28-2.77-.85-3.47-.57-.7-1.5-1.05-2.8-1.05-1.16,0-2.13.3-2.93.89-.79.59-1.54,1.44-2.24,2.55v10.84c0,.46-.17.85-.51,1.17-.34.33-.73.49-1.19.49s-.85-.16-1.17-.49-.49-.72-.49-1.17v-9.76c0-1.61-.28-2.77-.85-3.47-.57-.7-1.5-1.05-2.8-1.05-1.16,0-2.13.3-2.93.89-.79.59-1.54,1.44-2.24,2.55v10.84c0,.46-.17.85-.51,1.17-.34.33-.73.49-1.19.49s-.85-.16-1.17-.49Z"/>
    <path class="cls-3" d="M96.17,148.44c-1.65-1.69-2.48-4.05-2.48-7.08,0-1.64.31-3.22.94-4.73.65-1.52,1.64-2.71,2.96-3.58,1.32-.87,2.91-1.3,4.77-1.3s3.34.41,4.66,1.23c1.25.82,2.23,1.92,2.93,3.31.7,1.39,1.05,2.92,1.05,4.61,0,.46-.16.85-.47,1.17s-.72.49-1.23.49h-12.21c.22,1.71.86,3.02,1.93,3.92,1.07.9,2.52,1.35,4.35,1.35.96,0,1.83-.09,2.58-.27s1.52-.46,2.29-.85c.17-.1.39-.14.65-.14.39,0,.73.14,1.03.42.3.28.45.62.45,1.03,0,.55-.33,1.01-.98,1.37-1.01.55-1.98.96-2.89,1.21s-2.06.38-3.43.38c-2.96,0-5.27-.84-6.92-2.53ZM107.64,139.33c-.1-.96-.39-1.77-.87-2.42-.53-.77-1.19-1.35-1.97-1.73-.78-.39-1.6-.58-2.44-.58-.77,0-1.58.18-2.42.54-.84.41-1.51,1.02-2,1.82-.49.81-.78,1.75-.85,2.84h10.12c.31,0,.46-.16.43-.47Z"/>
    <path class="cls-3" d="M117.61,150.3c-.33-.33-.49-.72-.49-1.17v-15.5c0-.46.16-.85.49-1.19.33-.34.72-.51,1.17-.51s.85.17,1.19.51c.34.34.51.73.51,1.19v1.37c.99-1.06,2.01-1.87,3.07-2.42,1.06-.55,2.26-.83,3.61-.83s2.49.31,3.5.94c.96.63,1.7,1.48,2.22,2.57s.78,2.29.78,3.61v10.26c0,.46-.17.85-.51,1.17-.34.33-.74.49-1.19.49s-.85-.16-1.17-.49-.49-.72-.49-1.17v-9.9c0-2.91-1.31-4.37-3.94-4.37-1.16,0-2.2.29-3.13.87s-1.85,1.43-2.76,2.57v10.84c0,.46-.17.85-.51,1.17-.34.33-.74.49-1.19.49s-.85-.16-1.17-.49Z"/>
    <path class="cls-3" d="M143.68,150.03c-.96-.63-1.71-1.48-2.24-2.57-.53-1.08-.79-2.29-.79-3.61v-10.26c0-.46.17-.85.51-1.17.34-.33.73-.49,1.19-.49s.85.16,1.17.49c.33.33.49.72.49,1.17v9.9c0,2.92,1.31,4.37,3.94,4.37,1.16,0,2.2-.29,3.13-.87.93-.58,1.85-1.43,2.76-2.57v-10.84c0-.46.17-.85.51-1.17.34-.33.73-.49,1.19-.49s.85.16,1.17.49c.32.33.49.72.49,1.17v15.5c0,.46-.16.86-.49,1.19-.33.34-.72.51-1.17.51s-.86-.17-1.19-.51c-.34-.34-.51-.73-.51-1.19v-1.37c-.99,1.06-2.01,1.87-3.07,2.42-1.06.55-2.26.83-3.61.83s-2.46-.31-3.47-.94Z"/>
  </g>
</svg>