<?xml version="1.0" encoding="UTF-8"?>
<svg id="_圖層_1" data-name="圖層 1" xmlns="http://www.w3.org/2000/svg" viewBox="0 0 117.86 126.03">
  <defs>
    <style>
      .cls-1 {
        fill: #edb866;
      }
    </style>
  </defs>
  <path class="cls-1" d="M4.69,12.49C-.91,11.38-1.87,1.83,4.92.41l107.43-.18c4.95.86,6.92,6.37,3.91,10.35-.23.31-2.67,1.92-2.84,1.92h-13.08v14.62c0,.32-.51,3.39-.63,3.98-3.22,15.7-21.16,20.06-31.64,30.06,6.95,5.02,15.45,11.33,21.97,16.77,4.07,3.4,10.3,12,10.3,17.4v17.69h12.05c1.89.07,3.59,1.9,4.09,2.58,3.42,4.6-.43,10.02-5.69,10.19-41.79,0-61.38.08-102.03.08-3.9,0-7.65-.96-8.53-5.36-.65-3.26,2.08-7.48,5.47-7.48h12.05v-14.1c0-1.51,1.02-6.07,1.51-7.72,4.18-14,21.08-20.51,30.8-29.97-1.85-.7-3.68-2.03-5.29-3.18-8.32-5.94-27.02-16.92-27.02-28.37V12.49c-3.82-.53-9.51.71-13.08,0ZM88.04,12.49H30.08v14.62c0,4.53,5.2,9.03,8.57,11.44l39.91.11c2.85-.34,7.08-5.19,8.08-7.82.37-.98,1.39-4.48,1.39-5.27v-13.08ZM88.04,113.02v-14.62c0-2.84-2.88-7.86-5.12-9.75l-24.41-17.19-1.22.28c-6.21,5.58-14.42,9.86-20.54,15.38-1.61,1.45-6.15,6.8-6.15,8.72v17.18l4.63-.24s11.22-11.44,23.75-11.44,22.89,11.44,22.89,11.44l6.17.24Z"/>
</svg>