<svg width="24" height="24" viewBox="0 0 24 24" fill="none" xmlns="http://www.w3.org/2000/svg">
<path d="M7.2 22H9.8C13 22 15 20 15 16.8V12.75H8.75C8.34 12.75 8 12.41 8 12C8 11.59 8.34 11.25 8.75 11.25H15V7.2C15 4 13 2 9.8 2H7.21C4.01 2 2.01 4 2.01 7.2V16.8C2 20 4 22 7.2 22Z" fill="#292D32"/>
<path d="M19.44 12.7499L17.37 14.8199C17.22 14.9699 17.15 15.1599 17.15 15.3499C17.15 15.5399 17.22 15.7399 17.37 15.8799C17.66 16.1699 18.14 16.1699 18.43 15.8799L21.78 12.5299C22.07 12.2399 22.07 11.7599 21.78 11.4699L18.43 8.11991C18.14 7.82991 17.66 7.82991 17.37 8.11991C17.08 8.40991 17.08 8.88991 17.37 9.17991L19.44 11.2499H15V12.7499H19.44V12.7499Z" fill="#292D32"/>
</svg>
