<svg width="50" height="50" viewBox="0 0 50 50" fill="none" xmlns="http://www.w3.org/2000/svg">
<rect width="50" height="50" rx="10" fill="#365B6D"/>
<path d="M33.3333 10.8333H16.6666C11.6666 10.8333 8.33325 13.3333 8.33325 19.1666V30.8333C8.33325 36.6666 11.6666 39.1666 16.6666 39.1666H33.3333C38.3333 39.1666 41.6666 36.6666 41.6666 30.8333V19.1666C41.6666 13.3333 38.3333 10.8333 33.3333 10.8333ZM34.1166 20.9833L28.8999 25.15C27.7999 26.0333 26.3999 26.4666 24.9999 26.4666C23.5999 26.4666 22.1833 26.0333 21.0999 25.15L15.8833 20.9833C15.3499 20.55 15.2666 19.75 15.6833 19.2166C16.1166 18.6833 16.8999 18.5833 17.4333 19.0166L22.6499 23.1833C23.9166 24.2 26.0666 24.2 27.3333 23.1833L32.5499 19.0166C33.0833 18.5833 33.8833 18.6666 34.2999 19.2166C34.7333 19.75 34.6499 20.55 34.1166 20.9833Z" fill="#FEC265"/>
</svg>