<?xml version="1.0" encoding="UTF-8"?>
<svg id="_圖層_1" data-name="圖層 1" xmlns="http://www.w3.org/2000/svg" viewBox="0 0 220.39 234.9">
  <defs>
    <style>
      .cls-1 {
        fill: #edb866;
      }

      .cls-2 {
        fill: #f0efea;
      }

      .cls-3 {
        fill: #35575d;
      }
    </style>
  </defs>
  <rect class="cls-2" x=".44" y=".38" width="219.74" height="234.39" rx="14.17" ry="14.17"/>
  <rect class="cls-1" x=".44" y=".38" width="219.74" height="234.9" rx="14.17" ry="14.17"/>
  <rect class="cls-2" x="9.86" y="9.57" width="200.89" height="216.03" rx="11.34" ry="11.34"/>
  <path class="cls-3" d="M199.41,225.93H21.21c-6.26,0-11.34-5.08-11.34-11.34v-53.87h186.71c5.54,5.53,8.64,8.64,14.18,14.17v39.69c0,6.26-5.08,11.34-11.34,11.34Z"/>
  <path class="cls-1" d="M190.16,167.39c5.53,5.53,8.64,8.64,14.17,14.17v37.7H29.37c-5.53-5.53-8.64-8.64-14.17-14.17v-37.7h174.96M190.57,166.39H14.2v39.12l.29.29,7.09,7.09,7.09,7.09.29.29h176.37v-39.12l-.29-.29-8.19-8.19-5.98-5.98-.29-.29h0Z"/>
</svg>