<?xml version="1.0" encoding="UTF-8"?>
<svg id="_圖層_1" data-name="圖層 1" xmlns="http://www.w3.org/2000/svg" viewBox="0 0 60.24 38.03">
  <defs>
    <style>
      .cls-1 {
        fill: #F2F1EC;
      }
    </style>
  </defs>
  <path class="cls-1" d="M2.07,25.41h17.57s-2.65,9.89-2.65,9.89c-.21.77.05,1.6.65,2.12.61.52,1.46.66,2.19.34l39.11-16.8c.77-.33,1.26-1.08,1.26-1.92,0-.83-.5-1.59-1.26-1.92L19.84.31c-.74-.32-1.59-.18-2.19.34-.61.52-.86,1.35-.65,2.12l2.65,9.89H2.07c-.55,0-1.09.22-1.48.61S-.01,14.19-.01,14.74v8.58c0,1.15.94,2.09,2.09,2.09Z"/>
</svg>