<?xml version="1.0" encoding="UTF-8"?>
<svg id="Layer_1" data-name="Layer 1" xmlns="http://www.w3.org/2000/svg" viewBox="0 0 247 250.88">
  <defs>
    <style>
      .cls-1 {
        fill: none;
        stroke: #fdc165;
        stroke-miterlimit: 10;
        stroke-width: 4px;
      }

      .cls-2 {
        fill: #fdc165;
      }

      .cls-2, .cls-3, .cls-4 {
        stroke-width: 0px;
      }

      .cls-3 {
        fill: #231f20;
      }

      .cls-4 {
        fill: #dcebf0;
      }
    </style>
  </defs>
  <g>
    <circle class="cls-2" cx="123.35" cy="124.74" r="119.52"/>
    <circle class="cls-4" cx="123.35" cy="124.74" r="71.08"/>
    <g>
      <polygon class="cls-4" points="94.28 34.31 76.3 29.43 88.46 50.54 94.28 34.31"/>
      <path class="cls-4" d="M44.32,76.76c-.28,0-.57-.07-.84-.21-.89-.47-1.23-1.56-.77-2.44,14.62-27.92,40.52-37.21,41.61-37.59.94-.34,1.97.17,2.31,1.11.33.94-.17,1.98-1.11,2.31-.25.09-25.67,9.25-39.6,35.85-.33.62-.95.97-1.61.97Z"/>
    </g>
    <g>
      <polygon class="cls-4" points="215.25 142.3 228.6 129.3 204.25 129.03 215.25 142.3"/>
      <path class="cls-4" d="M216.64,134.06c-.12,0-.24-.01-.36-.04-.98-.2-1.62-1.15-1.42-2.13.05-.27,5.1-26.81-10.72-52.33-.53-.85-.27-1.97.58-2.49.85-.52,1.97-.27,2.49.58,16.6,26.78,11.43,53.81,11.2,54.95-.17.86-.93,1.45-1.77,1.45Z"/>
    </g>
    <g>
      <polygon class="cls-4" points="69.34 199.69 74.82 217.49 86.17 195.94 69.34 199.69"/>
      <path class="cls-4" d="M124.06,222.27c-27.88,0-46.69-14.68-47.53-15.35-.78-.62-.91-1.76-.29-2.54.63-.78,1.77-.91,2.54-.29.21.17,21.54,16.76,51.46,14.32,1.03-.06,1.87.66,1.95,1.66.08,1-.66,1.87-1.66,1.95-2.21.18-4.37.27-6.48.27Z"/>
    </g>
  </g>
  <path class="cls-1" d="M53.37,124.74h0c0,9.08,8.28,16.43,18.49,16.43h102.98c10.21,0,18.49-7.36,18.49-16.43h0c0-9.08-8.28-16.43-18.49-16.43h-102.98c-10.21,0-18.49,7.36-18.49,16.43Z"/>
  <g>
    <path class="cls-3" d="M85.14,132.74v-14.57c0-.6.14-1.04.41-1.32s.7-.41,1.29-.38h3.96c.59,0,1.01.13,1.27.38.26.25.37.66.33,1.22v2.44c0,.59-.12,1.01-.37,1.27-.25.26-.66.38-1.23.35h-4.16v10.61c0,.6-.25.9-.74.9s-.76-.3-.76-.9ZM90.98,118.71v-.47c0-.34-.18-.51-.55-.51h-3.24c-.36,0-.55.18-.55.53v.45h4.34ZM90.98,120.39v-.47h-4.34v1.02h3.79c.36,0,.55-.18.55-.55ZM91.99,127.35l-3.85.49-.41.02c-.21.01-.37-.04-.5-.17-.12-.12-.19-.3-.19-.52,0-.21.06-.36.2-.47.13-.1.31-.16.55-.16h.78l.02-.02.61-.72-.2-.14-1.15-.88c-.25-.18-.43-.33-.55-.45s-.18-.23-.18-.33c0-.4.21-.61.62-.61.16,0,.35.08.59.25l.49-.86c.12-.2.24-.35.38-.46s.27-.17.4-.17c.2,0,.35.05.47.16s.18.25.18.45c0,.17-.35.67-1.05,1.5l.74.55v-.02l1.04-1.54c.22-.33.45-.49.68-.49.43,0,.64.2.64.59,0,.2-.18.53-.54,1.02-.36.48-.93,1.18-1.73,2.11l-.04-.04.02-.02.02.04-.06.02v-.04l1.68-.12v.04h-.04c-.17-.47-.25-.73-.25-.78,0-.35.19-.53.57-.53.13,0,.26.08.4.24s.3.43.48.81c.31.66.47,1.08.47,1.25,0,.38-.21.57-.64.57-.31,0-.53-.2-.64-.59ZM88.13,133.37c-.1-.12-.16-.3-.16-.52,0-.16.05-.29.14-.4.09-.11.21-.18.37-.21.53-.1,1.01-.26,1.43-.47.42-.21.73-.44.94-.7h-1.46c-.89,0-1.33-.44-1.33-1.31v-1.09c0-.23.06-.42.17-.55.11-.13.27-.2.48-.2s.37.07.48.2c.11.13.17.31.17.55v.82c0,.13.03.22.09.28s.16.09.3.09h1.56c.05-.5.08-.83.1-1.02.04-.65.27-.98.68-.98.46,0,.68.29.68.88,0,1.86-.48,3.12-1.43,3.77-1,.69-1.92,1.04-2.75,1.04-.2,0-.35-.06-.45-.19ZM98.34,127.33l-3.93.49-.39.02c-.21.01-.37-.04-.5-.17-.12-.12-.19-.3-.19-.52,0-.42.27-.62.8-.62h.55v-.02l.61-.7-1.37-1.04c-.25-.18-.43-.33-.54-.45-.11-.12-.17-.23-.17-.33,0-.4.21-.61.62-.61.21,0,.38.07.51.2l.06.06.49-.82c.26-.44.53-.66.82-.66.2,0,.35.05.46.16s.17.25.17.45c0,.09-.08.25-.23.47s-.42.57-.8,1.04l.72.57,1.05-1.58c.22-.33.45-.49.68-.49.43,0,.64.2.64.59,0,.2-.19.54-.56,1.04s-.95,1.19-1.73,2.08v-.02h-.02l.14-.02,1.7-.12-.06-.16c-.12-.35-.18-.55-.18-.59,0-.35.19-.53.57-.53.26,0,.56.36.9,1.09.33.69.49,1.14.49,1.35,0,.18-.06.33-.18.43s-.27.16-.45.16c-.3,0-.53-.25-.7-.74ZM93.85,132.89v-4.32c0-.21.06-.37.18-.5s.29-.19.51-.19.39.06.52.18c.12.12.19.29.19.51v1.45h1.58c.13,0,.22-.03.28-.1s.09-.17.11-.31v-1c0-.23.06-.42.17-.56s.28-.21.5-.21c.44,0,.66.25.66.76v1.23c0,.92-.47,1.39-1.41,1.39h-1.89v1.66c0,.44-.23.66-.7.66s-.68-.22-.68-.66ZM97.78,132.82c0-.5.26-.74.78-.74h.74c.23,0,.42-.07.55-.2s.2-.31.2-.55v-9.2h-4.36c-.57,0-.99-.13-1.26-.39-.27-.26-.38-.67-.34-1.23v-2.44c0-.57.13-.99.39-1.25.26-.26.66-.38,1.21-.35h4.18c.6,0,1.04.14,1.32.41s.4.7.36,1.29v13.48c.1,1.39-.54,2.04-1.93,1.93h-.98c-.57,0-.86-.25-.86-.76ZM100.04,118.71v-.45c0-.35-.18-.53-.55-.53h-3.46c-.35,0-.53.17-.53.51v.47h4.53ZM100.04,120.94v-1.02h-4.53v.47c0,.36.18.55.53.55h4Z"/>
    <path class="cls-3" d="M104.36,132.17c0-.22.14-.52.41-.9,1.21-1.64,1.86-3.72,1.95-6.23l.06-2.29.06-2.83h1.56c0,.99-.02,2.36-.06,4.12-.05,2.42-.48,4.6-1.29,6.52-.7,1.63-1.35,2.44-1.93,2.44-.51,0-.76-.28-.76-.84ZM104.69,120.24c-.14-.12-.21-.3-.21-.55,0-.48.29-.72.88-.72h6.64c.59,0,.88.24.88.72,0,.25-.07.43-.21.55s-.36.18-.66.18h-6.64c-.3,0-.52-.06-.66-.18ZM107.66,132.6c0-.44.36-.7,1.07-.76.3-.03.51-.06.64-.1s.23-.1.29-.18c.14-.16.27-.63.39-1.43.12-.87.22-2.26.31-4.16.03-.42.04-.73.04-.94,0-.39-.21-.59-.62-.59h-1.84l.08-1.45h2.52c1.02,0,1.52.46,1.52,1.37,0,.12,0,.23-.02.34s-.02.22-.02.34c-.05,1.28-.14,2.59-.25,3.94s-.25,2.29-.41,2.82c-.31,1.05-1.3,1.58-2.95,1.58-.51,0-.76-.27-.76-.8ZM108.56,115.84c.53,0,.8.29.8.86v2.56h-1.6v-2.56c0-.57.27-.86.8-.86ZM112.25,123.91c0-.25.15-.53.45-.84,1.58-1.77,2.64-3.93,3.2-6.48.12-.5.35-.74.7-.74.53,0,.8.21.8.64l-.08.53c1.07,2.53,2.51,4.56,4.34,6.11.31.25.47.5.47.74,0,.56-.27.84-.8.84-.65,0-1.65-.99-3.01-2.97-.5-.7-1-1.71-1.52-3.03-.57,1.59-1.28,3.01-2.11,4.26-.38.56-.71.99-1.01,1.29s-.52.45-.69.45c-.5,0-.74-.27-.74-.8ZM119.53,132.97c-1.5-.78-3.37-1.51-5.62-2.19-.39-.12-.59-.34-.59-.66,0-.53.27-.8.82-.8.48,0,1.47.27,2.97.8,1.51.55,2.57.98,3.18,1.29.65.34.98.68.98,1.02,0,.29-.07.51-.2.66s-.32.23-.57.23c-.21,0-.53-.12-.98-.35ZM117.6,127.05c-.65-.46-1.24-.85-1.78-1.19-.29-.18-.49-.34-.62-.48s-.19-.3-.19-.48c0-.17.07-.31.21-.43s.32-.18.56-.18c.18,0,.45.07.79.21s.74.35,1.18.63c.65.42,1.11.75,1.39,1s.42.46.43.64c.01.27-.04.48-.17.62s-.32.23-.58.25c-.2.03-.61-.18-1.23-.61Z"/>
    <path class="cls-3" d="M126.17,132.68c0-.56.31-.84.94-.84h.92c.47,0,.72-.25.74-.74v-3.46c-.95.26-2.13.53-3.54.8-.05.01-.12.02-.21.02-.22,0-.39-.08-.51-.22s-.18-.35-.18-.6c0-.23.08-.42.23-.57s.41-.25.76-.31c1.41-.26,2.55-.48,3.44-.66v-3.34h-3.44c-.62,0-.94-.26-.94-.78s.31-.76.94-.76h3.44v-2.71c-.21.03-.57.08-1.09.16-.77.1-1.38.18-1.84.21-.56.04-.84-.22-.84-.78,0-.27.1-.47.31-.59.16-.1.57-.18,1.25-.23,2.17-.16,3.86-.46,5.06-.92.34-.13.59-.2.74-.2.53,0,.8.27.8.8,0,.13-.03.24-.1.33s-.17.18-.31.27-.39.18-.73.27-.9.21-1.67.37v3.01h4.24c-.12-1.84-.18-3.3-.18-4.39,0-.65.27-.98.8-.98.29,0,.5.08.63.25s.21.43.21.78c0,1.25.04,2.7.12,4.34h4.82c.64,0,.96.26.96.78s-.32.76-.96.76h-4.69c.14,1.46.42,2.82.82,4.08.56-.62,1.04-1.24,1.45-1.86.42-.62.77-.94,1.07-.94s.5.05.62.16.2.27.2.49c0,.52-.91,1.76-2.71,3.73.44,1,.84,1.75,1.2,2.24s.69.73.99.73.52-.59.7-1.78c.04-.25.12-.43.23-.54s.28-.17.49-.17c.51,0,.76.27.76.82,0,.89-.2,1.73-.59,2.52-.38.78-.85,1.17-1.41,1.17-.27,0-.57-.09-.88-.26s-.62-.44-.94-.79c-.65-.73-1.25-1.64-1.8-2.73-.4.4-.77.74-1.1,1.02s-.78.6-1.34.98c-.53.36-.94.63-1.22.79s-.49.24-.62.24c-.51,0-.76-.27-.76-.82,0-.34.28-.66.84-.96,1.02-.53,2.21-1.45,3.57-2.75-.57-1.55-.97-3.34-1.19-5.37h-4.36v2.97c.18-.05.61-.17,1.29-.35.13-.04.27-.08.42-.13s.31-.09.48-.13c.1-.03.18-.04.21-.04.17,0,.31.07.41.2s.16.32.16.57c0,.38-.3.64-.9.8l-2.07.57v4.39c0,.68-.17,1.17-.5,1.48s-.86.45-1.57.41h-1.17c-.62,0-.94-.27-.94-.82ZM139.28,119.91c-.2-.18-.45-.47-.76-.86-.36-.46-.62-.79-.75-1s-.21-.38-.21-.53c0-.17.07-.31.21-.43s.29-.18.46-.18c.34,0,.81.34,1.43,1.04.62.7.94,1.18.94,1.43,0,.53-.28.8-.84.8-.12,0-.27-.09-.47-.27Z"/>
    <path class="cls-3" d="M146.51,132.74v-8.95c-.75,1.48-1.3,2.23-1.62,2.23-.23,0-.41-.06-.53-.18s-.18-.27-.18-.47c0-.3.14-.68.43-1.15,1.21-2,2.22-4.46,3.03-7.36.2-.69.51-1.04.94-1.04.51,0,.76.22.76.66,0,.23-.08.61-.23,1.11-.26.78-.62,1.72-1.07,2.81v12.32c0,.61-.25.92-.76.92s-.76-.31-.76-.92ZM149.61,132.82v-14.61c-.05-.59.06-1.02.34-1.3s.72-.4,1.32-.36h2.13c.61,0,1.06.13,1.34.4s.39.69.34,1.26v5.31c.05.6-.07,1.04-.35,1.33s-.73.4-1.33.35h-2.23v7.62c0,.56-.26.84-.78.84s-.78-.28-.78-.84ZM153.6,120.12v-1.6c0-.38-.2-.57-.59-.57h-1.23c-.38,0-.58.2-.61.61v1.56h2.42ZM153.6,123.21v-1.72h-2.42v2.3h1.84c.36,0,.56-.2.59-.59ZM157.21,132.78c0-.52.31-.78.94-.78h1.07c.53,0,.79-.25.76-.76v-6.04h-2.25c-.6.05-1.04-.07-1.33-.35s-.4-.73-.35-1.33v-5.31c-.1-1.18.46-1.74,1.68-1.66h2.13c.61,0,1.06.13,1.34.4s.39.69.34,1.26v13.24c0,.7-.18,1.24-.53,1.6-.18.18-.4.31-.66.38s-.57.11-.94.11h-1.27c-.62,0-.94-.25-.94-.76ZM159.98,120.12v-1.6c0-.18-.05-.32-.15-.42s-.24-.15-.42-.15h-1.31c-.35,0-.54.19-.57.57v1.6h2.44ZM159.98,123.79v-2.3h-2.44v1.72c0,.36.19.56.57.59h1.88Z"/>
  </g>
</svg>