<svg width="50" height="50" viewBox="0 0 50 50" fill="none" xmlns="http://www.w3.org/2000/svg">
<rect width="50" height="50" rx="10" fill="#365B6D"/>
<path d="M34.3666 23.9166C33.6499 23.9166 33.0833 23.3333 33.0833 22.6333C33.0833 22.0166 32.4666 20.7333 31.4333 19.6166C30.4166 18.5333 29.2999 17.9 28.3666 17.9C27.6499 17.9 27.0833 17.3166 27.0833 16.6166C27.0833 15.9166 27.6666 15.3333 28.3666 15.3333C30.0333 15.3333 31.7833 16.2333 33.3166 17.85C34.7499 19.3666 35.6666 21.25 35.6666 22.6166C35.6666 23.3333 35.0833 23.9166 34.3666 23.9166Z" fill="#FEC265"/>
<path d="M40.3834 23.9166C39.6668 23.9166 39.1001 23.3333 39.1001 22.6333C39.1001 16.7166 34.2834 11.9166 28.3834 11.9166C27.6668 11.9166 27.1001 11.3333 27.1001 10.6333C27.1001 9.93331 27.6668 9.33331 28.3668 9.33331C35.7001 9.33331 41.6668 15.3 41.6668 22.6333C41.6668 23.3333 41.0834 23.9166 40.3834 23.9166Z" fill="#FEC265"/>
<path d="M23.4166 30.9166L20.3333 34C19.6833 34.65 18.6499 34.65 17.9833 34.0166C17.7999 33.8333 17.6166 33.6666 17.4333 33.4833C15.7166 31.75 14.1666 29.9333 12.7833 28.0333C11.4166 26.1333 10.3166 24.2333 9.51659 22.35C8.73325 20.45 8.33325 18.6333 8.33325 16.9C8.33325 15.7666 8.53325 14.6833 8.93325 13.6833C9.33325 12.6666 9.96659 11.7333 10.8499 10.9C11.9166 9.84998 13.0833 9.33331 14.3166 9.33331C14.7833 9.33331 15.2499 9.43331 15.6666 9.63331C16.0999 9.83331 16.4833 10.1333 16.7833 10.5666L20.6499 16.0166C20.9499 16.4333 21.1666 16.8166 21.3166 17.1833C21.4666 17.5333 21.5499 17.8833 21.5499 18.2C21.5499 18.6 21.4333 19 21.1999 19.3833C20.9833 19.7666 20.6666 20.1666 20.2666 20.5666L18.9999 21.8833C18.8166 22.0666 18.7333 22.2833 18.7333 22.55C18.7333 22.6833 18.7499 22.8 18.7833 22.9333C18.8333 23.0666 18.8833 23.1666 18.9166 23.2666C19.2166 23.8166 19.7333 24.5333 20.4666 25.4C21.2166 26.2666 22.0166 27.15 22.8833 28.0333C23.0499 28.2 23.2333 28.3666 23.3999 28.5333C24.0666 29.1833 24.0833 30.25 23.4166 30.9166Z" fill="#FEC265"/>
<path d="M41.6167 36.55C41.6167 37.0167 41.5333 37.5 41.3667 37.9667C41.3167 38.1 41.2667 38.2334 41.2 38.3667C40.9167 38.9667 40.55 39.5334 40.0667 40.0667C39.25 40.9667 38.35 41.6167 37.3333 42.0334C37.3167 42.0334 37.3 42.05 37.2833 42.05C36.3 42.45 35.2333 42.6667 34.0833 42.6667C32.3833 42.6667 30.5667 42.2667 28.65 41.45C26.7333 40.6334 24.8167 39.5334 22.9167 38.15C22.2667 37.6667 21.6167 37.1834 21 36.6667L26.45 31.2167C26.9167 31.5667 27.3333 31.8334 27.6833 32.0167C27.7667 32.05 27.8667 32.1 27.9833 32.15C28.1167 32.2 28.25 32.2167 28.4 32.2167C28.6833 32.2167 28.9 32.1167 29.0833 31.9334L30.35 30.6834C30.7667 30.2667 31.1667 29.95 31.55 29.75C31.9333 29.5167 32.3167 29.4 32.7333 29.4C33.05 29.4 33.3833 29.4667 33.75 29.6167C34.1167 29.7667 34.5 29.9834 34.9167 30.2667L40.4333 34.1834C40.8667 34.4834 41.1667 34.8334 41.35 35.25C41.5167 35.6667 41.6167 36.0834 41.6167 36.55Z" fill="#FEC265"/>
</svg>
