<svg width="15" height="15" viewBox="0 0 15 15" fill="none" xmlns="http://www.w3.org/2000/svg">
<path d="M7.5 1.24976C4.05625 1.24976 1.25 4.05601 1.25 7.49976C1.25 10.9435 4.05625 13.7498 7.5 13.7498C10.9438 13.7498 13.75 10.9435 13.75 7.49976C13.75 4.05601 10.9438 1.24976 7.5 1.24976ZM7.03125 4.99976C7.03125 4.74351 7.24375 4.53101 7.5 4.53101C7.75625 4.53101 7.96875 4.74351 7.96875 4.99976V8.12476C7.96875 8.38101 7.75625 8.59351 7.5 8.59351C7.24375 8.59351 7.03125 8.38101 7.03125 8.12476V4.99976ZM8.075 10.2373C8.04375 10.3185 8 10.381 7.94375 10.4435C7.88125 10.4998 7.8125 10.5435 7.7375 10.5748C7.6625 10.606 7.58125 10.6248 7.5 10.6248C7.41875 10.6248 7.3375 10.606 7.2625 10.5748C7.1875 10.5435 7.11875 10.4998 7.05625 10.4435C7 10.381 6.95625 10.3185 6.925 10.2373C6.89375 10.1623 6.875 10.081 6.875 9.99976C6.875 9.91851 6.89375 9.83726 6.925 9.76226C6.95625 9.68726 7 9.61851 7.05625 9.55601C7.11875 9.49976 7.1875 9.45601 7.2625 9.42476C7.4125 9.36226 7.5875 9.36226 7.7375 9.42476C7.8125 9.45601 7.88125 9.49976 7.94375 9.55601C8 9.61851 8.04375 9.68726 8.075 9.76226C8.10625 9.83726 8.125 9.91851 8.125 9.99976C8.125 10.081 8.10625 10.1623 8.075 10.2373Z" fill="#E15A5A"/>
</svg>
