<?xml version="1.0" encoding="UTF-8"?>
<svg xmlns="http://www.w3.org/2000/svg" version="1.1" xmlns:xlink="http://www.w3.org/1999/xlink" viewBox="0 0 1920 1080">
  <defs>
    <style>
      .cls-1 {
        fill: #f0f2ef;
      }

      .cls-1, .cls-2, .cls-3, .cls-4, .cls-5, .cls-6, .cls-7 {
        stroke-width: 0px;
      }

      .cls-2 {
        fill: #c9e0f2;
      }

      .cls-8 {
        clip-path: url(#clippath-2);
      }

      .cls-3 {
        fill: #edeeeb;
      }

      .cls-4, .cls-9, .cls-10 {
        fill: none;
      }

      .cls-11 {
        clip-path: url(#clippath-1);
      }

      .cls-12 {
        clip-path: url(#clippath-4);
      }

      .cls-5 {
        fill: #fdc164;
      }

      .cls-13 {
        opacity: .15;
      }

      .cls-14 {
        clip-path: url(#clippath);
      }

      .cls-6 {
        fill: #ebc0da;
      }

      .cls-15 {
        clip-path: url(#clippath-3);
      }

      .cls-9 {
        stroke: #5c8a95;
        stroke-width: 4px;
      }

      .cls-9, .cls-10 {
        stroke-miterlimit: 10;
      }

      .cls-10 {
        stroke: #f9c7cb;
        stroke-width: 9px;
      }

      .cls-7 {
        fill: #f2f1ec;
      }
    </style>
    <clipPath id="clippath">
      <rect class="cls-4" x="1759.27" y="31.06" width="103.35" height="103.35"/>
    </clipPath>
    <clipPath id="clippath-1">
      <rect class="cls-4" x="185.24" y="40.54" width="107.89" height="107.89" transform="translate(-17.97 97.42) rotate(-22.21)"/>
    </clipPath>
    <clipPath id="clippath-2">
      <rect class="cls-4" x="71.28" y="499.51" width="90.37" height="90.37" transform="translate(-428.11 427.7) rotate(-65.81)"/>
    </clipPath>
    <clipPath id="clippath-3">
      <rect class="cls-4" x="1769.26" y="872.72" width="116.04" height="116.03" transform="translate(263.26 2257.03) rotate(-67.29)"/>
    </clipPath>
    <clipPath id="clippath-4">
      <rect class="cls-4" x="1624.46" y="300.77" width="61.45" height="61.45" transform="translate(110.7 1012.75) rotate(-35.13)"/>
    </clipPath>
  </defs>
  <g id="Layer_39" data-name="Layer 39">
    <g>
      <ellipse class="cls-9" cx="116.09" cy="863.73" rx="36.48" ry="15.85" transform="translate(-748.13 751.4) rotate(-74.94)"/>
      <ellipse class="cls-9" cx="115.02" cy="869.39" rx="58.67" ry="29.43" transform="translate(-754.4 754.56) rotate(-74.94)"/>
      <ellipse class="cls-9" cx="128.28" cy="862.59" rx="103.76" ry="52.06" transform="translate(-738.02 762.33) rotate(-74.94)"/>
      <ellipse class="cls-9" cx="136.16" cy="868.89" rx="142.24" ry="73.51" transform="translate(-738.27 774.61) rotate(-74.94)"/>
    </g>
  </g>
  <g id="Layer_34" data-name="Layer 34">
    <path class="cls-1" d="M141.87,274.31c1.33,3.23,1.71,5.87,1.77,8.36.08,3.83,1.76,5.89,5.28,6.84.62.17,1.18.56,1.76.85-.07.22-.1.5-.17.52-6.77,1.12-6.76,6.98-8.23,11.79-.33,1.07-.47,2.19-.73,3.44-1.6-.63-1.45-2.04-1.73-3.21-.22-.91-.65-1.83-.64-2.73.06-4.7-1.95-7.74-6.63-8.91-.88-.22-1.8-.57-2.43-1.37,1.54-1.08,3.4-.93,5.14-1.19,2.12-.32,3.29-1.33,3.77-3.47.75-3.39,1.74-6.72,2.86-10.92Z"/>
  </g>
  <g id="Layer_33" data-name="Layer 33">
    <path class="cls-1" d="M230.13,367.39c1.33,3.23,1.71,5.87,1.77,8.36.08,3.83,1.76,5.89,5.28,6.84.62.17,1.18.56,1.76.85-.07.22-.1.5-.17.52-6.77,1.12-6.76,6.98-8.23,11.79-.33,1.07-.47,2.19-.73,3.44-1.6-.63-1.45-2.04-1.73-3.21-.22-.91-.65-1.83-.64-2.73.06-4.7-1.95-7.74-6.63-8.91-.88-.22-1.8-.57-2.43-1.37,1.54-1.08,3.4-.93,5.14-1.19,2.12-.32,3.29-1.33,3.77-3.47.75-3.39,1.74-6.72,2.86-10.92Z"/>
  </g>
  <g id="Layer_32" data-name="Layer 32">
    <path class="cls-1" d="M1656.27,883.44c1.33,3.23,1.71,5.87,1.77,8.36.08,3.83,1.76,5.89,5.28,6.84.62.17,1.18.56,1.76.85-.07.22-.1.5-.17.52-6.77,1.12-6.76,6.98-8.23,11.79-.33,1.07-.47,2.19-.73,3.44-1.6-.63-1.45-2.04-1.73-3.21-.22-.91-.65-1.83-.64-2.73.06-4.7-1.95-7.74-6.63-8.91-.88-.22-1.8-.57-2.43-1.37,1.54-1.08,3.4-.93,5.14-1.19,2.12-.32,3.29-1.33,3.77-3.47.75-3.39,1.74-6.72,2.86-10.92Z"/>
  </g>
  <g id="Layer_31" data-name="Layer 31">
    <path class="cls-1" d="M240.18,567.49c1.33,3.23,1.71,5.87,1.77,8.36.08,3.83,1.76,5.89,5.28,6.84.62.17,1.18.56,1.76.85-.07.22-.1.5-.17.52-6.77,1.12-6.76,6.98-8.23,11.79-.33,1.07-.47,2.19-.73,3.44-1.6-.63-1.45-2.04-1.73-3.21-.22-.91-.65-1.83-.64-2.73.06-4.7-1.95-7.74-6.63-8.91-.88-.22-1.8-.57-2.43-1.37,1.54-1.08,3.4-.93,5.14-1.19,2.12-.32,3.29-1.33,3.77-3.47.75-3.39,1.74-6.72,2.86-10.92Z"/>
  </g>
  <g id="Layer_30" data-name="Layer 30">
    <path class="cls-1" d="M107.57,116.29c1.33,3.23,1.71,5.87,1.77,8.36.08,3.83,1.76,5.89,5.28,6.84.62.17,1.18.56,1.76.85-.07.22-.1.5-.17.52-6.77,1.12-6.76,6.98-8.23,11.79-.33,1.07-.47,2.19-.73,3.44-1.6-.63-1.45-2.04-1.73-3.21-.22-.91-.65-1.83-.64-2.73.06-4.7-1.95-7.74-6.63-8.91-.88-.22-1.8-.57-2.43-1.37,1.54-1.08,3.4-.93,5.14-1.19,2.12-.32,3.29-1.33,3.77-3.47.75-3.39,1.74-6.72,2.86-10.92Z"/>
  </g>
  <g id="Layer_29" data-name="Layer 29">
    <path class="cls-1" d="M390.18,667.96c1.33,3.23,1.71,5.87,1.77,8.36.08,3.83,1.76,5.89,5.28,6.84.62.17,1.18.56,1.76.85-.07.22-.1.5-.17.52-6.77,1.12-6.76,6.98-8.23,11.79-.33,1.07-.47,2.19-.73,3.44-1.6-.63-1.45-2.04-1.73-3.21-.22-.91-.65-1.83-.64-2.73.06-4.7-1.95-7.74-6.63-8.91-.88-.22-1.8-.57-2.43-1.37,1.54-1.08,3.4-.93,5.14-1.19,2.12-.32,3.29-1.33,3.77-3.47.75-3.39,1.74-6.72,2.86-10.92Z"/>
  </g>
  <g id="Layer_28" data-name="Layer 28">
    <path class="cls-1" d="M309.57,839.06c1.33,3.23,1.71,5.87,1.77,8.36.08,3.83,1.76,5.89,5.28,6.84.62.17,1.18.56,1.76.85-.07.22-.1.5-.17.52-6.77,1.12-6.76,6.98-8.23,11.79-.33,1.07-.47,2.19-.73,3.44-1.6-.63-1.45-2.04-1.73-3.21-.22-.91-.65-1.83-.64-2.73.06-4.7-1.95-7.74-6.63-8.91-.88-.22-1.8-.57-2.43-1.37,1.54-1.08,3.4-.93,5.14-1.19,2.12-.32,3.29-1.33,3.77-3.47.75-3.39,1.74-6.72,2.86-10.92Z"/>
  </g>
  <g id="Layer_27" data-name="Layer 27">
    <path class="cls-1" d="M1810.19,567.3c1.33,3.23,1.71,5.87,1.77,8.36.08,3.83,1.76,5.89,5.28,6.84.62.17,1.18.56,1.76.85-.07.22-.1.5-.17.52-6.77,1.12-6.76,6.98-8.23,11.79-.33,1.07-.47,2.19-.73,3.44-1.6-.63-1.45-2.04-1.73-3.21-.22-.91-.65-1.83-.64-2.73.06-4.7-1.95-7.74-6.63-8.91-.88-.22-1.8-.57-2.43-1.37,1.54-1.08,3.4-.93,5.14-1.19,2.12-.32,3.29-1.33,3.77-3.47.75-3.39,1.74-6.72,2.86-10.92Z"/>
  </g>
  <g id="Layer_26" data-name="Layer 26">
    <path class="cls-1" d="M1627.9,427.82c1.33,3.23,1.71,5.87,1.77,8.36.08,3.83,1.76,5.89,5.28,6.84.62.17,1.18.56,1.76.85-.07.22-.1.5-.17.52-6.77,1.12-6.76,6.98-8.23,11.79-.33,1.07-.47,2.19-.73,3.44-1.6-.63-1.45-2.04-1.73-3.21-.22-.91-.65-1.83-.64-2.73.06-4.7-1.95-7.74-6.63-8.91-.88-.22-1.8-.57-2.43-1.37,1.54-1.08,3.4-.93,5.14-1.19,2.12-.32,3.29-1.33,3.77-3.47.75-3.39,1.74-6.72,2.86-10.92Z"/>
  </g>
  <g id="Layer_25" data-name="Layer 25">
    <path class="cls-1" d="M1666.9,722.18c1.33,3.23,1.71,5.87,1.77,8.36.08,3.83,1.76,5.89,5.28,6.84.62.17,1.18.56,1.76.85-.07.22-.1.5-.17.52-6.77,1.12-6.76,6.98-8.23,11.79-.33,1.07-.47,2.19-.73,3.44-1.6-.63-1.45-2.04-1.73-3.21-.22-.91-.65-1.83-.64-2.73.06-4.7-1.95-7.74-6.63-8.91-.88-.22-1.8-.57-2.43-1.37,1.54-1.08,3.4-.93,5.14-1.19,2.12-.32,3.29-1.33,3.77-3.47.75-3.39,1.74-6.72,2.86-10.92Z"/>
  </g>
  <g id="Layer_24" data-name="Layer 24">
    <path class="cls-1" d="M1628.11,152.26c1.33,3.23,1.71,5.87,1.77,8.36.08,3.83,1.76,5.89,5.28,6.84.62.17,1.18.56,1.76.85-.07.22-.1.5-.17.52-6.77,1.12-6.76,6.98-8.23,11.79-.33,1.07-.47,2.19-.73,3.44-1.6-.63-1.45-2.04-1.73-3.21-.22-.91-.65-1.83-.64-2.73.06-4.7-1.95-7.74-6.63-8.91-.88-.22-1.8-.57-2.43-1.37,1.54-1.08,3.4-.93,5.14-1.19,2.12-.32,3.29-1.33,3.77-3.47.75-3.39,1.74-6.72,2.86-10.92Z"/>
  </g>
  <g id="Layer_23" data-name="Layer 23">
    <path class="cls-1" d="M1875.04,316.06c1.33,3.23,1.71,5.87,1.77,8.36.08,3.83,1.76,5.89,5.28,6.84.62.17,1.18.56,1.76.85-.07.22-.1.5-.17.52-6.77,1.12-6.76,6.98-8.23,11.79-.33,1.07-.47,2.19-.73,3.44-1.6-.63-1.45-2.04-1.73-3.21-.22-.91-.65-1.83-.64-2.73.06-4.7-1.95-7.74-6.63-8.91-.88-.22-1.8-.57-2.43-1.37,1.54-1.08,3.4-.93,5.14-1.19,2.12-.32,3.29-1.33,3.77-3.47.75-3.39,1.74-6.72,2.86-10.92Z"/>
  </g>
  <g id="Layer_22" data-name="Layer 22">
    <path class="cls-1" d="M1776.17,174.81c1.7,4.13,2.19,7.52,2.26,10.7.1,4.91,2.25,7.54,6.75,8.75.79.21,1.51.72,2.26,1.09-.09.29-.13.64-.22.66-8.67,1.43-8.66,8.94-10.53,15.09-.42,1.37-.6,2.8-.94,4.41-2.04-.81-1.86-2.61-2.22-4.11-.28-1.17-.83-2.34-.81-3.5.08-6.01-2.5-9.9-8.49-11.4-1.12-.28-2.31-.73-3.11-1.75,1.97-1.38,4.35-1.19,6.57-1.52,2.72-.41,4.21-1.7,4.82-4.45.96-4.33,2.23-8.6,3.66-13.97Z"/>
  </g>
  <g id="Layer_21" data-name="Layer 21">
    <path class="cls-1" d="M368.02,400.7c1.48,3.6,1.91,6.55,1.97,9.32.09,4.27,1.96,6.57,5.88,7.62.69.19,1.31.63,1.97.95-.08.25-.11.56-.19.57-7.55,1.25-7.54,7.78-9.17,13.14-.36,1.19-.53,2.44-.82,3.84-1.78-.7-1.62-2.27-1.93-3.58-.24-1.02-.72-2.03-.71-3.05.07-5.24-2.18-8.62-7.39-9.93-.98-.24-2.01-.64-2.71-1.53,1.72-1.2,3.79-1.04,5.72-1.33,2.36-.35,3.67-1.48,4.2-3.87.84-3.77,1.94-7.49,3.18-12.17Z"/>
  </g>
  <g id="Layer_20" data-name="Layer 20">
    <circle class="cls-1" cx="1499.62" cy="72.59" r="4.42"/>
  </g>
  <g id="Layer_19" data-name="Layer 19">
    <g>
      <g class="cls-13">
        <g class="cls-14">
          <path class="cls-7" d="M1862.61,82.74c0,28.54-23.14,51.68-51.68,51.68s-51.68-23.14-51.68-51.68,23.14-51.68,51.68-51.68,51.68,23.14,51.68,51.68"/>
        </g>
      </g>
      <path class="cls-2" d="M1861.58,98.33c7.72-28.65-8.41-58.09-36.72-67.03-26.35-8.32-54.85,4.21-66.57,29.15-.03-.04.03.04,0,0-.06.13.06-.13,0,0-.29.64-.78,1.56-1.04,2.2l-.14.34c-9.03,23-1.04,49.8,19.43,63.97,30.27,20.96,73.14,6.28,84.28-26.42l.76-2.21ZM1822.74,38.03c23.97,7.57,37.93,31.99,32.57,56.27-38.93,9.58-79.29-16.99-89.9-32.42,10.66-20.7,34.89-30.93,57.32-23.85"/>
      <path class="cls-10" d="M1763.62,50.54c-24.88-10.21-55.06-9.69-56.8-4.21-6.26,19.73,139.38,95.26,200.34,86.18,13.71-2.04-19.25-27.58-45.23-39.53"/>
    </g>
  </g>
  <g id="Layer_18" data-name="Layer 18">
    <g>
      <g class="cls-13">
        <g class="cls-11">
          <path class="cls-7" d="M289.12,74.09c11.26,27.58-1.97,59.07-29.55,70.33-27.58,11.26-59.07-1.97-70.33-29.55-11.26-27.58,1.97-59.07,29.55-70.33,27.58-11.26,59.07,1.97,70.33,29.55"/>
        </g>
      </g>
      <path class="cls-6" d="M293.46,71.69c-13.2-28.77-46.5-41.93-75.82-29.96-27.29,11.14-42.13,40.85-34.74,69.3-.05,0,.05,0,0,0,.04.14-.04-.14,0,0,.2.72.42,1.81.65,2.51l.12.37c8.27,25.02,33.09,41.56,59.55,39.24,39.13-3.44,64.29-44.71,51.13-79.13l-.89-2.33ZM220.48,48.7c24.83-10.14,52.93.38,65.09,23.96-25.4,34.4-76.63,40.11-95.86,34.68-5.37-24.25,7.54-49.16,30.77-58.64"/>
    </g>
  </g>
  <g id="Layer_17" data-name="Layer 17">
    <circle class="cls-1" cx="1575.41" cy="603.75" r="4.42"/>
  </g>
  <g id="Layer_16" data-name="Layer 16">
    <circle class="cls-1" cx="426.42" cy="967.94" r="4.42"/>
  </g>
  <g id="Layer_15" data-name="Layer 15">
    <circle class="cls-1" cx="140.74" cy="718.15" r="4.42"/>
  </g>
  <g id="Layer_14" data-name="Layer 14">
    <circle class="cls-1" cx="1873.56" cy="671.27" r="4.42"/>
  </g>
  <g id="Layer_13" data-name="Layer 13">
    <circle class="cls-1" cx="1783.54" cy="397.02" r="4.42"/>
  </g>
  <g id="Layer_12" data-name="Layer 12">
    <circle class="cls-1" cx="1494.79" cy="383.15" r="4.42"/>
  </g>
  <g id="Layer_11" data-name="Layer 11">
    <circle class="cls-1" cx="155.33" cy="911.34" r="4.42"/>
  </g>
  <g id="Layer_10" data-name="Layer 10">
    <g>
      <g class="cls-13">
        <g class="cls-8">
          <path class="cls-7" d="M157.68,563.21c-10.23,22.76-36.97,32.92-59.73,22.7-22.76-10.23-32.93-36.97-22.7-59.73,10.23-22.76,36.97-32.92,59.73-22.7,22.76,10.23,32.92,36.97,22.7,59.73"/>
        </g>
      </g>
      <path class="cls-2" d="M161.64,564.46c9.83-24.62-1.43-52.42-25.62-63.29-22.52-10.12-49.11-1.96-62.1,18.95-.02-.04.02.04,0,0-.06.11.06-.11,0,0-.32.54-.85,1.3-1.15,1.85l-.16.29c-10.4,19.47-6.1,44.08,10.59,58.79,24.69,21.75,64.25,13.18,77.53-14.69l.9-1.89ZM133.44,506.91c20.49,9.21,30.34,32.33,23.06,53.32-35.54,4.46-68.59-23.32-76.4-38.11,11.61-17.27,34.17-23.82,53.34-15.21"/>
    </g>
  </g>
  <g id="Layer_9" data-name="Layer 9">
    <g>
      <g class="cls-13">
        <g class="cls-15">
          <path class="cls-7" d="M1880.8,953.13c-12.37,29.56-46.36,43.49-75.92,31.12-29.56-12.37-43.49-46.36-31.12-75.92,12.37-29.56,46.36-43.49,75.92-31.12,29.56,12.37,43.49,46.36,31.12,75.92"/>
        </g>
      </g>
      <path class="cls-5" d="M1885.92,954.6c11.79-31.93-3.57-67.24-34.99-80.39-29.25-12.24-63.11-.88-79.09,26.39-.03-.05.03.05,0,0-.08.14.08-.14,0,0-.39.7-1.05,1.7-1.41,2.41l-.19.38c-12.7,25.34-6.36,56.79,15.55,75.1,32.41,27.1,82.91,14.78,99.03-21.43l1.1-2.45ZM1847.81,881.67c26.61,11.13,40.02,40.49,31.37,67.67-45.47,6.91-88.82-27.65-99.34-46.38,14.33-22.55,43.07-31.71,67.97-21.29"/>
    </g>
  </g>
  <g id="Layer_8" data-name="Layer 8">
    <g>
      <g class="cls-13">
        <g class="cls-12">
          <path class="cls-7" d="M1680.32,313.82c9.76,13.88,6.43,33.05-7.45,42.81-13.88,9.76-33.05,6.43-42.81-7.45-9.76-13.88-6.43-33.05,7.45-42.81,13.88-9.76,33.05-6.43,42.81,7.45"/>
        </g>
      </g>
      <path class="cls-6" d="M1682.42,311.94c-10.99-14.29-31.16-17.36-45.91-6.98-13.73,9.66-18.19,28.05-10.47,42.9-.03,0,.03,0,0,0,.04.07-.04-.07,0,0,.2.37.46.95.68,1.31l.12.19c7.78,12.84,23.67,18.86,38.06,14.2,21.28-6.89,30-33.01,18.31-50.44l-.79-1.18ZM1638.98,308.46c12.49-8.79,29.43-6.53,39.19,5.01-9.72,22.33-37.44,32.03-48.8,31.46-6.07-12.78-2.07-28.25,9.62-36.48"/>
    </g>
  </g>
  <g id="Layer_7" data-name="Layer 7">
    <g>
      <ellipse class="cls-9" cx="1627.8" cy="129.59" rx="12.76" ry="29.38" transform="translate(115.04 744.48) rotate(-26.67)"/>
      <ellipse class="cls-9" cx="1629.57" cy="133.89" rx="23.7" ry="47.24" transform="translate(113.3 745.73) rotate(-26.67)"/>
      <ellipse class="cls-9" cx="1618" cy="130.67" rx="41.92" ry="83.56" transform="translate(113.51 740.19) rotate(-26.67)"/>
      <ellipse class="cls-9" cx="1612.8" cy="136.92" rx="59.2" ry="114.55" transform="translate(110.15 738.52) rotate(-26.67)"/>
    </g>
  </g>
  <g id="Layer_6" data-name="Layer 6">
    <path class="cls-3" d="M267.16,258.68c2.11-1.44,3.56-3.21,4.5-5.8,1.15,2.53,2.22,4.59,5.08,5.04-1.6,2.1-3.04,3.98-4.56,5.98-1.35-2.09-2.6-4.03-5.03-5.21Z"/>
  </g>
</svg>