<?xml version="1.0" encoding="UTF-8"?>
<svg id="Layer_1" data-name="Layer 1" xmlns="http://www.w3.org/2000/svg" version="1.1" xmlns:xlink="http://www.w3.org/1999/xlink" viewBox="0 0 1920 1080">
  <defs>
    <style>
      .cls-1 {
        fill: #f0f2ef;
      }

      .cls-1, .cls-2, .cls-3, .cls-4, .cls-5, .cls-6, .cls-7 {
        stroke-width: 0px;
      }

      .cls-8 {
        stroke-miterlimit: 10;
        stroke-width: 4px;
      }

      .cls-8, .cls-9 {
        stroke: #5c8a95;
      }

      .cls-8, .cls-9, .cls-4, .cls-10 {
        fill: none;
      }

      .cls-9 {
        stroke-miterlimit: 10;
        stroke-width: 4px;
      }

      .cls-2 {
        fill: #c9e0f2;
      }

      .cls-11 {
        clip-path: url(#clippath-2);
      }

      .cls-3 {
        fill: #edeeeb;
      }

      .cls-12 {
        clip-path: url(#clippath-1);
      }

      .cls-13 {
        clip-path: url(#clippath-4);
      }

      .cls-5 {
        fill: #fdc164;
      }

      .cls-14 {
        clip-path: url(#clippath);
      }

      .cls-6 {
        fill: #ebc0da;
      }

      .cls-15 {
        clip-path: url(#clippath-3);
      }

      .cls-16 {
        opacity: .2;
      }

      .cls-10 {
        stroke: #f9c7cb;
        stroke-miterlimit: 10;
        stroke-width: 9px;
      }

      .cls-7 {
        fill: #f2f1ec;
      }
    </style>
    <clipPath id="clippath">
      <rect class="cls-4" x="1759.3" y="31.1" width="103.3" height="103.4"/>
    </clipPath>
    <clipPath id="clippath-1">
      <rect class="cls-4" x="185.2" y="40.5" width="107.9" height="107.9" transform="translate(-18 97.4) rotate(-22.2)"/>
    </clipPath>
    <clipPath id="clippath-2">
      <rect class="cls-4" x="74.3" y="457.9" width="90.4" height="90.4" transform="translate(-388.4 406) rotate(-65.8)"/>
    </clipPath>
    <clipPath id="clippath-3">
      <rect class="cls-4" x="1769.3" y="872.7" width="116" height="116" transform="translate(263.2 2257) rotate(-67.3)"/>
    </clipPath>
    <clipPath id="clippath-4">
      <rect class="cls-4" x="1825.7" y="445.9" width="61.4" height="61.5" transform="translate(63.9 1155.1) rotate(-35.1)"/>
    </clipPath>
  </defs>
  <g id="Layer_39" data-name="Layer 39">
    <g>
      <ellipse class="cls-8" cx="114" cy="910.1" rx="36.5" ry="15.8" transform="translate(-794.4 783.7) rotate(-74.9)"/>
      <ellipse class="cls-8" cx="113" cy="915.7" rx="58.7" ry="29.4" transform="translate(-800.7 786.9) rotate(-74.9)"/>
      <ellipse class="cls-8" cx="126.2" cy="908.9" rx="103.8" ry="52.1" transform="translate(-784.3 794.7) rotate(-74.9)"/>
      <ellipse class="cls-8" cx="134.1" cy="915.2" rx="142.2" ry="73.5" transform="translate(-784.5 806.9) rotate(-74.9)"/>
    </g>
  </g>
  <g id="Layer_34" data-name="Layer 34">
    <path class="cls-1" d="M68.3,231.5c1.3,3.2,1.7,5.9,1.8,8.4,0,3.8,1.8,5.9,5.3,6.8.6.2,1.2.6,1.8.9,0,.2-.1.5-.2.5-6.8,1.1-6.8,7-8.2,11.8-.3,1.1-.5,2.2-.7,3.4-1.6-.6-1.4-2-1.7-3.2-.2-.9-.6-1.8-.6-2.7,0-4.7-1.9-7.7-6.6-8.9-.9-.2-1.8-.6-2.4-1.4,1.5-1.1,3.4-.9,5.1-1.2,2.1-.3,3.3-1.3,3.8-3.5.8-3.4,1.7-6.7,2.9-10.9h0Z"/>
  </g>
  <g id="Layer_33" data-name="Layer 33">
    <path class="cls-1" d="M230.1,367.4c1.3,3.2,1.7,5.9,1.8,8.4,0,3.8,1.8,5.9,5.3,6.8.6.2,1.2.6,1.8.9,0,.2-.1.5-.2.5-6.8,1.1-6.8,7-8.2,11.8-.3,1.1-.5,2.2-.7,3.4-1.6-.6-1.4-2-1.7-3.2-.2-.9-.6-1.8-.6-2.7,0-4.7-1.9-7.7-6.6-8.9-.9-.2-1.8-.6-2.4-1.4,1.5-1.1,3.4-.9,5.1-1.2,2.1-.3,3.3-1.3,3.8-3.5.8-3.4,1.7-6.7,2.9-10.9h0Z"/>
  </g>
  <g id="Layer_32" data-name="Layer 32">
    <path class="cls-1" d="M1656.3,883.4c1.3,3.2,1.7,5.9,1.8,8.4,0,3.8,1.8,5.9,5.3,6.8.6.2,1.2.6,1.8.8,0,.2,0,.5-.2.5-6.8,1.1-6.8,7-8.2,11.8-.3,1.1-.5,2.2-.7,3.4-1.6-.6-1.4-2-1.7-3.2-.2-.9-.7-1.8-.6-2.7,0-4.7-1.9-7.7-6.6-8.9-.9-.2-1.8-.6-2.4-1.4,1.5-1.1,3.4-.9,5.1-1.2,2.1-.3,3.3-1.3,3.8-3.5.8-3.4,1.7-6.7,2.9-10.9h0Z"/>
  </g>
  <g id="Layer_30" data-name="Layer 30">
    <path class="cls-1" d="M71.5,61.1c1.3,3.2,1.7,5.9,1.8,8.4,0,3.8,1.8,5.9,5.3,6.8.6.2,1.2.6,1.8.9,0,.2,0,.5-.2.5-6.8,1.1-6.8,7-8.2,11.8-.3,1.1-.5,2.2-.7,3.4-1.6-.6-1.4-2-1.7-3.2-.2-.9-.7-1.8-.6-2.7,0-4.7-1.9-7.7-6.6-8.9-.9-.2-1.8-.6-2.4-1.4,1.5-1.1,3.4-.9,5.1-1.2,2.1-.3,3.3-1.3,3.8-3.5.8-3.4,1.7-6.7,2.9-10.9h0Z"/>
  </g>
  <g id="Layer_29" data-name="Layer 29">
    <path class="cls-1" d="M400.5,74.5c1.3,3.2,1.7,5.9,1.8,8.4,0,3.8,1.8,5.9,5.3,6.8.6.2,1.2.6,1.8.8,0,.2-.1.5-.2.5-6.8,1.1-6.8,7-8.2,11.8-.3,1.1-.5,2.2-.7,3.4-1.6-.6-1.5-2-1.7-3.2-.2-.9-.6-1.8-.6-2.7,0-4.7-2-7.7-6.6-8.9-.9-.2-1.8-.6-2.4-1.4,1.5-1.1,3.4-.9,5.1-1.2,2.1-.3,3.3-1.3,3.8-3.5.8-3.4,1.7-6.7,2.9-10.9h0Z"/>
  </g>
  <g id="Layer_28" data-name="Layer 28">
    <path class="cls-1" d="M58.2,683.9c1.3,3.2,1.7,5.9,1.8,8.4,0,3.8,1.8,5.9,5.3,6.8.6.2,1.2.6,1.8.8,0,.2-.1.5-.2.5-6.8,1.1-6.8,7-8.2,11.8-.3,1.1-.5,2.2-.7,3.4-1.6-.6-1.5-2-1.7-3.2-.2-.9-.6-1.8-.6-2.7,0-4.7-2-7.7-6.6-8.9-.9-.2-1.8-.6-2.4-1.4,1.5-1.1,3.4-.9,5.1-1.2,2.1-.3,3.3-1.3,3.8-3.5.8-3.4,1.7-6.7,2.9-10.9h0Z"/>
  </g>
  <g id="Layer_27" data-name="Layer 27">
    <path class="cls-1" d="M1810.2,567.3c1.3,3.2,1.7,5.9,1.8,8.4,0,3.8,1.8,5.9,5.3,6.8.6.2,1.2.6,1.8.8,0,.2,0,.5-.2.5-6.8,1.1-6.8,7-8.2,11.8-.3,1.1-.5,2.2-.7,3.4-1.6-.6-1.4-2-1.7-3.2-.2-.9-.7-1.8-.6-2.7,0-4.7-1.9-7.7-6.6-8.9-.9-.2-1.8-.6-2.4-1.4,1.5-1.1,3.4-.9,5.1-1.2,2.1-.3,3.3-1.3,3.8-3.5.8-3.4,1.7-6.7,2.9-10.9h0Z"/>
  </g>
  <g id="Layer_25" data-name="Layer 25">
    <path class="cls-1" d="M1666.9,722.2c1.3,3.2,1.7,5.9,1.8,8.4,0,3.8,1.8,5.9,5.3,6.8.6.2,1.2.6,1.8.8,0,.2,0,.5-.2.5-6.8,1.1-6.8,7-8.2,11.8-.3,1.1-.5,2.2-.7,3.4-1.6-.6-1.4-2-1.7-3.2-.2-.9-.7-1.8-.6-2.7,0-4.7-1.9-7.7-6.6-8.9-.9-.2-1.8-.6-2.4-1.4,1.5-1.1,3.4-.9,5.1-1.2,2.1-.3,3.3-1.3,3.8-3.5.8-3.4,1.7-6.7,2.9-10.9h0Z"/>
  </g>
  <g id="Layer_24" data-name="Layer 24">
    <path class="cls-1" d="M1646,106.3c1.3,3.2,1.7,5.9,1.8,8.4,0,3.8,1.8,5.9,5.3,6.8.6.2,1.2.6,1.8.9,0,.2,0,.5-.2.5-6.8,1.1-6.8,7-8.2,11.8-.3,1.1-.5,2.2-.7,3.4-1.6-.6-1.4-2-1.7-3.2-.2-.9-.7-1.8-.6-2.7,0-4.7-1.9-7.7-6.6-8.9-.9-.2-1.8-.6-2.4-1.4,1.5-1.1,3.4-.9,5.1-1.2,2.1-.3,3.3-1.3,3.8-3.5.8-3.4,1.7-6.7,2.9-10.9h0Z"/>
  </g>
  <g id="Layer_23" data-name="Layer 23">
    <path class="cls-1" d="M1875,316.1c1.3,3.2,1.7,5.9,1.8,8.4,0,3.8,1.8,5.9,5.3,6.8.6.2,1.2.6,1.8.9,0,.2,0,.5-.2.5-6.8,1.1-6.8,7-8.2,11.8-.3,1.1-.5,2.2-.7,3.4-1.6-.6-1.4-2-1.7-3.2-.2-.9-.7-1.8-.6-2.7,0-4.7-1.9-7.7-6.6-8.9s-1.8-.6-2.4-1.4c1.5-1.1,3.4-.9,5.1-1.2,2.1-.3,3.3-1.3,3.8-3.5.8-3.4,1.7-6.7,2.9-10.9h0Z"/>
  </g>
  <g id="Layer_22" data-name="Layer 22">
    <path class="cls-1" d="M1776.2,174.8c1.7,4.1,2.2,7.5,2.3,10.7,0,4.9,2.2,7.5,6.8,8.8.8.2,1.5.7,2.3,1.1,0,.3-.1.6-.2.7-8.7,1.4-8.7,8.9-10.5,15.1-.4,1.4-.6,2.8-.9,4.4-2-.8-1.9-2.6-2.2-4.1-.3-1.2-.8-2.3-.8-3.5,0-6-2.5-9.9-8.5-11.4-1.1-.3-2.3-.7-3.1-1.8,2-1.4,4.3-1.2,6.6-1.5,2.7-.4,4.2-1.7,4.8-4.4,1-4.3,2.2-8.6,3.7-14Z"/>
  </g>
  <g id="Layer_21" data-name="Layer 21">
    <path class="cls-1" d="M368,245.6c1.5,3.6,1.9,6.5,2,9.3,0,4.3,2,6.6,5.9,7.6.7.2,1.3.6,2,1,0,.2-.1.6-.2.6-7.5,1.2-7.5,7.8-9.2,13.1-.4,1.2-.5,2.4-.8,3.8-1.8-.7-1.6-2.3-1.9-3.6-.2-1-.7-2-.7-3,0-5.2-2.2-8.6-7.4-9.9-1-.2-2-.6-2.7-1.5,1.7-1.2,3.8-1,5.7-1.3,2.4-.4,3.7-1.5,4.2-3.9.8-3.8,1.9-7.5,3.2-12.2h0Z"/>
  </g>
  <g id="Layer_20" data-name="Layer 20">
    <circle class="cls-1" cx="1499.6" cy="72.6" r="4.4"/>
  </g>
  <g id="Layer_19" data-name="Layer 19">
    <g>
      <g class="cls-16">
        <g class="cls-14">
          <path class="cls-7" d="M1862.6,82.7c0,28.5-23.1,51.7-51.7,51.7s-51.7-23.1-51.7-51.7,23.1-51.7,51.7-51.7,51.7,23.1,51.7,51.7"/>
        </g>
      </g>
      <path class="cls-2" d="M1861.6,98.3c7.7-28.7-8.4-58.1-36.7-67-26.3-8.3-54.8,4.2-66.6,29.2,0,0,0,0,0,0,0,.1,0-.1,0,0-.3.6-.8,1.6-1,2.2v.3c-9.2,23-1.2,49.8,19.3,64,30.3,21,73.1,6.3,84.3-26.4l.8-2.2h0ZM1822.7,38c24,7.6,37.9,32,32.6,56.3-38.9,9.6-79.3-17-89.9-32.4,10.7-20.7,34.9-30.9,57.3-23.8"/>
      <path class="cls-10" d="M1763.6,50.5c-24.9-10.2-55.1-9.7-56.8-4.2-6.3,19.7,139.4,95.3,200.3,86.2,13.7-2-19.2-27.6-45.2-39.5"/>
    </g>
  </g>
  <g id="Layer_18" data-name="Layer 18">
    <g>
      <g class="cls-16">
        <g class="cls-12">
          <path class="cls-7" d="M289.1,74.1c11.3,27.6-2,59.1-29.5,70.3-27.6,11.3-59.1-2-70.3-29.6s2-59.1,29.6-70.3,59.1,2,70.3,29.6"/>
        </g>
      </g>
      <path class="cls-6" d="M293.5,71.7c-13.2-28.8-46.5-41.9-75.8-30-27.3,11.1-42.1,40.8-34.7,69.3,0,0,0,0,0,0,0,.1,0-.1,0,0,.2.7.4,1.8.6,2.5v.4c8.4,25,33.2,41.6,59.7,39.2,39.1-3.4,64.3-44.7,51.1-79.1l-.9-2.3h0ZM220.5,48.7c24.8-10.1,52.9.4,65.1,24-25.4,34.4-76.6,40.1-95.9,34.7-5.4-24.2,7.5-49.2,30.8-58.6"/>
    </g>
  </g>
  <g id="Layer_17" data-name="Layer 17">
    <circle class="cls-1" cx="1675.7" cy="284.7" r="4.4"/>
  </g>
  <g id="Layer_16" data-name="Layer 16">
    <circle class="cls-1" cx="119.5" cy="323.9" r="4.4"/>
  </g>
  <g id="Layer_15" data-name="Layer 15">
    <circle class="cls-1" cx="243.9" cy="526.3" r="4.4"/>
  </g>
  <g id="Layer_14" data-name="Layer 14">
    <circle class="cls-1" cx="1873.6" cy="671.3" r="4.4"/>
  </g>
  <g id="Layer_13" data-name="Layer 13">
    <circle class="cls-1" cx="1783.5" cy="397" r="4.4"/>
  </g>
  <g id="Layer_12" data-name="Layer 12">
    <circle class="cls-1" cx="1813.6" cy="773.4" r="4.4"/>
  </g>
  <g id="Layer_11" data-name="Layer 11">
    <circle class="cls-1" cx="161.9" cy="715.7" r="4.4"/>
  </g>
  <g id="Layer_10" data-name="Layer 10">
    <g>
      <g class="cls-16">
        <g class="cls-11">
          <path class="cls-7" d="M160.7,521.7c-10.2,22.8-37,32.9-59.7,22.7-22.8-10.2-32.9-37-22.7-59.7,10.2-22.8,37-32.9,59.7-22.7,22.8,10.2,32.9,37,22.7,59.7"/>
        </g>
      </g>
      <path class="cls-2" d="M164.7,522.9c9.8-24.6-1.4-52.4-25.6-63.3-22.5-10.1-49.1-2-62.1,18.9,0,0,0,0,0,0,0,.1,0-.1,0,0-.3.5-.8,1.3-1.2,1.8l-.2.3c-10.4,19.5-6.1,44.1,10.6,58.8,24.7,21.8,64.2,13.2,77.5-14.7l.9-1.9h0ZM136.5,465.4c20.5,9.2,30.3,32.3,23.1,53.3-35.5,4.5-68.6-23.3-76.4-38.1,11.6-17.3,34.2-23.8,53.3-15.2"/>
    </g>
  </g>
  <g id="Layer_9" data-name="Layer 9">
    <g>
      <g class="cls-16">
        <g class="cls-15">
          <path class="cls-7" d="M1880.8,953.1c-12.4,29.6-46.4,43.5-75.9,31.1s-43.5-46.4-31.1-75.9,46.4-43.5,75.9-31.1,43.5,46.4,31.1,75.9"/>
        </g>
      </g>
      <path class="cls-5" d="M1885.9,954.6c11.8-31.9-3.6-67.2-35-80.4-29.2-12.2-63.1-.9-79.1,26.4,0,0,0,0,0,0,0,.1,0-.1,0,0-.4.7-1.1,1.7-1.4,2.4l-.2.4c-12.7,25.3-6.4,56.8,15.6,75.1,32.4,27.1,82.9,14.8,99-21.4l1.1-2.5h0ZM1847.8,881.7c26.6,11.1,40,40.5,31.4,67.7-45.5,6.9-88.8-27.7-99.3-46.4,14.3-22.5,43.1-31.7,68-21.3"/>
    </g>
  </g>
  <g id="Layer_8" data-name="Layer 8">
    <g>
      <g class="cls-16">
        <g class="cls-13">
          <path class="cls-7" d="M1881.6,459.1c9.8,13.9,6.4,33-7.4,42.8s-33.1,6.4-42.8-7.5-6.4-33,7.4-42.8,33.1-6.4,42.8,7.5"/>
        </g>
      </g>
      <path class="cls-6" d="M1883.7,457.2c-11-14.3-31.2-17.4-45.9-7-13.7,9.7-18.2,28-10.5,42.9,0,0,0,0,0,0,0,0,0,0,0,0,.2.4.5,1,.7,1.3v.2c7.9,12.8,23.8,18.9,38.2,14.2,21.3-6.9,30-33,18.3-50.4l-.8-1.2h0ZM1840.3,453.7c12.5-8.8,29.4-6.5,39.2,5-9.7,22.3-37.4,32-48.8,31.5-6.1-12.8-2.1-28.2,9.6-36.5"/>
    </g>
  </g>
  <g id="Layer_7" data-name="Layer 7">
    <g>
      <ellipse class="cls-9" cx="1387.9" cy="146" rx="12.8" ry="29.4" transform="translate(82.1 638.5) rotate(-26.7)"/>
      <ellipse class="cls-9" cx="1389.7" cy="150.3" rx="23.7" ry="47.2" transform="translate(80.4 639.8) rotate(-26.7)"/>
      <ellipse class="cls-9" cx="1378.1" cy="147.1" rx="41.9" ry="83.6" transform="translate(80.6 634.2) rotate(-26.7)"/>
      <ellipse class="cls-9" cx="1372.9" cy="153.4" rx="59.2" ry="114.6" transform="translate(77.2 632.6) rotate(-26.7)"/>
    </g>
  </g>
  <g id="Layer_6" data-name="Layer 6">
    <path class="cls-3" d="M267.2,258.7c2.1-1.4,3.6-3.2,4.5-5.8,1.1,2.5,2.2,4.6,5.1,5-1.6,2.1-3,4-4.6,6-1.4-2.1-2.6-4-5-5.2h0Z"/>
  </g>
  <image width="269" height="440" transform="translate(254.2 518.1)" xlink:href="welimg2.png"/>
  <image width="641" height="1001" transform="translate(1356.7 146.8) scale(.7)" xlink:href="welimg3.png"/>
</svg>