<?xml version="1.0" encoding="UTF-8"?>
<svg id="Layer_2" data-name="Layer 2" xmlns="http://www.w3.org/2000/svg" version="1.1" xmlns:xlink="http://www.w3.org/1999/xlink" viewBox="0 0 406.64 231.29">
  <defs>
    <style>
      .cls-1 {
        fill: #cde2ed;
      }

      .cls-1, .cls-2, .cls-3, .cls-4, .cls-5, .cls-6, .cls-7, .cls-8 {
        stroke-width: 0px;
      }

      .cls-2 {
        fill: #e5a856;
      }

      .cls-3, .cls-9 {
        fill: none;
      }

      .cls-10 {
        clip-path: url(#clippath-1);
      }

      .cls-9 {
        stroke: #365b6d;
        stroke-miterlimit: 10;
      }

      .cls-4 {
        fill: #666;
      }

      .cls-5 {
        fill: #f2f1ec;
      }

      .cls-6 {
        fill: #fdc164;
      }

      .cls-11 {
        opacity: .15;
      }

      .cls-12 {
        clip-path: url(#clippath);
      }

      .cls-7 {
        fill: #365b6d;
      }

      .cls-8 {
        fill: #f2f1ec;
      }
    </style>
    <clipPath id="clippath">
      <path class="cls-3" d="M30.25,159.97v52.47c0,1.14.12,2.24.36,3.31,1.65,7.44,8.7,13.05,17.14,13.05h326.37c9.66,0,17.5-7.33,17.5-16.36V20.07c0-9.03-7.84-16.36-17.5-16.36H47.84c-9.7,0-17.55,7.38-17.5,16.44v1.69s.32,60.75.32,60.75l-.41,77.38Z"/>
    </clipPath>
    <clipPath id="clippath-1">
      <rect class="cls-3" x="231.7" y="196.74" width="18.44" height="18.44"/>
    </clipPath>
  </defs>
  <g id="_撕開底層" data-name="撕開底層">
    <g>
      <path class="cls-1" d="M24.2,154.63l-.14-.05-11.57-9.29-.08-.12c-.03-.12-3.08-12.53-3.08-28.45s3.05-30.31,3.08-30.45l.08-.13,11.57-9.29.14-.05h6.23l.22.22v77.38l-.22.22h-6.23Z"/>
      <path class="cls-7" d="M30.43,77.03v77.38h-6.23l-11.57-9.29s-3.08-12.32-3.08-28.4,3.08-30.41,3.08-30.41l11.57-9.29h6.23M30.43,76.59h-6.23l-.28.1-11.57,9.29-.16.25c-.03.14-3.09,14.56-3.09,30.5s3.06,28.38,3.09,28.51l.15.24,11.57,9.29.28.1h6.23l.44-.44v-77.38l-.44-.44h0Z"/>
    </g>
    <g>
      <path class="cls-5" d="M30.44,160.17v52.47c0,1.14.12,2.24.36,3.31,1.65,7.44,8.7,13.05,17.14,13.05h326.37c9.66,0,17.5-7.33,17.5-16.36V20.27c0-9.03-7.84-16.36-17.5-16.36H48.03c-9.7,0-17.55,7.38-17.5,16.44v1.69s.32,60.75.32,60.75l-.41,77.38Z"/>
      <path class="cls-7" d="M374.3,229.22H47.94c-8.36,0-15.66-5.56-17.36-13.22-.24-1.11-.36-2.24-.36-3.36v-52.47l.41-77.38-.32-60.75v-1.69c-.03-4.23,1.66-8.27,4.74-11.37,3.34-3.36,8.07-5.29,12.98-5.29h326.28c9.77,0,17.72,7.44,17.72,16.58v192.37c0,9.14-7.95,16.58-17.72,16.58ZM30.66,160.17v52.47c0,1.09.12,2.19.35,3.26,1.65,7.46,8.77,12.87,16.93,12.87h326.37c9.53,0,17.28-7.24,17.28-16.14V20.27c0-8.9-7.75-16.14-17.28-16.14H48.03c-4.79,0-9.41,1.88-12.67,5.16-3,3.02-4.64,6.94-4.61,11.06v1.69l.32,60.75-.41,77.38h0Z"/>
    </g>
  </g>
  <g id="_底層色彩" data-name="底層色彩">
    <g class="cls-12">
      <rect class="cls-2" x="22" y="3.79" width="380.12" height="26.4"/>
      <rect class="cls-7" x="21.12" y="180.59" width="380.12" height="48.62"/>
    </g>
  </g>
  <rect id="_淺藍底" data-name="淺藍底" class="cls-1" x="30.62" y="49.76" width="361.11" height="130.83"/>
  <g id="A賞">
    <path class="cls-4" d="M155.13,65.85h19.63v38.72h37.13v-38.72h19.49v98.26h-19.49v-42.43h-37.13v42.43h-19.63v-98.26Z"/>
    <path class="cls-4" d="M270.82,157.58c4.15,1.15,8.66,2.61,11.45,3.67l-5.48,2.78c-2.65-1.15-7.29-2.83-11.89-4.15l3.4-2.3h-12.64l4.6,1.72c-3.36,2.3-8.97,3.98-13.57,4.99-.88-1.1-2.78-3.05-3.89-3.93,4.38-.53,9.28-1.5,12.02-2.78h-6.36v-15.87h28.86v15.87h-6.5ZM248.85,135.7h-4.86v-8.4h6.1c-.62-1.06-1.41-2.21-2.12-3.14l4.69-1.28c1.15,1.28,2.34,3.05,2.96,4.24l-.53.18h4.77v-4.6h5.22v4.6h4.86c.97-1.33,2.17-3.18,2.78-4.55l5.39,1.28c-.88,1.24-1.81,2.34-2.65,3.27h6.14v8.4h-5.13v-4.82h-27.63v4.82ZM251.02,140.21v-7.69h23.47v7.69h-23.47ZM253.45,146.09h18.65v-1.55h-18.65v1.55ZM253.45,150.38h18.65v-1.55h-18.65v1.55ZM253.45,154.71h18.65v-1.59h-18.65v1.59ZM255.88,137.29h13.39v-1.86h-13.39v1.86Z"/>
  </g>
  <g id="logo">
    <path class="cls-8" d="M192.11,196.68v18.82h-5.1v-2.11c-1.13,1.46-3.02,2.04-4.73,2.04-5.17.04-9.39-4.15-9.43-9.32-.04-5.17,4.15-9.39,9.32-9.43,1.78,0,3.71.66,4.84,2.07v-2.07h5.1ZM186.83,206.03c0-1.24-.47-2.4-1.38-3.28-.87-.87-2.04-1.35-3.24-1.31-1.24,0-2.4.47-3.28,1.35-.87.87-1.35,2.04-1.35,3.28s.51,2.4,1.38,3.28c.87.87,2.04,1.35,3.28,1.35,1.24-.04,2.4-.51,3.24-1.38.87-.87,1.35-2.04,1.35-3.28"/>
    <path class="cls-8" d="M209.29,213.24c-1.67,1.42-3.82,2.26-6.19,2.26-5.17-.04-9.36-4.26-9.32-9.43.04-5.17,4.26-9.36,9.43-9.32,2.33.04,4.48.91,6.12,2.33l-3.39,3.35c-.8-.58-1.75-.91-2.77-.91-1.24,0-2.4.47-3.28,1.31-.87.87-1.35,2.04-1.35,3.28-.04,1.24.44,2.4,1.31,3.28.87.87,2.04,1.35,3.28,1.38,1.02,0,1.97-.33,2.77-.91l3.39,3.39Z"/>
    <path class="cls-8" d="M230.07,206.58v8.92h-4.73v-9.25h-.04v-.11c0-1.2-.47-2.37-1.35-3.24-.87-.87-2.04-1.35-3.28-1.35s-2.4.51-3.28,1.38c-.87.87-1.35,2.04-1.31,3.28v.04h-.04v9.25h-5.1v-23.66h5.1v7.28c1.53-1.82,2.91-2.15,4.59-2.29,5.13-.44,9.43,2.88,9.43,9.32v.44Z"/>
    <path class="cls-8" d="M263.2,196.42v5.21c-3.93,0-6.33,3.17-6.33,5.57v8.3h-5.1v-18.75h5.1v2.8c.84-2.33,2.55-3.13,6.33-3.13"/>
    <path class="cls-8" d="M283.03,196.68v18.82h-5.1v-2.11c-1.13,1.46-3.02,2.04-4.73,2.04-5.17.04-9.39-4.15-9.43-9.32-.04-5.17,4.15-9.39,9.32-9.43,1.78,0,3.71.66,4.84,2.07v-2.07h5.1ZM277.76,206.03c0-1.24-.47-2.4-1.38-3.28-.87-.87-2.04-1.35-3.24-1.31-1.24,0-2.4.47-3.28,1.35-.87.87-1.35,2.04-1.35,3.28s.51,2.4,1.38,3.28c.87.87,2.04,1.35,3.28,1.35,1.24-.04,2.4-.51,3.24-1.38.87-.87,1.35-2.04,1.35-3.28"/>
    <g>
      <g class="cls-11">
        <g class="cls-10">
          <path class="cls-8" d="M250.14,205.96c0,5.09-4.13,9.22-9.22,9.22s-9.22-4.13-9.22-9.22,4.13-9.22,9.22-9.22,9.22,4.13,9.22,9.22"/>
        </g>
      </g>
      <path class="cls-6" d="M250.98,205.86c-.23-5.4-4.65-9.64-10.06-9.64-5.04,0-9.3,3.74-9.97,8.72,0,0,0,0,0,0,0,.03,0-.03,0,0-.01.13-.05.31-.06.44v.07c-.31,4.49,2.55,8.71,6.88,10.05,6.41,1.98,13.06-2.92,13.2-9.22v-.43ZM240.92,197.51c4.58,0,8.35,3.48,8.75,7.99-6.24,3.8-14.71,1.4-17.41-.7.72-4.18,4.37-7.29,8.66-7.29"/>
    </g>
    <path class="cls-8" d="M166.68,201.75h-5.9v4.73h5.46c-.33.84-1.38,1.93-1.64,2.18-1.35,1.31-3.13,2.08-5.02,2.08s-3.68-.76-4.99-2.08c-1.35-1.35-2.11-3.13-2.11-5.02s.76-3.68,2.11-5.02c1.31-1.35,3.09-2.08,4.99-2.08,1.57,0,3.06.51,4.3,1.42l3.64-3.6c-2.15-1.82-4.91-2.91-7.94-2.91-6.73,0-12.19,5.46-12.19,12.19s5.46,12.19,12.19,12.19c2.66,0,5.1-.84,7.1-2.26,0,0,.02-.02.06-.04l4.67,1.87v-13.66h-4.73Z"/>
  </g>
  <g>
    <path class="cls-5" d="M114.03,16.54c.67.83,1.73,1.58,2.75,1.95-.17.15-.39.42-.51.63-1.17-.5-2.36-1.5-3.06-2.58h-2.76c-.71,1.15-1.86,2.06-3.01,2.66-.11-.16-.4-.45-.57-.58,1.06-.48,2.05-1.2,2.67-2.08h-2.38v-.73h2.58v-1.4h-1.9v-.73h1.9v-1.31h.77v1.31h2.6v-1.31h.77v1.31h1.93v.73h-1.93v1.4h2.64v.73h-2.5ZM109.91,18.66c-.34.75-.81,1.68-1.43,2.27l-.65-.38c.63-.55,1.14-1.43,1.41-2.16l.67.28ZM110.8,17.49h.75v3.67c0,.44-.09.65-.39.77-.32.12-.81.13-1.55.13-.03-.22-.13-.52-.23-.74.57.02,1.07.02,1.22.01.16-.01.2-.04.2-.17v-3.67ZM110.52,15.81h2.6v-1.4h-2.6v1.4ZM112.77,18.49c.35.71.63,1.63.72,2.25l-.69.17c-.07-.63-.35-1.56-.68-2.27l.65-.15ZM114.12,18.11c.66.77,1.33,1.82,1.63,2.54l-.68.31c-.29-.7-.95-1.79-1.59-2.58l.64-.27Z"/>
    <path class="cls-5" d="M127.72,18.32v.63h-9.51v-.63h2.66c-.08-.23-.21-.49-.34-.69l.4-.12h-1.16v-1.92h6.4v1.92h-.93l.19.04c-.15.28-.32.54-.47.76h2.75ZM122.55,13.73h-4v-.59h4v-.76h.8v.76h4.09v.59h-4.09v.73h3.38v.58h-7.44v-.58h3.26v-.73ZM119.6,19.53h6.8v2.54h-.8v-.32h-5.23v.33h-.77v-2.55ZM120.37,20.1v1.07h5.23v-1.07h-5.23ZM120.54,16.97h4.86v-.84h-4.86v.84ZM121.31,17.51c.17.25.33.57.39.81h2.48c.13-.24.29-.55.38-.81h-3.26Z"/>
    <path class="cls-5" d="M138.34,14.27v4.96h-.81v-.6h-3.04v3.44h-.82v-3.44h-3.03v.66h-.77v-5.02h3.81v-1.89h.82v1.89h3.85ZM133.67,17.86v-2.81h-3.03v2.81h3.03ZM137.54,17.86v-2.81h-3.04v2.81h3.04Z"/>
    <path class="cls-5" d="M146.05,19.79c1.33.49,3.11,1.2,4.06,1.66l-.38.63c-.93-.48-2.81-1.27-4.19-1.8l.33-.48h-.5c-.41.88-1.56,1.8-4.55,2.31-.09-.18-.28-.47-.45-.64,2.45-.4,3.56-1.05,4.07-1.68h-3.99v-.67h4.31c.03-.15.04-.28.04-.4v-.65h.77v.67c0,.13-.01.24-.02.38h2.16c-.23-.22-.57-.49-.85-.69l.32-.29h-.37c-.03-.19-.13-.42-.22-.62.49.02.91.02,1.03.02.14-.01.17-.04.17-.16v-1.05h-2.47c.42.25.89.64,1.12.93l-.52.42c-.22-.31-.72-.73-1.15-1.01l.45-.35h-1.26v-.56h3.83v-.77h.75v.77h1.34v.56h-1.34v1.07c0,.37-.07.53-.36.64-.18.06-.46.08-.83.1.33.22.74.53.94.74l-.22.23h1.98v.67h-4.02ZM141.98,16.4c0,.54-.17,1.48-.9,2.08-.14-.11-.44-.27-.6-.35.67-.52.8-1.3.8-1.75v-.09h-.76v-.65h2.32v-.81h-1.82v-2.17h.69v1.54h1.14v-1.77h.73v5.97h-.73v-2.11h-.85v.12ZM149.54,13.14c-.94,1.62-3.11,2.32-5.3,2.63-.06-.16-.2-.37-.32-.5,1.04-.12,2.08-.34,2.97-.71-.28-.32-.66-.69-1.03-.98-.44.19-.89.36-1.41.52-.1-.15-.3-.36-.44-.46,1.29-.34,2.29-.81,2.85-1.28l.69.15c-.16.15-.34.29-.54.42h1.97l.14-.03.41.23ZM146.09,14.62c-.65.06-1.23.11-1.77.15l-.08-.47c.52-.03,1.13-.07,1.85-.12v.43ZM146.42,13.43c.36.28.71.59.98.89.47-.24.86-.53,1.18-.89h-2.15Z"/>
    <path class="cls-5" d="M152.09,20.67c0-.45.32-.75.7-.75s.7.31.7.75-.31.73-.7.73-.7-.3-.7-.73ZM152.33,14.42l-.03-1.1h.99l-.03,1.1-.13,4.5h-.67l-.13-4.5Z"/>
    <path class="cls-5" d="M155.55,14.17h3.64v.65h-3.64v-.65ZM158.88,16.13h-3.09v-.63h3.09v.63ZM155.8,16.94h3.09v.63h-3.09v-.63ZM158.86,21.46h-2.32v.49h-.69v-3.55h3.01v3.07ZM156.53,19.04v1.77h1.62v-1.77h-1.62ZM157.33,14.05c-.1-.38-.33-.99-.53-1.43l.66-.2c.22.43.46,1.02.56,1.39l-.69.24ZM164.58,21.25c0,.38-.07.57-.36.69-.27.12-.7.12-1.37.12-.03-.2-.12-.47-.22-.66.48.02.91.02,1.04.01.14,0,.17-.04.17-.16v-.9h-3.29c-.12.67-.33,1.34-.76,1.86-.12-.15-.39-.43-.55-.52.63-.8.7-1.87.7-2.71v-1.95h4.65v4.22ZM165.19,15.8v.6h-5.89v-.6h2.5v-.72h-2.12v-.57h2.12v-.65h-2.39v-.61h2.39v-.86h.77v.86h2.5v.61h-2.5v.65h2.3v.57h-2.3v.72h2.61ZM163.83,19.79v-.78h-3.18c0,.24-.01.51-.03.78h3.21ZM160.65,17.66v.79h3.18v-.79h-3.18Z"/>
    <path class="cls-5" d="M176.2,20.93v.74h-9.41v-.74h4.28v-1.95h-3.35v-.73h3.35v-1.38h.8v1.38h3.45v.73h-3.45v1.95h4.34ZM175.12,17.12c-.17-.22-.4-.49-.68-.76-5.72.28-6.29.3-6.68.43-.04-.18-.16-.57-.25-.79.2-.03.45-.21.73-.5.27-.21.99-.94,1.59-1.78h-2.8v-.74h8.84v.74h-5.01c-.63.82-1.3,1.58-1.97,2.19l4.9-.2c-.44-.39-.89-.78-1.32-1.11l.63-.4c.95.71,2.13,1.74,2.69,2.45l-.67.48Z"/>
    <path class="cls-5" d="M180.9,20.43v1.65h-.74v-1.65h-2.4v-.7h2.4v-.75h-1.96v-3.59h4.72v3.59h-2.02v.75h2.37v.7h-2.37ZM180.29,14.83h-2.18v-2.11h2.18v2.11ZM179.68,13.27h-.97v1.01h.97v-1.01ZM178.86,16.88h1.33v-.88h-1.33v.88ZM178.86,18.36h1.33v-.89h-1.33v.89ZM183.01,14.83h-2.22v-2.11h2.22v2.11ZM182.23,16h-1.36v.88h1.36v-.88ZM182.23,17.47h-1.36v.89h1.36v-.89ZM182.4,13.27h-1.01v1.01h1.01v-1.01ZM187.13,16.67c-.35,1.03-.87,2.05-1.53,2.94.28.97.62,1.55,1.01,1.57.22.01.38-.57.45-1.62.15.16.47.35.6.42-.21,1.67-.62,2.14-1.04,2.12-.69-.03-1.21-.68-1.59-1.78-.6.69-1.29,1.26-2.04,1.65-.13-.18-.37-.41-.57-.55.89-.42,1.7-1.1,2.38-1.93-.23-.92-.39-2.06-.52-3.35l-1.14.15-.1-.72,1.18-.15c-.07-.92-.13-1.92-.16-2.96h.74c.02,1,.07,1.97.15,2.88l2.47-.31.1.71-2.5.32c.1.99.21,1.88.37,2.63.48-.73.86-1.54,1.12-2.37l.62.35ZM186.67,14.7c-.21-.5-.73-1.25-1.22-1.79l.58-.33c.5.53,1.04,1.25,1.27,1.75l-.64.37Z"/>
    <path class="cls-5" d="M192,15.57h2.03v.72h-2.03v.77c.48.37,1.69,1.41,1.99,1.69l-.46.65c-.32-.35-1-1.03-1.54-1.53v4.18h-.76v-4.57c-.55,1.21-1.29,2.41-2.02,3.13-.1-.21-.3-.54-.44-.73.85-.81,1.77-2.27,2.29-3.59h-2.06v-.72h2.22v-1.79c-.69.13-1.39.23-2.05.33-.03-.19-.15-.46-.24-.63,1.55-.23,3.39-.59,4.38-1.03l.58.61c-.53.21-1.2.4-1.91.56v1.95ZM195.5,19.45h-.76v-5.8h.76v5.8ZM198.11,12.6v8.42c0,.54-.15.78-.48.92-.35.12-.94.14-1.91.14-.04-.21-.16-.57-.29-.8.74.02,1.41.02,1.61.01.19,0,.28-.06.28-.27v-8.43h.79Z"/>
    <path class="cls-5" d="M202.57,12.65c-.21.75-.49,1.52-.8,2.24v7.18h-.68v-5.78c-.27.47-.53.89-.81,1.26-.06-.18-.28-.6-.41-.8.84-1.07,1.56-2.68,2.02-4.3l.68.19ZM205.39,14.94h-2.92v-.64h2.92v.64ZM202.68,18.62h2.62v3.17h-.66v-.46h-1.33v.63h-.64v-3.34ZM205.19,16.34h-2.39v-.64h2.39v.64ZM202.81,17.13h2.39v.64h-2.39v-.64ZM203.95,14.08c-.13-.34-.44-.85-.73-1.21l.49-.31c.3.36.64.84.75,1.16l-.51.36ZM203.31,19.26v1.45h1.33v-1.45h-1.33ZM207.92,16.35c-.27.37-.55.73-.85,1.06h2.33v4.57h-.71v-.38h-1.67v.47h-.69v-3.94c-.25.22-.52.42-.8.63-.1-.15-.34-.43-.49-.57.76-.49,1.42-1.11,2-1.84h-1.63v-.67h1.26v-1.39h-1.06v-.66h1.06v-1.19h.68v1.19h.97v.66h-.97v1.39h.2c.58-.87,1.05-1.86,1.41-2.93l.67.15c-.34,1.01-.77,1.95-1.28,2.78h1.4v.67h-1.85ZM208.69,18.08h-1.67v1.08h1.67v-1.08ZM208.69,20.94v-1.12h-1.67v1.12h1.67Z"/>
    <path class="cls-5" d="M220.27,16.41c-.25,1.28-.66,2.42-1.18,3.38.29,1.07.63,1.6.93,1.6.19-.01.3-.29.35-1.32.15.13.37.29.55.34-.12,1.41-.36,1.68-.95,1.68-.54,0-1-.53-1.34-1.54-.42.58-.89,1.11-1.42,1.55-.13-.14-.42-.37-.59-.49.31-.23.59-.49.86-.76h-3.1v-4.56h3.14v.54h-1.1v.73h1.1v1.98h-1.1v.75h1.19v.41c.29-.32.54-.68.76-1.07-.22-1.04-.39-2.39-.49-4.02h-4.04v2.23c0,1.3-.11,3.07-.76,4.25-.13-.11-.44-.29-.59-.35.44-.8.59-1.81.65-2.76h-.74v.49c0,.74-.12,1.85-.77,2.6-.11-.11-.34-.27-.48-.34.56-.68.66-1.63.66-2.28v-.47h-.58v-.67h1.95v-.87h-1.49v-2.46h.62v1.81h.87v-1.87h4.69v-.44h-.28v-.7h-1.34v-.68h1.34v-.74h.77v.74h2.37v.68h-2.37v.45h.19c0,.24.01.47.01.69h1.21c-.23-.22-.56-.49-.88-.67l.48-.36c.37.2.83.54,1.04.81l-.29.22h.69v.68h-2.23c.05,1.21.16,2.21.3,3.03.3-.72.53-1.51.69-2.37l.71.12ZM213.65,13.81h-2.24v-.68h2.24v-.74h.77v.74h1.29v.68h-1.29v.75h-.77v-.75ZM214.97,16.83v.73h.87v-.73h-.87ZM216.94,18.09h-1.96v.93h1.96v-.93ZM214.97,20.3h.87v-.75h-.87v.75Z"/>
    <path class="cls-5" d="M223.9,14.01v2.61c0,1.62-.14,3.94-1.03,5.48-.14-.15-.47-.38-.63-.46.83-1.45.9-3.52.9-5.03v-3.3h4.15c-.13-.25-.28-.5-.44-.72l.73-.21c.22.28.44.64.58.93h3.71v.69h-7.99ZM231.97,20.81h-3.67v1.21h-.75v-1.21h-3.5v-.66h3.5v-.74h-2.66v-3.19h2.66v-.69h-3.06v-.63h3.06v-.67h.75v.67h3.34v.63h-3.34v.69h2.79v3.19h-2.79v.74h3.67v.66ZM225.58,17.54h1.96v-.8h-1.96v.8ZM227.54,18.88v-.82h-1.96v.82h1.96ZM228.3,16.75v.8h2.06v-.8h-2.06ZM230.35,18.06h-2.06v.82h2.06v-.82Z"/>
    <path class="cls-5" d="M242.54,14.27v4.96h-.81v-.6h-3.04v3.44h-.82v-3.44h-3.03v.66h-.77v-5.02h3.81v-1.89h.82v1.89h3.85ZM237.88,17.86v-2.81h-3.03v2.81h3.03ZM241.74,17.86v-2.81h-3.04v2.81h3.04Z"/>
    <path class="cls-5" d="M254.23,21.63h-4.29v.46h-.74v-5.07c-.22.22-.48.42-.72.62-.08-.16-.3-.46-.46-.63v3.7h-1.87v.86h-.68v-3.47c-.17.32-.35.64-.55.9-.09-.16-.31-.52-.46-.68.76-1.08,1.23-2.71,1.51-4.46h-1.25v-.72h3.48v.72h-1.46c-.14.82-.31,1.62-.53,2.36h1.81v.74c.98-.68,1.76-1.65,2.33-2.81h-1.24v1.14h-.69v-1.81h2.25c.14-.35.27-.72.37-1.09l.74.15c-.1.32-.2.65-.33.94h2.54v1.79h-.71v-1.11h-2.1c-.27.57-.56,1.1-.9,1.59h1.38c-.14-.32-.31-.68-.46-.98l.66-.27c.21.39.47.88.59,1.24h1.45v.67h-1.65v1.07h1.52v.62h-1.52v1.12h1.52v.62h-1.52v1.11h1.96v.68ZM247.34,16.91h-1.18v3.1h1.18v-3.1ZM251.53,16.41h-1.58v1.07h1.58v-1.07ZM251.53,18.09h-1.58v1.12h1.58v-1.12ZM249.95,20.95h1.58v-1.11h-1.58v1.11Z"/>
    <path class="cls-5" d="M259.47,14.8h-3.73v-.66h3.73v.66ZM259.22,16.2h-3.2v-.63h3.2v.63ZM256.01,16.99h3.2v.64h-3.2v-.64ZM259.17,21.48h-2.48v.49h-.67v-3.55h3.15v3.07ZM256.68,19.06v1.77h1.8v-1.77h-1.8ZM257.48,14.08c-.12-.38-.4-.99-.66-1.44l.67-.23c.28.44.55,1.02.7,1.4l-.71.28ZM259.19,20.8c.36-.57.62-1.51.74-2.23l.56.17c-.14.76-.37,1.73-.73,2.31l-.57-.25ZM262.77,13.49c-.19,1.91-.72,3.5-2.67,4.37-.08-.18-.3-.44-.46-.56.94-.39,1.52-.97,1.87-1.68-.39-.4-1.04-.97-1.54-1.38l.41-.45c.45.35,1,.81,1.4,1.16.14-.46.21-.94.27-1.46h-2.19v-.68h5.17s-.01.23-.01.34c-.12,2.68-.23,3.64-.49,3.97-.18.21-.38.29-.67.31-.27.02-.73.02-1.2,0-.02-.21-.1-.5-.22-.7.49.04.93.05,1.1.05s.25-.02.35-.13c.17-.19.28-1.02.36-3.16h-1.49ZM263.12,21.21c.35,0,.41-.18.45-1.41.15.12.43.22.63.27-.07,1.44-.27,1.78-1,1.78h-1.38c-.84,0-1.05-.21-1.05-.94v-2.58h.69v2.58c0,.25.07.31.44.31h1.23ZM262.11,17.56c.45.48.93,1.11,1.17,1.53l-.52.36c-.22-.41-.7-1.09-1.14-1.58l.49-.31ZM264.58,18.15c.38.7.79,1.62.93,2.19l-.6.23c-.15-.57-.52-1.52-.89-2.23l.56-.19Z"/>
    <path class="cls-5" d="M270.06,12.6c-.25.52-.58,1.03-.93,1.52v4.3h-.76v-3.35c-.33.37-.68.71-1.02,1-.11-.15-.36-.47-.52-.62.98-.73,1.93-1.9,2.54-3.08l.7.23ZM266.96,21.31c.42-.63.84-1.59,1.07-2.29l.71.3c-.28.69-.65,1.69-1.04,2.33l-.74-.34ZM273.27,21.15c.58,0,.68-.16.73-1.23.18.14.51.25.73.3-.11,1.34-.36,1.67-1.41,1.67h-2.52c-1.25,0-1.58-.22-1.58-1.08v-1.84h.78v1.82c0,.31.13.36.83.36h2.44ZM271.4,14.07c-.33.55-.71,1.04-1.1,1.42-.13-.14-.42-.38-.59-.5.72-.63,1.34-1.59,1.69-2.59l.73.18c-.11.27-.22.53-.35.8h3.97l.13-.03.54.15c-.28.6-.59,1.33-.86,1.75l-.67-.14c.15-.28.34-.66.51-1.04h-3.99ZM272.1,15.5c-.35.84-.9,1.68-1.45,2.22-.14-.13-.42-.35-.59-.45.55-.5,1.04-1.24,1.33-1.97l.72.2ZM272.31,20.36c-.27-.51-.92-1.3-1.5-1.87l.6-.34c.58.54,1.25,1.29,1.55,1.81l-.66.39ZM273.7,18.37h-.75v-3.9h.75v3.9ZM274.93,15.28c.54.64,1.09,1.52,1.34,2.09l-.68.36c-.23-.59-.77-1.5-1.29-2.15l.64-.3ZM275.24,18.84c.5.75,1,1.73,1.18,2.38l-.75.31c-.15-.65-.64-1.67-1.11-2.42l.69-.27Z"/>
    <path class="cls-5" d="M280.97,12.52c-.18.52-.37,1.1-.55,1.56h1.76v6.89h-2.95v.84h-.72v-7.72h1.19c.16-.51.35-1.22.42-1.72l.85.16ZM281.46,14.79h-2.23v2.22h2.23v-2.22ZM281.46,20.26v-2.55h-2.23v2.55h2.23ZM287.37,14.45c-.17,4.84-.31,6.47-.73,6.99-.23.3-.48.39-.84.42-.37.04-.98.02-1.57-.01-.02-.23-.12-.55-.27-.77.69.06,1.33.06,1.57.06.21,0,.33-.02.43-.16.35-.37.51-1.98.65-6.21h-2.69c-.3.71-.63,1.36-1,1.86-.14-.13-.48-.34-.65-.45.71-.93,1.28-2.4,1.62-3.85l.75.18c-.13.52-.28,1.03-.46,1.53h3.17v.4ZM285.03,19.24c-.32-.64-1.03-1.69-1.61-2.45l.62-.36c.59.75,1.33,1.77,1.67,2.4l-.67.41Z"/>
    <path class="cls-5" d="M298.64,13.53v.68h-9.25v-.68h4.38c-.11-.32-.24-.7-.37-1l.73-.19c.15.37.34.84.46,1.19h4.05ZM298.05,21.2c0,.41-.11.59-.41.71-.32.1-.85.11-1.75.11-.04-.19-.14-.44-.24-.6.66.02,1.27.01,1.44,0,.17-.01.23-.05.23-.22v-4.8h-2.14v.69c0,.23.03.32.2.32h.95c.16,0,.44-.01.58-.04.01.18.03.39.05.56-.13.05-.38.05-.62.05h-1.11c-.65,0-.77-.28-.77-.9v-.68h-1.2c-.16,1.1-.66,1.69-2.12,2.02-.06-.17-.23-.42-.38-.55,1.24-.22,1.65-.65,1.8-1.46h-1.82v5.66h-.75v-6.32h4.9c.28-.42.6-1.02.77-1.44l.8.18c-.25.42-.54.89-.82,1.26h2.41v5.46ZM292.3,14.24c.23.37.53.87.67,1.18l-.68.28c-.15-.31-.44-.84-.66-1.23l.67-.22ZM292.73,20.72v.49h-.69v-2.9h3.87v2.41h-3.18ZM292.73,18.91v1.23h2.52v-1.23h-2.52Z"/>
    <path class="cls-5" d="M300.75,17.47h3.74v4.52h-.77v-.48h-2.22v.57h-.75v-4.62ZM301.5,18.23v2.51h2.22v-2.51h-2.22ZM308.06,16.35h-5.77v-3.51h5.77v3.51ZM307.26,13.6h-4.21v2h4.21v-2ZM309.6,17.47v4.54h-.77v-.5h-2.41v.57h-.76v-4.62h3.95ZM308.82,20.75v-2.51h-2.41v2.51h2.41Z"/>
  </g>
  <path id="_票卷撕開外框線" data-name="票卷撕開外框線" class="cls-9" d="M30.44,160.17v52.47c0,1.14.12,2.24.36,3.31,1.65,7.44,8.7,13.05,17.14,13.05h326.37c9.66,0,17.5-7.33,17.5-16.36V20.27c0-9.03-7.84-16.36-17.5-16.36H48.03c-9.7,0-17.55,7.38-17.5,16.44v1.69s.32,60.75.32,60.75l-.41,77.38Z"/>
</svg>