<?xml version="1.0" encoding="UTF-8"?>
<svg id="Layer_2" data-name="Layer 2" xmlns="http://www.w3.org/2000/svg" version="1.1" xmlns:xlink="http://www.w3.org/1999/xlink" viewBox="0 0 406.6 231.3">
  <defs>
    <style>
      .cls-1 {
        fill: #cde2ed;
      }

      .cls-1, .cls-2, .cls-3, .cls-4, .cls-5, .cls-6, .cls-7, .cls-8 {
        stroke-width: 0px;
      }

      .cls-2 {
        fill: #e5a856;
      }

      .cls-3, .cls-9 {
        fill: none;
      }

      .cls-10 {
        clip-path: url(#clippath-1);
      }

      .cls-9 {
        stroke: #365b6d;
        stroke-miterlimit: 10;
      }

      .cls-4 {
        fill: #666;
      }

      .cls-5 {
        fill: #f2f1ec;
      }

      .cls-6 {
        fill: #fdc164;
      }

      .cls-11 {
        opacity: .1;
      }

      .cls-12 {
        clip-path: url(#clippath);
      }

      .cls-7 {
        fill: #365b6d;
      }

      .cls-8 {
        fill: #f2f1ec;
      }
    </style>
    <clipPath id="clippath">
      <path class="cls-3" d="M29.5,159.6v52.5c0,1.1.1,2.2.4,3.3,1.6,7.4,8.7,13.1,17.1,13.1h326.5c9.7,0,17.5-7.3,17.5-16.4V19.7c0-9-7.8-16.4-17.5-16.4H47.1c-9.7,0-17.6,7.4-17.5,16.4v1.7s.3,60.8.3,60.8l-.4,77.4Z"/>
    </clipPath>
    <clipPath id="clippath-1">
      <rect class="cls-3" x="231.1" y="196.4" width="18.4" height="18.4"/>
    </clipPath>
  </defs>
  <g id="_撕開底層" data-name="撕開底層">
    <g>
      <path class="cls-1" d="M23.5,154.3h-.1s-11.6-9.3-11.6-9.3h0c0-.2-3.1-12.7-3.1-28.6s3.1-30.3,3.1-30.5h0c0-.1,11.6-9.4,11.6-9.4h.1s6.2,0,6.2,0l.2.2v77.4l-.2.2h-6.2Z"/>
      <path class="cls-7" d="M29.7,76.7v77.4h-6.2l-11.6-9.3s-3.1-12.3-3.1-28.4,3.1-30.4,3.1-30.4l11.6-9.3h6.2M29.7,76.2h-6.5c0,0-11.6,9.4-11.6,9.4l-.2.3c0,.1-3.1,14.6-3.1,30.5s3.1,28.4,3.1,28.5l.2.2,11.6,9.3h.3c0,0,6.2,0,6.2,0l.4-.4v-77.4l-.4-.4h0Z"/>
    </g>
    <g>
      <path class="cls-5" d="M29.7,159.8v52.5c0,1.1.1,2.2.4,3.3,1.6,7.4,8.7,13.1,17.1,13.1h326.5c9.7,0,17.5-7.3,17.5-16.4V19.9c0-9-7.8-16.4-17.5-16.4H47.3c-9.7,0-17.6,7.4-17.5,16.4v1.7s.3,60.8.3,60.8l-.4,77.4Z"/>
      <path class="cls-7" d="M373.7,228.9H47.2c-8.4,0-15.7-5.6-17.4-13.2-.2-1.1-.4-2.2-.4-3.4v-52.5l.4-77.4-.3-60.8v-1.7c0-4.2,1.7-8.3,4.7-11.4,3.3-3.4,8.1-5.3,13-5.3h326.4c9.8,0,17.7,7.4,17.7,16.6v192.4c0,9.1-8,16.6-17.7,16.6ZM29.9,159.8v52.5c0,1.1.1,2.2.4,3.3,1.6,7.5,8.8,12.9,16.9,12.9h326.5c9.5,0,17.3-7.2,17.3-16.1V19.9c0-8.9-7.8-16.1-17.3-16.1H47.3c-4.8,0-9.4,1.9-12.7,5.2-3,3-4.6,6.9-4.6,11.1v1.7l.3,60.8-.4,77.4h0Z"/>
    </g>
  </g>
  <g id="_底層色彩" data-name="底層色彩">
    <g class="cls-12">
      <rect class="cls-2" x="21.3" y="3.4" width="380.3" height="26.4"/>
      <rect class="cls-7" x="20.4" y="180.3" width="380.3" height="48.6"/>
    </g>
  </g>
  <rect id="_淺藍底" data-name="淺藍底" class="cls-1" x="29.9" y="49.4" width="361.3" height="130.9"/>
  <g id="A賞">
    <path class="cls-4" d="M270.2,157.3c4.2,1.1,8.7,2.6,11.5,3.7l-5.5,2.8c-2.7-1.1-7.3-2.8-11.9-4.2l3.4-2.3h-12.6l4.6,1.7c-3.4,2.3-9,4-13.6,5-.9-1.1-2.8-3.1-3.9-3.9,4.4-.5,9.3-1.5,12-2.8h-6.4v-15.9h28.9v15.9h-6.5ZM248.2,135.4h-4.9v-8.4h6.1c-.6-1.1-1.4-2.2-2.1-3.1l4.7-1.3c1.1,1.3,2.3,3.1,3,4.2l-.5.2h4.8v-4.6h5.2v4.6h4.9c1-1.3,2.2-3.2,2.8-4.6l5.4,1.3c-.9,1.2-1.8,2.3-2.7,3.3h6.1v8.4h-5.1v-4.8h-27.6v4.8ZM250.4,139.9v-7.7h23.5v7.7h-23.5ZM252.8,145.8h18.7v-1.5h-18.7v1.5ZM252.8,150h18.7v-1.5h-18.7v1.5ZM252.8,154.4h18.7v-1.6h-18.7v1.6ZM255.2,137h13.4v-1.9h-13.4v1.9Z"/>
    <path class="cls-4" d="M156.6,151.2l11.3-13.5c7,6.5,16.3,10.9,24.9,10.9s15.7-4.4,15.7-11.3-6-9.6-14.7-13.3l-13.1-5.6c-9.9-4.1-19.9-12.1-19.9-26.4s14.1-28.4,34-28.4,22.8,4.5,30.8,12.6l-9.9,12.3c-6.2-5.2-12.7-8.1-20.8-8.1s-14.1,3.8-14.1,10.3,6.9,9.6,15.3,12.9l12.9,5.4c11.9,4.9,19.8,12.5,19.8,26.7s-13.4,29.7-36.1,29.7-26.3-5.2-35.8-14.3Z"/>
  </g>
  <g id="logo">
    <path class="cls-8" d="M191.4,196.4v18.8h-5.1v-2.1c-1.1,1.5-3,2-4.7,2-5.2,0-9.4-4.2-9.4-9.3,0-5.2,4.2-9.4,9.3-9.4,1.8,0,3.7.7,4.8,2.1v-2.1h5.1ZM186.2,205.7c0-1.2-.5-2.4-1.4-3.3-.9-.9-2-1.3-3.2-1.3-1.2,0-2.4.5-3.3,1.3-.9.9-1.3,2-1.3,3.3s.5,2.4,1.4,3.3c.9.9,2,1.3,3.3,1.3,1.2,0,2.4-.5,3.2-1.4.9-.9,1.3-2,1.3-3.3"/>
    <path class="cls-8" d="M208.6,212.9c-1.7,1.4-3.8,2.3-6.2,2.3-5.2,0-9.4-4.3-9.3-9.4,0-5.2,4.3-9.4,9.4-9.3,2.3,0,4.5.9,6.1,2.3l-3.4,3.4c-.8-.6-1.7-.9-2.8-.9s-2.4.5-3.3,1.3c-.9.9-1.3,2-1.3,3.3,0,1.2.4,2.4,1.3,3.3.9.9,2,1.3,3.3,1.4,1,0,2-.3,2.8-.9l3.4,3.4Z"/>
    <path class="cls-8" d="M229.4,206.3v8.9h-4.7v-9.2h0c0-1.3-.5-2.5-1.3-3.4-.9-.9-2-1.3-3.3-1.3s-2.4.5-3.3,1.4c-.9.9-1.3,2-1.3,3.3h0s0,0,0,0v9.2h-5.1v-23.7h5.1v7.3c1.5-1.8,2.9-2.1,4.6-2.3,5.1-.4,9.4,2.9,9.4,9.3v.4Z"/>
    <path class="cls-8" d="M262.6,196.1v5.2c-3.9,0-6.3,3.2-6.3,5.6v8.3h-5.1v-18.8h5.1v2.8c.8-2.3,2.5-3.1,6.3-3.1"/>
    <path class="cls-8" d="M282.4,196.4v18.8h-5.1v-2.1c-1.1,1.5-3,2-4.7,2-5.2,0-9.4-4.2-9.4-9.3,0-5.2,4.2-9.4,9.3-9.4,1.8,0,3.7.7,4.8,2.1v-2.1h5.1ZM277.1,205.7c0-1.2-.5-2.4-1.4-3.3-.9-.9-2-1.3-3.2-1.3-1.2,0-2.4.5-3.3,1.3-.9.9-1.3,2-1.3,3.3s.5,2.4,1.4,3.3c.9.9,2,1.3,3.3,1.3,1.2,0,2.4-.5,3.2-1.4.9-.9,1.3-2,1.3-3.3"/>
    <g>
      <g class="cls-11">
        <g class="cls-10">
          <path class="cls-8" d="M249.5,205.7c0,5.1-4.1,9.2-9.2,9.2s-9.2-4.1-9.2-9.2,4.1-9.2,9.2-9.2,9.2,4.1,9.2,9.2"/>
        </g>
      </g>
      <path class="cls-6" d="M250.3,205.6c-.2-5.4-4.7-9.6-10.1-9.6s-9.3,3.7-10,8.7c0,0,0,0,0,0,0,0,0,0,0,0,0,.1,0,.3,0,.4h0c-.3,4.6,2.6,8.8,6.9,10.1,6.4,2,13.1-2.9,13.2-9.2v-.4ZM240.3,197.2c4.6,0,8.4,3.5,8.8,8-6.2,3.8-14.7,1.4-17.4-.7.7-4.2,4.4-7.3,8.7-7.3"/>
    </g>
    <path class="cls-8" d="M166,201.4h-5.9v4.7h5.5c-.3.8-1.4,1.9-1.6,2.2-1.3,1.3-3.1,2.1-5,2.1s-3.7-.8-5-2.1c-1.3-1.3-2.1-3.1-2.1-5s.8-3.7,2.1-5c1.3-1.3,3.1-2.1,5-2.1s3.1.5,4.3,1.4l3.6-3.6c-2.1-1.8-4.9-2.9-7.9-2.9-6.7,0-12.2,5.5-12.2,12.2s5.5,12.2,12.2,12.2,5.1-.8,7.1-2.3c0,0,0,0,0,0l4.7,1.9v-8h0v-5.6h-4.7Z"/>
  </g>
  <g>
    <path class="cls-5" d="M113.3,16.2c.7.8,1.7,1.6,2.7,2-.2.1-.4.4-.5.6-1.2-.5-2.4-1.5-3.1-2.6h-2.8c-.7,1.1-1.9,2.1-3,2.7-.1-.2-.4-.4-.6-.6,1.1-.5,2-1.2,2.7-2.1h-2.4v-.7h2.6v-1.4h-1.9v-.7h1.9v-1.3h.8v1.3h2.6v-1.3h.8v1.3h1.9v.7h-1.9v1.4h2.6v.7h-2.5ZM109.2,18.3c-.3.8-.8,1.7-1.4,2.3l-.6-.4c.6-.6,1.1-1.4,1.4-2.2l.7.3ZM110.1,17.1h.8v3.7c0,.4,0,.6-.4.8-.3.1-.8.1-1.5.1,0-.2-.1-.5-.2-.7.6,0,1.1,0,1.2,0,.2,0,.2,0,.2-.2v-3.7ZM109.8,15.4h2.6v-1.4h-2.6v1.4ZM112.1,18.1c.4.7.6,1.6.7,2.2l-.7.2c0-.6-.4-1.6-.7-2.3h.6ZM113.4,17.7c.7.8,1.3,1.8,1.6,2.5l-.7.3c-.3-.7-1-1.8-1.6-2.6l.6-.3Z"/>
    <path class="cls-5" d="M127,17.9v.6h-9.5v-.6h2.7c0-.2-.2-.5-.3-.7h.4c0-.1-1.2-.1-1.2-.1v-1.9h6.4v1.9h-.9.2c-.1.3-.3.6-.5.8h2.7ZM121.9,13.3h-4v-.6h4v-.8h.8v.8h4.1v.6h-4.1v.7h3.4v.6h-7.4v-.6h3.3v-.7ZM118.9,19.1h6.8v2.5h-.8v-.3h-5.2v.3h-.8v-2.5ZM119.7,19.7v1.1h5.2v-1.1h-5.2ZM119.9,16.6h4.9v-.8h-4.9v.8ZM120.6,17.1c.2.3.3.6.4.8h2.5c.1-.2.3-.6.4-.8h-3.3Z"/>
    <path class="cls-5" d="M137.7,13.9v5h-.8v-.6h-3v3.4h-.8v-3.4h-3v.7h-.8v-5h3.8v-1.9h.8v1.9h3.9ZM133,17.5v-2.8h-3v2.8h3ZM136.9,17.5v-2.8h-3v2.8h3Z"/>
    <path class="cls-5" d="M145.4,19.4c1.3.5,3.1,1.2,4.1,1.7l-.4.6c-.9-.5-2.8-1.3-4.2-1.8l.3-.5h-.5c-.4.9-1.6,1.8-4.6,2.3,0-.2-.3-.5-.4-.6,2.5-.4,3.6-1.1,4.1-1.7h-4v-.7h4.3c0-.1,0-.3,0-.4v-.6h.8v.7c0,.1,0,.2,0,.4h2.2c-.2-.2-.6-.5-.8-.7l.3-.3h-.4c0-.2-.1-.4-.2-.6.5,0,.9,0,1,0,.1,0,.2,0,.2-.2v-1.1h-2.5c.4.3.9.6,1.1.9l-.5.4c-.2-.3-.7-.7-1.1-1l.4-.4h-1.3v-.6h3.8v-.8h.8v.8h1.3v.6h-1.3v1.1c0,.4,0,.5-.4.6-.2,0-.5,0-.8,0,.3.2.7.5.9.7l-.2.2h2v.7h-4ZM141.3,16c0,.5-.2,1.5-.9,2.1-.1-.1-.4-.3-.6-.4.7-.5.8-1.3.8-1.8h0c0,0-.8,0-.8,0v-.6h2.3v-.8h-1.8v-2.2h.7v1.5h1.1v-1.8h.7v6h-.7v-2.1h-.8ZM148.9,12.8c-.9,1.6-3.1,2.3-5.3,2.6,0-.2-.2-.4-.3-.5,1-.1,2.1-.3,3-.7-.3-.3-.7-.7-1-1-.4.2-.9.4-1.4.5,0-.1-.3-.4-.4-.5,1.3-.3,2.3-.8,2.9-1.3h.7c-.2.3-.3.4-.5.6h2.1s.4.2.4.2ZM145.4,14.2c-.6,0-1.2.1-1.8.1v-.5c.4,0,1.1,0,1.8-.1v.4ZM145.7,13c.4.3.7.6,1,.9.5-.2.9-.5,1.2-.9h-2.2Z"/>
    <path class="cls-5" d="M151.4,20.3c0-.4.3-.8.7-.8s.7.3.7.8-.3.7-.7.7-.7-.3-.7-.7ZM151.7,14v-1.1s1,0,1,0v1.1s-.2,4.5-.2,4.5h-.7v-4.5Z"/>
    <path class="cls-5" d="M154.9,13.8h3.6v.6h-3.6v-.6ZM158.2,15.7h-3.1v-.6h3.1v.6ZM155.1,16.6h3.1v.6h-3.1v-.6ZM158.2,21.1h-2.3v.5h-.7v-3.6h3v3.1ZM155.9,18.7v1.8h1.6v-1.8h-1.6ZM156.7,13.7c0-.4-.3-1-.5-1.4l.7-.2c.2.4.5,1,.6,1.4l-.7.2ZM163.9,20.9c0,.4,0,.6-.4.7-.3.1-.7.1-1.4.1,0-.2-.1-.5-.2-.7.5,0,.9,0,1,0,.1,0,.2,0,.2-.2v-.9h-3.3c-.1.7-.3,1.3-.8,1.9-.1-.1-.4-.4-.6-.5.6-.8.7-1.9.7-2.7v-2h4.6v4.2ZM164.5,15.4v.6h-5.9v-.6h2.5v-.7h-2.1v-.6h2.1v-.6h-2.4v-.6h2.4v-.9h.8v.9h2.5v.6h-2.5v.6h2.3v.6h-2.3v.7h2.6ZM163.2,19.4v-.8h-3.2c0,.2,0,.5,0,.8h3.2ZM160,17.3v.8h3.2v-.8h-3.2Z"/>
    <path class="cls-5" d="M175.5,20.5v.7h-9.4v-.7h4.3v-2h-3.4v-.7h3.4v-1.4h.8v1.4h3.4v.7h-3.4v2h4.3ZM174.5,16.7c-.2-.2-.4-.5-.7-.8-5.7.3-6.3.3-6.7.4,0-.2-.2-.6-.3-.8.2,0,.4-.2.7-.5.3-.2,1-.9,1.6-1.8h-2.8v-.7h8.8v.7h-5c-.6.8-1.3,1.6-2,2.2l4.9-.2c-.4-.4-.9-.8-1.3-1.1l.6-.4c1,.7,2.1,1.7,2.7,2.5l-.7.5Z"/>
    <path class="cls-5" d="M180.2,20v1.7h-.7v-1.7h-2.4v-.7h2.4v-.8h-2v-3.6h4.7v3.6h-2v.8h2.4v.7h-2.4ZM179.6,14.4h-2.2v-2.1h2.2v2.1ZM179,12.9h-1v1h1v-1ZM178.2,16.5h1.3v-.9h-1.3v.9ZM178.2,18h1.3v-.9h-1.3v.9ZM182.3,14.4h-2.2v-2.1h2.2v2.1ZM181.6,15.6h-1.4v.9h1.4v-.9ZM181.6,17.1h-1.4v.9h1.4v-.9ZM181.7,12.9h-1v1h1v-1ZM186.5,16.3c-.4,1-.9,2-1.5,2.9.3,1,.6,1.5,1,1.6.2,0,.4-.6.4-1.6.1.2.5.4.6.4-.2,1.7-.6,2.1-1,2.1-.7,0-1.2-.7-1.6-1.8-.6.7-1.3,1.3-2,1.7-.1-.2-.4-.4-.6-.6.9-.4,1.7-1.1,2.4-1.9-.2-.9-.4-2.1-.5-3.4h-1.1c0,.1,0-.6,0-.6h1.2c0-1.1-.1-2.1-.2-3.1h.7c0,1,0,2,.1,2.9l2.5-.3v.7c0,0-2.4.3-2.4.3,0,1,.2,1.9.4,2.6.5-.7.9-1.5,1.1-2.4l.6.3ZM186,14.3c-.2-.5-.7-1.3-1.2-1.8l.6-.3c.5.5,1,1.3,1.3,1.8l-.6.4Z"/>
    <path class="cls-5" d="M191.3,15.2h2v.7h-2v.8c.5.4,1.7,1.4,2,1.7l-.5.6c-.3-.4-1-1-1.5-1.5v4.2h-.8v-4.6c-.6,1.2-1.3,2.4-2,3.1,0-.2-.3-.5-.4-.7.8-.8,1.8-2.3,2.3-3.6h-2.1v-.7h2.2v-1.8c-.7.1-1.4.2-2,.3,0-.2-.1-.5-.2-.6,1.5-.2,3.4-.6,4.4-1l.6.6c-.5.2-1.2.4-1.9.6v2ZM194.8,19.1h-.8v-5.8h.8v5.8ZM197.4,12.2v8.4c0,.5-.1.8-.5.9-.4.1-.9.1-1.9.1,0-.2-.2-.6-.3-.8.7,0,1.4,0,1.6,0,.2,0,.3,0,.3-.3v-8.4h.8Z"/>
    <path class="cls-5" d="M201.9,12.3c-.2.8-.5,1.5-.8,2.2v7.2h-.7v-5.8c-.3.5-.5.9-.8,1.3,0-.2-.3-.6-.4-.8.8-1.1,1.6-2.7,2-4.3l.7.2ZM204.7,14.6h-2.9v-.6h2.9v.6ZM202,18.2h2.6v3.2h-.7v-.5h-1.3v.6h-.6v-3.3ZM204.5,16h-2.4v-.6h2.4v.6ZM202.1,16.7h2.4v.6h-2.4v-.6ZM203.3,13.7c-.1-.3-.4-.8-.7-1.2l.5-.3c.3.4.6.8.8,1.2l-.5.4ZM202.7,18.9v1.5h1.3v-1.5h-1.3ZM207.3,16c-.3.4-.6.7-.8,1.1h2.3v4.6h-.7v-.4h-1.7v.5h-.7v-3.9c-.3.2-.5.4-.8.6,0-.1-.3-.4-.5-.6.8-.5,1.4-1.1,2-1.8h-1.6v-.7h1.3v-1.4h-1.1v-.7h1.1v-1.2h.7v1.2h1v.7h-1v1.4h.2c.6-.9,1.1-1.9,1.4-2.9h.7c-.3,1.2-.8,2.1-1.3,2.9h1.4v.7h-1.8ZM208,17.7h-1.7v1.1h1.7v-1.1ZM208,20.6v-1.1h-1.7v1.1h1.7Z"/>
    <path class="cls-5" d="M219.6,16c-.3,1.3-.7,2.4-1.2,3.4.3,1.1.6,1.6.9,1.6.2,0,.3-.3.4-1.3.1.1.4.3.6.3-.1,1.4-.4,1.7-1,1.7s-1-.5-1.3-1.5c-.4.6-.9,1.1-1.4,1.5-.1-.1-.4-.4-.6-.5.3-.2.6-.5.9-.8h-3.1v-4.6h3.1v.5h-1.1v.7h1.1v2h-1.1v.8h1.2v.4c.3-.3.5-.7.8-1.1-.2-1-.4-2.4-.5-4h-4v2.2c0,1.3-.1,3.1-.8,4.3-.1-.1-.4-.3-.6-.3.4-.8.6-1.8.6-2.8h-.7v.5c0,.7-.1,1.8-.8,2.6-.1-.1-.3-.3-.5-.3.6-.7.7-1.6.7-2.3v-.5h-.6v-.7h2v-.9h-1.5v-2.5h.6v1.8h.9v-1.9h4.7v-.4h-.3v-.7h-1.3v-.7h1.3v-.7h.8v.7h2.4v.7h-2.4v.4h.2c0,.2,0,.5,0,.7h1.2c-.2-.2-.6-.5-.9-.7l.5-.4c.4.2.8.5,1,.8l-.3.2h.7v.7h-2.2c0,1.2.2,2.2.3,3,.3-.7.5-1.5.7-2.4h.7ZM213,13.4h-2.2v-.7h2.2v-.7h.8v.7h1.3v.7h-1.3v.8h-.8v-.8ZM214.3,16.4v.7h.9v-.7h-.9ZM216.3,17.7h-2v.9h2v-.9ZM214.3,19.9h.9v-.8h-.9v.8Z"/>
    <path class="cls-5" d="M223.3,13.6v2.6c0,1.6-.1,3.9-1,5.5-.1-.1-.5-.4-.6-.5.8-1.5.9-3.5.9-5v-3.3h4.1c-.1-.3-.3-.5-.4-.7l.7-.2c.2.3.4.6.6.9h3.7v.7h-8ZM231.3,20.4h-3.7v1.2h-.8v-1.2h-3.5v-.7h3.5v-.7h-2.7v-3.2h2.7v-.7h-3.1v-.6h3.1v-.7h.8v.7h3.3v.6h-3.3v.7h2.8v3.2h-2.8v.7h3.7v.7ZM224.9,17.2h2v-.8h-2v.8ZM226.9,18.5v-.8h-2v.8h2ZM227.6,16.4v.8h2.1v-.8h-2.1ZM229.7,17.7h-2.1v.8h2.1v-.8Z"/>
    <path class="cls-5" d="M241.9,13.9v5h-.8v-.6h-3v3.4h-.8v-3.4h-3v.7h-.8v-5h3.8v-1.9h.8v1.9h3.9ZM237.2,17.5v-2.8h-3v2.8h3ZM241.1,17.5v-2.8h-3v2.8h3Z"/>
    <path class="cls-5" d="M253.6,21.2h-4.3v.5h-.7v-5.1c-.2.2-.5.4-.7.6,0-.2-.3-.5-.5-.6v3.7h-1.9v.9h-.7v-3.5c-.2.3-.4.6-.6.9,0-.2-.3-.5-.5-.7.8-1.1,1.2-2.7,1.5-4.5h-1.3v-.7h3.5v.7h-1.5c-.1.8-.3,1.6-.5,2.4h1.8v.7c1-.7,1.8-1.7,2.3-2.8h-1.2v1.1h-.7v-1.8h2.2c.1-.4.3-.7.4-1.1h.7c0,.5-.2.8-.3,1.1h2.5v1.8h-.7v-1.1h-2.1c-.3.6-.6,1.1-.9,1.6h1.4c-.1-.3-.3-.7-.5-1l.7-.3c.2.4.5.9.6,1.2h1.5v.7h-1.7v1.1h1.5v.6h-1.5v1.1h1.5v.6h-1.5v1.1h2v.7ZM246.7,16.5h-1.2v3.1h1.2v-3.1ZM250.9,16h-1.6v1.1h1.6v-1.1ZM250.9,17.7h-1.6v1.1h1.6v-1.1ZM249.3,20.6h1.6v-1.1h-1.6v1.1Z"/>
    <path class="cls-5" d="M258.8,14.4h-3.7v-.7h3.7v.7ZM258.6,15.8h-3.2v-.6h3.2v.6ZM255.4,16.6h3.2v.6h-3.2v-.6ZM258.5,21.1h-2.5v.5h-.7v-3.6h3.2v3.1ZM256,18.7v1.8h1.8v-1.8h-1.8ZM256.8,13.7c-.1-.4-.4-1-.7-1.4l.7-.2c.3.4.6,1,.7,1.4l-.7.3ZM258.6,20.4c.4-.6.6-1.5.7-2.2l.6.2c-.1.8-.4,1.7-.7,2.3l-.6-.3ZM262.1,13.1c-.2,1.9-.7,3.5-2.7,4.4,0-.2-.3-.4-.5-.6.9-.4,1.5-1,1.9-1.7-.4-.4-1-1-1.5-1.4l.4-.4c.4.4,1,.8,1.4,1.2.1-.5.2-.9.3-1.5h-2.2v-.7h5.2s0,.2,0,.3c-.1,2.7-.2,3.6-.5,4-.2.2-.4.3-.7.3-.3,0-.7,0-1.2,0,0-.2,0-.5-.2-.7.5,0,.9,0,1.1,0s.3,0,.4-.1c.2-.2.3-1,.4-3.2h-1.5ZM262.5,20.8c.4,0,.4-.2.4-1.4.1.1.4.2.6.3,0,1.4-.3,1.8-1,1.8h-1.4c-.8,0-1.1-.2-1.1-.9v-2.6h.7v2.6c0,.3,0,.3.4.3h1.2ZM261.5,17.2c.4.5.9,1.1,1.2,1.5l-.5.4c-.2-.4-.7-1.1-1.1-1.6l.5-.3ZM263.9,17.8c.4.7.8,1.6.9,2.2l-.6.2c-.1-.6-.5-1.5-.9-2.2l.6-.2Z"/>
    <path class="cls-5" d="M269.4,12.2c-.3.5-.6,1-.9,1.5v4.3h-.8v-3.4c-.3.4-.7.7-1,1-.1-.1-.4-.5-.5-.6,1-.7,1.9-1.9,2.5-3.1l.7.2ZM266.3,20.9c.4-.6.8-1.6,1.1-2.3l.7.3c-.3.7-.6,1.7-1,2.3l-.7-.3ZM272.6,20.8c.6,0,.7-.2.7-1.2.2.1.5.3.7.3-.1,1.3-.4,1.7-1.4,1.7h-2.5c-1.3,0-1.6-.2-1.6-1.1v-1.8h.8v1.8c0,.3.1.4.8.4h2.4ZM270.8,13.7c-.3.6-.7,1-1.1,1.4-.1-.1-.4-.4-.6-.5.7-.6,1.3-1.6,1.7-2.6l.7.2c-.1.3-.2.5-.4.8h4.1s.5.1.5.1c-.3.6-.6,1.3-.9,1.8h-.7c.1-.4.3-.8.5-1.2h-4ZM271.5,15.1c-.4.8-.9,1.7-1.5,2.2-.1-.1-.4-.4-.6-.4.6-.5,1-1.2,1.3-2l.7.2ZM271.7,20c-.3-.5-.9-1.3-1.5-1.9l.6-.3c.6.5,1.3,1.3,1.5,1.8l-.7.4ZM273.1,18h-.8v-3.9h.8v3.9ZM274.3,14.9c.5.6,1.1,1.5,1.3,2.1l-.7.4c-.2-.6-.8-1.5-1.3-2.2l.6-.3ZM274.6,18.5c.5.8,1,1.7,1.2,2.4l-.8.3c-.1-.6-.6-1.7-1.1-2.4l.7-.3Z"/>
    <path class="cls-5" d="M280.3,12.1c-.2.5-.4,1.1-.6,1.6h1.8v6.9h-3v.8h-.7v-7.7h1.2c.2-.5.4-1.2.4-1.7l.8.2ZM280.8,14.4h-2.2v2.2h2.2v-2.2ZM280.8,19.9v-2.5h-2.2v2.5h2.2ZM286.7,14.1c-.2,4.8-.3,6.5-.7,7-.2.3-.5.4-.8.4-.4,0-1,0-1.6,0,0-.2-.1-.6-.3-.8.7,0,1.3,0,1.6,0s.3,0,.4-.2c.4-.4.5-2,.6-6.2h-2.7c-.3.7-.6,1.4-1,1.9-.1-.1-.5-.3-.6-.4.7-.9,1.3-2.4,1.6-3.9l.8.2c-.1.5-.3,1-.5,1.5h3.2v.4ZM284.4,18.9c-.3-.6-1-1.7-1.6-2.5l.6-.4c.6.8,1.3,1.8,1.7,2.4l-.7.4Z"/>
    <path class="cls-5" d="M298,13.1v.7h-9.3v-.7h4.4c-.1-.3-.2-.7-.4-1l.7-.2c.1.4.3.8.5,1.2h4.1ZM297.4,20.8c0,.4-.1.6-.4.7-.3,0-.8.1-1.8.1,0-.2-.1-.4-.2-.6.7,0,1.3,0,1.4,0,.2,0,.2,0,.2-.2v-4.8h-2.1v.7c0,.2,0,.3.2.3h1c.2,0,.4,0,.6,0,0,.2,0,.4,0,.6-.1,0-.4,0-.6,0h-1.1c-.6,0-.8-.3-.8-.9v-.7h-1.2c-.2,1.1-.7,1.7-2.1,2,0-.2-.2-.4-.4-.6,1.2-.2,1.7-.6,1.8-1.5h-1.8v5.7h-.8v-6.3h4.9c.3-.4.6-1,.8-1.4l.8.2c-.3.4-.5.9-.8,1.3h2.4v5.5ZM291.7,13.9c.2.4.5.9.7,1.2l-.7.3c-.1-.3-.4-.8-.7-1.2l.7-.2ZM292.1,20.3v.5h-.7v-2.9h3.9v2.4h-3.2ZM292.1,18.5v1.2h2.5v-1.2h-2.5Z"/>
    <path class="cls-5" d="M300.1,17.1h3.7v4.5h-.8v-.5h-2.2v.6h-.8v-4.6ZM300.9,17.8v2.5h2.2v-2.5h-2.2ZM307.4,16h-5.8v-3.5h5.8v3.5ZM306.6,13.2h-4.2v2h4.2v-2ZM309,17.1v4.5h-.8v-.5h-2.4v.6h-.8v-4.6h3.9ZM308.2,20.4v-2.5h-2.4v2.5h2.4Z"/>
  </g>
  <path id="_票卷撕開外框線" data-name="票卷撕開外框線" class="cls-9" d="M29.7,159.8v52.5c0,1.1.1,2.2.4,3.3,1.6,7.4,8.7,13.1,17.1,13.1h326.5c9.7,0,17.5-7.3,17.5-16.4V19.9c0-9-7.8-16.4-17.5-16.4H47.3c-9.7,0-17.6,7.4-17.5,16.4v1.7s.3,60.8.3,60.8l-.4,77.4Z"/>
</svg>