<?xml version="1.0" encoding="UTF-8"?>
<svg id="Layer_2" data-name="Layer 2" xmlns="http://www.w3.org/2000/svg" version="1.1" xmlns:xlink="http://www.w3.org/1999/xlink" viewBox="0 0 406.64 231.29">
  <defs>
    <style>
      .cls-1 {
        fill: #cde2ed;
      }

      .cls-1, .cls-2, .cls-3, .cls-4, .cls-5, .cls-6, .cls-7, .cls-8 {
        stroke-width: 0px;
      }

      .cls-2 {
        fill: #e5a856;
      }

      .cls-3, .cls-9 {
        fill: none;
      }

      .cls-10 {
        clip-path: url(#clippath-1);
      }

      .cls-9 {
        stroke: #365b6d;
        stroke-miterlimit: 10;
      }

      .cls-4 {
        fill: #666;
      }

      .cls-5 {
        fill: #f2f1ec;
      }

      .cls-6 {
        fill: #fdc164;
      }

      .cls-11 {
        opacity: .15;
      }

      .cls-12 {
        clip-path: url(#clippath);
      }

      .cls-7 {
        fill: #365b6d;
      }

      .cls-8 {
        fill: #f2f1ec;
      }
    </style>
    <clipPath id="clippath">
      <path class="cls-3" d="M29.17,159.78v52.67c0,1.14.13,2.25.36,3.32,1.65,7.47,8.73,13.1,17.21,13.1h327.62c9.7,0,17.57-7.35,17.57-16.42V19.34c0-9.07-7.87-16.42-17.57-16.42H46.82c-9.74,0-17.62,7.4-17.57,16.51v1.7s.32,60.98.32,60.98l-.41,77.67Z"/>
    </clipPath>
    <clipPath id="clippath-1">
      <rect class="cls-3" x="231.39" y="196.69" width="18.51" height="18.51"/>
    </clipPath>
  </defs>
  <g id="_撕開底層" data-name="撕開底層">
    <g>
      <path class="cls-1" d="M23.09,154.41l-.14-.05-11.61-9.32-.08-.12c-.03-.12-3.1-12.58-3.1-28.56s3.06-30.43,3.09-30.57l.08-.13,11.61-9.32.14-.05h6.26l.22.22v77.67l-.22.22h-6.26Z"/>
      <path class="cls-7" d="M29.34,76.52v77.67h-6.26l-11.61-9.32s-3.09-12.37-3.09-28.51,3.09-30.52,3.09-30.52l11.61-9.32h6.26M29.34,76.07h-6.26l-.28.1-11.61,9.32-.16.25c-.03.14-3.1,14.62-3.1,30.62s3.07,28.49,3.1,28.61l.15.24,11.61,9.32.28.1h6.26l.44-.44v-77.67l-.44-.44h0Z"/>
    </g>
    <g>
      <path class="cls-5" d="M29.35,159.97v52.67c0,1.14.13,2.25.36,3.32,1.65,7.47,8.73,13.1,17.21,13.1h327.62c9.7,0,17.57-7.35,17.57-16.42V19.54c0-9.07-7.87-16.42-17.57-16.42H47.01c-9.74,0-17.62,7.4-17.57,16.51v1.7s.32,60.98.32,60.98l-.41,77.67Z"/>
      <path class="cls-7" d="M374.53,229.29H46.92c-8.4,0-15.72-5.58-17.42-13.27-.24-1.11-.36-2.25-.36-3.37v-52.67l.41-77.67-.32-60.98v-1.7c-.03-4.25,1.66-8.3,4.76-11.41,3.36-3.38,8.11-5.31,13.03-5.31h327.53c9.81,0,17.79,7.47,17.79,16.64v193.11c0,9.18-7.98,16.64-17.79,16.64ZM29.57,159.97v52.67c0,1.09.12,2.2.35,3.28,1.66,7.49,8.8,12.92,16.99,12.92h327.62c9.56,0,17.34-7.27,17.34-16.2V19.54c0-8.93-7.78-16.2-17.34-16.2H47.01c-4.81,0-9.44,1.89-12.72,5.18-3.01,3.03-4.65,6.97-4.63,11.1v1.7l.32,60.98-.41,77.68h0Z"/>
    </g>
  </g>
  <g id="_底層色彩" data-name="底層色彩">
    <g class="cls-12">
      <rect class="cls-2" x="20.88" y="3" width="381.57" height="26.5"/>
      <rect class="cls-7" x="19.99" y="180.48" width="381.57" height="48.81"/>
    </g>
  </g>
  <rect id="_淺藍底" data-name="淺藍底" class="cls-1" x="29.53" y="49.14" width="362.49" height="131.33"/>
  <g id="A賞">
    <path class="cls-4" d="M158.96,65.3h32.61c20.23,0,35.67,5.99,35.67,24.36,0,9.05-5.06,18.37-13.44,21.3v.67c10.65,2.53,18.5,9.98,18.5,23.29,0,19.83-16.51,29.02-38.2,29.02h-35.14v-98.63ZM190.11,105.49c12.51,0,17.97-5.06,17.97-12.91,0-8.65-5.86-12.11-17.7-12.11h-11.71v25.02h11.45ZM192.37,148.75c13.44,0,20.76-4.79,20.76-15.04,0-9.58-7.19-13.71-20.76-13.71h-13.71v28.75h13.71Z"/>
    <path class="cls-4" d="M270.65,157.38c4.17,1.15,8.7,2.62,11.49,3.68l-5.5,2.8c-2.66-1.15-7.32-2.84-11.94-4.17l3.42-2.31h-12.69l4.61,1.73c-3.37,2.31-9.01,3.99-13.62,5.01-.89-1.11-2.8-3.06-3.9-3.95,4.39-.53,9.32-1.51,12.07-2.8h-6.39v-15.93h28.97v15.93h-6.52ZM248.6,135.41h-4.88v-8.43h6.12c-.62-1.07-1.42-2.22-2.13-3.15l4.7-1.29c1.15,1.29,2.35,3.06,2.97,4.26l-.53.18h4.79v-4.61h5.24v4.61h4.88c.98-1.33,2.17-3.19,2.8-4.57l5.41,1.29c-.89,1.24-1.82,2.35-2.66,3.28h6.17v8.43h-5.15v-4.84h-27.73v4.84ZM250.77,139.94v-7.72h23.56v7.72h-23.56ZM253.21,145.84h18.72v-1.55h-18.72v1.55ZM253.21,150.15h18.72v-1.55h-18.72v1.55ZM253.21,154.49h18.72v-1.6h-18.72v1.6ZM255.65,137.01h13.44v-1.86h-13.44v1.86Z"/>
  </g>
  <g id="logo">
    <path class="cls-8" d="M191.64,196.62v18.89h-5.12v-2.12c-1.13,1.46-3.03,2.05-4.75,2.05-5.19.04-9.43-4.17-9.46-9.35-.04-5.19,4.17-9.43,9.35-9.46,1.79,0,3.73.66,4.86,2.08v-2.08h5.12ZM186.34,206.02c0-1.24-.47-2.41-1.39-3.29-.88-.88-2.05-1.35-3.25-1.32-1.24,0-2.41.47-3.29,1.35-.88.88-1.35,2.05-1.35,3.29s.51,2.41,1.39,3.29c.88.88,2.05,1.35,3.29,1.35,1.24-.04,2.41-.51,3.25-1.39.88-.88,1.35-2.05,1.35-3.29"/>
    <path class="cls-8" d="M208.89,213.25c-1.68,1.43-3.84,2.27-6.21,2.27-5.19-.04-9.39-4.28-9.35-9.46.04-5.19,4.28-9.39,9.46-9.35,2.34.04,4.49.91,6.14,2.34l-3.4,3.36c-.8-.58-1.75-.91-2.78-.91-1.24,0-2.41.47-3.29,1.32-.88.88-1.35,2.05-1.35,3.29-.04,1.24.44,2.41,1.32,3.29.88.88,2.05,1.35,3.29,1.39,1.02,0,1.97-.33,2.78-.91l3.4,3.4Z"/>
    <path class="cls-8" d="M229.75,206.56v8.95h-4.75v-9.28h-.04v-.11c0-1.21-.47-2.38-1.35-3.25-.88-.88-2.05-1.35-3.29-1.35s-2.41.51-3.29,1.39c-.88.88-1.35,2.05-1.32,3.29v.04h-.04v9.28h-5.12v-23.75h5.12v7.31c1.53-1.83,2.92-2.16,4.6-2.3,5.15-.44,9.46,2.89,9.46,9.35v.44Z"/>
    <path class="cls-8" d="M263,196.37v5.23c-3.95,0-6.36,3.18-6.36,5.59v8.33h-5.12v-18.82h5.12v2.81c.84-2.34,2.56-3.14,6.36-3.14"/>
    <path class="cls-8" d="M282.91,196.62v18.89h-5.12v-2.12c-1.13,1.46-3.03,2.05-4.75,2.05-5.19.04-9.43-4.17-9.46-9.35-.04-5.19,4.17-9.43,9.35-9.46,1.79,0,3.73.66,4.86,2.08v-2.08h5.12ZM277.62,206.02c0-1.24-.48-2.41-1.39-3.29-.88-.88-2.05-1.35-3.25-1.32-1.24,0-2.41.47-3.29,1.35-.88.88-1.35,2.05-1.35,3.29s.51,2.41,1.39,3.29c.88.88,2.05,1.35,3.29,1.35,1.24-.04,2.41-.51,3.25-1.39.88-.88,1.35-2.05,1.35-3.29"/>
    <g>
      <g class="cls-11">
        <g class="cls-10">
          <path class="cls-8" d="M249.89,205.94c0,5.11-4.14,9.25-9.25,9.25s-9.25-4.14-9.25-9.25,4.14-9.25,9.25-9.25,9.25,4.14,9.25,9.25"/>
        </g>
      </g>
      <path class="cls-6" d="M250.74,205.84c-.23-5.42-4.67-9.67-10.1-9.67-5.06,0-9.34,3.76-10.01,8.75,0,0,0,0,0,0,0,.03,0-.03,0,0-.01.13-.05.31-.06.44v.07c-.31,4.51,2.56,8.75,6.91,10.09,6.44,1.99,13.11-2.93,13.25-9.25v-.43ZM240.64,197.46c4.6,0,8.38,3.49,8.78,8.03-6.26,3.82-14.77,1.4-17.47-.71.72-4.2,4.38-7.32,8.69-7.32"/>
    </g>
    <path class="cls-8" d="M166.11,201.71h-5.92v4.75h5.48c-.33.84-1.39,1.94-1.64,2.19-1.35,1.32-3.14,2.08-5.04,2.08s-3.69-.77-5.01-2.08c-1.35-1.35-2.12-3.14-2.12-5.04s.77-3.69,2.12-5.04c1.32-1.35,3.11-2.08,5.01-2.08,1.57,0,3.07.51,4.31,1.43l3.65-3.62c-2.16-1.83-4.93-2.92-7.97-2.92-6.76,0-12.24,5.48-12.24,12.24s5.48,12.24,12.24,12.24c2.67,0,5.12-.84,7.13-2.27,0,0,.02-.02.06-.04l4.69,1.88v-13.71h-4.75Z"/>
  </g>
  <g>
    <path class="cls-5" d="M113.26,15.8c.67.83,1.74,1.59,2.76,1.96-.17.15-.39.43-.51.63-1.17-.5-2.36-1.5-3.07-2.59h-2.77c-.71,1.15-1.86,2.07-3.02,2.67-.11-.16-.4-.45-.57-.59,1.06-.48,2.06-1.2,2.68-2.09h-2.39v-.73h2.59v-1.41h-1.91v-.73h1.91v-1.31h.78v1.31h2.61v-1.31h.78v1.31h1.94v.73h-1.94v1.41h2.65v.73h-2.51ZM109.13,17.92c-.34.76-.81,1.68-1.44,2.28l-.65-.38c.63-.55,1.14-1.44,1.42-2.17l.67.28ZM110.02,16.75h.76v3.68c0,.44-.09.65-.39.78-.32.12-.81.13-1.56.13-.03-.22-.13-.52-.23-.75.57.02,1.08.02,1.22.01.16-.01.2-.04.2-.17v-3.68ZM109.74,15.06h2.61v-1.41h-2.61v1.41ZM111.99,17.75c.35.71.63,1.64.72,2.26l-.69.17c-.07-.63-.35-1.57-.68-2.28l.65-.15ZM113.36,17.38c.66.78,1.33,1.83,1.64,2.55l-.68.31c-.29-.7-.96-1.8-1.6-2.59l.64-.27Z"/>
    <path class="cls-5" d="M127.01,17.58v.63h-9.54v-.63h2.67c-.08-.23-.21-.49-.34-.69l.4-.12h-1.16v-1.93h6.42v1.93h-.94l.19.04c-.15.28-.32.54-.47.77h2.76ZM121.81,12.98h-4.01v-.6h4.01v-.77h.8v.77h4.11v.6h-4.11v.73h3.4v.59h-7.47v-.59h3.27v-.73ZM118.85,18.79h6.83v2.55h-.8v-.32h-5.25v.33h-.78v-2.56ZM119.63,19.37v1.08h5.25v-1.08h-5.25ZM119.8,16.23h4.88v-.84h-4.88v.84ZM120.57,16.77c.17.26.33.57.39.81h2.49c.13-.25.29-.55.38-.81h-3.27Z"/>
    <path class="cls-5" d="M137.67,13.52v4.98h-.81v-.61h-3.06v3.45h-.82v-3.45h-3.05v.66h-.78v-5.04h3.82v-1.9h.82v1.9h3.87ZM132.98,17.12v-2.82h-3.05v2.82h3.05ZM136.86,17.12v-2.82h-3.06v2.82h3.06Z"/>
    <path class="cls-5" d="M145.41,19.06c1.33.49,3.12,1.2,4.08,1.66l-.38.63c-.94-.48-2.82-1.28-4.21-1.81l.33-.48h-.5c-.42.88-1.57,1.81-4.57,2.32-.09-.18-.28-.47-.45-.64,2.46-.4,3.58-1.05,4.09-1.68h-4v-.67h4.32c.03-.15.04-.28.04-.4v-.65h.78v.67c0,.13-.01.24-.02.38h2.17c-.23-.22-.57-.49-.85-.69l.32-.29h-.37c-.03-.19-.13-.43-.22-.62.49.02.92.02,1.03.02.14-.01.17-.04.17-.16v-1.05h-2.48c.43.26.89.64,1.13.94l-.52.43c-.22-.31-.72-.73-1.15-1.01l.45-.35h-1.27v-.56h3.84v-.78h.76v.78h1.34v.56h-1.34v1.08c0,.37-.07.53-.36.64-.18.06-.46.09-.83.1.33.22.75.53.95.75l-.22.23h1.99v.67h-4.04ZM141.32,15.65c0,.54-.17,1.49-.91,2.09-.14-.11-.44-.27-.61-.35.67-.52.8-1.31.8-1.76v-.1h-.77v-.65h2.33v-.81h-1.83v-2.18h.69v1.54h1.14v-1.78h.73v6h-.73v-2.12h-.85v.12ZM148.91,12.38c-.95,1.63-3.12,2.33-5.32,2.64-.06-.16-.2-.37-.32-.5,1.04-.12,2.09-.34,2.98-.71-.28-.32-.66-.69-1.03-.98-.44.19-.89.36-1.42.52-.1-.15-.3-.36-.44-.46,1.3-.34,2.3-.81,2.86-1.29l.69.15c-.16.15-.34.29-.54.43h1.98l.14-.03.42.23ZM145.44,13.87c-.65.06-1.24.11-1.78.15l-.08-.47c.52-.03,1.14-.07,1.85-.12v.44ZM145.78,12.67c.36.28.71.6.98.89.47-.25.86-.53,1.18-.89h-2.16Z"/>
    <path class="cls-5" d="M151.47,19.94c0-.45.32-.76.7-.76s.7.31.7.76-.31.73-.7.73-.7-.3-.7-.73ZM151.71,13.67l-.03-1.11h.99l-.03,1.11-.13,4.52h-.67l-.13-4.52Z"/>
    <path class="cls-5" d="M154.94,13.41h3.65v.65h-3.65v-.65ZM158.28,15.38h-3.1v-.63h3.1v.63ZM155.19,16.19h3.1v.63h-3.1v-.63ZM158.26,20.73h-2.33v.49h-.69v-3.57h3.02v3.08ZM155.93,18.3v1.78h1.63v-1.78h-1.63ZM156.73,13.3c-.1-.38-.33-.99-.53-1.44l.66-.2c.22.44.46,1.02.56,1.4l-.69.24ZM164,20.53c0,.38-.07.57-.36.69-.27.12-.7.12-1.37.12-.03-.2-.12-.47-.22-.66.48.02.92.02,1.04.01.14,0,.17-.04.17-.16v-.91h-3.3c-.12.67-.33,1.34-.77,1.86-.12-.15-.39-.44-.55-.52.63-.8.7-1.87.7-2.72v-1.96h4.66v4.24ZM164.62,15.05v.61h-5.91v-.61h2.51v-.72h-2.13v-.57h2.13v-.65h-2.4v-.61h2.4v-.86h.78v.86h2.51v.61h-2.51v.65h2.31v.57h-2.31v.72h2.62ZM163.26,19.06v-.79h-3.19c0,.24-.01.51-.03.79h3.23ZM160.06,16.92v.79h3.19v-.79h-3.19Z"/>
    <path class="cls-5" d="M175.67,20.2v.75h-9.45v-.75h4.29v-1.96h-3.37v-.73h3.37v-1.38h.8v1.38h3.46v.73h-3.46v1.96h4.36ZM174.59,16.37c-.17-.22-.4-.49-.68-.77-5.74.28-6.31.3-6.71.44-.04-.18-.16-.57-.26-.79.2-.03.45-.21.73-.5.27-.21.99-.95,1.6-1.79h-2.81v-.75h8.87v.75h-5.03c-.63.82-1.31,1.59-1.98,2.19l4.92-.2c-.44-.39-.89-.79-1.32-1.12l.63-.4c.96.71,2.14,1.75,2.71,2.46l-.67.48Z"/>
    <path class="cls-5" d="M180.39,19.7v1.66h-.75v-1.66h-2.41v-.7h2.41v-.76h-1.97v-3.6h4.74v3.6h-2.02v.76h2.37v.7h-2.37ZM179.77,14.07h-2.18v-2.12h2.18v2.12ZM179.16,12.51h-.97v1.01h.97v-1.01ZM178.34,16.14h1.33v-.88h-1.33v.88ZM178.34,17.62h1.33v-.89h-1.33v.89ZM182.51,14.07h-2.23v-2.12h2.23v2.12ZM181.72,15.26h-1.36v.88h1.36v-.88ZM181.72,16.73h-1.36v.89h1.36v-.89ZM181.89,12.51h-1.01v1.01h1.01v-1.01ZM186.64,15.93c-.35,1.03-.87,2.06-1.53,2.95.28.97.62,1.55,1.01,1.58.22.01.38-.58.45-1.63.15.16.47.35.61.43-.21,1.67-.62,2.15-1.04,2.13-.69-.03-1.21-.68-1.6-1.79-.61.69-1.3,1.27-2.04,1.66-.13-.18-.37-.42-.57-.55.89-.43,1.7-1.11,2.39-1.94-.23-.93-.39-2.07-.52-3.37l-1.14.15-.1-.72,1.18-.15c-.07-.93-.13-1.93-.16-2.97h.75c.02,1,.07,1.98.15,2.89l2.48-.31.1.71-2.51.32c.1.99.21,1.89.37,2.64.48-.73.86-1.54,1.13-2.37l.62.35ZM186.18,13.95c-.21-.5-.73-1.26-1.22-1.8l.59-.33c.5.53,1.04,1.26,1.28,1.76l-.64.37Z"/>
    <path class="cls-5" d="M191.53,14.82h2.03v.72h-2.03v.78c.48.37,1.69,1.42,2,1.69l-.46.65c-.32-.35-1-1.03-1.54-1.53v4.2h-.77v-4.59c-.55,1.21-1.3,2.42-2.02,3.14-.1-.21-.3-.54-.44-.73.85-.81,1.78-2.28,2.3-3.6h-2.07v-.72h2.23v-1.8c-.69.13-1.39.23-2.06.33-.03-.19-.15-.46-.24-.63,1.55-.23,3.41-.6,4.4-1.03l.59.61c-.53.21-1.2.4-1.92.56v1.96ZM195.04,18.72h-.77v-5.83h.77v5.83ZM197.66,11.84v8.46c0,.54-.15.79-.48.93-.35.12-.95.14-1.92.14-.04-.21-.16-.57-.29-.8.75.02,1.42.02,1.62.01.19,0,.28-.06.28-.27v-8.47h.79Z"/>
    <path class="cls-5" d="M202.14,11.89c-.21.76-.49,1.52-.8,2.25v7.21h-.68v-5.8c-.27.47-.53.89-.81,1.27-.06-.18-.28-.61-.42-.8.84-1.08,1.57-2.69,2.02-4.31l.68.19ZM204.98,14.19h-2.93v-.64h2.93v.64ZM202.25,17.89h2.63v3.18h-.66v-.46h-1.33v.63h-.64v-3.35ZM204.77,15.6h-2.4v-.64h2.4v.64ZM202.38,16.39h2.4v.64h-2.4v-.64ZM203.53,13.33c-.13-.34-.44-.85-.73-1.21l.49-.31c.3.36.64.84.76,1.16l-.51.36ZM202.89,18.53v1.46h1.33v-1.46h-1.33ZM207.51,15.61c-.27.37-.55.73-.85,1.06h2.34v4.59h-.71v-.38h-1.67v.47h-.69v-3.95c-.26.22-.52.43-.8.63-.1-.15-.34-.44-.49-.57.77-.49,1.43-1.12,2.01-1.84h-1.64v-.67h1.27v-1.4h-1.07v-.66h1.07v-1.19h.68v1.19h.97v.66h-.97v1.4h.2c.59-.87,1.05-1.86,1.42-2.94l.67.15c-.34,1.01-.78,1.96-1.29,2.79h1.41v.67h-1.85ZM208.29,17.34h-1.67v1.09h1.67v-1.09ZM208.29,20.21v-1.13h-1.67v1.13h1.67Z"/>
    <path class="cls-5" d="M219.91,15.66c-.26,1.29-.66,2.43-1.18,3.4.29,1.08.63,1.61.94,1.61.19-.01.3-.29.35-1.32.15.13.37.29.55.34-.12,1.42-.36,1.68-.96,1.68-.54,0-1-.53-1.34-1.54-.43.59-.89,1.12-1.43,1.55-.13-.14-.43-.37-.6-.49.31-.23.6-.49.86-.77h-3.11v-4.58h3.15v.54h-1.11v.73h1.11v1.99h-1.11v.76h1.19v.42c.29-.32.54-.68.77-1.08-.22-1.04-.39-2.4-.49-4.04h-4.06v2.24c0,1.31-.11,3.08-.77,4.27-.13-.11-.44-.29-.6-.35.44-.8.6-1.82.65-2.77h-.75v.49c0,.75-.12,1.85-.78,2.61-.11-.11-.34-.27-.48-.34.56-.68.66-1.64.66-2.29v-.47h-.59v-.67h1.96v-.87h-1.49v-2.47h.62v1.82h.87v-1.87h4.71v-.44h-.28v-.7h-1.34v-.68h1.34v-.75h.78v.75h2.37v.68h-2.37v.45h.19c0,.24.01.47.01.69h1.21c-.23-.22-.56-.49-.88-.67l.48-.36c.37.2.83.54,1.04.81l-.29.22h.69v.68h-2.24c.05,1.21.16,2.21.3,3.05.3-.72.53-1.51.69-2.37l.71.12ZM213.26,13.05h-2.25v-.68h2.25v-.75h.78v.75h1.3v.68h-1.3v.76h-.78v-.76ZM214.59,16.09v.73h.87v-.73h-.87ZM216.56,17.35h-1.97v.94h1.97v-.94ZM214.59,19.57h.87v-.76h-.87v.76Z"/>
    <path class="cls-5" d="M223.56,13.25v2.62c0,1.63-.14,3.95-1.03,5.51-.14-.15-.47-.38-.63-.46.83-1.46.91-3.54.91-5.05v-3.31h4.16c-.13-.26-.28-.5-.44-.72l.73-.21c.22.28.44.64.59.94h3.73v.69h-8.02ZM231.65,20.08h-3.68v1.21h-.76v-1.21h-3.51v-.66h3.51v-.75h-2.67v-3.21h2.67v-.69h-3.07v-.63h3.07v-.67h.76v.67h3.35v.63h-3.35v.69h2.8v3.21h-2.8v.75h3.68v.66ZM225.24,16.8h1.97v-.8h-1.97v.8ZM227.21,18.14v-.82h-1.97v.82h1.97ZM227.97,16v.8h2.07v-.8h-2.07ZM230.03,17.32h-2.07v.82h2.07v-.82Z"/>
    <path class="cls-5" d="M242.27,13.52v4.98h-.81v-.61h-3.06v3.45h-.82v-3.45h-3.05v.66h-.78v-5.04h3.82v-1.9h.82v1.9h3.87ZM237.58,17.12v-2.82h-3.05v2.82h3.05ZM241.46,17.12v-2.82h-3.06v2.82h3.06Z"/>
    <path class="cls-5" d="M254,20.9h-4.3v.46h-.75v-5.09c-.22.22-.48.43-.72.62-.08-.16-.3-.46-.46-.63v3.72h-1.87v.86h-.68v-3.48c-.17.32-.35.64-.55.91-.09-.16-.31-.52-.46-.68.77-1.09,1.24-2.72,1.51-4.47h-1.26v-.72h3.49v.72h-1.47c-.14.82-.31,1.63-.53,2.36h1.82v.75c.98-.68,1.77-1.66,2.34-2.82h-1.25v1.14h-.69v-1.82h2.26c.14-.35.27-.72.37-1.1l.75.15c-.1.32-.2.65-.33.95h2.55v1.8h-.71v-1.12h-2.11c-.27.58-.56,1.11-.91,1.6h1.38c-.14-.32-.31-.68-.46-.98l.66-.27c.21.39.47.88.6,1.25h1.46v.67h-1.66v1.08h1.52v.62h-1.52v1.13h1.52v.62h-1.52v1.12h1.97v.68ZM247.08,16.16h-1.18v3.11h1.18v-3.11ZM251.29,15.66h-1.59v1.08h1.59v-1.08ZM251.29,17.35h-1.59v1.13h1.59v-1.13ZM249.7,20.22h1.59v-1.12h-1.59v1.12Z"/>
    <path class="cls-5" d="M259.26,14.05h-3.75v-.66h3.75v.66ZM259.01,15.46h-3.22v-.63h3.22v.63ZM255.79,16.25h3.22v.64h-3.22v-.64ZM258.95,20.75h-2.49v.49h-.67v-3.57h3.16v3.08ZM256.46,18.32v1.78h1.81v-1.78h-1.81ZM257.26,13.33c-.12-.38-.4-.99-.66-1.45l.67-.23c.28.44.55,1.02.7,1.41l-.71.28ZM258.97,20.07c.36-.57.62-1.51.75-2.24l.56.17c-.14.77-.37,1.74-.73,2.32l-.57-.26ZM262.57,12.73c-.19,1.92-.72,3.51-2.68,4.39-.08-.18-.3-.44-.46-.56.95-.39,1.52-.97,1.87-1.68-.39-.4-1.04-.97-1.54-1.38l.42-.45c.45.35,1,.81,1.41,1.16.14-.46.21-.95.27-1.47h-2.19v-.68h5.19s-.01.23-.01.34c-.12,2.69-.23,3.65-.49,3.98-.18.21-.38.29-.67.31-.27.02-.73.02-1.2,0-.02-.21-.1-.5-.22-.7.49.04.94.05,1.11.05s.26-.02.35-.13c.17-.19.28-1.02.36-3.17h-1.49ZM262.93,20.49c.35,0,.42-.18.45-1.42.15.12.44.22.63.27-.07,1.45-.27,1.79-1,1.79h-1.38c-.84,0-1.05-.21-1.05-.95v-2.59h.69v2.59c0,.26.07.31.44.31h1.24ZM261.91,16.82c.45.48.94,1.12,1.17,1.53l-.52.36c-.22-.42-.7-1.1-1.14-1.59l.49-.31ZM264.38,17.41c.38.7.79,1.63.94,2.19l-.61.23c-.15-.57-.52-1.52-.89-2.24l.56-.19Z"/>
    <path class="cls-5" d="M269.89,11.84c-.26.52-.59,1.03-.94,1.52v4.31h-.77v-3.37c-.33.37-.68.71-1.02,1-.11-.15-.36-.47-.52-.62.98-.73,1.94-1.91,2.55-3.09l.7.23ZM266.78,20.58c.43-.63.84-1.6,1.08-2.3l.71.3c-.28.69-.65,1.69-1.04,2.34l-.75-.34ZM273.12,20.42c.59,0,.68-.16.73-1.24.18.14.51.26.73.3-.11,1.34-.36,1.67-1.42,1.67h-2.53c-1.26,0-1.59-.22-1.59-1.09v-1.84h.79v1.83c0,.31.13.36.83.36h2.45ZM271.23,13.32c-.33.55-.71,1.04-1.11,1.43-.13-.14-.43-.38-.6-.5.72-.63,1.34-1.6,1.69-2.6l.73.18c-.11.27-.22.53-.35.8h3.98l.13-.03.54.15c-.28.61-.6,1.33-.86,1.76l-.67-.14c.15-.28.34-.66.51-1.04h-4ZM271.93,14.76c-.35.84-.91,1.68-1.46,2.23-.14-.13-.43-.35-.6-.45.55-.5,1.04-1.25,1.33-1.98l.72.2ZM272.15,19.63c-.27-.51-.93-1.31-1.5-1.87l.61-.34c.59.54,1.26,1.3,1.56,1.82l-.66.39ZM273.54,17.63h-.76v-3.92h.76v3.92ZM274.78,14.53c.54.64,1.1,1.52,1.34,2.1l-.68.36c-.23-.6-.78-1.5-1.3-2.16l.64-.3ZM275.09,18.1c.5.76,1,1.74,1.18,2.39l-.76.31c-.15-.65-.64-1.67-1.12-2.43l.69-.27Z"/>
    <path class="cls-5" d="M280.85,11.76c-.18.52-.37,1.11-.55,1.57h1.77v6.91h-2.96v.84h-.72v-7.75h1.19c.16-.51.35-1.22.43-1.73l.85.16ZM281.34,14.04h-2.24v2.23h2.24v-2.23ZM281.34,19.53v-2.56h-2.24v2.56h2.24ZM287.27,13.7c-.17,4.86-.31,6.5-.73,7.02-.23.3-.48.39-.84.43-.37.04-.98.02-1.58-.01-.02-.23-.12-.55-.27-.78.69.06,1.33.06,1.58.06.21,0,.33-.02.44-.16.35-.37.51-1.99.65-6.23h-2.71c-.3.71-.63,1.36-1,1.86-.14-.13-.48-.34-.65-.45.71-.94,1.29-2.41,1.63-3.87l.76.18c-.13.52-.28,1.03-.46,1.53h3.18v.4ZM284.91,18.5c-.32-.64-1.03-1.69-1.62-2.46l.62-.36c.6.76,1.33,1.78,1.67,2.41l-.67.42Z"/>
    <path class="cls-5" d="M298.58,12.78v.68h-9.29v-.68h4.4c-.11-.32-.24-.7-.37-1l.73-.19c.15.37.34.84.46,1.19h4.07ZM297.99,20.47c0,.42-.11.6-.42.71-.32.1-.85.11-1.76.11-.04-.19-.14-.44-.24-.61.66.02,1.28.01,1.45,0,.17-.01.23-.05.23-.22v-4.81h-2.15v.69c0,.23.03.32.2.32h.96c.16,0,.44-.01.59-.04.01.18.03.39.05.56-.13.05-.38.05-.62.05h-1.12c-.65,0-.78-.28-.78-.91v-.68h-1.2c-.16,1.11-.66,1.69-2.13,2.02-.06-.17-.23-.43-.38-.55,1.25-.22,1.66-.65,1.81-1.47h-1.83v5.69h-.76v-6.35h4.92c.28-.43.61-1.02.78-1.45l.8.18c-.26.43-.54.89-.82,1.27h2.42v5.48ZM292.22,13.49c.23.37.53.87.67,1.18l-.68.28c-.15-.31-.44-.84-.66-1.24l.67-.22ZM292.65,20v.49h-.69v-2.91h3.89v2.42h-3.19ZM292.65,18.17v1.24h2.53v-1.24h-2.53Z"/>
    <path class="cls-5" d="M300.7,16.73h3.76v4.54h-.78v-.48h-2.23v.57h-.76v-4.63ZM301.45,17.49v2.52h2.23v-2.52h-2.23ZM308.03,15.61h-5.79v-3.53h5.79v3.53ZM307.23,12.84h-4.23v2.01h4.23v-2.01ZM309.58,16.73v4.56h-.78v-.5h-2.42v.57h-.77v-4.63h3.96ZM308.8,20.02v-2.52h-2.42v2.52h2.42Z"/>
  </g>
  <path id="_票卷撕開外框線" data-name="票卷撕開外框線" class="cls-9" d="M29.35,159.97v52.67c0,1.14.13,2.25.36,3.32,1.65,7.47,8.73,13.1,17.21,13.1h327.62c9.7,0,17.57-7.35,17.57-16.42V19.54c0-9.07-7.87-16.42-17.57-16.42H47.01c-9.74,0-17.62,7.4-17.57,16.51v1.7s.32,60.98.32,60.98l-.41,77.67Z"/>
</svg>