<?xml version="1.0" encoding="UTF-8"?>
<svg id="Layer_3" data-name="Layer 3" xmlns="http://www.w3.org/2000/svg" version="1.1" xmlns:xlink="http://www.w3.org/1999/xlink" viewBox="0 0 406.64 231.29">
  <defs>
    <style>
      .cls-1 {
        fill: #e5a856;
      }

      .cls-1, .cls-2, .cls-3, .cls-4, .cls-5, .cls-6 {
        stroke-width: 0px;
      }

      .cls-2 {
        fill: none;
      }

      .cls-7 {
        clip-path: url(#clippath-1);
      }

      .cls-3 {
        fill: #f2f1ec;
      }

      .cls-4 {
        fill: #fdc164;
      }

      .cls-8 {
        opacity: .15;
      }

      .cls-5 {
        fill: #365b6d;
      }

      .cls-6 {
        fill: #f2f1ec;
      }
    </style>
    <clipPath id="clippath-1">
      <rect class="cls-2" x="223.12" y="102" width="31.95" height="31.95"/>
    </clipPath>
  </defs>
  <g>
    <path class="cls-3" d="M132.09,25.39c-44.99-9.12-71.76,17.83-70.02,50.01,1.26,23.26-24.33,43.73-56.5,55.33v78.66c0,8.76,8.12,15.88,18.11,15.88h337.4c.92-1.97,1.84-4.03,2.73-6.26,6.41-15.95,13.07-26.87,19.69-34.7v-26.54l-.43-76.14.34-59.78v-1.66c.02-3.86-1.56-7.6-4.45-10.51-3.44-3.47-8.42-5.45-13.66-5.45h-135.09c-15.12,33.52-47.79,31.35-98.12,21.15Z"/>
    <path class="cls-5" d="M365.31,4.02c10.15,0,18.38,7.26,18.32,16.18v1.66l-.34,59.78.43,76.14v26.28c.07-.09.14-.16.22-.25v-26.04l-.43-76.13.34-59.78v-1.66c.03-3.98-1.6-7.82-4.57-10.82-3.52-3.55-8.61-5.58-13.96-5.58h-134.9c-.03.07-.06.15-.1.22h134.99Z"/>
    <path class="cls-5" d="M23.68,225.5c-10.12,0-18.32-7.21-18.32-16.1v-78.58c-.07.03-.14.05-.22.08v78.51c0,9,8.32,16.31,18.54,16.31h337.19c.03-.07.07-.14.1-.22H23.68Z"/>
    <path class="cls-5" d="M383.29,81.64l.34-59.78v-1.66c.06-8.92-8.17-16.18-18.32-16.18h-134.99c-.03.07-.06.15-.1.22h135.09c5.24,0,10.21,1.99,13.66,5.45,2.89,2.91,4.47,6.64,4.45,10.51v1.66l-.34,59.78.43,76.14v26.54c.07-.09.14-.17.22-.26v-26.28l-.43-76.14Z"/>
    <path class="cls-5" d="M23.68,225.28c-9.98,0-18.11-7.12-18.11-15.88v-78.66c-.07.03-.14.05-.22.08v78.58c0,8.89,8.21,16.1,18.32,16.1h337.29c.03-.07.07-.14.1-.22H23.68Z"/>
    <path class="cls-5" d="M5.57,20.12v110.62c32.17-11.6,57.76-32.08,56.5-55.33-1.74-32.18,25.03-59.13,70.02-50.01,50.34,10.2,83,12.37,98.12-21.15H23.68c-9.98,0-18.11,7.12-18.11,15.88Z"/>
    <path class="cls-5" d="M5.36,20.12C5.36,11.23,13.56,4.02,23.68,4.02h206.63c.03-.07.06-.15.1-.22H23.68C13.46,3.8,5.14,11.12,5.14,20.12v110.78c.07-.03.14-.05.22-.08V20.12Z"/>
    <path class="cls-5" d="M5.57,20.12c0-8.76,8.12-15.88,18.11-15.88h206.54c.03-.07.06-.15.1-.22H23.68c-10.12,0-18.32,7.21-18.32,16.1v110.7c.07-.03.14-.05.22-.08V20.12Z"/>
    <path class="cls-5" d="M361.08,225.28h4.32c8.55,0,16.01-5.33,17.74-12.67.24-1.06.37-2.14.37-3.21v-25.09c-6.63,7.83-13.28,18.75-19.69,34.7-.9,2.24-1.81,4.29-2.73,6.26Z"/>
    <path class="cls-5" d="M383.56,212.71c.25-1.09.38-2.2.38-3.31v-25.59c-.07.08-.14.16-.22.25v25.35c0,1.12-.13,2.21-.37,3.26-1.72,7.32-9.11,12.84-17.95,12.84h-4.43c-.03.07-.07.14-.1.22h4.53c8.75,0,16.39-5.47,18.16-13.01Z"/>
    <path class="cls-5" d="M383.5,209.4c0,1.07-.12,2.15-.37,3.21-1.73,7.34-9.19,12.67-17.74,12.67h-4.32c-.03.07-.07.14-.1.22h4.43c8.84,0,16.22-5.51,17.95-12.84.24-1.05.37-2.14.37-3.26v-25.35c-.07.08-.14.17-.22.26v25.09Z"/>
  </g>
  <g>
    <path class="cls-3" d="M383.63,152.32l-.22-.22v-76.14l.22-.22h6.13l.14.05,11.38,9.14.08.12c.03.14,3.03,14.3,3.03,29.97s-3,27.87-3.03,28l-.08.12-11.38,9.14-.14.05h-6.13Z"/>
    <path class="cls-5" d="M389.77,75.97l11.38,9.14s3.03,14.1,3.03,29.92-3.03,27.94-3.03,27.94l-11.38,9.14h-6.13v-76.14h6.13M389.77,75.53h-6.13l-.43.43v76.14l.43.43h6.13l.27-.1,11.38-9.14.15-.23c.03-.12,3.04-12.36,3.04-28.05s-3.01-29.87-3.04-30.01l-.15-.25-11.38-9.14-.27-.1h0Z"/>
  </g>
  <g id="logo">
    <path class="cls-5" d="M154.51,101.89v32.62h-8.83v-3.66c-1.96,2.52-5.24,3.53-8.2,3.53-8.96.06-16.28-7.19-16.34-16.15-.06-8.96,7.19-16.28,16.15-16.34,3.09,0,6.44,1.14,8.39,3.6v-3.6h8.83ZM145.36,118.11c0-2.15-.82-4.16-2.4-5.68-1.51-1.51-3.53-2.33-5.61-2.27-2.15,0-4.16.82-5.68,2.33-1.51,1.51-2.33,3.53-2.33,5.68s.88,4.16,2.4,5.68c1.51,1.51,3.53,2.33,5.68,2.33,2.14-.06,4.16-.88,5.62-2.4,1.51-1.51,2.33-3.53,2.33-5.68h0Z"/>
    <path class="cls-5" d="M184.28,130.6c-2.9,2.46-6.62,3.91-10.73,3.91-8.96-.06-16.21-7.38-16.15-16.34.06-8.96,7.38-16.21,16.34-16.15,4.04.06,7.76,1.58,10.6,4.04l-5.87,5.8c-1.39-1.01-3.03-1.58-4.79-1.58-2.15,0-4.16.82-5.68,2.27-1.51,1.51-2.33,3.53-2.33,5.68-.06,2.14.76,4.16,2.27,5.68,1.51,1.51,3.53,2.33,5.68,2.4,1.77,0,3.41-.57,4.79-1.58l5.87,5.87Z"/>
    <path class="cls-5" d="M220.3,119.05v15.46h-8.2v-16.02h-.06v-.19c0-2.08-.82-4.1-2.33-5.61-1.51-1.51-3.53-2.33-5.68-2.33s-4.16.88-5.68,2.4c-1.51,1.51-2.33,3.53-2.27,5.68v.06h-.06v16.02h-8.83v-41.01h8.83v12.62c2.65-3.15,5.05-3.72,7.95-3.97,8.9-.76,16.34,4.98,16.34,16.15v.76Z"/>
    <path class="cls-5" d="M277.71,101.45v9.02c-6.81,0-10.98,5.49-10.98,9.65v14.38h-8.83v-32.49h8.83v4.86c1.45-4.04,4.42-5.43,10.98-5.43h0Z"/>
    <path class="cls-5" d="M312.09,101.89v32.62h-8.83v-3.66c-1.96,2.52-5.24,3.53-8.2,3.53-8.96.06-16.28-7.19-16.34-16.15-.06-8.96,7.19-16.28,16.15-16.34,3.09,0,6.43,1.14,8.39,3.6v-3.6h8.83ZM302.94,118.11c0-2.15-.82-4.16-2.4-5.68-1.51-1.51-3.53-2.33-5.61-2.27-2.15,0-4.16.82-5.68,2.33-1.51,1.51-2.33,3.53-2.33,5.68s.88,4.16,2.4,5.68c1.51,1.51,3.53,2.33,5.68,2.33,2.14-.06,4.16-.88,5.61-2.4,1.51-1.51,2.33-3.53,2.33-5.68h0Z"/>
    <g>
      <g class="cls-8">
        <g class="cls-7">
          <path class="cls-6" d="M255.08,117.98c0,8.82-7.15,15.98-15.98,15.98s-15.98-7.15-15.98-15.98,7.15-15.98,15.98-15.98,15.98,7.15,15.98,15.98"/>
        </g>
      </g>
      <path class="cls-4" d="M256.53,117.81c-.4-9.37-8.06-16.7-17.44-16.7-8.73,0-16.13,6.49-17.28,15.11-.01,0,.01,0,0,0,0,.04,0-.04,0,0-.03.22-.09.54-.1.76v.12c-.54,7.79,4.41,15.1,11.93,17.43,11.11,3.44,22.63-5.06,22.88-15.97l.02-.74ZM239.1,103.33c7.94,0,14.47,6.03,15.16,13.86-10.82,6.59-25.5,2.42-30.17-1.22,1.24-7.25,7.57-12.63,15-12.63h0Z"/>
    </g>
    <path class="cls-5" d="M110.43,110.68h-10.22v8.2h9.46c-.57,1.45-2.4,3.34-2.84,3.79-2.33,2.27-5.43,3.6-8.71,3.6s-6.37-1.32-8.64-3.6c-2.33-2.33-3.66-5.43-3.66-8.71s1.32-6.37,3.66-8.71c2.27-2.33,5.36-3.6,8.64-3.6,2.71,0,5.3.88,7.44,2.46l6.31-6.25c-3.72-3.15-8.52-5.05-13.75-5.05-11.67,0-21.13,9.46-21.13,21.14s9.46,21.13,21.13,21.13c4.61,0,8.83-1.45,12.3-3.91,0,0,.04-.03.1-.07l8.1,3.24v-23.67h-8.2Z"/>
  </g>
  <path class="cls-1" d="M349.12,18.25c.58,1.41.75,2.55.77,3.64.03,1.67.77,2.56,2.3,2.97.27.07.51.24.77.37-.03.1-.04.22-.07.22-2.95.49-2.94,3.04-3.58,5.13-.14.46-.2.95-.32,1.5-.69-.27-.63-.89-.75-1.4-.1-.4-.28-.79-.28-1.19.03-2.04-.85-3.36-2.88-3.87-.38-.1-.78-.25-1.06-.6.67-.47,1.48-.4,2.23-.52.92-.14,1.43-.58,1.64-1.51.33-1.47.76-2.92,1.24-4.75Z"/>
  <path class="cls-3" d="M119.06,171.33c.58,1.41.75,2.55.77,3.64.03,1.67.77,2.56,2.3,2.97.27.07.51.24.77.37-.03.1-.04.22-.07.22-2.95.49-2.94,3.04-3.58,5.13-.14.46-.2.95-.32,1.5-.69-.27-.63-.89-.75-1.4-.1-.4-.28-.79-.28-1.19.03-2.04-.85-3.36-2.88-3.87-.38-.1-.78-.25-1.06-.6.67-.47,1.48-.4,2.23-.52.92-.14,1.43-.58,1.64-1.51.33-1.47.76-2.92,1.24-4.75Z"/>
  <path class="cls-1" d="M82.99,42.84c.74,1.8.95,3.27.98,4.65.04,2.13.98,3.28,2.94,3.8.34.09.66.31.98.47-.04.12-.06.28-.1.29-3.77.62-3.76,3.89-4.58,6.56-.18.59-.26,1.22-.41,1.92-.89-.35-.81-1.13-.97-1.79-.12-.51-.36-1.02-.35-1.52.03-2.61-1.09-4.31-3.69-4.96-.49-.12-1-.32-1.35-.76.86-.6,1.89-.52,2.86-.66,1.18-.18,1.83-.74,2.1-1.93.42-1.88.97-3.74,1.59-6.08Z"/>
  <path class="cls-3" d="M277.3,64.29c.56,1.36.72,2.47.74,3.51.03,1.61.74,2.48,2.22,2.87.26.07.5.24.74.36-.03.09-.04.21-.07.22-2.85.47-2.84,2.93-3.46,4.95-.14.45-.2.92-.31,1.45-.67-.27-.61-.86-.73-1.35-.09-.38-.27-.77-.27-1.15.03-1.97-.82-3.25-2.79-3.74-.37-.09-.76-.24-1.02-.58.65-.45,1.43-.39,2.16-.5.89-.13,1.38-.56,1.58-1.46.32-1.42.73-2.82,1.2-4.59Z"/>
  <path class="cls-1" d="M328.96,169.38c1.11,2.71,1.44,4.92,1.48,7,.07,3.21,1.47,4.93,4.42,5.72.52.14.99.47,1.48.71-.06.19-.08.42-.14.43-5.67.94-5.66,5.85-6.89,9.87-.27.89-.39,1.83-.61,2.88-1.34-.53-1.22-1.71-1.45-2.69-.18-.76-.54-1.53-.53-2.29.05-3.93-1.64-6.48-5.55-7.46-.73-.18-1.51-.48-2.03-1.15,1.29-.9,2.85-.78,4.3-1,1.78-.27,2.75-1.11,3.15-2.91.63-2.83,1.46-5.62,2.39-9.14Z"/>
  <circle class="cls-1" cx="93.45" cy="155.89" r="1.92"/>
  <circle class="cls-3" cx="265.74" cy="37.83" r="1.92"/>
  <circle class="cls-1" cx="212.78" cy="190.43" r="1.92"/>
  <circle class="cls-3" cx="309.13" cy="162.24" r="1.92"/>
  <path class="cls-2" d="M383.2,157.77v51.63c0,1.12-.13,2.21-.37,3.26-1.72,7.32-9.08,12.84-17.91,12.84H23.98c-10.09,0-18.28-7.21-18.28-16.1V20.12C5.7,11.23,13.89,4.02,23.98,4.02h340.84c10.13,0,18.34,7.26,18.28,16.18v1.66l-.34,59.78.43,76.14Z"/>
  <path class="cls-1" d="M386.89,116.41l9.43,11.09c.57.67,1.67.27,1.67-.61v-22.19c0-.88-1.1-1.28-1.67-.61l-9.43,11.09c-.3.35-.3.87,0,1.23Z"/>
</svg>