<?xml version="1.0" encoding="UTF-8"?>
<svg id="Layer_2" data-name="Layer 2" xmlns="http://www.w3.org/2000/svg" version="1.1" xmlns:xlink="http://www.w3.org/1999/xlink" viewBox="0 0 406.64 231.29">
  <defs>
    <style>
      .cls-1 {
        fill: #cde2ed;
      }

      .cls-1, .cls-2, .cls-3, .cls-4, .cls-5, .cls-6, .cls-7, .cls-8 {
        stroke-width: 0px;
      }

      .cls-2 {
        fill: #e5a856;
      }

      .cls-3, .cls-9 {
        fill: none;
      }

      .cls-10 {
        clip-path: url(#clippath-1);
      }

      .cls-9 {
        stroke: #365b6d;
        stroke-miterlimit: 10;
      }

      .cls-4 {
        fill: #666;
      }

      .cls-5 {
        fill: #f2f1ec;
      }

      .cls-6 {
        fill: #fdc164;
      }

      .cls-11 {
        opacity: .15;
      }

      .cls-12 {
        clip-path: url(#clippath);
      }

      .cls-7 {
        fill: #365b6d;
      }

      .cls-8 {
        fill: #f2f1ec;
      }
    </style>
    <clipPath id="clippath">
      <path class="cls-3" d="M29.57,160.24v52.56c0,1.14.13,2.25.36,3.32,1.65,7.46,8.71,13.07,17.17,13.07h326.93c9.68,0,17.53-7.34,17.53-16.39V20.1c0-9.05-7.85-16.39-17.53-16.39H47.19c-9.72,0-17.58,7.39-17.53,16.47v1.69s.32,60.86.32,60.86l-.41,77.51Z"/>
    </clipPath>
    <clipPath id="clippath-1">
      <rect class="cls-3" x="231.36" y="197.08" width="18.47" height="18.47"/>
    </clipPath>
  </defs>
  <g id="_撕開底層" data-name="撕開底層">
    <g>
      <path class="cls-1" d="M23.5,154.89l-.14-.05-11.59-9.3-.08-.12c-.03-.12-3.09-12.55-3.09-28.5s3.06-30.36,3.09-30.51l.08-.13,11.59-9.3.14-.05h6.24l.22.22v77.51l-.22.22h-6.24Z"/>
      <path class="cls-7" d="M29.74,77.16v77.51h-6.24l-11.59-9.3s-3.08-12.34-3.08-28.45,3.08-30.46,3.08-30.46l11.59-9.3h6.24M29.74,76.72h-6.24l-.28.1-11.59,9.3-.16.25c-.03.14-3.09,14.59-3.09,30.55s3.07,28.43,3.1,28.55l.15.24,11.59,9.3.28.1h6.24l.44-.44v-77.51l-.44-.44h0Z"/>
    </g>
    <g>
      <path class="cls-5" d="M29.75,160.44v52.56c0,1.14.13,2.25.36,3.32,1.65,7.46,8.71,13.07,17.17,13.07h326.93c9.68,0,17.53-7.34,17.53-16.39V20.3c0-9.05-7.85-16.39-17.53-16.39H47.37c-9.72,0-17.58,7.39-17.53,16.47v1.69s.32,60.86.32,60.86l-.41,77.51Z"/>
      <path class="cls-7" d="M374.21,229.61H47.28c-8.38,0-15.69-5.57-17.39-13.24-.24-1.11-.36-2.24-.36-3.37v-52.56l.41-77.51-.32-60.85v-1.69c-.03-4.24,1.66-8.29,4.75-11.39,3.35-3.37,8.09-5.3,13-5.3h326.84c9.79,0,17.75,7.45,17.75,16.61v192.7c0,9.16-7.96,16.61-17.75,16.61ZM29.97,160.44v52.56c0,1.09.12,2.19.35,3.27,1.65,7.47,8.78,12.9,16.95,12.9h326.93c9.54,0,17.31-7.25,17.31-16.17V20.3c0-8.91-7.76-16.17-17.31-16.17H47.37c-4.8,0-9.42,1.88-12.69,5.17-3,3.02-4.64,6.96-4.62,11.08v1.69l.32,60.85-.41,77.51h0Z"/>
    </g>
  </g>
  <g id="_底層色彩" data-name="底層色彩">
    <g class="cls-12">
      <rect class="cls-2" x="21.3" y="3.8" width="380.77" height="26.44"/>
      <rect class="cls-7" x="20.41" y="180.9" width="380.77" height="48.7"/>
    </g>
  </g>
  <rect id="_淺藍底" data-name="淺藍底" class="cls-1" x="29.93" y="49.84" width="361.74" height="131.06"/>
  <g id="A賞">
    <path class="cls-4" d="M159.09,65.96h60.3v16.47h-40.65v22.71h34.54v16.47h-34.54v26.3h42.11v16.47h-61.77v-98.43Z"/>
    <path class="cls-4" d="M270.55,157.85c4.16,1.15,8.68,2.61,11.47,3.68l-5.49,2.79c-2.66-1.15-7.31-2.83-11.91-4.16l3.41-2.3h-12.66l4.6,1.73c-3.37,2.3-8.99,3.99-13.59,5-.89-1.11-2.79-3.06-3.9-3.94,4.38-.53,9.3-1.51,12.04-2.79h-6.38v-15.9h28.91v15.9h-6.51ZM248.54,135.93h-4.87v-8.41h6.11c-.62-1.06-1.42-2.21-2.13-3.14l4.69-1.28c1.15,1.28,2.35,3.06,2.97,4.25l-.53.18h4.78v-4.6h5.22v4.6h4.87c.97-1.33,2.17-3.19,2.79-4.56l5.4,1.28c-.89,1.24-1.82,2.35-2.66,3.28h6.15v8.41h-5.14v-4.83h-27.67v4.83ZM250.71,140.45v-7.7h23.51v7.7h-23.51ZM253.15,146.34h18.69v-1.55h-18.69v1.55ZM253.15,150.63h18.69v-1.55h-18.69v1.55ZM253.15,154.97h18.69v-1.59h-18.69v1.59ZM255.58,137.53h13.42v-1.86h-13.42v1.86Z"/>
  </g>
  <g id="logo">
    <path class="cls-8" d="M191.7,197.02v18.85h-5.11v-2.11c-1.13,1.46-3.03,2.04-4.74,2.04-5.18.04-9.41-4.16-9.44-9.33-.04-5.18,4.16-9.41,9.33-9.44,1.79,0,3.72.66,4.85,2.08v-2.08h5.11ZM186.42,206.39c0-1.24-.47-2.41-1.39-3.28-.88-.88-2.04-1.35-3.25-1.31-1.24,0-2.41.47-3.28,1.35-.88.88-1.35,2.04-1.35,3.28s.51,2.41,1.39,3.28c.88.88,2.04,1.35,3.28,1.35,1.24-.04,2.41-.51,3.25-1.39.88-.88,1.35-2.04,1.35-3.28"/>
    <path class="cls-8" d="M208.91,213.61c-1.68,1.42-3.83,2.26-6.2,2.26-5.18-.04-9.37-4.27-9.33-9.44.04-5.18,4.27-9.37,9.44-9.33,2.33.04,4.49.91,6.13,2.33l-3.39,3.35c-.8-.58-1.75-.91-2.77-.91-1.24,0-2.41.47-3.28,1.31-.88.88-1.35,2.04-1.35,3.28-.04,1.24.44,2.41,1.31,3.28.88.88,2.04,1.35,3.28,1.39,1.02,0,1.97-.33,2.77-.91l3.39,3.39Z"/>
    <path class="cls-8" d="M229.73,206.93v8.93h-4.74v-9.26h-.04v-.11c0-1.2-.47-2.37-1.35-3.25-.88-.88-2.04-1.35-3.28-1.35s-2.41.51-3.28,1.39c-.88.88-1.35,2.04-1.31,3.28v.04h-.04v9.26h-5.1v-23.7h5.1v7.29c1.53-1.82,2.92-2.15,4.59-2.3,5.14-.44,9.44,2.88,9.44,9.33v.44Z"/>
    <path class="cls-8" d="M262.91,196.76v5.21c-3.94,0-6.34,3.17-6.34,5.58v8.31h-5.11v-18.78h5.11v2.81c.84-2.33,2.55-3.14,6.34-3.14"/>
    <path class="cls-8" d="M282.78,197.02v18.85h-5.1v-2.11c-1.13,1.46-3.03,2.04-4.74,2.04-5.18.04-9.41-4.16-9.44-9.33-.04-5.18,4.16-9.41,9.33-9.44,1.79,0,3.72.66,4.85,2.08v-2.08h5.1ZM277.5,206.39c0-1.24-.47-2.41-1.39-3.28-.88-.88-2.04-1.35-3.25-1.31-1.24,0-2.41.47-3.28,1.35-.88.88-1.35,2.04-1.35,3.28s.51,2.41,1.39,3.28c.88.88,2.04,1.35,3.28,1.35,1.24-.04,2.41-.51,3.25-1.39.88-.88,1.35-2.04,1.35-3.28"/>
    <g>
      <g class="cls-11">
        <g class="cls-10">
          <path class="cls-8" d="M249.83,206.31c0,5.1-4.13,9.23-9.23,9.23s-9.23-4.13-9.23-9.23,4.13-9.23,9.23-9.23,9.23,4.13,9.23,9.23"/>
        </g>
      </g>
      <path class="cls-6" d="M250.67,206.21c-.23-5.41-4.66-9.65-10.08-9.65-5.05,0-9.32,3.75-9.99,8.73,0,0,0,0,0,0,0,.03,0-.03,0,0-.01.13-.05.31-.06.44v.07c-.31,4.5,2.55,8.73,6.89,10.07,6.42,1.99,13.08-2.92,13.22-9.23v-.43ZM240.6,197.85c4.59,0,8.36,3.49,8.76,8.01-6.25,3.81-14.74,1.4-17.44-.71.72-4.19,4.38-7.3,8.67-7.3"/>
    </g>
    <path class="cls-8" d="M166.23,202.09h-5.91v4.74h5.47c-.33.84-1.39,1.93-1.64,2.19-1.35,1.31-3.14,2.08-5.03,2.08s-3.68-.77-5-2.08c-1.35-1.35-2.11-3.14-2.11-5.03s.77-3.68,2.11-5.03c1.31-1.35,3.1-2.08,5-2.08,1.57,0,3.06.51,4.3,1.42l3.65-3.61c-2.15-1.82-4.92-2.92-7.95-2.92-6.75,0-12.22,5.47-12.22,12.22s5.47,12.22,12.22,12.22c2.66,0,5.1-.84,7.11-2.26,0,0,.02-.02.06-.04l4.68,1.87v-13.68h-4.74Z"/>
  </g>
  <path id="_票卷撕開外框線" data-name="票卷撕開外框線" class="cls-9" d="M29.75,160.44v52.56c0,1.14.13,2.25.36,3.32,1.65,7.46,8.71,13.07,17.17,13.07h326.93c9.68,0,17.53-7.34,17.53-16.39V20.3c0-9.05-7.85-16.39-17.53-16.39H47.37c-9.72,0-17.58,7.39-17.53,16.47v1.69s.32,60.86.32,60.86l-.41,77.51Z"/>
</svg>