<?xml version="1.0" encoding="UTF-8"?>
<svg id="Layer_2" data-name="Layer 2" xmlns="http://www.w3.org/2000/svg" version="1.1" xmlns:xlink="http://www.w3.org/1999/xlink" viewBox="0 0 406.64 231.29">
  <defs>
    <style>
      .cls-1 {
        fill: #cde2ed;
      }

      .cls-1, .cls-2, .cls-3, .cls-4, .cls-5, .cls-6, .cls-7, .cls-8 {
        stroke-width: 0px;
      }

      .cls-9, .cls-10 {
        stroke: #365b6d;
        stroke-miterlimit: 10;
      }

      .cls-9, .cls-5 {
        fill: #f2f1ec;
      }

      .cls-2 {
        fill: #e5a856;
      }

      .cls-3, .cls-10 {
        fill: none;
      }

      .cls-11 {
        clip-path: url(#clippath-1);
      }

      .cls-4 {
        fill: #666;
      }

      .cls-6 {
        fill: #fdc164;
      }

      .cls-12 {
        opacity: .15;
      }

      .cls-13 {
        clip-path: url(#clippath);
      }

      .cls-7 {
        fill: #365b6d;
      }

      .cls-8 {
        fill: #f2f1ec;
      }
    </style>
    <clipPath id="clippath">
      <path class="cls-3" d="M28.03,159.41v52.56c0,1.14.13,2.25.36,3.32,1.65,7.46,8.71,13.07,17.17,13.07h326.91c9.68,0,17.53-7.34,17.53-16.39V19.28c0-9.05-7.85-16.39-17.53-16.39H45.65c-9.71,0-17.58,7.39-17.53,16.47v1.69s.32,60.85.32,60.85l-.41,77.51Z"/>
    </clipPath>
    <clipPath id="clippath-1">
      <rect class="cls-3" x="229.81" y="196.24" width="18.47" height="18.47"/>
    </clipPath>
  </defs>
  <g id="_撕開底層" data-name="撕開底層">
    <g>
      <path class="cls-1" d="M21.97,154.34l-.31-.11-11.59-9.3-.17-.27c-.03-.12-3.1-12.58-3.1-28.57s3.06-30.42,3.09-30.56l.18-.29,11.59-9.3.31-.11h6.24l.5.5v77.5l-.5.5h-6.24Z"/>
      <path class="cls-7" d="M28.21,76.33v77.51h-6.24l-11.59-9.3s-3.08-12.34-3.08-28.45,3.08-30.46,3.08-30.46l11.59-9.3h6.24M28.21,75.33h-6.24l-.63.22-11.59,9.3-.35.57c-.03.14-3.11,14.64-3.11,30.67s3.08,28.56,3.11,28.69l.34.54,11.59,9.3.63.22h6.24l1-1v-77.51l-1-1h0Z"/>
    </g>
    <path class="cls-9" d="M28.22,159.61v52.56c0,1.14.13,2.25.36,3.32,1.65,7.46,8.71,13.07,17.17,13.07h326.91c9.68,0,17.53-7.34,17.53-16.39V19.48c0-9.05-7.85-16.39-17.53-16.39H45.83c-9.71,0-17.58,7.39-17.53,16.47v1.69s.32,60.85.32,60.85l-.41,77.51Z"/>
  </g>
  <g id="_底層色彩" data-name="底層色彩">
    <g class="cls-13">
      <rect class="cls-2" x="19.76" y="2.98" width="380.75" height="26.44"/>
      <rect class="cls-7" x="18.88" y="180.07" width="380.75" height="48.7"/>
    </g>
  </g>
  <rect id="_淺藍底" data-name="淺藍底" class="cls-1" x="28.4" y="49.02" width="361.71" height="131.05"/>
  <g id="A賞">
    <path class="cls-4" d="M176.4,65.14h23.11l31.61,98.42h-20.59l-6.91-25.24h-31.88l-6.91,25.24h-19.92l31.48-98.42ZM176.01,123.04h23.38l-2.92-10.76c-3.05-10.23-5.71-21.52-8.5-32.14h-.66c-2.52,10.76-5.45,21.92-8.37,32.14l-2.92,10.76Z"/>
    <path class="cls-4" d="M269,157.02c4.16,1.15,8.68,2.61,11.47,3.67l-5.49,2.79c-2.66-1.15-7.31-2.83-11.91-4.16l3.41-2.3h-12.66l4.6,1.73c-3.36,2.3-8.99,3.98-13.59,5-.89-1.11-2.79-3.05-3.9-3.94,4.38-.53,9.3-1.51,12.04-2.79h-6.38v-15.89h28.91v15.89h-6.51ZM246.99,135.1h-4.87v-8.41h6.11c-.62-1.06-1.42-2.21-2.13-3.14l4.69-1.28c1.15,1.28,2.35,3.05,2.97,4.25l-.53.18h4.78v-4.6h5.22v4.6h4.87c.97-1.33,2.17-3.19,2.79-4.56l5.4,1.28c-.89,1.24-1.82,2.35-2.66,3.28h6.15v8.41h-5.14v-4.83h-27.67v4.83ZM249.16,139.62v-7.7h23.51v7.7h-23.51ZM251.6,145.51h18.68v-1.55h-18.68v1.55ZM251.6,149.8h18.68v-1.55h-18.68v1.55ZM251.6,154.14h18.68v-1.59h-18.68v1.59ZM254.03,136.7h13.42v-1.86h-13.42v1.86Z"/>
  </g>
  <g id="logo">
    <path class="cls-8" d="M190.16,196.18v18.85h-5.1v-2.11c-1.13,1.46-3.03,2.04-4.74,2.04-5.18.04-9.41-4.16-9.44-9.33-.04-5.18,4.16-9.41,9.33-9.44,1.79,0,3.72.66,4.85,2.08v-2.08h5.1ZM184.87,205.55c0-1.24-.47-2.41-1.39-3.28-.88-.87-2.04-1.35-3.25-1.31-1.24,0-2.41.47-3.28,1.35-.88.88-1.35,2.04-1.35,3.28s.51,2.41,1.39,3.28c.88.87,2.04,1.35,3.28,1.35,1.24-.04,2.41-.51,3.25-1.39.87-.87,1.35-2.04,1.35-3.28"/>
    <path class="cls-8" d="M207.37,212.77c-1.68,1.42-3.83,2.26-6.2,2.26-5.18-.04-9.37-4.27-9.33-9.44.04-5.18,4.27-9.37,9.44-9.33,2.33.04,4.48.91,6.13,2.33l-3.39,3.35c-.8-.58-1.75-.91-2.77-.91-1.24,0-2.41.47-3.28,1.31-.88.88-1.35,2.04-1.35,3.28-.04,1.24.44,2.41,1.31,3.28.88.87,2.04,1.35,3.28,1.39,1.02,0,1.97-.33,2.77-.91l3.39,3.39Z"/>
    <path class="cls-8" d="M228.18,206.1v8.93h-4.74v-9.26h-.04v-.11c0-1.2-.47-2.37-1.35-3.25-.87-.88-2.04-1.35-3.28-1.35s-2.41.51-3.28,1.39c-.87.87-1.35,2.04-1.31,3.28v.04h-.04v9.26h-5.1v-23.7h5.1v7.29c1.53-1.82,2.92-2.15,4.59-2.3,5.14-.44,9.44,2.88,9.44,9.33v.44Z"/>
    <path class="cls-8" d="M261.36,195.93v5.21c-3.94,0-6.34,3.17-6.34,5.58v8.31h-5.1v-18.78h5.1v2.81c.84-2.33,2.55-3.14,6.34-3.14"/>
    <path class="cls-8" d="M281.23,196.18v18.85h-5.1v-2.11c-1.13,1.46-3.03,2.04-4.74,2.04-5.18.04-9.41-4.16-9.44-9.33-.04-5.18,4.16-9.41,9.33-9.44,1.79,0,3.72.66,4.85,2.08v-2.08h5.1ZM275.94,205.55c0-1.24-.47-2.41-1.39-3.28-.88-.87-2.04-1.35-3.25-1.31-1.24,0-2.41.47-3.28,1.35-.87.88-1.35,2.04-1.35,3.28s.51,2.41,1.39,3.28c.88.87,2.04,1.35,3.28,1.35,1.24-.04,2.41-.51,3.25-1.39.87-.87,1.35-2.04,1.35-3.28"/>
    <g>
      <g class="cls-12">
        <g class="cls-11">
          <path class="cls-8" d="M248.28,205.48c0,5.1-4.13,9.23-9.23,9.23s-9.23-4.13-9.23-9.23,4.13-9.23,9.23-9.23,9.23,4.13,9.23,9.23"/>
        </g>
      </g>
      <path class="cls-6" d="M249.12,205.38c-.23-5.41-4.66-9.65-10.08-9.65-5.05,0-9.32,3.75-9.99,8.73,0,0,0,0,0,0,0,.03,0-.03,0,0-.01.13-.05.31-.06.44v.07c-.31,4.5,2.55,8.73,6.89,10.07,6.42,1.99,13.08-2.92,13.22-9.23v-.43ZM239.05,197.01c4.59,0,8.36,3.49,8.76,8.01-6.25,3.81-14.74,1.4-17.43-.71.72-4.19,4.38-7.3,8.67-7.3"/>
    </g>
    <path class="cls-8" d="M164.68,201.26h-5.91v4.74h5.47c-.33.84-1.39,1.93-1.64,2.19-1.35,1.31-3.14,2.08-5.03,2.08s-3.68-.77-5-2.08c-1.35-1.35-2.11-3.14-2.11-5.03s.77-3.68,2.11-5.03c1.31-1.35,3.1-2.08,5-2.08,1.57,0,3.06.51,4.3,1.42l3.65-3.61c-2.15-1.82-4.92-2.92-7.95-2.92-6.75,0-12.21,5.47-12.21,12.21s5.47,12.21,12.21,12.21c2.66,0,5.1-.84,7.11-2.26,0,0,.02-.02.06-.04l4.68,1.87v-13.68h-4.74Z"/>
  </g>
  <g>
    <path class="cls-5" d="M111.95,15.75c.67.83,1.73,1.58,2.75,1.96-.17.15-.39.43-.51.63-1.17-.5-2.36-1.5-3.06-2.58h-2.76c-.71,1.15-1.86,2.06-3.02,2.67-.11-.16-.4-.45-.57-.58,1.06-.48,2.05-1.2,2.68-2.08h-2.38v-.73h2.58v-1.4h-1.9v-.73h1.9v-1.31h.78v1.31h2.6v-1.31h.78v1.31h1.93v.73h-1.93v1.4h2.65v.73h-2.51ZM107.82,17.86c-.34.75-.81,1.68-1.43,2.27l-.65-.38c.63-.55,1.14-1.43,1.41-2.17l.67.28ZM108.71,16.69h.75v3.68c0,.44-.09.65-.39.78-.32.12-.81.13-1.55.13-.03-.22-.13-.52-.23-.74.57.02,1.07.02,1.22.01.16-.01.2-.04.2-.17v-3.68ZM108.43,15.01h2.6v-1.4h-2.6v1.4ZM110.68,17.69c.35.71.63,1.64.72,2.25l-.69.17c-.07-.63-.35-1.56-.68-2.27l.65-.15ZM112.04,17.32c.66.78,1.33,1.83,1.64,2.54l-.68.31c-.29-.7-.96-1.8-1.59-2.58l.64-.27Z"/>
    <path class="cls-5" d="M125.66,17.52v.63h-9.52v-.63h2.67c-.08-.23-.21-.49-.34-.69l.4-.12h-1.16v-1.92h6.41v1.92h-.94l.19.04c-.15.28-.32.54-.47.77h2.75ZM120.48,12.93h-4.01v-.6h4.01v-.76h.8v.76h4.1v.6h-4.1v.73h3.39v.58h-7.45v-.58h3.26v-.73ZM117.52,18.73h6.81v2.54h-.8v-.32h-5.24v.33h-.78v-2.55ZM118.3,19.31v1.07h5.24v-1.07h-5.24ZM118.47,16.17h4.87v-.84h-4.87v.84ZM119.23,16.71c.17.25.33.57.39.81h2.49c.13-.24.29-.55.38-.81h-3.26Z"/>
    <path class="cls-5" d="M136.3,13.47v4.97h-.81v-.61h-3.05v3.44h-.82v-3.44h-3.04v.66h-.78v-5.03h3.81v-1.89h.82v1.89h3.86ZM131.62,17.06v-2.82h-3.04v2.82h3.04ZM135.49,17.06v-2.82h-3.05v2.82h3.05Z"/>
    <path class="cls-5" d="M144.02,19c1.33.49,3.11,1.2,4.07,1.66l-.38.63c-.94-.48-2.82-1.28-4.2-1.81l.33-.48h-.5c-.41.88-1.56,1.81-4.56,2.32-.09-.18-.28-.47-.45-.64,2.45-.4,3.57-1.05,4.08-1.68h-4v-.67h4.31c.03-.15.04-.28.04-.4v-.65h.78v.67c0,.13-.01.24-.02.38h2.17c-.23-.22-.57-.49-.85-.69l.32-.29h-.37c-.03-.19-.13-.43-.22-.62.49.02.91.02,1.03.02.14-.01.17-.04.17-.16v-1.05h-2.48c.43.26.89.64,1.13.94l-.52.43c-.22-.31-.72-.73-1.15-1.01l.45-.35h-1.26v-.56h3.84v-.78h.75v.78h1.34v.56h-1.34v1.07c0,.37-.07.53-.36.64-.18.06-.46.09-.83.1.33.22.74.53.95.74l-.22.23h1.99v.67h-4.03ZM139.94,15.6c0,.54-.17,1.49-.9,2.08-.14-.11-.44-.27-.61-.35.67-.52.8-1.31.8-1.75v-.1h-.76v-.65h2.33v-.81h-1.83v-2.18h.69v1.54h1.14v-1.77h.73v5.98h-.73v-2.11h-.85v.12ZM147.52,12.34c-.95,1.63-3.11,2.33-5.31,2.64-.06-.16-.2-.37-.32-.5,1.04-.12,2.08-.34,2.98-.71-.28-.32-.66-.69-1.03-.98-.44.19-.89.36-1.41.52-.1-.15-.3-.36-.44-.46,1.3-.34,2.3-.81,2.86-1.29l.69.15c-.16.15-.34.29-.54.43h1.98l.14-.03.41.23ZM144.06,13.82c-.65.06-1.23.11-1.77.15l-.08-.47c.52-.03,1.14-.07,1.85-.12v.44ZM144.39,12.62c.36.28.71.59.98.89.47-.24.86-.53,1.18-.89h-2.16Z"/>
    <path class="cls-5" d="M150.07,19.88c0-.45.32-.75.7-.75s.7.31.7.75-.31.73-.7.73-.7-.3-.7-.73ZM150.31,13.62l-.03-1.11h.99l-.03,1.11-.13,4.51h-.67l-.13-4.51Z"/>
    <path class="cls-5" d="M153.53,13.37h3.64v.65h-3.64v-.65ZM156.87,15.33h-3.09v-.63h3.09v.63ZM153.79,16.14h3.09v.63h-3.09v-.63ZM156.85,20.67h-2.33v.49h-.69v-3.56h3.02v3.07ZM154.52,18.24v1.77h1.63v-1.77h-1.63ZM155.32,13.25c-.1-.38-.33-.99-.53-1.43l.66-.2c.22.44.46,1.02.56,1.39l-.69.24ZM162.58,20.47c0,.38-.07.57-.36.69-.27.12-.7.12-1.37.12-.03-.2-.12-.47-.22-.66.48.02.91.02,1.04.01.14,0,.17-.04.17-.16v-.9h-3.29c-.12.67-.33,1.34-.77,1.86-.12-.15-.39-.44-.55-.52.63-.8.7-1.87.7-2.71v-1.96h4.65v4.23ZM163.19,15v.61h-5.9v-.61h2.51v-.72h-2.13v-.57h2.13v-.65h-2.39v-.61h2.39v-.86h.78v.86h2.51v.61h-2.51v.65h2.31v.57h-2.31v.72h2.61ZM161.83,19v-.79h-3.19c0,.24-.01.51-.03.79h3.22ZM158.64,16.86v.79h3.19v-.79h-3.19Z"/>
    <path class="cls-5" d="M174.22,20.14v.74h-9.43v-.74h4.28v-1.96h-3.36v-.73h3.36v-1.38h.8v1.38h3.45v.73h-3.45v1.96h4.35ZM173.14,16.32c-.17-.22-.4-.49-.68-.76-5.73.28-6.3.3-6.69.44-.04-.18-.16-.57-.26-.79.2-.03.45-.21.73-.5.27-.21.99-.95,1.59-1.79h-2.81v-.74h8.85v.74h-5.02c-.63.82-1.31,1.58-1.98,2.19l4.91-.2c-.44-.39-.89-.79-1.32-1.12l.63-.4c.96.71,2.14,1.74,2.7,2.45l-.67.48Z"/>
    <path class="cls-5" d="M178.93,19.64v1.66h-.74v-1.66h-2.4v-.7h2.4v-.75h-1.97v-3.59h4.73v3.59h-2.02v.75h2.37v.7h-2.37ZM178.31,14.03h-2.18v-2.11h2.18v2.11ZM177.71,12.46h-.97v1.01h.97v-1.01ZM176.89,16.09h1.33v-.88h-1.33v.88ZM176.89,17.56h1.33v-.89h-1.33v.89ZM181.04,14.03h-2.22v-2.11h2.22v2.11ZM180.26,15.2h-1.36v.88h1.36v-.88ZM180.26,16.67h-1.36v.89h1.36v-.89ZM180.43,12.46h-1.01v1.01h1.01v-1.01ZM185.17,15.87c-.35,1.03-.87,2.05-1.53,2.94.28.97.62,1.55,1.01,1.57.22.01.38-.57.45-1.63.15.16.47.35.61.43-.21,1.67-.62,2.15-1.04,2.13-.69-.03-1.21-.68-1.59-1.79-.61.69-1.3,1.26-2.04,1.66-.13-.18-.37-.41-.57-.55.89-.43,1.7-1.11,2.38-1.93-.23-.92-.39-2.06-.52-3.36l-1.14.15-.1-.72,1.18-.15c-.07-.92-.13-1.92-.16-2.97h.74c.02,1,.07,1.98.15,2.88l2.48-.31.1.71-2.51.32c.1.99.21,1.88.37,2.64.48-.73.86-1.54,1.13-2.37l.62.35ZM184.71,13.9c-.21-.5-.73-1.25-1.22-1.8l.58-.33c.5.53,1.04,1.25,1.28,1.75l-.64.37Z"/>
    <path class="cls-5" d="M190.04,14.77h2.03v.72h-2.03v.78c.48.37,1.69,1.41,2,1.69l-.46.65c-.32-.35-1-1.03-1.54-1.53v4.19h-.77v-4.58c-.55,1.21-1.3,2.41-2.02,3.13-.1-.21-.3-.54-.44-.73.85-.81,1.77-2.27,2.3-3.59h-2.06v-.72h2.22v-1.8c-.69.13-1.39.23-2.05.33-.03-.19-.15-.46-.24-.63,1.55-.23,3.4-.59,4.39-1.03l.58.61c-.53.21-1.2.4-1.91.56v1.96ZM193.55,18.66h-.77v-5.81h.77v5.81ZM196.16,11.79v8.44c0,.54-.15.79-.48.92-.35.12-.95.14-1.91.14-.04-.21-.16-.57-.29-.8.74.02,1.41.02,1.62.01.19,0,.28-.06.28-.27v-8.45h.79Z"/>
    <path class="cls-5" d="M200.64,11.85c-.21.75-.49,1.52-.8,2.24v7.19h-.68v-5.79c-.27.47-.53.89-.81,1.26-.06-.18-.28-.61-.41-.8.84-1.07,1.56-2.69,2.02-4.3l.68.19ZM203.46,14.14h-2.92v-.64h2.92v.64ZM200.74,17.83h2.62v3.18h-.66v-.46h-1.33v.63h-.64v-3.35ZM203.26,15.55h-2.39v-.64h2.39v.64ZM200.87,16.33h2.39v.64h-2.39v-.64ZM202.02,13.28c-.13-.34-.44-.85-.73-1.21l.49-.31c.3.36.64.84.75,1.16l-.51.36ZM201.38,18.47v1.46h1.33v-1.46h-1.33ZM205.99,15.56c-.27.37-.55.73-.85,1.06h2.34v4.58h-.71v-.38h-1.67v.47h-.69v-3.94c-.26.22-.52.43-.8.63-.1-.15-.34-.44-.49-.57.76-.49,1.42-1.12,2.01-1.84h-1.64v-.67h1.26v-1.39h-1.06v-.66h1.06v-1.19h.68v1.19h.97v.66h-.97v1.39h.2c.58-.87,1.05-1.86,1.41-2.93l.67.15c-.34,1.01-.78,1.96-1.29,2.78h1.4v.67h-1.85ZM206.77,17.29h-1.67v1.08h1.67v-1.08ZM206.77,20.15v-1.13h-1.67v1.13h1.67Z"/>
    <path class="cls-5" d="M218.36,15.61c-.26,1.29-.66,2.42-1.18,3.39.29,1.07.63,1.6.93,1.6.19-.01.3-.29.35-1.32.15.13.37.29.55.34-.12,1.41-.36,1.68-.96,1.68-.54,0-1-.53-1.34-1.54-.43.58-.89,1.12-1.42,1.55-.13-.14-.43-.37-.59-.49.31-.23.59-.49.86-.76h-3.1v-4.57h3.15v.54h-1.11v.73h1.11v1.99h-1.11v.75h1.19v.41c.29-.32.54-.68.76-1.07-.22-1.04-.39-2.39-.49-4.03h-4.05v2.23c0,1.31-.11,3.07-.76,4.26-.13-.11-.44-.29-.6-.35.44-.8.6-1.82.65-2.76h-.74v.49c0,.74-.12,1.85-.78,2.6-.11-.11-.34-.27-.48-.34.56-.68.66-1.64.66-2.28v-.47h-.58v-.67h1.96v-.87h-1.49v-2.47h.62v1.82h.87v-1.87h4.7v-.44h-.28v-.7h-1.34v-.68h1.34v-.74h.78v.74h2.37v.68h-2.37v.45h.19c0,.24.01.47.01.69h1.21c-.23-.22-.56-.49-.88-.67l.48-.36c.37.2.83.54,1.04.81l-.29.22h.69v.68h-2.23c.05,1.21.16,2.21.3,3.04.3-.72.53-1.51.69-2.37l.71.12ZM211.73,13.01h-2.24v-.68h2.24v-.74h.78v.74h1.3v.68h-1.3v.75h-.78v-.75ZM213.06,16.03v.73h.87v-.73h-.87ZM215.02,17.3h-1.97v.94h1.97v-.94ZM213.06,19.51h.87v-.75h-.87v.75Z"/>
    <path class="cls-5" d="M222,13.21v2.61c0,1.63-.14,3.94-1.03,5.49-.14-.15-.47-.38-.63-.46.83-1.46.9-3.53.9-5.04v-3.3h4.15c-.13-.26-.28-.5-.44-.72l.73-.21c.22.28.44.64.58.94h3.72v.69h-8ZM230.08,20.02h-3.68v1.21h-.75v-1.21h-3.51v-.66h3.51v-.74h-2.67v-3.2h2.67v-.69h-3.06v-.63h3.06v-.67h.75v.67h3.35v.63h-3.35v.69h2.79v3.2h-2.79v.74h3.68v.66ZM223.68,16.75h1.97v-.8h-1.97v.8ZM225.65,18.08v-.82h-1.97v.82h1.97ZM226.4,15.95v.8h2.06v-.8h-2.06ZM228.46,17.27h-2.06v.82h2.06v-.82Z"/>
    <path class="cls-5" d="M240.67,13.47v4.97h-.81v-.61h-3.05v3.44h-.82v-3.44h-3.04v.66h-.78v-5.03h3.81v-1.89h.82v1.89h3.86ZM236,17.06v-2.82h-3.04v2.82h3.04ZM239.87,17.06v-2.82h-3.05v2.82h3.05Z"/>
    <path class="cls-5" d="M252.38,20.84h-4.29v.46h-.74v-5.08c-.22.22-.48.43-.72.62-.08-.16-.3-.46-.46-.63v3.71h-1.87v.86h-.68v-3.47c-.17.32-.35.64-.55.9-.09-.16-.31-.52-.46-.68.77-1.08,1.23-2.71,1.51-4.46h-1.25v-.72h3.49v.72h-1.47c-.14.82-.31,1.63-.53,2.36h1.82v.74c.98-.68,1.76-1.66,2.34-2.82h-1.24v1.14h-.69v-1.82h2.25c.14-.35.27-.72.37-1.09l.74.15c-.1.32-.2.65-.33.95h2.54v1.8h-.71v-1.12h-2.1c-.27.57-.56,1.11-.9,1.59h1.38c-.14-.32-.31-.68-.46-.98l.66-.27c.21.39.47.88.59,1.24h1.46v.67h-1.66v1.07h1.52v.62h-1.52v1.13h1.52v.62h-1.52v1.12h1.97v.68ZM245.47,16.11h-1.18v3.1h1.18v-3.1ZM249.67,15.61h-1.58v1.07h1.58v-1.07ZM249.67,17.3h-1.58v1.13h1.58v-1.13ZM248.09,20.16h1.58v-1.12h-1.58v1.12Z"/>
    <path class="cls-5" d="M257.63,14h-3.74v-.66h3.74v.66ZM257.38,15.41h-3.21v-.63h3.21v.63ZM254.17,16.19h3.21v.64h-3.21v-.64ZM257.32,20.69h-2.49v.49h-.67v-3.56h3.16v3.07ZM254.84,18.27v1.77h1.81v-1.77h-1.81ZM255.63,13.28c-.12-.38-.4-.99-.66-1.45l.67-.23c.28.44.55,1.02.7,1.4l-.71.28ZM257.34,20.01c.36-.57.62-1.51.74-2.23l.56.17c-.14.76-.37,1.73-.73,2.32l-.57-.26ZM260.94,12.69c-.19,1.91-.72,3.51-2.68,4.38-.08-.18-.3-.44-.46-.56.95-.39,1.52-.97,1.87-1.68-.39-.4-1.04-.97-1.54-1.38l.41-.45c.45.35,1,.81,1.4,1.16.14-.46.21-.95.27-1.47h-2.19v-.68h5.17s-.01.23-.01.34c-.12,2.69-.23,3.64-.49,3.97-.18.21-.38.29-.67.31-.27.02-.73.02-1.2,0-.02-.21-.1-.5-.22-.7.49.04.94.05,1.11.05s.26-.02.35-.13c.17-.19.28-1.02.36-3.17h-1.49ZM261.29,20.42c.35,0,.41-.18.45-1.41.15.12.44.22.63.27-.07,1.45-.27,1.79-1,1.79h-1.38c-.84,0-1.05-.21-1.05-.95v-2.58h.69v2.58c0,.25.07.31.44.31h1.23ZM260.28,16.77c.45.48.94,1.12,1.17,1.53l-.52.36c-.22-.41-.7-1.09-1.14-1.58l.49-.31ZM262.74,17.35c.38.7.79,1.63.94,2.19l-.61.23c-.15-.57-.52-1.52-.89-2.23l.56-.19Z"/>
    <path class="cls-5" d="M268.23,11.79c-.26.52-.58,1.03-.94,1.52v4.3h-.76v-3.36c-.33.37-.68.71-1.02,1-.11-.15-.36-.47-.52-.62.98-.73,1.93-1.9,2.54-3.08l.7.23ZM265.13,20.52c.43-.63.84-1.59,1.07-2.3l.71.3c-.28.69-.65,1.69-1.04,2.34l-.74-.34ZM271.45,20.36c.58,0,.68-.16.73-1.23.18.14.51.26.73.3-.11,1.34-.36,1.67-1.41,1.67h-2.53c-1.25,0-1.58-.22-1.58-1.08v-1.84h.79v1.83c0,.31.13.36.83.36h2.44ZM269.57,13.27c-.33.55-.71,1.04-1.11,1.42-.13-.14-.43-.38-.59-.5.72-.63,1.34-1.59,1.69-2.59l.73.18c-.11.27-.22.53-.35.8h3.97l.13-.03.54.15c-.28.61-.59,1.33-.86,1.75l-.67-.14c.15-.28.34-.66.51-1.04h-4ZM270.27,14.71c-.35.84-.9,1.68-1.46,2.22-.14-.13-.43-.35-.59-.45.55-.5,1.04-1.24,1.33-1.98l.72.2ZM270.49,19.57c-.27-.51-.92-1.31-1.5-1.87l.61-.34c.58.54,1.25,1.3,1.55,1.82l-.66.39ZM271.88,17.57h-.75v-3.91h.75v3.91ZM273.11,14.48c.54.64,1.09,1.52,1.34,2.09l-.68.36c-.23-.6-.78-1.5-1.3-2.16l.64-.3ZM273.42,18.04c.5.75,1,1.73,1.18,2.38l-.75.31c-.15-.65-.64-1.67-1.12-2.42l.69-.27Z"/>
    <path class="cls-5" d="M279.17,11.72c-.18.52-.37,1.11-.55,1.56h1.76v6.9h-2.95v.84h-.72v-7.74h1.19c.16-.51.35-1.22.43-1.72l.85.16ZM279.66,13.99h-2.23v2.22h2.23v-2.22ZM279.66,19.47v-2.55h-2.23v2.55h2.23ZM285.58,13.65c-.17,4.85-.31,6.48-.73,7-.23.3-.48.39-.84.43-.37.04-.98.02-1.57-.01-.02-.23-.12-.55-.27-.78.69.06,1.33.06,1.57.06.21,0,.33-.02.44-.16.35-.37.51-1.99.65-6.22h-2.7c-.3.71-.63,1.36-1,1.86-.14-.13-.48-.34-.65-.45.71-.94,1.29-2.4,1.63-3.86l.75.18c-.13.52-.28,1.03-.46,1.53h3.18v.4ZM283.23,18.45c-.32-.64-1.03-1.69-1.62-2.45l.62-.36c.59.75,1.33,1.77,1.67,2.4l-.67.41Z"/>
    <path class="cls-5" d="M296.86,12.73v.68h-9.27v-.68h4.39c-.11-.32-.24-.7-.37-1l.73-.19c.15.37.34.84.46,1.19h4.06ZM296.28,20.41c0,.41-.11.59-.41.71-.32.1-.85.11-1.75.11-.04-.19-.14-.44-.24-.61.66.02,1.28.01,1.44,0,.17-.01.23-.05.23-.22v-4.8h-2.15v.69c0,.23.03.32.2.32h.96c.16,0,.44-.01.58-.04.01.18.03.39.05.56-.13.05-.38.05-.62.05h-1.12c-.65,0-.78-.28-.78-.9v-.68h-1.2c-.16,1.11-.66,1.69-2.13,2.02-.06-.17-.23-.43-.38-.55,1.24-.22,1.66-.65,1.81-1.47h-1.83v5.67h-.75v-6.33h4.91c.28-.43.61-1.02.78-1.45l.8.18c-.26.43-.54.89-.82,1.26h2.41v5.47ZM290.52,13.44c.23.37.53.87.67,1.18l-.68.28c-.15-.31-.44-.84-.66-1.23l.67-.22ZM290.94,19.93v.49h-.69v-2.9h3.88v2.41h-3.19ZM290.94,18.12v1.23h2.53v-1.23h-2.53Z"/>
    <path class="cls-5" d="M298.97,16.67h3.75v4.53h-.78v-.48h-2.22v.57h-.75v-4.62ZM299.73,17.44v2.52h2.22v-2.52h-2.22ZM306.3,15.56h-5.78v-3.52h5.78v3.52ZM305.5,12.79h-4.22v2.01h4.22v-2.01ZM307.84,16.67v4.55h-.78v-.5h-2.41v.57h-.76v-4.62h3.95ZM307.06,19.96v-2.52h-2.41v2.52h2.41Z"/>
  </g>
  <path id="_票卷撕開外框線" data-name="票卷撕開外框線" class="cls-10" d="M28.22,159.61v52.56c0,1.14.13,2.25.36,3.32,1.65,7.46,8.71,13.07,17.17,13.07h326.91c9.68,0,17.53-7.34,17.53-16.39V19.48c0-9.05-7.85-16.39-17.53-16.39H45.83c-9.71,0-17.58,7.39-17.53,16.47v1.69s.32,60.85.32,60.85l-.41,77.51Z"/>
</svg>