<?xml version="1.0" encoding="UTF-8"?>
<svg id="Layer_1" data-name="Layer 1" xmlns="http://www.w3.org/2000/svg" xmlns:xlink="http://www.w3.org/1999/xlink" viewBox="0 0 219 142.88">
  <defs>
    <style>
      .cls-1 {
        fill: #cde2ed;
      }

      .cls-1, .cls-2, .cls-3, .cls-4, .cls-5, .cls-6, .cls-7, .cls-8, .cls-9 {
        stroke-width: 0px;
      }

      .cls-2 {
        fill: #1a1a1a;
      }

      .cls-3 {
        fill: #e5a856;
      }

      .cls-4 {
        fill: none;
      }

      .cls-5 {
        fill: #f2f1ec;
      }

      .cls-10 {
        clip-path: url(#clippath);
      }

      .cls-6 {
        fill: #8dd3f7;
      }

      .cls-7 {
        fill: #fff;
      }

      .cls-8 {
        fill: #365b6d;
      }

      .cls-9 {
        fill: #f38f91;
      }
    </style>
    <clipPath id="clippath">
      <path class="cls-4" d="M213.94,6.38v129l-17.5-.41-14.05-8.97-.2-.13-14.26,9.1v.41H8.09v-47.96h.32c3.18,0,5.76-6.48,5.76-14.47s-2.58-14.47-5.76-14.47h-.32V6.38h159.84v.41l14.26,9.1.2-.13,14.05-8.97,17.5-.41Z"/>
    </clipPath>
  </defs>
  <g id="_底" data-name="底">
    <g id="_票卷底層" data-name="票卷底層">
      <g>
        <polygon class="cls-1" points="213.94 6.38 213.94 135.38 196.44 134.97 182.39 126 182.44 125.87 182.44 15.89 182.39 15.76 196.44 6.8 213.94 6.38"/>
        <g>
          <path class="cls-5" d="M182.44,86.18l-.09-.09v-31.84l.09-.09h2.56l.06.02,4.76,3.82.03.05c.01.06,1.27,5.98,1.27,12.53s-1.26,11.66-1.27,11.71l-.03.05-4.76,3.82-.06.02h-2.56Z"/>
          <path class="cls-8" d="M185,54.25l4.76,3.82s1.27,5.9,1.27,12.51-1.27,11.68-1.27,11.68l-4.76,3.82h-2.56v-31.84h2.56M185,54.07h-2.56l-.18.18v31.84l.18.18h2.56l.11-.04,4.76-3.82.06-.1c.01-.05,1.27-5.17,1.27-11.73s-1.26-12.49-1.27-12.55l-.06-.1-4.76-3.82-.11-.04h0Z"/>
        </g>
        <path class="cls-1" d="M182.4,31.63v-.69c.02-3.73-3.21-6.76-7.2-6.76H31.73c-4.23,0-7.67,3.02-7.67,6.73v79.15c0,3.72,3.44,6.73,7.67,6.73h143.5c3.47,0,6.37-2.31,7.05-5.37h.15s0,14.47,0,14.47l-.05.13-.2-.13-14.26,9.1v.41H8.09v-47.96h.32c3.18,0,5.76-6.48,5.76-14.47s-2.58-14.47-5.76-14.47h-.32V6.38h159.84v.41l14.26,9.1.2-.13.05.13v15.73h-.04Z"/>
        <g>
          <path class="cls-5" d="M182.44,88.46v21.59c0,.47-.05.92-.16,1.36-.72,3.06-3.81,5.37-7.51,5.37H31.73c-4.23,0-7.67-3.02-7.67-6.73V30.9c0-3.72,3.44-6.73,7.67-6.73h143c4.25,0,7.69,3.04,7.67,6.76v.69l-.14,25,.18,31.83Z"/>
          <path class="cls-8" d="M174.77,116.87H31.73c-4.28,0-7.76-3.06-7.76-6.82V30.9c0-3.76,3.48-6.82,7.76-6.82h143c2.24,0,4.37.85,5.85,2.34,1.24,1.25,1.92,2.86,1.91,4.52v.69l-.14,25,.18,31.83v21.59c0,.46-.05.93-.16,1.38-.74,3.15-3.94,5.44-7.6,5.44ZM31.73,24.26c-4.18,0-7.58,2.98-7.58,6.64v79.15c0,3.66,3.4,6.64,7.58,6.64h143.03c3.58,0,6.7-2.23,7.43-5.3.1-.44.15-.89.15-1.34v-21.59l-.18-31.83.14-25v-.69c.01-1.61-.65-3.17-1.86-4.39-1.44-1.45-3.53-2.28-5.72-2.28H31.73Z"/>
        </g>
      </g>
    </g>
  </g>
  <g id="_形狀遮色片" data-name="形狀遮色片">
    <g class="cls-10">
      <path class="cls-8" d="M119.17,21.78c-5.82,16.55-19.81,15.77-42.01,11.27-18.81-3.81-30.01,7.46-29.28,20.91.78,14.4-23.05,26.27-44.01,27.28s-1.45-51.1-1.45-51.1L-6.12,11.6s40.88,19.12,57.28-3.46c36.73-50.55,77-11.93,68.01,13.64Z"/>
      <path class="cls-8" d="M100.41,150.11c1.12-4.4,13.26-19.37,33.92-21.44,18.74-1.88,30.44,8.34,39.54-14.28,14.39-35.78,31.62-11.13,34.95-50.16,2.4-28.1,44.7,38.82,49.47,70.63.47,3.16-9.77,7.74-42.01,4.23-32.25-3.51-13.04,11.23-39.92,16.19-7.49,1.38-15.27-4.47-25.84-10.61-10.57-6.14-12.18,3.37-22.69-3.42-10.5-6.78-28.1,11.55-27.42,8.86Z"/>
    </g>
  </g>
  <g>
    <path class="cls-5" d="M182.67,86.11l-.09-.09v-31.84l.09-.09h2.56l.06.02,4.76,3.82.03.05c.01.06,1.27,5.98,1.27,12.53s-1.26,11.66-1.27,11.71l-.03.05-4.76,3.82-.06.02h-2.56Z"/>
    <path class="cls-8" d="M185.24,54.18l4.76,3.82s1.27,5.9,1.27,12.51-1.27,11.68-1.27,11.68l-4.76,3.82h-2.56v-31.84h2.56M185.24,54h-2.56l-.18.18v31.84l.18.18h2.56l.11-.04,4.76-3.82.06-.1c.01-.05,1.27-5.17,1.27-11.73s-1.26-12.49-1.27-12.55l-.06-.1-4.76-3.82-.11-.04h0Z"/>
  </g>
  <g>
    <path class="cls-5" d="M182.67,88.39v21.59c0,.47-.05.92-.16,1.36-.72,3.06-3.81,5.37-7.51,5.37H31.97c-4.23,0-7.67-3.02-7.67-6.73V30.83c0-3.72,3.44-6.73,7.67-6.73h143c4.25,0,7.69,3.04,7.67,6.76v.69l-.14,25,.18,31.83Z"/>
    <path class="cls-8" d="M175,116.8H31.97c-4.28,0-7.76-3.06-7.76-6.82V30.83c0-3.76,3.48-6.82,7.76-6.82h143c2.24,0,4.37.85,5.85,2.34,1.24,1.25,1.92,2.86,1.91,4.52v.69l-.14,25,.18,31.83v21.59c0,.46-.05.93-.16,1.38-.74,3.15-3.94,5.44-7.6,5.44ZM31.97,24.19c-4.18,0-7.58,2.98-7.58,6.64v79.15c0,3.66,3.4,6.64,7.58,6.64h143.03c3.58,0,6.7-2.23,7.43-5.3.1-.44.15-.89.15-1.34v-21.59l-.18-31.83.14-25v-.69c.01-1.61-.65-3.17-1.86-4.39-1.44-1.45-3.53-2.28-5.72-2.28H31.97Z"/>
  </g>
  <g>
    <g id="_撕開鋸齒狀" data-name="撕開鋸齒狀">
      <g>
        <polygon class="cls-8" points="50.02 25.75 51.64 24.2 48.4 24.2 50.02 25.75"/>
        <polygon class="cls-8" points="33.65 25.88 35.27 24.33 32.03 24.33 33.65 25.88"/>
        <polygon class="cls-8" points="67.84 25.75 69.46 24.2 66.22 24.2 67.84 25.75"/>
        <polygon class="cls-8" points="85.66 25.75 87.28 24.2 84.04 24.2 85.66 25.75"/>
        <polygon class="cls-8" points="103.48 25.75 105.1 24.2 101.86 24.2 103.48 25.75"/>
        <polygon class="cls-8" points="121.3 25.75 122.92 24.2 119.69 24.2 121.3 25.75"/>
        <polygon class="cls-8" points="139.13 25.75 140.74 24.2 137.51 24.2 139.13 25.75"/>
        <polygon class="cls-8" points="156.95 25.75 158.57 24.2 155.33 24.2 156.95 25.75"/>
        <polygon class="cls-8" points="174.77 25.75 176.39 24.2 173.15 24.2 174.77 25.75"/>
      </g>
      <g>
        <polygon class="cls-8" points="174.77 115.22 173.15 116.76 176.39 116.76 174.77 115.22"/>
        <polygon class="cls-8" points="156.95 115.22 155.33 116.76 158.57 116.76 156.95 115.22"/>
        <polygon class="cls-8" points="139.13 115.22 137.51 116.76 140.74 116.76 139.13 115.22"/>
        <polygon class="cls-8" points="121.3 115.22 119.69 116.76 122.92 116.76 121.3 115.22"/>
        <polygon class="cls-8" points="103.48 115.22 101.86 116.76 105.1 116.76 103.48 115.22"/>
        <polygon class="cls-8" points="85.66 115.22 84.04 116.76 87.28 116.76 85.66 115.22"/>
        <polygon class="cls-8" points="67.84 115.22 66.22 116.76 69.46 116.76 67.84 115.22"/>
        <polygon class="cls-8" points="50.02 115.22 48.4 116.76 51.64 116.76 50.02 115.22"/>
        <polygon class="cls-8" points="33.65 114.98 32.03 116.53 35.27 116.53 33.65 114.98"/>
      </g>
    </g>
    <g id="_票卷編碼" data-name="票卷編碼">
      <rect class="cls-8" x="36.66" y="81.67" width="130.34" height="25.1" rx="12.55" ry="12.55"/>
      <rect class="cls-5" x="51.73" y="86.21" width="100.2" height="16" rx="8" ry="8"/>
      <g>
        <path class="cls-8" d="M64.91,98.63h-1.01l-.9-2.34h-3.54l-.84,2.34h-1.01l3.18-8.25h.92l3.19,8.25ZM62.7,95.46l-1.32-3.56c-.04-.1-.08-.28-.12-.54h-.03c-.04.24-.08.42-.13.54l-1.31,3.56h2.91Z"/>
        <path class="cls-8" d="M66.14,98.63v-8.25h2.31c.69,0,1.24.17,1.66.52s.63.8.63,1.37c0,.46-.12.87-.37,1.21s-.6.6-1.05.75v.02c.55.05.99.26,1.33.62s.5.82.5,1.4c0,.7-.25,1.27-.75,1.71s-1.14.66-1.9.66h-2.35ZM67.05,91.22v2.71h1c.55,0,.97-.13,1.28-.39s.46-.63.46-1.09c0-.82-.53-1.23-1.6-1.23h-1.14ZM67.05,94.77v3.02h1.34c.57,0,1.01-.14,1.33-.41s.48-.65.48-1.13c0-.99-.68-1.49-2.04-1.49h-1.12Z"/>
        <path class="cls-8" d="M78.44,98.28c-.61.33-1.37.49-2.27.49-1.16,0-2.09-.38-2.8-1.15s-1.06-1.75-1.06-2.96c0-1.27.39-2.33,1.17-3.16s1.79-1.26,3.03-1.26c.78,0,1.43.11,1.94.34v.98c-.59-.33-1.25-.49-1.96-.49-.98,0-1.76.33-2.35.99s-.88,1.51-.88,2.55c0,.98.27,1.79.82,2.41s1.28.93,2.2.93c.83,0,1.55-.18,2.16-.55v.88Z"/>
        <path class="cls-8" d="M80.13,98.63v-8.25h2.24c2.9,0,4.35,1.34,4.35,4.02,0,1.29-.39,2.31-1.17,3.08s-1.87,1.15-3.27,1.15h-2.15ZM81.04,91.21v6.59h1.26c1.1,0,1.95-.29,2.56-.88s.92-1.42.92-2.49c0-2.15-1.14-3.22-3.43-3.22h-1.31Z"/>
        <path class="cls-8" d="M91.25,95.7h-3.14v-.71h3.14v.71Z"/>
        <path class="cls-8" d="M97.64,98.63h-4.64v-.79h1.88v-6.49l-1.92.58v-.86l2.81-.88v7.65h1.87v.79Z"/>
        <path class="cls-8" d="M103.8,98.63h-4.94v-.8l2.4-2.42c.8-.8,1.28-1.38,1.47-1.74s.27-.74.27-1.15c0-.49-.14-.86-.41-1.12s-.67-.39-1.19-.39c-.74,0-1.44.32-2.12.95v-.95c.64-.51,1.38-.76,2.24-.76.71,0,1.28.2,1.71.59s.64.93.64,1.6c0,.52-.14,1.03-.42,1.53s-.82,1.15-1.6,1.93l-1.92,1.9v.02h3.87v.81Z"/>
        <path class="cls-8" d="M105.38,97.34c.56.45,1.2.67,1.91.67.57,0,1.03-.14,1.39-.43s.54-.68.54-1.19c0-1.1-.78-1.65-2.33-1.65h-.68v-.76h.65c1.38,0,2.07-.52,2.07-1.55,0-.96-.53-1.43-1.58-1.43-.58,0-1.13.2-1.64.6v-.89c.53-.32,1.15-.47,1.86-.47.65,0,1.19.18,1.62.54s.64.83.64,1.43c0,1.08-.55,1.78-1.66,2.1v.02c.59.05,1.06.26,1.41.62s.54.81.54,1.35c0,.75-.27,1.35-.81,1.8s-1.23.67-2.08.67c-.77,0-1.39-.15-1.85-.44v-.99Z"/>
        <path class="cls-8" d="M116.88,96.42h-1.07v2.22h-.88v-2.22h-3.9v-.59l3.69-5.45h1.1v5.3h1.07v.74ZM114.93,95.68v-3.63c0-.25,0-.54.02-.86h-.02c-.03.08-.13.29-.31.63l-2.59,3.86h2.91Z"/>
        <path class="cls-8" d="M118.23,97.47c.56.37,1.13.55,1.72.55s1.06-.17,1.42-.5.55-.78.55-1.33-.18-.99-.55-1.29-.89-.46-1.58-.46c-.22,0-.65.02-1.29.06v-4.11h3.95v.81h-3.11v2.47c.31-.02.54-.03.7-.03.87,0,1.55.22,2.04.65s.74,1.05.74,1.84-.27,1.47-.8,1.94-1.23.71-2.1.71c-.76,0-1.32-.11-1.69-.34v-.96Z"/>
        <path class="cls-8" d="M128.96,91.33c-.43-.22-.88-.32-1.35-.32-.76,0-1.35.33-1.79.99s-.65,1.55-.65,2.67h.03c.38-.79,1.01-1.18,1.89-1.18.72,0,1.3.23,1.73.7s.64,1.09.64,1.85-.24,1.44-.72,1.96-1.1.78-1.85.78c-.86,0-1.51-.34-1.96-1.01s-.67-1.59-.67-2.75c0-1.4.29-2.54.88-3.43s1.41-1.34,2.47-1.34c.58,0,1.03.08,1.36.24v.85ZM125.23,95.93c0,.58.16,1.08.47,1.48s.72.6,1.22.6.88-.18,1.18-.53.45-.8.45-1.34c0-.6-.15-1.07-.44-1.4s-.69-.5-1.2-.5c-.47,0-.86.16-1.19.49s-.49.73-.49,1.2Z"/>
        <path class="cls-8" d="M135.71,90.64l-3.29,7.99h-.92l3.1-7.44h-4.18v-.81h5.29v.26Z"/>
        <path class="cls-8" d="M138.63,94.29c-.99-.47-1.49-1.14-1.49-2.01,0-.6.23-1.09.69-1.47s1.03-.56,1.72-.56c.61,0,1.13.17,1.55.52s.63.81.63,1.38c0,.92-.51,1.63-1.53,2.14v.02c1.2.45,1.81,1.2,1.81,2.24,0,.7-.25,1.25-.75,1.64s-1.17.59-2.01.59c-.69,0-1.26-.2-1.72-.59s-.69-.91-.69-1.55c0-1.06.6-1.83,1.8-2.32v-.02ZM139.36,94.74c-1.07.43-1.6,1.04-1.6,1.84,0,.44.16.79.48,1.05s.73.38,1.22.38.87-.13,1.18-.38.46-.59.46-1.01c0-.84-.58-1.47-1.74-1.88ZM140.81,92.26c0-.39-.12-.7-.37-.92s-.57-.33-.98-.33c-.38,0-.7.12-.98.35s-.42.53-.42.88c0,.73.45,1.28,1.36,1.66.93-.39,1.39-.94,1.39-1.64Z"/>
      </g>
    </g>
    <g id="_太空貓貓" data-name="太空貓貓">
      <g>
        <path class="cls-2" d="M142.59,45.47c1.68.84,2.81,10.51,2.53,12.73s-19.43,2.08-19.78-.33,1.14-9.24,2.66-11.83c1.87-3.2,3.94,1.26,4.67,2.96.65.26,5.52.3,5.61.26,1.1-.46,1.95-4.97,4.32-3.79ZM142.97,49.33c.47,0-.47-2.63-1.24-2.63-.42,0-1.04.81-1.36,1.52-.25.58-.31,1.1.1,1.1h2.49ZM140.23,57.23c1.14-.23,1.4-3.57-.62-2.96-1.36.4-.64,3.23.62,2.96ZM135.79,57.21c.58.29,0-1.75-.58-1.75s-1.17,2.04-.58,1.75.58-.29,1.17,0ZM130.82,49.04c.41,0,.36-.52.1-1.1-.32-.72-.93-1.52-1.36-1.52-.77,0-1.71,2.63-1.24,2.63h2.49ZM130.59,57.23c1.14-.23,1.4-3.57-.62-2.96-1.36.4-.64,3.23.62,2.96Z"/>
        <path class="cls-9" d="M141.73,46.7c.77,0,1.71,2.63,1.24,2.63h-2.49c-.41,0-.36-.52-.1-1.1.32-.72.93-1.52,1.36-1.52Z"/>
        <path class="cls-7" d="M139.61,54.27c2.02-.6,1.76,2.73.62,2.96-1.26.26-1.98-2.56-.62-2.96Z"/>
        <path class="cls-9" d="M135.79,57.21q-.58-.29-1.17,0c-.58.29,0-1.75.58-1.75s1.17,2.04.58,1.75Z"/>
        <path class="cls-9" d="M130.92,47.93c.25.58.31,1.1-.1,1.1h-2.49c-.47,0,.47-2.63,1.24-2.63.42,0,1.04.81,1.36,1.52Z"/>
        <path class="cls-7" d="M129.97,54.27c2.02-.6,1.76,2.73.62,2.96-1.26.26-1.98-2.56-.62-2.96Z"/>
      </g>
      <g>
        <path class="cls-8" d="M152.96,58.7c2.81.12,4.28,1.7,4.2,4.05-.04,1.26-.13,3.03-1.23,3.74-1.32.85-5.71.57-5.85.57-9.63-.06-19.17-.23-28.74-.26-1.62,0-4.11.2-5.61.01-.98-.12-2.29-.96-2.48-1.98-.05-.27-1.29-3.38.66-5.59,1.07-1.21,1.99-1.26,3.6-1.29-1.17-8.47,3.99-15.22,6.91-17.53,7.4-6.42,16.75-4.09,19.99-2.07,6.12,3.61,11.07,9.08,8.56,20.35ZM152.04,64.83c2.24.07,1.68-4.26.43-4.59-1.66-.54-32.62-.84-32.62-.84-1.4-.1-2.82-.01-3.5,1.75-.88,1.75.53,2.53.88,2.63,2.04.58,7.14.57,8.7.6,8.55.16,17.49.19,26.12.44ZM151.97,58.53c.58-2.34.56-6.22.44-7.24-.39-3.17-3.12-7.82-5.75-9.66-5.5-4.42-10.75-4.13-12.62-3.8-6.31.83-9.06,3.88-9.2,4-7.33,7.94-5.66,14.8-5.78,16.17h0c2.26,0,4.61,0,6.98.01,7.28.05,14.66.2,19.78.33,3.32.08,5.38.16,6.14.18Z"/>
        <path class="cls-5" d="M152.47,60.24c1.26.33,1.81,4.66-.43,4.59-8.64-.25-17.58-.28-26.12-.44-1.56-.03-6.66-.02-8.7-.6-.35-.1-1.75-.88-.88-2.63.68-1.76,2.11-1.85,3.5-1.75,0,0,30.96.29,32.62.84ZM145.68,63.36c1.36.85,1.53-1.92.97-2.28-1.36-.85-1.53,1.92-.97,2.28ZM141.44,63.37c.26-.21.78-2.84-.86-2.3-.98.33-.28,3.22.86,2.3ZM133.91,62.85c1.15.72,1.78-1.42,1.04-1.95-1.39-.98-1.56,1.62-1.04,1.95ZM129.38,62.54c.42-.5.2-2.25-.81-1.99-.98.26-.84,1.83-.01,2.29.18.04.7-.16.82-.3ZM123.8,62.6c1.28-.39.1-2.88-.87-2.06-.37.31-.26,2.41.87,2.06Z"/>
        <path class="cls-3" d="M150.09,67.05c0,1.35.3,4.28-1.05,5.09-.37.22-7.39.26-8.49.25-5.09-.06-12.02,0-16.93-.48-3.29-.33-2.05-2.58-2.27-5.11,9.57.03,19.11.2,28.74.26Z"/>
        <path class="cls-6" d="M146.65,61.09c.56.35.39,3.13-.97,2.28-.56-.35-.39-3.13.97-2.28Z"/>
        <path class="cls-6" d="M140.58,61.07c1.64-.55,1.12,2.09.86,2.3-1.14.92-1.84-1.97-.86-2.3Z"/>
        <path class="cls-6" d="M134.95,60.9c.75.52.11,2.67-1.04,1.95-.52-.33-.35-2.92,1.04-1.95Z"/>
        <path class="cls-6" d="M128.57,60.56c1.01-.27,1.23,1.49.81,1.99-.12.14-.65.34-.82.3-.83-.46-.97-2.03.01-2.29Z"/>
        <path class="cls-6" d="M122.93,60.54c.97-.82,2.15,1.66.87,2.06-1.13.35-1.24-1.75-.87-2.06Z"/>
      </g>
    </g>
    <g id="_恭喜中獎" data-name="恭喜中獎">
      <path class="cls-3" d="M90.1,74.3h-34.73c-3.26,0-5.91-2.65-5.91-5.91v-28.37c0-3.26,2.65-5.91,5.91-5.91h34.73c3.26,0,5.91,2.65,5.91,5.91v12.28c2.31,1,5.33,2.15,7.21,2.23l1.69.06-1.5.79c-.17.09-4.02,2.11-7.41,2.98v10.03c0,3.26-2.65,5.91-5.91,5.91ZM55.37,35.02c-2.76,0-5,2.24-5,5v28.37c0,2.76,2.24,5,5,5h34.73c2.76,0,5-2.24,5-5v-10.75l.35-.08c2.19-.52,4.73-1.62,6.23-2.34-1.98-.42-4.42-1.38-6.31-2.21l-.27-.12v-12.87c0-2.76-2.24-5-5-5h-34.73Z"/>
      <g>
        <path class="cls-9" d="M72.26,49.04l-.55.79c-1.49-.68-2.53-1.6-3.11-2.75h-2.45c-.68,1.22-1.73,2.14-3.14,2.76l-.52-.79c1.21-.51,2.06-1.17,2.55-1.97h-2.33v-.91h2.45v-1.18h-2.09v-.88h2.09v-1.02h.97v1.02h2.47v-1.02h.97v1.02h2.03v.88h-2.03v1.18h2.45v.91h-2.36c.58.8,1.45,1.45,2.61,1.96ZM65.85,49.39c-.75,1.17-1.49,2.09-2.24,2.75l-.7-.63c.76-.68,1.46-1.52,2.09-2.53l.84.4ZM67.35,51.51c0,.35-.07.61-.2.77-.13.16-.29.25-.48.27-.19.02-.63.03-1.34.03l-.29-.94c.2.01.57.02,1.1.02.17,0,.26-.08.26-.25v-3.7h.95v3.8ZM68.59,46.18v-1.18h-2.47v1.18h2.47ZM69.71,52.06l-.91.28c-.18-.88-.55-1.9-1.09-3.04l.8-.34c.57,1.09.97,2.12,1.19,3.1ZM71.66,51.75l-.91.39c-.37-.87-.89-1.76-1.58-2.68l.85-.37c.69.88,1.23,1.77,1.64,2.66Z"/>
        <path class="cls-9" d="M82.98,49.6h-9.5v-.77h2.61c-.09-.21-.21-.44-.35-.71h-1.01v-2.02h7.03v2.02h-1l-.35.71h2.57v.77ZM82.73,44.37h-4v.52h3.52v.71h-8.02v-.71h3.53v-.52h-4.04v-.72h4.04v-.55h.98v.55h4v.72ZM82.03,52.61h-1v-.46h-5.6v.46h-1v-2.53h7.6v2.53ZM81.04,51.41v-.58h-5.6v.58h5.6ZM80.77,47.42v-.6h-5.07v.6h5.07ZM79.65,48.12h-2.8c.12.27.21.51.27.71h2.17l.36-.71Z"/>
        <path class="cls-9" d="M71.58,62.55h-3.75v3.15h-1v-3.15h-3.73v-4.61h3.73v-1.75h1v1.75h3.75v4.61ZM66.83,61.59v-2.69h-2.72v2.69h2.72ZM70.57,61.59v-2.69h-2.74v2.69h2.74Z"/>
        <path class="cls-9" d="M83.15,64.86l-.38.92c-2.08-.22-3.57-.99-4.45-2.31-.88,1.27-2.35,2.04-4.41,2.31l-.48-.93c1.6-.14,2.84-.62,3.72-1.43h-3.47v-.86h4.06c.09-.37.14-.66.17-.9l.97.06c-.01.27-.07.55-.17.83h4.19v.86h-3.43c.85.81,2.07,1.29,3.68,1.44ZM76.81,61.81h-.93v-1.84h-.75c-.17.96-.46,1.58-.86,1.88l-.72-.51c.32-.36.53-.81.65-1.36h-.59v-.85h2.26v-.77h-1.82v-1.88h.91v1.04h.92v-1.31h.93v5.6ZM82.54,56.76l-.06.74c-1.07.92-2.74,1.54-5.02,1.87l-.43-.72c.96-.08,1.84-.25,2.65-.51-.38-.26-.79-.5-1.22-.71-.48.18-.86.31-1.17.38l-.42-.74c.94-.2,1.75-.52,2.4-.97l1.05.2c-.06.09-.15.17-.27.24l2.48.22ZM83.02,60.24h-.92v.69c0,.29-.1.5-.29.64s-.51.2-.96.2c-.15,0-.28,0-.41-.02l-.31-.8.83-.02c.12,0,.19-.06.19-.18v-.51h-2.67c.48.26.91.54,1.28.82l-.59.61c-.47-.36-.93-.64-1.4-.86l.58-.57h-1.21v-.77h4.02v-.63h.95v.63h.92v.77ZM78.74,58.19c-.69.11-1.06.17-1.13.18l-.11-.45c.45-.05.84-.12,1.19-.19l.05.46ZM81.33,57.36l-1.9-.18c.43.22.79.43,1.07.63.33-.13.61-.29.83-.46ZM82.95,61.91l-.47.6c-.32-.17-.61-.29-.9-.36l.47-.57c.26.06.56.17.9.33Z"/>
      </g>
    </g>
  </g>
  <g id="_此處撕開" data-name="此處撕開">
    <rect class="cls-5" x="196.3" y="42.24" width="12.89" height="55.79" rx="6.44" ry="6.44"/>
    <g>
      <path class="cls-8" d="M203.01,53.13h-1.31v3.43c.64-.18,1.06-.31,1.27-.39l.02.47c-1.25.41-2.59.77-4.03,1.08l-.1-.44c.2-.04.47-.1.83-.18v-5.7h.44v5.57c.38-.08.76-.18,1.12-.29v-6.45h.45v2.43h1.31v.46ZM206.31,55.38c-.02.63-.07,1.13-.17,1.49s-.22.59-.39.67c-.17.09-.5.13-.98.13-.37,0-.64,0-.79-.02-.16-.02-.28-.09-.38-.23-.1-.14-.15-.3-.15-.49v-6.69h.46v2.43h2.14v.44h-2.14v3.86c0,.11.05.17.14.2.09.03.41.04.97.04.23,0,.39-.02.45-.05.07-.03.12-.08.17-.15.04-.07.09-.28.13-.64.05-.35.07-.73.08-1.12l.46.11Z"/>
      <path class="cls-8" d="M206.14,62.11c-.19.6-.4,1.09-.63,1.46l-.44-.13c.22-.39.36-.69.42-.88h-3.12v.6l2.29-.17.03.42-2.33.16v.35s.02.1.05.14c.03.05.07.07.12.07h2.87v.41h-2.94c-.38,0-.57-.17-.57-.52v-.41l-1.31.09-.05-.41,1.36-.09v-.63h-1.79v1.63c0,1.36-.27,2.61-.82,3.76l-.41-.24c.54-1.04.81-2.2.81-3.47v-2.11h2.39v-1.49h.48v.46h3.24v.41h-3.24v.62h3.58ZM206.44,67.51l-.12.45c-1.74-.03-2.82-.06-3.25-.1-.43-.04-.83-.18-1.21-.4-.5.34-.93.57-1.29.69l-.34-.35c.51-.15.94-.35,1.27-.59-.23-.23-.44-.49-.61-.78-.15.17-.32.33-.52.47l-.3-.29c.6-.45,1.05-1.15,1.33-2.08l.42.13c-.07.22-.14.42-.22.6h1.45v.43c-.17.52-.45,1.01-.85,1.48.32.16.67.26,1.07.3.4.04,1.46.06,3.17.06ZM202.57,65.67h-1.17s-.1.18-.25.4c.22.37.44.64.68.83.32-.33.57-.74.74-1.23ZM206.2,65.94c-.02.44-.05.72-.09.83-.04.11-.11.19-.2.26-.09.07-.3.1-.62.1-.37,0-.55-.18-.55-.53v-1.14h-.69c-.02.72-.27,1.31-.75,1.78l-.34-.26c.5-.46.73-1.1.7-1.95h1.54v1.55c0,.1.08.15.24.15.13,0,.21-.04.26-.12s.08-.34.09-.78l.42.11Z"/>
      <path class="cls-8" d="M201.03,74.76c-.26.14-.52.26-.78.36v2.64c0,.37-.25.55-.75.55-.1,0-.2,0-.28-.01l-.16-.44c.2.01.38.02.52.02s.23-.06.23-.19v-2.37c-.37.15-.65.25-.85.31l-.12-.43c.44-.14.77-.25.97-.34v-2.08h-.94v-.41h.94v-1.52h.44v1.52h.61v.41h-.61v1.89c.25-.11.48-.22.71-.34l.07.44ZM202.11,76.69c-.25.58-.62,1.12-1.1,1.65l-.37-.28c.49-.5.85-1.03,1.08-1.57l.39.21ZM203.71,76.26h-2.84v-.43h.53v-3.37h-.32v-.43h.32v-1.19h.42v1.19h1.05v-1.19h.44v1.19h.4v.43h-.4v3.37h.4v.43ZM202.88,73.25v-.79h-1.05v.79h1.05ZM202.88,74.51v-.83h-1.05v.83h1.05ZM202.88,75.83v-.89h-1.05v.89h1.05ZM203.49,77.43l-.39.26c-.1-.34-.26-.65-.47-.95l.36-.23c.2.27.37.57.51.92ZM206.34,73.85h-.58v4.51h-.42v-4.51h-.8v.7c0,1.56-.23,2.81-.7,3.74l-.36-.29c.43-.86.65-2.02.65-3.48v-3.04c.67-.12,1.31-.32,1.9-.59l.26.38c-.72.29-1.3.48-1.75.57v1.59h1.8v.44Z"/>
      <path class="cls-8" d="M202.2,83.95h-2.53v4.67h-.44v-7.24h2.97v2.57ZM201.75,82.43v-.65h-2.08v.65h2.08ZM201.75,83.54v-.7h-2.08v.7h2.08ZM205.08,86.42h-1.36v2.02h-.44v-2.02h-1.3c-.04.8-.39,1.48-1.06,2.06l-.43-.25c.67-.56,1.02-1.16,1.06-1.81h-1.39v-.43h1.42v-.99h-1.13v-.41h4.31v.41h-1.02v.99h1.36v.43ZM203.28,85.99v-.99h-1.26v.99h1.26ZM205.96,87.98c0,.24-.07.4-.2.49-.14.09-.38.13-.73.13-.15,0-.3,0-.48,0l-.17-.45c.14.02.46.03.94.03.13,0,.19-.06.19-.19v-4.04h-2.51v-2.57h2.95v6.61ZM205.52,82.43v-.65h-2.05v.65h2.05ZM205.52,83.54v-.7h-2.05v.7h2.05Z"/>
    </g>
  </g>
</svg>