<?xml version="1.0" encoding="UTF-8"?>
<svg id="Layer_2" data-name="Layer 2" xmlns="http://www.w3.org/2000/svg" version="1.1" xmlns:xlink="http://www.w3.org/1999/xlink" viewBox="0 0 406.64 231.29">
  <defs>
    <style>
      .cls-1 {
        stroke: #365b6d;
        stroke-miterlimit: 10;
      }

      .cls-1, .cls-2 {
        fill: #f2f1ec;
      }

      .cls-3 {
        clip-path: url(#clippath-2);
      }

      .cls-4 {
        fill: #e5a856;
      }

      .cls-4, .cls-5, .cls-2, .cls-6, .cls-7, .cls-8 {
        stroke-width: 0px;
      }

      .cls-5 {
        fill: none;
      }

      .cls-9 {
        clip-path: url(#clippath-1);
      }

      .cls-6 {
        fill: #fdc164;
      }

      .cls-10 {
        opacity: .15;
      }

      .cls-7 {
        fill: #365b6d;
      }

      .cls-8 {
        fill: #f2f1ec;
      }
    </style>
    <clipPath id="clippath-1">
      <rect class="cls-5" x="209.39" y="102.84" width="32.53" height="32.53"/>
    </clipPath>
    <clipPath id="clippath-2">
      <path class="cls-5" d="M369.9,159.61v52.56c0,1.14-.13,2.25-.36,3.32-1.65,7.46-8.71,13.07-17.17,13.07H25.47c-9.68,0-17.53-7.34-17.53-16.39V19.48c0-9.05,7.85-16.39,17.53-16.39h326.82c9.71,0,17.58,7.39,17.53,16.47v1.69l-.32,60.85.41,77.51Z"/>
    </clipPath>
  </defs>
  <g id="_撕開底層" data-name="撕開底層">
    <g>
      <path class="cls-2" d="M369.91,154.34l-.5-.5v-77.5l.5-.5h6.24l.31.11,11.59,9.3.18.29c.03.14,3.09,14.59,3.09,30.56s-3.07,28.44-3.1,28.57l-.17.27-11.59,9.3-.31.11h-6.24Z"/>
      <path class="cls-7" d="M376.15,76.33l11.59,9.3s3.08,14.35,3.08,30.46-3.08,28.45-3.08,28.45l-11.59,9.3h-6.24v-77.51h6.24M376.15,75.33h-6.24l-1,1v77.51l1,1h6.24l.63-.22,11.59-9.3.34-.54c.03-.12,3.11-12.65,3.11-28.69s-3.07-30.52-3.11-30.67l-.35-.57-11.59-9.3-.63-.22h0Z"/>
    </g>
    <path class="cls-1" d="M369.9,159.61v52.56c0,1.14-.13,2.25-.36,3.32-1.65,7.46-8.71,13.07-17.17,13.07H25.47c-9.68,0-17.53-7.34-17.53-16.39V19.48c0-9.05,7.85-16.39,17.53-16.39h326.82c9.71,0,17.58,7.39,17.53,16.47v1.69l-.32,60.85.41,77.51Z"/>
  </g>
  <g id="logo">
    <path class="cls-7" d="M139.54,102.72v33.2h-8.99v-3.72c-1.99,2.57-5.33,3.6-8.35,3.6-9.12.06-16.57-7.32-16.63-16.44-.06-9.12,7.32-16.57,16.44-16.63,3.15,0,6.55,1.16,8.54,3.66v-3.66h8.99ZM130.23,119.23c0-2.18-.83-4.24-2.44-5.78-1.54-1.54-3.6-2.38-5.72-2.31-2.18,0-4.24.83-5.78,2.38-1.54,1.54-2.38,3.6-2.38,5.78s.9,4.24,2.44,5.78c1.54,1.54,3.6,2.38,5.78,2.38,2.18-.06,4.24-.9,5.72-2.44,1.54-1.54,2.38-3.6,2.38-5.78"/>
    <path class="cls-7" d="M169.85,131.95c-2.95,2.5-6.74,3.98-10.92,3.98-9.12-.06-16.51-7.51-16.44-16.63.06-9.12,7.51-16.51,16.63-16.44,4.11.06,7.9,1.61,10.79,4.11l-5.97,5.91c-1.41-1.03-3.08-1.61-4.88-1.61-2.18,0-4.24.83-5.78,2.31-1.54,1.54-2.38,3.6-2.38,5.78-.06,2.18.77,4.24,2.31,5.78,1.54,1.54,3.6,2.38,5.78,2.44,1.8,0,3.47-.58,4.88-1.61l5.97,5.97Z"/>
    <path class="cls-7" d="M206.52,120.19v15.73h-8.35v-16.31h-.06v-.19c0-2.12-.83-4.17-2.38-5.72-1.54-1.54-3.6-2.38-5.78-2.38s-4.24.9-5.78,2.44c-1.54,1.54-2.38,3.6-2.31,5.78v.06h-.06v16.31h-8.99v-41.75h8.99v12.85c2.7-3.21,5.14-3.79,8.09-4.05,9.06-.77,16.63,5.07,16.63,16.44v.77Z"/>
    <path class="cls-7" d="M264.96,102.27v9.18c-6.94,0-11.17,5.59-11.17,9.83v14.64h-8.99v-33.08h8.99v4.95c1.48-4.11,4.5-5.52,11.17-5.52"/>
    <path class="cls-7" d="M299.96,102.72v33.2h-8.99v-3.72c-1.99,2.57-5.33,3.6-8.35,3.6-9.12.06-16.57-7.32-16.63-16.44-.07-9.12,7.32-16.57,16.44-16.63,3.15,0,6.55,1.16,8.54,3.66v-3.66h8.99ZM290.64,119.23c0-2.18-.84-4.24-2.44-5.78-1.54-1.54-3.6-2.38-5.72-2.31-2.18,0-4.24.83-5.78,2.38-1.54,1.54-2.38,3.6-2.38,5.78s.9,4.24,2.44,5.78c1.54,1.54,3.6,2.38,5.78,2.38,2.18-.06,4.24-.9,5.72-2.44,1.54-1.54,2.38-3.6,2.38-5.78"/>
    <g>
      <g class="cls-10">
        <g class="cls-9">
          <path class="cls-8" d="M241.92,119.1c0,8.98-7.28,16.26-16.26,16.26s-16.26-7.28-16.26-16.26,7.28-16.26,16.26-16.26,16.26,7.28,16.26,16.26"/>
        </g>
      </g>
      <path class="cls-6" d="M243.4,118.93c-.41-9.53-8.2-17-17.75-17-8.89,0-16.42,6.6-17.6,15.38-.01,0,.01,0,0,0,0,.04,0-.04,0,0-.03.22-.09.55-.1.78v.12c-.55,7.93,4.49,15.37,12.14,17.74,11.31,3.5,23.04-5.15,23.29-16.26l.02-.75ZM225.65,104.19c8.08,0,14.73,6.14,15.44,14.1-11.01,6.71-25.96,2.46-30.71-1.24,1.26-7.38,7.71-12.86,15.27-12.86"/>
    </g>
    <path class="cls-7" d="M94.67,111.67h-10.4v8.35h9.63c-.58,1.48-2.44,3.4-2.89,3.85-2.38,2.31-5.52,3.66-8.86,3.66s-6.49-1.35-8.8-3.66c-2.38-2.38-3.72-5.52-3.72-8.86s1.35-6.49,3.72-8.86c2.31-2.38,5.46-3.66,8.8-3.66,2.76,0,5.39.9,7.58,2.5l6.42-6.36c-3.79-3.21-8.67-5.14-14-5.14-11.88,0-21.52,9.63-21.52,21.52s9.63,21.51,21.52,21.51c4.69,0,8.99-1.48,12.52-3.98,0,0,.04-.03.1-.07l8.25,3.3v-24.1h-8.35Z"/>
  </g>
  <path class="cls-4" d="M334.77,17.57c.59,1.43.76,2.6.78,3.7.04,1.7.78,2.61,2.34,3.03.27.07.52.25.78.38-.03.1-.04.22-.08.23-3,.5-2.99,3.09-3.64,5.22-.14.47-.21.97-.32,1.52-.71-.28-.64-.9-.77-1.42-.1-.4-.29-.81-.28-1.21.03-2.08-.87-3.43-2.94-3.94-.39-.1-.8-.25-1.08-.61.68-.48,1.51-.41,2.27-.53.94-.14,1.46-.59,1.67-1.54.33-1.5.77-2.97,1.26-4.83Z"/>
  <path class="cls-2" d="M100.57,173.41c.59,1.43.76,2.6.78,3.7.04,1.7.78,2.61,2.34,3.03.27.07.52.25.78.38-.03.1-.04.22-.08.23-3,.5-2.99,3.09-3.64,5.22-.14.47-.21.97-.32,1.52-.71-.28-.64-.9-.77-1.42-.1-.4-.29-.81-.28-1.21.03-2.08-.87-3.43-2.94-3.94-.39-.1-.8-.25-1.08-.61.68-.48,1.51-.41,2.27-.53.94-.14,1.46-.59,1.67-1.54.33-1.5.77-2.97,1.26-4.83Z"/>
  <path class="cls-4" d="M63.85,42.61c.75,1.83.97,3.33,1,4.74.05,2.17,1,3.34,2.99,3.87.35.09.67.32,1,.48-.04.13-.06.29-.1.29-3.84.64-3.83,3.96-4.66,6.68-.18.6-.27,1.24-.41,1.95-.9-.36-.82-1.15-.98-1.82-.12-.52-.37-1.03-.36-1.55.03-2.66-1.11-4.38-3.76-5.05-.5-.12-1.02-.33-1.38-.78.87-.61,1.93-.53,2.91-.67,1.2-.18,1.86-.75,2.13-1.97.43-1.92.99-3.81,1.62-6.19Z"/>
  <path class="cls-2" d="M261.66,64.44c.57,1.38.73,2.51.76,3.58.03,1.64.75,2.52,2.26,2.92.27.07.5.24.75.36-.03.1-.04.22-.07.22-2.9.48-2.89,2.99-3.52,5.04-.14.46-.2.94-.31,1.47-.68-.27-.62-.87-.74-1.37-.09-.39-.28-.78-.27-1.17.03-2.01-.84-3.31-2.84-3.81-.37-.09-.77-.25-1.04-.59.66-.46,1.46-.4,2.2-.51.91-.14,1.41-.57,1.61-1.49.32-1.45.75-2.87,1.22-4.67Z"/>
  <path class="cls-4" d="M314.25,171.42c1.13,2.75,1.46,5.01,1.51,7.13.07,3.27,1.5,5.02,4.5,5.83.53.14,1,.48,1.5.73-.06.19-.08.43-.15.44-5.77.96-5.77,5.95-7.02,10.05-.28.91-.4,1.87-.62,2.94-1.36-.54-1.24-1.74-1.48-2.74-.19-.78-.55-1.56-.54-2.33.05-4-1.67-6.6-5.65-7.59-.75-.19-1.54-.49-2.07-1.17,1.32-.92,2.9-.79,4.38-1.01,1.81-.27,2.8-1.13,3.21-2.96.64-2.89,1.49-5.73,2.44-9.31Z"/>
  <circle class="cls-4" cx="74.51" cy="157.69" r="1.96"/>
  <circle class="cls-2" cx="249.9" cy="37.51" r="1.96"/>
  <circle class="cls-4" cx="195.99" cy="192.85" r="1.96"/>
  <circle class="cls-2" cx="294.06" cy="164.16" r="1.96"/>
  <g class="cls-3">
    <path class="cls-7" d="M85.23,231.83s138.77-42.71,181.08-23.46c98.29,44.72,80.5-35.7,72.16-65.97-8.2-29.76-8.86-104.07,31.43-106.7,40.29-2.63,3.04,195.12,3.04,195.12l-131.89,10.61-155.83-9.6Z"/>
    <path class="cls-7" d="M216.72-12.56s-42.26,55.21-96.31,44.26c-45.8-9.28-81.66,3.56-82.99,41.19-1.24,35.09-40.62,77.23-91.64,79.69-51.03,2.46,21.19-122.64,21.19-122.64L6.61-36.06s176.46,7.12,210.11,23.5Z"/>
  </g>
</svg>