<?xml version="1.0" encoding="UTF-8"?>
<svg id="Layer_4" data-name="Layer 4" xmlns="http://www.w3.org/2000/svg" version="1.1" viewBox="0 0 531.64 349.29">
  <defs>
    <style>
      .cls-1 {
        fill: #cde2ed;
      }

      .cls-1, .cls-2, .cls-3, .cls-4, .cls-5, .cls-6, .cls-7, .cls-8 {
        stroke-width: 0px;
      }

      .cls-9 {
        stroke: #365b6d;
      }

      .cls-9, .cls-4 {
        fill: #f2f1ec;
      }

      .cls-9, .cls-10 {
        stroke-miterlimit: 10;
      }

      .cls-2 {
        fill: #1a1a1a;
      }

      .cls-3 {
        fill: #e5a856;
      }

      .cls-5 {
        fill: #8dd3f7;
      }

      .cls-10 {
        fill: none;
        stroke: #e5a856;
        stroke-width: 5px;
      }

      .cls-6 {
        fill: #fff;
      }

      .cls-7 {
        fill: #365b6d;
      }

      .cls-8 {
        fill: #f38f91;
      }
    </style>
  </defs>
  <g id="_票卷底層" data-name="票卷底層">
    <g>
      <polygon class="cls-1" points="510.96 18.59 510.96 327.38 469.07 326.39 435.43 304.93 435.55 304.62 435.55 41.36 435.43 41.04 469.07 19.58 510.96 18.59"/>
      <g>
        <path class="cls-4" d="M435.56,209.59l-.22-.22v-76.21l.22-.22h6.14l.14.05,11.39,9.14.08.12c.03.14,3.04,14.32,3.04,29.99s-3.01,27.9-3.04,28.02l-.08.12-11.39,9.14-.14.05h-6.14Z"/>
        <path class="cls-7" d="M441.69,133.17l11.39,9.14s3.03,14.11,3.03,29.95-3.03,27.97-3.03,27.97l-11.39,9.14h-6.14v-76.21h6.14M441.69,132.74h-6.14l-.44.44v76.21l.44.44h6.14l.27-.1,11.39-9.14.15-.23c.03-.12,3.04-12.37,3.04-28.07s-3.01-29.9-3.04-30.04l-.15-.25-11.39-9.14-.27-.1h0Z"/>
      </g>
      <path class="cls-1" d="M435.46,79.01v-1.66c.05-8.93-7.68-16.19-17.23-16.19H96.89c-9.52,0-17.23,7.22-17.23,16.11v189.46c0,8.9,7.72,16.11,17.23,16.11h321.43c8.32,0,15.26-5.52,16.88-12.85l.35-.02v34.64l-.12.31-.48-.31-34.13,21.78v.99H18.19v-114.8h.76c7.61,0,13.78-15.52,13.78-34.64s-6.17-34.64-13.78-34.64h-.76V18.59h382.63v.99l34.13,21.78.48-.31.12.31v37.66h-.09Z"/>
      <path class="cls-9" d="M435.55,215.05v51.68c0,1.12-.12,2.21-.35,3.26-1.62,7.33-8.56,12.85-16.88,12.85H96.89c-9.52,0-17.23-7.22-17.23-16.11V77.27c0-8.9,7.72-16.11,17.23-16.11h321.34c9.55,0,17.29,7.26,17.23,16.19v1.66l-.32,59.83.41,76.21Z"/>
    </g>
    <path class="cls-3" d="M438.25,173.31l9.44,11.11c.57.67,1.67.27,1.67-.61v-22.21c0-.88-1.1-1.28-1.67-.61l-9.44,11.11c-.3.35-.3.87,0,1.23Z"/>
  </g>
  <g id="_此處撕開" data-name="此處撕開">
    <rect class="cls-3" x="462.75" y="84.42" width="41.08" height="177.88" rx="13.36" ry="13.36"/>
    <g>
      <path class="cls-7" d="M484.13,121.92h-4.18v10.94c2.04-.58,3.39-1,4.05-1.26l.05,1.5c-3.98,1.3-8.27,2.45-12.86,3.45l-.31-1.39c.63-.12,1.51-.31,2.63-.57v-18.17h1.42v17.76c1.22-.26,2.41-.56,3.57-.91v-20.55h1.44v7.75h4.18v1.46ZM494.65,129.08c-.05,2-.23,3.59-.53,4.75-.3,1.16-.72,1.88-1.26,2.15-.54.27-1.58.41-3.12.41-1.19,0-2.03-.02-2.53-.07-.5-.05-.9-.29-1.22-.72-.31-.43-.47-.95-.47-1.56v-21.33h1.47v7.75h6.81v1.42h-6.81v12.29c0,.34.14.55.43.64s1.32.13,3.09.13c.75,0,1.23-.05,1.45-.15.22-.1.39-.26.53-.49.13-.23.28-.9.43-2.03.15-1.13.24-2.31.25-3.56l1.46.36Z"/>
      <path class="cls-7" d="M494.1,150.54c-.61,1.92-1.28,3.47-2,4.65l-1.39-.43c.7-1.25,1.14-2.19,1.34-2.82h-9.96v1.91l7.31-.55.11,1.34-7.42.49v1.12c0,.15.05.3.16.45.11.15.24.23.39.23h9.17v1.32h-9.37c-1.22,0-1.83-.56-1.83-1.67v-1.32l-4.18.28-.16-1.31,4.34-.28v-2.02h-5.72v5.2c0,4.32-.87,8.32-2.62,11.99l-1.32-.77c1.72-3.33,2.58-7.02,2.58-11.08v-6.73h7.63v-4.76h1.54v1.47h10.34v1.32h-10.34v1.96h11.41ZM495.06,167.78l-.39,1.43c-5.53-.08-8.98-.19-10.35-.33-1.37-.14-2.65-.57-3.85-1.28-1.6,1.1-2.97,1.83-4.1,2.19l-1.1-1.12c1.64-.48,2.99-1.11,4.05-1.88-.75-.75-1.39-1.57-1.94-2.47-.47.55-1.03,1.05-1.67,1.48l-.96-.94c1.92-1.44,3.34-3.66,4.24-6.64l1.35.4c-.21.69-.45,1.33-.71,1.92h4.62v1.36c-.53,1.66-1.44,3.23-2.71,4.73,1.01.5,2.15.82,3.43.96,1.28.14,4.64.2,10.1.19ZM482.72,161.9h-3.73c-.07.14-.33.57-.79,1.28.69,1.18,1.42,2.05,2.16,2.63,1.03-1.06,1.82-2.36,2.35-3.92ZM494.32,162.75c-.06,1.42-.16,2.3-.29,2.64-.13.34-.35.62-.64.83-.29.21-.95.31-1.97.31-1.17,0-1.75-.56-1.75-1.68v-3.63h-2.19c-.05,2.28-.86,4.17-2.41,5.67l-1.1-.83c1.6-1.45,2.34-3.52,2.22-6.21h4.9v4.96c0,.31.25.47.76.47.4,0,.68-.13.83-.38s.25-1.08.29-2.49l1.34.36Z"/>
      <path class="cls-7" d="M477.81,190.88c-.84.44-1.67.82-2.49,1.15v8.41c0,1.18-.8,1.76-2.41,1.76-.33,0-.62-.01-.88-.04l-.49-1.39c.64.04,1.2.05,1.67.05s.72-.2.72-.6v-7.56c-1.18.47-2.08.8-2.71.99l-.39-1.36c1.42-.45,2.45-.81,3.1-1.1v-6.63h-2.99v-1.31h2.99v-4.85h1.39v4.85h1.94v1.31h-1.94v6.03c.78-.34,1.54-.7,2.27-1.1l.21,1.39ZM481.26,197.04c-.81,1.84-1.98,3.59-3.5,5.25l-1.18-.9c1.58-1.6,2.73-3.27,3.45-5.01l1.23.65ZM486.38,195.67h-9.06v-1.38h1.7v-10.76h-1.03v-1.36h1.03v-3.78h1.35v3.78h3.34v-3.78h1.39v3.78h1.28v1.36h-1.28v10.76h1.28v1.38ZM483.71,186.07v-2.53h-3.34v2.53h3.34ZM483.71,190.09v-2.66h-3.34v2.66h3.34ZM483.71,194.3v-2.85h-3.34v2.85h3.34ZM485.67,199.41l-1.26.83c-.32-1.07-.82-2.08-1.51-3.02l1.15-.74c.64.85,1.18,1.82,1.62,2.93ZM494.76,187.98h-1.86v14.36h-1.35v-14.36h-2.54v2.22c0,4.99-.74,8.97-2.22,11.93l-1.15-.94c1.37-2.75,2.06-6.45,2.06-11.1v-9.69c2.15-.39,4.17-1.02,6.07-1.88l.83,1.2c-2.29.92-4.15,1.52-5.59,1.8v5.06h5.75v1.39Z"/>
      <path class="cls-7" d="M481.54,220.19h-8.07v14.89h-1.4v-23.09h9.47v8.2ZM480.11,215.35v-2.06h-6.64v2.06h6.64ZM480.11,218.88v-2.24h-6.64v2.24h6.64ZM490.73,228.07h-4.33v6.43h-1.42v-6.43h-4.16c-.12,2.54-1.25,4.73-3.39,6.56l-1.38-.79c2.13-1.78,3.25-3.71,3.37-5.77h-4.44v-1.36h4.54v-3.15h-3.61v-1.31h13.74v1.31h-3.26v3.15h4.33v1.36ZM484.99,226.71v-3.15h-4.02v3.15h4.02ZM493.55,233.06c0,.76-.22,1.27-.65,1.55-.43.28-1.21.41-2.32.41-.46,0-.97,0-1.52-.03l-.55-1.44c.45.07,1.46.11,3.01.11.4,0,.6-.2.6-.6v-12.87h-7.99v-8.2h9.42v21.07ZM492.12,215.35v-2.06h-6.53v2.06h6.53ZM492.12,218.88v-2.24h-6.53v2.24h6.53Z"/>
    </g>
  </g>
  <g id="_撕開鋸齒狀" data-name="撕開鋸齒狀">
    <g>
      <polygon class="cls-7" points="117.27 64.94 121.14 61.24 113.39 61.24 117.27 64.94"/>
      <polygon class="cls-7" points="159.93 64.94 163.8 61.24 156.05 61.24 159.93 64.94"/>
      <polygon class="cls-7" points="202.59 64.94 206.46 61.24 198.71 61.24 202.59 64.94"/>
      <polygon class="cls-7" points="245.25 64.94 249.12 61.24 241.37 61.24 245.25 64.94"/>
      <polygon class="cls-7" points="287.91 64.94 291.78 61.24 284.03 61.24 287.91 64.94"/>
      <polygon class="cls-7" points="330.57 64.94 334.44 61.24 326.69 61.24 330.57 64.94"/>
      <polygon class="cls-7" points="373.23 64.94 377.1 61.24 369.35 61.24 373.23 64.94"/>
      <polygon class="cls-7" points="415.88 64.94 419.76 61.24 412.01 61.24 415.88 64.94"/>
    </g>
    <g>
      <polygon class="cls-7" points="415.88 279.11 412.01 282.81 419.76 282.81 415.88 279.11"/>
      <polygon class="cls-7" points="373.23 279.11 369.35 282.81 377.1 282.81 373.23 279.11"/>
      <polygon class="cls-7" points="330.57 279.11 326.69 282.81 334.44 282.81 330.57 279.11"/>
      <polygon class="cls-7" points="287.91 279.11 284.03 282.81 291.78 282.81 287.91 279.11"/>
      <polygon class="cls-7" points="245.25 279.11 241.37 282.81 249.12 282.81 245.25 279.11"/>
      <polygon class="cls-7" points="202.59 279.11 198.71 282.81 206.46 282.81 202.59 279.11"/>
      <polygon class="cls-7" points="159.93 279.11 156.05 282.81 163.8 282.81 159.93 279.11"/>
      <polygon class="cls-7" points="117.27 279.11 113.39 282.81 121.14 282.81 117.27 279.11"/>
    </g>
  </g>
  <g id="_太空貓貓" data-name="太空貓貓">
    <g>
      <path class="cls-2" d="M353.67,116.07c4.02,2,6.73,25.15,6.05,30.47s-46.5,4.98-47.36-.79,2.72-22.12,6.36-28.33c4.49-7.66,9.42,3.03,11.18,7.09,1.55.62,13.21.72,13.43.63,2.64-1.1,4.66-11.89,10.33-9.07ZM354.56,125.31c1.13,0-1.13-6.29-2.96-6.29-1.01,0-2.5,1.93-3.25,3.65-.61,1.39-.74,2.64.24,2.64h5.97ZM348.01,144.23c2.72-.56,3.35-8.54-1.49-7.1-3.26.96-1.54,7.73,1.49,7.1ZM337.38,144.18c1.4.7,0-4.19-1.4-4.19s-2.8,4.89-1.4,4.19,1.4-.7,2.8,0ZM325.47,124.61c.99,0,.85-1.25.24-2.64-.76-1.72-2.24-3.65-3.25-3.65-1.83,0-4.09,6.29-2.96,6.29h5.97ZM324.94,144.23c2.72-.56,3.35-8.54-1.49-7.1-3.26.96-1.54,7.73,1.49,7.1Z"/>
      <path class="cls-8" d="M351.59,119.01c1.83,0,4.09,6.29,2.96,6.29h-5.97c-.99,0-.85-1.25-.24-2.64.76-1.72,2.24-3.65,3.25-3.65Z"/>
      <path class="cls-6" d="M346.52,137.13c4.84-1.44,4.21,6.54,1.49,7.1-3.03.63-4.75-6.13-1.49-7.1Z"/>
      <path class="cls-8" d="M335.98,139.99c1.4,0,2.8,4.89,1.4,4.19s-1.4-.7-2.8,0,0-4.19,1.4-4.19Z"/>
      <path class="cls-8" d="M325.72,121.96c.61,1.39.74,2.64-.24,2.64h-5.97c-1.13,0,1.13-6.29,2.96-6.29,1.01,0,2.5,1.93,3.25,3.65Z"/>
      <path class="cls-6" d="M323.45,137.13c4.84-1.44,4.21,6.54,1.49,7.1-3.03.63-4.75-6.13-1.49-7.1Z"/>
    </g>
    <g>
      <path class="cls-7" d="M378.48,147.74c6.72.29,10.24,4.06,10.05,9.7-.1,3.03-.31,7.26-2.94,8.94-3.17,2.03-13.67,1.36-14,1.36-23.06-.13-45.89-.56-68.8-.62-3.87-.01-9.84.49-13.44.03-2.34-.29-5.47-2.31-5.94-4.74-.13-.66-3.09-8.09,1.58-13.39,2.56-2.89,4.76-3.03,8.61-3.09-2.8-20.27,9.54-36.44,16.53-41.95,17.72-15.37,40.09-9.78,47.85-4.96,14.64,8.65,26.5,21.74,20.48,48.72ZM376.28,162.41c5.36.16,4.03-10.19,1.02-10.98-3.98-1.3-78.09-2-78.09-2-3.34-.23-6.75-.03-8.39,4.19-2.1,4.19,1.27,6.05,2.1,6.29,4.89,1.4,17.1,1.37,20.83,1.44,20.46.38,41.86.45,62.54,1.06ZM376.11,147.33c1.4-5.59,1.35-14.9,1.06-17.33-.92-7.59-7.46-18.71-13.77-23.11-13.16-10.59-25.74-9.89-30.22-9.09-15.1,1.99-21.69,9.3-22.02,9.56-17.55,18.99-13.56,35.42-13.84,38.72h0c5.42-.02,11.05,0,16.71.03,17.44.13,35.1.49,47.36.79,7.95.19,12.87.38,14.71.43Z"/>
      <path class="cls-4" d="M377.3,151.42c3.01.8,4.34,11.14-1.02,10.98-20.68-.61-42.08-.68-62.54-1.06-3.73-.07-15.93-.04-20.83-1.44-.83-.24-4.19-2.1-2.1-6.29,1.64-4.22,5.05-4.43,8.39-4.19,0,0,74.11.7,78.09,2ZM361.06,158.9c3.26,2.04,3.67-4.61,2.33-5.45-3.26-2.04-3.67,4.6-2.33,5.45ZM350.9,158.91c.63-.5,1.87-6.81-2.06-5.49-2.34.78-.68,7.7,2.06,5.49ZM332.89,157.67c2.75,1.73,4.27-3.4,2.48-4.66-3.32-2.34-3.73,3.87-2.48,4.66ZM322.04,156.94c1.01-1.19.49-5.39-1.94-4.75-2.35.62-2.01,4.38-.03,5.47.42.1,1.67-.38,1.96-.72ZM308.68,157.07c3.06-.94.24-6.89-2.08-4.93-.87.74-.62,5.76,2.08,4.93Z"/>
      <path class="cls-3" d="M371.6,167.73c0,3.23.71,10.24-2.5,12.19-.87.52-17.69.62-20.32.59-12.19-.13-28.78,0-40.53-1.16-7.88-.78-4.91-6.18-5.44-12.23,22.91.06,45.74.49,68.8.62Z"/>
      <path class="cls-5" d="M363.39,153.45c1.34.84.94,7.49-2.33,5.45-1.34-.85-.94-7.49,2.33-5.45Z"/>
      <path class="cls-5" d="M348.84,153.42c3.93-1.31,2.69,4.99,2.06,5.49-2.74,2.2-4.4-4.71-2.06-5.49Z"/>
      <path class="cls-5" d="M335.37,153.01c1.79,1.25.27,6.38-2.48,4.66-1.25-.78-.84-6.99,2.48-4.66Z"/>
      <path class="cls-5" d="M320.11,152.19c2.43-.64,2.95,3.57,1.94,4.75-.29.34-1.55.82-1.96.72-1.98-1.09-2.32-4.86.03-5.47Z"/>
      <path class="cls-5" d="M306.59,152.14c2.32-1.96,5.15,3.98,2.08,4.93-2.7.83-2.96-4.19-2.08-4.93Z"/>
    </g>
  </g>
  <g id="_恭喜中獎" data-name="恭喜中獎">
    <path class="cls-10" d="M260.69,134.91s-10.05,5.31-18.31,7.25v24.86c0,7.21-5.85,13.06-13.06,13.06h-83.14c-7.21,0-13.06-5.85-13.06-13.06v-67.91c0-7.21,5.85-13.06,13.06-13.06h83.14c7.21,0,13.06,5.85,13.06,13.06v30.1c5.88,2.59,13.52,5.52,18.31,5.7Z"/>
    <g>
      <path class="cls-8" d="M181.01,116.79c1.49,1.65,3.68,3.06,6.03,3.79-.63.57-1.54,1.7-1.96,2.45-1.1-.44-2.17-.99-3.13-1.7,1.23,1.75,2.35,3.71,2.93,5.17l-2.69,1.2c-.57-1.78-2.14-4.52-3.58-6.5l2.12-.86c-1.18-1.02-2.19-2.25-3-3.55h-5.85c-.99,1.62-2.32,3.08-3.84,4.26l2.32.97c-.84,1.93-1.98,4.15-3.45,5.59l-2.59-1.51c1.31-1.18,2.45-2.95,3.19-4.62-.97.71-2.01,1.31-3.03,1.83-.47-.63-1.57-1.83-2.19-2.38,2.35-.91,4.49-2.32,5.93-4.13h-5.09v-2.85h5.9v-2.51h-4.31v-2.85h4.31v-2.77h3.08v2.77h5.12v-2.77h3.13v2.77h4.39v2.85h-4.39v2.51h6.09v2.85h-5.43ZM171.6,118.72h2.95v8.31c0,1.44-.24,2.22-1.23,2.69-.91.47-2.25.5-3.97.5-.13-.86-.5-2.06-.89-2.9,1.12.05,2.3.05,2.69.05.34,0,.44-.08.44-.39v-8.25ZM172.1,113.94h5.12v-2.51h-5.12v2.51ZM177.72,121.41c.7,1.75,1.28,4.02,1.49,5.56l-2.66.6c-.13-1.51-.71-3.87-1.31-5.64l2.48-.52Z"/>
      <path class="cls-8" d="M212.77,120.44v2.35h-23.84v-2.35h5.98c-.16-.47-.39-.97-.6-1.36l1.1-.26h-2.66v-5.17h16.51v5.17h-1.49c-.34.6-.71,1.15-1.02,1.62h6.03ZM199.19,109.58h-9.38v-2.22h9.38v-1.57h3.16v1.57h9.61v2.22h-9.61v1.07h8.04v2.14h-18.78v-2.14h7.57v-1.07ZM192.21,123.76h17.58v6.42h-3.21v-.68h-11.31v.71h-3.06v-6.45ZM195.27,125.82v1.59h11.31v-1.59h-11.31ZM195.69,116.92h10.42v-1.31h-10.42v1.31ZM197.41,118.83c.31.52.57,1.12.73,1.62h5.38c.26-.52.5-1.1.68-1.62h-6.79Z"/>
      <path class="cls-8" d="M185.5,141.68v13.03h-3.26v-1.31h-5.9v8.15h-3.29v-8.15h-5.88v1.44h-3.13v-13.16h9.01v-4.52h3.29v4.52h9.17ZM173.04,150.35v-5.62h-5.88v5.62h5.88ZM182.23,150.35v-5.62h-5.9v5.62h5.9Z"/>
      <path class="cls-8" d="M205.32,156.25c2.79.94,5.95,2.09,7.81,2.9l-1.41,2.43c-2.27-1.12-6.92-2.9-10.19-4.02l.81-1.31h-.78c-1.23,2.19-4.28,4.34-11.23,5.46-.37-.73-1.15-1.83-1.72-2.51,4.7-.71,7.36-1.78,8.85-2.95h-8.72v-2.56h10.47c.03-.24.05-.47.05-.71v-1.72h3.08v1.83c0,.21,0,.39-.03.6h4.54c-.55-.47-1.17-.94-1.72-1.31l.94-.89h-.99c-.1-.71-.44-1.57-.76-2.25.84.05,1.8.05,2.09.05.29-.03.37-.1.37-.37v-1.51h-4.34c.68.52,1.36,1.07,1.72,1.57l-2.04,1.54c-.5-.68-1.59-1.67-2.56-2.3l1.07-.81h-2.59v-2.01h1.02c-.26-.52-.68-1.1-1.02-1.46,2.35-.23,4.6-.71,6.53-1.46-.57-.65-1.36-1.41-2.14-2.04-.86.31-1.8.63-2.82.91-.31-.55-1.04-1.38-1.54-1.75,3.13-.63,5.48-1.54,6.87-2.56l2.53.52c-.37.31-.73.6-1.12.89h3.63l.5-.08,1.59.81c-1.15,2.09-2.98,3.53-5.2,4.54h2.85v1.67h2.95v2.01h-2.95v1.62c0,1.23-.23,1.78-1.1,2.14-.37.16-.84.24-1.38.29.78.52,1.57,1.12,2.04,1.62l-.6.6h4.34v2.56h-7.7ZM193.07,147.29c0,1.23-.37,3.79-2.09,5.22-.52-.42-1.65-1.04-2.35-1.33,1.41-1.1,1.7-2.93,1.72-3.89h-1.46v-2.4h5.56v-1.44h-4.54v-5.64h2.59v3.29h1.96v-3.89h2.82v14.89h-2.82v-4.81h-1.38ZM202.82,142.8c-1.28.13-2.48.26-3.66.39l-.26-1.57c1.1-.08,2.38-.18,3.89-.29l.03,1.46ZM206.79,145.41v-1.62c-1.62.73-3.45,1.25-5.43,1.62h5.43ZM204.83,140.14c.57.47,1.12,1.02,1.62,1.51.76-.44,1.44-.94,1.99-1.51h-3.6Z"/>
    </g>
  </g>
</svg>