<?xml version="1.0" encoding="UTF-8"?>
<svg id="Layer_2" data-name="Layer 2" xmlns="http://www.w3.org/2000/svg" version="1.1" xmlns:xlink="http://www.w3.org/1999/xlink" viewBox="0 0 406.64 231.29">
  <defs>
    <style>
      .cls-1 {
        fill: #cde2ed;
      }

      .cls-1, .cls-2, .cls-3, .cls-4, .cls-5, .cls-6, .cls-7, .cls-8 {
        stroke-width: 0px;
      }

      .cls-2 {
        fill: #e5a856;
      }

      .cls-3 {
        fill: none;
      }

      .cls-4 {
        fill: #666;
      }

      .cls-5 {
        fill: #f2f1ec;
      }

      .cls-6 {
        fill: #fdc164;
      }

      .cls-9 {
        opacity: .15;
      }

      .cls-10 {
        clip-path: url(#clippath);
      }

      .cls-7 {
        fill: #365b6d;
      }

      .cls-8 {
        fill: #f2f1ec;
      }
    </style>
    <clipPath id="clippath">
      <rect class="cls-3" x="229.24" y="195.77" width="18.2" height="18.18"/>
    </clipPath>
  </defs>
  <g id="_撕開底層" data-name="撕開底層">
    <g>
      <path class="cls-1" d="M21.72,152.29l-.13-.04-12.07-9.16-.08-.12c-.03-.12-3.22-12.36-3.22-28.06,0-15.7,3.19-29.9,3.22-30.04l.08-.13,12.07-9.16.13-.04h6.51s.22.22.22.22v76.31l-.22.22h-6.51Z"/>
      <path class="cls-7" d="M28.23,75.76v76.31h-6.51s-12.07-9.16-12.07-9.16c0,0-3.21-12.15-3.21-28.01,0-15.86,3.21-29.99,3.21-29.99l12.07-9.16h6.51M28.23,75.32h-6.51s-.26.09-.26.09l-12.07,9.16-.16.25c-.03.14-3.22,14.36-3.22,30.09,0,15.73,3.19,28,3.23,28.12l.16.24,12.07,9.16.26.09h6.51l.43-.44v-76.31s-.43-.44-.43-.44h0Z"/>
    </g>
    <g>
      <path class="cls-5" d="M28.23,157.75v51.75c0,1.12.13,2.21.37,3.27,1.72,7.34,9.08,12.87,17.89,12.87h340.64c10.08,0,18.26-7.23,18.26-16.13V19.78c0-8.91-8.18-16.13-18.26-16.13H46.59c-10.12,0-18.32,7.27-18.26,16.22v1.67s.34,59.91.34,59.91l-.43,76.31Z"/>
      <path class="cls-7" d="M387.13,225.85H46.5c-8.72,0-16.33-5.48-18.1-13.03-.25-1.09-.38-2.21-.38-3.32v-51.75s.43-76.31.43-76.31l-.34-59.91v-1.67c-.02-3.98,1.59-7.83,4.55-10.83,3.51-3.56,8.59-5.6,13.93-5.6h340.54c10.19,0,18.48,7.33,18.48,16.35v189.71c0,9.02-8.29,16.35-18.48,16.35ZM28.45,157.75v51.75c0,1.07.12,2.16.37,3.22,1.72,7.36,9.16,12.7,17.68,12.7h340.64c9.95,0,18.05-7.14,18.05-15.91V19.78c0-8.78-8.1-15.91-18.05-15.91H46.59c-5.22,0-10.19,2-13.62,5.47-2.88,2.92-4.45,6.65-4.43,10.52v1.67s.34,59.91.34,59.91l-.43,76.31h0Z"/>
    </g>
  </g>
  <path class="cls-3" d="M28.04,157.56v51.75c0,1.12.13,2.21.37,3.27,1.72,7.34,9.08,12.87,17.89,12.87h340.64c10.08,0,18.26-7.23,18.26-16.13V19.59c0-8.91-8.18-16.13-18.26-16.13H46.4c-10.12,0-18.32,7.27-18.26,16.22v1.67s.34,59.91.34,59.91l-.43,76.31Z"/>
  <g id="_淺藍底" data-name="淺藍底">
    <rect class="cls-1" x="28.42" y="48.87" width="376.9" height="129.02"/>
  </g>
  <g id="A賞">
    <path class="cls-4" d="M106.75,64.74h22.77s31.15,96.9,31.15,96.9h-20.28s-6.81-24.85-6.81-24.85h-31.41s-6.8,24.85-6.8,24.85h-19.63s31.02-96.9,31.02-96.9ZM106.36,121.75h23.03s-2.88-10.59-2.88-10.59c-3.01-10.07-5.63-21.18-8.38-31.65h-.65c-2.49,10.59-5.37,21.58-8.24,31.65l-2.88,10.59Z"/>
    <path class="cls-4" d="M197.98,155.2c4.1,1.13,8.55,2.57,11.3,3.62l-5.41,2.75c-2.62-1.13-7.2-2.79-11.74-4.1l3.36-2.27h-12.48s4.54,1.7,4.54,1.7c-3.32,2.27-8.86,3.92-13.39,4.93-.87-1.09-2.75-3.01-3.84-3.88,4.32-.52,9.16-1.48,11.87-2.75h-6.28s0-15.65,0-15.65h28.49s0,15.65,0,15.65h-6.41ZM176.3,133.62h-4.8s0-8.28,0-8.28h6.02c-.61-1.05-1.4-2.18-2.09-3.1l4.62-1.26c1.13,1.26,2.31,3.01,2.92,4.18l-.52.17h4.71s0-4.53,0-4.53h5.15v4.53s4.8,0,4.8,0c.96-1.31,2.14-3.14,2.75-4.49l5.32,1.26c-.87,1.22-1.79,2.31-2.62,3.23h6.06v8.28h-5.06s0-4.75,0-4.75h-27.27v4.75ZM178.44,138.07v-7.59h23.17s0,7.59,0,7.59h-23.17ZM180.84,143.87h18.41v-1.53h-18.41v1.53ZM180.84,148.09h18.41v-1.53h-18.41v1.53ZM180.84,152.37h18.41v-1.57h-18.41v1.57ZM183.24,135.19h13.22v-1.83s-13.22,0-13.22,0v1.83Z"/>
  </g>
  <g>
    <path class="cls-7" d="M275.28,104.3l-.82.32c-.13-.42-.26-.78-.39-1.06-1.13.48-2.15.88-3.08,1.18l-.32-.84c.16-.1.24-.23.24-.4v-7.42h3.94v4.88s-3,0-3,0v2.53c.59-.2,1.21-.44,1.88-.72-.16-.4-.34-.75-.54-1.06l.81-.34c.57.99,1,1.97,1.28,2.93ZM273.93,98.05v-1.11s-2.08,0-2.08,0v1.11h2.08ZM273.93,100.1v-1.2s-2.08,0-2.08,0v1.2s2.08,0,2.08,0ZM279.48,102.93c0,.48-.12.8-.35.95s-.63.23-1.18.23c-.21,0-.44,0-.67-.02l-.26-.94c.42.02.85.03,1.28.03.06,0,.12-.03.18-.09s.08-.13.08-.2v-5.88s-1.82,0-1.82,0v8.06h-.92v-8.96h3.68s0,6.83,0,6.83Z"/>
    <path class="cls-7" d="M284.58,105.05h-.88v-3.8h-.65c-.02,1.82-.27,3.07-.75,3.76l-.78-.49c.43-.7.64-1.79.62-3.27h-.53s0-.88,0-.88h2.09v-1.21s-1.75,0-1.75,0v-2.89s.87,0,.87,0v2.03s.88,0,.88,0v-2.41h.88v9.14ZM290.19,97.48c-.81,1.03-1.57,1.74-2.29,2.16-.72.41-1.59.73-2.63.96l-.47-.78c1.2-.26,2.11-.6,2.75-1.02-.59-.37-1.1-.65-1.53-.84l-.67.41-.56-.7c1.04-.56,1.82-1.17,2.37-1.83l.83.34c-.08.1-.21.26-.39.47h2.61v.84ZM286.56,99c-.62.19-1.06.3-1.33.34l-.25-.65c.57-.12,1.08-.24,1.52-.36l.06.67ZM290.69,101.67h-1.11s0,2.47,0,2.47c0,.28-.1.5-.32.65s-.81.23-1.79.23l-.28-.87c.29.02.52.03.68.03.37,0,.6-.02.67-.06s.11-.11.11-.21v-2.23h-3.69v-.85s3.69,0,3.69,0v-1.16h.92v1.16s1.11,0,1.11,0v.85ZM287.37,103.41l-.77.52c-.21-.43-.6-.96-1.18-1.6l.7-.54c.59.62,1,1.16,1.25,1.61ZM289.1,97.48h-2.36c.55.25,1.05.51,1.52.8.36-.31.64-.58.84-.8Z"/>
    <path class="cls-7" d="M301.67,97.64h-1.53v.51c0,.15.08.22.24.22h1.08v.77h-1.43c-.54,0-.8-.3-.8-.89v-.61h-.83v1.51s-2.78,0-2.78,0v-1.51h-.83c-.13.88-.65,1.53-1.55,1.97l-.66-.67c.69-.29,1.12-.72,1.28-1.3h-1.32s0-.82,0-.82h1.41c0-.15.01-.45.01-.89h.91c.01.31.01.6,0,.89h.75s0-.89,0-.89h.89v.89s.99,0,.99,0v-.89h.9v.89h.83v-.89h.91s0,.89,0,.89h1.53v.82ZM301.45,101.62h-.92s0-1.05,0-1.05h-2.94v.84s2.63,0,2.63,0v2.33c0,.26-.06.46-.17.59s-.28.21-.48.24-.58.04-1.14.04l-.29-.87.97-.02c.14,0,.21-.08.21-.25v-1.27s-1.73,0-1.73,0v2.85s-.93,0-.93,0v-2.85h-1.74v2.39s-.9,0-.9,0v-3.18h2.64s0-.84,0-.84h-2.96s0,1.05,0,1.05h-.92v-1.87h8.68v1.87ZM297.5,98.39v-.75s-.99,0-.99,0v.75s.99,0,.99,0Z"/>
    <path class="cls-7" d="M306.5,96.11c-.22.46-.53,1.02-.94,1.67v3.88h-.91v-2.64c-.13.15-.36.37-.68.68l-.54-.78c.8-.7,1.53-1.73,2.21-3.1l.86.28ZM305.59,102.23c-.37,1.07-.8,1.92-1.29,2.54l-.79-.52c.43-.52.83-1.29,1.21-2.29l.87.27ZM312.5,96.63c-.19.81-.39,1.44-.6,1.88l-.89-.29c.11-.23.2-.47.28-.72h-3.4c-.43.63-.86,1.12-1.31,1.49l-.67-.63c.65-.55,1.31-1.39,1.96-2.53l.84.36c-.12.22-.21.37-.26.45h4.06ZM310.76,103.39c-.11.57-.23.95-.36,1.13s-.32.31-.58.38-.85.1-1.77.1c-.81,0-1.35-.07-1.63-.21s-.41-.47-.41-.98v-1.92h.93v1.85c0,.16.07.27.2.32s.48.07,1.02.07c.6,0,.97-.01,1.13-.04s.28-.11.36-.26.14-.41.18-.8l.92.36ZM308.52,98.99c-.56.99-1.12,1.76-1.68,2.31l-.71-.61c.51-.5,1.04-1.24,1.59-2.21l.8.51ZM309.43,102.99l-.72.55c-.35-.56-.76-1.08-1.21-1.57l.69-.54c.58.62.99,1.14,1.24,1.56ZM309.89,101.66h-.95s0-3.76,0-3.76h.95v3.76ZM312.7,100.65l-.75.54c-.46-.75-1-1.46-1.64-2.15l.75-.49c.64.68,1.18,1.38,1.64,2.1ZM312.73,104.33l-.8.48c-.4-.88-.87-1.67-1.41-2.39l.77-.5c.57.74,1.05,1.54,1.44,2.41Z"/>
    <path class="cls-7" d="M319.1,104.03c0,.27-.06.47-.17.62s-.25.23-.41.28-.45.07-.86.07c-.2,0-.39,0-.55-.02l-.33-.9c.15.02.31.03.49.03.4,0,.66-.01.78-.04s.19-.1.19-.21v-1.06h-2.01c-.16.96-.47,1.71-.94,2.25l-.77-.49c.62-.62.93-1.71.93-3.27v-2.68h3.64v5.43ZM323.71,97.94h-9.11v-.87h9.11v.87ZM318.5,96.51l-.96.44c-.42-.25-.93-.48-1.53-.7l.97-.47c.57.19,1.07.44,1.52.73ZM318.24,100.3v-.86h-1.91s0,.86,0,.86h1.91ZM318.24,102v-.89h-1.91v.89h1.91ZM322.15,96.23c-.56.33-1.06.57-1.49.71l-.96-.44c.55-.23,1.04-.48,1.48-.74l.97.47ZM321.06,103.26h-.91v-4.52h.91v4.52ZM322.97,103.91c0,.44-.1.73-.3.87s-.57.22-1.12.22c-.21,0-.44,0-.69-.02l-.29-.9h1.31s.09-.03.14-.08.06-.11.06-.17v-5.32h.89v5.4Z"/>
    <path class="cls-7" d="M328.38,96.31c-.75,1.1-1.57,1.91-2.48,2.41l-.43-.81c.9-.57,1.6-1.24,2.09-2.01l.82.42ZM328.64,98.87c-.23.38-.54.82-.92,1.31v4.91s-.94,0-.94,0v-3.9c-.2.2-.49.42-.88.66l-.41-.85c.86-.58,1.64-1.42,2.35-2.54l.8.42ZM334.69,104.91h-6.44s0-.88,0-.88h2.71v-2.56s-2.35,0-2.35,0v-.9h2.35s0-2.22,0-2.22h-2.65v-.88h2.65c-.22-.51-.45-.97-.69-1.37l.95-.23c.28.47.52,1.01.73,1.6h2.54s0,.88,0,.88h-2.6v2.22s2.35,0,2.35,0v.9h-2.35s0,2.56,0,2.56h2.8s0,.88,0,.88Z"/>
    <path class="cls-7" d="M267.8,122.03h-18.22s0-1.85,0-1.85h18.22s0,1.85,0,1.85Z"/>
    <path class="cls-7" d="M289.88,121.61l-.73,1.69c-.71-.32-1.23-.53-1.55-.64v8.05h-1.82s0-.79,0-.79h-10.2v.79s-1.8,0-1.8,0v-7.73c-.68.25-1.21.42-1.58.5l-.86-1.63c2.43-.6,4.65-1.58,6.66-2.95h-6.28s0-1.7,0-1.7h8.04v-2.32c-1.08.06-2.28.09-3.61.09-.97,0-2.06-.02-3.28-.05l-.48-1.56c1.33.05,2.59.07,3.77.07,4.17,0,8-.34,11.47-1.02l.94,1.43c-2.28.46-4.63.76-7.03.92v2.44h7.97v1.7s-7.97,0-7.97,0v.06c2.4.62,5.18,1.51,8.35,2.67ZM277.68,116.46l-1.84.56c-.38-.4-.83-.8-1.34-1.2l1.74-.66c.53.35,1.01.78,1.44,1.3ZM279.75,122.43v-2.76c-1.26,1.02-2.8,1.94-4.61,2.76h4.61ZM279.79,125.37v-1.28h-4.21v1.28s4.21,0,4.21,0ZM279.79,128.3v-1.42s-4.21,0-4.21,0v1.42s4.21,0,4.21,0ZM287.08,122.43c-1.38-.57-3.23-1.16-5.55-1.78v1.78h5.55ZM285.78,125.37v-1.28s-4.19,0-4.19,0v1.28h4.19ZM285.78,128.3v-1.42s-4.19,0-4.19,0v1.42s4.19,0,4.19,0ZM286.89,115.39c-.41.52-.92,1.04-1.52,1.53l-1.72-.8c.5-.33,1.03-.82,1.57-1.46l1.67.73Z"/>
    <path class="cls-7" d="M309.73,128.14h-9.52l.83.88c-1.92.87-4.17,1.51-6.78,1.92l-.86-1.66c1.95-.2,3.75-.59,5.4-1.14h-3.18s0-7.33,0-7.33h14.11v7.33ZM311.35,118.26h-1.86s0-2.39,0-2.39h-13.63v2.39s-1.83,0-1.83,0v-3.85h7.71v-2.14h1.84v2.14s7.77,0,7.77,0v3.85ZM300,113.53l-1.92.72c-.59-.48-1.26-.9-2.03-1.28l2.06-.69c.76.37,1.39.79,1.9,1.26ZM308.31,120.03h-11.21s0-3.33,0-3.33h11.21v3.33ZM307.95,122.92v-.84h-10.51v.84h10.51ZM307.95,124.87v-.82h-10.51s0,.82,0,.82h10.51ZM307.95,126.86v-.86h-10.51v.86h10.51ZM306.47,118.8v-.88h-7.54v.88h7.54ZM311.89,129.4l-.8,1.59c-1.68-.47-3.79-.82-6.34-1.06l.78-1.51c2.86.26,4.98.59,6.36.98ZM309.21,112.96c-.78.61-1.45,1.03-2.02,1.28l-1.97-.8c.78-.32,1.46-.71,2.03-1.17l1.96.69Z"/>
    <path class="cls-7" d="M333.75,116.72h-8.19c-.2.66-.44,1.24-.71,1.74h6.82s0,12.26,0,12.26h-1.9v-1.02h-10.11v1.02h-1.93s0-12.26,0-12.26h4.99c.29-.46.54-1.04.75-1.74h-7.91s0-1.67,0-1.67h18.2s0,1.67,0,1.67ZM323.68,113.99l-2.08.76c-.81-.65-1.74-1.21-2.78-1.68l2.08-.76c.8.4,1.73.95,2.78,1.68ZM329.78,121.61v-1.57h-10.11v1.57h10.11ZM329.78,124.85v-1.68s-10.11,0-10.11,0v1.68s10.11,0,10.11,0ZM329.78,128.06v-1.62h-10.11v1.62s10.11,0,10.11,0ZM330.76,113.07c-.74.57-1.71,1.12-2.93,1.68l-2.22-.76c1.09-.46,2.1-1.01,3.02-1.68l2.14.76Z"/>
    <path class="cls-7" d="M355.74,114.53h-8.15c-.19.55-.42,1.14-.69,1.78h6.91v10.48h-9.97l1.1,1.11c-1.74,1.26-3.86,2.25-6.36,2.97l-1.09-1.51c2.24-.57,4.24-1.42,6.01-2.57h-4v-10.48h5.46c.26-.5.5-1.1.72-1.78h-8.15s0-1.72,0-1.72h18.2s0,1.72,0,1.72ZM351.95,119.32v-1.42s-10.55,0-10.55,0v1.42s10.55,0,10.55,0ZM351.95,122.29v-1.42h-10.55v1.42s10.55,0,10.55,0ZM351.95,125.2v-1.36s-10.55,0-10.55,0v1.36s10.55,0,10.55,0ZM355.76,129.36l-.96,1.47c-1.64-.78-3.77-1.49-6.39-2.14l.96-1.49c2.56.58,4.69,1.3,6.39,2.16Z"/>
  </g>
  <g>
    <polygon class="cls-3" points="28.88 81.44 28.45 157.75 28.45 177.89 405.18 177.89 405.18 29.57 28.59 29.57 28.88 81.44"/>
    <path class="cls-2" d="M387.13,3.87H46.59c-5.22,0-10.19,1.99-13.62,5.47-2.88,2.92-4.45,6.65-4.43,10.52v1.67s.05,8.04.05,8.04h376.6v-9.79c0-8.78-8.1-15.91-18.05-15.91Z"/>
    <path class="cls-7" d="M28.45,209.5c0,1.07.12,2.16.37,3.22,1.72,7.36,9.16,12.7,17.68,12.7h340.64c9.95,0,18.05-7.14,18.05-15.91v-31.6s-376.73,0-376.73,0v31.6Z"/>
    <path class="cls-7" d="M46.5,225.85h340.64c.05,0,.11,0,.16,0H46.31c.06,0,.12,0,.19,0Z"/>
    <rect class="cls-7" x="405.18" y="29.57" width=".43" height="148.32"/>
    <path class="cls-7" d="M387.13,3.43H46.59c-.69,0-1.37.04-2.05.1h344.63c-.67-.07-1.34-.1-2.03-.1Z"/>
    <polygon class="cls-7" points="28.45 157.75 28.45 157.75 28.45 157.75 28.88 81.44 28.59 29.57 28.15 29.57 28.44 81.44 28.01 157.75 28.01 177.89 28.45 177.89 28.45 157.75"/>
    <path class="cls-7" d="M28.54,21.53v-1.67c-.02-3.87,1.55-7.61,4.43-10.52,3.43-3.48,8.4-5.47,13.62-5.47h340.54c9.95,0,18.05,7.14,18.05,15.91v9.79s.43,0,.43,0v-9.79c0-8.41-7.21-15.35-16.45-16.25H44.54c-4.57.45-8.82,2.4-11.88,5.5-2.96,3-4.58,6.85-4.55,10.83v1.67s.05,8.04.05,8.04h.43l-.05-8.04Z"/>
    <path class="cls-7" d="M405.18,209.5c0,8.78-8.1,15.91-18.05,15.91H46.5c-8.52,0-15.96-5.34-17.68-12.7-.24-1.06-.37-2.14-.37-3.22v-31.6s-.43,0-.43,0v31.6c0,1.11.13,2.22.38,3.32,1.75,7.5,9.27,12.95,17.92,13.03h340.99c10.12-.08,18.32-7.38,18.32-16.34v-31.6s-.43,0-.43,0v31.6Z"/>
  </g>
  <g>
    <path class="cls-5" d="M126.5,18.32l-.41.42c-1.48-.82-2.5-1.77-3.07-2.83h-2.37c-.65,1.1-1.68,2.03-3.08,2.8l-.39-.44c1.37-.72,2.31-1.51,2.83-2.37h-2.65s0-.51,0-.51h2.49v-1.43h-2.07s0-.52,0-.52h2.07v-1.21h.55s0,1.21,0,1.21h2.85v-1.21h.54v1.21h2.14v.52s-2.14,0-2.14,0v1.43s2.53,0,2.53,0v.51h-2.68c.56.96,1.51,1.77,2.86,2.42ZM120.35,18.33c-.66.96-1.43,1.79-2.29,2.48l-.41-.43c.89-.64,1.63-1.43,2.24-2.37l.46.31ZM121.66,20.51c0,.35-.08.59-.25.71s-.49.18-.97.18c-.18,0-.35,0-.49-.02l-.26-.58c.41.01.79.02,1.15.02.06,0,.12-.03.18-.09s.1-.12.1-.17v-3.76h.54s0,3.71,0,3.71ZM123.25,15.39v-1.43h-2.85v1.43s2.85,0,2.85,0ZM123.97,20.92l-.5.21c-.3-1.08-.71-2.06-1.21-2.93l.49-.21c.54.96.94,1.94,1.22,2.93ZM125.87,20.46l-.49.26c-.33-.73-.88-1.58-1.66-2.57l.45-.26c.62.69,1.19,1.55,1.7,2.56Z"/>
    <path class="cls-5" d="M137.37,18.46h-9.12v-.54h2.77c-.12-.27-.28-.54-.46-.8h-1.08s0-1.83,0-1.83h6.6s0,1.83,0,1.83h-1.06c-.14.3-.29.56-.43.8h2.78s0,.54,0,.54ZM137.12,13.41h-4.05v.73s3.58,0,3.58,0v.48h-7.7s0-.48,0-.48h3.59s0-.73,0-.73h-4.05v-.52h4.05s0-.65,0-.65h.52v.65h4.05s0,.52,0,.52ZM136.37,21.46h-.54v-.51h-6.06v.51h-.54v-2.38h7.15v2.38ZM135.82,20.42v-.83h-6.06v.83h6.06ZM135.55,16.6v-.79s-5.52,0-5.52,0v.79s5.52,0,5.52,0ZM134.41,17.12h-3.2c.22.42.37.68.43.8h2.32c.19-.28.34-.55.45-.8Z"/>
    <path class="cls-5" d="M147.79,18.28h-3.69v3.14h-.55v-3.14h-3.71s0-4.16,0-4.16h3.71v-1.85h.55v1.85h3.69s0,4.16,0,4.16ZM143.55,17.71v-3.04h-3.15s0,3.04,0,3.04h3.15ZM147.23,17.71v-3.04s-3.12,0-3.12,0v3.04s3.12,0,3.12,0Z"/>
    <path class="cls-5" d="M159.36,20.94l-.27.51c-2.03-.35-3.46-1.14-4.31-2.37-.45.69-1.08,1.24-1.91,1.63-.62.3-1.42.53-2.4.72l-.25-.5c.95-.17,1.7-.37,2.25-.61.81-.35,1.41-.83,1.78-1.44h-3.84s0-.5,0-.5h4.08c.1-.31.17-.61.2-.88l.52.08c-.05.3-.11.57-.19.81h4.1s0,.5,0,.5h-3.9c.83,1.11,2.2,1.79,4.11,2.06ZM153.26,17.61h-.51v-2.02h-1.17c-.05.82-.36,1.45-.92,1.89l-.39-.32c.52-.47.79-1,.8-1.57h-.7s0-.5,0-.5h2.38v-.95s-1.88,0-1.88,0v-1.66h.52s0,1.16,0,1.16h1.36v-1.38h.51s0,5.35,0,5.35ZM158.88,12.96l-.03.45c-1.35.99-3.01,1.55-4.99,1.68l-.24-.45c1-.05,1.91-.2,2.72-.46-.33-.29-.73-.57-1.22-.84-.28.1-.71.25-1.3.44l-.27-.43c1.21-.34,2.12-.71,2.73-1.11l.48.28c-.08.06-.19.13-.34.21l2.44.26ZM159.33,15.94h-1s0,.88,0,.88c0,.44-.2.67-.59.71-.27.02-.58.03-.95.01l-.16-.45c.2,0,.49,0,.88-.01.08,0,.15-.04.2-.1s.09-.13.09-.21v-.83s-4.08,0-4.08,0v-.49h4.08v-.84s.53,0,.53,0v.84s1,0,1,0v.49ZM155.28,14.08c-.37.11-.72.19-1.02.24l-.16-.37c.37-.06.73-.14,1.09-.25l.09.38ZM156.18,16.88l-.3.36c-.38-.27-.83-.52-1.35-.74l.27-.4c.47.19.93.45,1.38.78ZM158.07,13.38l-2.38-.26c.36.2.75.49,1.19.86.51-.22.91-.42,1.2-.61ZM159.23,17.78l-.26.39c-.22-.16-.47-.31-.77-.44l.25-.39c.29.11.55.25.78.44Z"/>
    <path class="cls-5" d="M161.53,20.39c0-.17.06-.31.18-.42s.25-.17.41-.17.29.06.41.17.18.26.18.42c0,.16-.06.29-.17.41s-.24.17-.39.17c-.18,0-.33-.06-.44-.17s-.17-.25-.17-.41ZM162.55,12.96l-.1,5.7h-.7l-.1-5.7h.89Z"/>
    <path class="cls-5" d="M168.09,13.82h-3.17v-.52h1.56c-.09-.24-.25-.54-.47-.92l.48-.22c.24.43.42.81.55,1.14h1.06s0,.52,0,.52ZM167.97,15.32h-2.8s0-.54,0-.54h2.8s0,.54,0,.54ZM167.97,16.89h-2.8v-.55h2.8v.55ZM167.81,21.13h-.53s0-.56,0-.56h-1.45v.82h-.52v-3.45s2.5,0,2.5,0v3.19ZM167.28,20.04v-1.59h-1.45s0,1.59,0,1.59h1.45ZM174,16.02h-5.69s0-.48,0-.48h2.62v-.77s-2.17,0-2.17,0v-.48h2.17v-.73s-2.39,0-2.39,0v-.48s2.39,0,2.39,0v-.83s.53,0,.53,0v.83h2.34v.48h-2.34s0,.73,0,.73h2.1s0,.48,0,.48h-2.1s0,.77,0,.77h2.55s0,.48,0,.48ZM173.36,20.57c0,.26-.08.47-.24.63s-.69.22-1.59.19l-.18-.53h1.16c.07,0,.14-.03.21-.09s.1-.13.1-.2v-.86h-3.38c-.16.69-.4,1.27-.74,1.74l-.39-.36c.47-.64.71-1.56.71-2.76v-1.64h4.35s0,3.89,0,3.89ZM172.81,19.21v-.79h-3.3c.01.26,0,.52-.04.79h3.34ZM172.81,17.93v-.76s-3.29,0-3.29,0v.76s3.29,0,3.29,0Z"/>
    <path class="cls-5" d="M185.07,21.17h-9.13s0-.55,0-.55h4.27s0-2.05,0-2.05h-3.38v-.53h3.38s0-1.29,0-1.29h.55v1.29h3.43v.53h-3.43s0,2.05,0,2.05h4.3s0,.55,0,.55ZM184.83,13.05h-4.24c-.75,1.13-1.52,2.06-2.32,2.77,1.65-.1,3.16-.24,4.55-.41-.39-.44-.77-.83-1.14-1.17l.48-.31c1.01.95,1.82,1.87,2.45,2.76l-.46.3c-.24-.32-.53-.69-.88-1.1-2.01.24-4.03.42-6.07.55l-.15-.4c.95-.55,1.9-1.55,2.84-3h-3.75s0-.54,0-.54h8.68s0,.54,0,.54Z"/>
    <path class="cls-5" d="M192.1,19.9h-2.2v1.49s-.53,0-.53,0v-1.49h-2.43v-.5h2.43s0-.81,0-.81h-1.94s0-3.48,0-3.48h4.4s0,3.48,0,3.48h-1.93v.81s2.2,0,2.2,0v.5ZM189.31,14.49h-2.13s0-2.02,0-2.02h2.13v2.02ZM188.81,14.01v-1.03h-1.11v1.03s1.11,0,1.11,0ZM189.37,16.56v-.94s-1.41,0-1.41,0v.94s1.41,0,1.41,0ZM189.37,18.09v-1.01s-1.41,0-1.41,0v1.01h1.41ZM191.29,16.56v-.94s-1.39,0-1.39,0v.94h1.39ZM191.29,18.09v-1.01h-1.39s0,1.01,0,1.01h1.39ZM192.09,14.49h-2.12v-2.02h2.12s0,2.02,0,2.02ZM191.58,14.01v-1.02s-1.1,0-1.1,0v1.02h1.1ZM196.09,19.52c-.15.69-.3,1.17-.47,1.45s-.38.42-.65.42c-.48,0-.89-.61-1.21-1.84-.62.66-1.21,1.19-1.76,1.58l-.39-.38c.8-.57,1.48-1.18,2.03-1.84-.15-.76-.24-1.8-.29-3.12-.2.02-.54.05-1.03.08l-.04-.52c.36-.01.7-.05,1.03-.1l-.03-3h.54v2.95c.44-.02,1.14-.09,2.11-.19l.05.53-2.11.18c.04,1.18.1,2.04.2,2.58.49-.66.89-1.4,1.21-2.21l.47.25c-.48,1.06-1,1.95-1.56,2.68.07.36.17.69.27.98s.21.51.3.63.17.18.24.18c.05,0,.09-.01.13-.04s.12-.2.23-.51.21-.68.28-1.11l.47.36ZM195.72,14.17l-.45.29c-.32-.62-.64-1.09-.95-1.44l.43-.27c.33.35.65.82.98,1.42Z"/>
    <path class="cls-5" d="M203.2,18.14l-.32.45c-.71-.78-1.35-1.39-1.95-1.83v4.63h-.54s0-4.76,0-4.76c-.73,1.26-1.45,2.24-2.16,2.94l-.34-.45c.33-.33.65-.7.96-1.12s.65-.93,1-1.55.53-.94.53-.98v-.07h-2.43s0-.52,0-.52h2.43v-1.52c-.63.1-1.28.19-1.94.25l-.21-.55c1.68-.14,3.1-.42,4.26-.84l.35.51c-.58.2-1.22.36-1.92.5v1.64s2.04,0,2.04,0v.52h-2.04v.69c.76.53,1.51,1.21,2.27,2.04ZM204.41,19.48h-.55s0-6.49,0-6.49h.55v6.49ZM206.79,20.37c0,.44-.12.72-.37.84s-.63.18-1.17.18h-.81l-.22-.58c.51.02.92.03,1.22.03.27,0,.44,0,.52-.01s.14-.05.2-.12.08-.15.08-.23v-8.21s.55,0,.55,0v8.11Z"/>
    <path class="cls-5" d="M210.95,12.35l-.48,1.86v7.2h-.51v-5.8c-.36.75-.63,1.26-.8,1.52l-.32-.51c.74-1.27,1.28-2.73,1.6-4.39l.51.13ZM213.84,13.84h-2.9v-.5h1.32c-.07-.26-.22-.59-.43-.99l.48-.13c.18.35.34.72.47,1.12h1.06s0,.5,0,.5ZM213.64,15.33h-2.45s0-.49,0-.49h2.45s0,.49,0,.49ZM213.64,16.89h-2.45s0-.5,0-.5h2.45s0,.5,0,.5ZM213.57,21.19h-.53s0-.59,0-.59h-1.16s0,.8,0,.8h-.52s0-3.48,0-3.48h2.2v3.27ZM213.05,20.08v-1.63h-1.16s0,1.63,0,1.63h1.16ZM218,15.52h-1.4c-.25.35-.64.77-1.16,1.26h2.17v4.62s-.52,0-.52,0v-.71s-2.01,0-2.01,0v.71h-.51v-3.89c-.17.12-.35.24-.53.36l-.36-.36c1-.68,1.77-1.35,2.32-1.99h-2.01v-.48h1.48v-1.17s-1.26,0-1.26,0v-.5h1.26v-1.1h.49v1.1s1.09,0,1.09,0v.46c.19-.42.35-.83.49-1.25l.48.09c-.29.88-.66,1.67-1.09,2.37h1.09v.48ZM217.09,18.44v-1.15s-2.01,0-2.01,0v1.15s2.01,0,2.01,0ZM217.09,20.19v-1.24h-2.01v1.24h2.01ZM217,13.87h-1.06v1.17s.4,0,.4,0c.26-.42.48-.81.66-1.17Z"/>
    <path class="cls-5" d="M224.24,13.58h-1.3v.81h-.52s0-.81,0-.81h-2.47v-.49h2.47s0-.85,0-.85h.52v.85s1.3,0,1.3,0v.49ZM229.07,19.57c-.19,1.21-.51,1.81-.94,1.81-.33,0-.68-.35-1.07-1.05-.24.28-.48.52-.71.72l-.36-.38c.29-.26.57-.56.84-.92-.3-.92-.48-2.38-.52-4.39h-3.85s0,2.94,0,2.94c0,1.24-.28,2.3-.84,3.19l-.42-.33c.47-.81.72-1.78.75-2.92h-.8c-.07,1-.32,1.82-.77,2.44l-.4-.31c.39-.63.6-1.34.63-2.12h-.66s0-.5,0-.5h1.99v-1.06s-1.54,0-1.54,0v-1.81h.53v1.29h1.01s0-1.31,0-1.31h4.34l.02-.45h.55c-.01.14-.02.29-.02.45h2.11s0,.5,0,.5h-2.11c.02,1.63.14,2.88.38,3.74.4-.84.67-1.83.83-2.96l.49.17c-.2,1.42-.58,2.59-1.13,3.5.1.28.23.51.39.69s.25.28.29.28c.07,0,.17-.13.28-.39s.19-.63.22-1.11l.49.27ZM225.93,16.51h-.93v.8s.82,0,.82,0v1.81h-.82v.98h.72v.5h-2.57s0-4.56,0-4.56h2.78s0,.48,0,.48ZM224.46,17.31v-.8s-.8,0-.8,0v.8h.8ZM225.3,18.63v-.85h-1.64s0,.85,0,.85h1.64ZM224.46,20.09v-.98h-.8v.98s.8,0,.8,0ZM229.03,13.58h-2.48v.53h-.53s0-.53,0-.53h-1.3v-.49h1.3v-.85s.53,0,.53,0v.85s2.48,0,2.48,0v.49ZM228.7,14.33l-.35.38c-.31-.21-.61-.38-.9-.51l.3-.37c.28.1.6.27.95.5Z"/>
    <path class="cls-5" d="M240.01,13.69h-7.59v1.61c0,2.67-.37,4.73-1.11,6.18l-.49-.35c.28-.47.53-1.14.74-1.99s.31-2.16.31-3.91v-2s3.96,0,3.96,0c-.07-.18-.2-.46-.4-.85l.47-.2c.14.22.31.57.51,1.05h3.6v.46ZM240.04,20.21h-3.43s0,1.17,0,1.17h-.53v-1.17h-3.46v-.47h3.46v-.74s-2.78,0-2.78,0v-3.08h2.78s0-.79,0-.79h-3.21v-.46h3.21v-.64h.53v.64h3.18v.46h-3.18s0,.79,0,.79h2.71s0,3.08,0,3.08h-2.71v.74s3.43,0,3.43,0v.47ZM236.08,17.23v-.84h-2.24v.84s2.24,0,2.24,0ZM236.08,18.55v-.86h-2.24v.86h2.24ZM238.82,17.23v-.84h-2.2v.84h2.2ZM238.82,18.55v-.86h-2.2v.86h2.2Z"/>
    <path class="cls-5" d="M250.43,18.28h-3.69v3.14h-.55v-3.14h-3.71v-4.16h3.71s0-1.85,0-1.85h.55v1.85h3.69s0,4.16,0,4.16ZM246.19,17.71v-3.04h-3.15s0,3.04,0,3.04h3.15ZM249.87,17.71v-3.04h-3.12v3.04h3.12Z"/>
    <path class="cls-5" d="M256.24,13.26h-1.35c-.15,1.03-.37,1.89-.65,2.58h1.81v4.69h-.52v-.45h-1.14v.66h-.52v-4.06c-.15.31-.35.64-.59.99l-.43-.35c.78-1.06,1.3-2.41,1.54-4.07h-1.33v-.54s3.17,0,3.17,0v.54ZM255.51,19.57v-3.2s-1.12,0-1.12,0v3.2s1.12,0,1.12,0ZM262,20.79h-4.19v.59h-.55s0-5.05,0-5.05c-.32.29-.55.5-.7.63l-.34-.38c1.17-1,1.92-1.96,2.26-2.88h-1.38v1.21h-.54s0-1.73,0-1.73h2.14c.15-.42.26-.73.31-.96l.5.12c-.06.28-.15.56-.26.84h2.52s0,1.73,0,1.73h-.53v-1.21s-2.18,0-2.18,0c-.27.67-.69,1.35-1.25,2.03h1.85c-.14-.41-.26-.71-.36-.89l.48-.17c.16.38.29.73.37,1.06h1.7v.51h-1.8v.97h1.65s0,.49,0,.49h-1.65s0,1.03,0,1.03h1.65s0,.47,0,.47h-1.65s0,1.09,0,1.09h1.95s0,.51,0,.51ZM259.52,17.21v-.97s-1.71,0-1.71,0v.97s1.71,0,1.71,0ZM259.52,18.73v-1.03h-1.71v1.03s1.71,0,1.71,0ZM259.52,20.28v-1.09h-1.71v1.09s1.71,0,1.71,0Z"/>
    <path class="cls-5" d="M267.13,13.84h-3.24v-.54s1.41,0,1.41,0c-.13-.36-.27-.68-.42-.96l.47-.18c.23.42.4.8.5,1.14h1.28v.54ZM266.93,15.36h-2.81v-.53s2.81,0,2.81,0v.53ZM266.93,16.85h-2.81v-.53h2.81s0,.53,0,.53ZM266.73,21.12h-.52s0-.56,0-.56h-1.38v.81h-.53s0-3.51,0-3.51h2.43s0,3.26,0,3.26ZM266.21,20.03v-1.64s-1.38,0-1.38,0v1.64h1.38ZM268.28,18.01c-.24,1.12-.5,1.97-.8,2.54l-.48-.21c.34-.72.59-1.54.76-2.46l.52.13ZM272.61,12.49c-.03.77-.07,1.52-.14,2.24s-.12,1.16-.16,1.29-.12.26-.24.37-.27.19-.47.24-.55.07-1.05.04l-.16-.56c.33.02.57.03.72.03.35,0,.59-.1.7-.3s.2-1.14.26-2.82h-1.42c-.13,2.12-1.13,3.47-2.98,4.05l-.32-.43c.81-.28,1.45-.68,1.93-1.22-.34-.4-.78-.77-1.31-1.12l.35-.37c.45.28.87.63,1.26,1.05.31-.55.48-1.2.53-1.97h-2.6s0-.53,0-.53h5.1ZM271.57,19.33c-.04.73-.11,1.2-.2,1.42s-.23.35-.38.41-.48.09-.97.09c-.45,0-.77-.06-.94-.19s-.26-.36-.26-.7v-2.5h.52v2.55c0,.1.05.18.14.24s.35.09.77.09c.32,0,.52-.06.61-.18s.16-.58.22-1.37l.49.14ZM270.92,18.15l-.38.36c-.36-.52-.76-.99-1.2-1.41l.35-.38c.54.5.95.98,1.23,1.43ZM273,20.19l-.5.23c-.15-.75-.41-1.55-.8-2.43l.45-.2c.42.93.7,1.72.85,2.4Z"/>
    <path class="cls-5" d="M277.65,12.39c-.22.53-.54,1.11-.94,1.72v3.94h-.55v-3.17c-.32.39-.67.75-1.04,1.09l-.35-.42c1.02-.96,1.82-2.07,2.4-3.34l.48.19ZM276.78,18.56c-.4,1.04-.85,1.84-1.33,2.42l-.47-.3c.55-.67.99-1.44,1.31-2.32l.49.21ZM283.6,13.04c-.17.68-.36,1.27-.57,1.79l-.53-.13c.17-.4.3-.78.4-1.13h-3.79c-.42.58-.88,1.12-1.38,1.61l-.43-.38c.92-.9,1.57-1.77,1.97-2.62l.51.22c-.07.18-.18.39-.34.64h4.16ZM279.75,15.26c-.6,1-1.18,1.74-1.75,2.22l-.41-.38c.61-.54,1.18-1.26,1.72-2.14l.44.3ZM281.95,19.91c-.04.42-.12.74-.24.95s-.28.35-.49.41-.58.09-1.15.09c-.52,0-.97,0-1.36-.03s-.64-.05-.75-.1-.2-.14-.27-.26-.1-.31-.1-.58v-2.12h.55v2.17c0,.17.06.27.17.32s.91.07,2.39.07c.26,0,.43-.09.53-.26s.16-.48.19-.92l.53.26ZM280.74,19.37l-.42.34c-.3-.56-.69-1.08-1.16-1.57l.41-.35c.51.56.9,1.09,1.17,1.59ZM281.05,17.95h-.55v-3.76h.55s0,3.76,0,3.76ZM283.81,17.02l-.45.36c-.36-.69-.88-1.39-1.55-2.11l.4-.33c.72.73,1.25,1.42,1.6,2.09ZM283.92,20.77l-.49.28c-.33-.73-.8-1.49-1.39-2.27l.43-.3c.68.89,1.16,1.66,1.45,2.29Z"/>
    <path class="cls-5" d="M289.5,21.19h-.53s0-.9,0-.9h-2.26v1.11h-.53v-7.42h.97c.26-.47.51-1.07.75-1.8l.52.11c-.12.37-.36.93-.71,1.69h1.79v7.21ZM288.97,16.76v-2.25h-2.26s0,2.25,0,2.25h2.26ZM288.97,19.76v-2.48h-2.26s0,2.48,0,2.48h2.26ZM294.74,14c-.04,1.57-.12,3.02-.23,4.37-.11,1.35-.22,2.14-.33,2.38s-.26.41-.43.51-.51.15-1,.15c-.21,0-.5,0-.84-.02l-.17-.53c.29.01.59.02.93.02.31,0,.51,0,.6-.01s.18-.05.27-.13.16-.17.2-.28.1-.51.16-1.2.12-1.46.17-2.3c.04-.84.08-1.65.1-2.43h-2.73c-.36.73-.79,1.41-1.27,2.07l-.43-.3c.92-1.2,1.57-2.54,1.95-4.02l.53.14c-.17.56-.36,1.09-.57,1.6h3.1ZM292.81,18.68l-.44.31c-.34-.78-.84-1.59-1.52-2.44l.45-.29c.63.76,1.13,1.56,1.51,2.42Z"/>
    <path class="cls-5" d="M305.95,13.54h-2.81s.41.34.41.34c-.14.39-.33.81-.58,1.27h2.34s0,5.49,0,5.49c0,.22-.07.41-.22.56s-.47.22-.97.22c-.13,0-.28,0-.45-.02l-.18-.54,1.05-.02c.16,0,.25-.08.25-.25v-4.94h-2.11v.92c0,.17.09.26.28.26h1.35v.5h-1.55c-.15,0-.29-.06-.42-.17s-.2-.23-.2-.37v-1.14h-1.41c-.03.52-.23.97-.59,1.36s-.82.65-1.38.79l-.26-.5c1.05-.25,1.6-.8,1.67-1.64h-2.08s0,5.76,0,5.76h-.55v-6.26h2.27c-.17-.5-.36-.93-.57-1.28l.34-.33h-2.69v-.51h4.26c-.09-.23-.2-.47-.35-.73l.56-.16c.16.3.29.59.37.89h4.23v.51ZM303.54,20.2h-4.2s0-2.19,0-2.19h4.2v2.19ZM303.06,13.54h-3.31c.28.64.5,1.18.65,1.6h2.01c.24-.48.45-1.01.65-1.6ZM302.97,19.69v-1.17h-3.09v1.17h3.09Z"/>
    <path class="cls-5" d="M311.8,21.39h-.54s0-.74,0-.74h-2.32s0,.74,0,.74h-.56s0-4.58,0-4.58h3.42v4.58ZM311.25,20.12v-2.76s-2.31,0-2.31,0v2.76h2.31ZM315.65,15.62h-6.17s0-3.11,0-3.11h6.17v3.11ZM315.1,15.1v-2.05s-5.07,0-5.07,0v2.05s5.07,0,5.07,0ZM316.49,21.39h-.56s0-.74,0-.74h-2.33s0,.74,0,.74h-.56v-4.58h3.45v4.58ZM315.93,20.12v-2.76s-2.33,0-2.33,0v2.76s2.33,0,2.33,0Z"/>
  </g>
  <g id="logo">
    <path class="cls-8" d="M190.16,195.71v18.56h-5.03v-2.08c-1.11,1.44-2.98,2.01-4.67,2.01-5.1.04-9.27-4.09-9.3-9.19-.04-5.1,4.1-9.26,9.2-9.3,1.76,0,3.66.65,4.78,2.05v-2.05s5.03,0,5.03,0ZM184.95,204.94c0-1.22-.47-2.37-1.37-3.23-.86-.86-2.01-1.33-3.2-1.29-1.22,0-2.37.47-3.23,1.33-.86.86-1.33,2.01-1.33,3.23,0,1.22.5,2.37,1.37,3.23.86.86,2.01,1.33,3.23,1.33,1.22-.04,2.37-.5,3.2-1.36.86-.86,1.33-2.01,1.33-3.23"/>
    <path class="cls-8" d="M207.12,212.04c-1.65,1.4-3.77,2.23-6.11,2.23-5.1-.04-9.23-4.2-9.2-9.3.04-5.1,4.2-9.23,9.31-9.19,2.3.04,4.42.9,6.04,2.3l-3.34,3.3c-.79-.57-1.72-.9-2.73-.9-1.22,0-2.37.47-3.23,1.29-.86.86-1.33,2.01-1.33,3.23-.04,1.22.43,2.37,1.29,3.23.86.86,2.01,1.33,3.23,1.36,1.01,0,1.94-.32,2.73-.9l3.34,3.34Z"/>
    <path class="cls-8" d="M227.63,205.47v8.8h-4.67v-1.15s0-7.97,0-7.97h-.04v-.11c0-1.18-.47-2.33-1.33-3.19-.86-.86-2.01-1.33-3.23-1.33-1.22,0-2.37.5-3.23,1.36-.86.86-1.33,2.01-1.29,3.23v.04h-.04s0,9.12,0,9.12h-5.03v-23.33h5.03s0,7.18,0,7.18c1.51-1.79,2.87-2.12,4.53-2.26,5.07-.43,9.3,2.84,9.3,9.19v.43Z"/>
    <path class="cls-8" d="M260.32,195.46v5.13c-3.88,0-6.25,3.12-6.25,5.49v8.18s-5.03,0-5.03,0v-8.18s0-10.3,0-10.3h5.03v2.76c.83-2.3,2.51-3.09,6.25-3.09"/>
    <path class="cls-8" d="M279.9,195.71v18.56h-5.03s0-2.08,0-2.08c-1.11,1.44-2.98,2.01-4.67,2.01-5.1.04-9.27-4.09-9.3-9.19-.04-5.1,4.1-9.26,9.2-9.3,1.76,0,3.66.65,4.78,2.05v-2.05s5.03,0,5.03,0ZM274.69,204.94c0-1.22-.47-2.37-1.37-3.23-.86-.86-2.01-1.33-3.2-1.29-1.22,0-2.37.47-3.23,1.33-.86.86-1.33,2.01-1.33,3.23s.5,2.37,1.36,3.23c.86.86,2.01,1.33,3.23,1.33,1.22-.04,2.37-.5,3.2-1.36.86-.86,1.33-2.01,1.33-3.23"/>
    <g>
      <g class="cls-9">
        <g class="cls-10">
          <path class="cls-8" d="M247.43,204.86c0,5.02-4.07,9.09-9.1,9.09s-9.1-4.07-9.1-9.09c0-5.02,4.07-9.09,9.1-9.09,5.02,0,9.1,4.07,9.1,9.09"/>
        </g>
      </g>
      <path class="cls-6" d="M248.26,204.77c-.23-5.33-4.59-9.5-9.93-9.5-4.97,0-9.18,3.69-9.84,8.6,0,0,0,0,0,0,0,.02,0-.02,0,0-.01.12-.05.31-.06.43v.07c-.31,4.43,2.51,8.59,6.79,9.92,6.33,1.96,12.89-2.88,13.03-9.09v-.42ZM238.33,196.53c4.52,0,8.24,3.43,8.63,7.88-6.16,3.75-14.52,1.38-17.18-.69.71-4.13,4.31-7.19,8.54-7.19"/>
    </g>
    <path class="cls-8" d="M165.06,200.71h-5.82s0,4.67,0,4.67h5.39c-.32.83-1.36,1.9-1.62,2.15-1.33,1.29-3.09,2.05-4.96,2.05-1.87,0-3.63-.75-4.92-2.05-1.33-1.33-2.08-3.09-2.08-4.95,0-1.87.75-3.63,2.08-4.95,1.29-1.33,3.05-2.05,4.92-2.05,1.54,0,3.02.5,4.24,1.4l3.59-3.55c-2.12-1.79-4.85-2.87-7.83-2.87-6.65,0-12.04,5.38-12.04,12.03,0,6.64,5.39,12.03,12.04,12.03,2.62,0,5.03-.83,7.01-2.23,0,0,.02-.02.06-.04l4.61,1.84v-7.97s0-5.5,0-5.5h-4.67Z"/>
  </g>
</svg>