<?xml version="1.0" encoding="UTF-8"?>
<svg id="Layer_1" data-name="Layer 1" xmlns="http://www.w3.org/2000/svg" xmlns:xlink="http://www.w3.org/1999/xlink" viewBox="0 0 219 142.88">
  <defs>
    <style>
      .cls-1 {
        fill: #cde2ed;
      }

      .cls-1, .cls-2, .cls-3, .cls-4, .cls-5, .cls-6, .cls-7 {
        stroke-width: 0px;
      }

      .cls-8 {
        clip-path: url(#clippath-2);
      }

      .cls-2 {
        fill: #e5a856;
      }

      .cls-3 {
        fill: none;
      }

      .cls-4 {
        fill: #f2f1ec;
      }

      .cls-5 {
        fill: #fdc164;
      }

      .cls-9 {
        opacity: .15;
      }

      .cls-10 {
        clip-path: url(#clippath);
      }

      .cls-11 {
        clip-path: url(#clippath-3);
      }

      .cls-6 {
        fill: #365b6d;
      }

      .cls-7 {
        fill: #f2f1ec;
      }
    </style>
    <clipPath id="clippath">
      <path class="cls-3" d="M212.54,7.38v129l-17.5-.41-14.05-8.97-.2-.13-14.26,9.1v.41H6.69v-47.96h.32c3.18,0,5.76-6.48,5.76-14.47s-2.58-14.47-5.76-14.47h-.32V7.38h159.84v.41l14.26,9.1.2-.13,14.05-8.97,17.5-.41Z"/>
    </clipPath>
    <clipPath id="clippath-2">
      <rect class="cls-3" x="113.76" y="66.18" width="13.36" height="13.36"/>
    </clipPath>
    <clipPath id="clippath-3">
      <path class="cls-3" d="M180.69,89.5v21.59c0,.47-.05.92-.16,1.36-.72,3.06-3.8,5.37-7.49,5.37H30.49c-4.22,0-7.64-3.01-7.64-6.73V31.94c0-3.72,3.42-6.73,7.64-6.73h142.52c4.24,0,7.67,3.03,7.64,6.76v.7l-.14,24.99.18,31.83Z"/>
    </clipPath>
  </defs>
  <g id="_底" data-name="底">
    <g id="_票卷底層" data-name="票卷底層">
      <g>
        <polygon class="cls-1" points="212.54 7.38 212.54 136.38 195.04 135.97 180.99 127 181.04 126.87 181.04 16.89 180.99 16.76 195.04 7.8 212.54 7.38"/>
        <g>
          <path class="cls-4" d="M181.04,87.18l-.09-.09v-31.84l.09-.09h2.56l.06.02,4.76,3.82.03.05c.01.06,1.27,5.98,1.27,12.53s-1.26,11.66-1.27,11.71l-.03.05-4.76,3.82-.06.02h-2.56Z"/>
          <path class="cls-6" d="M183.61,55.25l4.76,3.82s1.27,5.9,1.27,12.51-1.27,11.68-1.27,11.68l-4.76,3.82h-2.56v-31.84h2.56M183.61,55.07h-2.56l-.18.18v31.84l.18.18h2.56l.11-.04,4.76-3.82.06-.1c.01-.05,1.27-5.17,1.27-11.73s-1.26-12.49-1.27-12.55l-.06-.1-4.76-3.82-.11-.04h0Z"/>
        </g>
        <path class="cls-1" d="M181,32.63v-.69c.02-3.73-3.21-6.76-7.2-6.76H30.34c-4.23,0-7.67,3.02-7.67,6.73v79.15c0,3.72,3.44,6.73,7.67,6.73h143.5c3.47,0,6.37-2.31,7.05-5.37h.15s0,14.47,0,14.47l-.05.13-.2-.13-14.26,9.1v.41H6.69v-47.96h.32c3.18,0,5.76-6.48,5.76-14.47s-2.58-14.47-5.76-14.47h-.32V7.38h159.84v.41l14.26,9.1.2-.13.05.13v15.73h-.04Z"/>
        <g>
          <path class="cls-4" d="M181.04,89.46v21.59c0,.47-.05.92-.16,1.36-.72,3.06-3.81,5.37-7.51,5.37H30.34c-4.23,0-7.67-3.02-7.67-6.73V31.9c0-3.72,3.44-6.73,7.67-6.73h143c4.25,0,7.69,3.04,7.67,6.76v.69l-.14,25,.18,31.83Z"/>
          <path class="cls-6" d="M173.37,117.87H30.34c-4.28,0-7.76-3.06-7.76-6.82V31.9c0-3.76,3.48-6.82,7.76-6.82h143c2.24,0,4.37.85,5.85,2.34,1.24,1.25,1.92,2.86,1.91,4.52v.69l-.14,25,.18,31.83v21.59c0,.46-.05.93-.16,1.38-.74,3.15-3.94,5.44-7.6,5.44ZM30.34,25.26c-4.18,0-7.58,2.98-7.58,6.64v79.15c0,3.66,3.4,6.64,7.58,6.64h143.03c3.58,0,6.7-2.23,7.43-5.3.1-.44.15-.89.15-1.34v-21.59l-.18-31.83.14-25v-.69c.01-1.61-.65-3.17-1.86-4.39-1.44-1.45-3.53-2.28-5.72-2.28H30.34Z"/>
        </g>
      </g>
    </g>
  </g>
  <g id="_形狀遮色片" data-name="形狀遮色片">
    <g class="cls-10">
      <path class="cls-6" d="M117.78,22.78c-5.82,16.55-19.81,15.77-42.01,11.27-18.81-3.81-30.01,7.46-29.28,20.91.78,14.4-23.05,26.27-44.01,27.28S1.03,31.15,1.03,31.15L-7.52,12.6s40.88,19.12,57.28-3.46c36.73-50.55,77-11.93,68.01,13.64Z"/>
      <path class="cls-6" d="M99.02,151.11c1.12-4.4,13.26-19.37,33.92-21.44,18.74-1.88,30.44,8.34,39.54-14.28,14.39-35.78,31.62-11.13,34.95-50.16,2.4-28.1,44.7,38.82,49.47,70.63.47,3.16-9.77,7.74-42.01,4.23s-13.04,11.23-39.92,16.19c-7.49,1.38-15.27-4.47-25.84-10.61-10.57-6.14-12.18,3.37-22.69-3.42s-28.1,11.55-27.42,8.86Z"/>
    </g>
  </g>
  <g id="_此處撕開" data-name="此處撕開">
    <rect class="cls-4" x="194.91" y="43.24" width="12.89" height="55.79" rx="6.44" ry="6.44"/>
    <g>
      <path class="cls-6" d="M201.61,54.13h-1.31v3.43c.64-.18,1.06-.31,1.27-.39l.02.47c-1.25.41-2.59.77-4.03,1.08l-.1-.44c.2-.04.47-.1.83-.18v-5.7h.44v5.57c.38-.08.76-.18,1.12-.29v-6.45h.45v2.43h1.31v.46ZM204.91,56.38c-.02.63-.07,1.13-.17,1.49s-.22.59-.39.67c-.17.09-.5.13-.98.13-.37,0-.64,0-.79-.02-.16-.02-.28-.09-.38-.23-.1-.14-.15-.3-.15-.49v-6.69h.46v2.43h2.14v.44h-2.14v3.86c0,.11.05.17.14.2.09.03.41.04.97.04.23,0,.39-.02.45-.05.07-.03.12-.08.17-.15.04-.07.09-.28.13-.64.05-.35.07-.73.08-1.12l.46.11Z"/>
      <path class="cls-6" d="M204.74,63.11c-.19.6-.4,1.09-.63,1.46l-.44-.13c.22-.39.36-.69.42-.88h-3.12v.6l2.29-.17.03.42-2.33.16v.35s.02.1.05.14c.03.05.07.07.12.07h2.87v.41h-2.94c-.38,0-.57-.17-.57-.52v-.41l-1.31.09-.05-.41,1.36-.09v-.63h-1.79v1.63c0,1.36-.27,2.61-.82,3.76l-.41-.24c.54-1.04.81-2.2.81-3.47v-2.11h2.39v-1.49h.48v.46h3.24v.41h-3.24v.62h3.58ZM205.04,68.51l-.12.45c-1.74-.03-2.82-.06-3.25-.1-.43-.04-.83-.18-1.21-.4-.5.34-.93.57-1.29.69l-.34-.35c.51-.15.94-.35,1.27-.59-.23-.23-.44-.49-.61-.78-.15.17-.32.33-.52.47l-.3-.29c.6-.45,1.05-1.15,1.33-2.08l.42.13c-.07.22-.14.42-.22.6h1.45v.43c-.17.52-.45,1.01-.85,1.48.32.16.67.26,1.07.3.4.04,1.46.06,3.17.06ZM201.17,66.67h-1.17s-.1.18-.25.4c.22.37.44.64.68.83.32-.33.57-.74.74-1.23ZM204.81,66.94c-.02.44-.05.72-.09.83-.04.11-.11.19-.2.26-.09.07-.3.1-.62.1-.37,0-.55-.18-.55-.53v-1.14h-.69c-.02.72-.27,1.31-.75,1.78l-.34-.26c.5-.46.73-1.1.7-1.95h1.54v1.55c0,.1.08.15.24.15.13,0,.21-.04.26-.12s.08-.34.09-.78l.42.11Z"/>
      <path class="cls-6" d="M199.63,75.76c-.26.14-.52.26-.78.36v2.64c0,.37-.25.55-.75.55-.1,0-.2,0-.28-.01l-.16-.44c.2.01.38.02.52.02s.23-.06.23-.19v-2.37c-.37.15-.65.25-.85.31l-.12-.43c.44-.14.77-.25.97-.34v-2.08h-.94v-.41h.94v-1.52h.44v1.52h.61v.41h-.61v1.89c.25-.11.48-.22.71-.34l.07.44ZM200.71,77.69c-.25.58-.62,1.12-1.1,1.65l-.37-.28c.49-.5.85-1.03,1.08-1.57l.39.21ZM202.32,77.26h-2.84v-.43h.53v-3.37h-.32v-.43h.32v-1.19h.42v1.19h1.05v-1.19h.44v1.19h.4v.43h-.4v3.37h.4v.43ZM201.48,74.25v-.79h-1.05v.79h1.05ZM201.48,75.51v-.83h-1.05v.83h1.05ZM201.48,76.83v-.89h-1.05v.89h1.05ZM202.09,78.43l-.39.26c-.1-.34-.26-.65-.47-.95l.36-.23c.2.27.37.57.51.92ZM204.94,74.85h-.58v4.51h-.42v-4.51h-.8v.7c0,1.56-.23,2.81-.7,3.74l-.36-.29c.43-.86.65-2.02.65-3.48v-3.04c.67-.12,1.31-.32,1.9-.59l.26.38c-.72.29-1.3.48-1.75.57v1.59h1.8v.44Z"/>
      <path class="cls-6" d="M200.8,84.95h-2.53v4.67h-.44v-7.24h2.97v2.57ZM200.35,83.43v-.65h-2.08v.65h2.08ZM200.35,84.54v-.7h-2.08v.7h2.08ZM203.68,87.42h-1.36v2.02h-.44v-2.02h-1.3c-.04.8-.39,1.48-1.06,2.06l-.43-.25c.67-.56,1.02-1.16,1.06-1.81h-1.39v-.43h1.42v-.99h-1.13v-.41h4.31v.41h-1.02v.99h1.36v.43ZM201.88,86.99v-.99h-1.26v.99h1.26ZM204.57,88.98c0,.24-.07.4-.2.49-.14.09-.38.13-.73.13-.15,0-.3,0-.48,0l-.17-.45c.14.02.46.03.94.03.13,0,.19-.06.19-.19v-4.04h-2.51v-2.57h2.95v6.61ZM204.12,83.43v-.65h-2.05v.65h2.05ZM204.12,84.54v-.7h-2.05v.7h2.05Z"/>
    </g>
  </g>
  <g id="_內層" data-name="內層">
    <g>
      <path class="cls-4" d="M180.88,87.22l-.09-.09v-31.84l.09-.09h2.56l.06.02,4.76,3.82.03.05c.01.06,1.27,5.98,1.27,12.53s-1.26,11.66-1.27,11.71l-.03.05-4.76,3.82-.06.02h-2.56Z"/>
      <path class="cls-6" d="M183.44,55.3l4.76,3.82s1.27,5.9,1.27,12.51-1.27,11.68-1.27,11.68l-4.76,3.82h-2.56v-31.84h2.56M183.44,55.11h-2.56l-.18.18v31.84l.18.18h2.56l.11-.04,4.76-3.82.06-.1c.01-.05,1.27-5.17,1.27-11.73s-1.26-12.49-1.27-12.55l-.06-.1-4.76-3.82-.11-.04h0Z"/>
    </g>
    <g>
      <path class="cls-4" d="M180.92,89.5v21.59c0,.47-.05.92-.16,1.36-.72,3.06-3.81,5.37-7.5,5.37H30.37c-4.23,0-7.66-3.01-7.66-6.73V31.94c0-3.72,3.43-6.73,7.66-6.73h142.85c4.25,0,7.68,3.03,7.66,6.76v.7l-.14,24.99.18,31.83Z"/>
      <path class="cls-6" d="M173.25,117.91H30.37c-4.27,0-7.75-3.06-7.75-6.82V31.94c0-3.76,3.48-6.82,7.75-6.82h142.85c2.24,0,4.37.85,5.84,2.33,1.24,1.25,1.92,2.86,1.91,4.52v.69l-.14,24.99.18,31.83v21.59c0,.46-.05.93-.16,1.38-.74,3.15-3.93,5.44-7.59,5.44ZM30.37,25.3c-4.17,0-7.57,2.98-7.57,6.64v79.15c0,3.66,3.4,6.64,7.57,6.64h142.89c3.57,0,6.69-2.23,7.42-5.3.1-.44.15-.89.15-1.34v-21.59l-.18-31.84.14-25v-.69c.01-1.62-.65-3.18-1.86-4.39-1.44-1.45-3.52-2.28-5.71-2.28H30.37Z"/>
    </g>
    <g id="logo">
      <path class="cls-6" d="M85.07,66.14v13.64h-3.69v-1.53c-.82,1.06-2.19,1.48-3.43,1.48-3.75.03-6.81-3.01-6.83-6.75-.03-3.75,3.01-6.81,6.75-6.83,1.29,0,2.69.47,3.51,1.5v-1.5h3.69ZM81.25,72.91c0-.9-.34-1.74-1-2.37-.63-.63-1.48-.98-2.35-.95-.9,0-1.74.34-2.37.98-.63.63-.98,1.48-.98,2.37s.37,1.74,1,2.37c.63.63,1.48.98,2.37.98.9-.03,1.74-.37,2.35-1,.63-.63.98-1.48.98-2.37h0Z"/>
      <path class="cls-6" d="M97.52,78.14c-1.21,1.03-2.77,1.64-4.48,1.64-3.75-.03-6.78-3.09-6.75-6.83.03-3.75,3.09-6.78,6.83-6.75,1.69.03,3.24.66,4.43,1.69l-2.45,2.43c-.58-.42-1.27-.66-2-.66-.9,0-1.74.34-2.37.95-.63.63-.98,1.48-.98,2.37-.03.9.32,1.74.95,2.37.63.63,1.48.98,2.37,1,.74,0,1.42-.24,2-.66l2.45,2.45Z"/>
      <path class="cls-6" d="M112.58,73.31v6.46h-3.43v-6.7h-.03v-.08c0-.87-.34-1.71-.98-2.35-.63-.63-1.48-.98-2.37-.98s-1.74.37-2.37,1c-.63.63-.98,1.48-.95,2.37v.03h-.03v6.7h-3.69v-17.15h3.69v5.28c1.11-1.32,2.11-1.56,3.32-1.66,3.72-.32,6.83,2.08,6.83,6.75v.32Z"/>
      <path class="cls-6" d="M136.59,65.95v3.77c-2.85,0-4.59,2.3-4.59,4.04v6.01h-3.69v-13.59h3.69v2.03c.61-1.69,1.85-2.27,4.59-2.27h0Z"/>
      <path class="cls-6" d="M150.96,66.14v13.64h-3.69v-1.53c-.82,1.06-2.19,1.48-3.43,1.48-3.75.03-6.81-3.01-6.83-6.75-.03-3.75,3.01-6.81,6.75-6.83,1.29,0,2.69.47,3.51,1.5v-1.5h3.69ZM147.14,72.91c0-.9-.34-1.74-1-2.37-.63-.63-1.48-.98-2.35-.95-.9,0-1.74.34-2.37.98-.63.63-.98,1.48-.98,2.37s.37,1.74,1,2.37c.63.63,1.48.98,2.37.98.9-.03,1.74-.37,2.35-1,.63-.63.98-1.48.98-2.37h0Z"/>
      <g>
        <g class="cls-9">
          <g class="cls-8">
            <path class="cls-7" d="M127.12,72.86c0,3.69-2.99,6.68-6.68,6.68s-6.68-2.99-6.68-6.68,2.99-6.68,6.68-6.68,6.68,2.99,6.68,6.68"/>
          </g>
        </g>
        <path class="cls-5" d="M127.73,72.79c-.17-3.92-3.37-6.98-7.29-6.98-3.65,0-6.74,2.71-7.23,6.32,0,0,0,0,0,0,0,.02,0-.02,0,0-.01.09-.04.23-.04.32v.05c-.23,3.26,1.85,6.31,4.99,7.29,4.65,1.44,9.46-2.12,9.57-6.68v-.31ZM120.44,66.74c3.32,0,6.05,2.52,6.34,5.79-4.52,2.75-10.66,1.01-12.61-.51.52-3.03,3.17-5.28,6.27-5.28h0Z"/>
      </g>
      <path class="cls-6" d="M66.64,69.81h-4.27v3.43h3.96c-.24.61-1,1.4-1.19,1.58-.98.95-2.27,1.5-3.64,1.5s-2.66-.55-3.61-1.5c-.98-.98-1.53-2.27-1.53-3.64s.55-2.66,1.53-3.64c.95-.98,2.24-1.5,3.61-1.5,1.13,0,2.22.37,3.11,1.03l2.64-2.61c-1.56-1.32-3.56-2.11-5.75-2.11-4.88,0-8.84,3.96-8.84,8.84s3.96,8.84,8.84,8.84c1.93,0,3.69-.61,5.14-1.64,0,0,.02-.01.04-.03l3.39,1.36v-9.9h-3.43Z"/>
    </g>
    <path class="cls-2" d="M166.45,31.16c.24.59.31,1.07.32,1.52.01.7.32,1.07.96,1.24.11.03.21.1.32.15-.01.04-.02.09-.03.09-1.23.2-1.23,1.27-1.5,2.14-.06.19-.09.4-.13.63-.29-.11-.26-.37-.32-.58-.04-.17-.12-.33-.12-.5.01-.85-.36-1.41-1.21-1.62-.16-.04-.33-.1-.44-.25.28-.2.62-.17.93-.22.39-.06.6-.24.68-.63.14-.62.32-1.22.52-1.99Z"/>
    <path class="cls-4" d="M70.25,95.17c.24.59.31,1.07.32,1.52.01.7.32,1.07.96,1.24.11.03.21.1.32.15-.01.04-.02.09-.03.09-1.23.2-1.23,1.27-1.5,2.14-.06.19-.09.4-.13.63-.29-.11-.26-.37-.32-.58-.04-.17-.12-.33-.12-.5.01-.85-.36-1.41-1.21-1.62-.16-.04-.33-.1-.44-.25.28-.2.62-.17.93-.22.39-.06.6-.24.68-.63.14-.62.32-1.22.52-1.99Z"/>
    <path class="cls-2" d="M55.17,41.44c.31.75.4,1.37.41,1.95.02.89.41,1.37,1.23,1.59.14.04.27.13.41.2-.02.05-.02.12-.04.12-1.58.26-1.57,1.63-1.92,2.74-.08.25-.11.51-.17.8-.37-.15-.34-.47-.4-.75-.05-.21-.15-.42-.15-.64.01-1.09-.45-1.8-1.54-2.07-.2-.05-.42-.13-.57-.32.36-.25.79-.22,1.2-.28.49-.07.77-.31.88-.81.17-.79.41-1.56.66-2.54Z"/>
    <path class="cls-4" d="M136.42,50.41c.23.57.3,1.03.31,1.47.01.67.31,1.04.93,1.2.11.03.21.1.31.15-.01.04-.02.09-.03.09-1.19.2-1.19,1.23-1.45,2.07-.06.19-.08.38-.13.61-.28-.11-.26-.36-.3-.56-.04-.16-.11-.32-.11-.48.01-.83-.34-1.36-1.17-1.57-.15-.04-.32-.1-.43-.24.27-.19.6-.16.9-.21.37-.06.58-.23.66-.61.13-.59.31-1.18.5-1.92Z"/>
    <path class="cls-2" d="M158.02,94.35c.46,1.13.6,2.06.62,2.93.03,1.34.62,2.06,1.85,2.39.22.06.41.2.62.3-.02.08-.03.18-.06.18-2.37.39-2.37,2.45-2.88,4.13-.11.37-.17.77-.26,1.21-.56-.22-.51-.71-.61-1.12-.08-.32-.23-.64-.22-.96.02-1.64-.68-2.71-2.32-3.12-.31-.08-.63-.2-.85-.48.54-.38,1.19-.33,1.8-.42.74-.11,1.15-.46,1.32-1.22.26-1.19.61-2.35,1-3.82Z"/>
    <circle class="cls-2" cx="59.54" cy="88.71" r=".8"/>
    <circle class="cls-4" cx="131.58" cy="39.35" r=".8"/>
    <circle class="cls-2" cx="109.44" cy="103.15" r=".8"/>
    <circle class="cls-4" cx="149.73" cy="91.37" r=".8"/>
    <g class="cls-11">
      <path class="cls-6" d="M117.71,22.87c-5.82,16.55-19.81,15.77-42.01,11.27-18.81-3.81-30.01,7.46-29.28,20.91.78,14.4-23.05,26.27-44.01,27.28S.96,31.24.96,31.24L-7.59,12.69s40.88,19.12,57.28-3.46c36.73-50.55,77-11.93,68.01,13.64Z"/>
      <path class="cls-6" d="M99.13,150.83c1.12-4.4,13.26-19.37,33.92-21.44,18.74-1.88,30.44,8.34,39.54-14.28,14.39-35.78,31.62-11.13,34.95-50.16,2.4-28.1,44.7,38.82,49.47,70.63.47,3.16-9.77,7.74-42.01,4.23-32.25-3.51-13.04,11.23-39.92,16.19-7.49,1.38-15.27-4.47-25.84-10.61s-12.18,3.37-22.69-3.42c-10.5-6.78-28.1,11.55-27.42,8.86Z"/>
    </g>
    <path class="cls-2" d="M182.54,72.56l2.67,3.14c.57.67,1.67.27,1.67-.61v-6.28c0-.88-1.1-1.28-1.67-.61l-2.67,3.14c-.3.35-.3.87,0,1.23Z"/>
  </g>
</svg>