<?xml version="1.0" encoding="UTF-8"?>
<svg id="Layer_2" data-name="Layer 2" xmlns="http://www.w3.org/2000/svg" version="1.1" xmlns:xlink="http://www.w3.org/1999/xlink" viewBox="0 0 406.64 231.29">
  <defs>
    <style>
      .cls-1 {
        fill: #cde2ed;
      }

      .cls-1, .cls-2, .cls-3, .cls-4, .cls-5, .cls-6, .cls-7, .cls-8 {
        stroke-width: 0px;
      }

      .cls-2 {
        fill: #e5a856;
      }

      .cls-3, .cls-9 {
        fill: none;
      }

      .cls-10 {
        clip-path: url(#clippath-1);
      }

      .cls-9 {
        stroke: #365b6d;
        stroke-miterlimit: 10;
      }

      .cls-4 {
        fill: #666;
      }

      .cls-5 {
        fill: #f2f1ec;
      }

      .cls-6 {
        fill: #fdc164;
      }

      .cls-11 {
        opacity: .15;
      }

      .cls-12 {
        clip-path: url(#clippath);
      }

      .cls-7 {
        fill: #365b6d;
      }

      .cls-8 {
        fill: #f2f1ec;
      }
    </style>
    <clipPath id="clippath">
      <path class="cls-3" d="M29.9,160.04v52.61c0,1.14.13,2.25.36,3.32,1.65,7.46,8.72,13.08,17.19,13.08h327.24c9.69,0,17.55-7.35,17.55-16.4V19.77c0-9.06-7.86-16.4-17.55-16.4H47.54c-9.72,0-17.6,7.4-17.55,16.49v1.69s.32,60.91.32,60.91l-.41,77.58Z"/>
    </clipPath>
    <clipPath id="clippath-1">
      <rect class="cls-3" x="231.89" y="196.91" width="18.49" height="18.49"/>
    </clipPath>
  </defs>
  <g id="_撕開底層" data-name="撕開底層">
    <g>
      <path class="cls-1" d="M23.83,154.68l-.14-.05-11.6-9.31-.08-.12c-.03-.12-3.09-12.56-3.09-28.53s3.06-30.39,3.09-30.54l.08-.13,11.6-9.31.14-.05h6.25l.22.22v77.58l-.22.22h-6.25Z"/>
      <path class="cls-7" d="M30.08,76.88v77.58h-6.25l-11.6-9.31s-3.09-12.35-3.09-28.47,3.09-30.49,3.09-30.49l11.6-9.31h6.25M30.08,76.43h-6.25l-.28.1-11.6,9.31-.16.25c-.03.14-3.1,14.6-3.1,30.58s3.07,28.46,3.1,28.58l.15.24,11.6,9.31.28.1h6.25l.44-.44v-77.58l-.44-.44h0Z"/>
    </g>
    <g>
      <path class="cls-5" d="M30.09,160.24v52.61c0,1.14.13,2.25.36,3.32,1.65,7.46,8.72,13.08,17.19,13.08h327.24c9.69,0,17.55-7.35,17.55-16.4V19.96c0-9.06-7.86-16.4-17.55-16.4H47.72c-9.72,0-17.6,7.4-17.55,16.49v1.69s.32,60.91.32,60.91l-.41,77.58Z"/>
      <path class="cls-7" d="M374.87,229.47H47.63c-8.39,0-15.71-5.57-17.4-13.26-.24-1.11-.36-2.24-.36-3.37v-52.61l.41-77.58-.32-60.91v-1.7c-.03-4.24,1.66-8.29,4.75-11.4,3.35-3.37,8.1-5.31,13.02-5.31h327.15c9.8,0,17.77,7.46,17.77,16.62v192.88c0,9.17-7.97,16.62-17.77,16.62ZM30.31,160.24v52.61c0,1.09.12,2.19.35,3.27,1.65,7.48,8.79,12.91,16.97,12.91h327.24c9.55,0,17.32-7.26,17.32-16.18V19.96c0-8.92-7.77-16.18-17.32-16.18H47.72c-4.8,0-9.43,1.89-12.7,5.18-3.01,3.02-4.65,6.96-4.62,11.09v1.7l.32,60.91-.41,77.59h0Z"/>
    </g>
  </g>
  <g id="_底層色彩" data-name="底層色彩">
    <g class="cls-12">
      <rect class="cls-2" x="21.63" y="3.44" width="381.13" height="26.47"/>
      <rect class="cls-7" x="20.74" y="180.71" width="381.13" height="48.75"/>
    </g>
  </g>
  <rect id="_淺藍底" data-name="淺藍底" class="cls-1" x="30.27" y="49.53" width="362.07" height="131.18"/>
  <g id="A賞">
    <path class="cls-4" d="M154.63,115.39c0-32.44,20.87-51.45,45.74-51.45,12.5,0,22.47,5.98,28.85,12.63l-10.24,12.5c-5.05-4.79-10.77-8.24-18.21-8.24-14.89,0-26.06,12.76-26.06,33.9s10.1,34.3,25.66,34.3c8.51,0,15.02-3.99,20.34-9.71l10.37,12.23c-8.11,9.44-18.61,14.49-31.38,14.49-24.86,0-45.07-17.82-45.07-50.66Z"/>
    <path class="cls-4" d="M271.11,157.64c4.17,1.15,8.69,2.61,11.48,3.68l-5.5,2.79c-2.66-1.15-7.31-2.84-11.92-4.17l3.41-2.31h-12.68l4.61,1.73c-3.37,2.3-9,3.99-13.61,5.01-.89-1.11-2.79-3.06-3.9-3.94,4.39-.53,9.31-1.51,12.05-2.79h-6.38v-15.91h28.94v15.91h-6.52ZM249.08,135.7h-4.87v-8.42h6.12c-.62-1.06-1.42-2.22-2.13-3.15l4.7-1.28c1.15,1.28,2.35,3.06,2.97,4.25l-.53.18h4.79v-4.61h5.23v4.61h4.88c.98-1.33,2.17-3.19,2.79-4.57l5.41,1.29c-.89,1.24-1.82,2.35-2.66,3.28h6.16v8.42h-5.14v-4.83h-27.7v4.83ZM251.26,140.23v-7.71h23.53v7.71h-23.53ZM253.69,146.12h18.7v-1.55h-18.7v1.55ZM253.69,150.42h18.7v-1.55h-18.7v1.55ZM253.69,154.76h18.7v-1.6h-18.7v1.6ZM256.13,137.3h13.43v-1.86h-13.43v1.86Z"/>
  </g>
  <g id="logo">
    <path class="cls-8" d="M192.19,196.84v18.87h-5.11v-2.12c-1.13,1.46-3.03,2.04-4.74,2.04-5.18.04-9.42-4.16-9.45-9.34-.04-5.18,4.16-9.42,9.34-9.45,1.79,0,3.72.66,4.85,2.08v-2.08h5.11ZM186.9,206.22c0-1.24-.47-2.41-1.39-3.28-.88-.88-2.04-1.35-3.25-1.31-1.24,0-2.41.47-3.28,1.35-.88.88-1.35,2.04-1.35,3.28s.51,2.41,1.39,3.28c.88.88,2.04,1.35,3.28,1.35,1.24-.04,2.41-.51,3.25-1.39.88-.88,1.35-2.04,1.35-3.28"/>
    <path class="cls-8" d="M209.42,213.45c-1.68,1.42-3.83,2.26-6.2,2.26-5.18-.04-9.38-4.27-9.34-9.45.04-5.18,4.27-9.38,9.45-9.34,2.34.04,4.49.91,6.13,2.34l-3.39,3.36c-.8-.58-1.75-.91-2.77-.91-1.24,0-2.41.47-3.28,1.31-.88.88-1.35,2.04-1.35,3.28-.04,1.24.44,2.41,1.31,3.28.88.88,2.04,1.35,3.29,1.39,1.02,0,1.97-.33,2.77-.91l3.39,3.39Z"/>
    <path class="cls-8" d="M230.26,206.77v8.94h-4.74v-9.27h-.04v-.11c0-1.2-.47-2.37-1.35-3.25-.88-.88-2.04-1.35-3.28-1.35s-2.41.51-3.28,1.39c-.88.88-1.35,2.04-1.31,3.28v.04h-.04v9.27h-5.11v-23.72h5.11v7.3c1.53-1.82,2.92-2.15,4.6-2.3,5.15-.44,9.45,2.88,9.45,9.34v.44Z"/>
    <path class="cls-8" d="M263.47,196.59v5.22c-3.94,0-6.35,3.18-6.35,5.58v8.32h-5.11v-18.8h5.11v2.81c.84-2.34,2.55-3.14,6.35-3.14"/>
    <path class="cls-8" d="M283.36,196.84v18.87h-5.11v-2.12c-1.13,1.46-3.03,2.04-4.74,2.04-5.18.04-9.42-4.16-9.45-9.34-.04-5.18,4.16-9.42,9.34-9.45,1.79,0,3.72.66,4.85,2.08v-2.08h5.11ZM278.07,206.22c0-1.24-.47-2.41-1.39-3.28-.88-.88-2.04-1.35-3.25-1.31-1.24,0-2.41.47-3.29,1.35-.88.88-1.35,2.04-1.35,3.28s.51,2.41,1.39,3.28c.88.88,2.04,1.35,3.29,1.35,1.24-.04,2.41-.51,3.25-1.39.88-.88,1.35-2.04,1.35-3.28"/>
    <g>
      <g class="cls-11">
        <g class="cls-10">
          <path class="cls-8" d="M250.38,206.15c0,5.1-4.14,9.24-9.24,9.24s-9.24-4.14-9.24-9.24,4.14-9.24,9.24-9.24,9.24,4.14,9.24,9.24"/>
        </g>
      </g>
      <path class="cls-6" d="M251.22,206.05c-.23-5.42-4.66-9.66-10.09-9.66-5.05,0-9.33,3.75-10,8.74,0,0,0,0,0,0,0,.03,0-.03,0,0-.01.13-.05.31-.06.44v.07c-.31,4.5,2.55,8.74,6.9,10.08,6.43,1.99,13.09-2.93,13.24-9.24v-.43ZM241.13,197.68c4.59,0,8.37,3.49,8.77,8.02-6.26,3.81-14.75,1.4-17.45-.71.72-4.19,4.38-7.31,8.68-7.31"/>
    </g>
    <path class="cls-8" d="M166.69,201.93h-5.91v4.74h5.47c-.33.84-1.39,1.93-1.64,2.19-1.35,1.31-3.14,2.08-5.04,2.08s-3.69-.77-5-2.08c-1.35-1.35-2.12-3.14-2.12-5.04s.77-3.69,2.12-5.04c1.31-1.35,3.1-2.08,5-2.08,1.57,0,3.07.51,4.31,1.42l3.65-3.61c-2.15-1.82-4.93-2.92-7.96-2.92-6.75,0-12.23,5.47-12.23,12.23s5.47,12.23,12.23,12.23c2.66,0,5.11-.84,7.12-2.26,0,0,.02-.02.06-.04l4.69,1.87v-13.69h-4.74Z"/>
  </g>
  <g>
    <path class="cls-5" d="M113.9,16.23c.67.83,1.73,1.58,2.75,1.96-.17.15-.39.43-.51.63-1.17-.5-2.36-1.5-3.06-2.58h-2.77c-.71,1.15-1.86,2.06-3.02,2.67-.11-.16-.4-.45-.57-.59,1.06-.48,2.05-1.2,2.68-2.08h-2.38v-.73h2.58v-1.4h-1.9v-.73h1.9v-1.31h.78v1.31h2.61v-1.31h.78v1.31h1.94v.73h-1.94v1.4h2.65v.73h-2.51ZM109.77,18.35c-.34.76-.81,1.68-1.44,2.28l-.65-.38c.63-.55,1.14-1.44,1.41-2.17l.67.28ZM110.67,17.17h.76v3.68c0,.44-.09.65-.39.78-.32.12-.81.13-1.55.13-.03-.22-.13-.52-.23-.74.57.02,1.07.02,1.22.01.16-.01.2-.04.2-.17v-3.68ZM110.38,15.49h2.61v-1.4h-2.61v1.4ZM112.64,18.18c.35.71.63,1.64.72,2.25l-.69.17c-.07-.63-.35-1.56-.68-2.28l.65-.15ZM114,17.8c.66.78,1.33,1.83,1.64,2.54l-.68.31c-.29-.7-.96-1.8-1.6-2.58l.64-.27Z"/>
    <path class="cls-5" d="M127.63,18v.63h-9.53v-.63h2.67c-.08-.23-.21-.49-.34-.69l.4-.12h-1.16v-1.93h6.41v1.93h-.94l.19.04c-.15.28-.32.54-.47.77h2.76ZM122.44,13.41h-4.01v-.6h4.01v-.77h.8v.77h4.11v.6h-4.11v.73h3.39v.59h-7.46v-.59h3.27v-.73ZM119.49,19.22h6.82v2.54h-.8v-.32h-5.24v.33h-.78v-2.55ZM120.26,19.79v1.07h5.24v-1.07h-5.24ZM120.43,16.65h4.87v-.84h-4.87v.84ZM121.2,17.2c.17.26.33.57.39.81h2.49c.13-.24.29-.55.38-.81h-3.27Z"/>
    <path class="cls-5" d="M138.28,13.95v4.98h-.81v-.61h-3.05v3.45h-.82v-3.45h-3.04v.66h-.78v-5.03h3.82v-1.89h.82v1.89h3.86ZM133.6,17.55v-2.82h-3.04v2.82h3.04ZM137.47,17.55v-2.82h-3.05v2.82h3.05Z"/>
    <path class="cls-5" d="M146.01,19.48c1.33.49,3.12,1.2,4.07,1.66l-.38.63c-.94-.48-2.82-1.28-4.2-1.81l.33-.48h-.5c-.42.88-1.56,1.81-4.56,2.32-.09-.18-.28-.47-.45-.64,2.46-.4,3.57-1.05,4.08-1.68h-4v-.67h4.32c.03-.15.04-.28.04-.4v-.65h.78v.67c0,.13-.01.24-.02.38h2.17c-.23-.22-.57-.49-.85-.69l.32-.29h-.37c-.03-.19-.13-.43-.22-.62.49.02.91.02,1.03.02.14-.01.17-.04.17-.16v-1.05h-2.48c.43.25.89.64,1.13.94l-.52.43c-.22-.31-.72-.73-1.15-1.01l.45-.35h-1.27v-.56h3.84v-.78h.76v.78h1.34v.56h-1.34v1.07c0,.37-.07.53-.36.64-.18.06-.46.08-.83.1.33.22.74.53.95.74l-.22.23h1.99v.67h-4.03ZM141.93,16.08c0,.54-.17,1.49-.9,2.08-.14-.11-.44-.27-.61-.35.67-.52.8-1.31.8-1.76v-.1h-.77v-.65h2.33v-.81h-1.83v-2.18h.69v1.54h1.14v-1.78h.73v5.99h-.73v-2.12h-.85v.12ZM149.51,12.81c-.95,1.63-3.12,2.33-5.32,2.64-.06-.16-.2-.37-.32-.5,1.04-.12,2.08-.34,2.98-.71-.28-.32-.66-.69-1.03-.98-.44.19-.89.36-1.41.52-.1-.15-.3-.36-.44-.46,1.3-.34,2.3-.81,2.86-1.29l.69.15c-.16.15-.34.29-.54.43h1.98l.14-.03.41.23ZM146.04,14.3c-.65.06-1.23.11-1.78.15l-.08-.47c.52-.03,1.14-.07,1.85-.12v.44ZM146.38,13.1c.36.28.71.6.98.89.47-.24.86-.53,1.18-.89h-2.16Z"/>
    <path class="cls-5" d="M152.06,20.37c0-.45.32-.75.7-.75s.7.31.7.75-.31.73-.7.73-.7-.3-.7-.73ZM152.31,14.1l-.03-1.11h.99l-.03,1.11-.13,4.51h-.67l-.13-4.51Z"/>
    <path class="cls-5" d="M155.53,13.85h3.65v.65h-3.65v-.65ZM158.87,15.81h-3.1v-.63h3.1v.63ZM155.79,16.62h3.1v.63h-3.1v-.63ZM158.85,21.15h-2.33v.49h-.69v-3.56h3.02v3.07ZM156.52,18.73v1.78h1.63v-1.78h-1.63ZM157.32,13.73c-.1-.38-.33-.99-.53-1.44l.66-.2c.22.44.46,1.02.56,1.39l-.69.24ZM164.58,20.95c0,.38-.07.57-.36.69-.27.12-.7.12-1.37.12-.03-.2-.12-.47-.22-.66.48.02.91.02,1.04.01.14,0,.17-.04.17-.16v-.9h-3.3c-.12.67-.33,1.34-.77,1.86-.12-.15-.39-.44-.55-.52.63-.8.7-1.87.7-2.71v-1.96h4.66v4.23ZM165.2,15.48v.61h-5.9v-.61h2.51v-.72h-2.13v-.57h2.13v-.65h-2.39v-.61h2.39v-.86h.78v.86h2.51v.61h-2.51v.65h2.31v.57h-2.31v.72h2.62ZM163.84,19.48v-.79h-3.19c0,.24-.01.51-.03.79h3.22ZM160.65,17.34v.79h3.19v-.79h-3.19Z"/>
    <path class="cls-5" d="M176.24,20.62v.74h-9.43v-.74h4.29v-1.96h-3.36v-.73h3.36v-1.38h.8v1.38h3.46v.73h-3.46v1.96h4.35ZM175.16,16.8c-.17-.22-.4-.49-.68-.77-5.73.28-6.31.3-6.7.44-.04-.18-.16-.57-.26-.79.2-.03.45-.21.73-.5.27-.21.99-.95,1.6-1.79h-2.81v-.74h8.86v.74h-5.02c-.63.82-1.31,1.58-1.98,2.19l4.91-.2c-.44-.39-.89-.79-1.32-1.12l.63-.4c.96.71,2.14,1.74,2.7,2.46l-.67.48Z"/>
    <path class="cls-5" d="M180.95,20.12v1.66h-.74v-1.66h-2.4v-.7h2.4v-.76h-1.97v-3.6h4.73v3.6h-2.02v.76h2.37v.7h-2.37ZM180.34,14.51h-2.18v-2.12h2.18v2.12ZM179.73,12.94h-.97v1.01h.97v-1.01ZM178.91,16.57h1.33v-.88h-1.33v.88ZM178.91,18.05h1.33v-.89h-1.33v.89ZM183.07,14.51h-2.22v-2.12h2.22v2.12ZM182.28,15.69h-1.36v.88h1.36v-.88ZM182.28,17.15h-1.36v.89h1.36v-.89ZM182.45,12.94h-1.01v1.01h1.01v-1.01ZM187.2,16.36c-.35,1.03-.87,2.05-1.53,2.95.28.97.62,1.55,1.01,1.57.22.01.38-.57.45-1.63.15.16.47.35.61.43-.21,1.67-.62,2.15-1.04,2.13-.69-.03-1.21-.68-1.6-1.79-.61.69-1.3,1.27-2.04,1.66-.13-.18-.37-.42-.57-.55.89-.43,1.7-1.11,2.38-1.94-.23-.93-.39-2.06-.52-3.36l-1.14.15-.1-.72,1.18-.15c-.07-.93-.13-1.93-.16-2.97h.74c.02,1,.07,1.98.15,2.88l2.48-.31.1.71-2.51.32c.1.99.21,1.88.37,2.64.48-.73.86-1.54,1.13-2.37l.62.35ZM186.74,14.38c-.21-.5-.73-1.26-1.22-1.8l.59-.33c.5.53,1.04,1.26,1.28,1.75l-.64.37Z"/>
    <path class="cls-5" d="M192.08,15.25h2.03v.72h-2.03v.78c.48.37,1.69,1.41,2,1.69l-.46.65c-.32-.35-1-1.03-1.54-1.53v4.19h-.77v-4.58c-.55,1.21-1.3,2.41-2.02,3.14-.1-.21-.3-.54-.44-.73.85-.81,1.78-2.28,2.3-3.6h-2.06v-.72h2.22v-1.8c-.69.13-1.39.23-2.05.33-.03-.19-.15-.46-.24-.63,1.55-.23,3.4-.6,4.39-1.03l.59.61c-.53.21-1.2.4-1.91.56v1.96ZM195.59,19.14h-.77v-5.82h.77v5.82ZM198.2,12.27v8.45c0,.54-.15.79-.48.93-.35.12-.95.14-1.91.14-.04-.21-.16-.57-.29-.8.74.02,1.41.02,1.62.01.19,0,.28-.06.28-.27v-8.46h.79Z"/>
    <path class="cls-5" d="M202.68,12.32c-.21.75-.49,1.52-.8,2.24v7.2h-.68v-5.8c-.27.47-.53.89-.81,1.27-.06-.18-.28-.61-.41-.8.84-1.07,1.56-2.69,2.02-4.31l.68.19ZM205.51,14.62h-2.93v-.64h2.93v.64ZM202.79,18.31h2.63v3.18h-.66v-.46h-1.33v.63h-.64v-3.35ZM205.31,16.03h-2.39v-.64h2.39v.64ZM202.92,16.81h2.39v.64h-2.39v-.64ZM204.07,13.76c-.13-.34-.44-.85-.73-1.21l.49-.31c.3.36.64.84.76,1.16l-.51.36ZM203.43,18.95v1.46h1.33v-1.46h-1.33ZM208.04,16.04c-.27.37-.55.73-.85,1.06h2.34v4.58h-.71v-.38h-1.67v.47h-.69v-3.95c-.26.22-.52.43-.8.63-.1-.15-.34-.44-.49-.57.77-.49,1.43-1.12,2.01-1.84h-1.64v-.67h1.27v-1.39h-1.06v-.66h1.06v-1.19h.68v1.19h.97v.66h-.97v1.39h.2c.59-.87,1.05-1.86,1.41-2.94l.67.15c-.34,1.01-.78,1.96-1.29,2.79h1.4v.67h-1.85ZM208.82,17.77h-1.67v1.08h1.67v-1.08ZM208.82,20.63v-1.13h-1.67v1.13h1.67Z"/>
    <path class="cls-5" d="M220.42,16.09c-.26,1.29-.66,2.43-1.18,3.39.29,1.07.63,1.61.94,1.61.19-.01.3-.29.35-1.32.15.13.37.29.55.34-.12,1.41-.36,1.68-.96,1.68-.54,0-1-.53-1.34-1.54-.43.59-.89,1.12-1.43,1.55-.13-.14-.43-.37-.6-.49.31-.23.6-.49.86-.77h-3.11v-4.57h3.15v.54h-1.11v.73h1.11v1.99h-1.11v.75h1.19v.42c.29-.32.54-.68.77-1.07-.22-1.04-.39-2.39-.49-4.03h-4.05v2.23c0,1.31-.11,3.07-.77,4.27-.13-.11-.44-.29-.6-.35.44-.8.6-1.82.65-2.77h-.74v.49c0,.74-.12,1.85-.78,2.61-.11-.11-.34-.27-.48-.34.56-.68.66-1.64.66-2.29v-.47h-.59v-.67h1.96v-.87h-1.49v-2.47h.62v1.82h.87v-1.87h4.7v-.44h-.28v-.7h-1.34v-.68h1.34v-.74h.78v.74h2.37v.68h-2.37v.45h.19c0,.24.01.47.01.69h1.21c-.23-.22-.56-.49-.88-.67l.48-.36c.37.2.83.54,1.04.81l-.29.22h.69v.68h-2.23c.05,1.21.16,2.21.3,3.04.3-.72.53-1.51.69-2.37l.71.12ZM213.79,13.48h-2.24v-.68h2.24v-.74h.78v.74h1.3v.68h-1.3v.76h-.78v-.76ZM215.12,16.52v.73h.87v-.73h-.87ZM217.08,17.78h-1.97v.94h1.97v-.94ZM215.12,19.99h.87v-.75h-.87v.75Z"/>
    <path class="cls-5" d="M224.07,13.69v2.62c0,1.63-.14,3.95-1.03,5.5-.14-.15-.47-.38-.63-.46.83-1.46.9-3.53.9-5.04v-3.31h4.16c-.13-.26-.28-.5-.44-.72l.73-.21c.22.28.44.64.59.94h3.72v.69h-8.01ZM232.16,20.5h-3.68v1.21h-.76v-1.21h-3.51v-.66h3.51v-.74h-2.67v-3.2h2.67v-.69h-3.06v-.63h3.06v-.67h.76v.67h3.35v.63h-3.35v.69h2.8v3.2h-2.8v.74h3.68v.66ZM225.75,17.23h1.97v-.8h-1.97v.8ZM227.72,18.57v-.82h-1.97v.82h1.97ZM228.48,16.43v.8h2.06v-.8h-2.06ZM230.54,17.75h-2.06v.82h2.06v-.82Z"/>
    <path class="cls-5" d="M242.76,13.95v4.98h-.81v-.61h-3.05v3.45h-.82v-3.45h-3.04v.66h-.78v-5.03h3.82v-1.89h.82v1.89h3.86ZM238.08,17.55v-2.82h-3.04v2.82h3.04ZM241.95,17.55v-2.82h-3.05v2.82h3.05Z"/>
    <path class="cls-5" d="M254.48,21.32h-4.3v.46h-.74v-5.08c-.22.22-.48.43-.72.62-.08-.16-.3-.46-.46-.63v3.71h-1.87v.86h-.68v-3.48c-.17.32-.35.64-.55.9-.09-.16-.31-.52-.46-.68.77-1.08,1.23-2.71,1.51-4.47h-1.26v-.72h3.49v.72h-1.47c-.14.82-.31,1.63-.53,2.36h1.82v.74c.98-.68,1.77-1.66,2.34-2.82h-1.24v1.14h-.69v-1.82h2.25c.14-.35.27-.72.37-1.1l.74.15c-.1.32-.2.65-.33.95h2.54v1.8h-.71v-1.12h-2.11c-.27.57-.56,1.11-.9,1.6h1.38c-.14-.32-.31-.68-.46-.98l.66-.27c.21.39.47.88.6,1.24h1.46v.67h-1.66v1.07h1.52v.62h-1.52v1.13h1.52v.62h-1.52v1.12h1.97v.68ZM247.57,16.59h-1.18v3.11h1.18v-3.11ZM251.77,16.09h-1.58v1.07h1.58v-1.07ZM251.77,17.78h-1.58v1.13h1.58v-1.13ZM250.18,20.64h1.58v-1.12h-1.58v1.12Z"/>
    <path class="cls-5" d="M259.73,14.48h-3.74v-.66h3.74v.66ZM259.48,15.89h-3.21v-.63h3.21v.63ZM256.27,16.68h3.21v.64h-3.21v-.64ZM259.43,21.17h-2.49v.49h-.67v-3.56h3.16v3.07ZM256.94,18.75v1.78h1.81v-1.78h-1.81ZM257.74,13.76c-.12-.38-.4-.99-.66-1.45l.67-.23c.28.44.55,1.02.7,1.4l-.71.28ZM259.45,20.49c.36-.57.62-1.51.74-2.23l.56.17c-.14.77-.37,1.73-.73,2.32l-.57-.26ZM263.04,13.16c-.19,1.92-.72,3.51-2.68,4.38-.08-.18-.3-.44-.46-.56.95-.39,1.52-.97,1.87-1.68-.39-.4-1.04-.97-1.54-1.38l.41-.45c.45.35,1,.81,1.4,1.16.14-.46.21-.95.27-1.47h-2.19v-.68h5.18s-.01.23-.01.34c-.12,2.69-.23,3.65-.49,3.98-.18.21-.38.29-.67.31-.27.02-.73.02-1.2,0-.02-.21-.1-.5-.22-.7.49.04.94.05,1.11.05s.26-.02.35-.13c.17-.19.28-1.02.36-3.17h-1.49ZM263.39,20.91c.35,0,.42-.18.45-1.41.15.12.44.22.63.27-.07,1.45-.27,1.79-1,1.79h-1.38c-.84,0-1.05-.21-1.05-.95v-2.59h.69v2.59c0,.25.07.31.44.31h1.23ZM262.38,17.25c.45.48.94,1.12,1.17,1.53l-.52.36c-.22-.41-.7-1.1-1.14-1.58l.49-.31ZM264.85,17.83c.38.7.79,1.63.94,2.19l-.61.23c-.15-.57-.52-1.52-.89-2.23l.56-.19Z"/>
    <path class="cls-5" d="M270.35,12.27c-.26.52-.58,1.03-.94,1.52v4.31h-.77v-3.36c-.33.37-.68.71-1.02,1-.11-.15-.36-.47-.52-.62.98-.73,1.94-1.9,2.54-3.08l.7.23ZM267.24,21c.43-.63.84-1.6,1.07-2.3l.71.3c-.28.69-.65,1.69-1.04,2.34l-.74-.34ZM273.57,20.84c.59,0,.68-.16.73-1.23.18.14.51.26.73.3-.11,1.34-.36,1.67-1.41,1.67h-2.53c-1.26,0-1.58-.22-1.58-1.08v-1.84h.79v1.83c0,.31.13.36.83.36h2.45ZM271.69,13.75c-.33.55-.71,1.04-1.11,1.43-.13-.14-.43-.38-.6-.5.72-.63,1.34-1.6,1.69-2.6l.73.18c-.11.27-.22.53-.35.8h3.98l.13-.03.54.15c-.28.61-.6,1.33-.86,1.75l-.67-.14c.15-.28.34-.66.51-1.04h-4ZM272.39,15.19c-.35.84-.9,1.68-1.46,2.22-.14-.13-.43-.35-.6-.45.55-.5,1.04-1.24,1.33-1.98l.72.2ZM272.6,20.06c-.27-.51-.93-1.31-1.5-1.87l.61-.34c.59.54,1.26,1.3,1.55,1.82l-.66.39ZM274,18.06h-.76v-3.91h.76v3.91ZM275.23,14.96c.54.64,1.1,1.52,1.34,2.1l-.68.36c-.23-.6-.78-1.5-1.3-2.16l.64-.3ZM275.54,18.53c.5.76,1,1.73,1.18,2.38l-.76.31c-.15-.65-.64-1.67-1.12-2.43l.69-.27Z"/>
    <path class="cls-5" d="M281.29,12.2c-.18.52-.37,1.11-.55,1.56h1.77v6.9h-2.96v.84h-.72v-7.74h1.19c.16-.51.35-1.22.43-1.72l.85.16ZM281.78,14.47h-2.23v2.22h2.23v-2.22ZM281.78,19.95v-2.55h-2.23v2.55h2.23ZM287.71,14.13c-.17,4.85-.31,6.49-.73,7.01-.23.3-.48.39-.84.43-.37.04-.98.02-1.57-.01-.02-.23-.12-.55-.27-.78.69.06,1.33.06,1.57.06.21,0,.33-.02.44-.16.35-.37.51-1.99.65-6.22h-2.7c-.3.71-.63,1.36-1,1.86-.14-.13-.48-.34-.65-.45.71-.94,1.29-2.4,1.63-3.86l.76.18c-.13.52-.28,1.03-.46,1.53h3.18v.4ZM285.36,18.93c-.32-.64-1.03-1.69-1.62-2.46l.62-.36c.6.75,1.33,1.78,1.67,2.4l-.67.41Z"/>
    <path class="cls-5" d="M299,13.21v.68h-9.28v-.68h4.39c-.11-.32-.24-.7-.37-1l.73-.19c.15.37.34.84.46,1.19h4.06ZM298.42,20.9c0,.41-.11.6-.42.71-.32.1-.85.11-1.75.11-.04-.19-.14-.44-.24-.61.66.02,1.28.01,1.45,0,.17-.01.23-.05.23-.22v-4.81h-2.15v.69c0,.23.03.32.2.32h.96c.16,0,.44-.01.59-.04.01.18.03.39.05.56-.13.05-.38.05-.62.05h-1.12c-.65,0-.78-.28-.78-.9v-.68h-1.2c-.16,1.11-.66,1.69-2.13,2.02-.06-.17-.23-.43-.38-.55,1.24-.22,1.66-.65,1.81-1.47h-1.83v5.68h-.76v-6.34h4.91c.28-.43.61-1.02.78-1.45l.8.18c-.26.43-.54.89-.82,1.27h2.41v5.48ZM292.65,13.92c.23.37.53.87.67,1.18l-.68.28c-.15-.31-.44-.84-.66-1.23l.67-.22ZM293.08,20.42v.49h-.69v-2.9h3.88v2.41h-3.19ZM293.08,18.6v1.23h2.53v-1.23h-2.53Z"/>
    <path class="cls-5" d="M301.12,17.15h3.75v4.53h-.78v-.48h-2.22v.57h-.76v-4.63ZM301.88,17.92v2.52h2.22v-2.52h-2.22ZM308.45,16.04h-5.79v-3.52h5.79v3.52ZM307.65,13.27h-4.22v2.01h4.22v-2.01ZM309.99,17.15v4.55h-.78v-.5h-2.41v.57h-.77v-4.63h3.96ZM309.21,20.44v-2.52h-2.41v2.52h2.41Z"/>
  </g>
  <path id="_票卷撕開外框線" data-name="票卷撕開外框線" class="cls-9" d="M30.09,160.24v52.61c0,1.14.13,2.25.36,3.32,1.65,7.46,8.72,13.08,17.19,13.08h327.24c9.69,0,17.55-7.35,17.55-16.4V19.96c0-9.06-7.86-16.4-17.55-16.4H47.72c-9.72,0-17.6,7.4-17.55,16.49v1.69s.32,60.91.32,60.91l-.41,77.58Z"/>
</svg>