<?xml version="1.0" encoding="UTF-8"?>
<svg id="Layer_2" data-name="Layer 2" xmlns="http://www.w3.org/2000/svg" version="1.1" xmlns:xlink="http://www.w3.org/1999/xlink" viewBox="0 0 406.64 231.29">
  <defs>
    <style>
      .cls-1 {
        fill: #cde2ed;
      }

      .cls-1, .cls-2, .cls-3, .cls-4, .cls-5, .cls-6, .cls-7, .cls-8 {
        stroke-width: 0px;
      }

      .cls-2 {
        fill: #e5a856;
      }

      .cls-3, .cls-9 {
        fill: none;
      }

      .cls-10 {
        clip-path: url(#clippath-1);
      }

      .cls-9 {
        stroke: #365b6d;
        stroke-miterlimit: 10;
      }

      .cls-4 {
        fill: #666;
      }

      .cls-5 {
        fill: #f2f1ec;
      }

      .cls-6 {
        fill: #fdc164;
      }

      .cls-11 {
        opacity: .15;
      }

      .cls-12 {
        clip-path: url(#clippath);
      }

      .cls-7 {
        fill: #365b6d;
      }

      .cls-8 {
        fill: #f2f1ec;
      }
    </style>
    <clipPath id="clippath">
      <path class="cls-3" d="M29.82,160.24v52.56c0,1.14.13,2.25.36,3.32,1.65,7.46,8.71,13.07,17.17,13.07h326.93c9.68,0,17.53-7.34,17.53-16.39V20.1c0-9.05-7.85-16.39-17.53-16.39H47.44c-9.72,0-17.58,7.39-17.53,16.47v1.69s.32,60.86.32,60.86l-.41,77.51Z"/>
    </clipPath>
    <clipPath id="clippath-1">
      <rect class="cls-3" x="231.61" y="197.08" width="18.47" height="18.47"/>
    </clipPath>
  </defs>
  <g id="_撕開底層" data-name="撕開底層">
    <g>
      <path class="cls-1" d="M23.75,154.89l-.14-.05-11.59-9.3-.08-.12c-.03-.12-3.09-12.55-3.09-28.5s3.06-30.36,3.09-30.51l.08-.13,11.59-9.3.14-.05h6.24l.22.22v77.51l-.22.22h-6.24Z"/>
      <path class="cls-7" d="M30,77.16v77.51h-6.24l-11.59-9.3s-3.08-12.34-3.08-28.45,3.08-30.46,3.08-30.46l11.59-9.3h6.24M30,76.72h-6.24l-.28.1-11.59,9.3-.16.25c-.03.14-3.09,14.59-3.09,30.55s3.07,28.43,3.1,28.55l.15.24,11.59,9.3.28.1h6.24l.44-.44v-77.51l-.44-.44h0Z"/>
    </g>
    <g>
      <path class="cls-5" d="M30,160.44v52.56c0,1.14.13,2.25.36,3.32,1.65,7.46,8.71,13.07,17.17,13.07h326.93c9.68,0,17.53-7.34,17.53-16.39V20.3c0-9.05-7.85-16.39-17.53-16.39H47.62c-9.72,0-17.58,7.39-17.53,16.47v1.69s.32,60.86.32,60.86l-.41,77.51Z"/>
      <path class="cls-7" d="M374.46,229.61H47.53c-8.38,0-15.69-5.57-17.39-13.24-.24-1.11-.36-2.24-.36-3.37v-52.56l.41-77.51-.32-60.85v-1.69c-.03-4.24,1.66-8.29,4.75-11.39,3.35-3.37,8.09-5.3,13-5.3h326.84c9.79,0,17.75,7.45,17.75,16.61v192.7c0,9.16-7.96,16.61-17.75,16.61ZM30.22,160.44v52.56c0,1.09.12,2.19.35,3.27,1.65,7.47,8.78,12.9,16.95,12.9h326.93c9.54,0,17.31-7.25,17.31-16.17V20.3c0-8.91-7.76-16.17-17.31-16.17H47.62c-4.8,0-9.42,1.88-12.69,5.17-3,3.02-4.64,6.96-4.62,11.08v1.69l.32,60.85-.41,77.51h0Z"/>
    </g>
  </g>
  <g id="_底層色彩" data-name="底層色彩">
    <g class="cls-12">
      <rect class="cls-2" x="21.55" y="3.8" width="380.77" height="26.44"/>
      <rect class="cls-7" x="20.66" y="180.9" width="380.77" height="48.7"/>
    </g>
  </g>
  <rect id="_淺藍底" data-name="淺藍底" class="cls-1" x="30.18" y="49.84" width="361.74" height="131.06"/>
  <g id="A賞">
    <path class="cls-4" d="M159.34,65.96h60.57v16.47h-40.91v25.64h34.93v16.47h-34.93v39.85h-19.66v-98.43Z"/>
    <path class="cls-4" d="M270.8,157.85c4.16,1.15,8.68,2.61,11.47,3.68l-5.49,2.79c-2.66-1.15-7.31-2.83-11.91-4.16l3.41-2.3h-12.66l4.6,1.73c-3.37,2.3-8.99,3.99-13.59,5-.89-1.11-2.79-3.06-3.9-3.94,4.38-.53,9.3-1.51,12.04-2.79h-6.38v-15.9h28.91v15.9h-6.51ZM248.79,135.93h-4.87v-8.41h6.11c-.62-1.06-1.42-2.21-2.13-3.14l4.69-1.28c1.15,1.28,2.35,3.06,2.97,4.25l-.53.18h4.78v-4.6h5.22v4.6h4.87c.97-1.33,2.17-3.19,2.79-4.56l5.4,1.28c-.89,1.24-1.82,2.35-2.66,3.28h6.15v8.41h-5.14v-4.83h-27.67v4.83ZM250.96,140.45v-7.7h23.51v7.7h-23.51ZM253.4,146.34h18.69v-1.55h-18.69v1.55ZM253.4,150.63h18.69v-1.55h-18.69v1.55ZM253.4,154.97h18.69v-1.59h-18.69v1.59ZM255.83,137.53h13.42v-1.86h-13.42v1.86Z"/>
  </g>
  <g id="logo">
    <path class="cls-8" d="M191.96,197.02v18.85h-5.11v-2.11c-1.13,1.46-3.03,2.04-4.74,2.04-5.18.04-9.41-4.16-9.44-9.33-.04-5.18,4.16-9.41,9.33-9.44,1.79,0,3.72.66,4.85,2.08v-2.08h5.11ZM186.67,206.39c0-1.24-.47-2.41-1.39-3.28-.88-.88-2.04-1.35-3.25-1.31-1.24,0-2.41.47-3.28,1.35-.88.88-1.35,2.04-1.35,3.28s.51,2.41,1.39,3.28c.88.88,2.04,1.35,3.28,1.35,1.24-.04,2.41-.51,3.25-1.39.88-.88,1.35-2.04,1.35-3.28"/>
    <path class="cls-8" d="M209.16,213.61c-1.68,1.42-3.83,2.26-6.2,2.26-5.18-.04-9.37-4.27-9.33-9.44.04-5.18,4.27-9.37,9.44-9.33,2.33.04,4.49.91,6.13,2.33l-3.39,3.35c-.8-.58-1.75-.91-2.77-.91-1.24,0-2.41.47-3.28,1.31-.88.88-1.35,2.04-1.35,3.28-.04,1.24.44,2.41,1.31,3.28.88.88,2.04,1.35,3.28,1.39,1.02,0,1.97-.33,2.77-.91l3.39,3.39Z"/>
    <path class="cls-8" d="M229.98,206.93v8.93h-4.74v-9.26h-.04v-.11c0-1.2-.47-2.37-1.35-3.25-.88-.88-2.04-1.35-3.28-1.35s-2.41.51-3.28,1.39c-.88.88-1.35,2.04-1.31,3.28v.04h-.04v9.26h-5.1v-23.7h5.1v7.29c1.53-1.82,2.92-2.15,4.59-2.3,5.14-.44,9.44,2.88,9.44,9.33v.44Z"/>
    <path class="cls-8" d="M263.16,196.76v5.21c-3.94,0-6.34,3.17-6.34,5.58v8.31h-5.11v-18.78h5.11v2.81c.84-2.33,2.55-3.14,6.34-3.14"/>
    <path class="cls-8" d="M283.04,197.02v18.85h-5.1v-2.11c-1.13,1.46-3.03,2.04-4.74,2.04-5.18.04-9.41-4.16-9.44-9.33-.04-5.18,4.16-9.41,9.33-9.44,1.79,0,3.72.66,4.85,2.08v-2.08h5.1ZM277.75,206.39c0-1.24-.47-2.41-1.39-3.28-.88-.88-2.04-1.35-3.25-1.31-1.24,0-2.41.47-3.28,1.35-.88.88-1.35,2.04-1.35,3.28s.51,2.41,1.39,3.28c.88.88,2.04,1.35,3.28,1.35,1.24-.04,2.41-.51,3.25-1.39.88-.88,1.35-2.04,1.35-3.28"/>
    <g>
      <g class="cls-11">
        <g class="cls-10">
          <path class="cls-8" d="M250.08,206.31c0,5.1-4.13,9.23-9.23,9.23s-9.23-4.13-9.23-9.23,4.13-9.23,9.23-9.23,9.23,4.13,9.23,9.23"/>
        </g>
      </g>
      <path class="cls-6" d="M250.93,206.21c-.23-5.41-4.66-9.65-10.08-9.65-5.05,0-9.32,3.75-9.99,8.73,0,0,0,0,0,0,0,.03,0-.03,0,0-.01.13-.05.31-.06.44v.07c-.31,4.5,2.55,8.73,6.89,10.07,6.42,1.99,13.08-2.92,13.22-9.23v-.43ZM240.85,197.85c4.59,0,8.36,3.49,8.76,8.01-6.25,3.81-14.74,1.4-17.44-.71.72-4.19,4.38-7.3,8.67-7.3"/>
    </g>
    <path class="cls-8" d="M166.48,202.09h-5.91v4.74h5.47c-.33.84-1.39,1.93-1.64,2.19-1.35,1.31-3.14,2.08-5.03,2.08s-3.68-.77-5-2.08c-1.35-1.35-2.11-3.14-2.11-5.03s.77-3.68,2.11-5.03c1.31-1.35,3.1-2.08,5-2.08,1.57,0,3.06.51,4.3,1.42l3.65-3.61c-2.15-1.82-4.92-2.92-7.95-2.92-6.75,0-12.22,5.47-12.22,12.22s5.47,12.22,12.22,12.22c2.66,0,5.1-.84,7.11-2.26,0,0,.02-.02.06-.04l4.68,1.87v-13.68h-4.74Z"/>
  </g>
  <g>
    <path class="cls-5" d="M113.74,16.57c.67.83,1.73,1.58,2.75,1.96-.17.15-.39.43-.51.63-1.17-.5-2.36-1.5-3.06-2.58h-2.76c-.71,1.15-1.86,2.06-3.02,2.67-.11-.16-.4-.45-.57-.58,1.06-.48,2.05-1.2,2.68-2.08h-2.38v-.73h2.58v-1.4h-1.9v-.73h1.9v-1.31h.78v1.31h2.6v-1.31h.78v1.31h1.93v.73h-1.93v1.4h2.65v.73h-2.51ZM109.61,18.68c-.34.75-.81,1.68-1.43,2.27l-.65-.38c.63-.55,1.14-1.43,1.41-2.17l.67.28ZM110.51,17.51h.75v3.68c0,.44-.09.65-.39.78-.32.12-.81.13-1.55.13-.03-.22-.13-.52-.23-.74.57.02,1.07.02,1.22.01.16-.01.2-.04.2-.17v-3.68ZM110.22,15.83h2.6v-1.4h-2.6v1.4ZM112.47,18.51c.35.71.63,1.64.72,2.25l-.69.17c-.07-.63-.35-1.56-.68-2.27l.65-.15ZM113.83,18.14c.66.78,1.33,1.83,1.64,2.54l-.68.31c-.29-.7-.96-1.8-1.59-2.58l.64-.27Z"/>
    <path class="cls-5" d="M127.46,18.34v.63h-9.52v-.63h2.67c-.08-.23-.21-.49-.34-.69l.4-.12h-1.16v-1.92h6.41v1.92h-.94l.19.04c-.15.28-.32.54-.47.77h2.75ZM122.27,13.75h-4.01v-.59h4.01v-.77h.8v.77h4.1v.59h-4.1v.73h3.39v.58h-7.45v-.58h3.26v-.73ZM119.32,19.55h6.81v2.54h-.8v-.32h-5.24v.33h-.78v-2.55ZM120.09,20.13v1.07h5.24v-1.07h-5.24ZM120.26,16.99h4.87v-.84h-4.87v.84ZM121.03,17.53c.17.26.33.57.39.81h2.49c.13-.24.29-.55.38-.81h-3.26Z"/>
    <path class="cls-5" d="M138.09,14.29v4.97h-.81v-.61h-3.05v3.44h-.82v-3.44h-3.04v.66h-.78v-5.03h3.81v-1.89h.82v1.89h3.86ZM133.42,17.89v-2.82h-3.04v2.82h3.04ZM137.29,17.89v-2.82h-3.05v2.82h3.05Z"/>
    <path class="cls-5" d="M145.82,19.82c1.33.49,3.11,1.2,4.07,1.66l-.38.63c-.94-.48-2.82-1.28-4.2-1.81l.33-.48h-.5c-.41.88-1.56,1.81-4.56,2.32-.09-.18-.28-.47-.45-.64,2.45-.4,3.57-1.05,4.08-1.68h-4v-.67h4.31c.03-.15.04-.28.04-.4v-.65h.78v.67c0,.13-.01.24-.02.38h2.17c-.23-.22-.57-.49-.85-.69l.32-.29h-.37c-.03-.19-.13-.43-.22-.62.49.02.91.02,1.03.02.14-.01.17-.04.17-.16v-1.05h-2.48c.43.25.89.64,1.13.94l-.52.43c-.22-.31-.72-.73-1.15-1.01l.45-.35h-1.26v-.56h3.84v-.78h.75v.78h1.34v.56h-1.34v1.07c0,.37-.07.53-.36.64-.18.06-.46.08-.83.1.33.22.74.53.95.74l-.22.23h1.99v.67h-4.03ZM141.74,16.42c0,.54-.17,1.49-.9,2.08-.14-.11-.44-.27-.61-.35.67-.52.8-1.31.8-1.75v-.1h-.76v-.65h2.33v-.81h-1.83v-2.18h.69v1.54h1.14v-1.77h.73v5.98h-.73v-2.11h-.85v.12ZM149.31,13.16c-.95,1.63-3.11,2.33-5.31,2.64-.06-.16-.2-.37-.32-.5,1.04-.12,2.08-.34,2.98-.71-.28-.32-.66-.69-1.03-.98-.44.19-.89.36-1.41.52-.1-.15-.3-.36-.44-.46,1.3-.34,2.3-.81,2.86-1.29l.69.15c-.16.15-.34.29-.54.43h1.98l.14-.03.41.23ZM145.85,14.64c-.65.06-1.23.11-1.77.15l-.08-.47c.52-.03,1.14-.07,1.85-.12v.44ZM146.19,13.44c.36.28.71.59.98.89.47-.24.86-.53,1.18-.89h-2.16Z"/>
    <path class="cls-5" d="M151.86,20.7c0-.45.32-.75.7-.75s.7.31.7.75-.31.73-.7.73-.7-.3-.7-.73ZM152.11,14.44l-.03-1.11h.99l-.03,1.11-.13,4.51h-.67l-.13-4.51Z"/>
    <path class="cls-5" d="M155.33,14.19h3.64v.65h-3.64v-.65ZM158.66,16.15h-3.09v-.63h3.09v.63ZM155.58,16.96h3.09v.63h-3.09v-.63ZM158.64,21.49h-2.33v.49h-.69v-3.56h3.02v3.07ZM156.32,19.07v1.77h1.63v-1.77h-1.63ZM157.11,14.07c-.1-.38-.33-.99-.53-1.43l.66-.2c.22.44.46,1.02.56,1.39l-.69.24ZM164.37,21.29c0,.38-.07.57-.36.69-.27.12-.7.12-1.37.12-.03-.2-.12-.47-.22-.66.48.02.91.02,1.04.01.14,0,.17-.04.17-.16v-.9h-3.29c-.12.67-.33,1.34-.77,1.86-.12-.15-.39-.44-.55-.52.63-.8.7-1.87.7-2.71v-1.96h4.65v4.23ZM164.99,15.82v.61h-5.9v-.61h2.51v-.72h-2.13v-.57h2.13v-.65h-2.39v-.61h2.39v-.86h.78v.86h2.51v.61h-2.51v.65h2.31v.57h-2.31v.72h2.61ZM163.63,19.82v-.79h-3.19c0,.24-.01.51-.03.79h3.22ZM160.44,17.68v.79h3.19v-.79h-3.19Z"/>
    <path class="cls-5" d="M176.02,20.96v.74h-9.43v-.74h4.28v-1.96h-3.36v-.73h3.36v-1.38h.8v1.38h3.45v.73h-3.45v1.96h4.35ZM174.93,17.14c-.17-.22-.4-.49-.68-.76-5.73.28-6.3.3-6.7.44-.04-.18-.16-.57-.26-.79.2-.03.45-.21.73-.5.27-.21.99-.95,1.59-1.79h-2.81v-.74h8.85v.74h-5.02c-.63.82-1.31,1.58-1.98,2.19l4.91-.2c-.44-.39-.89-.79-1.32-1.12l.63-.4c.96.71,2.14,1.74,2.7,2.45l-.67.48Z"/>
    <path class="cls-5" d="M180.72,20.46v1.66h-.74v-1.66h-2.4v-.7h2.4v-.75h-1.97v-3.59h4.73v3.59h-2.02v.75h2.37v.7h-2.37ZM180.11,14.85h-2.18v-2.11h2.18v2.11ZM179.5,13.28h-.97v1.01h.97v-1.01ZM178.68,16.91h1.33v-.88h-1.33v.88ZM178.68,18.38h1.33v-.89h-1.33v.89ZM182.84,14.85h-2.22v-2.11h2.22v2.11ZM182.05,16.03h-1.36v.88h1.36v-.88ZM182.05,17.49h-1.36v.89h1.36v-.89ZM182.22,13.28h-1.01v1.01h1.01v-1.01ZM186.96,16.7c-.35,1.03-.87,2.05-1.53,2.94.28.97.62,1.55,1.01,1.57.22.01.38-.57.45-1.63.15.16.47.35.61.43-.21,1.67-.62,2.15-1.04,2.13-.69-.03-1.21-.68-1.59-1.78-.61.69-1.3,1.26-2.04,1.66-.13-.18-.37-.41-.57-.55.89-.43,1.7-1.11,2.38-1.93-.23-.92-.39-2.06-.52-3.36l-1.14.15-.1-.72,1.18-.15c-.07-.92-.13-1.92-.16-2.96h.74c.02,1,.07,1.98.15,2.88l2.48-.31.1.71-2.51.32c.1.99.21,1.88.37,2.64.48-.73.86-1.54,1.13-2.37l.62.35ZM186.51,14.72c-.21-.5-.73-1.25-1.22-1.8l.58-.33c.5.53,1.04,1.25,1.28,1.75l-.64.37Z"/>
    <path class="cls-5" d="M191.84,15.59h2.03v.72h-2.03v.78c.48.37,1.69,1.41,2,1.69l-.46.65c-.32-.35-1-1.03-1.54-1.53v4.19h-.77v-4.58c-.55,1.21-1.3,2.41-2.02,3.14-.1-.21-.3-.54-.44-.73.85-.81,1.77-2.27,2.3-3.59h-2.06v-.72h2.22v-1.8c-.69.13-1.39.23-2.05.33-.03-.19-.15-.46-.24-.63,1.55-.23,3.4-.59,4.39-1.03l.58.61c-.53.21-1.2.4-1.91.56v1.96ZM195.35,19.48h-.77v-5.81h.77v5.81ZM197.96,12.61v8.44c0,.54-.15.79-.48.92-.35.12-.95.14-1.91.14-.04-.21-.16-.57-.29-.8.74.02,1.41.02,1.62.01.19,0,.28-.06.28-.27v-8.45h.79Z"/>
    <path class="cls-5" d="M202.43,12.67c-.21.75-.49,1.52-.8,2.24v7.19h-.68v-5.79c-.27.47-.53.89-.81,1.26-.06-.18-.28-.61-.41-.8.84-1.07,1.56-2.69,2.02-4.3l.68.19ZM205.26,14.96h-2.92v-.64h2.92v.64ZM202.54,18.65h2.63v3.18h-.66v-.46h-1.33v.63h-.64v-3.35ZM205.06,16.37h-2.39v-.64h2.39v.64ZM202.67,17.15h2.39v.64h-2.39v-.64ZM203.82,14.1c-.13-.34-.44-.85-.73-1.21l.49-.31c.3.36.64.84.75,1.16l-.51.36ZM203.18,19.29v1.46h1.33v-1.46h-1.33ZM207.79,16.38c-.27.37-.55.73-.85,1.06h2.34v4.58h-.71v-.38h-1.67v.47h-.69v-3.94c-.26.22-.52.43-.8.63-.1-.15-.34-.44-.49-.57.76-.49,1.42-1.12,2.01-1.84h-1.64v-.67h1.26v-1.39h-1.06v-.66h1.06v-1.19h.68v1.19h.97v.66h-.97v1.39h.2c.58-.87,1.05-1.86,1.41-2.93l.67.15c-.34,1.01-.78,1.96-1.29,2.78h1.4v.67h-1.85ZM208.57,18.11h-1.67v1.08h1.67v-1.08ZM208.57,20.97v-1.13h-1.67v1.13h1.67Z"/>
    <path class="cls-5" d="M220.16,16.43c-.26,1.29-.66,2.42-1.18,3.39.29,1.07.63,1.61.93,1.61.19-.01.3-.29.35-1.32.15.13.37.29.55.34-.12,1.41-.36,1.68-.96,1.68-.54,0-1-.53-1.34-1.54-.43.58-.89,1.12-1.42,1.55-.13-.14-.43-.37-.59-.49.31-.23.59-.49.86-.77h-3.1v-4.57h3.15v.54h-1.11v.73h1.11v1.99h-1.11v.75h1.19v.41c.29-.32.54-.68.76-1.07-.22-1.04-.39-2.39-.49-4.03h-4.05v2.23c0,1.31-.11,3.07-.76,4.26-.13-.11-.44-.29-.6-.35.44-.8.6-1.82.65-2.76h-.74v.49c0,.74-.12,1.85-.78,2.6-.11-.11-.34-.27-.48-.34.56-.68.66-1.64.66-2.29v-.47h-.58v-.67h1.96v-.87h-1.49v-2.47h.62v1.82h.87v-1.87h4.7v-.44h-.28v-.7h-1.34v-.68h1.34v-.74h.78v.74h2.37v.68h-2.37v.45h.19c0,.24.01.47.01.69h1.21c-.23-.22-.56-.49-.88-.67l.48-.36c.37.2.83.54,1.04.81l-.29.22h.69v.68h-2.23c.05,1.21.16,2.21.3,3.04.3-.72.53-1.51.69-2.37l.71.12ZM213.53,13.83h-2.24v-.68h2.24v-.74h.78v.74h1.3v.68h-1.3v.75h-.78v-.75ZM214.86,16.86v.73h.87v-.73h-.87ZM216.82,18.12h-1.97v.94h1.97v-.94ZM214.86,20.33h.87v-.75h-.87v.75Z"/>
    <path class="cls-5" d="M223.8,14.03v2.61c0,1.63-.14,3.94-1.03,5.49-.14-.15-.47-.38-.63-.46.83-1.46.9-3.53.9-5.04v-3.31h4.16c-.13-.26-.28-.5-.44-.72l.73-.21c.22.28.44.64.58.94h3.72v.69h-8ZM231.88,20.84h-3.68v1.21h-.75v-1.21h-3.51v-.66h3.51v-.74h-2.67v-3.2h2.67v-.69h-3.06v-.63h3.06v-.67h.75v.67h3.35v.63h-3.35v.69h2.79v3.2h-2.79v.74h3.68v.66ZM225.48,17.57h1.97v-.8h-1.97v.8ZM227.45,18.91v-.82h-1.97v.82h1.97ZM228.2,16.77v.8h2.06v-.8h-2.06ZM230.26,18.09h-2.06v.82h2.06v-.82Z"/>
    <path class="cls-5" d="M242.47,14.29v4.97h-.81v-.61h-3.05v3.44h-.82v-3.44h-3.04v.66h-.78v-5.03h3.81v-1.89h.82v1.89h3.86ZM237.8,17.89v-2.82h-3.04v2.82h3.04ZM241.67,17.89v-2.82h-3.05v2.82h3.05Z"/>
    <path class="cls-5" d="M254.18,21.66h-4.29v.46h-.74v-5.08c-.22.22-.48.43-.72.62-.08-.16-.3-.46-.46-.63v3.71h-1.87v.86h-.68v-3.48c-.17.32-.35.64-.55.9-.09-.16-.31-.52-.46-.68.77-1.08,1.23-2.71,1.51-4.46h-1.25v-.72h3.49v.72h-1.47c-.14.82-.31,1.63-.53,2.36h1.82v.74c.98-.68,1.76-1.66,2.34-2.82h-1.24v1.14h-.69v-1.82h2.25c.14-.35.27-.72.37-1.09l.74.15c-.1.32-.2.65-.33.95h2.54v1.8h-.71v-1.12h-2.1c-.27.57-.56,1.11-.9,1.59h1.38c-.14-.32-.31-.68-.46-.98l.66-.27c.21.39.47.88.59,1.24h1.46v.67h-1.66v1.07h1.52v.62h-1.52v1.13h1.52v.62h-1.52v1.12h1.97v.68ZM247.28,16.93h-1.18v3.1h1.18v-3.1ZM251.47,16.43h-1.58v1.07h1.58v-1.07ZM251.47,18.12h-1.58v1.13h1.58v-1.13ZM249.89,20.98h1.58v-1.12h-1.58v1.12Z"/>
    <path class="cls-5" d="M259.43,14.83h-3.74v-.66h3.74v.66ZM259.18,16.23h-3.21v-.63h3.21v.63ZM255.97,17.01h3.21v.64h-3.21v-.64ZM259.13,21.51h-2.49v.49h-.67v-3.56h3.16v3.07ZM256.64,19.09v1.77h1.81v-1.77h-1.81ZM257.44,14.1c-.12-.38-.4-.99-.66-1.45l.67-.23c.28.44.55,1.02.7,1.4l-.71.28ZM259.15,20.83c.36-.57.62-1.51.74-2.23l.56.17c-.14.76-.37,1.73-.73,2.32l-.57-.26ZM262.74,13.51c-.19,1.91-.72,3.51-2.68,4.38-.08-.18-.3-.44-.46-.56.95-.39,1.52-.97,1.87-1.68-.39-.4-1.04-.97-1.54-1.38l.41-.45c.45.35,1,.81,1.4,1.16.14-.46.21-.95.27-1.47h-2.19v-.68h5.18s-.01.23-.01.34c-.12,2.69-.23,3.65-.49,3.97-.18.21-.38.29-.67.31-.27.02-.73.02-1.2,0-.02-.21-.1-.5-.22-.7.49.04.94.05,1.11.05s.26-.02.35-.13c.17-.19.28-1.02.36-3.17h-1.49ZM263.09,21.24c.35,0,.41-.18.45-1.41.15.12.44.22.63.27-.07,1.45-.27,1.79-1,1.79h-1.38c-.84,0-1.05-.21-1.05-.95v-2.58h.69v2.58c0,.25.07.31.44.31h1.23ZM262.08,17.59c.45.48.94,1.12,1.17,1.53l-.52.36c-.22-.41-.7-1.09-1.14-1.58l.49-.31ZM264.54,18.17c.38.7.79,1.63.94,2.19l-.61.23c-.15-.57-.52-1.52-.89-2.23l.56-.19Z"/>
    <path class="cls-5" d="M270.04,12.61c-.26.52-.58,1.03-.94,1.52v4.3h-.76v-3.36c-.33.37-.68.71-1.02,1-.11-.15-.36-.47-.52-.62.98-.73,1.93-1.9,2.54-3.08l.7.23ZM266.94,21.34c.43-.63.84-1.59,1.07-2.3l.71.3c-.28.69-.65,1.69-1.04,2.34l-.74-.34ZM273.26,21.18c.58,0,.68-.16.73-1.23.18.14.51.26.73.3-.11,1.34-.36,1.67-1.41,1.67h-2.53c-1.25,0-1.58-.22-1.58-1.08v-1.84h.79v1.83c0,.31.13.36.83.36h2.44ZM271.38,14.09c-.33.55-.71,1.04-1.11,1.42-.13-.14-.43-.38-.59-.5.72-.63,1.34-1.59,1.69-2.59l.73.18c-.11.27-.22.53-.35.8h3.97l.13-.03.54.15c-.28.61-.59,1.33-.86,1.75l-.67-.14c.15-.28.34-.66.51-1.04h-4ZM272.08,15.53c-.35.84-.9,1.68-1.46,2.22-.14-.13-.43-.35-.59-.45.55-.5,1.04-1.24,1.33-1.98l.72.2ZM272.29,20.39c-.27-.51-.92-1.31-1.5-1.87l.61-.34c.58.54,1.25,1.3,1.55,1.82l-.66.39ZM273.68,18.4h-.75v-3.91h.75v3.91ZM274.92,15.3c.54.64,1.09,1.52,1.34,2.09l-.68.36c-.23-.59-.78-1.5-1.3-2.16l.64-.3ZM275.22,18.86c.5.75,1,1.73,1.18,2.38l-.75.31c-.15-.65-.64-1.67-1.12-2.42l.69-.27Z"/>
    <path class="cls-5" d="M280.97,12.54c-.18.52-.37,1.11-.55,1.56h1.76v6.9h-2.95v.84h-.72v-7.74h1.19c.16-.51.35-1.22.43-1.72l.85.16ZM281.46,14.81h-2.23v2.22h2.23v-2.22ZM281.46,20.29v-2.55h-2.23v2.55h2.23ZM287.38,14.47c-.17,4.85-.31,6.48-.73,7-.23.3-.48.39-.84.43-.37.04-.98.02-1.57-.01-.02-.23-.12-.55-.27-.78.69.06,1.33.06,1.57.06.21,0,.33-.02.44-.16.35-.37.51-1.99.65-6.22h-2.7c-.3.71-.63,1.36-1,1.86-.14-.13-.48-.34-.65-.45.71-.93,1.29-2.4,1.63-3.86l.75.18c-.13.52-.28,1.03-.46,1.53h3.18v.4ZM285.03,19.27c-.32-.64-1.03-1.69-1.62-2.45l.62-.36c.59.75,1.33,1.77,1.67,2.4l-.67.41Z"/>
    <path class="cls-5" d="M298.67,13.55v.68h-9.27v-.68h4.39c-.11-.32-.24-.7-.37-1l.73-.19c.15.37.34.84.46,1.19h4.06ZM298.08,21.23c0,.41-.11.59-.41.71-.32.1-.85.11-1.75.11-.04-.19-.14-.44-.24-.61.66.02,1.28.01,1.45,0,.17-.01.23-.05.23-.22v-4.8h-2.15v.69c0,.23.03.32.2.32h.96c.16,0,.44-.01.58-.04.01.18.03.39.05.56-.13.05-.38.05-.62.05h-1.12c-.65,0-.78-.28-.78-.9v-.68h-1.2c-.16,1.11-.66,1.69-2.13,2.02-.06-.17-.23-.43-.38-.55,1.24-.22,1.66-.65,1.81-1.47h-1.83v5.67h-.75v-6.33h4.91c.28-.43.61-1.02.78-1.45l.8.18c-.26.43-.54.89-.82,1.26h2.41v5.47ZM292.32,14.26c.23.37.53.87.67,1.18l-.68.28c-.15-.31-.44-.84-.66-1.23l.67-.22ZM292.75,20.76v.49h-.69v-2.9h3.88v2.41h-3.19ZM292.75,18.94v1.23h2.53v-1.23h-2.53Z"/>
    <path class="cls-5" d="M300.78,17.49h3.75v4.53h-.78v-.48h-2.22v.57h-.75v-4.62ZM301.53,18.26v2.52h2.22v-2.52h-2.22ZM308.1,16.38h-5.78v-3.52h5.78v3.52ZM307.31,13.61h-4.22v2.01h4.22v-2.01ZM309.64,17.49v4.55h-.78v-.5h-2.41v.57h-.76v-4.62h3.95ZM308.87,20.78v-2.52h-2.41v2.52h2.41Z"/>
  </g>
  <path id="_票卷撕開外框線" data-name="票卷撕開外框線" class="cls-9" d="M30,160.44v52.56c0,1.14.13,2.25.36,3.32,1.65,7.46,8.71,13.07,17.17,13.07h326.93c9.68,0,17.53-7.34,17.53-16.39V20.3c0-9.05-7.85-16.39-17.53-16.39H47.62c-9.72,0-17.58,7.39-17.53,16.47v1.69s.32,60.86.32,60.86l-.41,77.51Z"/>
</svg>