<?xml version="1.0" encoding="UTF-8"?>
<svg id="Layer_1" data-name="Layer 1" xmlns="http://www.w3.org/2000/svg" xmlns:xlink="http://www.w3.org/1999/xlink" viewBox="0 0 219 142.88">
  <defs>
    <style>
      .cls-1 {
        fill: #cde2ed;
      }

      .cls-1, .cls-2, .cls-3, .cls-4, .cls-5, .cls-6, .cls-7, .cls-8 {
        stroke-width: 0px;
      }

      .cls-2 {
        fill: #e5a856;
      }

      .cls-3 {
        fill: none;
      }

      .cls-9 {
        clip-path: url(#clippath-1);
      }

      .cls-4 {
        fill: #666;
      }

      .cls-5 {
        fill: #f2f1ec;
      }

      .cls-6 {
        fill: #fdc164;
      }

      .cls-10 {
        opacity: .15;
      }

      .cls-11 {
        clip-path: url(#clippath);
      }

      .cls-7 {
        fill: #365b6d;
      }

      .cls-8 {
        fill: #f2f1ec;
      }
    </style>
    <clipPath id="clippath">
      <path class="cls-3" d="M16.29,94.41v26.5c0,.57.07,1.13.19,1.67.89,3.76,4.68,6.59,9.23,6.59h175.66c5.2,0,9.42-3.7,9.42-8.26V23.74c0-4.56-4.22-8.26-9.42-8.26H25.76c-5.22,0-9.45,3.73-9.42,8.3v.85s.17,30.68.17,30.68l-.22,39.08Z"/>
    </clipPath>
    <clipPath id="clippath-1">
      <rect class="cls-3" x="118.21" y="112.98" width="9.38" height="9.31"/>
    </clipPath>
  </defs>
  <g id="_反面" data-name="反面">
    <g id="_撕開底層" data-name="撕開底層">
      <g>
        <path class="cls-1" d="M13.03,91.71l-.07-.02-6.23-4.69-.04-.06c-.02-.06-1.66-6.33-1.66-14.37s1.64-15.31,1.66-15.38l.04-.06,6.23-4.69.07-.02h3.35l.11.11v39.08l-.11.11h-3.35Z"/>
        <path class="cls-7" d="M16.39,52.51v39.08h-3.35l-6.23-4.69s-1.66-6.22-1.66-14.34,1.66-15.36,1.66-15.36l6.23-4.69h3.35M16.39,52.29h-3.35l-.13.04-6.23,4.69-.08.13c-.02.07-1.66,7.36-1.66,15.41s1.65,14.34,1.66,14.4l.08.12,6.23,4.69.13.04h3.35l.22-.22v-39.08l-.22-.22h0Z"/>
      </g>
      <g>
        <path class="cls-5" d="M16.39,94.51v26.5c0,.57.07,1.13.19,1.67.89,3.76,4.68,6.59,9.23,6.59h175.66c5.2,0,9.42-3.7,9.42-8.26V23.84c0-4.56-4.22-8.26-9.42-8.26H25.86c-5.22,0-9.45,3.73-9.42,8.3v.85s.17,30.68.17,30.68l-.22,39.08Z"/>
        <path class="cls-7" d="M201.47,129.38H25.81c-4.5,0-8.42-2.81-9.33-6.68-.13-.56-.2-1.13-.2-1.7v-26.5l.22-39.08-.17-30.68v-.85c-.01-2.04.82-4.01,2.35-5.55,1.81-1.82,4.43-2.87,7.18-2.87h175.61c5.26,0,9.53,3.76,9.53,8.37v97.17c0,4.62-4.28,8.37-9.53,8.37ZM16.5,94.51v26.5c0,.55.06,1.1.19,1.65.89,3.77,4.72,6.5,9.12,6.5h175.66c5.13,0,9.31-3.66,9.31-8.15V23.84c0-4.49-4.18-8.15-9.31-8.15H25.86c-2.69,0-5.25,1.02-7.02,2.8-1.48,1.49-2.3,3.41-2.28,5.39v.85l.17,30.68-.22,39.08h0Z"/>
      </g>
    </g>
    <g id="_底層色彩" data-name="底層色彩">
      <g class="cls-11">
        <rect class="cls-2" x="11.85" y="15.52" width="204.59" height="13.33"/>
        <rect class="cls-7" x="11.37" y="104.82" width="204.59" height="24.56"/>
      </g>
    </g>
    <g id="_淺藍底" data-name="淺藍底">
      <rect class="cls-1" x="16.49" y="38.74" width="194.36" height="66.08"/>
    </g>
    <g id="A賞">
      <path class="cls-4" d="M56.88,46.87h11.74l16.06,49.63h-10.46l-3.51-12.73h-16.2l-3.51,12.73h-10.12l15.99-49.63ZM56.68,76.07h11.88l-1.48-5.42c-1.55-5.16-2.9-10.85-4.32-16.21h-.34c-1.28,5.43-2.77,11.05-4.25,16.21l-1.48,5.42Z"/>
      <path class="cls-4" d="M103.93,93.2c2.11.58,4.41,1.32,5.83,1.85l-2.79,1.41c-1.35-.58-3.71-1.43-6.05-2.1l1.73-1.16h-6.43l2.34.87c-1.71,1.16-4.57,2.01-6.91,2.52-.45-.56-1.42-1.54-1.98-1.99,2.23-.27,4.72-.76,6.12-1.41h-3.24v-8.01h14.69v8.01h-3.31ZM92.75,82.15h-2.47v-4.24h3.1c-.32-.54-.72-1.12-1.08-1.59l2.38-.65c.59.65,1.19,1.54,1.51,2.14l-.27.09h2.43v-2.32h2.65v2.32h2.47c.49-.67,1.1-1.61,1.42-2.3l2.74.65c-.45.63-.92,1.18-1.35,1.65h3.13v4.24h-2.61v-2.43h-14.06v2.43ZM93.85,84.43v-3.88h11.95v3.88h-11.95ZM95.09,87.4h9.49v-.78h-9.49v.78ZM95.09,89.56h9.49v-.78h-9.49v.78ZM95.09,91.75h9.49v-.8h-9.49v.8ZM96.32,82.95h6.82v-.94h-6.82v.94Z"/>
    </g>
    <g id="logo">
      <path class="cls-8" d="M98.06,112.95v9.51h-2.59v-1.07c-.57.74-1.54,1.03-2.41,1.03-2.63.02-4.78-2.1-4.8-4.71-.02-2.61,2.11-4.74,4.74-4.76.91,0,1.89.33,2.46,1.05v-1.05h2.59ZM95.38,117.67c0-.63-.24-1.21-.7-1.65-.44-.44-1.04-.68-1.65-.66-.63,0-1.22.24-1.67.68-.44.44-.69,1.03-.69,1.65s.26,1.21.7,1.65c.44.44,1.04.68,1.67.68.63-.02,1.22-.26,1.65-.7.44-.44.69-1.03.69-1.65"/>
      <path class="cls-8" d="M106.81,121.31c-.85.72-1.95,1.14-3.15,1.14-2.63-.02-4.76-2.15-4.74-4.76.02-2.61,2.17-4.73,4.8-4.71,1.19.02,2.28.46,3.11,1.18l-1.72,1.69c-.41-.29-.89-.46-1.41-.46-.63,0-1.22.24-1.67.66-.44.44-.69,1.03-.69,1.65-.02.63.22,1.21.67,1.65.44.44,1.04.68,1.67.7.52,0,1-.17,1.41-.46l1.72,1.71Z"/>
      <path class="cls-8" d="M117.38,117.95v4.5h-2.41v-4.67h-.02v-.06c0-.61-.24-1.2-.69-1.64-.44-.44-1.04-.68-1.67-.68s-1.22.26-1.67.7c-.44.44-.69,1.03-.67,1.65v.02h-.02v4.67h-2.59v-11.95h2.59v3.68c.78-.92,1.48-1.08,2.33-1.16,2.61-.22,4.8,1.45,4.8,4.71v.22Z"/>
      <path class="cls-8" d="M134.24,112.82v2.63c-2,0-3.22,1.6-3.22,2.81v4.19h-2.59v-9.47h2.59v1.42c.43-1.18,1.3-1.58,3.22-1.58"/>
      <path class="cls-8" d="M144.34,112.95v9.51h-2.59v-1.07c-.57.74-1.54,1.03-2.41,1.03-2.63.02-4.78-2.1-4.8-4.71-.02-2.61,2.11-4.74,4.74-4.76.91,0,1.89.33,2.46,1.05v-1.05h2.59ZM141.65,117.67c0-.63-.24-1.21-.7-1.65-.44-.44-1.04-.68-1.65-.66-.63,0-1.22.24-1.67.68-.44.44-.69,1.03-.69,1.65s.26,1.21.7,1.65c.44.44,1.04.68,1.67.68.63-.02,1.22-.26,1.65-.7.44-.44.69-1.03.69-1.65"/>
      <g>
        <g class="cls-10">
          <g class="cls-9">
            <path class="cls-8" d="M127.6,117.64c0,2.57-2.1,4.66-4.69,4.66s-4.69-2.08-4.69-4.66,2.1-4.66,4.69-4.66,4.69,2.08,4.69,4.66"/>
          </g>
        </g>
        <path class="cls-6" d="M128.02,117.59c-.12-2.73-2.37-4.87-5.12-4.87-2.56,0-4.74,1.89-5.08,4.4,0,0,0,0,0,0,0,.01,0-.01,0,0,0,.06-.03.16-.03.22v.03c-.16,2.27,1.3,4.4,3.5,5.08,3.26,1,6.65-1.47,6.72-4.65v-.22ZM122.9,113.37c2.33,0,4.25,1.76,4.45,4.04-3.18,1.92-7.49.71-8.86-.36.36-2.11,2.22-3.68,4.41-3.68"/>
      </g>
      <path class="cls-8" d="M85.12,115.51h-3v2.39h2.78c-.17.42-.7.97-.83,1.1-.69.66-1.59,1.05-2.56,1.05s-1.87-.39-2.54-1.05c-.69-.68-1.07-1.58-1.07-2.54s.39-1.86,1.07-2.54c.67-.68,1.57-1.05,2.54-1.05.8,0,1.56.26,2.19.72l1.85-1.82c-1.09-.92-2.5-1.47-4.04-1.47-3.43,0-6.21,2.76-6.21,6.16s2.78,6.16,6.21,6.16c1.35,0,2.59-.42,3.61-1.14,0,0,.01,0,.03-.02l2.38.94v-6.9h-2.41Z"/>
    </g>
    <g>
      <path class="cls-5" d="M59.63,23.09l-.21.21c-.76-.42-1.29-.9-1.58-1.45h-1.22c-.34.56-.86,1.04-1.59,1.44l-.2-.22c.7-.37,1.19-.77,1.46-1.21h-1.37v-.26h1.28v-.73h-1.07v-.27h1.07v-.62h.28v.62h1.47v-.62h.28v.62h1.1v.27h-1.1v.73h1.3v.26h-1.38c.29.49.78.91,1.48,1.24ZM56.46,23.1c-.34.49-.74.92-1.18,1.27l-.21-.22c.46-.33.84-.73,1.15-1.21l.24.16ZM57.13,24.22c0,.18-.04.3-.13.36s-.25.09-.5.09c-.09,0-.18,0-.25-.01l-.13-.3c.21,0,.41.01.59.01.03,0,.06-.01.09-.04s.05-.06.05-.09v-1.93h.28v1.9ZM57.95,21.59v-.73h-1.47v.73h1.47ZM58.33,24.43l-.26.11c-.16-.55-.36-1.05-.62-1.5l.25-.11c.28.49.49.99.63,1.5ZM59.3,24.19l-.25.13c-.17-.37-.46-.81-.86-1.32l.23-.13c.32.35.61.79.88,1.31Z"/>
      <path class="cls-5" d="M65.24,23.16h-4.7v-.27h1.43c-.06-.14-.14-.28-.24-.41h-.56v-.94h3.41v.94h-.55c-.07.15-.15.29-.22.41h1.43v.27ZM65.11,20.58h-2.09v.37h1.85v.25h-3.97v-.25h1.85v-.37h-2.09v-.26h2.09v-.33h.27v.33h2.09v.26ZM64.72,24.7h-.28v-.26h-3.13v.26h-.28v-1.22h3.69v1.22ZM64.44,24.17v-.42h-3.13v.42h3.13ZM64.3,22.21v-.41h-2.85v.41h2.85ZM63.71,22.48h-1.65c.12.21.19.35.22.41h1.2c.1-.14.17-.28.23-.41Z"/>
      <path class="cls-5" d="M70.61,23.07h-1.9v1.61h-.28v-1.61h-1.91v-2.13h1.91v-.95h.28v.95h1.9v2.13ZM68.42,22.78v-1.56h-1.63v1.56h1.63ZM70.32,22.78v-1.56h-1.61v1.56h1.61Z"/>
      <path class="cls-5" d="M76.57,24.44l-.14.26c-1.05-.18-1.79-.58-2.22-1.21-.23.36-.56.63-.98.84-.32.15-.73.27-1.24.37l-.13-.26c.49-.09.88-.19,1.16-.31.42-.18.72-.42.92-.74h-1.98v-.25h2.11c.05-.16.09-.31.11-.45l.27.04c-.03.16-.06.29-.1.41h2.12v.25h-2.01c.43.57,1.14.92,2.12,1.06ZM73.43,22.73h-.26v-1.04h-.6c-.03.42-.19.74-.47.97l-.2-.16c.27-.24.41-.51.41-.8h-.36v-.26h1.23v-.49h-.97v-.85h.27v.59h.7v-.71h.26v2.74ZM76.33,20.35l-.02.23c-.69.51-1.55.79-2.57.86l-.12-.23c.52-.02.99-.1,1.41-.24-.17-.15-.38-.29-.63-.43-.14.05-.37.13-.67.22l-.14-.22c.62-.17,1.09-.36,1.41-.57l.25.14s-.1.07-.17.11l1.26.13ZM76.56,21.88h-.52v.45c0,.22-.1.34-.31.36-.14.01-.3.01-.49,0l-.08-.23c.1,0,.25,0,.45,0,.04,0,.08-.02.11-.05s.04-.07.04-.11v-.42h-2.1v-.25h2.1v-.43h.27v.43h.52v.25ZM74.47,20.92c-.19.05-.37.1-.53.12l-.08-.19c.19-.03.38-.07.56-.13l.05.19ZM74.94,22.36l-.15.18c-.2-.14-.43-.27-.7-.38l.14-.21c.24.1.48.23.71.4ZM75.91,20.57l-1.23-.13c.18.1.39.25.61.44.27-.11.47-.22.62-.31ZM76.51,22.82l-.13.2c-.11-.08-.24-.16-.4-.22l.13-.2c.15.05.28.13.4.23Z"/>
      <path class="cls-5" d="M77.7,24.15c0-.09.03-.16.09-.22s.13-.09.21-.09.15.03.21.09.09.13.09.22c0,.08-.03.15-.09.21s-.13.09-.2.09c-.09,0-.17-.03-.23-.09s-.09-.13-.09-.21ZM78.22,20.35l-.05,2.92h-.36l-.05-2.92h.46Z"/>
      <path class="cls-5" d="M81.08,20.79h-1.64v-.26h.8c-.05-.12-.13-.28-.24-.47l.25-.11c.12.22.22.42.28.58h.55v.26ZM81.01,21.56h-1.44v-.27h1.44v.27ZM81.01,22.36h-1.44v-.28h1.44v.28ZM80.93,24.53h-.27v-.29h-.75v.42h-.27v-1.77h1.29v1.63ZM80.66,23.98v-.81h-.75v.81h.75ZM84.12,21.92h-2.94v-.25h1.35v-.39h-1.12v-.25h1.12v-.37h-1.23v-.25h1.23v-.42h.27v.42h1.2v.25h-1.2v.37h1.08v.25h-1.08v.39h1.31v.25ZM83.79,24.25c0,.13-.04.24-.13.32s-.36.11-.82.1l-.09-.27h.6s.07-.02.11-.05.05-.07.05-.1v-.44h-1.74c-.08.36-.21.65-.38.89l-.2-.18c.24-.33.37-.8.37-1.42v-.84h2.24v1.99ZM83.51,23.55v-.41h-1.7c0,.13,0,.27-.02.41h1.72ZM83.51,22.9v-.39h-1.7v.39h1.7Z"/>
      <path class="cls-5" d="M89.84,24.56h-4.71v-.28h2.2v-1.05h-1.75v-.27h1.75v-.66h.28v.66h1.77v.27h-1.77v1.05h2.22v.28ZM89.71,20.39h-2.19c-.39.58-.78,1.05-1.19,1.42.85-.05,1.63-.12,2.35-.21-.2-.23-.39-.43-.59-.6l.25-.16c.52.48.94.96,1.26,1.42l-.24.15c-.12-.16-.27-.35-.45-.56-1.04.12-2.08.22-3.13.28l-.08-.2c.49-.28.98-.79,1.46-1.54h-1.93v-.28h4.48v.28Z"/>
      <path class="cls-5" d="M93.46,23.9h-1.13v.76h-.27v-.76h-1.25v-.25h1.25v-.42h-1v-1.78h2.27v1.78h-.99v.42h1.13v.25ZM92.02,21.13h-1.1v-1.04h1.1v1.04ZM91.76,20.89v-.53h-.57v.53h.57ZM92.05,22.19v-.48h-.73v.48h.73ZM92.05,22.98v-.52h-.73v.52h.73ZM93.04,22.19v-.48h-.72v.48h.72ZM93.04,22.98v-.52h-.72v.52h.72ZM93.45,21.13h-1.09v-1.04h1.09v1.04ZM93.19,20.89v-.52h-.57v.52h.57ZM95.51,23.71c-.08.35-.16.6-.24.74s-.2.21-.33.21c-.25,0-.46-.31-.62-.94-.32.34-.62.61-.91.81l-.2-.19c.41-.29.76-.61,1.05-.94-.08-.39-.13-.92-.15-1.6-.1.01-.28.02-.53.04l-.02-.27c.18,0,.36-.02.53-.05l-.02-1.54h.28v1.51c.22-.01.59-.04,1.09-.1l.02.27-1.09.09c.02.61.05,1.05.1,1.32.25-.34.46-.72.62-1.13l.24.13c-.25.54-.51,1-.81,1.37.04.18.09.35.14.5s.11.26.16.32.09.09.12.09c.02,0,.05,0,.07-.02s.06-.1.12-.26.11-.35.14-.57l.24.18ZM95.33,20.97l-.23.15c-.17-.32-.33-.56-.49-.74l.22-.14c.17.18.34.42.5.73Z"/>
      <path class="cls-5" d="M99.19,23l-.17.23c-.36-.4-.7-.71-1-.94v2.37h-.28v-2.44c-.38.65-.75,1.15-1.11,1.5l-.17-.23c.17-.17.33-.36.5-.57s.33-.48.52-.79.27-.48.27-.5v-.04h-1.25v-.27h1.25v-.78c-.33.05-.66.1-1,.13l-.11-.28c.87-.07,1.6-.21,2.2-.43l.18.26c-.3.1-.63.19-.99.26v.84h1.05v.27h-1.05v.35c.39.27.78.62,1.17,1.04ZM99.81,23.69h-.28v-3.32h.28v3.32ZM101.03,24.15c0,.22-.06.37-.19.43s-.33.09-.61.09h-.42l-.11-.3c.26.01.47.02.63.02.14,0,.23,0,.27,0s.07-.02.1-.06.04-.08.04-.12v-4.21h.28v4.15Z"/>
      <path class="cls-5" d="M103.18,20.04l-.25.95v3.69h-.26v-2.97c-.19.39-.32.64-.41.78l-.17-.26c.38-.65.66-1.4.83-2.25l.26.07ZM104.67,20.8h-1.49v-.25h.68c-.04-.13-.11-.3-.22-.51l.25-.07c.09.18.18.37.24.57h.55v.25ZM104.57,21.56h-1.26v-.25h1.26v.25ZM104.57,22.36h-1.26v-.25h1.26v.25ZM104.53,24.57h-.27v-.3h-.6v.41h-.27v-1.78h1.14v1.68ZM104.26,24v-.83h-.6v.83h.6ZM106.82,21.66h-.72c-.13.18-.33.39-.6.64h1.12v2.37h-.27v-.36h-1.04v.36h-.26v-1.99c-.09.06-.18.12-.27.19l-.18-.19c.51-.35.91-.69,1.19-1.02h-1.04v-.25h.76v-.6h-.65v-.26h.65v-.56h.25v.56h.56v.24c.1-.21.18-.43.25-.64l.25.05c-.15.45-.34.85-.56,1.21h.56v.25ZM106.35,23.16v-.59h-1.04v.59h1.04ZM106.35,24.05v-.63h-1.04v.63h1.04ZM106.3,20.82h-.55v.6h.21c.14-.21.25-.41.34-.6Z"/>
      <path class="cls-5" d="M110.03,20.67h-.67v.42h-.27s0-.42,0-.42h-1.28v-.25h1.28v-.43h.27v.43h.67v.25ZM112.53,23.74c-.1.62-.26.93-.49.93-.17,0-.35-.18-.55-.54-.12.14-.25.26-.37.37l-.18-.19c.15-.13.29-.29.43-.47-.16-.47-.25-1.22-.27-2.25h-1.99v1.5c0,.63-.14,1.18-.43,1.64l-.22-.17c.24-.42.37-.91.38-1.49h-.41c-.04.51-.17.93-.4,1.25l-.21-.16c.2-.32.31-.69.33-1.09h-.34v-.26h1.03v-.54h-.79v-.93h.27v.66h.52v-.67h2.24v-.23h.29c0,.07-.01.15-.01.23h1.09v.25h-1.09c0,.84.07,1.47.2,1.92.21-.43.35-.93.43-1.52l.25.09c-.1.73-.3,1.33-.58,1.79.05.14.12.26.2.36s.13.14.15.14c.04,0,.09-.07.14-.2s.1-.32.12-.57l.25.14ZM110.9,22.17h-.48v.41h.42v.93h-.42v.5h.37v.25h-1.32v-2.34h1.43v.25ZM110.15,22.58v-.41h-.41v.41h.41ZM110.58,23.26v-.43h-.84v.43h.84ZM110.15,24v-.5h-.41v.5h.41ZM112.51,20.67h-1.28v.27h-.27v-.27h-.67v-.25h.67v-.43h.27v.43h1.28v.25ZM112.33,21.05l-.18.19c-.16-.11-.31-.19-.46-.26l.16-.19c.15.05.31.14.49.26Z"/>
      <path class="cls-5" d="M118.16,20.73h-3.91v.82c0,1.37-.19,2.42-.57,3.16l-.25-.18c.15-.24.27-.58.38-1.02s.16-1.1.16-2v-1.02h2.04c-.04-.09-.11-.24-.21-.43l.24-.1c.07.12.16.29.26.54h1.86v.24ZM118.18,24.06h-1.77v.6h-.27v-.6h-1.78v-.24h1.78v-.38h-1.43v-1.57h1.43v-.41h-1.65v-.24h1.65v-.33h.27v.33h1.64v.24h-1.64v.41h1.4v1.57h-1.4v.38h1.77v.24ZM116.14,22.54v-.43h-1.15v.43h1.15ZM116.14,23.21v-.44h-1.15v.44h1.15ZM117.55,22.54v-.43h-1.14v.43h1.14ZM117.55,23.21v-.44h-1.14v.44h1.14Z"/>
      <path class="cls-5" d="M123.54,23.07h-1.9v1.61h-.28v-1.61h-1.91v-2.13h1.91v-.95h.28v.95h1.9v2.13ZM121.35,22.78v-1.56h-1.63v1.56h1.63ZM123.25,22.78v-1.56h-1.61v1.56h1.61Z"/>
      <path class="cls-5" d="M126.53,20.5h-.7c-.08.53-.19.97-.33,1.32h.94v2.4h-.27v-.23h-.59v.34h-.27v-2.08c-.08.16-.18.33-.3.51l-.22-.18c.4-.54.67-1.24.79-2.09h-.69v-.28h1.64v.28ZM126.16,23.74v-1.64h-.58v1.64h.58ZM129.51,24.36h-2.16v.3h-.28v-2.59c-.16.15-.28.26-.36.32l-.18-.19c.6-.51.99-1.01,1.17-1.47h-.71v.62h-.28v-.88h1.1c.08-.21.13-.38.16-.49l.26.06c-.03.14-.08.28-.13.43h1.3v.88h-.27v-.62h-1.12c-.14.34-.36.69-.64,1.04h.95c-.07-.21-.13-.36-.19-.46l.25-.09c.08.19.15.37.19.54h.88v.26h-.93v.5h.85v.25h-.85v.53h.85v.24h-.85v.56h1v.26ZM128.23,22.53v-.5h-.88v.5h.88ZM128.23,23.3v-.53h-.88v.53h.88ZM128.23,24.1v-.56h-.88v.56h.88Z"/>
      <path class="cls-5" d="M132.15,20.8h-1.67v-.27h.72c-.07-.18-.14-.35-.22-.49l.24-.09c.12.21.21.41.26.58h.66v.27ZM132.05,21.58h-1.45v-.27h1.45v.27ZM132.05,22.34h-1.45v-.27h1.45v.27ZM131.95,24.53h-.27v-.29h-.71v.42h-.27v-1.8h1.25v1.67ZM131.68,23.97v-.84h-.71v.84h.71ZM132.75,22.93c-.12.57-.26,1.01-.41,1.3l-.25-.11c.17-.37.3-.79.39-1.26l.27.07ZM134.98,20.11c-.01.39-.04.78-.07,1.15s-.06.59-.08.66-.06.13-.12.19-.14.1-.24.12-.28.03-.54.02l-.08-.29c.17,0,.3.01.37.01.18,0,.3-.05.36-.15s.1-.58.13-1.44h-.73c-.07,1.09-.58,1.78-1.54,2.07l-.16-.22c.42-.14.75-.35.99-.62-.18-.2-.4-.39-.67-.57l.18-.19c.23.14.45.32.65.54.16-.28.25-.62.27-1.01h-1.34v-.27h2.63ZM134.44,23.61c-.02.37-.05.62-.11.73s-.12.18-.2.21-.25.05-.5.05c-.23,0-.39-.03-.48-.1s-.13-.18-.13-.36v-1.28h.27v1.31c0,.05.02.09.07.12s.18.05.4.05c.16,0,.27-.03.32-.09s.08-.3.11-.7l.25.07ZM134.11,23.01l-.2.19c-.19-.27-.39-.51-.62-.72l.18-.19c.28.26.49.5.63.73ZM135.18,24.05l-.26.12c-.08-.38-.21-.8-.41-1.24l.23-.1c.21.47.36.88.44,1.23Z"/>
      <path class="cls-5" d="M137.58,20.06c-.12.27-.28.57-.49.88v2.02h-.28v-1.62c-.17.2-.34.38-.54.56l-.18-.22c.53-.49.94-1.06,1.24-1.71l.25.1ZM137.13,23.22c-.21.53-.44.94-.69,1.24l-.24-.15c.28-.34.51-.74.67-1.19l.25.11ZM140.64,20.39c-.09.35-.19.65-.3.92l-.27-.07c.09-.2.15-.4.21-.58h-1.95c-.22.3-.45.57-.71.83l-.22-.19c.47-.46.81-.91,1.01-1.34l.26.11c-.04.09-.09.2-.17.33h2.14ZM138.66,21.53c-.31.51-.61.89-.9,1.14l-.21-.2c.31-.28.61-.64.89-1.09l.23.15ZM139.79,23.91c-.02.21-.06.38-.12.49s-.15.18-.25.21-.3.04-.59.04c-.27,0-.5,0-.7-.01s-.33-.03-.39-.05-.1-.07-.14-.13-.05-.16-.05-.3v-1.09h.28v1.11c0,.09.03.14.09.17s.47.04,1.23.04c.13,0,.22-.04.28-.13s.08-.24.1-.47l.27.13ZM139.17,23.64l-.22.17c-.16-.28-.36-.55-.6-.81l.21-.18c.26.29.46.56.6.81ZM139.33,22.91h-.28v-1.93h.28v1.93ZM140.75,22.43l-.23.18c-.19-.35-.45-.71-.8-1.08l.21-.17c.37.37.64.73.83,1.07ZM140.81,24.35l-.25.14c-.17-.37-.41-.76-.72-1.16l.22-.15c.35.46.6.85.75,1.17Z"/>
      <path class="cls-5" d="M143.69,24.57h-.27v-.46h-1.17v.57h-.27v-3.8h.5c.14-.24.26-.55.38-.92l.27.05c-.06.19-.19.48-.37.87h.92v3.69ZM143.41,22.3v-1.15h-1.17v1.15h1.17ZM143.41,23.83v-1.27h-1.17v1.27h1.17ZM146.39,20.88c-.02.8-.06,1.55-.12,2.24s-.11,1.09-.17,1.22-.13.21-.22.26-.26.08-.52.08c-.11,0-.26,0-.43,0l-.09-.27c.15,0,.31,0,.48,0,.16,0,.26,0,.31,0s.09-.03.14-.07.08-.09.11-.14.05-.26.08-.62.06-.75.09-1.18.04-.84.05-1.25h-1.41c-.19.37-.41.72-.65,1.06l-.22-.15c.47-.62.81-1.3,1-2.06l.27.07c-.09.29-.19.56-.3.82h1.6ZM145.4,23.28l-.23.16c-.17-.4-.43-.81-.78-1.25l.23-.15c.32.39.58.8.78,1.24Z"/>
      <path class="cls-5" d="M152.17,20.64h-1.45l.21.17c-.07.2-.17.42-.3.65h1.2v2.81c0,.11-.04.21-.12.29s-.24.12-.5.12c-.07,0-.15,0-.23-.01l-.09-.28h.54c.08-.01.13-.05.13-.14v-2.53h-1.09v.47c0,.09.05.13.14.13h.7v.25h-.8c-.08,0-.15-.03-.22-.09s-.11-.12-.11-.19v-.58h-.73c-.02.27-.12.5-.3.69s-.42.33-.71.4l-.13-.26c.54-.13.83-.41.86-.84h-1.07v2.95h-.28v-3.21h1.17c-.09-.26-.19-.48-.29-.65l.17-.17h-1.39v-.26h2.2c-.04-.12-.1-.24-.18-.37l.29-.08c.08.15.15.3.19.46h2.18v.26ZM150.93,24.06h-2.16v-1.12h2.16v1.12ZM150.68,20.64h-1.71c.15.33.26.6.33.82h1.04c.12-.25.23-.52.33-.82ZM150.63,23.8v-.6h-1.59v.6h1.59Z"/>
      <path class="cls-5" d="M155.19,24.67h-.28v-.38h-1.19v.38h-.29v-2.35h1.76v2.35ZM154.9,24.02v-1.42h-1.19v1.42h1.19ZM157.17,21.71h-3.18v-1.59h3.18v1.59ZM156.89,21.45v-1.05h-2.61v1.05h2.61ZM157.6,24.67h-.29v-.38h-1.2v.38h-.29v-2.35h1.78v2.35ZM157.32,24.02v-1.42h-1.2v1.42h1.2Z"/>
    </g>
    <g>
      <path class="cls-7" d="M143.79,67.13l-.42.16c-.07-.22-.14-.4-.2-.54-.58.25-1.11.45-1.59.6l-.17-.43c.08-.05.12-.12.12-.2v-3.8h2.03v2.5h-1.54v1.3c.3-.1.62-.23.97-.37-.08-.2-.17-.38-.28-.54l.42-.18c.29.51.51,1.01.66,1.5ZM143.09,63.93v-.57h-1.07v.57h1.07ZM143.09,64.98v-.61h-1.07v.61h1.07ZM145.95,66.43c0,.25-.06.41-.18.49s-.32.12-.61.12c-.11,0-.22,0-.35,0l-.13-.48c.22.01.44.02.66.02.03,0,.06-.02.09-.05s.04-.07.04-.1v-3.01h-.94v4.13h-.47v-4.59h1.9v3.5Z"/>
      <path class="cls-7" d="M148.58,67.52h-.45v-1.94h-.33c-.01.93-.14,1.57-.39,1.93l-.4-.25c.22-.36.33-.92.32-1.68h-.27v-.45h1.08v-.62h-.9v-1.48h.45v1.04h.45v-1.23h.45v4.68ZM151.48,63.64c-.42.52-.81.89-1.18,1.11s-.82.38-1.36.49l-.24-.4c.62-.13,1.09-.31,1.42-.52-.31-.19-.57-.33-.79-.43l-.35.21-.29-.36c.53-.29.94-.6,1.22-.94l.43.17c-.04.05-.11.13-.2.24h1.34v.43ZM149.6,64.42c-.32.1-.55.16-.69.18l-.13-.33c.3-.06.56-.12.78-.19l.03.34ZM151.74,65.79h-.57v1.26c0,.14-.05.26-.16.33s-.42.12-.92.12l-.14-.44c.15,0,.27.01.35.01.19,0,.31-.01.35-.03s.06-.06.06-.11v-1.14h-1.9v-.43h1.9v-.59h.47v.59h.57v.43ZM150.02,66.68l-.4.27c-.11-.22-.31-.49-.61-.82l.36-.27c.3.32.52.59.64.83ZM150.92,63.64h-1.22c.28.13.54.26.78.41.19-.16.33-.3.43-.41Z"/>
      <path class="cls-7" d="M157.4,63.72h-.79v.26c0,.07.04.11.12.11h.56v.4h-.74c-.28,0-.41-.15-.41-.46v-.31h-.43v.77h-1.43v-.77h-.43c-.07.45-.33.78-.8,1.01l-.34-.34c.36-.15.58-.37.66-.66h-.68v-.42h.72c0-.08,0-.23,0-.46h.47c0,.16,0,.31,0,.46h.39v-.46h.46v.46h.51v-.46h.46v.46h.43v-.46h.47v.46h.79v.42ZM157.28,65.76h-.47v-.54h-1.52v.43h1.36v1.19c0,.13-.03.23-.09.3s-.14.11-.25.12-.3.02-.59.02l-.15-.44h.5c.07-.01.11-.05.11-.14v-.65h-.89v1.46h-.48v-1.46h-.9v1.22h-.46v-1.63h1.36v-.43h-1.53v.54h-.47v-.96h4.48v.96ZM155.25,64.1v-.38h-.51v.38h.51Z"/>
      <path class="cls-7" d="M159.89,62.93c-.11.24-.28.52-.48.85v1.99h-.47v-1.35c-.07.07-.19.19-.35.35l-.28-.4c.41-.36.79-.89,1.14-1.59l.44.14ZM159.42,66.07c-.19.55-.41.98-.66,1.3l-.41-.27c.22-.27.43-.66.62-1.17l.45.14ZM162.98,63.2c-.1.42-.2.74-.31.96l-.46-.15c.05-.12.1-.24.14-.37h-1.76c-.22.32-.44.57-.67.76l-.35-.32c.34-.28.67-.71,1.01-1.3l.43.18c-.06.12-.11.19-.13.23h2.09ZM162.09,66.67c-.06.29-.12.49-.18.58s-.16.16-.3.19-.44.05-.91.05c-.42,0-.7-.04-.84-.11s-.21-.24-.21-.5v-.98h.48v.95c0,.08.03.14.1.16s.25.04.53.04c.31,0,.5,0,.58-.02s.14-.06.18-.13.07-.21.09-.41l.47.18ZM160.93,64.41c-.29.51-.58.9-.86,1.18l-.37-.31c.27-.26.54-.63.82-1.13l.41.26ZM161.4,66.46l-.37.28c-.18-.28-.39-.55-.62-.8l.36-.28c.3.32.51.58.64.8ZM161.64,65.78h-.49v-1.93h.49v1.93ZM163.08,65.26l-.39.27c-.24-.38-.52-.75-.84-1.1l.38-.25c.33.35.61.71.85,1.08ZM163.1,67.15l-.41.25c-.21-.45-.45-.86-.72-1.22l.4-.26c.3.38.54.79.74,1.23Z"/>
      <path class="cls-7" d="M166.38,66.99c0,.14-.03.24-.09.32s-.13.12-.21.14-.23.04-.44.04c-.11,0-.2,0-.28,0l-.17-.46c.08,0,.16.01.25.01.21,0,.34,0,.4-.02s.1-.05.1-.11v-.54h-1.04c-.08.49-.24.88-.49,1.15l-.4-.25c.32-.32.48-.88.48-1.68v-1.37h1.88v2.78ZM168.76,63.87h-4.7v-.44h4.7v.44ZM166.08,63.14l-.5.22c-.21-.13-.48-.25-.79-.36l.5-.24c.29.1.55.22.78.37ZM165.94,65.08v-.44h-.98v.44h.98ZM165.94,65.95v-.46h-.98v.46h.98ZM167.96,63c-.29.17-.55.29-.77.36l-.5-.22c.28-.12.54-.25.76-.38l.5.24ZM167.4,66.6h-.47v-2.32h.47v2.32ZM168.38,66.93c0,.22-.05.37-.16.45s-.3.11-.58.11c-.11,0-.23,0-.35-.01l-.15-.46h.67s.05-.01.07-.04.03-.06.03-.09v-2.72h.46v2.77Z"/>
      <path class="cls-7" d="M171.17,63.04c-.38.57-.81.98-1.28,1.23l-.22-.42c.46-.29.82-.64,1.08-1.03l.42.21ZM171.31,64.35c-.12.2-.28.42-.47.67v2.51h-.49v-2c-.1.1-.25.21-.45.34l-.21-.43c.44-.29.85-.73,1.21-1.3l.41.21ZM174.42,67.44h-3.32v-.45h1.4v-1.31h-1.21v-.46h1.21v-1.14h-1.37v-.45h1.37c-.11-.26-.23-.5-.36-.7l.49-.12c.14.24.27.52.37.82h1.31v.45h-1.34v1.14h1.21v.46h-1.21v1.31h1.44v.45Z"/>
      <path class="cls-7" d="M139.93,76.21h-9.4v-.95h9.4v.95Z"/>
      <path class="cls-7" d="M151.32,75.99l-.37.86c-.37-.16-.63-.27-.8-.33v4.12h-.94v-.4h-5.26v.4h-.93v-3.96c-.35.13-.62.21-.82.26l-.44-.84c1.25-.31,2.4-.81,3.43-1.51h-3.24v-.87h4.14v-1.19c-.56.03-1.18.05-1.86.05-.5,0-1.06,0-1.69-.03l-.25-.8c.69.02,1.33.04,1.95.04,2.15,0,4.12-.17,5.92-.52l.49.73c-1.18.23-2.39.39-3.63.47v1.25h4.11v.87h-4.11v.03c1.24.32,2.67.77,4.31,1.37ZM145.02,73.36l-.95.29c-.2-.21-.43-.41-.69-.61l.9-.34c.27.18.52.4.74.66ZM146.09,76.42v-1.41c-.65.52-1.44.99-2.38,1.41h2.38ZM146.12,77.92v-.65h-2.17v.65h2.17ZM146.12,79.42v-.73h-2.17v.73h2.17ZM149.87,76.42c-.71-.29-1.67-.6-2.86-.91v.91h2.86ZM149.21,77.92v-.65h-2.16v.65h2.16ZM149.21,79.42v-.73h-2.16v.73h2.16ZM149.77,72.81c-.21.27-.47.53-.79.78l-.89-.41c.26-.17.53-.42.81-.75l.86.37Z"/>
      <path class="cls-7" d="M161.56,79.34h-4.91l.43.45c-.99.45-2.15.77-3.5.98l-.44-.85c1.01-.1,1.93-.3,2.78-.59h-1.64v-3.75h7.28v3.75ZM162.39,74.28h-.96v-1.22h-7.03v1.22h-.94v-1.97h3.98v-1.09h.95v1.09h4.01v1.97ZM156.54,71.86l-.99.37c-.3-.24-.65-.46-1.05-.65l1.06-.36c.39.19.72.41.98.64ZM160.82,75.19h-5.78v-1.71h5.78v1.71ZM160.64,76.67v-.43h-5.42v.43h5.42ZM160.64,77.66v-.42h-5.42v.42h5.42ZM160.64,78.68v-.44h-5.42v.44h5.42ZM159.87,74.56v-.45h-3.89v.45h3.89ZM162.67,79.99l-.41.82c-.86-.24-1.95-.42-3.27-.54l.4-.77c1.48.13,2.57.3,3.28.5ZM161.29,71.57c-.4.31-.75.53-1.04.65l-1.02-.41c.4-.16.75-.36,1.05-.6l1.01.36Z"/>
      <path class="cls-7" d="M173.94,73.49h-4.22c-.11.34-.23.63-.36.89h3.52v6.28h-.98v-.52h-5.21v.52h-1v-6.28h2.57c.15-.24.28-.53.38-.89h-4.08v-.85h9.38v.85ZM168.75,72.09l-1.07.39c-.42-.33-.9-.62-1.43-.86l1.07-.39c.41.2.89.49,1.43.86ZM171.89,75.99v-.81h-5.21v.81h5.21ZM171.89,77.65v-.86h-5.21v.86h5.21ZM171.89,79.3v-.83h-5.21v.83h5.21ZM172.4,71.62c-.38.29-.88.58-1.51.86l-1.14-.39c.56-.23,1.08-.52,1.56-.86l1.1.39Z"/>
      <path class="cls-7" d="M185.28,72.37h-4.2c-.1.28-.22.59-.35.91h3.56v5.37h-5.14l.57.57c-.9.65-1.99,1.15-3.28,1.52l-.56-.77c1.15-.29,2.19-.73,3.1-1.32h-2.06v-5.37h2.82c.13-.26.26-.56.37-.91h-4.2v-.88h9.39v.88ZM183.32,74.82v-.73h-5.44v.73h5.44ZM183.32,76.35v-.73h-5.44v.73h5.44ZM183.32,77.84v-.7h-5.44v.7h5.44ZM185.29,79.97l-.5.75c-.84-.4-1.94-.77-3.3-1.09l.5-.76c1.32.3,2.42.66,3.3,1.1Z"/>
    </g>
    <g id="_票卷撕開外框線" data-name="票卷撕開外框線">
      <path class="cls-7" d="M201.47,129.38H25.81c-4.5,0-8.42-2.81-9.33-6.68-.13-.56-.2-1.13-.2-1.7v-26.5l.22-39.08-.17-30.68v-.85c-.01-2.04.82-4.01,2.35-5.55,1.81-1.82,4.43-2.87,7.18-2.87h175.61c5.26,0,9.53,3.76,9.53,8.37v97.17c0,4.62-4.28,8.37-9.53,8.37ZM16.5,94.51v26.5c0,.55.06,1.1.19,1.65.89,3.77,4.72,6.5,9.12,6.5h175.66c5.13,0,9.31-3.66,9.31-8.15V23.84c0-4.49-4.18-8.15-9.31-8.15H25.86c-2.69,0-5.25,1.02-7.02,2.8-1.48,1.49-2.3,3.41-2.28,5.39v.85l.17,30.68-.22,39.08h0Z"/>
    </g>
  </g>
</svg>