<svg width="30" height="30" viewBox="0 0 30 30" fill="none" xmlns="http://www.w3.org/2000/svg">
<path d="M13.7625 22.525C19.9826 22.525 25.025 17.4826 25.025 11.2625C25.025 5.04239 19.9826 0 13.7625 0C7.54239 0 2.5 5.04239 2.5 11.2625C2.5 17.4826 7.54239 22.525 13.7625 22.525Z" fill="#F2F1EC"/>
<path d="M27.4876 23.6875C27.0751 22.925 26.2001 22.5 25.0251 22.5C24.1376 22.5 23.3751 22.8625 22.9251 23.4875C22.4751 24.1125 22.3751 24.95 22.6501 25.7875C23.1876 27.4125 24.1251 27.775 24.6376 27.8375C24.7126 27.85 24.7876 27.85 24.8751 27.85C25.4251 27.85 26.2751 27.6125 27.1001 26.375C27.7626 25.4125 27.8876 24.45 27.4876 23.6875Z" fill="#F2F1EC"/>
</svg>
