<?xml version="1.0" encoding="UTF-8"?>
<svg id="_圖層_1" data-name="圖層 1" xmlns="http://www.w3.org/2000/svg" xmlns:xlink="http://www.w3.org/1999/xlink" viewBox="0 0 700 700">
  <defs>
    <style>
      .cls-1 {
        fill: #365b6d;
      }

      .cls-2 {
        fill: none;
      }

      .cls-3 {
        fill: #f2f1ec;
      }

      .cls-4 {
        clip-path: url(#clippath-1);
      }

      .cls-5 {
        clip-path: url(#clippath);
      }

      .cls-6 {
        fill: #e5a856;
      }

      .cls-7 {
        fill: #cde2ed;
      }
    </style>
    <clipPath id="clippath">
      <path class="cls-2" d="M599.35,138.32l-40.96,28.63-.58.42-41.56-29.05v-1.32H50.47v166.34h.92c9.27,0,16.77,20.68,16.77,46.21s-7.51,46.21-16.77,46.21h-.92v153.13h465.8v-1.32l41.56-29.05.58.42,40.96,28.63,50.99,1.32V137l-50.99,1.32ZM558.55,472.31l-.42.02c-1.98,9.78-10.43,17.14-20.55,17.14H119.38c-12.34,0-22.35-9.63-22.35-21.49v-252.71c0-11.86,10.01-21.49,22.35-21.49h418.07c11.64,0,21.05,9.69,20.98,21.6v2.22h.11v254.72Z"/>
    </clipPath>
    <clipPath id="clippath-1">
      <path class="cls-2" d="M650.35,137v411.89l-50.99-1.32-40.95-28.63-.58-.42-41.55,29.04v1.32H50.47v-153.13h.92c9.27,0,16.78-20.7,16.78-46.21s-7.51-46.21-16.78-46.21h-.92v-166.34h465.8v1.32l41.55,29.05.58-.42,40.95-28.63,50.99-1.32Z"/>
    </clipPath>
  </defs>
  <g class="cls-5">
    <g id="_底" data-name="底">
      <g id="_票卷底層" data-name="票卷底層">
        <g>
          <polygon class="cls-7" points="650.35 137 650.35 548.89 599.35 547.57 558.4 518.94 558.55 518.52 558.55 167.37 558.4 166.95 599.35 138.32 650.35 137"/>
          <g>
            <path class="cls-3" d="M558.56,391.8l-.32-.32v-101.65l.32-.32h7.47l.21.08,13.87,12.2.1.18c.04.19,3.7,19.1,3.7,40.01s-3.66,37.21-3.7,37.38l-.1.17-13.87,12.2-.21.08h-7.47Z"/>
            <path class="cls-1" d="M566.03,289.84l13.87,12.2s3.69,18.82,3.69,39.95-3.69,37.31-3.69,37.31l-13.87,12.2h-7.47v-101.65h7.47M566.03,289.21h-7.47l-.63.63v101.65l.63.63h7.47l.42-.16,13.87-12.2.2-.33c.04-.16,3.71-16.5,3.71-37.45s-3.67-39.88-3.7-40.07l-.2-.35-13.87-12.2-.42-.16h0Z"/>
          </g>
          <path class="cls-7" d="M558.44,217.6v-2.22c.07-11.91-9.35-21.6-20.98-21.6H119.38c-12.34,0-22.35,9.63-22.35,21.49v252.72c0,11.86,10.01,21.49,22.35,21.49h418.19c10.12,0,18.57-7.36,20.55-17.14l.43-.02v46.21l-.15.42-.58-.42-41.55,29.04v1.32H50.47v-153.13h.92c9.27,0,16.78-20.7,16.78-46.21s-7.51-46.21-16.78-46.21h-.92v-166.34h465.8v1.32l41.55,29.05.58-.42.15.42v50.23h-.11Z"/>
        </g>
      </g>
    </g>
    <g id="_形狀遮色片" data-name="形狀遮色片">
      <g class="cls-4">
        <path class="cls-1" d="M374.19,186.17c-16.96,52.84-57.72,50.36-122.41,36-54.82-12.17-87.44,23.81-85.32,66.77,2.27,45.98-67.16,83.87-128.24,87.1-61.08,3.23-4.24-163.16-4.24-163.16l-24.91-59.22s119.12,61.05,166.93-11.03c107.05-161.42,224.4-38.1,198.19,43.55Z"/>
        <path class="cls-1" d="M319.52,595.9c3.26-14.06,38.64-61.84,98.85-68.47,54.61-6.01,88.72,26.61,115.22-45.59,41.93-114.23,92.16-35.55,101.85-160.17,6.98-89.73,130.26,123.94,144.16,225.5,1.38,10.07-28.46,24.71-122.44,13.51-93.97-11.2-37.99,35.85-116.34,51.7-21.84,4.42-44.49-14.28-75.3-33.87-30.81-19.6-35.51,10.75-66.11-10.9-30.6-21.66-81.88,36.87-79.89,28.29Z"/>
      </g>
    </g>
  </g>
  <path class="cls-6" d="M564.55,339.45l11.99,14.69c.56.69,1.68.29,1.68-.6v-29.38c0-.89-1.12-1.29-1.68-.6l-11.99,14.69c-.28.35-.28.85,0,1.2Z"/>
</svg>